%TF.GenerationSoftware,KiCad,Pcbnew,10.0.0*%
%TF.CreationDate,2026-06-13T13:53:39+02:00*%
%TF.ProjectId,malibotti_stepper_unipolar_pcb,6d616c69-626f-4747-9469-5f7374657070,rev?*%
%TF.SameCoordinates,Original*%
%TF.FileFunction,Legend,Bot*%
%TF.FilePolarity,Positive*%
%FSLAX46Y46*%
G04 Gerber Fmt 4.6, Leading zero omitted, Abs format (unit mm)*
G04 Created by KiCad (PCBNEW 10.0.0) date 2026-06-13 13:53:39*
%MOMM*%
%LPD*%
G01*
G04 APERTURE LIST*
G04 Aperture macros list*
%AMRoundRect*
0 Rectangle with rounded corners*
0 $1 Rounding radius*
0 $2 $3 $4 $5 $6 $7 $8 $9 X,Y pos of 4 corners*
0 Add a 4 corners polygon primitive as box body*
4,1,4,$2,$3,$4,$5,$6,$7,$8,$9,$2,$3,0*
0 Add four circle primitives for the rounded corners*
1,1,$1+$1,$2,$3*
1,1,$1+$1,$4,$5*
1,1,$1+$1,$6,$7*
1,1,$1+$1,$8,$9*
0 Add four rect primitives between the rounded corners*
20,1,$1+$1,$2,$3,$4,$5,0*
20,1,$1+$1,$4,$5,$6,$7,0*
20,1,$1+$1,$6,$7,$8,$9,0*
20,1,$1+$1,$8,$9,$2,$3,0*%
%AMOutline5P*
0 Free polygon, 5 corners , with rotation*
0 The origin of the aperture is its center*
0 number of corners: always 5*
0 $1 to $10 corner X, Y*
0 $11 Rotation angle, in degrees counterclockwise*
0 create outline with 5 corners*
4,1,5,$1,$2,$3,$4,$5,$6,$7,$8,$9,$10,$1,$2,$11*%
%AMOutline6P*
0 Free polygon, 6 corners , with rotation*
0 The origin of the aperture is its center*
0 number of corners: always 6*
0 $1 to $12 corner X, Y*
0 $13 Rotation angle, in degrees counterclockwise*
0 create outline with 6 corners*
4,1,6,$1,$2,$3,$4,$5,$6,$7,$8,$9,$10,$11,$12,$1,$2,$13*%
%AMOutline7P*
0 Free polygon, 7 corners , with rotation*
0 The origin of the aperture is its center*
0 number of corners: always 7*
0 $1 to $14 corner X, Y*
0 $15 Rotation angle, in degrees counterclockwise*
0 create outline with 7 corners*
4,1,7,$1,$2,$3,$4,$5,$6,$7,$8,$9,$10,$11,$12,$13,$14,$1,$2,$15*%
%AMOutline8P*
0 Free polygon, 8 corners , with rotation*
0 The origin of the aperture is its center*
0 number of corners: always 8*
0 $1 to $16 corner X, Y*
0 $17 Rotation angle, in degrees counterclockwise*
0 create outline with 8 corners*
4,1,8,$1,$2,$3,$4,$5,$6,$7,$8,$9,$10,$11,$12,$13,$14,$15,$16,$1,$2,$17*%
G04 Aperture macros list end*
%ADD10C,0.100000*%
%ADD11C,0.250000*%
%ADD12C,0.150000*%
%ADD13C,0.120000*%
%ADD14C,0.127000*%
%ADD15C,0.200000*%
%ADD16C,0.350000*%
%ADD17O,1.600000X2.000000*%
%ADD18RoundRect,0.140000X0.140000X0.170000X-0.140000X0.170000X-0.140000X-0.170000X0.140000X-0.170000X0*%
%ADD19RoundRect,0.250000X-0.450000X0.350000X-0.450000X-0.350000X0.450000X-0.350000X0.450000X0.350000X0*%
%ADD20RoundRect,0.180000X-0.420000X-2.570000X0.420000X-2.570000X0.420000X2.570000X-0.420000X2.570000X0*%
%ADD21RoundRect,0.225000X-0.525000X-1.275000X0.525000X-1.275000X0.525000X1.275000X-0.525000X1.275000X0*%
%ADD22RoundRect,0.250000X-0.475000X0.250000X-0.475000X-0.250000X0.475000X-0.250000X0.475000X0.250000X0*%
%ADD23RoundRect,0.250000X0.475000X-0.250000X0.475000X0.250000X-0.475000X0.250000X-0.475000X-0.250000X0*%
%ADD24RoundRect,0.180000X2.570000X-0.420000X2.570000X0.420000X-2.570000X0.420000X-2.570000X-0.420000X0*%
%ADD25RoundRect,0.225000X1.275000X-0.525000X1.275000X0.525000X-1.275000X0.525000X-1.275000X-0.525000X0*%
%ADD26RoundRect,0.250000X0.950000X0.650000X-0.950000X0.650000X-0.950000X-0.650000X0.950000X-0.650000X0*%
%ADD27R,0.400000X1.000000*%
%ADD28RoundRect,0.135000X-0.185000X0.135000X-0.185000X-0.135000X0.185000X-0.135000X0.185000X0.135000X0*%
%ADD29R,1.000000X2.510000*%
%ADD30RoundRect,0.220000X0.330000X-0.780000X0.330000X0.780000X-0.330000X0.780000X-0.330000X-0.780000X0*%
%ADD31RoundRect,0.135000X0.185000X-0.135000X0.185000X0.135000X-0.185000X0.135000X-0.185000X-0.135000X0*%
%ADD32R,0.800000X0.400000*%
%ADD33R,0.400000X0.800000*%
%ADD34R,1.200000X1.200000*%
%ADD35Outline5P,-0.600000X0.600000X0.600000X0.600000X0.600000X-0.600000X-0.204000X-0.600000X-0.600000X-0.204000X0.000000*%
%ADD36R,0.800000X0.800000*%
%ADD37RoundRect,0.375000X-0.625000X-0.375000X0.625000X-0.375000X0.625000X0.375000X-0.625000X0.375000X0*%
%ADD38RoundRect,0.500000X-0.500000X-1.400000X0.500000X-1.400000X0.500000X1.400000X-0.500000X1.400000X0*%
%ADD39RoundRect,0.082000X-0.328000X-0.618000X0.328000X-0.618000X0.328000X0.618000X-0.328000X0.618000X0*%
%ADD40C,0.650000*%
%ADD41RoundRect,0.150000X-0.150000X-0.575000X0.150000X-0.575000X0.150000X0.575000X-0.150000X0.575000X0*%
%ADD42RoundRect,0.075000X-0.075000X-0.650000X0.075000X-0.650000X0.075000X0.650000X-0.075000X0.650000X0*%
%ADD43O,1.000000X1.600000*%
%ADD44O,1.000000X2.100000*%
%ADD45RoundRect,0.140000X-0.170000X0.140000X-0.170000X-0.140000X0.170000X-0.140000X0.170000X0.140000X0*%
%ADD46RoundRect,0.135000X0.135000X0.185000X-0.135000X0.185000X-0.135000X-0.185000X0.135000X-0.185000X0*%
G04 APERTURE END LIST*
D10*
G36*
X95904597Y-91018530D02*
G01*
X94058940Y-91018530D01*
X94058940Y-89853875D01*
X94170051Y-89853875D01*
X94172491Y-89873230D01*
X94505824Y-90873230D01*
X94515485Y-90890178D01*
X94518826Y-90891848D01*
X94520498Y-90895192D01*
X94535540Y-90900205D01*
X94549714Y-90907293D01*
X94553257Y-90906111D01*
X94556802Y-90907293D01*
X94570981Y-90900203D01*
X94586018Y-90895191D01*
X94587688Y-90891850D01*
X94591031Y-90890179D01*
X94600692Y-90873230D01*
X94748820Y-90428847D01*
X95122306Y-90428847D01*
X95122306Y-90666942D01*
X95122794Y-90669398D01*
X95122432Y-90670487D01*
X95124548Y-90678214D01*
X95126112Y-90686076D01*
X95126923Y-90686887D01*
X95127585Y-90689303D01*
X95175203Y-90784540D01*
X95180114Y-90790868D01*
X95184569Y-90797535D01*
X95232188Y-90845155D01*
X95238854Y-90849609D01*
X95245183Y-90854521D01*
X95340421Y-90902140D01*
X95342836Y-90902801D01*
X95343648Y-90903613D01*
X95351509Y-90905176D01*
X95359237Y-90907293D01*
X95360325Y-90906930D01*
X95362782Y-90907419D01*
X95600877Y-90907419D01*
X95603333Y-90906930D01*
X95604422Y-90907293D01*
X95612149Y-90905176D01*
X95620011Y-90903613D01*
X95620822Y-90902801D01*
X95623238Y-90902140D01*
X95718475Y-90854522D01*
X95724802Y-90849611D01*
X95731471Y-90845155D01*
X95779090Y-90797535D01*
X95789928Y-90781314D01*
X95789928Y-90743045D01*
X95762868Y-90715986D01*
X95724599Y-90715986D01*
X95708378Y-90726825D01*
X95666495Y-90768708D01*
X95589074Y-90807419D01*
X95374586Y-90807419D01*
X95297163Y-90768708D01*
X95261017Y-90732561D01*
X95222306Y-90655139D01*
X95222306Y-90440650D01*
X95261017Y-90363226D01*
X95297162Y-90327082D01*
X95374586Y-90288371D01*
X95589074Y-90288371D01*
X95666497Y-90327082D01*
X95708378Y-90368964D01*
X95724599Y-90379803D01*
X95727244Y-90379803D01*
X95729291Y-90381478D01*
X95746041Y-90379803D01*
X95762868Y-90379803D01*
X95764737Y-90377933D01*
X95767370Y-90377670D01*
X95778030Y-90364640D01*
X95789928Y-90352743D01*
X95789928Y-90350099D01*
X95791603Y-90348052D01*
X95793486Y-90328634D01*
X95745867Y-89852444D01*
X95742309Y-89840777D01*
X95742309Y-89838285D01*
X95741215Y-89837191D01*
X95740176Y-89833783D01*
X95727146Y-89823122D01*
X95715249Y-89811225D01*
X95711756Y-89810530D01*
X95710558Y-89809550D01*
X95708076Y-89809798D01*
X95696115Y-89807419D01*
X95219925Y-89807419D01*
X95200791Y-89811225D01*
X95173731Y-89838285D01*
X95173731Y-89876553D01*
X95200791Y-89903613D01*
X95219925Y-89907419D01*
X95650866Y-89907419D01*
X95682449Y-90223255D01*
X95623238Y-90193650D01*
X95620822Y-90192988D01*
X95620011Y-90192177D01*
X95612149Y-90190613D01*
X95604422Y-90188497D01*
X95603333Y-90188859D01*
X95600877Y-90188371D01*
X95362782Y-90188371D01*
X95360325Y-90188859D01*
X95359237Y-90188497D01*
X95351509Y-90190613D01*
X95343648Y-90192177D01*
X95342836Y-90192988D01*
X95340421Y-90193650D01*
X95245183Y-90241269D01*
X95238854Y-90246180D01*
X95232188Y-90250635D01*
X95184570Y-90298254D01*
X95180118Y-90304915D01*
X95175203Y-90311249D01*
X95127585Y-90406486D01*
X95126923Y-90408901D01*
X95126112Y-90409713D01*
X95124548Y-90417574D01*
X95122432Y-90425302D01*
X95122794Y-90426390D01*
X95122306Y-90428847D01*
X94748820Y-90428847D01*
X94934025Y-89873231D01*
X94936465Y-89853875D01*
X94919351Y-89819647D01*
X94883047Y-89807545D01*
X94848818Y-89824660D01*
X94839157Y-89841608D01*
X94553258Y-90699305D01*
X94267359Y-89841608D01*
X94257698Y-89824659D01*
X94223469Y-89807545D01*
X94187165Y-89819646D01*
X94170051Y-89853875D01*
X94058940Y-89853875D01*
X94058940Y-89696308D01*
X95904597Y-89696308D01*
X95904597Y-91018530D01*
G37*
G36*
X92737034Y-83671863D02*
G01*
X92820106Y-83713399D01*
X92901259Y-83794552D01*
X92942580Y-83918514D01*
X92942580Y-84098496D01*
X92042580Y-84098496D01*
X92042580Y-83918515D01*
X92083901Y-83794552D01*
X92165054Y-83713399D01*
X92248128Y-83671862D01*
X92427307Y-83627068D01*
X92557854Y-83627068D01*
X92737034Y-83671863D01*
G37*
G36*
X93153691Y-86404845D02*
G01*
X91831469Y-86404845D01*
X91831469Y-85815163D01*
X91942580Y-85815163D01*
X91942580Y-85910401D01*
X91944143Y-85918262D01*
X91945146Y-85926213D01*
X91992766Y-86069070D01*
X91994006Y-86071245D01*
X91994006Y-86072392D01*
X91998455Y-86079050D01*
X92002427Y-86086018D01*
X92003454Y-86086531D01*
X92004845Y-86088613D01*
X92100083Y-86183851D01*
X92106742Y-86188301D01*
X92113077Y-86193217D01*
X92208315Y-86240836D01*
X92213596Y-86242282D01*
X92218549Y-86244622D01*
X92409025Y-86292241D01*
X92415142Y-86292538D01*
X92421152Y-86293734D01*
X92564009Y-86293734D01*
X92570018Y-86292538D01*
X92576136Y-86292241D01*
X92766612Y-86244622D01*
X92771564Y-86242282D01*
X92776846Y-86240836D01*
X92872083Y-86193218D01*
X92878416Y-86188302D01*
X92885078Y-86183851D01*
X92980316Y-86088613D01*
X92981706Y-86086531D01*
X92982734Y-86086018D01*
X92986704Y-86079052D01*
X92991155Y-86072392D01*
X92991155Y-86071244D01*
X92992395Y-86069069D01*
X93040014Y-85926213D01*
X93041016Y-85918262D01*
X93042580Y-85910401D01*
X93042580Y-85767544D01*
X93042091Y-85765087D01*
X93042454Y-85763999D01*
X93040337Y-85756271D01*
X93038774Y-85748410D01*
X93037962Y-85747598D01*
X93037301Y-85745183D01*
X92989682Y-85649945D01*
X92977721Y-85634533D01*
X92941416Y-85622432D01*
X92907188Y-85639546D01*
X92895087Y-85675851D01*
X92900240Y-85694667D01*
X92942580Y-85779347D01*
X92942580Y-85902288D01*
X92901259Y-86026249D01*
X92820106Y-86107403D01*
X92737034Y-86148939D01*
X92557854Y-86193734D01*
X92427307Y-86193734D01*
X92248128Y-86148939D01*
X92165054Y-86107402D01*
X92083901Y-86026249D01*
X92042580Y-85902286D01*
X92042580Y-85823277D01*
X92083901Y-85699314D01*
X92108530Y-85674687D01*
X92371152Y-85674687D01*
X92371152Y-85815163D01*
X92374958Y-85834297D01*
X92402018Y-85861357D01*
X92440286Y-85861357D01*
X92467346Y-85834297D01*
X92471152Y-85815163D01*
X92471152Y-85624687D01*
X92467346Y-85605553D01*
X92440286Y-85578493D01*
X92421152Y-85574687D01*
X92087819Y-85574687D01*
X92068685Y-85578493D01*
X92068684Y-85578493D01*
X92052463Y-85589332D01*
X92004845Y-85636951D01*
X92003454Y-85639032D01*
X92002427Y-85639546D01*
X91998455Y-85646513D01*
X91994006Y-85653172D01*
X91994006Y-85654318D01*
X91992766Y-85656494D01*
X91945146Y-85799351D01*
X91944143Y-85807301D01*
X91942580Y-85815163D01*
X91831469Y-85815163D01*
X91831469Y-84618381D01*
X91942979Y-84618381D01*
X91946386Y-84630873D01*
X91946386Y-84643821D01*
X91951240Y-84648675D01*
X91953048Y-84655302D01*
X91967773Y-84668099D01*
X92804302Y-85146115D01*
X91992580Y-85146115D01*
X91973446Y-85149921D01*
X91946386Y-85176981D01*
X91946386Y-85215249D01*
X91973446Y-85242309D01*
X91992580Y-85246115D01*
X92992580Y-85246115D01*
X93011714Y-85242309D01*
X93016568Y-85237454D01*
X93023195Y-85235647D01*
X93029620Y-85224402D01*
X93038774Y-85215249D01*
X93038774Y-85208383D01*
X93042181Y-85202421D01*
X93038774Y-85189928D01*
X93038774Y-85176981D01*
X93033918Y-85172125D01*
X93032112Y-85165501D01*
X93017387Y-85152703D01*
X92180858Y-84674687D01*
X92992580Y-84674687D01*
X93011714Y-84670881D01*
X93038774Y-84643821D01*
X93038774Y-84605553D01*
X93011714Y-84578493D01*
X92992580Y-84574687D01*
X91992580Y-84574687D01*
X91973446Y-84578493D01*
X91968591Y-84583347D01*
X91961965Y-84585155D01*
X91955539Y-84596399D01*
X91946386Y-84605553D01*
X91946386Y-84612418D01*
X91942979Y-84618381D01*
X91831469Y-84618381D01*
X91831469Y-83910401D01*
X91942580Y-83910401D01*
X91942580Y-84148496D01*
X91946386Y-84167630D01*
X91973446Y-84194690D01*
X91992580Y-84198496D01*
X92992580Y-84198496D01*
X93011714Y-84194690D01*
X93038774Y-84167630D01*
X93042580Y-84148496D01*
X93042580Y-83910401D01*
X93041016Y-83902539D01*
X93040014Y-83894589D01*
X92992395Y-83751733D01*
X92991155Y-83749557D01*
X92991155Y-83748410D01*
X92986704Y-83741749D01*
X92982734Y-83734784D01*
X92981706Y-83734270D01*
X92980316Y-83732189D01*
X92885078Y-83636951D01*
X92878416Y-83632499D01*
X92872083Y-83627584D01*
X92776846Y-83579966D01*
X92771564Y-83578519D01*
X92766612Y-83576180D01*
X92576136Y-83528561D01*
X92570018Y-83528263D01*
X92564009Y-83527068D01*
X92421152Y-83527068D01*
X92415142Y-83528263D01*
X92409025Y-83528561D01*
X92218549Y-83576180D01*
X92213596Y-83578519D01*
X92208315Y-83579966D01*
X92113077Y-83627585D01*
X92106742Y-83632500D01*
X92100083Y-83636951D01*
X92004845Y-83732189D01*
X92003454Y-83734270D01*
X92002427Y-83734784D01*
X91998455Y-83741751D01*
X91994006Y-83748410D01*
X91994006Y-83749556D01*
X91992766Y-83751732D01*
X91945146Y-83894589D01*
X91944143Y-83902539D01*
X91942580Y-83910401D01*
X91831469Y-83910401D01*
X91831469Y-83415957D01*
X93153691Y-83415957D01*
X93153691Y-86404845D01*
G37*
G36*
X98303691Y-86404845D02*
G01*
X96981469Y-86404845D01*
X96981469Y-85862782D01*
X97092580Y-85862782D01*
X97092580Y-86100877D01*
X97094143Y-86108738D01*
X97095146Y-86116689D01*
X97142766Y-86259546D01*
X97152427Y-86276494D01*
X97186656Y-86293608D01*
X97222960Y-86281507D01*
X97240074Y-86247278D01*
X97237634Y-86227922D01*
X97192580Y-86092762D01*
X97192580Y-85874585D01*
X97231292Y-85797161D01*
X97267437Y-85761017D01*
X97344861Y-85722306D01*
X97416492Y-85722306D01*
X97493915Y-85761017D01*
X97530059Y-85797162D01*
X97571595Y-85880234D01*
X97617883Y-86065385D01*
X97620222Y-86070337D01*
X97621669Y-86075619D01*
X97669287Y-86170856D01*
X97674202Y-86177189D01*
X97678654Y-86183851D01*
X97726272Y-86231470D01*
X97732938Y-86235924D01*
X97739267Y-86240836D01*
X97834505Y-86288455D01*
X97836920Y-86289116D01*
X97837732Y-86289928D01*
X97845593Y-86291491D01*
X97853321Y-86293608D01*
X97854409Y-86293245D01*
X97856866Y-86293734D01*
X97952104Y-86293734D01*
X97954560Y-86293245D01*
X97955649Y-86293608D01*
X97963376Y-86291491D01*
X97971238Y-86289928D01*
X97972049Y-86289116D01*
X97974465Y-86288455D01*
X98069702Y-86240837D01*
X98076035Y-86235921D01*
X98082697Y-86231470D01*
X98130316Y-86183852D01*
X98134770Y-86177185D01*
X98139682Y-86170857D01*
X98187301Y-86075619D01*
X98187962Y-86073203D01*
X98188774Y-86072392D01*
X98190337Y-86064530D01*
X98192454Y-86056803D01*
X98192091Y-86055714D01*
X98192580Y-86053258D01*
X98192580Y-85815163D01*
X98191016Y-85807301D01*
X98190014Y-85799351D01*
X98142395Y-85656495D01*
X98132734Y-85639546D01*
X98098505Y-85622432D01*
X98062201Y-85634533D01*
X98045087Y-85668762D01*
X98047527Y-85688117D01*
X98092580Y-85823276D01*
X98092580Y-86041454D01*
X98053868Y-86118877D01*
X98017724Y-86155022D01*
X97940301Y-86193734D01*
X97868670Y-86193734D01*
X97791246Y-86155022D01*
X97755101Y-86118878D01*
X97713566Y-86035807D01*
X97667278Y-85850655D01*
X97664938Y-85845702D01*
X97663492Y-85840421D01*
X97615873Y-85745183D01*
X97610961Y-85738854D01*
X97606507Y-85732188D01*
X97558888Y-85684570D01*
X97552226Y-85680118D01*
X97545893Y-85675203D01*
X97450656Y-85627585D01*
X97448240Y-85626923D01*
X97447429Y-85626112D01*
X97439567Y-85624548D01*
X97431840Y-85622432D01*
X97430751Y-85622794D01*
X97428295Y-85622306D01*
X97333057Y-85622306D01*
X97330600Y-85622794D01*
X97329512Y-85622432D01*
X97321784Y-85624548D01*
X97313923Y-85626112D01*
X97313111Y-85626923D01*
X97310696Y-85627585D01*
X97215458Y-85675204D01*
X97209129Y-85680115D01*
X97202463Y-85684570D01*
X97154845Y-85732189D01*
X97150394Y-85738848D01*
X97145479Y-85745183D01*
X97097859Y-85840421D01*
X97097197Y-85842836D01*
X97096386Y-85843648D01*
X97094822Y-85851509D01*
X97092706Y-85859237D01*
X97093068Y-85860325D01*
X97092580Y-85862782D01*
X96981469Y-85862782D01*
X96981469Y-85224600D01*
X97096386Y-85224600D01*
X97096386Y-85262868D01*
X97123446Y-85289928D01*
X97142580Y-85293734D01*
X98142580Y-85293734D01*
X98161714Y-85289928D01*
X98188774Y-85262868D01*
X98188774Y-85224600D01*
X98161714Y-85197540D01*
X98142580Y-85193734D01*
X97142580Y-85193734D01*
X97123446Y-85197540D01*
X97096386Y-85224600D01*
X96981469Y-85224600D01*
X96981469Y-84386592D01*
X97092580Y-84386592D01*
X97092580Y-84481830D01*
X97094143Y-84489691D01*
X97095146Y-84497642D01*
X97142766Y-84640499D01*
X97144006Y-84642674D01*
X97144006Y-84643821D01*
X97148455Y-84650479D01*
X97152427Y-84657447D01*
X97153454Y-84657960D01*
X97154845Y-84660042D01*
X97250083Y-84755280D01*
X97256742Y-84759730D01*
X97263077Y-84764646D01*
X97358315Y-84812265D01*
X97363596Y-84813711D01*
X97368549Y-84816051D01*
X97559025Y-84863670D01*
X97565142Y-84863967D01*
X97571152Y-84865163D01*
X97714009Y-84865163D01*
X97720018Y-84863967D01*
X97726136Y-84863670D01*
X97916612Y-84816051D01*
X97921564Y-84813711D01*
X97926846Y-84812265D01*
X98022083Y-84764647D01*
X98028416Y-84759731D01*
X98035078Y-84755280D01*
X98130316Y-84660042D01*
X98131706Y-84657960D01*
X98132734Y-84657447D01*
X98136704Y-84650481D01*
X98141155Y-84643821D01*
X98141155Y-84642673D01*
X98142395Y-84640498D01*
X98190014Y-84497642D01*
X98191016Y-84489691D01*
X98192580Y-84481830D01*
X98192580Y-84338973D01*
X98192091Y-84336516D01*
X98192454Y-84335428D01*
X98190337Y-84327700D01*
X98188774Y-84319839D01*
X98187962Y-84319027D01*
X98187301Y-84316612D01*
X98139682Y-84221374D01*
X98127721Y-84205962D01*
X98091416Y-84193861D01*
X98057188Y-84210975D01*
X98045087Y-84247280D01*
X98050240Y-84266096D01*
X98092580Y-84350776D01*
X98092580Y-84473717D01*
X98051259Y-84597678D01*
X97970106Y-84678832D01*
X97887034Y-84720368D01*
X97707854Y-84765163D01*
X97577307Y-84765163D01*
X97398128Y-84720368D01*
X97315054Y-84678831D01*
X97233901Y-84597678D01*
X97192580Y-84473715D01*
X97192580Y-84394706D01*
X97233901Y-84270743D01*
X97258530Y-84246116D01*
X97521152Y-84246116D01*
X97521152Y-84386592D01*
X97524958Y-84405726D01*
X97552018Y-84432786D01*
X97590286Y-84432786D01*
X97617346Y-84405726D01*
X97621152Y-84386592D01*
X97621152Y-84196116D01*
X97617346Y-84176982D01*
X97590286Y-84149922D01*
X97571152Y-84146116D01*
X97237819Y-84146116D01*
X97218685Y-84149922D01*
X97218684Y-84149922D01*
X97202463Y-84160761D01*
X97154845Y-84208380D01*
X97153454Y-84210461D01*
X97152427Y-84210975D01*
X97148455Y-84217942D01*
X97144006Y-84224601D01*
X97144006Y-84225747D01*
X97142766Y-84227923D01*
X97095146Y-84370780D01*
X97094143Y-84378730D01*
X97092580Y-84386592D01*
X96981469Y-84386592D01*
X96981469Y-84035005D01*
X98303691Y-84035005D01*
X98303691Y-86404845D01*
G37*
D11*
X89599998Y-94309500D02*
X89428570Y-94380928D01*
X89428570Y-94380928D02*
X89142855Y-94380928D01*
X89142855Y-94380928D02*
X89028570Y-94309500D01*
X89028570Y-94309500D02*
X88971427Y-94238071D01*
X88971427Y-94238071D02*
X88914284Y-94095214D01*
X88914284Y-94095214D02*
X88914284Y-93952357D01*
X88914284Y-93952357D02*
X88971427Y-93809500D01*
X88971427Y-93809500D02*
X89028570Y-93738071D01*
X89028570Y-93738071D02*
X89142855Y-93666642D01*
X89142855Y-93666642D02*
X89371427Y-93595214D01*
X89371427Y-93595214D02*
X89485712Y-93523785D01*
X89485712Y-93523785D02*
X89542855Y-93452357D01*
X89542855Y-93452357D02*
X89599998Y-93309500D01*
X89599998Y-93309500D02*
X89599998Y-93166642D01*
X89599998Y-93166642D02*
X89542855Y-93023785D01*
X89542855Y-93023785D02*
X89485712Y-92952357D01*
X89485712Y-92952357D02*
X89371427Y-92880928D01*
X89371427Y-92880928D02*
X89085712Y-92880928D01*
X89085712Y-92880928D02*
X88914284Y-92952357D01*
X88571427Y-93380928D02*
X88114284Y-93380928D01*
X88399998Y-92880928D02*
X88399998Y-94166642D01*
X88399998Y-94166642D02*
X88342855Y-94309500D01*
X88342855Y-94309500D02*
X88228570Y-94380928D01*
X88228570Y-94380928D02*
X88114284Y-94380928D01*
X87257141Y-94309500D02*
X87371427Y-94380928D01*
X87371427Y-94380928D02*
X87599999Y-94380928D01*
X87599999Y-94380928D02*
X87714284Y-94309500D01*
X87714284Y-94309500D02*
X87771427Y-94166642D01*
X87771427Y-94166642D02*
X87771427Y-93595214D01*
X87771427Y-93595214D02*
X87714284Y-93452357D01*
X87714284Y-93452357D02*
X87599999Y-93380928D01*
X87599999Y-93380928D02*
X87371427Y-93380928D01*
X87371427Y-93380928D02*
X87257141Y-93452357D01*
X87257141Y-93452357D02*
X87199999Y-93595214D01*
X87199999Y-93595214D02*
X87199999Y-93738071D01*
X87199999Y-93738071D02*
X87771427Y-93880928D01*
X86685713Y-93380928D02*
X86685713Y-94880928D01*
X86685713Y-93452357D02*
X86571428Y-93380928D01*
X86571428Y-93380928D02*
X86342856Y-93380928D01*
X86342856Y-93380928D02*
X86228570Y-93452357D01*
X86228570Y-93452357D02*
X86171428Y-93523785D01*
X86171428Y-93523785D02*
X86114285Y-93666642D01*
X86114285Y-93666642D02*
X86114285Y-94095214D01*
X86114285Y-94095214D02*
X86171428Y-94238071D01*
X86171428Y-94238071D02*
X86228570Y-94309500D01*
X86228570Y-94309500D02*
X86342856Y-94380928D01*
X86342856Y-94380928D02*
X86571428Y-94380928D01*
X86571428Y-94380928D02*
X86685713Y-94309500D01*
X85599999Y-93380928D02*
X85599999Y-94880928D01*
X85599999Y-93452357D02*
X85485714Y-93380928D01*
X85485714Y-93380928D02*
X85257142Y-93380928D01*
X85257142Y-93380928D02*
X85142856Y-93452357D01*
X85142856Y-93452357D02*
X85085714Y-93523785D01*
X85085714Y-93523785D02*
X85028571Y-93666642D01*
X85028571Y-93666642D02*
X85028571Y-94095214D01*
X85028571Y-94095214D02*
X85085714Y-94238071D01*
X85085714Y-94238071D02*
X85142856Y-94309500D01*
X85142856Y-94309500D02*
X85257142Y-94380928D01*
X85257142Y-94380928D02*
X85485714Y-94380928D01*
X85485714Y-94380928D02*
X85599999Y-94309500D01*
X84057142Y-94309500D02*
X84171428Y-94380928D01*
X84171428Y-94380928D02*
X84400000Y-94380928D01*
X84400000Y-94380928D02*
X84514285Y-94309500D01*
X84514285Y-94309500D02*
X84571428Y-94166642D01*
X84571428Y-94166642D02*
X84571428Y-93595214D01*
X84571428Y-93595214D02*
X84514285Y-93452357D01*
X84514285Y-93452357D02*
X84400000Y-93380928D01*
X84400000Y-93380928D02*
X84171428Y-93380928D01*
X84171428Y-93380928D02*
X84057142Y-93452357D01*
X84057142Y-93452357D02*
X84000000Y-93595214D01*
X84000000Y-93595214D02*
X84000000Y-93738071D01*
X84000000Y-93738071D02*
X84571428Y-93880928D01*
X83485714Y-94380928D02*
X83485714Y-93380928D01*
X83485714Y-93666642D02*
X83428571Y-93523785D01*
X83428571Y-93523785D02*
X83371429Y-93452357D01*
X83371429Y-93452357D02*
X83257143Y-93380928D01*
X83257143Y-93380928D02*
X83142857Y-93380928D01*
X81200000Y-94380928D02*
X81885714Y-94380928D01*
X81542857Y-94380928D02*
X81542857Y-92880928D01*
X81542857Y-92880928D02*
X81657143Y-93095214D01*
X81657143Y-93095214D02*
X81771428Y-93238071D01*
X81771428Y-93238071D02*
X81885714Y-93309500D01*
X82759500Y-102250001D02*
X82830928Y-102421430D01*
X82830928Y-102421430D02*
X82830928Y-102707144D01*
X82830928Y-102707144D02*
X82759500Y-102821430D01*
X82759500Y-102821430D02*
X82688071Y-102878572D01*
X82688071Y-102878572D02*
X82545214Y-102935715D01*
X82545214Y-102935715D02*
X82402357Y-102935715D01*
X82402357Y-102935715D02*
X82259500Y-102878572D01*
X82259500Y-102878572D02*
X82188071Y-102821430D01*
X82188071Y-102821430D02*
X82116642Y-102707144D01*
X82116642Y-102707144D02*
X82045214Y-102478572D01*
X82045214Y-102478572D02*
X81973785Y-102364287D01*
X81973785Y-102364287D02*
X81902357Y-102307144D01*
X81902357Y-102307144D02*
X81759500Y-102250001D01*
X81759500Y-102250001D02*
X81616642Y-102250001D01*
X81616642Y-102250001D02*
X81473785Y-102307144D01*
X81473785Y-102307144D02*
X81402357Y-102364287D01*
X81402357Y-102364287D02*
X81330928Y-102478572D01*
X81330928Y-102478572D02*
X81330928Y-102764287D01*
X81330928Y-102764287D02*
X81402357Y-102935715D01*
X81830928Y-103278572D02*
X81830928Y-103735715D01*
X81330928Y-103450001D02*
X82616642Y-103450001D01*
X82616642Y-103450001D02*
X82759500Y-103507144D01*
X82759500Y-103507144D02*
X82830928Y-103621429D01*
X82830928Y-103621429D02*
X82830928Y-103735715D01*
X82759500Y-104592858D02*
X82830928Y-104478572D01*
X82830928Y-104478572D02*
X82830928Y-104250001D01*
X82830928Y-104250001D02*
X82759500Y-104135715D01*
X82759500Y-104135715D02*
X82616642Y-104078572D01*
X82616642Y-104078572D02*
X82045214Y-104078572D01*
X82045214Y-104078572D02*
X81902357Y-104135715D01*
X81902357Y-104135715D02*
X81830928Y-104250001D01*
X81830928Y-104250001D02*
X81830928Y-104478572D01*
X81830928Y-104478572D02*
X81902357Y-104592858D01*
X81902357Y-104592858D02*
X82045214Y-104650001D01*
X82045214Y-104650001D02*
X82188071Y-104650001D01*
X82188071Y-104650001D02*
X82330928Y-104078572D01*
X81830928Y-105164286D02*
X83330928Y-105164286D01*
X81902357Y-105164286D02*
X81830928Y-105278572D01*
X81830928Y-105278572D02*
X81830928Y-105507143D01*
X81830928Y-105507143D02*
X81902357Y-105621429D01*
X81902357Y-105621429D02*
X81973785Y-105678572D01*
X81973785Y-105678572D02*
X82116642Y-105735714D01*
X82116642Y-105735714D02*
X82545214Y-105735714D01*
X82545214Y-105735714D02*
X82688071Y-105678572D01*
X82688071Y-105678572D02*
X82759500Y-105621429D01*
X82759500Y-105621429D02*
X82830928Y-105507143D01*
X82830928Y-105507143D02*
X82830928Y-105278572D01*
X82830928Y-105278572D02*
X82759500Y-105164286D01*
X81830928Y-106250000D02*
X83330928Y-106250000D01*
X81902357Y-106250000D02*
X81830928Y-106364286D01*
X81830928Y-106364286D02*
X81830928Y-106592857D01*
X81830928Y-106592857D02*
X81902357Y-106707143D01*
X81902357Y-106707143D02*
X81973785Y-106764286D01*
X81973785Y-106764286D02*
X82116642Y-106821428D01*
X82116642Y-106821428D02*
X82545214Y-106821428D01*
X82545214Y-106821428D02*
X82688071Y-106764286D01*
X82688071Y-106764286D02*
X82759500Y-106707143D01*
X82759500Y-106707143D02*
X82830928Y-106592857D01*
X82830928Y-106592857D02*
X82830928Y-106364286D01*
X82830928Y-106364286D02*
X82759500Y-106250000D01*
X82759500Y-107792857D02*
X82830928Y-107678571D01*
X82830928Y-107678571D02*
X82830928Y-107450000D01*
X82830928Y-107450000D02*
X82759500Y-107335714D01*
X82759500Y-107335714D02*
X82616642Y-107278571D01*
X82616642Y-107278571D02*
X82045214Y-107278571D01*
X82045214Y-107278571D02*
X81902357Y-107335714D01*
X81902357Y-107335714D02*
X81830928Y-107450000D01*
X81830928Y-107450000D02*
X81830928Y-107678571D01*
X81830928Y-107678571D02*
X81902357Y-107792857D01*
X81902357Y-107792857D02*
X82045214Y-107850000D01*
X82045214Y-107850000D02*
X82188071Y-107850000D01*
X82188071Y-107850000D02*
X82330928Y-107278571D01*
X82830928Y-108364285D02*
X81830928Y-108364285D01*
X82116642Y-108364285D02*
X81973785Y-108421428D01*
X81973785Y-108421428D02*
X81902357Y-108478571D01*
X81902357Y-108478571D02*
X81830928Y-108592856D01*
X81830928Y-108592856D02*
X81830928Y-108707142D01*
X81473785Y-109964285D02*
X81402357Y-110021428D01*
X81402357Y-110021428D02*
X81330928Y-110135714D01*
X81330928Y-110135714D02*
X81330928Y-110421428D01*
X81330928Y-110421428D02*
X81402357Y-110535714D01*
X81402357Y-110535714D02*
X81473785Y-110592856D01*
X81473785Y-110592856D02*
X81616642Y-110649999D01*
X81616642Y-110649999D02*
X81759500Y-110649999D01*
X81759500Y-110649999D02*
X81973785Y-110592856D01*
X81973785Y-110592856D02*
X82830928Y-109907142D01*
X82830928Y-109907142D02*
X82830928Y-110649999D01*
D12*
X103380951Y-82973866D02*
X102619047Y-82973866D01*
X103480951Y-76723866D02*
X102719047Y-76723866D01*
X103099999Y-77104819D02*
X103099999Y-76342914D01*
%TO.C,C3*%
D13*
X80107836Y-94890000D02*
X79892164Y-94890000D01*
X80107836Y-95610000D02*
X79892164Y-95610000D01*
%TO.C,R2*%
X100315000Y-85822936D02*
X100315000Y-86277064D01*
X101785000Y-85822936D02*
X101785000Y-86277064D01*
%TO.C,J1*%
D10*
X94000000Y-91550000D02*
X94000000Y-92050000D01*
X94000000Y-92050000D02*
X95200000Y-92050000D01*
X95200000Y-92050000D02*
X95200000Y-91550000D01*
X104000000Y-91575000D02*
X104000000Y-92075000D01*
X104000000Y-92075000D02*
X105200000Y-92075000D01*
X105200000Y-92075000D02*
X105200000Y-91550000D01*
X92100000Y-91550000D02*
X107100000Y-91550000D01*
X107100000Y-97250000D01*
X92100000Y-97250000D01*
X92100000Y-91550000D01*
%TO.C,C6*%
D13*
X106615000Y-75988748D02*
X106615000Y-76511252D01*
X108085000Y-75988748D02*
X108085000Y-76511252D01*
%TO.C,C5*%
X95715000Y-68011252D02*
X95715000Y-67488748D01*
X97185000Y-68011252D02*
X97185000Y-67488748D01*
%TO.C,C12*%
X84315000Y-126938748D02*
X84315000Y-127461252D01*
X85785000Y-126938748D02*
X85785000Y-127461252D01*
%TO.C,J2*%
D10*
X83871470Y-109049999D02*
X84371470Y-109049999D01*
X83896470Y-99049999D02*
X84396470Y-99049999D01*
X84371470Y-107849999D02*
X83871470Y-107849999D01*
X84371470Y-109049999D02*
X84371470Y-107849999D01*
X84396470Y-97849999D02*
X83871470Y-97849999D01*
X84396470Y-99049999D02*
X84396470Y-97849999D01*
X83871470Y-95949999D02*
X89571470Y-95949999D01*
X89571470Y-110949999D01*
X83871470Y-110949999D01*
X83871470Y-95949999D01*
%TO.C,BZ1*%
D14*
X94000000Y-81450000D02*
X94000000Y-78050000D01*
X96050000Y-76000000D02*
X99450000Y-76000000D01*
D13*
X97350000Y-76000000D02*
X94000000Y-79350000D01*
D14*
X99450000Y-83500000D02*
X96050000Y-83500000D01*
X101500000Y-78050000D02*
X101500000Y-81450000D01*
D13*
X94000000Y-78500000D02*
X95100000Y-78500000D01*
X95100000Y-81000000D01*
X94000000Y-81000000D01*
X94000000Y-78500000D01*
%TO.C,U1*%
X95840000Y-104490000D02*
X96140000Y-104490000D01*
X95840000Y-109110000D02*
X95840000Y-104490000D01*
X96140000Y-109110000D02*
X95840000Y-109110000D01*
X102260000Y-109110000D02*
X102560000Y-109110000D01*
X102560000Y-104490000D02*
X102260000Y-104490000D01*
X102560000Y-109110000D02*
X102560000Y-104490000D01*
X102590000Y-109795000D02*
X102260000Y-109555000D01*
X102590000Y-109315000D01*
X102590000Y-109795000D01*
G36*
X102590000Y-109795000D02*
G01*
X102260000Y-109555000D01*
X102590000Y-109315000D01*
X102590000Y-109795000D01*
G37*
%TO.C,R9*%
X88420000Y-76896359D02*
X88420000Y-77203641D01*
X89180000Y-76896359D02*
X89180000Y-77203641D01*
%TO.C,J3*%
X91080000Y-89480000D02*
X91080000Y-86720000D01*
X91650000Y-86720000D02*
X91080000Y-86720000D01*
X94190000Y-86720000D02*
X91080000Y-86720000D01*
X96730000Y-89480000D02*
X93270000Y-89480000D01*
X98350000Y-86720000D02*
X95810000Y-86720000D01*
X98350000Y-89480000D02*
X98350000Y-90950000D01*
X98920000Y-89480000D02*
X98350000Y-89480000D01*
X98920000Y-89480000D02*
X98920000Y-86720000D01*
%TO.C,SW1*%
X81070000Y-117220000D02*
X81100000Y-117220000D01*
X81070000Y-123680000D02*
X81070000Y-117220000D01*
X81070000Y-123680000D02*
X81100000Y-123680000D01*
X85600000Y-117220000D02*
X83000000Y-117220000D01*
X85600000Y-123680000D02*
X83000000Y-123680000D01*
X87500000Y-123680000D02*
X87530000Y-123680000D01*
X87530000Y-117220000D02*
X87500000Y-117220000D01*
X87530000Y-123680000D02*
X87530000Y-117220000D01*
%TO.C,R26*%
X83170000Y-126246359D02*
X83170000Y-126553641D01*
X83930000Y-126246359D02*
X83930000Y-126553641D01*
%TO.C,R3*%
X104770000Y-76253641D02*
X104770000Y-75946359D01*
X105530000Y-76253641D02*
X105530000Y-75946359D01*
%TO.C,U5*%
X87475000Y-134300000D02*
X87475000Y-131850000D01*
X87475000Y-134300000D02*
X89925000Y-134300000D01*
X87750000Y-113350000D02*
X87750000Y-134050000D01*
X87750000Y-134050000D02*
X103350000Y-134050000D01*
X103350000Y-113350000D02*
X87750000Y-113350000D01*
X103350000Y-134050000D02*
X103350000Y-113350000D01*
X87575000Y-127100000D02*
X87239000Y-127340000D01*
X87239000Y-126860000D01*
X87575000Y-127100000D01*
G36*
X87575000Y-127100000D02*
G01*
X87239000Y-127340000D01*
X87239000Y-126860000D01*
X87575000Y-127100000D01*
G37*
%TO.C,U3*%
X100000000Y-66240000D02*
X103760000Y-66240000D01*
X100000000Y-73060000D02*
X103760000Y-73060000D01*
X103760000Y-66240000D02*
X103760000Y-67500000D01*
X103760000Y-73060000D02*
X103760000Y-71800000D01*
X98960000Y-73290000D02*
X98480000Y-73290000D01*
X98720000Y-72960000D01*
X98960000Y-73290000D01*
G36*
X98960000Y-73290000D02*
G01*
X98480000Y-73290000D01*
X98720000Y-72960000D01*
X98960000Y-73290000D01*
G37*
%TO.C,SW8*%
X84152542Y-81161991D02*
X84182542Y-81161991D01*
X84152542Y-87621991D02*
X84152542Y-81161991D01*
X84152542Y-87621991D02*
X84182542Y-87621991D01*
X88682542Y-81161991D02*
X86082542Y-81161991D01*
X88682542Y-87621991D02*
X86082542Y-87621991D01*
X90582542Y-87621991D02*
X90612542Y-87621991D01*
X90612542Y-81161991D02*
X90582542Y-81161991D01*
X90612542Y-87621991D02*
X90612542Y-81161991D01*
%TO.C,R8*%
X90670000Y-76446359D02*
X90670000Y-76753641D01*
X91430000Y-76446359D02*
X91430000Y-76753641D01*
%TO.C,R7*%
X91420000Y-79046359D02*
X91420000Y-79353641D01*
X92180000Y-79046359D02*
X92180000Y-79353641D01*
%TO.C,D21*%
D15*
X77737500Y-101400000D02*
X78537500Y-102200000D01*
D16*
X80712500Y-96200000D02*
G75*
G02*
X80362500Y-96200000I-175000J0D01*
G01*
X80362500Y-96200000D02*
G75*
G02*
X80712500Y-96200000I175000J0D01*
G01*
D10*
X79337500Y-103800000D02*
X78737500Y-103800000D01*
X79037500Y-103500000D01*
X79337500Y-103800000D01*
G36*
X79337500Y-103800000D02*
G01*
X78737500Y-103800000D01*
X79037500Y-103500000D01*
X79337500Y-103800000D01*
G37*
%TO.C,J5*%
D13*
X85450000Y-66300000D02*
X94850000Y-66300000D01*
X85450000Y-68200000D02*
X85450000Y-66300000D01*
X85450000Y-72100000D02*
X85450000Y-70100000D01*
X94850000Y-68200000D02*
X94850000Y-66300000D01*
X94850000Y-72100000D02*
X94850000Y-70100000D01*
%TO.C,C11*%
X86740000Y-126692164D02*
X86740000Y-126907836D01*
X87460000Y-126692164D02*
X87460000Y-126907836D01*
%TO.C,C10*%
X96590000Y-70292164D02*
X96590000Y-70507836D01*
X97310000Y-70292164D02*
X97310000Y-70507836D01*
%TO.C,R4*%
X103453641Y-75770000D02*
X103146359Y-75770000D01*
X103453641Y-76530000D02*
X103146359Y-76530000D01*
%TO.C,R1*%
X87470000Y-76896359D02*
X87470000Y-77203641D01*
X88230000Y-76896359D02*
X88230000Y-77203641D01*
%TO.C,C9*%
X95640000Y-70292164D02*
X95640000Y-70507836D01*
X96360000Y-70292164D02*
X96360000Y-70507836D01*
%TD*%
%LPC*%
D17*
%TO.C,SW2*%
X69080000Y-98800000D03*
X64000000Y-98800000D03*
X58900000Y-98800000D03*
%TD*%
%TO.C,J6*%
X117450000Y-74072500D03*
X114950000Y-74072500D03*
X112450000Y-74072500D03*
X109950000Y-74072500D03*
%TD*%
%TO.C,SW3*%
X69100000Y-101200000D03*
X64000000Y-101200000D03*
X58920000Y-101200000D03*
%TD*%
%TO.C,J4*%
X104850000Y-74072500D03*
X102350000Y-74072500D03*
X99850000Y-74072500D03*
X97350000Y-74072500D03*
%TD*%
D18*
%TO.C,C3*%
X80480000Y-95250000D03*
X79520000Y-95250000D03*
%TD*%
D19*
%TO.C,R2*%
X101050000Y-85050000D03*
X101050000Y-87050000D03*
%TD*%
D20*
%TO.C,J1*%
X94600000Y-97450000D03*
X97100000Y-97450000D03*
X99600000Y-97450000D03*
X102100000Y-97450000D03*
X104600000Y-97450000D03*
D21*
X91500000Y-93700000D03*
X107700000Y-93700000D03*
%TD*%
D22*
%TO.C,C6*%
X107350000Y-75300000D03*
X107350000Y-77200000D03*
%TD*%
D23*
%TO.C,C5*%
X96450000Y-68700000D03*
X96450000Y-66800000D03*
%TD*%
D22*
%TO.C,C12*%
X85050000Y-126250000D03*
X85050000Y-128150000D03*
%TD*%
D24*
%TO.C,J2*%
X89771470Y-108449999D03*
X89771470Y-105949999D03*
X89771470Y-103449999D03*
X89771470Y-100949999D03*
X89771470Y-98449999D03*
D25*
X86021470Y-111549999D03*
X86021470Y-95349999D03*
%TD*%
D26*
%TO.C,BZ1*%
X94375000Y-82825000D03*
X94375000Y-76675000D03*
X101125000Y-82825000D03*
X101125000Y-76675000D03*
%TD*%
D27*
%TO.C,U1*%
X101800000Y-109500000D03*
X101150000Y-109500000D03*
X100500000Y-109500000D03*
X99850000Y-109500000D03*
X99200000Y-109500000D03*
X98550000Y-109500000D03*
X97900000Y-109500000D03*
X97250000Y-109500000D03*
X96600000Y-109500000D03*
X96600000Y-104100000D03*
X97250000Y-104100000D03*
X97900000Y-104100000D03*
X98550000Y-104100000D03*
X99200000Y-104100000D03*
X99850000Y-104100000D03*
X100500000Y-104100000D03*
X101150000Y-104100000D03*
X101800000Y-104100000D03*
%TD*%
D28*
%TO.C,R9*%
X88800000Y-76540000D03*
X88800000Y-77560000D03*
%TD*%
D29*
%TO.C,J3*%
X97540000Y-89755000D03*
X95000000Y-86445000D03*
X92460000Y-89755000D03*
%TD*%
D30*
%TO.C,SW1*%
X86550000Y-124700000D03*
X86550000Y-116200000D03*
X82050000Y-124700000D03*
X82050000Y-116200000D03*
%TD*%
D28*
%TO.C,R26*%
X83550000Y-125890000D03*
X83550000Y-126910000D03*
%TD*%
D31*
%TO.C,R3*%
X105150000Y-76610000D03*
X105150000Y-75590000D03*
%TD*%
D32*
%TO.C,U5*%
X88550000Y-127100000D03*
X88550000Y-126250000D03*
X88550000Y-125400000D03*
X88550000Y-124550000D03*
X88550000Y-123700000D03*
X88550000Y-122850000D03*
X88550000Y-122000000D03*
X88550000Y-121150000D03*
X88550000Y-120300000D03*
X88550000Y-119450000D03*
X88550000Y-118600000D03*
X88550000Y-117750000D03*
X88550000Y-116900000D03*
X88550000Y-116050000D03*
X88550000Y-115200000D03*
D33*
X89600000Y-114150000D03*
X90450000Y-114150000D03*
X91300000Y-114150000D03*
X92150000Y-114150000D03*
X93000000Y-114150000D03*
X93850000Y-114150000D03*
X94700000Y-114150000D03*
X95550000Y-114150000D03*
X96400000Y-114150000D03*
X97250000Y-114150000D03*
X98100000Y-114150000D03*
X98950000Y-114150000D03*
X99800000Y-114150000D03*
X100650000Y-114150000D03*
X101500000Y-114150000D03*
D32*
X102550000Y-115200000D03*
X102550000Y-116050000D03*
X102550000Y-116900000D03*
X102550000Y-117750000D03*
X102550000Y-118600000D03*
X102550000Y-119450000D03*
X102550000Y-120300000D03*
X102550000Y-121150000D03*
X102550000Y-122000000D03*
X102550000Y-122850000D03*
X102550000Y-123700000D03*
X102550000Y-124550000D03*
X102550000Y-125400000D03*
X102550000Y-126250000D03*
X102550000Y-127100000D03*
D33*
X101500000Y-128150000D03*
X100650000Y-128150000D03*
X99800000Y-128150000D03*
X98950000Y-128150000D03*
X98100000Y-128150000D03*
X97250000Y-128150000D03*
X96400000Y-128150000D03*
X95550000Y-128150000D03*
X94700000Y-128150000D03*
X93850000Y-128150000D03*
X93000000Y-128150000D03*
X92150000Y-128150000D03*
X91300000Y-128150000D03*
X90450000Y-128150000D03*
X89600000Y-128150000D03*
D34*
X93900000Y-119500000D03*
X93900000Y-121150000D03*
D35*
X93900000Y-122800000D03*
D34*
X95550000Y-119500000D03*
X95550000Y-121150000D03*
X95550000Y-122800000D03*
X97200000Y-119500000D03*
X97200000Y-121150000D03*
X97200000Y-122800000D03*
D36*
X88550000Y-128150000D03*
X88550000Y-114150000D03*
X102550000Y-114150000D03*
X102550000Y-128150000D03*
%TD*%
D37*
%TO.C,U3*%
X98700000Y-71950000D03*
X98700000Y-69650000D03*
D38*
X105000000Y-69650000D03*
D37*
X98700000Y-67350000D03*
%TD*%
D30*
%TO.C,SW8*%
X89632542Y-88641991D03*
X89632542Y-80141991D03*
X85132542Y-88641991D03*
X85132542Y-80141991D03*
%TD*%
D28*
%TO.C,R8*%
X91050000Y-76090000D03*
X91050000Y-77110000D03*
%TD*%
%TO.C,R7*%
X91800000Y-78690000D03*
X91800000Y-79710000D03*
%TD*%
D39*
%TO.C,D21*%
X80487500Y-97300000D03*
X78987500Y-97300000D03*
X78987500Y-102700000D03*
X80487500Y-102700000D03*
%TD*%
D40*
%TO.C,J5*%
X87260000Y-72800000D03*
X93040000Y-72800000D03*
D41*
X86900000Y-74245000D03*
X87700000Y-74245000D03*
D42*
X88900000Y-74245000D03*
X89900000Y-74245000D03*
X90400000Y-74245000D03*
X91400000Y-74245000D03*
D41*
X92600000Y-74245000D03*
X93400000Y-74245000D03*
X93400000Y-74245000D03*
X92600000Y-74245000D03*
D42*
X91900000Y-74245000D03*
X90900000Y-74245000D03*
X89400000Y-74245000D03*
X88400000Y-74245000D03*
D41*
X87700000Y-74245000D03*
X86900000Y-74245000D03*
D43*
X85830000Y-69150000D03*
D44*
X85830000Y-73330000D03*
D43*
X94470000Y-69150000D03*
D44*
X94470000Y-73330000D03*
%TD*%
D45*
%TO.C,C11*%
X87100000Y-126320000D03*
X87100000Y-127280000D03*
%TD*%
%TO.C,C10*%
X96950000Y-69920000D03*
X96950000Y-70880000D03*
%TD*%
D46*
%TO.C,R4*%
X103810000Y-76150000D03*
X102790000Y-76150000D03*
%TD*%
D28*
%TO.C,R1*%
X87850000Y-76540000D03*
X87850000Y-77560000D03*
%TD*%
D45*
%TO.C,C9*%
X96000000Y-69920000D03*
X96000000Y-70880000D03*
%TD*%
%LPD*%
M02*
