%TF.GenerationSoftware,KiCad,Pcbnew,10.0.0*%
%TF.CreationDate,2026-06-13T13:53:39+02:00*%
%TF.ProjectId,malibotti_stepper_unipolar_pcb,6d616c69-626f-4747-9469-5f7374657070,rev?*%
%TF.SameCoordinates,Original*%
%TF.FileFunction,Paste,Bot*%
%TF.FilePolarity,Positive*%
%FSLAX46Y46*%
G04 Gerber Fmt 4.6, Leading zero omitted, Abs format (unit mm)*
G04 Created by KiCad (PCBNEW 10.0.0) date 2026-06-13 13:53:39*
%MOMM*%
%LPD*%
G01*
G04 APERTURE LIST*
G04 Aperture macros list*
%AMRoundRect*
0 Rectangle with rounded corners*
0 $1 Rounding radius*
0 $2 $3 $4 $5 $6 $7 $8 $9 X,Y pos of 4 corners*
0 Add a 4 corners polygon primitive as box body*
4,1,4,$2,$3,$4,$5,$6,$7,$8,$9,$2,$3,0*
0 Add four circle primitives for the rounded corners*
1,1,$1+$1,$2,$3*
1,1,$1+$1,$4,$5*
1,1,$1+$1,$6,$7*
1,1,$1+$1,$8,$9*
0 Add four rect primitives between the rounded corners*
20,1,$1+$1,$2,$3,$4,$5,0*
20,1,$1+$1,$4,$5,$6,$7,0*
20,1,$1+$1,$6,$7,$8,$9,0*
20,1,$1+$1,$8,$9,$2,$3,0*%
%AMOutline5P*
0 Free polygon, 5 corners , with rotation*
0 The origin of the aperture is its center*
0 number of corners: always 5*
0 $1 to $10 corner X, Y*
0 $11 Rotation angle, in degrees counterclockwise*
0 create outline with 5 corners*
4,1,5,$1,$2,$3,$4,$5,$6,$7,$8,$9,$10,$1,$2,$11*%
%AMOutline6P*
0 Free polygon, 6 corners , with rotation*
0 The origin of the aperture is its center*
0 number of corners: always 6*
0 $1 to $12 corner X, Y*
0 $13 Rotation angle, in degrees counterclockwise*
0 create outline with 6 corners*
4,1,6,$1,$2,$3,$4,$5,$6,$7,$8,$9,$10,$11,$12,$1,$2,$13*%
%AMOutline7P*
0 Free polygon, 7 corners , with rotation*
0 The origin of the aperture is its center*
0 number of corners: always 7*
0 $1 to $14 corner X, Y*
0 $15 Rotation angle, in degrees counterclockwise*
0 create outline with 7 corners*
4,1,7,$1,$2,$3,$4,$5,$6,$7,$8,$9,$10,$11,$12,$13,$14,$1,$2,$15*%
%AMOutline8P*
0 Free polygon, 8 corners , with rotation*
0 The origin of the aperture is its center*
0 number of corners: always 8*
0 $1 to $16 corner X, Y*
0 $17 Rotation angle, in degrees counterclockwise*
0 create outline with 8 corners*
4,1,8,$1,$2,$3,$4,$5,$6,$7,$8,$9,$10,$11,$12,$13,$14,$15,$16,$1,$2,$17*%
G04 Aperture macros list end*
%ADD10RoundRect,0.140000X0.140000X0.170000X-0.140000X0.170000X-0.140000X-0.170000X0.140000X-0.170000X0*%
%ADD11RoundRect,0.250000X-0.450000X0.350000X-0.450000X-0.350000X0.450000X-0.350000X0.450000X0.350000X0*%
%ADD12RoundRect,0.180000X-0.420000X-2.570000X0.420000X-2.570000X0.420000X2.570000X-0.420000X2.570000X0*%
%ADD13RoundRect,0.225000X-0.525000X-1.275000X0.525000X-1.275000X0.525000X1.275000X-0.525000X1.275000X0*%
%ADD14RoundRect,0.250000X-0.475000X0.250000X-0.475000X-0.250000X0.475000X-0.250000X0.475000X0.250000X0*%
%ADD15RoundRect,0.250000X0.475000X-0.250000X0.475000X0.250000X-0.475000X0.250000X-0.475000X-0.250000X0*%
%ADD16RoundRect,0.180000X2.570000X-0.420000X2.570000X0.420000X-2.570000X0.420000X-2.570000X-0.420000X0*%
%ADD17RoundRect,0.225000X1.275000X-0.525000X1.275000X0.525000X-1.275000X0.525000X-1.275000X-0.525000X0*%
%ADD18RoundRect,0.250000X0.950000X0.650000X-0.950000X0.650000X-0.950000X-0.650000X0.950000X-0.650000X0*%
%ADD19R,0.400000X1.000000*%
%ADD20RoundRect,0.135000X-0.185000X0.135000X-0.185000X-0.135000X0.185000X-0.135000X0.185000X0.135000X0*%
%ADD21R,1.000000X2.510000*%
%ADD22RoundRect,0.220000X0.330000X-0.780000X0.330000X0.780000X-0.330000X0.780000X-0.330000X-0.780000X0*%
%ADD23RoundRect,0.135000X0.185000X-0.135000X0.185000X0.135000X-0.185000X0.135000X-0.185000X-0.135000X0*%
%ADD24R,0.800000X0.400000*%
%ADD25R,0.400000X0.800000*%
%ADD26R,1.200000X1.200000*%
%ADD27Outline5P,-0.600000X0.600000X0.600000X0.600000X0.600000X-0.600000X-0.204000X-0.600000X-0.600000X-0.204000X0.000000*%
%ADD28R,0.800000X0.800000*%
%ADD29RoundRect,0.375000X-0.625000X-0.375000X0.625000X-0.375000X0.625000X0.375000X-0.625000X0.375000X0*%
%ADD30RoundRect,0.500000X-0.500000X-1.400000X0.500000X-1.400000X0.500000X1.400000X-0.500000X1.400000X0*%
%ADD31RoundRect,0.082000X-0.328000X-0.618000X0.328000X-0.618000X0.328000X0.618000X-0.328000X0.618000X0*%
%ADD32RoundRect,0.150000X-0.150000X-0.575000X0.150000X-0.575000X0.150000X0.575000X-0.150000X0.575000X0*%
%ADD33RoundRect,0.075000X-0.075000X-0.650000X0.075000X-0.650000X0.075000X0.650000X-0.075000X0.650000X0*%
%ADD34RoundRect,0.140000X-0.170000X0.140000X-0.170000X-0.140000X0.170000X-0.140000X0.170000X0.140000X0*%
%ADD35RoundRect,0.135000X0.135000X0.185000X-0.135000X0.185000X-0.135000X-0.185000X0.135000X-0.185000X0*%
G04 APERTURE END LIST*
D10*
%TO.C,C3*%
X80480000Y-95250000D03*
X79520000Y-95250000D03*
%TD*%
D11*
%TO.C,R2*%
X101050000Y-85050000D03*
X101050000Y-87050000D03*
%TD*%
D12*
%TO.C,J1*%
X94600000Y-97450000D03*
X97100000Y-97450000D03*
X99600000Y-97450000D03*
X102100000Y-97450000D03*
X104600000Y-97450000D03*
D13*
X91500000Y-93700000D03*
X107700000Y-93700000D03*
%TD*%
D14*
%TO.C,C6*%
X107350000Y-75300000D03*
X107350000Y-77200000D03*
%TD*%
D15*
%TO.C,C5*%
X96450000Y-68700000D03*
X96450000Y-66800000D03*
%TD*%
D14*
%TO.C,C12*%
X85050000Y-126250000D03*
X85050000Y-128150000D03*
%TD*%
D16*
%TO.C,J2*%
X89771470Y-108449999D03*
X89771470Y-105949999D03*
X89771470Y-103449999D03*
X89771470Y-100949999D03*
X89771470Y-98449999D03*
D17*
X86021470Y-111549999D03*
X86021470Y-95349999D03*
%TD*%
D18*
%TO.C,BZ1*%
X94375000Y-82825000D03*
X94375000Y-76675000D03*
X101125000Y-82825000D03*
X101125000Y-76675000D03*
%TD*%
D19*
%TO.C,U1*%
X101800000Y-109500000D03*
X101150000Y-109500000D03*
X100500000Y-109500000D03*
X99850000Y-109500000D03*
X99200000Y-109500000D03*
X98550000Y-109500000D03*
X97900000Y-109500000D03*
X97250000Y-109500000D03*
X96600000Y-109500000D03*
X96600000Y-104100000D03*
X97250000Y-104100000D03*
X97900000Y-104100000D03*
X98550000Y-104100000D03*
X99200000Y-104100000D03*
X99850000Y-104100000D03*
X100500000Y-104100000D03*
X101150000Y-104100000D03*
X101800000Y-104100000D03*
%TD*%
D20*
%TO.C,R9*%
X88800000Y-76540000D03*
X88800000Y-77560000D03*
%TD*%
D21*
%TO.C,J3*%
X97540000Y-89755000D03*
X95000000Y-86445000D03*
X92460000Y-89755000D03*
%TD*%
D22*
%TO.C,SW1*%
X86550000Y-124700000D03*
X86550000Y-116200000D03*
X82050000Y-124700000D03*
X82050000Y-116200000D03*
%TD*%
D20*
%TO.C,R26*%
X83550000Y-125890000D03*
X83550000Y-126910000D03*
%TD*%
D23*
%TO.C,R3*%
X105150000Y-76610000D03*
X105150000Y-75590000D03*
%TD*%
D24*
%TO.C,U5*%
X88550000Y-127100000D03*
X88550000Y-126250000D03*
X88550000Y-125400000D03*
X88550000Y-124550000D03*
X88550000Y-123700000D03*
X88550000Y-122850000D03*
X88550000Y-122000000D03*
X88550000Y-121150000D03*
X88550000Y-120300000D03*
X88550000Y-119450000D03*
X88550000Y-118600000D03*
X88550000Y-117750000D03*
X88550000Y-116900000D03*
X88550000Y-116050000D03*
X88550000Y-115200000D03*
D25*
X89600000Y-114150000D03*
X90450000Y-114150000D03*
X91300000Y-114150000D03*
X92150000Y-114150000D03*
X93000000Y-114150000D03*
X93850000Y-114150000D03*
X94700000Y-114150000D03*
X95550000Y-114150000D03*
X96400000Y-114150000D03*
X97250000Y-114150000D03*
X98100000Y-114150000D03*
X98950000Y-114150000D03*
X99800000Y-114150000D03*
X100650000Y-114150000D03*
X101500000Y-114150000D03*
D24*
X102550000Y-115200000D03*
X102550000Y-116050000D03*
X102550000Y-116900000D03*
X102550000Y-117750000D03*
X102550000Y-118600000D03*
X102550000Y-119450000D03*
X102550000Y-120300000D03*
X102550000Y-121150000D03*
X102550000Y-122000000D03*
X102550000Y-122850000D03*
X102550000Y-123700000D03*
X102550000Y-124550000D03*
X102550000Y-125400000D03*
X102550000Y-126250000D03*
X102550000Y-127100000D03*
D25*
X101500000Y-128150000D03*
X100650000Y-128150000D03*
X99800000Y-128150000D03*
X98950000Y-128150000D03*
X98100000Y-128150000D03*
X97250000Y-128150000D03*
X96400000Y-128150000D03*
X95550000Y-128150000D03*
X94700000Y-128150000D03*
X93850000Y-128150000D03*
X93000000Y-128150000D03*
X92150000Y-128150000D03*
X91300000Y-128150000D03*
X90450000Y-128150000D03*
X89600000Y-128150000D03*
D26*
X93900000Y-119500000D03*
X93900000Y-121150000D03*
D27*
X93900000Y-122800000D03*
D26*
X95550000Y-119500000D03*
X95550000Y-121150000D03*
X95550000Y-122800000D03*
X97200000Y-119500000D03*
X97200000Y-121150000D03*
X97200000Y-122800000D03*
D28*
X88550000Y-128150000D03*
X88550000Y-114150000D03*
X102550000Y-114150000D03*
X102550000Y-128150000D03*
%TD*%
D29*
%TO.C,U3*%
X98700000Y-71950000D03*
X98700000Y-69650000D03*
D30*
X105000000Y-69650000D03*
D29*
X98700000Y-67350000D03*
%TD*%
D22*
%TO.C,SW8*%
X89632542Y-88641991D03*
X89632542Y-80141991D03*
X85132542Y-88641991D03*
X85132542Y-80141991D03*
%TD*%
D20*
%TO.C,R8*%
X91050000Y-76090000D03*
X91050000Y-77110000D03*
%TD*%
%TO.C,R7*%
X91800000Y-78690000D03*
X91800000Y-79710000D03*
%TD*%
D31*
%TO.C,D21*%
X80487500Y-97300000D03*
X78987500Y-97300000D03*
X78987500Y-102700000D03*
X80487500Y-102700000D03*
%TD*%
D32*
%TO.C,J5*%
X86900000Y-74245000D03*
X87700000Y-74245000D03*
D33*
X88900000Y-74245000D03*
X89900000Y-74245000D03*
X90400000Y-74245000D03*
X91400000Y-74245000D03*
D32*
X92600000Y-74245000D03*
X93400000Y-74245000D03*
X93400000Y-74245000D03*
X92600000Y-74245000D03*
D33*
X91900000Y-74245000D03*
X90900000Y-74245000D03*
X89400000Y-74245000D03*
X88400000Y-74245000D03*
D32*
X87700000Y-74245000D03*
X86900000Y-74245000D03*
%TD*%
D34*
%TO.C,C11*%
X87100000Y-126320000D03*
X87100000Y-127280000D03*
%TD*%
%TO.C,C10*%
X96950000Y-69920000D03*
X96950000Y-70880000D03*
%TD*%
D35*
%TO.C,R4*%
X103810000Y-76150000D03*
X102790000Y-76150000D03*
%TD*%
D20*
%TO.C,R1*%
X87850000Y-76540000D03*
X87850000Y-77560000D03*
%TD*%
D34*
%TO.C,C9*%
X96000000Y-69920000D03*
X96000000Y-70880000D03*
%TD*%
M02*
