M48
; DRILL file KiCad 10.0.0 date 2026-06-13T13:53:39
; FORMAT={-:-/ absolute / inch / decimal}
; #@! TF.CreationDate,2026-06-13T13:53:39+02:00
; #@! TF.GenerationSoftware,Kicad,Pcbnew,10.0.0
; #@! TF.FileFunction,Plated,1,2,PTH
FMAT,2
INCH
; #@! TA.AperFunction,Plated,PTH,ViaDrill
T1C0.0118
; #@! TA.AperFunction,Plated,PTH,ComponentDrill
T2C0.0236
; #@! TA.AperFunction,Plated,PTH,ComponentDrill
T3C0.0374
; #@! TA.AperFunction,Plated,PTH,ComponentDrill
T4C0.0394
%
G90
G05
T1
X2.0709Y-2.9154
X2.0965Y-4.9291
X2.1339Y-4.5728
X2.2185Y-3.3268
X2.5Y-5.1732
X2.6476Y-2.7933
X2.7461Y-3.4626
X2.8504Y-5.0276
X2.9213Y-2.8661
X2.9567Y-3.374
X3.0217Y-4.5689
X3.0354Y-3.6772
X3.0374Y-3.7972
X3.0433Y-4.0413
X3.1043Y-4.2461
X3.1083Y-4.1319
X3.1102Y-4.0807
X3.1299Y-4.9626
X3.1831Y-4.7126
X3.2028Y-4.3583
X3.2323Y-3.0098
X3.2539Y-2.9528
X3.2559Y-3.376
X3.2638Y-3.2677
X3.2638Y-3.5768
X3.2657Y-4.2913
X3.2854Y-3.685
X3.2854Y-4.0591
X3.2933Y-2.6594
X3.3031Y-5.0335
X3.311Y-4.8957
X3.3445Y-4.4823
X3.374Y-3.8307
X3.378Y-3.4154
X3.3799Y-3.9941
X3.3937Y-3.6201
X3.3996Y-4.8287
X3.4094Y-4.4843
X3.4134Y-3.0748
X3.4232Y-3.1319
X3.4291Y-5.0374
X3.439Y-4.624
X3.439Y-4.9114
X3.4528Y-3.187
X3.4689Y-2.8741
X3.4882Y-2.6791
X3.5157Y-4.937
X3.5177Y-3.6142
X3.5197Y-3.7224
X3.5433Y-3.0177
X3.5433Y-3.0827
X3.5433Y-5.002
X3.5531Y-3.2146
X3.5591Y-4.4508
X3.5591Y-4.8819
X3.6043Y-2.7736
X3.6063Y-4.4154
X3.6083Y-4.9075
X3.6122Y-3.252
X3.6122Y-4.6713
X3.6142Y-3.1732
X3.6142Y-3.5335
X3.6161Y-4.7835
X3.6181Y-3.8307
X3.622Y-3.4055
X3.6398Y-3.4764
X3.6398Y-3.5906
X3.6575Y-3.3386
X3.6654Y-4.5906
X3.6693Y-3.6358
X3.6732Y-2.6535
X3.6732Y-3.9134
X3.6811Y-3.9665
X3.6831Y-4.9803
X3.689Y-3.5846
X3.6969Y-4.1043
X3.6988Y-3.1004
X3.7106Y-4.252
X3.7185Y-4.0118
X3.7638Y-2.9547
X3.7657Y-4.0669
X3.7677Y-3.7106
X3.7756Y-3.9508
X3.7756Y-4.9094
X3.7874Y-4.0984
X3.7874Y-4.6142
X3.7933Y-2.8346
X3.7992Y-4.065
X3.8346Y-3.3976
X3.8465Y-3.124
X3.8701Y-4.5669
X3.872Y-3.8248
X3.8839Y-3.9744
X3.9016Y-4.9803
X3.937Y-3.5315
X3.937Y-4.7638
X3.9409Y-2.7559
X3.9528Y-4.8642
X3.9547Y-2.8248
X3.9587Y-4.5748
X3.9646Y-2.689
X3.9685Y-3.7067
X3.9724Y-3.815
X3.9724Y-3.9783
X3.9744Y-4.2146
X3.9862Y-4.3957
X4.0039Y-5.0039
X4.0118Y-4.6024
X4.0197Y-2.7736
X4.0256Y-2.6713
X4.0354Y-4.2539
X4.0374Y-2.8386
X4.0374Y-4.4646
X4.0394Y-3.1201
X4.0591Y-4.1043
X4.0669Y-3.8091
X4.067Y-4.2982
X4.0748Y-4.3504
X4.0787Y-4.0079
X4.0866Y-2.6673
X4.0866Y-2.7047
X4.0866Y-2.7402
X4.0866Y-2.7835
X4.0945Y-2.8169
X4.0965Y-4.9646
X4.0984Y-3.4941
X4.124Y-4.8445
X4.1339Y-2.6575
X4.1358Y-2.8248
X4.1732Y-2.8169
X4.1791Y-2.6673
X4.1791Y-3.1516
X4.1811Y-2.7047
X4.1811Y-2.7402
X4.1811Y-2.7835
X4.1929Y-4.2165
X4.1969Y-2.9213
X4.1969Y-3.2835
X4.2028Y-2.8661
X4.2205Y-3.7795
X4.2244Y-3.5866
X4.2402Y-2.6713
X4.2441Y-4.9528
X4.25Y-2.878
X4.252Y-2.7598
X4.2657Y-2.815
X4.2835Y-2.9705
X4.2835Y-4.0689
X4.2894Y-4.3268
X4.2913Y-5.189
X4.3091Y-3.1417
X4.3189Y-4.6024
X4.3307Y-2.6693
X4.3307Y-5.0945
X4.3346Y-2.7362
X4.3425Y-2.811
X4.3661Y-2.9685
X4.3839Y-3.7283
X4.3878Y-4.7106
X4.3957Y-3.2362
X4.3957Y-3.5984
X4.4016Y-3.0295
X4.4232Y-4.3012
X4.4646Y-4.8878
X4.4685Y-2.6476
X4.4705Y-2.8327
X4.4764Y-4.6496
X4.5138Y-5.1693
X4.5394Y-2.6457
X4.5571Y-4.8012
X4.6102Y-2.7933
X4.6358Y-4.6004
X4.6437Y-4.2756
X4.6516Y-3.563
X4.6614Y-5.189
T3
X3.8327Y-2.9162
X3.9311Y-2.9162
X4.0295Y-2.9162
X4.128Y-2.9162
X4.3287Y-2.9162
X4.4272Y-2.9162
X4.5256Y-2.9162
X4.624Y-2.9162
T4
X2.3189Y-3.8898
X2.3197Y-3.9843
X2.5197Y-3.8898
X2.5197Y-3.9843
X2.7197Y-3.8898
X2.7205Y-3.9843
T2
G00X3.3791Y-2.7106
M15
G01X3.3791Y-2.7343
M16
G05
G00X3.3791Y-2.8654
M15
G01X3.3791Y-2.9087
M16
G05
G00X3.7193Y-2.7106
M15
G01X3.7193Y-2.7343
M16
G05
G00X3.7193Y-2.8654
M15
G01X3.7193Y-2.9087
M16
G05
M30
