%TF.GenerationSoftware,KiCad,Pcbnew,10.0.0*%
%TF.CreationDate,2026-06-13T13:53:39+02:00*%
%TF.ProjectId,malibotti_stepper_unipolar_pcb,6d616c69-626f-4747-9469-5f7374657070,rev?*%
%TF.SameCoordinates,Original*%
%TF.FileFunction,Copper,L1,Top*%
%TF.FilePolarity,Positive*%
%FSLAX46Y46*%
G04 Gerber Fmt 4.6, Leading zero omitted, Abs format (unit mm)*
G04 Created by KiCad (PCBNEW 10.0.0) date 2026-06-13 13:53:39*
%MOMM*%
%LPD*%
G01*
G04 APERTURE LIST*
%TA.AperFunction,ComponentPad*%
%ADD10O,1.600000X2.000000*%
%TD*%
%TA.AperFunction,ComponentPad*%
%ADD11O,1.000000X1.600000*%
%TD*%
%TA.AperFunction,ComponentPad*%
%ADD12O,1.000000X2.100000*%
%TD*%
%TA.AperFunction,ViaPad*%
%ADD13C,0.600000*%
%TD*%
%TA.AperFunction,Conductor*%
%ADD14C,0.200000*%
%TD*%
%TA.AperFunction,Conductor*%
%ADD15C,0.600000*%
%TD*%
%TA.AperFunction,Conductor*%
%ADD16C,1.200000*%
%TD*%
%TA.AperFunction,Conductor*%
%ADD17C,0.300000*%
%TD*%
G04 APERTURE END LIST*
D10*
%TO.P,SW2,1,B_1*%
%TO.N,LIMIT_LEFT*%
X69080000Y-98800000D03*
%TO.P,SW2,2,C_2*%
%TO.N,GND*%
X64000000Y-98800000D03*
%TO.P,SW2,3,A_3*%
%TO.N,unconnected-(SW2-A-Pad3)*%
X58900000Y-98800000D03*
%TD*%
%TO.P,J6,1,Pin_1_1*%
%TO.N,/TX*%
X117450000Y-74072500D03*
%TO.P,J6,2,Pin_2_2*%
%TO.N,/RX*%
X114950000Y-74072500D03*
%TO.P,J6,3,Pin_3_3*%
%TO.N,GND*%
X112450000Y-74072500D03*
%TO.P,J6,4,Pin_4_4*%
%TO.N,+5V*%
X109950000Y-74072500D03*
%TD*%
%TO.P,SW3,1,B_1*%
%TO.N,LIMIT_RIGHT*%
X69100000Y-101200000D03*
%TO.P,SW3,2,C_2*%
%TO.N,GND*%
X64000000Y-101200000D03*
%TO.P,SW3,3,A_3*%
%TO.N,unconnected-(SW3-A-Pad3)*%
X58920000Y-101200000D03*
%TD*%
%TO.P,J4,1,Pin_1_1*%
%TO.N,SCL*%
X104850000Y-74072500D03*
%TO.P,J4,2,Pin_2_2*%
%TO.N,SDA*%
X102350000Y-74072500D03*
%TO.P,J4,3,Pin_3_3*%
%TO.N,+3V3*%
X99850000Y-74072500D03*
%TO.P,J4,4,Pin_4_4*%
%TO.N,GND*%
X97350000Y-74072500D03*
%TD*%
D11*
%TO.P,J5,SH,SHIELD_SH*%
%TO.N,GND*%
X85830000Y-69150000D03*
D12*
X85830000Y-73330000D03*
D11*
X94470000Y-69150000D03*
D12*
X94470000Y-73330000D03*
%TD*%
D13*
%TO.N,GND*%
X83900000Y-127850000D03*
X109700000Y-116900000D03*
X96200000Y-104100000D03*
X93300000Y-99400000D03*
X85850000Y-101450000D03*
X112350000Y-109250000D03*
X96500000Y-103250000D03*
X104100000Y-88750000D03*
X113550000Y-71950000D03*
X98650000Y-100950000D03*
X91750000Y-118650000D03*
X82900000Y-83000000D03*
X82950000Y-109000000D03*
X97400000Y-86300000D03*
X108950000Y-109900000D03*
X115750000Y-121950000D03*
X115300000Y-67200000D03*
X83650000Y-67550000D03*
X84100000Y-124350000D03*
X91800000Y-89750000D03*
X54200000Y-116150000D03*
X83450000Y-103100000D03*
X90000000Y-78300000D03*
X63500000Y-131400000D03*
X86350000Y-122650000D03*
X118400000Y-131800000D03*
X111450000Y-119650000D03*
X90250000Y-81650000D03*
X94250000Y-108000000D03*
X81350000Y-110700000D03*
X82100000Y-76450000D03*
X93550000Y-126500000D03*
X82900000Y-90850000D03*
X100800000Y-94150000D03*
X98300000Y-116000000D03*
X82700000Y-85750000D03*
X117100000Y-70950000D03*
X117750000Y-116850000D03*
X83450000Y-93600000D03*
X111650000Y-91400000D03*
X103300000Y-96750000D03*
X86950000Y-79550000D03*
X93950000Y-78750000D03*
X79000000Y-103650000D03*
X98350000Y-97150000D03*
X94450000Y-101900000D03*
X77300000Y-102650000D03*
X91650000Y-124650000D03*
X72400000Y-127700000D03*
X107800000Y-125800000D03*
X91550000Y-70450000D03*
X89400000Y-94550000D03*
X96200000Y-117200000D03*
X113400000Y-124150000D03*
X100950000Y-107050000D03*
X88600000Y-68050000D03*
X100900000Y-101050000D03*
X74200000Y-72800000D03*
X102500000Y-108050000D03*
X69750000Y-87950000D03*
X114650000Y-131300000D03*
X100550000Y-116200000D03*
X95700000Y-94250000D03*
X85700000Y-97300000D03*
X91900000Y-97300000D03*
X104050000Y-126100000D03*
X91750000Y-82600000D03*
X106600000Y-83400000D03*
X93100000Y-116600000D03*
X86700000Y-78100000D03*
X102550000Y-113400000D03*
X118150000Y-90500000D03*
X95650000Y-103300000D03*
X75100000Y-85700000D03*
X85800000Y-86750000D03*
X100900000Y-96900000D03*
X111650000Y-82200000D03*
X77150000Y-96450000D03*
X109450000Y-79800000D03*
X86600000Y-113900000D03*
X89350000Y-91800000D03*
X109000000Y-131800000D03*
X78850000Y-107850000D03*
X110000000Y-129400000D03*
X87100000Y-127950000D03*
X79500000Y-126050000D03*
X53250000Y-125200000D03*
X93900000Y-104250000D03*
X113500000Y-67250000D03*
X95900000Y-100350000D03*
X90000000Y-76650000D03*
X117950000Y-108600000D03*
X92450000Y-88300000D03*
X52600000Y-74050000D03*
X103600000Y-101800000D03*
X95600000Y-75050000D03*
X93500000Y-100750000D03*
X91850000Y-121500000D03*
X97700000Y-79350000D03*
X82650000Y-75000000D03*
X102600000Y-79250000D03*
X92450000Y-91200000D03*
X99100000Y-126500000D03*
X86200000Y-91950000D03*
X93200000Y-92350000D03*
X103500000Y-110500000D03*
X93700000Y-91050000D03*
X111800000Y-76950000D03*
X92000000Y-86500000D03*
X113700000Y-118100000D03*
X67250000Y-70950000D03*
X91600000Y-112150000D03*
X95900000Y-124700000D03*
X93300000Y-67400000D03*
X100000000Y-89700000D03*
X91800000Y-80600000D03*
X107300000Y-91100000D03*
X107200000Y-96000000D03*
X80850000Y-119700000D03*
X56350000Y-84500000D03*
X100400000Y-123550000D03*
X76750000Y-116050000D03*
X104750000Y-123050000D03*
X84950000Y-113850000D03*
X87700000Y-80950000D03*
X100000000Y-121000000D03*
X90000000Y-127050000D03*
X96350000Y-72000000D03*
X108800000Y-103350000D03*
X106150000Y-80050000D03*
X77100000Y-93400000D03*
X101250000Y-111650000D03*
X106500000Y-107100000D03*
X78950000Y-104950000D03*
X103100000Y-104250000D03*
X111350000Y-94700000D03*
%TO.N,+5V*%
X92900000Y-84800000D03*
X88111206Y-73002668D03*
%TO.N,+3V3*%
X106200000Y-70700000D03*
X103800000Y-67750000D03*
X110900000Y-75400000D03*
X103800000Y-68700000D03*
X104000000Y-71550000D03*
X100450000Y-71750000D03*
X110300000Y-71400000D03*
X106600000Y-74200000D03*
X106750000Y-72800000D03*
X107950000Y-73100000D03*
X100700000Y-68300000D03*
X107700000Y-67850000D03*
X106200000Y-69600000D03*
X108000000Y-70100000D03*
X89300000Y-125400000D03*
X103800000Y-70700000D03*
X108350000Y-71500000D03*
X102100000Y-70450000D03*
X105000000Y-67500000D03*
X105050000Y-71750000D03*
X108800000Y-75450000D03*
X110000000Y-67800000D03*
X103800000Y-69600000D03*
X100100000Y-70000000D03*
X102250000Y-67850000D03*
X106200000Y-68700000D03*
X106000000Y-71550000D03*
X102550000Y-72100000D03*
X106150000Y-67750000D03*
X110100000Y-69500000D03*
%TO.N,Servo1*%
X101900000Y-116900000D03*
X103300637Y-109175213D03*
%TO.N,Net-(U5-EN)*%
X87350000Y-117450000D03*
X101700000Y-127100000D03*
X87350000Y-124750000D03*
%TO.N,Net-(U5-IO0)*%
X90400000Y-124000000D03*
X90400000Y-113050000D03*
%TD*%
%TO.N,GND*%
D14*
X64000000Y-98800000D02*
X64000000Y-101200000D01*
%TO.N,+5V*%
D15*
X92891206Y-82591206D02*
X92900000Y-82600000D01*
X89752668Y-73002668D02*
X92891206Y-76141206D01*
X88111206Y-73002668D02*
X89752668Y-73002668D01*
D16*
X109950000Y-74250000D02*
X109950000Y-74072500D01*
D15*
X92891206Y-76141206D02*
X92891206Y-82591206D01*
X92900000Y-82600000D02*
X92900000Y-84800000D01*
%TO.N,+3V3*%
D16*
X89300000Y-98250000D02*
X99850000Y-87700000D01*
X99850000Y-87700000D02*
X99850000Y-74072500D01*
X89300000Y-125400000D02*
X89300000Y-98250000D01*
%TO.N,Servo1*%
D17*
X101900000Y-110575850D02*
X103300637Y-109175213D01*
X101900000Y-116900000D02*
X101900000Y-110575850D01*
%TO.N,Net-(U5-EN)*%
X87350000Y-126750000D02*
X89150000Y-128550000D01*
X87350000Y-124750000D02*
X87350000Y-125550000D01*
X89150000Y-128550000D02*
X100250000Y-128550000D01*
X87350000Y-117450000D02*
X87350000Y-125550000D01*
X87350000Y-125550000D02*
X87350000Y-126750000D01*
X100250000Y-128550000D02*
X101700000Y-127100000D01*
%TO.N,Net-(U5-IO0)*%
X90400000Y-113050000D02*
X90250000Y-113200000D01*
X90250000Y-113200000D02*
X90250000Y-123850000D01*
X90250000Y-123850000D02*
X90400000Y-124000000D01*
%TD*%
%TA.AperFunction,Conductor*%
%TO.N,GND*%
G36*
X64084191Y-99318907D02*
G01*
X64120155Y-99368407D01*
X64125000Y-99399000D01*
X64125000Y-100601000D01*
X64106093Y-100659191D01*
X64056593Y-100695155D01*
X64026000Y-100700000D01*
X63974000Y-100700000D01*
X63915809Y-100681093D01*
X63879845Y-100631593D01*
X63879845Y-100570407D01*
X63915809Y-100520907D01*
X63923337Y-100518461D01*
X63875093Y-99403279D01*
X63891467Y-99344325D01*
X63939366Y-99306256D01*
X63974000Y-99300000D01*
X64026000Y-99300000D01*
X64084191Y-99318907D01*
G37*
%TD.AperFunction*%
%TA.AperFunction,Conductor*%
G36*
X53155503Y-66291432D02*
G01*
X53376872Y-66300567D01*
X53384326Y-66301158D01*
X53391785Y-66302036D01*
X53399164Y-66303189D01*
X53595022Y-66341463D01*
X53616576Y-66345675D01*
X53623875Y-66347390D01*
X53631116Y-66349385D01*
X53638254Y-66351646D01*
X53846751Y-66426508D01*
X53853710Y-66429310D01*
X53860556Y-66432372D01*
X53867290Y-66435696D01*
X54062036Y-66541193D01*
X54068492Y-66545013D01*
X54074798Y-66549075D01*
X54080960Y-66553384D01*
X54098800Y-66566896D01*
X54111667Y-66576641D01*
X54257539Y-66687121D01*
X54263344Y-66691874D01*
X54268966Y-66696846D01*
X54274386Y-66702019D01*
X54428718Y-66860907D01*
X54433740Y-66866485D01*
X54438546Y-66872250D01*
X54443127Y-66878190D01*
X54449450Y-66887063D01*
X54449452Y-66887065D01*
X54571667Y-67058577D01*
X54575790Y-67064854D01*
X54579663Y-67071268D01*
X54583298Y-67077838D01*
X54683096Y-67275590D01*
X54686225Y-67282425D01*
X54689086Y-67289357D01*
X54691683Y-67296394D01*
X54760438Y-67506941D01*
X54762497Y-67514163D01*
X54764253Y-67521348D01*
X54764277Y-67521444D01*
X54765782Y-67528801D01*
X54801922Y-67747332D01*
X54802866Y-67754781D01*
X54803524Y-67762236D01*
X54803900Y-67769737D01*
X54806592Y-67991238D01*
X54806398Y-67998745D01*
X54805921Y-68006221D01*
X54805159Y-68013691D01*
X54774340Y-68233040D01*
X54773012Y-68240442D01*
X54771410Y-68247758D01*
X54769530Y-68255017D01*
X54705909Y-68467185D01*
X54703489Y-68474269D01*
X54700797Y-68481269D01*
X54697835Y-68488176D01*
X54602865Y-68688310D01*
X54599384Y-68694979D01*
X54595679Y-68701464D01*
X54591717Y-68707827D01*
X54467590Y-68891301D01*
X54463148Y-68897359D01*
X54458494Y-68903225D01*
X54453607Y-68908925D01*
X54301100Y-69073766D01*
X54299796Y-69075149D01*
X54298474Y-69076524D01*
X54297113Y-69077913D01*
X54293354Y-69081672D01*
X54292050Y-69082951D01*
X54290753Y-69084201D01*
X54289419Y-69085463D01*
X54260645Y-69112182D01*
X54260644Y-69112184D01*
X54238952Y-69151123D01*
X54238556Y-69151833D01*
X54219979Y-69184011D01*
X54219372Y-69186267D01*
X54215320Y-69193541D01*
X54215320Y-69193542D01*
X54214332Y-69195315D01*
X54214322Y-69195335D01*
X54207744Y-69228785D01*
X54207745Y-69228786D01*
X54207096Y-69232086D01*
X54199500Y-69260438D01*
X54199500Y-69270736D01*
X54197642Y-69280190D01*
X54197640Y-69280192D01*
X54197640Y-69280199D01*
X54195960Y-69288738D01*
X54198430Y-69309200D01*
X54198964Y-69315114D01*
X54199321Y-69321046D01*
X54199500Y-69326993D01*
X54199500Y-71039566D01*
X54211034Y-71082608D01*
X54219978Y-71115988D01*
X54219980Y-71115992D01*
X54219986Y-71116002D01*
X54250373Y-71168635D01*
X54250374Y-71168636D01*
X54257495Y-71180969D01*
X54259540Y-71184511D01*
X54315489Y-71240460D01*
X54331147Y-71249500D01*
X54384007Y-71280019D01*
X54384009Y-71280020D01*
X54384011Y-71280021D01*
X54450762Y-71297907D01*
X54452913Y-71298723D01*
X54460436Y-71300500D01*
X54460437Y-71300500D01*
X54460438Y-71300500D01*
X56339149Y-71300500D01*
X56339154Y-71300500D01*
X56615435Y-71266954D01*
X56885657Y-71200350D01*
X57145881Y-71101661D01*
X57392311Y-70972324D01*
X57621355Y-70814226D01*
X57829673Y-70629673D01*
X58014226Y-70421355D01*
X58172324Y-70192311D01*
X58301661Y-69945881D01*
X58400350Y-69685657D01*
X58448379Y-69490796D01*
X75973869Y-69490796D01*
X75973869Y-69760464D01*
X76004052Y-70028333D01*
X76004054Y-70028348D01*
X76004057Y-70028366D01*
X76041477Y-70192311D01*
X76064053Y-70291225D01*
X76064053Y-70291226D01*
X76064052Y-70291226D01*
X76152842Y-70544968D01*
X76153067Y-70545627D01*
X76153100Y-70545708D01*
X76218432Y-70681371D01*
X76270077Y-70788613D01*
X76270083Y-70788625D01*
X76270085Y-70788628D01*
X76270086Y-70788630D01*
X76270087Y-70788633D01*
X76297869Y-70832846D01*
X76350365Y-70916392D01*
X76413531Y-71016920D01*
X76581635Y-71227716D01*
X76772284Y-71418365D01*
X76983080Y-71586469D01*
X77152925Y-71693190D01*
X77211374Y-71729916D01*
X77211386Y-71729922D01*
X77389901Y-71815890D01*
X77454290Y-71846898D01*
X77454296Y-71846900D01*
X77569077Y-71887064D01*
X77569078Y-71887064D01*
X77700895Y-71933189D01*
X77705989Y-71935468D01*
X77706023Y-71935478D01*
X77711441Y-71936555D01*
X77971637Y-71995943D01*
X78043884Y-72004083D01*
X78225673Y-72024567D01*
X78231736Y-72026131D01*
X78509178Y-72026131D01*
X78516999Y-72026131D01*
X78523056Y-72024567D01*
X78680771Y-72006796D01*
X78777101Y-71995943D01*
X79039960Y-71935947D01*
X79294448Y-71846898D01*
X79537366Y-71729915D01*
X79765658Y-71586469D01*
X79976454Y-71418365D01*
X80167103Y-71227716D01*
X80335207Y-71016920D01*
X80478653Y-70788628D01*
X80595636Y-70545710D01*
X80684685Y-70291222D01*
X80744681Y-70028363D01*
X80758321Y-69907309D01*
X80774866Y-69760477D01*
X80774867Y-69760464D01*
X80774868Y-69760456D01*
X80774869Y-69760439D01*
X80774869Y-69490822D01*
X80774868Y-69490805D01*
X80771885Y-69464335D01*
X80747180Y-69245078D01*
X80745658Y-69231572D01*
X80745657Y-69231564D01*
X80745144Y-69227010D01*
X80744681Y-69222899D01*
X80684685Y-68960040D01*
X80682014Y-68952406D01*
X80631796Y-68808890D01*
X80622055Y-68781052D01*
X85130000Y-68781052D01*
X85130000Y-68781055D01*
X85130000Y-69024999D01*
X85130001Y-69025000D01*
X85431000Y-69025000D01*
X85489191Y-69043907D01*
X85525155Y-69093407D01*
X85530000Y-69124000D01*
X85530000Y-69176000D01*
X85511093Y-69234191D01*
X85461593Y-69270155D01*
X85431000Y-69275000D01*
X85130001Y-69275000D01*
X85130000Y-69275001D01*
X85130000Y-69275002D01*
X85130000Y-69518946D01*
X85156901Y-69654182D01*
X85156901Y-69654184D01*
X85209663Y-69781565D01*
X85209668Y-69781575D01*
X85286268Y-69896216D01*
X85286271Y-69896220D01*
X85383779Y-69993728D01*
X85383782Y-69993730D01*
X85498423Y-70070330D01*
X85498425Y-70070331D01*
X85498428Y-70070333D01*
X85625816Y-70123098D01*
X85625819Y-70123099D01*
X85704999Y-70138848D01*
X85705000Y-70138848D01*
X85705000Y-70138847D01*
X85705000Y-69849000D01*
X85723907Y-69790809D01*
X85773407Y-69754845D01*
X85804000Y-69750000D01*
X85856000Y-69750000D01*
X85914191Y-69768907D01*
X85950155Y-69818407D01*
X85955000Y-69849000D01*
X85955000Y-70138846D01*
X85955000Y-70138848D01*
X86034180Y-70123099D01*
X86034183Y-70123098D01*
X86161571Y-70070333D01*
X86276220Y-69993728D01*
X86373728Y-69896220D01*
X86450333Y-69781571D01*
X86503098Y-69654183D01*
X86529665Y-69520622D01*
X86530000Y-69519083D01*
X86530000Y-69275002D01*
X86530000Y-69275001D01*
X86529999Y-69275000D01*
X86529998Y-69275000D01*
X86229000Y-69275000D01*
X86170809Y-69256093D01*
X86134845Y-69206593D01*
X86130000Y-69176000D01*
X86130000Y-69124000D01*
X86148907Y-69065809D01*
X86198407Y-69029845D01*
X86229000Y-69025000D01*
X86529998Y-69025000D01*
X86529999Y-69025000D01*
X86530000Y-69024999D01*
X86530000Y-68781057D01*
X86529999Y-68781055D01*
X86529998Y-68781052D01*
X93770000Y-68781052D01*
X93770000Y-68781055D01*
X93770000Y-69024999D01*
X93770001Y-69025000D01*
X94071000Y-69025000D01*
X94129191Y-69043907D01*
X94165155Y-69093407D01*
X94170000Y-69124000D01*
X94170000Y-69176000D01*
X94151093Y-69234191D01*
X94101593Y-69270155D01*
X94071000Y-69275000D01*
X93770001Y-69275000D01*
X93770000Y-69275001D01*
X93770000Y-69275002D01*
X93770000Y-69518946D01*
X93796901Y-69654182D01*
X93796901Y-69654184D01*
X93849663Y-69781565D01*
X93849668Y-69781575D01*
X93926268Y-69896216D01*
X93926271Y-69896220D01*
X94023779Y-69993728D01*
X94023782Y-69993730D01*
X94138423Y-70070330D01*
X94138425Y-70070331D01*
X94138428Y-70070333D01*
X94265816Y-70123098D01*
X94265819Y-70123099D01*
X94344999Y-70138848D01*
X94345000Y-70138848D01*
X94345000Y-70138847D01*
X94345000Y-69849000D01*
X94363907Y-69790809D01*
X94413407Y-69754845D01*
X94444000Y-69750000D01*
X94496000Y-69750000D01*
X94554191Y-69768907D01*
X94590155Y-69818407D01*
X94595000Y-69849000D01*
X94595000Y-70138846D01*
X94595000Y-70138848D01*
X94674180Y-70123099D01*
X94674183Y-70123098D01*
X94801571Y-70070333D01*
X94916220Y-69993728D01*
X95013728Y-69896220D01*
X95029499Y-69872618D01*
X95090333Y-69781571D01*
X95143098Y-69654183D01*
X95169665Y-69520622D01*
X95170000Y-69519083D01*
X95170000Y-69275002D01*
X95170000Y-69275001D01*
X95169999Y-69275000D01*
X95169998Y-69275000D01*
X94869000Y-69275000D01*
X94810809Y-69256093D01*
X94774845Y-69206593D01*
X94770000Y-69176000D01*
X94770000Y-69124000D01*
X94788907Y-69065809D01*
X94838407Y-69029845D01*
X94869000Y-69025000D01*
X95169998Y-69025000D01*
X95169999Y-69025000D01*
X95170000Y-69024999D01*
X95170000Y-68781057D01*
X95170000Y-68781056D01*
X95170000Y-68780915D01*
X95169662Y-68779365D01*
X95143098Y-68645816D01*
X95090333Y-68518428D01*
X95067852Y-68484783D01*
X95013730Y-68403782D01*
X95013728Y-68403779D01*
X94916220Y-68306271D01*
X94906085Y-68299499D01*
X94801575Y-68229668D01*
X94801565Y-68229663D01*
X94674183Y-68176901D01*
X94595000Y-68161150D01*
X94595000Y-68451000D01*
X94576093Y-68509191D01*
X94526593Y-68545155D01*
X94496000Y-68550000D01*
X94444000Y-68550000D01*
X94385809Y-68531093D01*
X94349845Y-68481593D01*
X94345000Y-68451000D01*
X94345000Y-68161150D01*
X94265815Y-68176901D01*
X94138433Y-68229663D01*
X94138423Y-68229668D01*
X94023782Y-68306268D01*
X93926268Y-68403782D01*
X93849668Y-68518423D01*
X93849663Y-68518433D01*
X93796901Y-68645814D01*
X93796901Y-68645816D01*
X93770000Y-68781052D01*
X86529998Y-68781052D01*
X86503098Y-68645816D01*
X86450333Y-68518428D01*
X86427852Y-68484783D01*
X86373730Y-68403782D01*
X86373728Y-68403779D01*
X86276220Y-68306271D01*
X86266085Y-68299499D01*
X86161575Y-68229668D01*
X86161565Y-68229663D01*
X86034183Y-68176901D01*
X85955000Y-68161150D01*
X85955000Y-68451000D01*
X85936093Y-68509191D01*
X85886593Y-68545155D01*
X85856000Y-68550000D01*
X85804000Y-68550000D01*
X85745809Y-68531093D01*
X85709845Y-68481593D01*
X85705000Y-68451000D01*
X85705000Y-68161150D01*
X85625815Y-68176901D01*
X85498433Y-68229663D01*
X85498423Y-68229668D01*
X85383782Y-68306268D01*
X85286268Y-68403782D01*
X85209668Y-68518423D01*
X85209663Y-68518433D01*
X85156901Y-68645814D01*
X85156901Y-68645816D01*
X85130000Y-68781052D01*
X80622055Y-68781052D01*
X80595851Y-68706169D01*
X80595665Y-68705624D01*
X80595636Y-68705552D01*
X80511621Y-68531093D01*
X80478660Y-68462648D01*
X80478654Y-68462636D01*
X80463889Y-68439138D01*
X80335207Y-68234342D01*
X80167103Y-68023546D01*
X79976454Y-67832897D01*
X79765658Y-67664793D01*
X79637978Y-67584566D01*
X79637977Y-67584565D01*
X79537371Y-67521349D01*
X79537368Y-67521348D01*
X79537366Y-67521347D01*
X79537363Y-67521345D01*
X79537351Y-67521339D01*
X79537314Y-67521321D01*
X79294446Y-67404362D01*
X79294365Y-67404329D01*
X79293706Y-67404104D01*
X79039964Y-67315315D01*
X78777104Y-67255319D01*
X78777086Y-67255316D01*
X78777071Y-67255314D01*
X78509202Y-67225131D01*
X78509194Y-67225131D01*
X78509178Y-67225131D01*
X78239560Y-67225131D01*
X78239543Y-67225131D01*
X78239534Y-67225131D01*
X77971665Y-67255314D01*
X77971650Y-67255316D01*
X77971632Y-67255319D01*
X77708772Y-67315315D01*
X77455030Y-67404104D01*
X77454376Y-67404327D01*
X77454290Y-67404362D01*
X77211422Y-67521321D01*
X77211369Y-67521347D01*
X76983078Y-67664793D01*
X76772286Y-67832895D01*
X76581633Y-68023548D01*
X76413531Y-68234340D01*
X76270085Y-68462631D01*
X76270059Y-68462684D01*
X76153100Y-68705552D01*
X76153065Y-68705638D01*
X76152842Y-68706292D01*
X76064053Y-68960034D01*
X76004057Y-69222894D01*
X76004054Y-69222912D01*
X76004052Y-69222927D01*
X75973869Y-69490796D01*
X58448379Y-69490796D01*
X58466954Y-69415435D01*
X58500500Y-69139154D01*
X58500500Y-69000000D01*
X58500500Y-68952405D01*
X58500500Y-68005302D01*
X58500562Y-68001791D01*
X58500563Y-68001761D01*
X58500690Y-67998211D01*
X58500874Y-67994761D01*
X58506515Y-67915892D01*
X58517041Y-67768699D01*
X58517796Y-67761693D01*
X58518797Y-67754726D01*
X58520049Y-67747787D01*
X58543922Y-67638041D01*
X58567091Y-67531530D01*
X58568827Y-67524731D01*
X58570825Y-67517927D01*
X58573038Y-67511280D01*
X58650378Y-67303926D01*
X58653077Y-67297412D01*
X58656008Y-67290995D01*
X58659169Y-67284681D01*
X58675202Y-67255319D01*
X58765209Y-67090482D01*
X58768799Y-67084430D01*
X58772616Y-67078491D01*
X58776640Y-67072697D01*
X58909257Y-66895542D01*
X58913659Y-66890077D01*
X58918299Y-66884721D01*
X58923074Y-66879592D01*
X59079591Y-66723075D01*
X59084720Y-66718300D01*
X59090076Y-66713660D01*
X59095541Y-66709258D01*
X59272696Y-66576641D01*
X59278490Y-66572617D01*
X59284429Y-66568800D01*
X59290481Y-66565210D01*
X59484688Y-66459165D01*
X59490994Y-66456009D01*
X59497411Y-66453078D01*
X59503925Y-66450379D01*
X59711279Y-66373039D01*
X59717926Y-66370826D01*
X59724730Y-66368828D01*
X59731529Y-66367092D01*
X59947790Y-66320049D01*
X59954715Y-66318799D01*
X59961703Y-66317795D01*
X59968696Y-66317043D01*
X60194732Y-66300876D01*
X60198220Y-66300689D01*
X60201815Y-66300562D01*
X60205281Y-66300501D01*
X60259117Y-66300501D01*
X60259125Y-66300500D01*
X96948077Y-66300500D01*
X97006268Y-66319407D01*
X97042232Y-66368907D01*
X97046068Y-66413588D01*
X97044500Y-66424500D01*
X97044500Y-70576000D01*
X97048526Y-70613443D01*
X97049197Y-70619685D01*
X97060404Y-70671199D01*
X97062889Y-70681371D01*
X97062889Y-70681372D01*
X97062890Y-70681373D01*
X97105900Y-70762085D01*
X97151655Y-70814889D01*
X97151667Y-70814901D01*
X97169247Y-70832844D01*
X97169249Y-70832846D01*
X97249058Y-70877488D01*
X97249062Y-70877490D01*
X97316095Y-70897173D01*
X97316102Y-70897175D01*
X97374000Y-70905500D01*
X98695702Y-70905500D01*
X98753893Y-70924407D01*
X98789857Y-70973907D01*
X98794701Y-71004431D01*
X98796550Y-73794195D01*
X98796932Y-74371179D01*
X98797832Y-75730277D01*
X98802558Y-75773960D01*
X98802559Y-75773966D01*
X98802560Y-75773972D01*
X98802560Y-75773973D01*
X98813798Y-75825466D01*
X98816290Y-75835631D01*
X98816292Y-75835636D01*
X98823905Y-75849899D01*
X98859354Y-75916318D01*
X98885688Y-75946669D01*
X98905132Y-75969078D01*
X98905139Y-75969087D01*
X98905144Y-75969092D01*
X98922749Y-75987036D01*
X98998773Y-76029494D01*
X99040357Y-76074374D01*
X99049500Y-76115927D01*
X99049500Y-87311733D01*
X99044654Y-87342326D01*
X99037107Y-87365553D01*
X99012957Y-87404964D01*
X88678210Y-97739711D01*
X88590613Y-97870806D01*
X88590600Y-97870829D01*
X88530264Y-98016496D01*
X88530264Y-98016497D01*
X88530263Y-98016499D01*
X88530263Y-98016501D01*
X88530263Y-98016503D01*
X88529571Y-98019981D01*
X88499500Y-98171154D01*
X88499500Y-125478844D01*
X88528361Y-125623933D01*
X88528361Y-125623937D01*
X88530262Y-125633499D01*
X88590600Y-125779169D01*
X88590603Y-125779174D01*
X88590609Y-125779185D01*
X88622453Y-125826842D01*
X88678212Y-125910291D01*
X88789707Y-126021785D01*
X88789711Y-126021789D01*
X88867876Y-126074017D01*
X88920814Y-126109390D01*
X88920825Y-126109396D01*
X88974638Y-126131685D01*
X88979296Y-126133614D01*
X88979299Y-126133616D01*
X89022494Y-126151508D01*
X89066503Y-126169737D01*
X89221158Y-126200500D01*
X89221159Y-126200500D01*
X89378841Y-126200500D01*
X89378842Y-126200500D01*
X89533497Y-126169737D01*
X89679179Y-126109394D01*
X89810289Y-126021789D01*
X89921789Y-125910289D01*
X90009394Y-125779179D01*
X90069737Y-125633497D01*
X90100500Y-125478842D01*
X90100500Y-124582604D01*
X90105345Y-124552013D01*
X90109147Y-124540311D01*
X90145110Y-124490810D01*
X90200703Y-124471936D01*
X90210770Y-124471672D01*
X90238978Y-124475010D01*
X90334108Y-124500500D01*
X90334110Y-124500500D01*
X90465890Y-124500500D01*
X90465892Y-124500500D01*
X90593186Y-124466392D01*
X90593188Y-124466390D01*
X90593190Y-124466390D01*
X90701190Y-124404035D01*
X90704067Y-124402639D01*
X90704853Y-124402122D01*
X90709862Y-124399028D01*
X90711161Y-124398277D01*
X90716519Y-124391294D01*
X90800500Y-124307314D01*
X90866392Y-124193186D01*
X90900500Y-124065892D01*
X90900500Y-123934108D01*
X90866392Y-123806814D01*
X90866390Y-123806811D01*
X90866390Y-123806809D01*
X90866383Y-123806798D01*
X90866066Y-123806094D01*
X90864812Y-123804076D01*
X90800503Y-123692690D01*
X90800501Y-123692688D01*
X90800500Y-123692686D01*
X90707314Y-123599500D01*
X90707311Y-123599498D01*
X90663578Y-123574248D01*
X90639507Y-123554755D01*
X90626809Y-123540652D01*
X90603543Y-123494986D01*
X90602662Y-123490840D01*
X90600500Y-123470263D01*
X90600500Y-119260432D01*
X105699500Y-119260432D01*
X105699500Y-124339566D01*
X105702127Y-124349369D01*
X105719978Y-124415988D01*
X105719980Y-124415992D01*
X105719981Y-124415993D01*
X105719981Y-124415995D01*
X105759533Y-124484500D01*
X105759535Y-124484504D01*
X105759538Y-124484508D01*
X105759540Y-124484511D01*
X105815489Y-124540460D01*
X105815491Y-124540461D01*
X105884007Y-124580019D01*
X105884011Y-124580021D01*
X105957283Y-124599654D01*
X105957829Y-124599884D01*
X105960436Y-124600500D01*
X107439563Y-124600500D01*
X107453293Y-124600500D01*
X107465185Y-124593633D01*
X107515989Y-124580021D01*
X107584511Y-124540460D01*
X107640460Y-124484511D01*
X107680021Y-124415989D01*
X107700500Y-124339562D01*
X107700500Y-119260438D01*
X107680021Y-119184011D01*
X107674738Y-119174861D01*
X107674736Y-119174857D01*
X107674736Y-119174856D01*
X107641939Y-119118050D01*
X107640859Y-119116044D01*
X107640461Y-119115491D01*
X107640460Y-119115489D01*
X107584511Y-119059540D01*
X107584508Y-119059538D01*
X107584504Y-119059535D01*
X107584500Y-119059533D01*
X107515994Y-119019981D01*
X107515993Y-119019980D01*
X107515992Y-119019980D01*
X107515988Y-119019978D01*
X107499829Y-119015648D01*
X107439566Y-118999500D01*
X107439564Y-118999500D01*
X107439562Y-118999500D01*
X106039562Y-118999500D01*
X105960438Y-118999500D01*
X105960435Y-118999500D01*
X105960432Y-118999500D01*
X105884018Y-119019976D01*
X105884011Y-119019978D01*
X105884007Y-119019980D01*
X105865649Y-119030579D01*
X105815492Y-119059537D01*
X105759537Y-119115492D01*
X105730579Y-119165649D01*
X105719980Y-119184007D01*
X105719979Y-119184010D01*
X105719976Y-119184018D01*
X105699500Y-119260432D01*
X90600500Y-119260432D01*
X90600500Y-116834108D01*
X101399500Y-116834108D01*
X101399500Y-116965892D01*
X101429579Y-117078151D01*
X101433609Y-117093190D01*
X101499496Y-117207309D01*
X101499498Y-117207311D01*
X101499500Y-117207314D01*
X101592686Y-117300500D01*
X101592688Y-117300501D01*
X101592690Y-117300503D01*
X101593237Y-117300898D01*
X101595239Y-117301975D01*
X101639207Y-117327359D01*
X101650040Y-117333614D01*
X101671634Y-117357596D01*
X101705944Y-117366174D01*
X101707548Y-117366588D01*
X101834108Y-117400500D01*
X101834110Y-117400500D01*
X101965890Y-117400500D01*
X101965892Y-117400500D01*
X102093186Y-117366392D01*
X102093188Y-117366390D01*
X102093190Y-117366390D01*
X102201190Y-117304035D01*
X102204067Y-117302639D01*
X102204853Y-117302122D01*
X102209862Y-117299028D01*
X102211161Y-117298277D01*
X102216519Y-117291294D01*
X102300500Y-117207314D01*
X102336339Y-117145239D01*
X102366390Y-117093190D01*
X102366390Y-117093188D01*
X102366392Y-117093186D01*
X102400500Y-116965892D01*
X102400500Y-116834108D01*
X102366392Y-116706814D01*
X102366390Y-116706811D01*
X102366390Y-116706809D01*
X102366383Y-116706798D01*
X102366064Y-116706091D01*
X102364805Y-116704063D01*
X102300507Y-116592697D01*
X102300503Y-116592690D01*
X102300498Y-116592684D01*
X102290579Y-116582765D01*
X102272377Y-116557708D01*
X102261289Y-116535945D01*
X102250500Y-116491003D01*
X102250500Y-112160432D01*
X106499500Y-112160432D01*
X106499500Y-115039566D01*
X106515648Y-115099829D01*
X106519978Y-115115988D01*
X106519980Y-115115992D01*
X106519981Y-115115993D01*
X106519981Y-115115995D01*
X106559533Y-115184500D01*
X106559535Y-115184504D01*
X106559538Y-115184508D01*
X106559540Y-115184511D01*
X106615489Y-115240460D01*
X106615491Y-115240461D01*
X106684007Y-115280019D01*
X106684011Y-115280021D01*
X106757283Y-115299654D01*
X106757829Y-115299884D01*
X106760436Y-115300500D01*
X119239563Y-115300500D01*
X119253293Y-115300500D01*
X119265185Y-115293633D01*
X119315989Y-115280021D01*
X119384511Y-115240460D01*
X119440460Y-115184511D01*
X119480021Y-115115989D01*
X119500500Y-115039562D01*
X119500500Y-112160438D01*
X119480021Y-112084011D01*
X119440460Y-112015489D01*
X119384511Y-111959540D01*
X119384508Y-111959538D01*
X119384504Y-111959535D01*
X119384500Y-111959533D01*
X119315994Y-111919981D01*
X119315993Y-111919980D01*
X119315992Y-111919980D01*
X119315988Y-111919978D01*
X119299829Y-111915648D01*
X119239566Y-111899500D01*
X119239564Y-111899500D01*
X119239562Y-111899500D01*
X106839562Y-111899500D01*
X106760438Y-111899500D01*
X106760435Y-111899500D01*
X106760432Y-111899500D01*
X106684018Y-111919976D01*
X106684011Y-111919978D01*
X106684007Y-111919980D01*
X106665649Y-111930579D01*
X106615492Y-111959537D01*
X106559537Y-112015492D01*
X106519979Y-112084009D01*
X106519976Y-112084018D01*
X106499500Y-112160432D01*
X102250500Y-112160432D01*
X102250500Y-110777720D01*
X102255344Y-110747131D01*
X102262891Y-110723900D01*
X102287040Y-110684491D01*
X103255739Y-109715792D01*
X103280791Y-109697591D01*
X103302558Y-109686501D01*
X103347499Y-109675713D01*
X103366527Y-109675713D01*
X103366529Y-109675713D01*
X103493823Y-109641605D01*
X103493825Y-109641603D01*
X103493827Y-109641603D01*
X103601827Y-109579248D01*
X103604704Y-109577852D01*
X103605490Y-109577335D01*
X103610499Y-109574241D01*
X103611798Y-109573490D01*
X103617156Y-109566507D01*
X103701137Y-109482527D01*
X103767029Y-109368399D01*
X103801137Y-109241105D01*
X103801137Y-109109321D01*
X103767029Y-108982027D01*
X103767027Y-108982024D01*
X103767027Y-108982022D01*
X103767020Y-108982011D01*
X103766703Y-108981307D01*
X103765449Y-108979289D01*
X103701140Y-108867903D01*
X103701138Y-108867901D01*
X103701137Y-108867899D01*
X103607951Y-108774713D01*
X103607948Y-108774711D01*
X103607946Y-108774709D01*
X103607939Y-108774705D01*
X103551113Y-108741896D01*
X103530079Y-108718535D01*
X103444436Y-108695588D01*
X103444435Y-108695587D01*
X103387403Y-108680306D01*
X103366529Y-108674713D01*
X103366528Y-108674713D01*
X103234746Y-108674713D01*
X103234745Y-108674713D01*
X103195791Y-108685150D01*
X103156836Y-108695588D01*
X103156835Y-108695587D01*
X103107444Y-108708822D01*
X103107442Y-108708823D01*
X102993331Y-108774705D01*
X102900129Y-108867907D01*
X102834248Y-108982016D01*
X102834246Y-108982020D01*
X102834246Y-108982022D01*
X102800137Y-109109322D01*
X102800137Y-109109323D01*
X102800137Y-109123342D01*
X102795291Y-109153935D01*
X102787744Y-109177162D01*
X102763594Y-109216573D01*
X101619530Y-110360638D01*
X101573386Y-110440562D01*
X101549500Y-110529708D01*
X101549500Y-116485997D01*
X101544654Y-116516591D01*
X101537107Y-116539817D01*
X101512961Y-116579222D01*
X101499506Y-116592678D01*
X101499501Y-116592683D01*
X101499497Y-116592689D01*
X101499491Y-116592697D01*
X101434221Y-116705747D01*
X101434220Y-116705749D01*
X101433609Y-116706809D01*
X101433608Y-116706814D01*
X101399500Y-116834108D01*
X90600500Y-116834108D01*
X90600500Y-113585006D01*
X90605344Y-113554417D01*
X90611209Y-113536364D01*
X90639115Y-113493388D01*
X90642266Y-113490551D01*
X90659004Y-113478391D01*
X90707314Y-113450500D01*
X90800500Y-113357314D01*
X90866392Y-113243186D01*
X90900500Y-113115892D01*
X90900500Y-112984108D01*
X90866392Y-112856814D01*
X90866390Y-112856811D01*
X90866390Y-112856809D01*
X90866383Y-112856798D01*
X90866066Y-112856094D01*
X90864812Y-112854076D01*
X90800503Y-112742690D01*
X90800501Y-112742688D01*
X90800500Y-112742686D01*
X90707314Y-112649500D01*
X90707311Y-112649498D01*
X90707309Y-112649496D01*
X90650476Y-112616683D01*
X90629442Y-112593322D01*
X90543799Y-112570375D01*
X90543798Y-112570374D01*
X90486766Y-112555093D01*
X90465892Y-112549500D01*
X90465891Y-112549500D01*
X90334109Y-112549500D01*
X90334108Y-112549500D01*
X90312424Y-112555310D01*
X90292438Y-112560665D01*
X90240266Y-112574644D01*
X90209462Y-112577881D01*
X90197176Y-112577237D01*
X90140055Y-112555310D01*
X90107434Y-112506486D01*
X90104574Y-112496831D01*
X90100500Y-112468722D01*
X90100500Y-99842725D01*
X107699500Y-99842725D01*
X107699500Y-100157273D01*
X107734717Y-100469841D01*
X107804709Y-100776497D01*
X107908596Y-101073391D01*
X107908636Y-101073485D01*
X107908909Y-101074041D01*
X108045066Y-101356774D01*
X108045070Y-101356781D01*
X108045074Y-101356789D01*
X108212423Y-101623123D01*
X108408539Y-101869044D01*
X108630956Y-102091461D01*
X108876877Y-102287577D01*
X109120187Y-102440459D01*
X109142148Y-102454258D01*
X109142149Y-102454259D01*
X109143212Y-102454927D01*
X109144128Y-102455368D01*
X109195317Y-102480019D01*
X109195318Y-102480020D01*
X109411255Y-102584009D01*
X109426606Y-102591402D01*
X109723500Y-102695289D01*
X110030160Y-102765282D01*
X110342727Y-102800500D01*
X110342728Y-102800500D01*
X110657272Y-102800500D01*
X110657273Y-102800500D01*
X110969840Y-102765282D01*
X111276500Y-102695289D01*
X111573394Y-102591402D01*
X111856789Y-102454926D01*
X112123123Y-102287577D01*
X112369044Y-102091461D01*
X112591461Y-101869044D01*
X112787577Y-101623123D01*
X112954926Y-101356789D01*
X113091402Y-101073394D01*
X113195289Y-100776500D01*
X113265282Y-100469840D01*
X113300500Y-100157273D01*
X113300500Y-99842727D01*
X113265282Y-99530160D01*
X113195289Y-99223500D01*
X113091402Y-98926606D01*
X112954926Y-98643211D01*
X112787577Y-98376877D01*
X112591461Y-98130956D01*
X112369044Y-97908539D01*
X112123123Y-97712423D01*
X111856789Y-97545074D01*
X111856781Y-97545070D01*
X111856774Y-97545066D01*
X111574041Y-97408909D01*
X111573485Y-97408636D01*
X111573391Y-97408596D01*
X111276497Y-97304709D01*
X110969839Y-97234717D01*
X110813556Y-97217109D01*
X110813556Y-97217108D01*
X110813554Y-97217108D01*
X110657289Y-97199500D01*
X110657273Y-97199500D01*
X110342727Y-97199500D01*
X110342725Y-97199500D01*
X110238538Y-97211239D01*
X110238537Y-97211238D01*
X110030161Y-97234717D01*
X110030151Y-97234719D01*
X109723501Y-97304709D01*
X109426607Y-97408596D01*
X109426509Y-97408638D01*
X109425947Y-97408914D01*
X109143230Y-97545063D01*
X109143212Y-97545073D01*
X108876875Y-97712423D01*
X108630953Y-97908541D01*
X108408541Y-98130953D01*
X108212423Y-98376875D01*
X108045073Y-98643212D01*
X108045063Y-98643230D01*
X107908914Y-98925947D01*
X107908638Y-98926509D01*
X107908596Y-98926607D01*
X107804709Y-99223501D01*
X107734717Y-99530157D01*
X107699500Y-99842725D01*
X90100500Y-99842725D01*
X90100500Y-98638266D01*
X90105344Y-98607677D01*
X90112891Y-98584446D01*
X90137040Y-98545037D01*
X95250320Y-93431758D01*
X100471789Y-88210289D01*
X100559394Y-88079179D01*
X100619737Y-87933497D01*
X100650500Y-87778842D01*
X100650500Y-87621158D01*
X100650500Y-85842725D01*
X107699500Y-85842725D01*
X107699500Y-86157273D01*
X107734717Y-86469841D01*
X107804709Y-86776497D01*
X107908596Y-87073391D01*
X107908636Y-87073485D01*
X107908909Y-87074041D01*
X108045066Y-87356774D01*
X108045070Y-87356781D01*
X108045074Y-87356789D01*
X108212423Y-87623123D01*
X108408539Y-87869044D01*
X108630956Y-88091461D01*
X108876877Y-88287577D01*
X109142148Y-88454258D01*
X109142149Y-88454259D01*
X109143216Y-88454929D01*
X109144159Y-88455384D01*
X109237375Y-88500273D01*
X109237376Y-88500274D01*
X109413153Y-88584923D01*
X109426606Y-88591402D01*
X109723500Y-88695289D01*
X110030160Y-88765282D01*
X110342727Y-88800500D01*
X110342728Y-88800500D01*
X110657272Y-88800500D01*
X110657273Y-88800500D01*
X110969840Y-88765282D01*
X111276500Y-88695289D01*
X111573394Y-88591402D01*
X111856789Y-88454926D01*
X112123123Y-88287577D01*
X112369044Y-88091461D01*
X112591461Y-87869044D01*
X112787577Y-87623123D01*
X112954926Y-87356789D01*
X113091402Y-87073394D01*
X113195289Y-86776500D01*
X113265282Y-86469840D01*
X113300500Y-86157273D01*
X113300500Y-85842727D01*
X113265282Y-85530160D01*
X113195289Y-85223500D01*
X113091402Y-84926606D01*
X112954926Y-84643211D01*
X112787577Y-84376877D01*
X112591461Y-84130956D01*
X112369044Y-83908539D01*
X112123123Y-83712423D01*
X111856789Y-83545074D01*
X111856781Y-83545070D01*
X111856774Y-83545066D01*
X111574041Y-83408909D01*
X111573485Y-83408636D01*
X111573391Y-83408596D01*
X111276497Y-83304709D01*
X110969839Y-83234717D01*
X110813556Y-83217109D01*
X110813556Y-83217108D01*
X110813554Y-83217108D01*
X110657289Y-83199500D01*
X110657273Y-83199500D01*
X110342727Y-83199500D01*
X110342725Y-83199500D01*
X110238538Y-83211239D01*
X110238537Y-83211238D01*
X110030161Y-83234717D01*
X110030151Y-83234719D01*
X109723501Y-83304709D01*
X109426607Y-83408596D01*
X109426509Y-83408638D01*
X109425947Y-83408914D01*
X109143230Y-83545063D01*
X109143212Y-83545073D01*
X108876875Y-83712423D01*
X108630953Y-83908541D01*
X108408541Y-84130953D01*
X108212423Y-84376875D01*
X108045073Y-84643212D01*
X108045063Y-84643230D01*
X107908914Y-84925947D01*
X107908638Y-84926509D01*
X107908596Y-84926607D01*
X107804709Y-85223501D01*
X107734717Y-85530157D01*
X107699500Y-85842725D01*
X100650500Y-85842725D01*
X100650500Y-76157480D01*
X100669407Y-76099289D01*
X100718907Y-76063325D01*
X100749431Y-76058480D01*
X111369466Y-76051442D01*
X111412069Y-76046949D01*
X111412077Y-76046947D01*
X111412079Y-76046947D01*
X111462327Y-76036263D01*
X111462332Y-76036261D01*
X111462364Y-76036255D01*
X111471496Y-76034094D01*
X111552635Y-75991896D01*
X111605895Y-75946673D01*
X111624023Y-75929264D01*
X111669469Y-75849899D01*
X111689826Y-75783061D01*
X111698732Y-75725250D01*
X111704056Y-75194815D01*
X111704393Y-75161210D01*
X111723883Y-75103211D01*
X111773742Y-75067746D01*
X111834924Y-75068360D01*
X111858382Y-75079884D01*
X111976314Y-75158685D01*
X111976318Y-75158687D01*
X111976323Y-75158690D01*
X112158294Y-75234064D01*
X112158295Y-75234064D01*
X112158309Y-75234070D01*
X112158312Y-75234071D01*
X112324999Y-75267226D01*
X112325000Y-75267226D01*
X112325000Y-75267225D01*
X112325000Y-74646500D01*
X112343907Y-74588309D01*
X112393407Y-74552345D01*
X112424000Y-74547500D01*
X112476000Y-74547500D01*
X112534191Y-74566407D01*
X112570155Y-74615907D01*
X112575000Y-74646500D01*
X112575000Y-75267225D01*
X112575000Y-75267226D01*
X112741687Y-75234071D01*
X112741690Y-75234070D01*
X112923673Y-75158691D01*
X112923685Y-75158685D01*
X113087462Y-75049250D01*
X113087466Y-75049247D01*
X113226747Y-74909966D01*
X113226750Y-74909962D01*
X113336185Y-74746185D01*
X113336191Y-74746173D01*
X113411570Y-74564190D01*
X113411570Y-74564188D01*
X113413472Y-74554629D01*
X113413472Y-74554627D01*
X113424271Y-74500335D01*
X113448789Y-74377074D01*
X113449364Y-74374904D01*
X113450000Y-74370991D01*
X113450000Y-74197502D01*
X113450000Y-74197501D01*
X113449999Y-74197500D01*
X113449998Y-74197500D01*
X113024000Y-74197500D01*
X112965809Y-74178593D01*
X112929845Y-74129093D01*
X112925000Y-74098500D01*
X112925000Y-74046500D01*
X112943907Y-73988309D01*
X112993407Y-73952345D01*
X113024000Y-73947500D01*
X113449998Y-73947500D01*
X113449999Y-73947500D01*
X113450000Y-73947499D01*
X113450000Y-73774009D01*
X113449999Y-73774006D01*
X113449988Y-73773953D01*
X113949500Y-73773953D01*
X113949500Y-73773955D01*
X113949500Y-73773956D01*
X113949500Y-74371043D01*
X113984600Y-74547500D01*
X113986047Y-74554771D01*
X113986047Y-74554775D01*
X113987948Y-74564337D01*
X114063366Y-74746411D01*
X114063367Y-74746413D01*
X114099699Y-74800788D01*
X114172861Y-74910282D01*
X114312218Y-75049639D01*
X114476086Y-75159132D01*
X114658165Y-75234551D01*
X114851459Y-75273000D01*
X114851460Y-75273000D01*
X115048540Y-75273000D01*
X115048541Y-75273000D01*
X115241835Y-75234551D01*
X115423914Y-75159132D01*
X115587782Y-75049639D01*
X115727139Y-74910282D01*
X115836632Y-74746414D01*
X115912051Y-74564335D01*
X115950500Y-74371041D01*
X115950500Y-73773959D01*
X115950499Y-73773956D01*
X115950498Y-73773953D01*
X116449500Y-73773953D01*
X116449500Y-73773955D01*
X116449500Y-73773956D01*
X116449500Y-74371043D01*
X116484600Y-74547500D01*
X116486047Y-74554771D01*
X116486047Y-74554775D01*
X116487948Y-74564337D01*
X116563366Y-74746411D01*
X116563367Y-74746413D01*
X116599699Y-74800788D01*
X116672861Y-74910282D01*
X116812218Y-75049639D01*
X116976086Y-75159132D01*
X117158165Y-75234551D01*
X117351459Y-75273000D01*
X117351460Y-75273000D01*
X117548540Y-75273000D01*
X117548541Y-75273000D01*
X117741835Y-75234551D01*
X117923914Y-75159132D01*
X118087782Y-75049639D01*
X118227139Y-74910282D01*
X118336632Y-74746414D01*
X118412051Y-74564335D01*
X118450500Y-74371041D01*
X118450500Y-73773959D01*
X118412051Y-73580665D01*
X118336632Y-73398586D01*
X118227139Y-73234718D01*
X118087782Y-73095361D01*
X117969224Y-73016143D01*
X117923913Y-72985867D01*
X117923911Y-72985866D01*
X117923908Y-72985864D01*
X117741836Y-72910449D01*
X117741835Y-72910449D01*
X117677404Y-72897632D01*
X117548545Y-72872000D01*
X117548543Y-72872000D01*
X117548541Y-72872000D01*
X117351459Y-72872000D01*
X117351456Y-72872000D01*
X117351455Y-72872000D01*
X117270027Y-72888197D01*
X117167727Y-72908547D01*
X117167720Y-72908547D01*
X117158161Y-72910448D01*
X116976088Y-72985865D01*
X116976087Y-72985865D01*
X116812220Y-73095358D01*
X116672858Y-73234720D01*
X116563365Y-73398587D01*
X116563365Y-73398588D01*
X116487948Y-73580661D01*
X116486047Y-73590224D01*
X116486047Y-73590226D01*
X116449500Y-73773953D01*
X115950498Y-73773953D01*
X115944120Y-73741888D01*
X115912051Y-73580665D01*
X115836632Y-73398586D01*
X115727139Y-73234718D01*
X115587782Y-73095361D01*
X115469224Y-73016143D01*
X115423913Y-72985867D01*
X115423911Y-72985866D01*
X115423908Y-72985864D01*
X115241836Y-72910449D01*
X115241835Y-72910449D01*
X115177404Y-72897632D01*
X115048545Y-72872000D01*
X115048543Y-72872000D01*
X115048541Y-72872000D01*
X114851459Y-72872000D01*
X114851456Y-72872000D01*
X114851455Y-72872000D01*
X114770027Y-72888197D01*
X114667727Y-72908547D01*
X114667720Y-72908547D01*
X114658161Y-72910448D01*
X114476088Y-72985865D01*
X114476087Y-72985865D01*
X114312220Y-73095358D01*
X114172858Y-73234720D01*
X114063365Y-73398587D01*
X114063365Y-73398588D01*
X113987948Y-73580661D01*
X113986047Y-73590224D01*
X113986047Y-73590226D01*
X113949500Y-73773953D01*
X113449988Y-73773953D01*
X113413443Y-73590225D01*
X113413443Y-73590224D01*
X113411570Y-73580809D01*
X113376048Y-73495050D01*
X113336191Y-73398826D01*
X113336185Y-73398814D01*
X113226750Y-73235037D01*
X113226747Y-73235033D01*
X113087466Y-73095752D01*
X113087462Y-73095749D01*
X112923685Y-72986314D01*
X112923682Y-72986312D01*
X112923680Y-72986311D01*
X112923675Y-72986308D01*
X112741690Y-72910929D01*
X112741689Y-72910929D01*
X112575000Y-72877772D01*
X112575000Y-73498500D01*
X112556093Y-73556691D01*
X112506593Y-73592655D01*
X112476000Y-73597500D01*
X112424000Y-73597500D01*
X112365809Y-73578593D01*
X112329845Y-73529093D01*
X112325000Y-73498500D01*
X112325000Y-72877771D01*
X112167873Y-72909027D01*
X112167867Y-72909027D01*
X112158309Y-72910928D01*
X111976318Y-72986311D01*
X111976311Y-72986315D01*
X111880415Y-73050392D01*
X111821527Y-73067001D01*
X111764123Y-73045824D01*
X111730130Y-72994950D01*
X111726418Y-72967089D01*
X111792062Y-66427804D01*
X111790217Y-66409340D01*
X111803247Y-66349559D01*
X111848927Y-66308853D01*
X111888727Y-66300500D01*
X117994689Y-66300500D01*
X117998203Y-66300562D01*
X118001751Y-66300688D01*
X118005294Y-66300877D01*
X118231288Y-66317041D01*
X118238299Y-66317795D01*
X118240453Y-66318104D01*
X118245267Y-66318796D01*
X118252222Y-66320051D01*
X118468450Y-66367089D01*
X118475270Y-66368829D01*
X118482067Y-66370825D01*
X118488730Y-66373043D01*
X118696055Y-66450371D01*
X118702577Y-66453072D01*
X118706749Y-66454978D01*
X118709002Y-66456007D01*
X118715315Y-66459168D01*
X118909503Y-66565202D01*
X118915587Y-66568812D01*
X118921513Y-66572621D01*
X118927312Y-66576647D01*
X118978673Y-66615095D01*
X119081243Y-66691878D01*
X119104434Y-66709238D01*
X119109935Y-66713671D01*
X119115259Y-66718284D01*
X119120434Y-66723101D01*
X119276897Y-66879564D01*
X119281714Y-66884739D01*
X119286327Y-66890063D01*
X119290749Y-66895550D01*
X119423360Y-67072697D01*
X119427366Y-67078466D01*
X119431205Y-67084441D01*
X119434796Y-67090494D01*
X119540834Y-67284690D01*
X119543991Y-67290995D01*
X119546922Y-67297412D01*
X119549627Y-67303941D01*
X119626946Y-67511242D01*
X119629175Y-67517938D01*
X119631163Y-67524706D01*
X119632914Y-67531563D01*
X119679948Y-67747775D01*
X119681201Y-67754724D01*
X119682201Y-67761681D01*
X119682203Y-67761693D01*
X119682958Y-67768714D01*
X119689909Y-67865892D01*
X119689909Y-67865894D01*
X119693484Y-67915889D01*
X119699122Y-67994719D01*
X119699311Y-67998241D01*
X119699437Y-68001761D01*
X119699500Y-68005302D01*
X119699500Y-118884819D01*
X119694654Y-118915412D01*
X119690532Y-118928098D01*
X119654580Y-118977589D01*
X119650459Y-118980584D01*
X119592271Y-118999500D01*
X118560432Y-118999500D01*
X118484018Y-119019976D01*
X118484011Y-119019978D01*
X118484007Y-119019980D01*
X118465649Y-119030579D01*
X118415492Y-119059537D01*
X118359537Y-119115492D01*
X118330579Y-119165649D01*
X118319980Y-119184007D01*
X118319979Y-119184010D01*
X118319976Y-119184018D01*
X118299500Y-119260432D01*
X118299500Y-124339566D01*
X118302127Y-124349369D01*
X118319978Y-124415988D01*
X118319980Y-124415992D01*
X118319981Y-124415993D01*
X118319981Y-124415995D01*
X118359533Y-124484500D01*
X118359535Y-124484504D01*
X118359538Y-124484508D01*
X118359540Y-124484511D01*
X118415489Y-124540460D01*
X118415491Y-124540461D01*
X118484007Y-124580019D01*
X118484011Y-124580021D01*
X118557283Y-124599654D01*
X118557829Y-124599884D01*
X118560436Y-124600500D01*
X118560437Y-124600500D01*
X118560438Y-124600500D01*
X118639562Y-124600500D01*
X119584820Y-124600500D01*
X119615408Y-124605343D01*
X119628095Y-124609466D01*
X119677595Y-124645427D01*
X119677596Y-124645428D01*
X119680591Y-124649550D01*
X119699500Y-124707740D01*
X119699500Y-131994696D01*
X119699437Y-131998236D01*
X119699311Y-132001757D01*
X119699122Y-132005280D01*
X119682958Y-132231284D01*
X119682204Y-132238296D01*
X119681205Y-132245252D01*
X119681203Y-132245263D01*
X119679948Y-132252223D01*
X119632914Y-132468435D01*
X119631163Y-132475292D01*
X119629175Y-132482060D01*
X119626946Y-132488756D01*
X119549627Y-132696057D01*
X119546918Y-132702596D01*
X119543993Y-132708999D01*
X119540834Y-132715308D01*
X119434796Y-132909504D01*
X119431199Y-132915568D01*
X119427381Y-132921510D01*
X119423355Y-132927308D01*
X119296531Y-133096725D01*
X119290760Y-133104435D01*
X119286327Y-133109935D01*
X119281714Y-133115259D01*
X119276897Y-133120434D01*
X119120434Y-133276897D01*
X119115259Y-133281714D01*
X119109935Y-133286327D01*
X119104434Y-133290760D01*
X118969701Y-133391621D01*
X118927313Y-133423352D01*
X118921519Y-133427374D01*
X118915569Y-133431197D01*
X118909504Y-133434796D01*
X118715308Y-133540834D01*
X118708999Y-133543993D01*
X118706320Y-133545216D01*
X118702584Y-133546922D01*
X118696057Y-133549627D01*
X118488756Y-133626946D01*
X118482060Y-133629175D01*
X118475292Y-133631163D01*
X118468435Y-133632914D01*
X118252223Y-133679948D01*
X118245261Y-133681203D01*
X118238302Y-133682203D01*
X118231283Y-133682958D01*
X118102388Y-133692177D01*
X118080310Y-133693756D01*
X118005277Y-133699122D01*
X118001757Y-133699311D01*
X117998216Y-133699437D01*
X117994696Y-133699500D01*
X108005304Y-133699500D01*
X108001781Y-133699437D01*
X107998520Y-133699320D01*
X107998243Y-133699311D01*
X107994721Y-133699122D01*
X107897616Y-133692177D01*
X107768716Y-133682958D01*
X107761696Y-133682203D01*
X107755999Y-133681384D01*
X107754734Y-133681202D01*
X107747775Y-133679948D01*
X107531563Y-133632914D01*
X107524706Y-133631163D01*
X107517938Y-133629175D01*
X107511242Y-133626946D01*
X107352220Y-133567634D01*
X107303933Y-133549624D01*
X107297424Y-133546927D01*
X107290996Y-133543991D01*
X107284690Y-133540834D01*
X107090494Y-133434796D01*
X107084441Y-133431205D01*
X107078466Y-133427366D01*
X107072703Y-133423364D01*
X106895550Y-133290749D01*
X106890063Y-133286327D01*
X106884739Y-133281714D01*
X106879564Y-133276897D01*
X106723101Y-133120434D01*
X106718284Y-133115259D01*
X106713671Y-133109935D01*
X106709238Y-133104434D01*
X106669659Y-133051563D01*
X106590547Y-132945881D01*
X106576652Y-132927319D01*
X106572620Y-132921511D01*
X106568801Y-132915568D01*
X106565197Y-132909494D01*
X106475202Y-132744681D01*
X106475200Y-132744678D01*
X106459165Y-132715310D01*
X106456003Y-132708991D01*
X106453074Y-132702577D01*
X106450372Y-132696056D01*
X106448710Y-132691602D01*
X106446131Y-132684686D01*
X106373043Y-132488730D01*
X106370823Y-132482060D01*
X106368829Y-132475270D01*
X106367089Y-132468450D01*
X106320051Y-132252222D01*
X106318798Y-132245284D01*
X106317792Y-132238286D01*
X106317041Y-132231285D01*
X106309275Y-132122700D01*
X106300874Y-132005240D01*
X106300689Y-132001784D01*
X106300561Y-131998190D01*
X106300500Y-131994696D01*
X106300500Y-128960436D01*
X106299518Y-128956278D01*
X106299006Y-128954866D01*
X106280021Y-128884011D01*
X106266409Y-128860435D01*
X106241942Y-128818057D01*
X106240858Y-128816042D01*
X106240461Y-128815491D01*
X106240460Y-128815489D01*
X106184511Y-128759540D01*
X106184508Y-128759538D01*
X106184504Y-128759535D01*
X106184500Y-128759533D01*
X106115994Y-128719981D01*
X106115993Y-128719980D01*
X106115992Y-128719980D01*
X106115988Y-128719978D01*
X106099246Y-128715492D01*
X106039566Y-128699500D01*
X106039564Y-128699500D01*
X106039562Y-128699500D01*
X100850870Y-128699500D01*
X100820276Y-128694654D01*
X100809874Y-128691274D01*
X100760374Y-128655309D01*
X100741468Y-128597118D01*
X100756051Y-128545402D01*
X100759062Y-128540489D01*
X100773464Y-128522217D01*
X101655102Y-127640579D01*
X101680154Y-127622378D01*
X101701921Y-127611288D01*
X101746862Y-127600500D01*
X101765890Y-127600500D01*
X101765892Y-127600500D01*
X101893186Y-127566392D01*
X101893188Y-127566390D01*
X101893190Y-127566390D01*
X102001190Y-127504035D01*
X102004067Y-127502639D01*
X102004853Y-127502122D01*
X102009862Y-127499028D01*
X102011161Y-127498277D01*
X102016519Y-127491294D01*
X102100500Y-127407314D01*
X102166392Y-127293186D01*
X102200500Y-127165892D01*
X102200500Y-127034108D01*
X102166392Y-126906814D01*
X102166390Y-126906811D01*
X102166390Y-126906809D01*
X102166383Y-126906798D01*
X102166066Y-126906094D01*
X102164812Y-126904076D01*
X102100503Y-126792690D01*
X102100501Y-126792688D01*
X102100500Y-126792686D01*
X102007314Y-126699500D01*
X102007311Y-126699498D01*
X102007309Y-126699496D01*
X102007302Y-126699492D01*
X101950476Y-126666683D01*
X101929442Y-126643322D01*
X101843799Y-126620375D01*
X101843798Y-126620374D01*
X101786766Y-126605093D01*
X101765892Y-126599500D01*
X101765891Y-126599500D01*
X101634109Y-126599500D01*
X101634108Y-126599500D01*
X101595154Y-126609937D01*
X101556199Y-126620375D01*
X101556198Y-126620374D01*
X101506807Y-126633609D01*
X101506805Y-126633610D01*
X101392694Y-126699492D01*
X101299492Y-126792694D01*
X101233611Y-126906803D01*
X101233609Y-126906807D01*
X101233609Y-126906809D01*
X101199500Y-127034109D01*
X101199500Y-127034110D01*
X101199500Y-127048129D01*
X101194654Y-127078722D01*
X101187107Y-127101949D01*
X101162957Y-127141360D01*
X100144900Y-128159417D01*
X100119843Y-128177621D01*
X100098085Y-128188708D01*
X100053138Y-128199500D01*
X89351869Y-128199500D01*
X89321276Y-128194654D01*
X89298049Y-128187107D01*
X89258638Y-128162957D01*
X87740582Y-126644900D01*
X87722376Y-126619841D01*
X87711288Y-126598079D01*
X87700500Y-126553137D01*
X87700500Y-125164001D01*
X87705344Y-125133413D01*
X87711635Y-125114049D01*
X87712891Y-125110181D01*
X87737045Y-125070767D01*
X87750500Y-125057314D01*
X87816392Y-124943186D01*
X87850500Y-124815892D01*
X87850500Y-124684108D01*
X87816392Y-124556814D01*
X87816390Y-124556811D01*
X87816390Y-124556809D01*
X87816383Y-124556798D01*
X87816064Y-124556091D01*
X87814805Y-124554063D01*
X87750507Y-124442697D01*
X87750503Y-124442690D01*
X87750498Y-124442684D01*
X87740579Y-124432765D01*
X87722377Y-124407708D01*
X87711289Y-124385945D01*
X87700500Y-124341003D01*
X87700500Y-117864001D01*
X87705344Y-117833413D01*
X87711635Y-117814049D01*
X87712891Y-117810181D01*
X87737045Y-117770767D01*
X87750500Y-117757314D01*
X87816392Y-117643186D01*
X87850500Y-117515892D01*
X87850500Y-117384108D01*
X87816392Y-117256814D01*
X87816390Y-117256811D01*
X87816390Y-117256809D01*
X87816383Y-117256798D01*
X87816066Y-117256094D01*
X87814812Y-117254076D01*
X87750503Y-117142690D01*
X87750501Y-117142688D01*
X87750500Y-117142686D01*
X87657314Y-117049500D01*
X87657311Y-117049498D01*
X87657309Y-117049496D01*
X87657302Y-117049492D01*
X87600476Y-117016683D01*
X87579442Y-116993322D01*
X87477068Y-116965892D01*
X87477067Y-116965891D01*
X87432283Y-116953891D01*
X87415892Y-116949500D01*
X87415891Y-116949500D01*
X87284109Y-116949500D01*
X87284108Y-116949500D01*
X87273436Y-116952359D01*
X87222931Y-116965891D01*
X87222932Y-116965892D01*
X87156809Y-116983609D01*
X87156807Y-116983609D01*
X87156803Y-116983611D01*
X87042694Y-117049492D01*
X86949492Y-117142694D01*
X86883608Y-117256809D01*
X86883330Y-117257545D01*
X86882784Y-117259886D01*
X86849500Y-117384108D01*
X86849500Y-117515892D01*
X86879579Y-117628151D01*
X86883609Y-117643190D01*
X86949496Y-117757309D01*
X86949498Y-117757311D01*
X86949500Y-117757314D01*
X86959420Y-117767234D01*
X86977624Y-117792291D01*
X86988710Y-117814049D01*
X86999500Y-117858993D01*
X86999500Y-124335997D01*
X86994654Y-124366591D01*
X86987107Y-124389817D01*
X86962961Y-124429222D01*
X86949506Y-124442678D01*
X86949501Y-124442683D01*
X86949497Y-124442689D01*
X86949491Y-124442697D01*
X86883608Y-124556809D01*
X86883330Y-124557545D01*
X86882784Y-124559886D01*
X86853573Y-124668907D01*
X86849500Y-124684108D01*
X86849500Y-124815892D01*
X86879579Y-124928151D01*
X86883609Y-124943190D01*
X86949496Y-125057309D01*
X86949498Y-125057311D01*
X86949500Y-125057314D01*
X86959420Y-125067234D01*
X86977624Y-125092291D01*
X86988710Y-125114049D01*
X86999500Y-125158993D01*
X86999500Y-126796144D01*
X86999499Y-126796144D01*
X87002390Y-126806932D01*
X87002390Y-126806938D01*
X87023385Y-126885286D01*
X87023387Y-126885291D01*
X87035814Y-126906814D01*
X87069530Y-126965212D01*
X87572769Y-127468450D01*
X88623728Y-128519409D01*
X88641935Y-128544470D01*
X88646899Y-128554213D01*
X88656469Y-128614645D01*
X88628690Y-128669161D01*
X88581811Y-128695418D01*
X88576216Y-128696762D01*
X88553093Y-128699500D01*
X82160432Y-128699500D01*
X82084018Y-128719976D01*
X82084011Y-128719978D01*
X82084007Y-128719980D01*
X82065649Y-128730579D01*
X82015492Y-128759537D01*
X81959537Y-128815492D01*
X81919979Y-128884009D01*
X81919976Y-128884018D01*
X81899500Y-128960432D01*
X81899500Y-131994696D01*
X81899437Y-131998236D01*
X81899311Y-132001757D01*
X81899122Y-132005280D01*
X81882958Y-132231284D01*
X81882204Y-132238296D01*
X81881205Y-132245252D01*
X81881203Y-132245263D01*
X81879948Y-132252223D01*
X81832914Y-132468435D01*
X81831163Y-132475292D01*
X81829175Y-132482060D01*
X81826946Y-132488756D01*
X81749627Y-132696057D01*
X81746918Y-132702596D01*
X81743993Y-132708999D01*
X81740834Y-132715308D01*
X81634796Y-132909504D01*
X81631199Y-132915568D01*
X81627381Y-132921510D01*
X81623355Y-132927308D01*
X81496531Y-133096725D01*
X81490760Y-133104435D01*
X81486327Y-133109935D01*
X81481714Y-133115259D01*
X81476897Y-133120434D01*
X81320434Y-133276897D01*
X81315259Y-133281714D01*
X81309935Y-133286327D01*
X81304434Y-133290760D01*
X81169701Y-133391621D01*
X81127313Y-133423352D01*
X81121519Y-133427374D01*
X81115569Y-133431197D01*
X81109504Y-133434796D01*
X80915308Y-133540834D01*
X80908999Y-133543993D01*
X80906320Y-133545216D01*
X80902584Y-133546922D01*
X80896057Y-133549627D01*
X80688756Y-133626946D01*
X80682060Y-133629175D01*
X80675292Y-133631163D01*
X80668435Y-133632914D01*
X80452223Y-133679948D01*
X80445261Y-133681203D01*
X80438302Y-133682203D01*
X80431283Y-133682958D01*
X80302388Y-133692177D01*
X80280310Y-133693756D01*
X80205277Y-133699122D01*
X80201757Y-133699311D01*
X80198216Y-133699437D01*
X80194696Y-133699500D01*
X60205304Y-133699500D01*
X60201781Y-133699437D01*
X60198520Y-133699320D01*
X60198243Y-133699311D01*
X60194721Y-133699122D01*
X60097616Y-133692177D01*
X59968716Y-133682958D01*
X59961696Y-133682203D01*
X59955999Y-133681384D01*
X59954734Y-133681202D01*
X59947775Y-133679948D01*
X59731563Y-133632914D01*
X59724706Y-133631163D01*
X59717938Y-133629175D01*
X59711242Y-133626946D01*
X59552220Y-133567634D01*
X59503933Y-133549624D01*
X59497424Y-133546927D01*
X59490996Y-133543991D01*
X59484690Y-133540834D01*
X59290494Y-133434796D01*
X59284441Y-133431205D01*
X59278466Y-133427366D01*
X59272703Y-133423364D01*
X59095550Y-133290749D01*
X59090063Y-133286327D01*
X59084739Y-133281714D01*
X59079564Y-133276897D01*
X58923101Y-133120434D01*
X58918284Y-133115259D01*
X58913671Y-133109935D01*
X58909238Y-133104434D01*
X58869659Y-133051563D01*
X58790547Y-132945881D01*
X58776652Y-132927319D01*
X58772620Y-132921511D01*
X58768801Y-132915568D01*
X58765197Y-132909494D01*
X58675202Y-132744681D01*
X58675200Y-132744678D01*
X58659165Y-132715310D01*
X58656003Y-132708991D01*
X58653074Y-132702577D01*
X58650372Y-132696056D01*
X58648710Y-132691602D01*
X58646131Y-132684686D01*
X58573043Y-132488730D01*
X58570823Y-132482060D01*
X58568829Y-132475270D01*
X58567089Y-132468450D01*
X58520051Y-132252222D01*
X58518798Y-132245284D01*
X58517792Y-132238286D01*
X58517041Y-132231285D01*
X58509275Y-132122700D01*
X58500874Y-132005240D01*
X58500689Y-132001784D01*
X58500561Y-131998190D01*
X58500500Y-131994696D01*
X58500500Y-130760839D01*
X58500452Y-130760450D01*
X58500432Y-130760288D01*
X58466955Y-130484575D01*
X58466953Y-130484560D01*
X58411716Y-130260457D01*
X58406559Y-130239534D01*
X75973868Y-130239534D01*
X75973868Y-130509202D01*
X76004051Y-130777071D01*
X76004053Y-130777086D01*
X76004056Y-130777104D01*
X76059588Y-131020403D01*
X76064052Y-131039963D01*
X76064052Y-131039964D01*
X76064051Y-131039964D01*
X76152841Y-131293706D01*
X76153066Y-131294365D01*
X76153099Y-131294446D01*
X76270074Y-131537349D01*
X76270080Y-131537361D01*
X76270082Y-131537364D01*
X76407330Y-131755792D01*
X76412006Y-131763233D01*
X76413532Y-131765662D01*
X76480342Y-131849438D01*
X76581634Y-131976455D01*
X76772283Y-132167104D01*
X76983079Y-132335208D01*
X77031602Y-132365697D01*
X77211373Y-132478655D01*
X77211381Y-132478658D01*
X77211386Y-132478662D01*
X77351873Y-132546316D01*
X77438166Y-132587872D01*
X77454290Y-132595637D01*
X77495003Y-132609883D01*
X77700895Y-132681928D01*
X77705267Y-132683884D01*
X77708768Y-132684683D01*
X77708774Y-132684685D01*
X77708777Y-132684685D01*
X77708778Y-132684686D01*
X77971637Y-132744682D01*
X78043884Y-132752822D01*
X78225673Y-132773306D01*
X78231736Y-132774870D01*
X78509178Y-132774870D01*
X78516999Y-132774870D01*
X78523056Y-132773306D01*
X78680771Y-132755535D01*
X78777101Y-132744682D01*
X79039960Y-132684686D01*
X79294448Y-132595637D01*
X79529733Y-132482330D01*
X79537364Y-132478655D01*
X79537366Y-132478654D01*
X79765659Y-132335208D01*
X79976455Y-132167104D01*
X80167104Y-131976455D01*
X80335208Y-131765659D01*
X80478654Y-131537366D01*
X80595637Y-131294448D01*
X80684686Y-131039960D01*
X80744682Y-130777101D01*
X80759491Y-130645668D01*
X80774869Y-130509194D01*
X80774870Y-130509177D01*
X80774870Y-130239560D01*
X80774869Y-130239543D01*
X80772029Y-130214343D01*
X80752822Y-130043886D01*
X80752822Y-130043884D01*
X80744682Y-129971638D01*
X80744681Y-129971635D01*
X80684686Y-129708778D01*
X80684308Y-129707698D01*
X80684316Y-129707695D01*
X80684298Y-129707671D01*
X80637206Y-129573088D01*
X80595637Y-129454290D01*
X80557270Y-129374620D01*
X80478662Y-129211387D01*
X80478656Y-129211375D01*
X80478655Y-129211373D01*
X80335207Y-128983078D01*
X80330693Y-128977418D01*
X80317155Y-128960441D01*
X80317153Y-128960439D01*
X80317152Y-128960438D01*
X80167104Y-128772283D01*
X79976455Y-128581634D01*
X79765659Y-128413530D01*
X79685130Y-128362930D01*
X79537364Y-128270082D01*
X79537356Y-128270078D01*
X79537349Y-128270074D01*
X79294446Y-128153099D01*
X79294365Y-128153066D01*
X79293706Y-128152841D01*
X79039964Y-128064052D01*
X78777104Y-128004056D01*
X78777086Y-128004053D01*
X78777071Y-128004051D01*
X78509202Y-127973868D01*
X78509194Y-127973868D01*
X78509178Y-127973868D01*
X78239560Y-127973868D01*
X78239543Y-127973868D01*
X78239534Y-127973868D01*
X77971665Y-128004051D01*
X77971650Y-128004053D01*
X77971632Y-128004056D01*
X77708772Y-128064052D01*
X77455030Y-128152841D01*
X77454376Y-128153064D01*
X77454290Y-128153099D01*
X77211387Y-128270074D01*
X77211375Y-128270080D01*
X76983077Y-128413530D01*
X76772285Y-128581632D01*
X76581632Y-128772285D01*
X76413530Y-128983077D01*
X76270080Y-129211375D01*
X76270074Y-129211387D01*
X76153099Y-129454290D01*
X76153064Y-129454376D01*
X76152841Y-129455030D01*
X76064052Y-129708772D01*
X76004056Y-129971632D01*
X76004052Y-129971658D01*
X75973868Y-130239534D01*
X58406559Y-130239534D01*
X58400351Y-130214347D01*
X58400350Y-130214346D01*
X58400350Y-130214343D01*
X58308313Y-129971658D01*
X58308305Y-129971636D01*
X58308305Y-129971635D01*
X58301664Y-129954125D01*
X58172322Y-129707685D01*
X58015218Y-129480082D01*
X58014444Y-129478918D01*
X58014231Y-129478651D01*
X57993305Y-129455030D01*
X57829673Y-129270327D01*
X57621355Y-129085774D01*
X57621350Y-129085770D01*
X57621347Y-129085768D01*
X57621340Y-129085762D01*
X57621197Y-129085658D01*
X57620691Y-129085315D01*
X57392313Y-128927676D01*
X57145875Y-128798335D01*
X56958254Y-128727182D01*
X56885657Y-128699650D01*
X56885654Y-128699649D01*
X56885651Y-128699648D01*
X56885648Y-128699647D01*
X56615441Y-128633046D01*
X56341341Y-128599765D01*
X56339956Y-128599565D01*
X56339161Y-128599500D01*
X56339159Y-128599500D01*
X56339154Y-128599500D01*
X56239562Y-128599500D01*
X54539562Y-128599500D01*
X54460438Y-128599500D01*
X54460435Y-128599500D01*
X54460432Y-128599500D01*
X54384018Y-128619976D01*
X54384011Y-128619978D01*
X54384009Y-128619979D01*
X54315492Y-128659537D01*
X54259537Y-128715492D01*
X54239479Y-128750234D01*
X54227612Y-128770789D01*
X54219979Y-128784009D01*
X54219976Y-128784018D01*
X54199500Y-128860432D01*
X54199500Y-128860435D01*
X54199500Y-128860438D01*
X54199500Y-130605756D01*
X54197471Y-130645668D01*
X54209755Y-130691229D01*
X54211618Y-130698183D01*
X54211619Y-130698190D01*
X54221485Y-130735004D01*
X54221668Y-130735606D01*
X54222199Y-130737462D01*
X54222251Y-130737578D01*
X54242345Y-130768413D01*
X54242346Y-130768413D01*
X54243805Y-130770652D01*
X54259540Y-130797906D01*
X54265350Y-130803716D01*
X54267098Y-130806398D01*
X54270989Y-130812369D01*
X54270989Y-130812371D01*
X54270993Y-130812375D01*
X54274217Y-130817324D01*
X54293883Y-130833200D01*
X54295537Y-130834565D01*
X54296567Y-130835434D01*
X54302729Y-130841095D01*
X54315489Y-130853855D01*
X54315491Y-130853856D01*
X54315492Y-130853857D01*
X54320641Y-130857808D01*
X54320568Y-130857902D01*
X54323412Y-130859860D01*
X54329891Y-130865120D01*
X54330178Y-130865563D01*
X54335335Y-130869881D01*
X54386136Y-130917683D01*
X54480790Y-131006750D01*
X54486055Y-131012094D01*
X54491105Y-131017625D01*
X54495952Y-131023355D01*
X54508950Y-131039964D01*
X54632472Y-131197791D01*
X54636875Y-131203879D01*
X54641035Y-131210117D01*
X54644959Y-131216515D01*
X54753535Y-131409569D01*
X54756962Y-131416242D01*
X54760135Y-131423043D01*
X54763048Y-131429963D01*
X54793915Y-131511820D01*
X54841197Y-131637215D01*
X54843577Y-131644331D01*
X54845682Y-131651522D01*
X54847518Y-131658809D01*
X54893443Y-131875502D01*
X54894720Y-131882903D01*
X54895713Y-131890327D01*
X54896426Y-131897802D01*
X54909068Y-132118946D01*
X54909212Y-132126457D01*
X54909071Y-132133956D01*
X54908645Y-132141450D01*
X54887715Y-132361951D01*
X54886722Y-132369400D01*
X54885448Y-132376797D01*
X54883894Y-132384138D01*
X54829877Y-132598928D01*
X54827773Y-132606129D01*
X54825398Y-132613244D01*
X54822750Y-132620278D01*
X54736874Y-132824468D01*
X54733705Y-132831268D01*
X54730279Y-132837947D01*
X54726607Y-132844482D01*
X54610858Y-133033332D01*
X54606694Y-133039581D01*
X54602310Y-133045648D01*
X54597685Y-133051563D01*
X54454708Y-133220764D01*
X54449647Y-133226311D01*
X54444401Y-133231641D01*
X54438933Y-133236791D01*
X54272029Y-133382427D01*
X54266192Y-133387143D01*
X54260198Y-133391621D01*
X54254013Y-133395886D01*
X54067021Y-133514617D01*
X54060518Y-133518407D01*
X54053893Y-133521938D01*
X54047152Y-133525209D01*
X53844372Y-133614305D01*
X53837388Y-133617063D01*
X53830315Y-133619550D01*
X53823141Y-133621770D01*
X53609215Y-133679192D01*
X53601896Y-133680862D01*
X53594533Y-133682250D01*
X53587107Y-133683361D01*
X53366963Y-133707785D01*
X53359475Y-133708330D01*
X53351974Y-133708590D01*
X53344464Y-133708565D01*
X53123156Y-133699434D01*
X53115667Y-133698840D01*
X53108214Y-133697963D01*
X53100797Y-133696803D01*
X52883416Y-133654323D01*
X52876110Y-133652606D01*
X52868893Y-133650617D01*
X52861734Y-133648350D01*
X52653245Y-133573490D01*
X52646281Y-133570687D01*
X52639455Y-133567634D01*
X52632719Y-133564309D01*
X52437960Y-133458804D01*
X52431494Y-133454977D01*
X52425182Y-133450910D01*
X52419033Y-133446609D01*
X52242467Y-133312884D01*
X52236661Y-133308131D01*
X52231029Y-133303150D01*
X52225603Y-133297972D01*
X52209811Y-133281714D01*
X52071278Y-133139091D01*
X52066257Y-133133513D01*
X52061460Y-133127760D01*
X52056871Y-133121812D01*
X52054109Y-133117936D01*
X52054108Y-133117935D01*
X52048407Y-133109935D01*
X51928333Y-132941425D01*
X51924210Y-132935147D01*
X51920333Y-132928726D01*
X51916699Y-132922158D01*
X51816901Y-132724408D01*
X51813772Y-132717573D01*
X51810911Y-132710641D01*
X51808314Y-132703605D01*
X51806929Y-132699363D01*
X51739558Y-132493054D01*
X51737500Y-132485834D01*
X51737404Y-132485442D01*
X51735717Y-132478542D01*
X51734220Y-132471227D01*
X51724994Y-132415435D01*
X51698071Y-132252641D01*
X51697134Y-132245246D01*
X51696471Y-132237742D01*
X51696097Y-132230266D01*
X51693405Y-132008742D01*
X51693599Y-132001252D01*
X51694077Y-131993760D01*
X51694835Y-131986332D01*
X51725659Y-131766949D01*
X51726980Y-131759583D01*
X51728588Y-131752237D01*
X51730459Y-131745015D01*
X51794094Y-131532794D01*
X51796513Y-131525717D01*
X51799211Y-131518704D01*
X51802158Y-131511832D01*
X51834900Y-131442835D01*
X51897138Y-131311676D01*
X51900597Y-131305048D01*
X51904321Y-131298528D01*
X51908263Y-131292197D01*
X52032422Y-131108677D01*
X52036846Y-131102645D01*
X52041494Y-131096786D01*
X52046379Y-131091087D01*
X52198936Y-130926189D01*
X52200188Y-130924860D01*
X52201536Y-130923458D01*
X52202799Y-130922169D01*
X52206723Y-130918245D01*
X52207944Y-130917047D01*
X52209300Y-130915741D01*
X52210443Y-130914660D01*
X52239353Y-130887819D01*
X52261405Y-130848231D01*
X52280021Y-130815989D01*
X52280627Y-130813727D01*
X52285677Y-130804662D01*
X52292895Y-130767940D01*
X52300500Y-130739562D01*
X52300500Y-130729258D01*
X52304038Y-130711261D01*
X52301564Y-130690765D01*
X52301034Y-130684893D01*
X52300676Y-130678927D01*
X52300500Y-130673015D01*
X52300500Y-128952406D01*
X52300500Y-128952405D01*
X52288222Y-128914618D01*
X52280021Y-128884011D01*
X52276033Y-128877103D01*
X52271085Y-128861875D01*
X52264543Y-128852871D01*
X52255419Y-128840312D01*
X52255418Y-128840311D01*
X52252595Y-128836425D01*
X52252362Y-128836104D01*
X52240460Y-128815489D01*
X52229211Y-128804240D01*
X52224629Y-128797933D01*
X52224623Y-128797916D01*
X52224579Y-128797864D01*
X52222421Y-128794889D01*
X52222357Y-128794807D01*
X52216290Y-128786456D01*
X52215311Y-128785050D01*
X52215132Y-128784863D01*
X52202063Y-128775368D01*
X52190256Y-128765285D01*
X52184511Y-128759540D01*
X52168378Y-128750225D01*
X52159702Y-128744592D01*
X52138125Y-128728915D01*
X52132784Y-128727179D01*
X52122896Y-128723966D01*
X52115989Y-128719979D01*
X52085397Y-128711781D01*
X52082934Y-128710981D01*
X52082922Y-128710978D01*
X52082914Y-128710975D01*
X52050935Y-128700585D01*
X52047596Y-128699500D01*
X52047595Y-128699500D01*
X52047594Y-128699500D01*
X52039562Y-128699500D01*
X52005304Y-128699500D01*
X52001781Y-128699437D01*
X51998520Y-128699320D01*
X51998243Y-128699311D01*
X51994721Y-128699122D01*
X51897616Y-128692177D01*
X51768716Y-128682958D01*
X51761696Y-128682203D01*
X51755999Y-128681384D01*
X51754734Y-128681202D01*
X51747775Y-128679948D01*
X51531563Y-128632914D01*
X51524706Y-128631163D01*
X51517938Y-128629175D01*
X51511242Y-128626946D01*
X51316237Y-128554213D01*
X51303933Y-128549624D01*
X51297424Y-128546927D01*
X51290996Y-128543991D01*
X51284690Y-128540834D01*
X51090494Y-128434796D01*
X51084441Y-128431205D01*
X51078466Y-128427366D01*
X51072703Y-128423364D01*
X50895550Y-128290749D01*
X50890063Y-128286327D01*
X50884739Y-128281714D01*
X50879564Y-128276897D01*
X50723101Y-128120434D01*
X50718284Y-128115259D01*
X50713671Y-128109935D01*
X50709238Y-128104434D01*
X50679009Y-128064052D01*
X50576638Y-127927300D01*
X50572616Y-127921507D01*
X50568798Y-127915565D01*
X50565197Y-127909495D01*
X50541460Y-127866024D01*
X50459162Y-127715305D01*
X50456011Y-127709010D01*
X50453074Y-127702580D01*
X50450367Y-127696044D01*
X50422143Y-127620372D01*
X50402804Y-127568523D01*
X50373043Y-127488730D01*
X50370825Y-127482067D01*
X50368829Y-127475270D01*
X50367089Y-127468450D01*
X50320051Y-127252222D01*
X50318798Y-127245284D01*
X50317792Y-127238286D01*
X50317041Y-127231285D01*
X50312364Y-127165890D01*
X50300874Y-127005240D01*
X50300689Y-127001784D01*
X50300561Y-126998190D01*
X50300500Y-126994696D01*
X50300500Y-123425413D01*
X55042646Y-123425413D01*
X55042646Y-123888293D01*
X55082608Y-124345051D01*
X55082609Y-124345064D01*
X55082985Y-124349369D01*
X55163356Y-124805175D01*
X55163858Y-124807155D01*
X55164123Y-124808038D01*
X55283146Y-125252243D01*
X55283148Y-125252249D01*
X55283149Y-125252252D01*
X55421911Y-125633499D01*
X55441456Y-125687199D01*
X55441955Y-125688274D01*
X55442037Y-125688445D01*
X55545485Y-125910289D01*
X55637066Y-126106685D01*
X55637078Y-126106707D01*
X55868700Y-126507888D01*
X55869708Y-126509263D01*
X55875634Y-126517725D01*
X55875634Y-126517726D01*
X55875636Y-126517728D01*
X56133974Y-126886675D01*
X56133977Y-126886678D01*
X56133981Y-126886683D01*
X56431468Y-127241215D01*
X56431474Y-127241221D01*
X56431478Y-127241225D01*
X56431484Y-127241232D01*
X56758768Y-127568516D01*
X56758774Y-127568521D01*
X56758778Y-127568525D01*
X56798337Y-127601719D01*
X57113315Y-127866017D01*
X57113320Y-127866021D01*
X57113322Y-127866023D01*
X57113325Y-127866025D01*
X57113340Y-127866036D01*
X57196816Y-127924486D01*
X57492476Y-128131509D01*
X57492480Y-128131511D01*
X57492481Y-128131512D01*
X57494278Y-128132549D01*
X57494537Y-128132719D01*
X57495050Y-128132995D01*
X57732494Y-128270084D01*
X57732495Y-128270084D01*
X57893316Y-128362934D01*
X58312800Y-128558543D01*
X58312807Y-128558545D01*
X58312808Y-128558546D01*
X58418784Y-128597118D01*
X58670430Y-128688710D01*
X58673082Y-128689675D01*
X58687046Y-128700585D01*
X58747735Y-128716846D01*
X58747736Y-128716847D01*
X58747747Y-128716850D01*
X58747746Y-128716850D01*
X58792778Y-128728916D01*
X59194815Y-128836641D01*
X59650633Y-128917014D01*
X59753097Y-128925978D01*
X60111706Y-128957354D01*
X60574578Y-128957354D01*
X60574586Y-128957354D01*
X60728270Y-128943907D01*
X60843539Y-128933822D01*
X61035659Y-128917014D01*
X61491477Y-128836641D01*
X61938556Y-128716847D01*
X62373492Y-128558543D01*
X62792976Y-128362934D01*
X63193816Y-128131509D01*
X63572960Y-127866030D01*
X63572966Y-127866025D01*
X63572969Y-127866023D01*
X63927513Y-127568525D01*
X63927524Y-127568516D01*
X64254808Y-127241232D01*
X64552322Y-126886668D01*
X64817801Y-126507524D01*
X65049226Y-126106684D01*
X65244835Y-125687200D01*
X65403139Y-125252264D01*
X65522933Y-124805185D01*
X65603306Y-124349367D01*
X65628107Y-124065890D01*
X65639637Y-123934108D01*
X65643646Y-123888294D01*
X65643646Y-123425412D01*
X65603683Y-122968649D01*
X65603682Y-122968643D01*
X65603306Y-122964345D01*
X65603306Y-122964342D01*
X65523000Y-122508908D01*
X65522940Y-122508557D01*
X65522936Y-122508536D01*
X65522933Y-122508527D01*
X65522933Y-122508523D01*
X65403139Y-122061444D01*
X65244835Y-121626508D01*
X65049226Y-121207024D01*
X65040013Y-121191067D01*
X64817804Y-120806189D01*
X64817803Y-120806188D01*
X64817801Y-120806184D01*
X64552322Y-120427040D01*
X64505218Y-120370904D01*
X64495737Y-120359603D01*
X64495736Y-120359602D01*
X64445065Y-120299215D01*
X81999500Y-120299215D01*
X81999500Y-120600784D01*
X82026541Y-120806184D01*
X82038014Y-120893326D01*
X82038014Y-120893331D01*
X82038860Y-120899762D01*
X82116915Y-121191064D01*
X82116916Y-121191067D01*
X82232310Y-121469654D01*
X82232324Y-121469681D01*
X82322873Y-121626516D01*
X82381322Y-121727752D01*
X82382704Y-121730147D01*
X82383103Y-121730837D01*
X82483739Y-121861989D01*
X82566675Y-121970073D01*
X82566677Y-121970075D01*
X82566681Y-121970080D01*
X82779920Y-122183319D01*
X82779924Y-122183322D01*
X82779926Y-122183324D01*
X82779931Y-122183328D01*
X82779961Y-122183354D01*
X82780305Y-122183614D01*
X82858593Y-122243687D01*
X83019168Y-122366900D01*
X83280332Y-122517683D01*
X83558942Y-122633087D01*
X83850232Y-122711138D01*
X84149217Y-122750500D01*
X84149218Y-122750500D01*
X84450782Y-122750500D01*
X84450783Y-122750500D01*
X84749768Y-122711138D01*
X85041058Y-122633087D01*
X85319668Y-122517683D01*
X85580832Y-122366900D01*
X85820080Y-122183319D01*
X86033319Y-121970080D01*
X86216900Y-121730832D01*
X86367683Y-121469668D01*
X86483087Y-121191058D01*
X86561138Y-120899768D01*
X86600500Y-120600783D01*
X86600500Y-120299217D01*
X86561138Y-120000232D01*
X86483087Y-119708942D01*
X86367683Y-119430332D01*
X86216900Y-119169168D01*
X86132778Y-119059538D01*
X86033630Y-118930325D01*
X86033346Y-118929951D01*
X86033327Y-118929929D01*
X86033322Y-118929924D01*
X86033319Y-118929920D01*
X85820080Y-118716681D01*
X85820075Y-118716677D01*
X85820073Y-118716675D01*
X85580835Y-118533102D01*
X85580832Y-118533100D01*
X85319668Y-118382317D01*
X85319664Y-118382315D01*
X85319660Y-118382313D01*
X85319654Y-118382310D01*
X85048870Y-118270148D01*
X85048856Y-118270143D01*
X85041063Y-118266915D01*
X85041062Y-118266914D01*
X85041058Y-118266913D01*
X84752632Y-118189629D01*
X84750433Y-118188969D01*
X84745373Y-118188148D01*
X84743329Y-118188014D01*
X84450785Y-118149500D01*
X84450784Y-118149500D01*
X84450783Y-118149500D01*
X84149217Y-118149500D01*
X84149215Y-118149500D01*
X84149214Y-118149500D01*
X83856673Y-118188014D01*
X83856663Y-118188014D01*
X83850236Y-118188860D01*
X83558934Y-118266915D01*
X83558931Y-118266916D01*
X83280343Y-118382310D01*
X83019160Y-118533104D01*
X82779929Y-118716672D01*
X82566672Y-118929929D01*
X82383104Y-119169160D01*
X82232310Y-119430343D01*
X82116916Y-119708931D01*
X82116915Y-119708934D01*
X82038860Y-120000236D01*
X82038014Y-120006668D01*
X82038014Y-120006672D01*
X81999500Y-120299215D01*
X64445065Y-120299215D01*
X64254820Y-120072489D01*
X64254813Y-120072482D01*
X64254808Y-120072476D01*
X63927524Y-119745192D01*
X63927517Y-119745186D01*
X63927513Y-119745182D01*
X63927507Y-119745176D01*
X63572975Y-119447689D01*
X63572970Y-119447685D01*
X63572967Y-119447682D01*
X63305553Y-119260438D01*
X63195571Y-119183428D01*
X63194184Y-119182411D01*
X62792984Y-118950777D01*
X62764535Y-118937511D01*
X62748254Y-118929920D01*
X62651535Y-118884819D01*
X62374737Y-118755745D01*
X62374566Y-118755663D01*
X62373491Y-118755164D01*
X62084988Y-118650158D01*
X62084988Y-118650157D01*
X62013208Y-118624031D01*
X61999244Y-118613121D01*
X61942977Y-118598045D01*
X61941811Y-118597673D01*
X61939360Y-118597061D01*
X61937776Y-118596651D01*
X61809047Y-118562158D01*
X61494330Y-118477831D01*
X61493447Y-118477566D01*
X61491467Y-118477064D01*
X61035652Y-118396692D01*
X60574586Y-118356354D01*
X60574578Y-118356354D01*
X60574571Y-118356354D01*
X60111721Y-118356354D01*
X60111714Y-118356354D01*
X60111707Y-118356354D01*
X59705396Y-118391902D01*
X59654946Y-118396316D01*
X59654934Y-118396316D01*
X59654935Y-118396317D01*
X59650629Y-118396693D01*
X59194823Y-118477064D01*
X59192843Y-118477566D01*
X59191960Y-118477831D01*
X58747755Y-118596854D01*
X58601306Y-118650157D01*
X58312808Y-118755161D01*
X58034756Y-118884819D01*
X57893302Y-118950780D01*
X57492101Y-119182413D01*
X57490710Y-119183434D01*
X57113324Y-119447682D01*
X57113320Y-119447685D01*
X57113315Y-119447689D01*
X56758788Y-119745172D01*
X56431464Y-120072496D01*
X56133981Y-120427023D01*
X56133977Y-120427028D01*
X56133974Y-120427032D01*
X55869726Y-120804418D01*
X55868705Y-120805809D01*
X55637072Y-121207010D01*
X55585117Y-121318427D01*
X55441453Y-121626516D01*
X55441450Y-121626523D01*
X55441450Y-121626524D01*
X55283146Y-122061463D01*
X55164123Y-122505668D01*
X55163858Y-122506551D01*
X55163356Y-122508531D01*
X55082985Y-122964337D01*
X55082609Y-122968643D01*
X55082608Y-122968655D01*
X55042646Y-123425413D01*
X50300500Y-123425413D01*
X50300500Y-105490796D01*
X51225131Y-105490796D01*
X51225131Y-105760464D01*
X51255314Y-106028333D01*
X51255316Y-106028348D01*
X51255319Y-106028366D01*
X51257427Y-106037599D01*
X51315315Y-106291225D01*
X51315315Y-106291226D01*
X51315314Y-106291226D01*
X51404104Y-106544968D01*
X51404329Y-106545627D01*
X51404362Y-106545708D01*
X51521328Y-106788591D01*
X51521347Y-106788629D01*
X51527171Y-106797897D01*
X51569973Y-106866015D01*
X51664793Y-107016920D01*
X51832897Y-107227716D01*
X52023546Y-107418365D01*
X52234342Y-107586469D01*
X52462634Y-107729915D01*
X52462636Y-107729916D01*
X52462648Y-107729922D01*
X52462679Y-107729937D01*
X52462689Y-107729942D01*
X52529967Y-107762341D01*
X52675187Y-107832275D01*
X52705552Y-107846898D01*
X52824350Y-107888467D01*
X52949910Y-107932402D01*
X52952157Y-107933189D01*
X52956530Y-107935145D01*
X52960029Y-107935943D01*
X52960036Y-107935946D01*
X52960039Y-107935946D01*
X52960040Y-107935947D01*
X53222899Y-107995943D01*
X53295146Y-108004083D01*
X53476935Y-108024567D01*
X53482998Y-108026131D01*
X53760440Y-108026131D01*
X53768261Y-108026131D01*
X53774318Y-108024567D01*
X53932033Y-108006796D01*
X54028363Y-107995943D01*
X54291222Y-107935947D01*
X54545710Y-107846898D01*
X54788628Y-107729915D01*
X55016920Y-107586469D01*
X55227716Y-107418365D01*
X55418365Y-107227716D01*
X55586469Y-107016920D01*
X55729915Y-106788628D01*
X55846898Y-106545710D01*
X55935947Y-106291222D01*
X55995943Y-106028363D01*
X56013011Y-105876882D01*
X56026130Y-105760456D01*
X56026131Y-105760439D01*
X56026131Y-105490822D01*
X56026130Y-105490805D01*
X56015557Y-105396973D01*
X56014745Y-105389770D01*
X59349500Y-105389770D01*
X59349500Y-105610228D01*
X59383983Y-105827945D01*
X59451047Y-106034354D01*
X59452122Y-106037664D01*
X59452548Y-106038520D01*
X59453983Y-106041483D01*
X59454726Y-106042752D01*
X59552178Y-106234011D01*
X59552182Y-106234018D01*
X59552183Y-106234019D01*
X59552185Y-106234022D01*
X59681758Y-106412365D01*
X59837635Y-106568242D01*
X60015978Y-106697815D01*
X60212394Y-106797895D01*
X60422049Y-106866015D01*
X60509140Y-106879809D01*
X60552685Y-106886706D01*
X60639773Y-106900500D01*
X60860225Y-106900500D01*
X60860228Y-106900500D01*
X60914655Y-106891878D01*
X60969086Y-106883257D01*
X61039941Y-106872034D01*
X61077947Y-106866016D01*
X61077947Y-106866015D01*
X61077951Y-106866015D01*
X61287606Y-106797895D01*
X61484022Y-106697815D01*
X61662365Y-106568242D01*
X61818242Y-106412365D01*
X61947815Y-106234022D01*
X62047895Y-106037606D01*
X62116015Y-105827951D01*
X62133257Y-105719086D01*
X62150500Y-105610225D01*
X62150500Y-105389771D01*
X62150500Y-105389770D01*
X65849500Y-105389770D01*
X65849500Y-105610228D01*
X65883983Y-105827945D01*
X65951047Y-106034354D01*
X65952122Y-106037664D01*
X65952548Y-106038520D01*
X65953983Y-106041483D01*
X65954726Y-106042752D01*
X66052178Y-106234011D01*
X66052182Y-106234018D01*
X66052183Y-106234019D01*
X66052185Y-106234022D01*
X66181758Y-106412365D01*
X66337635Y-106568242D01*
X66515978Y-106697815D01*
X66712394Y-106797895D01*
X66922049Y-106866015D01*
X67009140Y-106879809D01*
X67052685Y-106886706D01*
X67139773Y-106900500D01*
X67360225Y-106900500D01*
X67360228Y-106900500D01*
X67414655Y-106891878D01*
X67469086Y-106883257D01*
X67539941Y-106872034D01*
X67577947Y-106866016D01*
X67577947Y-106866015D01*
X67577951Y-106866015D01*
X67787606Y-106797895D01*
X67984022Y-106697815D01*
X68162365Y-106568242D01*
X68318242Y-106412365D01*
X68447815Y-106234022D01*
X68547895Y-106037606D01*
X68616015Y-105827951D01*
X68633257Y-105719086D01*
X68650500Y-105610225D01*
X68650500Y-105389771D01*
X68616015Y-105172052D01*
X68616015Y-105172050D01*
X68547897Y-104962400D01*
X68547896Y-104962399D01*
X68547895Y-104962394D01*
X68447815Y-104765978D01*
X68318242Y-104587635D01*
X68162365Y-104431758D01*
X68042340Y-104344555D01*
X67992460Y-104308315D01*
X67992453Y-104308310D01*
X67984022Y-104302185D01*
X67984021Y-104302184D01*
X67984019Y-104302183D01*
X67979197Y-104299726D01*
X67979194Y-104299724D01*
X67850872Y-104234341D01*
X67850872Y-104234340D01*
X67850870Y-104234340D01*
X67822064Y-104219662D01*
X67792751Y-104204726D01*
X67792751Y-104204725D01*
X67787600Y-104202102D01*
X67784368Y-104201051D01*
X67784359Y-104201049D01*
X67577945Y-104133983D01*
X67360228Y-104099500D01*
X67360225Y-104099500D01*
X67360222Y-104099500D01*
X67139778Y-104099500D01*
X67139775Y-104099500D01*
X67139772Y-104099500D01*
X66922053Y-104133983D01*
X66712401Y-104202101D01*
X66515980Y-104302182D01*
X66515976Y-104302185D01*
X66426805Y-104366971D01*
X66337640Y-104431753D01*
X66181753Y-104587640D01*
X66153969Y-104625881D01*
X66153970Y-104625882D01*
X66052181Y-104765981D01*
X65993079Y-104881978D01*
X65953307Y-104960036D01*
X65953300Y-104960049D01*
X65952104Y-104962395D01*
X65952100Y-104962403D01*
X65883983Y-105172053D01*
X65849500Y-105389770D01*
X62150500Y-105389770D01*
X62116015Y-105172052D01*
X62116015Y-105172050D01*
X62047897Y-104962400D01*
X62047896Y-104962399D01*
X62047895Y-104962394D01*
X61947815Y-104765978D01*
X61818242Y-104587635D01*
X61662365Y-104431758D01*
X61542340Y-104344555D01*
X61492460Y-104308315D01*
X61492453Y-104308310D01*
X61484022Y-104302185D01*
X61484021Y-104302184D01*
X61484019Y-104302183D01*
X61479197Y-104299726D01*
X61479194Y-104299724D01*
X61350872Y-104234341D01*
X61350872Y-104234340D01*
X61350870Y-104234340D01*
X61322064Y-104219662D01*
X61292751Y-104204726D01*
X61292751Y-104204725D01*
X61287600Y-104202102D01*
X61284368Y-104201051D01*
X61284359Y-104201049D01*
X61077945Y-104133983D01*
X60860228Y-104099500D01*
X60860225Y-104099500D01*
X60860222Y-104099500D01*
X60639778Y-104099500D01*
X60639775Y-104099500D01*
X60639772Y-104099500D01*
X60422053Y-104133983D01*
X60212401Y-104202101D01*
X60015980Y-104302182D01*
X60015976Y-104302185D01*
X59926805Y-104366971D01*
X59837640Y-104431753D01*
X59681753Y-104587640D01*
X59653969Y-104625881D01*
X59653970Y-104625882D01*
X59552181Y-104765981D01*
X59493079Y-104881978D01*
X59453307Y-104960036D01*
X59453300Y-104960049D01*
X59452104Y-104962395D01*
X59452100Y-104962403D01*
X59383983Y-105172053D01*
X59349500Y-105389770D01*
X56014745Y-105389770D01*
X56005473Y-105307487D01*
X55995943Y-105222899D01*
X55935947Y-104960040D01*
X55846898Y-104705552D01*
X55729915Y-104462634D01*
X55586469Y-104234342D01*
X55418365Y-104023546D01*
X55227716Y-103832897D01*
X55016920Y-103664793D01*
X54789757Y-103522056D01*
X54788954Y-103521536D01*
X54788635Y-103521351D01*
X54788628Y-103521347D01*
X54788625Y-103521345D01*
X54788613Y-103521339D01*
X54760151Y-103507632D01*
X54545708Y-103404362D01*
X54545627Y-103404329D01*
X54544968Y-103404104D01*
X54291226Y-103315315D01*
X54028366Y-103255319D01*
X54028348Y-103255316D01*
X54028333Y-103255314D01*
X53760464Y-103225131D01*
X53760456Y-103225131D01*
X53760440Y-103225131D01*
X53490822Y-103225131D01*
X53490805Y-103225131D01*
X53490796Y-103225131D01*
X53222927Y-103255314D01*
X53222912Y-103255316D01*
X53222894Y-103255319D01*
X52960034Y-103315315D01*
X52706292Y-103404104D01*
X52705638Y-103404327D01*
X52705552Y-103404362D01*
X52462684Y-103521321D01*
X52462631Y-103521347D01*
X52234340Y-103664793D01*
X52023548Y-103832895D01*
X51832895Y-104023548D01*
X51664793Y-104234340D01*
X51521347Y-104462631D01*
X51521321Y-104462684D01*
X51404362Y-104705552D01*
X51404327Y-104705638D01*
X51404104Y-104706292D01*
X51315315Y-104960034D01*
X51255319Y-105222894D01*
X51255316Y-105222912D01*
X51255314Y-105222927D01*
X51225131Y-105490796D01*
X50300500Y-105490796D01*
X50300500Y-97760432D01*
X55099500Y-97760432D01*
X55099500Y-102239566D01*
X55111994Y-102286191D01*
X55119978Y-102315988D01*
X55119980Y-102315992D01*
X55119981Y-102315993D01*
X55119981Y-102315995D01*
X55159533Y-102384500D01*
X55159535Y-102384504D01*
X55159538Y-102384508D01*
X55159540Y-102384511D01*
X55215489Y-102440460D01*
X55215491Y-102440461D01*
X55284007Y-102480019D01*
X55284011Y-102480021D01*
X55357283Y-102499654D01*
X55357829Y-102499884D01*
X55360436Y-102500500D01*
X56939563Y-102500500D01*
X56953293Y-102500500D01*
X56965185Y-102493633D01*
X57015989Y-102480021D01*
X57084511Y-102440460D01*
X57140460Y-102384511D01*
X57180021Y-102315989D01*
X57200500Y-102239562D01*
X57200500Y-98501456D01*
X57899500Y-98501456D01*
X57899500Y-99098543D01*
X57924356Y-99223501D01*
X57936047Y-99282271D01*
X57936047Y-99282275D01*
X57937948Y-99291837D01*
X58013364Y-99473909D01*
X58013366Y-99473911D01*
X58013367Y-99473913D01*
X58013368Y-99473914D01*
X58122861Y-99637782D01*
X58262218Y-99777139D01*
X58359914Y-99842417D01*
X58426079Y-99886628D01*
X58426082Y-99886629D01*
X58426086Y-99886632D01*
X58456038Y-99899038D01*
X58474486Y-99906680D01*
X58500884Y-99922856D01*
X58509203Y-99929962D01*
X58541174Y-99982129D01*
X58536375Y-100043126D01*
X58503103Y-100085334D01*
X58498447Y-100088717D01*
X58478140Y-100100090D01*
X58446086Y-100113367D01*
X58446077Y-100113371D01*
X58282220Y-100222858D01*
X58142858Y-100362220D01*
X58033365Y-100526087D01*
X58033365Y-100526088D01*
X57957950Y-100708158D01*
X57957950Y-100708159D01*
X57957949Y-100708161D01*
X57957949Y-100708163D01*
X57957949Y-100708165D01*
X57944357Y-100776497D01*
X57919500Y-100901455D01*
X57919500Y-101498543D01*
X57956047Y-101682271D01*
X57956047Y-101682275D01*
X57957948Y-101691837D01*
X58033365Y-101873910D01*
X58033366Y-101873912D01*
X58033367Y-101873913D01*
X58050464Y-101899500D01*
X58142861Y-102037782D01*
X58282218Y-102177139D01*
X58446086Y-102286632D01*
X58628165Y-102362051D01*
X58821459Y-102400500D01*
X58821460Y-102400500D01*
X59018540Y-102400500D01*
X59018541Y-102400500D01*
X59211835Y-102362051D01*
X59393914Y-102286632D01*
X59557782Y-102177139D01*
X59697139Y-102037782D01*
X59806632Y-101873914D01*
X59882051Y-101691835D01*
X59920500Y-101498541D01*
X59920500Y-100901459D01*
X59882051Y-100708165D01*
X59806632Y-100526086D01*
X59697139Y-100362218D01*
X59557782Y-100222861D01*
X59459621Y-100157272D01*
X59393912Y-100113366D01*
X59393908Y-100113365D01*
X59345516Y-100093319D01*
X59319111Y-100077139D01*
X59310796Y-100070038D01*
X59278824Y-100017871D01*
X59283622Y-99956874D01*
X59316890Y-99914668D01*
X59321550Y-99911282D01*
X59341846Y-99899914D01*
X59373914Y-99886632D01*
X59537782Y-99777139D01*
X59677139Y-99637782D01*
X59786632Y-99473914D01*
X59786633Y-99473911D01*
X59786634Y-99473911D01*
X59850837Y-99318907D01*
X59862051Y-99291835D01*
X59900500Y-99098541D01*
X59900500Y-98501503D01*
X63000000Y-98501503D01*
X63000000Y-98501506D01*
X63000000Y-98674999D01*
X63000001Y-98675000D01*
X63401000Y-98675000D01*
X63459191Y-98693907D01*
X63495155Y-98743407D01*
X63500000Y-98774000D01*
X63500000Y-98826000D01*
X63481093Y-98884191D01*
X63431593Y-98920155D01*
X63401000Y-98925000D01*
X63000001Y-98925000D01*
X63000000Y-98925001D01*
X63000000Y-98925002D01*
X63000000Y-99098495D01*
X63036527Y-99282126D01*
X63036527Y-99282129D01*
X63038428Y-99291689D01*
X63113811Y-99473680D01*
X63113812Y-99473682D01*
X63113814Y-99473685D01*
X63223249Y-99637462D01*
X63223252Y-99637466D01*
X63362533Y-99776747D01*
X63362537Y-99776750D01*
X63526314Y-99886185D01*
X63526323Y-99886189D01*
X63559440Y-99899907D01*
X63565789Y-99902537D01*
X63592192Y-99918717D01*
X63593463Y-99919803D01*
X63600507Y-99925819D01*
X63632479Y-99977985D01*
X63627681Y-100038982D01*
X63594408Y-100081192D01*
X63589752Y-100084575D01*
X63569444Y-100095948D01*
X63526320Y-100113810D01*
X63526315Y-100113812D01*
X63362549Y-100223240D01*
X63362535Y-100223250D01*
X63223250Y-100362535D01*
X63113811Y-100526318D01*
X63038430Y-100708305D01*
X63038429Y-100708311D01*
X63000000Y-100901503D01*
X63000000Y-100901506D01*
X63000000Y-101074999D01*
X63000001Y-101075000D01*
X63401000Y-101075000D01*
X63459191Y-101093907D01*
X63495155Y-101143407D01*
X63500000Y-101174000D01*
X63500000Y-101226000D01*
X63481093Y-101284191D01*
X63431593Y-101320155D01*
X63401000Y-101325000D01*
X63000001Y-101325000D01*
X63000000Y-101325001D01*
X63000000Y-101325002D01*
X63000000Y-101498495D01*
X63036527Y-101682126D01*
X63036527Y-101682129D01*
X63038428Y-101691689D01*
X63113811Y-101873680D01*
X63113812Y-101873682D01*
X63113814Y-101873685D01*
X63223249Y-102037462D01*
X63223252Y-102037466D01*
X63362533Y-102176747D01*
X63362537Y-102176750D01*
X63526314Y-102286185D01*
X63526318Y-102286187D01*
X63526323Y-102286190D01*
X63708294Y-102361564D01*
X63708295Y-102361564D01*
X63708309Y-102361570D01*
X63708312Y-102361571D01*
X63874999Y-102394726D01*
X63875000Y-102394726D01*
X63875000Y-102394725D01*
X63875000Y-101799000D01*
X63893907Y-101740809D01*
X63943407Y-101704845D01*
X63974000Y-101700000D01*
X64026000Y-101700000D01*
X64084191Y-101718907D01*
X64120155Y-101768407D01*
X64125000Y-101799000D01*
X64125000Y-102394725D01*
X64125000Y-102394726D01*
X64291687Y-102361571D01*
X64291690Y-102361570D01*
X64473673Y-102286191D01*
X64473685Y-102286185D01*
X64637462Y-102176750D01*
X64637466Y-102176747D01*
X64776747Y-102037466D01*
X64776750Y-102037462D01*
X64886185Y-101873685D01*
X64886191Y-101873673D01*
X64961570Y-101691690D01*
X64961570Y-101691688D01*
X64963071Y-101684144D01*
X64963472Y-101682129D01*
X64963472Y-101682127D01*
X64975208Y-101623123D01*
X64998789Y-101504574D01*
X64999364Y-101502404D01*
X65000000Y-101498491D01*
X65000000Y-101325002D01*
X65000000Y-101325001D01*
X64999999Y-101325000D01*
X64999998Y-101325000D01*
X64599000Y-101325000D01*
X64540809Y-101306093D01*
X64504845Y-101256593D01*
X64500000Y-101226000D01*
X64500000Y-101174000D01*
X64518907Y-101115809D01*
X64568407Y-101079845D01*
X64599000Y-101075000D01*
X64999998Y-101075000D01*
X64999999Y-101075000D01*
X65000000Y-101074999D01*
X65000000Y-100901509D01*
X65000000Y-100901507D01*
X64999364Y-100897594D01*
X64998789Y-100895424D01*
X64961570Y-100708311D01*
X64961570Y-100708309D01*
X64961569Y-100708307D01*
X64961569Y-100708305D01*
X64917122Y-100601000D01*
X64886191Y-100526326D01*
X64886185Y-100526314D01*
X64776750Y-100362537D01*
X64776747Y-100362533D01*
X64637466Y-100223252D01*
X64637462Y-100223249D01*
X64473685Y-100113814D01*
X64473673Y-100113808D01*
X64473667Y-100113805D01*
X64434210Y-100097461D01*
X64407802Y-100081278D01*
X64399489Y-100074178D01*
X64367519Y-100022009D01*
X64372320Y-99961012D01*
X64405591Y-99918807D01*
X64410247Y-99915424D01*
X64430553Y-99904051D01*
X64473673Y-99886191D01*
X64473685Y-99886185D01*
X64637462Y-99776750D01*
X64637466Y-99776747D01*
X64776747Y-99637466D01*
X64776750Y-99637462D01*
X64886185Y-99473685D01*
X64886191Y-99473673D01*
X64961570Y-99291690D01*
X64961570Y-99291688D01*
X64963071Y-99284144D01*
X64963472Y-99282129D01*
X64963472Y-99282127D01*
X64975134Y-99223498D01*
X64998789Y-99104574D01*
X64999364Y-99102404D01*
X65000000Y-99098491D01*
X65000000Y-98925002D01*
X65000000Y-98925001D01*
X64999999Y-98925000D01*
X64999998Y-98925000D01*
X64599000Y-98925000D01*
X64540809Y-98906093D01*
X64504845Y-98856593D01*
X64500000Y-98826000D01*
X64500000Y-98774000D01*
X64518907Y-98715809D01*
X64568407Y-98679845D01*
X64599000Y-98675000D01*
X64999998Y-98675000D01*
X64999999Y-98675000D01*
X65000000Y-98674999D01*
X65000000Y-98501509D01*
X64999999Y-98501506D01*
X64999989Y-98501456D01*
X68079500Y-98501456D01*
X68079500Y-99098543D01*
X68104356Y-99223501D01*
X68116047Y-99282271D01*
X68116047Y-99282275D01*
X68117948Y-99291837D01*
X68193364Y-99473909D01*
X68193366Y-99473911D01*
X68193367Y-99473913D01*
X68193368Y-99473914D01*
X68302861Y-99637782D01*
X68442218Y-99777139D01*
X68539914Y-99842417D01*
X68606079Y-99886628D01*
X68606082Y-99886629D01*
X68606086Y-99886632D01*
X68636038Y-99899038D01*
X68654486Y-99906680D01*
X68680884Y-99922856D01*
X68689203Y-99929962D01*
X68721174Y-99982129D01*
X68716375Y-100043126D01*
X68683103Y-100085334D01*
X68678447Y-100088717D01*
X68658140Y-100100090D01*
X68626086Y-100113367D01*
X68626077Y-100113371D01*
X68462220Y-100222858D01*
X68322858Y-100362220D01*
X68213365Y-100526087D01*
X68213365Y-100526088D01*
X68137950Y-100708158D01*
X68137950Y-100708159D01*
X68137949Y-100708161D01*
X68137949Y-100708163D01*
X68137949Y-100708165D01*
X68124357Y-100776497D01*
X68099500Y-100901455D01*
X68099500Y-101498543D01*
X68136047Y-101682271D01*
X68136047Y-101682275D01*
X68137948Y-101691837D01*
X68213365Y-101873910D01*
X68213366Y-101873912D01*
X68213367Y-101873913D01*
X68230464Y-101899500D01*
X68322861Y-102037782D01*
X68462218Y-102177139D01*
X68626086Y-102286632D01*
X68808165Y-102362051D01*
X69001459Y-102400500D01*
X69001460Y-102400500D01*
X69198540Y-102400500D01*
X69198541Y-102400500D01*
X69391835Y-102362051D01*
X69573914Y-102286632D01*
X69737782Y-102177139D01*
X69877139Y-102037782D01*
X69986632Y-101873914D01*
X70062051Y-101691835D01*
X70100500Y-101498541D01*
X70100500Y-100901459D01*
X70062051Y-100708165D01*
X69986632Y-100526086D01*
X69877139Y-100362218D01*
X69737782Y-100222861D01*
X69639621Y-100157272D01*
X69573912Y-100113366D01*
X69573908Y-100113365D01*
X69525516Y-100093319D01*
X69499111Y-100077139D01*
X69490796Y-100070038D01*
X69458824Y-100017871D01*
X69463622Y-99956874D01*
X69496890Y-99914668D01*
X69501550Y-99911282D01*
X69521846Y-99899914D01*
X69553914Y-99886632D01*
X69717782Y-99777139D01*
X69857139Y-99637782D01*
X69966632Y-99473914D01*
X69966633Y-99473911D01*
X69966634Y-99473911D01*
X70030837Y-99318907D01*
X70042051Y-99291835D01*
X70080500Y-99098541D01*
X70080500Y-98501459D01*
X70042051Y-98308165D01*
X69966632Y-98126086D01*
X69857139Y-97962218D01*
X69717782Y-97822861D01*
X69624350Y-97760432D01*
X73949500Y-97760432D01*
X73949500Y-102239566D01*
X73961994Y-102286191D01*
X73969978Y-102315988D01*
X73969980Y-102315992D01*
X73969981Y-102315993D01*
X73969981Y-102315995D01*
X74009533Y-102384500D01*
X74009535Y-102384504D01*
X74009538Y-102384508D01*
X74009540Y-102384511D01*
X74065489Y-102440460D01*
X74065491Y-102440461D01*
X74134007Y-102480019D01*
X74134011Y-102480021D01*
X74207283Y-102499654D01*
X74207829Y-102499884D01*
X74210436Y-102500500D01*
X75789563Y-102500500D01*
X75803293Y-102500500D01*
X75815185Y-102493633D01*
X75865989Y-102480021D01*
X75934511Y-102440460D01*
X75990460Y-102384511D01*
X76030021Y-102315989D01*
X76050500Y-102239562D01*
X76050500Y-98260432D01*
X77937000Y-98260432D01*
X77937000Y-101739566D01*
X77952926Y-101799000D01*
X77957478Y-101815988D01*
X77957480Y-101815992D01*
X77990921Y-101873913D01*
X77990922Y-101873914D01*
X77990921Y-101873914D01*
X77997040Y-101884512D01*
X78052227Y-101939698D01*
X78052989Y-101940460D01*
X78052991Y-101940461D01*
X78121507Y-101980019D01*
X78121511Y-101980021D01*
X78194783Y-101999654D01*
X78195329Y-101999884D01*
X78197936Y-102000500D01*
X81277063Y-102000500D01*
X81290793Y-102000500D01*
X81302685Y-101993633D01*
X81353489Y-101980021D01*
X81422011Y-101940460D01*
X81477960Y-101884511D01*
X81517521Y-101815989D01*
X81538000Y-101739562D01*
X81538000Y-98260438D01*
X81517521Y-98184011D01*
X81515531Y-98180565D01*
X81510099Y-98171155D01*
X81510099Y-98171154D01*
X81479439Y-98118050D01*
X81478359Y-98116044D01*
X81477961Y-98115491D01*
X81477960Y-98115489D01*
X81422011Y-98059540D01*
X81422008Y-98059538D01*
X81422004Y-98059535D01*
X81422000Y-98059533D01*
X81353494Y-98019981D01*
X81353493Y-98019980D01*
X81353492Y-98019980D01*
X81353488Y-98019978D01*
X81337329Y-98015648D01*
X81277066Y-97999500D01*
X81277064Y-97999500D01*
X81277062Y-97999500D01*
X78277062Y-97999500D01*
X78197938Y-97999500D01*
X78197935Y-97999500D01*
X78197932Y-97999500D01*
X78121518Y-98019976D01*
X78121511Y-98019978D01*
X78121507Y-98019980D01*
X78103149Y-98030579D01*
X78052992Y-98059537D01*
X77997037Y-98115492D01*
X77968079Y-98165649D01*
X77957480Y-98184007D01*
X77957479Y-98184010D01*
X77957476Y-98184018D01*
X77937000Y-98260432D01*
X76050500Y-98260432D01*
X76050500Y-97760438D01*
X76030021Y-97684011D01*
X75990460Y-97615489D01*
X75934511Y-97559540D01*
X75934508Y-97559538D01*
X75934504Y-97559535D01*
X75934500Y-97559533D01*
X75865994Y-97519981D01*
X75865993Y-97519980D01*
X75865992Y-97519980D01*
X75865988Y-97519978D01*
X75849829Y-97515648D01*
X75789566Y-97499500D01*
X75789564Y-97499500D01*
X75789562Y-97499500D01*
X74289562Y-97499500D01*
X74210438Y-97499500D01*
X74210435Y-97499500D01*
X74210432Y-97499500D01*
X74134018Y-97519976D01*
X74134011Y-97519978D01*
X74134007Y-97519980D01*
X74115649Y-97530579D01*
X74065492Y-97559537D01*
X74009537Y-97615492D01*
X73969979Y-97684009D01*
X73969976Y-97684018D01*
X73949500Y-97760432D01*
X69624350Y-97760432D01*
X69593333Y-97739707D01*
X69553913Y-97713367D01*
X69553910Y-97713365D01*
X69553909Y-97713365D01*
X69371836Y-97637949D01*
X69371835Y-97637949D01*
X69307404Y-97625132D01*
X69178545Y-97599500D01*
X69178543Y-97599500D01*
X69178541Y-97599500D01*
X68981459Y-97599500D01*
X68981456Y-97599500D01*
X68981455Y-97599500D01*
X68901076Y-97615489D01*
X68797727Y-97636047D01*
X68797720Y-97636047D01*
X68788161Y-97637948D01*
X68606088Y-97713365D01*
X68606087Y-97713365D01*
X68442220Y-97822858D01*
X68302858Y-97962220D01*
X68193365Y-98126087D01*
X68193365Y-98126088D01*
X68117950Y-98308158D01*
X68117950Y-98308159D01*
X68117949Y-98308161D01*
X68117949Y-98308163D01*
X68117949Y-98308165D01*
X68079500Y-98501456D01*
X64999989Y-98501456D01*
X64961570Y-98308311D01*
X64961570Y-98308309D01*
X64961569Y-98308307D01*
X64961569Y-98308305D01*
X64917122Y-98201000D01*
X64886191Y-98126326D01*
X64886185Y-98126314D01*
X64776750Y-97962537D01*
X64776747Y-97962533D01*
X64637466Y-97823252D01*
X64637462Y-97823249D01*
X64473685Y-97713814D01*
X64473682Y-97713812D01*
X64473680Y-97713811D01*
X64473675Y-97713808D01*
X64291690Y-97638429D01*
X64291689Y-97638429D01*
X64125000Y-97605272D01*
X64125000Y-98201000D01*
X64106093Y-98259191D01*
X64056593Y-98295155D01*
X64026000Y-98300000D01*
X63974000Y-98300000D01*
X63915809Y-98281093D01*
X63879845Y-98231593D01*
X63875000Y-98201000D01*
X63875000Y-97605271D01*
X63717873Y-97636527D01*
X63717867Y-97636527D01*
X63708309Y-97638428D01*
X63526318Y-97713811D01*
X63362535Y-97823250D01*
X63223250Y-97962535D01*
X63113811Y-98126318D01*
X63038430Y-98308305D01*
X63038429Y-98308311D01*
X63000000Y-98501503D01*
X59900500Y-98501503D01*
X59900500Y-98501459D01*
X59862051Y-98308165D01*
X59786632Y-98126086D01*
X59677139Y-97962218D01*
X59537782Y-97822861D01*
X59413333Y-97739707D01*
X59373913Y-97713367D01*
X59373910Y-97713365D01*
X59373909Y-97713365D01*
X59191836Y-97637949D01*
X59191835Y-97637949D01*
X59127404Y-97625132D01*
X58998545Y-97599500D01*
X58998543Y-97599500D01*
X58998541Y-97599500D01*
X58801459Y-97599500D01*
X58801456Y-97599500D01*
X58801455Y-97599500D01*
X58721076Y-97615489D01*
X58617727Y-97636047D01*
X58617720Y-97636047D01*
X58608161Y-97637948D01*
X58426088Y-97713365D01*
X58426087Y-97713365D01*
X58262220Y-97822858D01*
X58122858Y-97962220D01*
X58013365Y-98126087D01*
X58013365Y-98126088D01*
X57937950Y-98308158D01*
X57937950Y-98308159D01*
X57937949Y-98308161D01*
X57937949Y-98308163D01*
X57937949Y-98308165D01*
X57899500Y-98501456D01*
X57200500Y-98501456D01*
X57200500Y-97760438D01*
X57180021Y-97684011D01*
X57140460Y-97615489D01*
X57084511Y-97559540D01*
X57084508Y-97559538D01*
X57084504Y-97559535D01*
X57084500Y-97559533D01*
X57015994Y-97519981D01*
X57015993Y-97519980D01*
X57015992Y-97519980D01*
X57015988Y-97519978D01*
X56999829Y-97515648D01*
X56939566Y-97499500D01*
X56939564Y-97499500D01*
X56939562Y-97499500D01*
X55439562Y-97499500D01*
X55360438Y-97499500D01*
X55360435Y-97499500D01*
X55360432Y-97499500D01*
X55284018Y-97519976D01*
X55284011Y-97519978D01*
X55284007Y-97519980D01*
X55265649Y-97530579D01*
X55215492Y-97559537D01*
X55159537Y-97615492D01*
X55119979Y-97684009D01*
X55119976Y-97684018D01*
X55099500Y-97760432D01*
X50300500Y-97760432D01*
X50300500Y-94239534D01*
X51225130Y-94239534D01*
X51225130Y-94509202D01*
X51255313Y-94777071D01*
X51255315Y-94777086D01*
X51255318Y-94777104D01*
X51314985Y-95038520D01*
X51315314Y-95039963D01*
X51315314Y-95039964D01*
X51315313Y-95039964D01*
X51404103Y-95293706D01*
X51404328Y-95294365D01*
X51404361Y-95294446D01*
X51521336Y-95537349D01*
X51521342Y-95537361D01*
X51521344Y-95537364D01*
X51664792Y-95765659D01*
X51832896Y-95976455D01*
X52023545Y-96167104D01*
X52234341Y-96335208D01*
X52348487Y-96406931D01*
X52462636Y-96478656D01*
X52545298Y-96518463D01*
X52689428Y-96587872D01*
X52705552Y-96595637D01*
X52824350Y-96637206D01*
X52950582Y-96681376D01*
X52952157Y-96681928D01*
X52956530Y-96683884D01*
X52960029Y-96684682D01*
X52960036Y-96684685D01*
X52960039Y-96684685D01*
X52960040Y-96684686D01*
X53222899Y-96744682D01*
X53295146Y-96752822D01*
X53476935Y-96773306D01*
X53482998Y-96774870D01*
X53760440Y-96774870D01*
X53768261Y-96774870D01*
X53774318Y-96773306D01*
X53932033Y-96755535D01*
X54028363Y-96744682D01*
X54291222Y-96684686D01*
X54545710Y-96595637D01*
X54788628Y-96478654D01*
X55016921Y-96335208D01*
X55227717Y-96167104D01*
X55418366Y-95976455D01*
X55586470Y-95765659D01*
X55729916Y-95537366D01*
X55846899Y-95294448D01*
X55935948Y-95039960D01*
X55995944Y-94777101D01*
X56014747Y-94610222D01*
X56026131Y-94509194D01*
X56026132Y-94509177D01*
X56026132Y-94389770D01*
X59349500Y-94389770D01*
X59349500Y-94610228D01*
X59383983Y-94827945D01*
X59451047Y-95034354D01*
X59452122Y-95037664D01*
X59452548Y-95038520D01*
X59453983Y-95041483D01*
X59454726Y-95042752D01*
X59552178Y-95234011D01*
X59552182Y-95234018D01*
X59552183Y-95234019D01*
X59552185Y-95234022D01*
X59681758Y-95412365D01*
X59837635Y-95568242D01*
X60015978Y-95697815D01*
X60212394Y-95797895D01*
X60422049Y-95866015D01*
X60509140Y-95879809D01*
X60552685Y-95886706D01*
X60639773Y-95900500D01*
X60860225Y-95900500D01*
X60860228Y-95900500D01*
X60914655Y-95891878D01*
X60969086Y-95883257D01*
X61039941Y-95872034D01*
X61077947Y-95866016D01*
X61077947Y-95866015D01*
X61077951Y-95866015D01*
X61287606Y-95797895D01*
X61484022Y-95697815D01*
X61662365Y-95568242D01*
X61818242Y-95412365D01*
X61947815Y-95234022D01*
X62047895Y-95037606D01*
X62116015Y-94827951D01*
X62150500Y-94610222D01*
X62150500Y-94389778D01*
X62150500Y-94389774D01*
X62150499Y-94389770D01*
X65849500Y-94389770D01*
X65849500Y-94610228D01*
X65883983Y-94827945D01*
X65951047Y-95034354D01*
X65952122Y-95037664D01*
X65952548Y-95038520D01*
X65953983Y-95041483D01*
X65954726Y-95042752D01*
X66052178Y-95234011D01*
X66052182Y-95234018D01*
X66052183Y-95234019D01*
X66052185Y-95234022D01*
X66181758Y-95412365D01*
X66337635Y-95568242D01*
X66515978Y-95697815D01*
X66712394Y-95797895D01*
X66922049Y-95866015D01*
X67009140Y-95879809D01*
X67052685Y-95886706D01*
X67139773Y-95900500D01*
X67360225Y-95900500D01*
X67360228Y-95900500D01*
X67414655Y-95891878D01*
X67469086Y-95883257D01*
X67539941Y-95872034D01*
X67577947Y-95866016D01*
X67577947Y-95866015D01*
X67577951Y-95866015D01*
X67787606Y-95797895D01*
X67984022Y-95697815D01*
X68162365Y-95568242D01*
X68318242Y-95412365D01*
X68447815Y-95234022D01*
X68547895Y-95037606D01*
X68616015Y-94827951D01*
X68650500Y-94610222D01*
X68650500Y-94389778D01*
X68650500Y-94389774D01*
X68650499Y-94389770D01*
X68616015Y-94172052D01*
X68616015Y-94172050D01*
X68547897Y-93962400D01*
X68547896Y-93962399D01*
X68547895Y-93962394D01*
X68447815Y-93765978D01*
X68318242Y-93587635D01*
X68162365Y-93431758D01*
X68040728Y-93343384D01*
X67992493Y-93308339D01*
X67992486Y-93308334D01*
X67984022Y-93302185D01*
X67984021Y-93302184D01*
X67984019Y-93302183D01*
X67940419Y-93279967D01*
X67894825Y-93256735D01*
X67894825Y-93256736D01*
X67792752Y-93204727D01*
X67791473Y-93203978D01*
X67788528Y-93202552D01*
X67788513Y-93202545D01*
X67787615Y-93202110D01*
X67787606Y-93202105D01*
X67787604Y-93202104D01*
X67787226Y-93201921D01*
X67786438Y-93201646D01*
X67784359Y-93201049D01*
X67577945Y-93133983D01*
X67360228Y-93099500D01*
X67360225Y-93099500D01*
X67360222Y-93099500D01*
X67139778Y-93099500D01*
X67139775Y-93099500D01*
X67139772Y-93099500D01*
X66922053Y-93133983D01*
X66712401Y-93202101D01*
X66515980Y-93302182D01*
X66515978Y-93302184D01*
X66426805Y-93366971D01*
X66337640Y-93431753D01*
X66181753Y-93587640D01*
X66116970Y-93676804D01*
X66116971Y-93676805D01*
X66052185Y-93765976D01*
X66052182Y-93765980D01*
X65952101Y-93962401D01*
X65883983Y-94172053D01*
X65849500Y-94389770D01*
X62150499Y-94389770D01*
X62116015Y-94172052D01*
X62116015Y-94172050D01*
X62047897Y-93962400D01*
X62047896Y-93962399D01*
X62047895Y-93962394D01*
X61947815Y-93765978D01*
X61818242Y-93587635D01*
X61662365Y-93431758D01*
X61540728Y-93343384D01*
X61492493Y-93308339D01*
X61492486Y-93308334D01*
X61484022Y-93302185D01*
X61484021Y-93302184D01*
X61484019Y-93302183D01*
X61440419Y-93279967D01*
X61394825Y-93256735D01*
X61394825Y-93256736D01*
X61292752Y-93204727D01*
X61291473Y-93203978D01*
X61288528Y-93202552D01*
X61288513Y-93202545D01*
X61287615Y-93202110D01*
X61287606Y-93202105D01*
X61287604Y-93202104D01*
X61287226Y-93201921D01*
X61286438Y-93201646D01*
X61284359Y-93201049D01*
X61077945Y-93133983D01*
X60860228Y-93099500D01*
X60860225Y-93099500D01*
X60860222Y-93099500D01*
X60639778Y-93099500D01*
X60639775Y-93099500D01*
X60639772Y-93099500D01*
X60422053Y-93133983D01*
X60212401Y-93202101D01*
X60015980Y-93302182D01*
X60015978Y-93302184D01*
X59926805Y-93366971D01*
X59837640Y-93431753D01*
X59681753Y-93587640D01*
X59616970Y-93676804D01*
X59616971Y-93676805D01*
X59552185Y-93765976D01*
X59552182Y-93765980D01*
X59452101Y-93962401D01*
X59383983Y-94172053D01*
X59349500Y-94389770D01*
X56026132Y-94389770D01*
X56026132Y-94239560D01*
X56026131Y-94239543D01*
X56004084Y-94043884D01*
X55995944Y-93971637D01*
X55935948Y-93708778D01*
X55846899Y-93454290D01*
X55836046Y-93431753D01*
X55773649Y-93302184D01*
X55729918Y-93211374D01*
X55586468Y-92983077D01*
X55502783Y-92878139D01*
X55418366Y-92772283D01*
X55227717Y-92581634D01*
X55016921Y-92413530D01*
X54788626Y-92270082D01*
X54788623Y-92270080D01*
X54788611Y-92270074D01*
X54545708Y-92153099D01*
X54545627Y-92153066D01*
X54544968Y-92152841D01*
X54291226Y-92064052D01*
X54028366Y-92004056D01*
X54028348Y-92004053D01*
X54028333Y-92004051D01*
X53760464Y-91973868D01*
X53760456Y-91973868D01*
X53760440Y-91973868D01*
X53490822Y-91973868D01*
X53490805Y-91973868D01*
X53490796Y-91973868D01*
X53222927Y-92004051D01*
X53222912Y-92004053D01*
X53222894Y-92004056D01*
X52960034Y-92064052D01*
X52706292Y-92152841D01*
X52705638Y-92153064D01*
X52705552Y-92153099D01*
X52462649Y-92270074D01*
X52462637Y-92270080D01*
X52234339Y-92413530D01*
X52023547Y-92581632D01*
X51832894Y-92772285D01*
X51664792Y-92983077D01*
X51521342Y-93211375D01*
X51521336Y-93211387D01*
X51404361Y-93454290D01*
X51404326Y-93454376D01*
X51404103Y-93455030D01*
X51315314Y-93708772D01*
X51255318Y-93971632D01*
X51255315Y-93971650D01*
X51255313Y-93971665D01*
X51225130Y-94239534D01*
X50300500Y-94239534D01*
X50300500Y-84241204D01*
X85082042Y-84241204D01*
X85082042Y-84542775D01*
X85120556Y-84835317D01*
X85120556Y-84835322D01*
X85121402Y-84841753D01*
X85121403Y-84841756D01*
X85192559Y-85107314D01*
X85199457Y-85133055D01*
X85199458Y-85133058D01*
X85314852Y-85411645D01*
X85314866Y-85411672D01*
X85463864Y-85669743D01*
X85465246Y-85672138D01*
X85465645Y-85672828D01*
X85566281Y-85803980D01*
X85649217Y-85912064D01*
X85649219Y-85912066D01*
X85649223Y-85912071D01*
X85862462Y-86125310D01*
X85862466Y-86125313D01*
X85862468Y-86125315D01*
X85862473Y-86125319D01*
X85862503Y-86125345D01*
X85862871Y-86125624D01*
X85904117Y-86157273D01*
X86101710Y-86308891D01*
X86362874Y-86459674D01*
X86641484Y-86575078D01*
X86932774Y-86653129D01*
X87231759Y-86692491D01*
X87231760Y-86692491D01*
X87533324Y-86692491D01*
X87533325Y-86692491D01*
X87832310Y-86653129D01*
X88123600Y-86575078D01*
X88402210Y-86459674D01*
X88663374Y-86308891D01*
X88902622Y-86125310D01*
X89115861Y-85912071D01*
X89299442Y-85672823D01*
X89450225Y-85411659D01*
X89565629Y-85133049D01*
X89643680Y-84841759D01*
X89683042Y-84542774D01*
X89683042Y-84241208D01*
X89643680Y-83942223D01*
X89565629Y-83650933D01*
X89469079Y-83417842D01*
X89450228Y-83372330D01*
X89450227Y-83372329D01*
X89450225Y-83372323D01*
X89299442Y-83111159D01*
X89299439Y-83111155D01*
X89115866Y-82871917D01*
X89115864Y-82871915D01*
X89115861Y-82871911D01*
X88902622Y-82658672D01*
X88902617Y-82658668D01*
X88902615Y-82658666D01*
X88663377Y-82475093D01*
X88663374Y-82475091D01*
X88402210Y-82324308D01*
X88402206Y-82324306D01*
X88402202Y-82324304D01*
X88402196Y-82324301D01*
X88131412Y-82212139D01*
X88131398Y-82212134D01*
X88123605Y-82208906D01*
X88123604Y-82208905D01*
X88123600Y-82208904D01*
X87835174Y-82131620D01*
X87832975Y-82130960D01*
X87827915Y-82130139D01*
X87825871Y-82130005D01*
X87533327Y-82091491D01*
X87533326Y-82091491D01*
X87533325Y-82091491D01*
X87231759Y-82091491D01*
X87231757Y-82091491D01*
X87231756Y-82091491D01*
X86939215Y-82130005D01*
X86939205Y-82130005D01*
X86932778Y-82130851D01*
X86641476Y-82208906D01*
X86641473Y-82208907D01*
X86362885Y-82324301D01*
X86101702Y-82475095D01*
X85862471Y-82658663D01*
X85649214Y-82871920D01*
X85465646Y-83111151D01*
X85314852Y-83372334D01*
X85199458Y-83650922D01*
X85199457Y-83650925D01*
X85121402Y-83942227D01*
X85120556Y-83948659D01*
X85120556Y-83948663D01*
X85082042Y-84241204D01*
X50300500Y-84241204D01*
X50300500Y-76111705D01*
X55042646Y-76111705D01*
X55042646Y-76574585D01*
X55082608Y-77031343D01*
X55082609Y-77031356D01*
X55082985Y-77035661D01*
X55163356Y-77491467D01*
X55163858Y-77493447D01*
X55164123Y-77494330D01*
X55283146Y-77938535D01*
X55283148Y-77938541D01*
X55283149Y-77938544D01*
X55441453Y-78373483D01*
X55637066Y-78792976D01*
X55637072Y-78792988D01*
X55868700Y-79194180D01*
X55869708Y-79195555D01*
X55875634Y-79204017D01*
X55875634Y-79204018D01*
X55875636Y-79204020D01*
X56133974Y-79572967D01*
X56133977Y-79572970D01*
X56133981Y-79572975D01*
X56431468Y-79927507D01*
X56431474Y-79927513D01*
X56431478Y-79927517D01*
X56431484Y-79927524D01*
X56758768Y-80254808D01*
X56758774Y-80254813D01*
X56758776Y-80254815D01*
X57113315Y-80552309D01*
X57113320Y-80552313D01*
X57113324Y-80552316D01*
X57113340Y-80552328D01*
X57239285Y-80640515D01*
X57492464Y-80817793D01*
X57492470Y-80817797D01*
X57492476Y-80817801D01*
X57893316Y-81049226D01*
X58312800Y-81244835D01*
X58312807Y-81244837D01*
X58312808Y-81244838D01*
X58673082Y-81375967D01*
X58687046Y-81386877D01*
X58747733Y-81403138D01*
X58747736Y-81403139D01*
X58747747Y-81403142D01*
X58747746Y-81403142D01*
X58875191Y-81437290D01*
X59194815Y-81522933D01*
X59650633Y-81603306D01*
X59753097Y-81612270D01*
X60111706Y-81643646D01*
X60574578Y-81643646D01*
X60574586Y-81643646D01*
X60728270Y-81630199D01*
X60843539Y-81620114D01*
X61035659Y-81603306D01*
X61491477Y-81522933D01*
X61938556Y-81403139D01*
X62373492Y-81244835D01*
X62792976Y-81049226D01*
X63193816Y-80817801D01*
X63572960Y-80552322D01*
X63927524Y-80254808D01*
X64254808Y-79927524D01*
X64552322Y-79572960D01*
X64817801Y-79193816D01*
X65049226Y-78792976D01*
X65244835Y-78373492D01*
X65403139Y-77938556D01*
X65522933Y-77491477D01*
X65603306Y-77035659D01*
X65620114Y-76843539D01*
X65643646Y-76574586D01*
X65643646Y-76111704D01*
X65608265Y-75707314D01*
X65608265Y-75707313D01*
X65603682Y-75654935D01*
X65603306Y-75650633D01*
X65522933Y-75194815D01*
X65403139Y-74747736D01*
X65257630Y-74347953D01*
X65246033Y-74316093D01*
X65245833Y-74315474D01*
X65244981Y-74313194D01*
X65244690Y-74312405D01*
X65243878Y-74310175D01*
X65242098Y-74306930D01*
X65191726Y-74198907D01*
X65049226Y-73893316D01*
X64980315Y-73773959D01*
X64980314Y-73773958D01*
X64980314Y-73773955D01*
X64819287Y-73495050D01*
X64819285Y-73495047D01*
X64817585Y-73492102D01*
X64816575Y-73490725D01*
X64655383Y-73260518D01*
X64637541Y-73235037D01*
X64552328Y-73113340D01*
X64552316Y-73113324D01*
X64552313Y-73113320D01*
X64552309Y-73113315D01*
X64264089Y-72769827D01*
X64264089Y-72769826D01*
X64262704Y-72768176D01*
X64262701Y-72768174D01*
X64254814Y-72758775D01*
X64254813Y-72758774D01*
X64254808Y-72758768D01*
X64207092Y-72711052D01*
X85130000Y-72711052D01*
X85130000Y-72711055D01*
X85130000Y-73204999D01*
X85130001Y-73205000D01*
X85431000Y-73205000D01*
X85489191Y-73223907D01*
X85525155Y-73273407D01*
X85530000Y-73304000D01*
X85530000Y-73356000D01*
X85511093Y-73414191D01*
X85461593Y-73450155D01*
X85431000Y-73455000D01*
X85130001Y-73455000D01*
X85130000Y-73455001D01*
X85130000Y-73455002D01*
X85130000Y-73948946D01*
X85156901Y-74084182D01*
X85156901Y-74084184D01*
X85209663Y-74211565D01*
X85209668Y-74211575D01*
X85279505Y-74316094D01*
X85286271Y-74326220D01*
X85383779Y-74423728D01*
X85383782Y-74423730D01*
X85498423Y-74500330D01*
X85498425Y-74500331D01*
X85498428Y-74500333D01*
X85625816Y-74553098D01*
X85625819Y-74553099D01*
X85704999Y-74568848D01*
X85705000Y-74568848D01*
X85705000Y-74568847D01*
X85705000Y-74279000D01*
X85723907Y-74220809D01*
X85773407Y-74184845D01*
X85804000Y-74180000D01*
X85856000Y-74180000D01*
X85914191Y-74198907D01*
X85950155Y-74248407D01*
X85955000Y-74279000D01*
X85955000Y-74568846D01*
X85955000Y-74568848D01*
X86034180Y-74553099D01*
X86034183Y-74553098D01*
X86161571Y-74500333D01*
X86276220Y-74423728D01*
X86373728Y-74326220D01*
X86450333Y-74211571D01*
X86503098Y-74084183D01*
X86529665Y-73950622D01*
X86530000Y-73949083D01*
X86530000Y-73455002D01*
X86530000Y-73455001D01*
X86529999Y-73455000D01*
X86529998Y-73455000D01*
X86229000Y-73455000D01*
X86170809Y-73436093D01*
X86134845Y-73386593D01*
X86130000Y-73356000D01*
X86130000Y-73304000D01*
X86148907Y-73245809D01*
X86198407Y-73209845D01*
X86229000Y-73205000D01*
X86529998Y-73205000D01*
X86529999Y-73205000D01*
X86530000Y-73204999D01*
X86530000Y-73066824D01*
X86534841Y-73036245D01*
X86535102Y-73035439D01*
X86537127Y-73029206D01*
X86573083Y-72979704D01*
X86631271Y-72960788D01*
X86689464Y-72979687D01*
X86720642Y-73017170D01*
X86731104Y-73039107D01*
X86735354Y-73042553D01*
X86738026Y-73046918D01*
X86799480Y-73153359D01*
X86799481Y-73153360D01*
X86799483Y-73153362D01*
X86799485Y-73153365D01*
X86906635Y-73260515D01*
X86906637Y-73260516D01*
X86906639Y-73260518D01*
X86907186Y-73260913D01*
X86909188Y-73261990D01*
X86946630Y-73283607D01*
X86981091Y-73303503D01*
X87002685Y-73327486D01*
X87037010Y-73336067D01*
X87038612Y-73336481D01*
X87184234Y-73375500D01*
X87184236Y-73375500D01*
X87335764Y-73375500D01*
X87335766Y-73375500D01*
X87482135Y-73336281D01*
X87565748Y-73288005D01*
X87594660Y-73276907D01*
X87607707Y-73274133D01*
X87668555Y-73280524D01*
X87675484Y-73283609D01*
X87706506Y-73307266D01*
X87707249Y-73306524D01*
X87710703Y-73309978D01*
X87710704Y-73309979D01*
X87710706Y-73309982D01*
X87803892Y-73403168D01*
X87803894Y-73403169D01*
X87803896Y-73403171D01*
X87804443Y-73403566D01*
X87806445Y-73404643D01*
X87850413Y-73430027D01*
X87861246Y-73436282D01*
X87882840Y-73460264D01*
X87917150Y-73468842D01*
X87918754Y-73469256D01*
X88045314Y-73503168D01*
X88177098Y-73503168D01*
X89488666Y-73503168D01*
X89519257Y-73508013D01*
X89531594Y-73512021D01*
X89542483Y-73515559D01*
X89581896Y-73539710D01*
X92350623Y-76308437D01*
X92368828Y-76333495D01*
X92379915Y-76355254D01*
X92390706Y-76400200D01*
X92390706Y-82657097D01*
X92391127Y-82658668D01*
X92394448Y-82671062D01*
X92396974Y-82683763D01*
X92398653Y-82696517D01*
X92399500Y-82709438D01*
X92399500Y-84734108D01*
X92399500Y-84865892D01*
X92429579Y-84978151D01*
X92433609Y-84993190D01*
X92499496Y-85107309D01*
X92499498Y-85107311D01*
X92499500Y-85107314D01*
X92592686Y-85200500D01*
X92592688Y-85200501D01*
X92592690Y-85200503D01*
X92593237Y-85200898D01*
X92595239Y-85201975D01*
X92632519Y-85223498D01*
X92650040Y-85233614D01*
X92671634Y-85257596D01*
X92705944Y-85266174D01*
X92707548Y-85266588D01*
X92834108Y-85300500D01*
X92834110Y-85300500D01*
X92965890Y-85300500D01*
X92965892Y-85300500D01*
X93093186Y-85266392D01*
X93093188Y-85266390D01*
X93093190Y-85266390D01*
X93201190Y-85204035D01*
X93204067Y-85202639D01*
X93204853Y-85202122D01*
X93209862Y-85199028D01*
X93211161Y-85198277D01*
X93216519Y-85191294D01*
X93300500Y-85107314D01*
X93366392Y-84993186D01*
X93400500Y-84865892D01*
X93400500Y-84734108D01*
X93400500Y-82534108D01*
X93398144Y-82525314D01*
X93396755Y-82520131D01*
X93394233Y-82507451D01*
X93392551Y-82494678D01*
X93391706Y-82481764D01*
X93391706Y-76075315D01*
X93391454Y-76074374D01*
X93357598Y-75948020D01*
X93357596Y-75948017D01*
X93357596Y-75948015D01*
X93357593Y-75948011D01*
X93357272Y-75947301D01*
X93356010Y-75945268D01*
X93291711Y-75833899D01*
X93291708Y-75833895D01*
X93291705Y-75833891D01*
X93198520Y-75740705D01*
X93151745Y-75693930D01*
X93151745Y-75693931D01*
X90182048Y-72724234D01*
X92464500Y-72724234D01*
X92464500Y-72875766D01*
X92487188Y-72960438D01*
X92503717Y-73022129D01*
X92503721Y-73022142D01*
X92579479Y-73153358D01*
X92579480Y-73153359D01*
X92579481Y-73153360D01*
X92579483Y-73153362D01*
X92579485Y-73153365D01*
X92686635Y-73260515D01*
X92686637Y-73260516D01*
X92686639Y-73260518D01*
X92687186Y-73260913D01*
X92689188Y-73261990D01*
X92726630Y-73283607D01*
X92761091Y-73303503D01*
X92782685Y-73327486D01*
X92817010Y-73336067D01*
X92818612Y-73336481D01*
X92964234Y-73375500D01*
X92964236Y-73375500D01*
X93115764Y-73375500D01*
X93115766Y-73375500D01*
X93262135Y-73336281D01*
X93262137Y-73336279D01*
X93262139Y-73336279D01*
X93393360Y-73260518D01*
X93393360Y-73260517D01*
X93393365Y-73260515D01*
X93500515Y-73153365D01*
X93564638Y-73042299D01*
X93567485Y-73037670D01*
X93588129Y-73006083D01*
X93590821Y-73007842D01*
X93623451Y-72973235D01*
X93683575Y-72961891D01*
X93738885Y-72988053D01*
X93768254Y-73041730D01*
X93768284Y-73041889D01*
X93770000Y-73060244D01*
X93770000Y-73204999D01*
X93770001Y-73205000D01*
X94071000Y-73205000D01*
X94129191Y-73223907D01*
X94165155Y-73273407D01*
X94170000Y-73304000D01*
X94170000Y-73356000D01*
X94151093Y-73414191D01*
X94101593Y-73450155D01*
X94071000Y-73455000D01*
X93770001Y-73455000D01*
X93770000Y-73455001D01*
X93770000Y-73455002D01*
X93770000Y-73948946D01*
X93796901Y-74084182D01*
X93796901Y-74084184D01*
X93849663Y-74211565D01*
X93849668Y-74211575D01*
X93919505Y-74316094D01*
X93926271Y-74326220D01*
X94023779Y-74423728D01*
X94023782Y-74423730D01*
X94138423Y-74500330D01*
X94138425Y-74500331D01*
X94138428Y-74500333D01*
X94265816Y-74553098D01*
X94265819Y-74553099D01*
X94344999Y-74568848D01*
X94345000Y-74568848D01*
X94345000Y-74568847D01*
X94345000Y-74279000D01*
X94363907Y-74220809D01*
X94413407Y-74184845D01*
X94444000Y-74180000D01*
X94496000Y-74180000D01*
X94554191Y-74198907D01*
X94590155Y-74248407D01*
X94595000Y-74279000D01*
X94595000Y-74568846D01*
X94595000Y-74568848D01*
X94674180Y-74553099D01*
X94674183Y-74553098D01*
X94801571Y-74500333D01*
X94916220Y-74423728D01*
X95013728Y-74326220D01*
X95090333Y-74211571D01*
X95128834Y-74118621D01*
X95128839Y-74118609D01*
X95143098Y-74084181D01*
X95169999Y-73948944D01*
X95170000Y-73948942D01*
X95170000Y-73774003D01*
X96350000Y-73774003D01*
X96350000Y-73774006D01*
X96350000Y-73947499D01*
X96350001Y-73947500D01*
X96776000Y-73947500D01*
X96834191Y-73966407D01*
X96870155Y-74015907D01*
X96875000Y-74046500D01*
X96875000Y-74098500D01*
X96856093Y-74156691D01*
X96806593Y-74192655D01*
X96776000Y-74197500D01*
X96350001Y-74197500D01*
X96350000Y-74197501D01*
X96350000Y-74197502D01*
X96350000Y-74370995D01*
X96386527Y-74554626D01*
X96386527Y-74554629D01*
X96388428Y-74564189D01*
X96463811Y-74746180D01*
X96463812Y-74746182D01*
X96463814Y-74746185D01*
X96573249Y-74909962D01*
X96573252Y-74909966D01*
X96712533Y-75049247D01*
X96712537Y-75049250D01*
X96876314Y-75158685D01*
X96876318Y-75158687D01*
X96876323Y-75158690D01*
X97058294Y-75234064D01*
X97058295Y-75234064D01*
X97058309Y-75234070D01*
X97058312Y-75234071D01*
X97224999Y-75267226D01*
X97225000Y-75267226D01*
X97225000Y-75267225D01*
X97225000Y-74646500D01*
X97243907Y-74588309D01*
X97293407Y-74552345D01*
X97324000Y-74547500D01*
X97376000Y-74547500D01*
X97434191Y-74566407D01*
X97470155Y-74615907D01*
X97475000Y-74646500D01*
X97475000Y-75267225D01*
X97475000Y-75267226D01*
X97641687Y-75234071D01*
X97641690Y-75234070D01*
X97823673Y-75158691D01*
X97823685Y-75158685D01*
X97987462Y-75049250D01*
X97987466Y-75049247D01*
X98126747Y-74909966D01*
X98126750Y-74909962D01*
X98236185Y-74746185D01*
X98236191Y-74746173D01*
X98311570Y-74564190D01*
X98311570Y-74564188D01*
X98313472Y-74554629D01*
X98313472Y-74554627D01*
X98324271Y-74500335D01*
X98348789Y-74377074D01*
X98349364Y-74374904D01*
X98350000Y-74370991D01*
X98350000Y-74197502D01*
X98350000Y-74197501D01*
X98349999Y-74197500D01*
X98349998Y-74197500D01*
X97924000Y-74197500D01*
X97865809Y-74178593D01*
X97829845Y-74129093D01*
X97825000Y-74098500D01*
X97825000Y-74046500D01*
X97843907Y-73988309D01*
X97893407Y-73952345D01*
X97924000Y-73947500D01*
X98349998Y-73947500D01*
X98349999Y-73947500D01*
X98350000Y-73947499D01*
X98350000Y-73774009D01*
X98350000Y-73774007D01*
X98349364Y-73770092D01*
X98348788Y-73767920D01*
X98313443Y-73590225D01*
X98313443Y-73590224D01*
X98311570Y-73580809D01*
X98276048Y-73495050D01*
X98236191Y-73398826D01*
X98236185Y-73398814D01*
X98126750Y-73235037D01*
X98126747Y-73235033D01*
X97987466Y-73095752D01*
X97987462Y-73095749D01*
X97823685Y-72986314D01*
X97823682Y-72986312D01*
X97823680Y-72986311D01*
X97823675Y-72986308D01*
X97641690Y-72910929D01*
X97641689Y-72910929D01*
X97475000Y-72877772D01*
X97475000Y-73498500D01*
X97456093Y-73556691D01*
X97406593Y-73592655D01*
X97376000Y-73597500D01*
X97324000Y-73597500D01*
X97265809Y-73578593D01*
X97229845Y-73529093D01*
X97225000Y-73498500D01*
X97225000Y-72877771D01*
X97067873Y-72909027D01*
X97067867Y-72909027D01*
X97058309Y-72910928D01*
X96876318Y-72986311D01*
X96712535Y-73095750D01*
X96573250Y-73235035D01*
X96463811Y-73398818D01*
X96388428Y-73580809D01*
X96386556Y-73590224D01*
X96386556Y-73590226D01*
X96350000Y-73774003D01*
X95170000Y-73774003D01*
X95170000Y-73455001D01*
X95169999Y-73455000D01*
X95169998Y-73455000D01*
X94869000Y-73455000D01*
X94810809Y-73436093D01*
X94774845Y-73386593D01*
X94770000Y-73356000D01*
X94770000Y-73304000D01*
X94788907Y-73245809D01*
X94838407Y-73209845D01*
X94869000Y-73205000D01*
X95169998Y-73205000D01*
X95169999Y-73205000D01*
X95170000Y-73204999D01*
X95170000Y-72711057D01*
X95170000Y-72710915D01*
X95169662Y-72709365D01*
X95143098Y-72575816D01*
X95090333Y-72448428D01*
X95089140Y-72446643D01*
X95013730Y-72333782D01*
X95013728Y-72333779D01*
X94916220Y-72236271D01*
X94916216Y-72236268D01*
X94801575Y-72159668D01*
X94801565Y-72159663D01*
X94674183Y-72106901D01*
X94595000Y-72091150D01*
X94595000Y-72381000D01*
X94576093Y-72439191D01*
X94526593Y-72475155D01*
X94496000Y-72480000D01*
X94444000Y-72480000D01*
X94385809Y-72461093D01*
X94349845Y-72411593D01*
X94345000Y-72381000D01*
X94345000Y-72091150D01*
X94265815Y-72106901D01*
X94138433Y-72159663D01*
X94138423Y-72159668D01*
X94023782Y-72236268D01*
X93926268Y-72333782D01*
X93849668Y-72448423D01*
X93849663Y-72448433D01*
X93796901Y-72575814D01*
X93796899Y-72575822D01*
X93788559Y-72617748D01*
X93776863Y-72638653D01*
X93773812Y-72653996D01*
X93762356Y-72664585D01*
X93758730Y-72671068D01*
X93752979Y-72676394D01*
X93751412Y-72674702D01*
X93728883Y-72695529D01*
X93668121Y-72702721D01*
X93614738Y-72672825D01*
X93613012Y-72670958D01*
X93590084Y-72629380D01*
X93576280Y-72577861D01*
X93501991Y-72449189D01*
X93501991Y-72449190D01*
X93500518Y-72446639D01*
X93500516Y-72446637D01*
X93500515Y-72446635D01*
X93393365Y-72339485D01*
X93393362Y-72339483D01*
X93393360Y-72339481D01*
X93393359Y-72339480D01*
X93319426Y-72296795D01*
X93298390Y-72273432D01*
X93205347Y-72248503D01*
X93205346Y-72248502D01*
X93139768Y-72230931D01*
X93115766Y-72224500D01*
X93115765Y-72224500D01*
X92964235Y-72224500D01*
X92964234Y-72224500D01*
X92945304Y-72229572D01*
X92874652Y-72248502D01*
X92874652Y-72248503D01*
X92817860Y-72263720D01*
X92817858Y-72263720D01*
X92817854Y-72263722D01*
X92686643Y-72339477D01*
X92579477Y-72446643D01*
X92503722Y-72577854D01*
X92503720Y-72577858D01*
X92503720Y-72577860D01*
X92488783Y-72633608D01*
X92464500Y-72724234D01*
X90182048Y-72724234D01*
X90059982Y-72602168D01*
X90059979Y-72602166D01*
X90059977Y-72602164D01*
X90003144Y-72569351D01*
X89982110Y-72545990D01*
X89889570Y-72521195D01*
X89889569Y-72521194D01*
X89831954Y-72505757D01*
X89818560Y-72502168D01*
X89818559Y-72502168D01*
X88045315Y-72502168D01*
X88045314Y-72502168D01*
X88032926Y-72505487D01*
X87974303Y-72521194D01*
X87974304Y-72521195D01*
X87918016Y-72536277D01*
X87918014Y-72536277D01*
X87918011Y-72536279D01*
X87908020Y-72542048D01*
X87879104Y-72553148D01*
X87866058Y-72555921D01*
X87805208Y-72549525D01*
X87805202Y-72549522D01*
X87800549Y-72547450D01*
X87755086Y-72506512D01*
X87720518Y-72446639D01*
X87720516Y-72446637D01*
X87720515Y-72446635D01*
X87613365Y-72339485D01*
X87613362Y-72339483D01*
X87613360Y-72339481D01*
X87613359Y-72339480D01*
X87539426Y-72296795D01*
X87518390Y-72273432D01*
X87425347Y-72248503D01*
X87425346Y-72248502D01*
X87359768Y-72230931D01*
X87335766Y-72224500D01*
X87335765Y-72224500D01*
X87184235Y-72224500D01*
X87184234Y-72224500D01*
X87165304Y-72229572D01*
X87094652Y-72248502D01*
X87094652Y-72248503D01*
X87037860Y-72263720D01*
X87037858Y-72263720D01*
X87037854Y-72263722D01*
X86906643Y-72339477D01*
X86906639Y-72339481D01*
X86799481Y-72446639D01*
X86723725Y-72577854D01*
X86723717Y-72577867D01*
X86711279Y-72624287D01*
X86698250Y-72644368D01*
X86694213Y-72659462D01*
X86682078Y-72669295D01*
X86678024Y-72675546D01*
X86671936Y-72680485D01*
X86670482Y-72678693D01*
X86646678Y-72697986D01*
X86585578Y-72701213D01*
X86534250Y-72667909D01*
X86533892Y-72667467D01*
X86532649Y-72665933D01*
X86512467Y-72622917D01*
X86503099Y-72575819D01*
X86503098Y-72575816D01*
X86494857Y-72555921D01*
X86463410Y-72480000D01*
X86450333Y-72448428D01*
X86449140Y-72446643D01*
X86373730Y-72333782D01*
X86373728Y-72333779D01*
X86276220Y-72236271D01*
X86276216Y-72236268D01*
X86161575Y-72159668D01*
X86161565Y-72159663D01*
X86034183Y-72106901D01*
X85955000Y-72091150D01*
X85955000Y-72381000D01*
X85936093Y-72439191D01*
X85886593Y-72475155D01*
X85856000Y-72480000D01*
X85804000Y-72480000D01*
X85745809Y-72461093D01*
X85709845Y-72411593D01*
X85705000Y-72381000D01*
X85705000Y-72091150D01*
X85625815Y-72106901D01*
X85498433Y-72159663D01*
X85498423Y-72159668D01*
X85383782Y-72236268D01*
X85286268Y-72333782D01*
X85209668Y-72448423D01*
X85209663Y-72448433D01*
X85156901Y-72575814D01*
X85156901Y-72575816D01*
X85130000Y-72711052D01*
X64207092Y-72711052D01*
X63927524Y-72431484D01*
X63927517Y-72431478D01*
X63927513Y-72431474D01*
X63927507Y-72431468D01*
X63572975Y-72133981D01*
X63572970Y-72133977D01*
X63572967Y-72133974D01*
X63333633Y-71966392D01*
X63232447Y-71895541D01*
X63195566Y-71869717D01*
X63194184Y-71868703D01*
X62792984Y-71637069D01*
X62741740Y-71613174D01*
X62712415Y-71599500D01*
X62646596Y-71568808D01*
X62374737Y-71442037D01*
X62374566Y-71441955D01*
X62373491Y-71441456D01*
X62185535Y-71373046D01*
X62032352Y-71317292D01*
X62032351Y-71317291D01*
X62013207Y-71310323D01*
X61999243Y-71299413D01*
X61942977Y-71284337D01*
X61941811Y-71283965D01*
X61939360Y-71283353D01*
X61937776Y-71282943D01*
X61809047Y-71248450D01*
X61494330Y-71164123D01*
X61493447Y-71163858D01*
X61491467Y-71163356D01*
X61035652Y-71082984D01*
X60574586Y-71042646D01*
X60574578Y-71042646D01*
X60574571Y-71042646D01*
X60111721Y-71042646D01*
X60111714Y-71042646D01*
X60111707Y-71042646D01*
X59705396Y-71078194D01*
X59654946Y-71082608D01*
X59654934Y-71082608D01*
X59654935Y-71082609D01*
X59650629Y-71082985D01*
X59194823Y-71163356D01*
X59192843Y-71163858D01*
X59191960Y-71164123D01*
X58747755Y-71283146D01*
X58500756Y-71373046D01*
X58312808Y-71441453D01*
X58047432Y-71565200D01*
X57893302Y-71637072D01*
X57492101Y-71868705D01*
X57490710Y-71869726D01*
X57113324Y-72133974D01*
X57113320Y-72133977D01*
X57113315Y-72133981D01*
X56758788Y-72431464D01*
X56431464Y-72758788D01*
X56133981Y-73113315D01*
X56133977Y-73113320D01*
X56133974Y-73113324D01*
X55869726Y-73490710D01*
X55868705Y-73492101D01*
X55637072Y-73893302D01*
X55609540Y-73952345D01*
X55441453Y-74312808D01*
X55441450Y-74312815D01*
X55441450Y-74312816D01*
X55283146Y-74747755D01*
X55164123Y-75191960D01*
X55163858Y-75192843D01*
X55163356Y-75194823D01*
X55082985Y-75650629D01*
X55082609Y-75654935D01*
X55082608Y-75654947D01*
X55042646Y-76111705D01*
X50300500Y-76111705D01*
X50300500Y-73005302D01*
X50300562Y-73001793D01*
X50300690Y-72998211D01*
X50300873Y-72994771D01*
X50302344Y-72974211D01*
X50317041Y-72768698D01*
X50317795Y-72761694D01*
X50318797Y-72754725D01*
X50320049Y-72747786D01*
X50367091Y-72531529D01*
X50368827Y-72524730D01*
X50370825Y-72517926D01*
X50373038Y-72511279D01*
X50450378Y-72303925D01*
X50453077Y-72297411D01*
X50456008Y-72290994D01*
X50459169Y-72284680D01*
X50478924Y-72248502D01*
X50565209Y-72090481D01*
X50568799Y-72084429D01*
X50572616Y-72078490D01*
X50576640Y-72072696D01*
X50709257Y-71895541D01*
X50713659Y-71890076D01*
X50718299Y-71884720D01*
X50723074Y-71879591D01*
X50879591Y-71723074D01*
X50884720Y-71718299D01*
X50890076Y-71713659D01*
X50895541Y-71709257D01*
X51072696Y-71576640D01*
X51078490Y-71572616D01*
X51084429Y-71568799D01*
X51090481Y-71565209D01*
X51284688Y-71459164D01*
X51290994Y-71456008D01*
X51297411Y-71453077D01*
X51303925Y-71450378D01*
X51511279Y-71373038D01*
X51517926Y-71370825D01*
X51524730Y-71368827D01*
X51531529Y-71367091D01*
X51747790Y-71320048D01*
X51754725Y-71318797D01*
X51761694Y-71317795D01*
X51768698Y-71317041D01*
X51996476Y-71300751D01*
X52003538Y-71300500D01*
X52047594Y-71300500D01*
X52082923Y-71289020D01*
X52087872Y-71287554D01*
X52091244Y-71286651D01*
X52100623Y-71287144D01*
X52122018Y-71277614D01*
X52122019Y-71277615D01*
X52128052Y-71274927D01*
X52137733Y-71271212D01*
X52138125Y-71271085D01*
X52163891Y-71252364D01*
X52184511Y-71240460D01*
X52195760Y-71229210D01*
X52215134Y-71215135D01*
X52229210Y-71195760D01*
X52240460Y-71184511D01*
X52252364Y-71163891D01*
X52271085Y-71138125D01*
X52276033Y-71122896D01*
X52280021Y-71115989D01*
X52288222Y-71085381D01*
X52300500Y-71047595D01*
X52300500Y-70952406D01*
X52300500Y-70952405D01*
X52300500Y-69394243D01*
X52302529Y-69354332D01*
X52290244Y-69308770D01*
X52280021Y-69270616D01*
X52278727Y-69265786D01*
X52278727Y-69265785D01*
X52278723Y-69265772D01*
X52278507Y-69264967D01*
X52278306Y-69264304D01*
X52277800Y-69262541D01*
X52277748Y-69262426D01*
X52277748Y-69262423D01*
X52257646Y-69231574D01*
X52257646Y-69231573D01*
X52257624Y-69231540D01*
X52254844Y-69227010D01*
X52252478Y-69222912D01*
X52240460Y-69202094D01*
X52240455Y-69202089D01*
X52236509Y-69196946D01*
X52236544Y-69196919D01*
X52229008Y-69187626D01*
X52225781Y-69182674D01*
X52206119Y-69166802D01*
X52204470Y-69165441D01*
X52203426Y-69164560D01*
X52197272Y-69158906D01*
X52184511Y-69146145D01*
X52184508Y-69146143D01*
X52179363Y-69142195D01*
X52179435Y-69142100D01*
X52176596Y-69140146D01*
X52170117Y-69134886D01*
X52169830Y-69134444D01*
X52164673Y-69130126D01*
X52117207Y-69085463D01*
X52019204Y-68993246D01*
X52013936Y-68987897D01*
X52008893Y-68982373D01*
X52004045Y-68976641D01*
X51991052Y-68960040D01*
X51888038Y-68828416D01*
X51867526Y-68802207D01*
X51863123Y-68796118D01*
X51858959Y-68789874D01*
X51855037Y-68783481D01*
X51854783Y-68783030D01*
X51853674Y-68781057D01*
X51755959Y-68607314D01*
X51746460Y-68590423D01*
X51743039Y-68583762D01*
X51739852Y-68576930D01*
X51736948Y-68570031D01*
X51704803Y-68484783D01*
X51670076Y-68392685D01*
X51658792Y-68362761D01*
X51656422Y-68355669D01*
X51654316Y-68348475D01*
X51652479Y-68341184D01*
X51643645Y-68299498D01*
X51606550Y-68124470D01*
X51605278Y-68117105D01*
X51604283Y-68109664D01*
X51603573Y-68102219D01*
X51590929Y-67881032D01*
X51590787Y-67873534D01*
X51590928Y-67866048D01*
X51591353Y-67858558D01*
X51593789Y-67832895D01*
X51612285Y-67638021D01*
X51613273Y-67630615D01*
X51614554Y-67623177D01*
X51616097Y-67615889D01*
X51670128Y-67401038D01*
X51672220Y-67393878D01*
X51674608Y-67386726D01*
X51677243Y-67379731D01*
X51763134Y-67175510D01*
X51766287Y-67168743D01*
X51769710Y-67162071D01*
X51773376Y-67155546D01*
X51889167Y-66966620D01*
X51893306Y-66960411D01*
X51897697Y-66954335D01*
X51902297Y-66948453D01*
X52045298Y-66779226D01*
X52050332Y-66773707D01*
X52055599Y-66768356D01*
X52061047Y-66763225D01*
X52227984Y-66617559D01*
X52233803Y-66612858D01*
X52239837Y-66608351D01*
X52245956Y-66604132D01*
X52433020Y-66485357D01*
X52439455Y-66481606D01*
X52446098Y-66478064D01*
X52452818Y-66474803D01*
X52655661Y-66385679D01*
X52662609Y-66382936D01*
X52669694Y-66380444D01*
X52676839Y-66378234D01*
X52890796Y-66320803D01*
X52898093Y-66319138D01*
X52905472Y-66317747D01*
X52912874Y-66316640D01*
X53133044Y-66292212D01*
X53140520Y-66291669D01*
X53145559Y-66291494D01*
X53148016Y-66291409D01*
X53155503Y-66291432D01*
G37*
%TD.AperFunction*%
%TD*%
%TA.AperFunction,Conductor*%
%TO.N,+3V3*%
G36*
X111529618Y-66320185D02*
G01*
X111575373Y-66372989D01*
X111586572Y-66425741D01*
X111544911Y-70576000D01*
X111515656Y-73490339D01*
X111506224Y-73536545D01*
X111487948Y-73580668D01*
X111487947Y-73580671D01*
X111449500Y-73773956D01*
X111449500Y-73773959D01*
X111449500Y-74371041D01*
X111449500Y-74371043D01*
X111449499Y-74371043D01*
X111487948Y-74564332D01*
X111487951Y-74564342D01*
X111494788Y-74580850D01*
X111504219Y-74629542D01*
X111493242Y-75723187D01*
X111472885Y-75790025D01*
X111419625Y-75835248D01*
X111369330Y-75845942D01*
X99127414Y-75854056D01*
X99060362Y-75834416D01*
X99014572Y-75781642D01*
X99003332Y-75730141D01*
X99002432Y-74371043D01*
X101349499Y-74371043D01*
X101387947Y-74564329D01*
X101387950Y-74564339D01*
X101463364Y-74746407D01*
X101463371Y-74746420D01*
X101572860Y-74910281D01*
X101572863Y-74910285D01*
X101712214Y-75049636D01*
X101712218Y-75049639D01*
X101876079Y-75159128D01*
X101876092Y-75159135D01*
X102058160Y-75234549D01*
X102058165Y-75234551D01*
X102058169Y-75234551D01*
X102058170Y-75234552D01*
X102251456Y-75273000D01*
X102251459Y-75273000D01*
X102448543Y-75273000D01*
X102578582Y-75247132D01*
X102641835Y-75234551D01*
X102823914Y-75159132D01*
X102987782Y-75049639D01*
X103127139Y-74910282D01*
X103236632Y-74746414D01*
X103312051Y-74564335D01*
X103350500Y-74371043D01*
X103849499Y-74371043D01*
X103887947Y-74564329D01*
X103887950Y-74564339D01*
X103963364Y-74746407D01*
X103963371Y-74746420D01*
X104072860Y-74910281D01*
X104072863Y-74910285D01*
X104212214Y-75049636D01*
X104212218Y-75049639D01*
X104376079Y-75159128D01*
X104376092Y-75159135D01*
X104558160Y-75234549D01*
X104558165Y-75234551D01*
X104558169Y-75234551D01*
X104558170Y-75234552D01*
X104751456Y-75273000D01*
X104751459Y-75273000D01*
X104948543Y-75273000D01*
X105078582Y-75247132D01*
X105141835Y-75234551D01*
X105323914Y-75159132D01*
X105487782Y-75049639D01*
X105627139Y-74910282D01*
X105736632Y-74746414D01*
X105812051Y-74564335D01*
X105850500Y-74371043D01*
X108949499Y-74371043D01*
X108987947Y-74564329D01*
X108987950Y-74564339D01*
X109063364Y-74746407D01*
X109063371Y-74746420D01*
X109172860Y-74910281D01*
X109172863Y-74910285D01*
X109312214Y-75049636D01*
X109312218Y-75049639D01*
X109476079Y-75159128D01*
X109476092Y-75159135D01*
X109658160Y-75234549D01*
X109658165Y-75234551D01*
X109658169Y-75234551D01*
X109658170Y-75234552D01*
X109851456Y-75273000D01*
X109851459Y-75273000D01*
X110048543Y-75273000D01*
X110178582Y-75247132D01*
X110241835Y-75234551D01*
X110423914Y-75159132D01*
X110587782Y-75049639D01*
X110727139Y-74910282D01*
X110836632Y-74746414D01*
X110912051Y-74564335D01*
X110950500Y-74371041D01*
X110950500Y-73773959D01*
X110950500Y-73773956D01*
X110912052Y-73580670D01*
X110912051Y-73580669D01*
X110912051Y-73580665D01*
X110874637Y-73490339D01*
X110836635Y-73398592D01*
X110836628Y-73398579D01*
X110727139Y-73234718D01*
X110727136Y-73234714D01*
X110587785Y-73095363D01*
X110587781Y-73095360D01*
X110423920Y-72985871D01*
X110423907Y-72985864D01*
X110241839Y-72910450D01*
X110241829Y-72910447D01*
X110048543Y-72872000D01*
X110048541Y-72872000D01*
X109851459Y-72872000D01*
X109851457Y-72872000D01*
X109658170Y-72910447D01*
X109658160Y-72910450D01*
X109476092Y-72985864D01*
X109476079Y-72985871D01*
X109312218Y-73095360D01*
X109312214Y-73095363D01*
X109172863Y-73234714D01*
X109172860Y-73234718D01*
X109063371Y-73398579D01*
X109063364Y-73398592D01*
X108987950Y-73580660D01*
X108987947Y-73580670D01*
X108949500Y-73773956D01*
X108949500Y-73773959D01*
X108949500Y-74371041D01*
X108949500Y-74371043D01*
X108949499Y-74371043D01*
X105850500Y-74371043D01*
X105850500Y-74371041D01*
X105850500Y-73773959D01*
X105850500Y-73773956D01*
X105812052Y-73580670D01*
X105812051Y-73580669D01*
X105812051Y-73580665D01*
X105774637Y-73490339D01*
X105736635Y-73398592D01*
X105736628Y-73398579D01*
X105627139Y-73234718D01*
X105627136Y-73234714D01*
X105487785Y-73095363D01*
X105487781Y-73095360D01*
X105323920Y-72985871D01*
X105323907Y-72985864D01*
X105141839Y-72910450D01*
X105141829Y-72910447D01*
X104948543Y-72872000D01*
X104948541Y-72872000D01*
X104751459Y-72872000D01*
X104751457Y-72872000D01*
X104558170Y-72910447D01*
X104558160Y-72910450D01*
X104376092Y-72985864D01*
X104376079Y-72985871D01*
X104212218Y-73095360D01*
X104212214Y-73095363D01*
X104072863Y-73234714D01*
X104072860Y-73234718D01*
X103963371Y-73398579D01*
X103963364Y-73398592D01*
X103887950Y-73580660D01*
X103887947Y-73580670D01*
X103849500Y-73773956D01*
X103849500Y-73773959D01*
X103849500Y-74371041D01*
X103849500Y-74371043D01*
X103849499Y-74371043D01*
X103350500Y-74371043D01*
X103350500Y-74371041D01*
X103350500Y-73773959D01*
X103350500Y-73773956D01*
X103312052Y-73580670D01*
X103312051Y-73580669D01*
X103312051Y-73580665D01*
X103274637Y-73490339D01*
X103236635Y-73398592D01*
X103236628Y-73398579D01*
X103127139Y-73234718D01*
X103127136Y-73234714D01*
X102987785Y-73095363D01*
X102987781Y-73095360D01*
X102823920Y-72985871D01*
X102823907Y-72985864D01*
X102641839Y-72910450D01*
X102641829Y-72910447D01*
X102448543Y-72872000D01*
X102448541Y-72872000D01*
X102251459Y-72872000D01*
X102251457Y-72872000D01*
X102058170Y-72910447D01*
X102058160Y-72910450D01*
X101876092Y-72985864D01*
X101876079Y-72985871D01*
X101712218Y-73095360D01*
X101712214Y-73095363D01*
X101572863Y-73234714D01*
X101572860Y-73234718D01*
X101463371Y-73398579D01*
X101463364Y-73398592D01*
X101387950Y-73580660D01*
X101387947Y-73580670D01*
X101349500Y-73773956D01*
X101349500Y-73773959D01*
X101349500Y-74371041D01*
X101349500Y-74371043D01*
X101349499Y-74371043D01*
X99002432Y-74371043D01*
X99000000Y-70700000D01*
X97374000Y-70700000D01*
X97306961Y-70680315D01*
X97261206Y-70627511D01*
X97250000Y-70576000D01*
X97250000Y-66424500D01*
X97269685Y-66357461D01*
X97322489Y-66311706D01*
X97374000Y-66300500D01*
X111462579Y-66300500D01*
X111529618Y-66320185D01*
G37*
%TD.AperFunction*%
%TD*%
M02*
