%TF.GenerationSoftware,KiCad,Pcbnew,9.0.4*%
%TF.CreationDate,2025-10-07T21:08:39+02:00*%
%TF.ProjectId,malibotti,6d616c69-626f-4747-9469-2e6b69636164,rev?*%
%TF.SameCoordinates,Original*%
%TF.FileFunction,Soldermask,Bot*%
%TF.FilePolarity,Negative*%
%FSLAX46Y46*%
G04 Gerber Fmt 4.6, Leading zero omitted, Abs format (unit mm)*
G04 Created by KiCad (PCBNEW 9.0.4) date 2025-10-07 21:08:39*
%MOMM*%
%LPD*%
G01*
G04 APERTURE LIST*
G04 Aperture macros list*
%AMRoundRect*
0 Rectangle with rounded corners*
0 $1 Rounding radius*
0 $2 $3 $4 $5 $6 $7 $8 $9 X,Y pos of 4 corners*
0 Add a 4 corners polygon primitive as box body*
4,1,4,$2,$3,$4,$5,$6,$7,$8,$9,$2,$3,0*
0 Add four circle primitives for the rounded corners*
1,1,$1+$1,$2,$3*
1,1,$1+$1,$4,$5*
1,1,$1+$1,$6,$7*
1,1,$1+$1,$8,$9*
0 Add four rect primitives between the rounded corners*
20,1,$1+$1,$2,$3,$4,$5,0*
20,1,$1+$1,$4,$5,$6,$7,0*
20,1,$1+$1,$6,$7,$8,$9,0*
20,1,$1+$1,$8,$9,$2,$3,0*%
G04 Aperture macros list end*
%ADD10R,1.700000X1.700000*%
%ADD11C,1.700000*%
%ADD12RoundRect,0.250000X0.650000X-0.950000X0.650000X0.950000X-0.650000X0.950000X-0.650000X-0.950000X0*%
%ADD13R,1.008000X4.892000*%
%ADD14R,1.000000X4.892000*%
%ADD15R,1.500000X1.500000*%
%ADD16RoundRect,0.250000X0.650000X-0.412500X0.650000X0.412500X-0.650000X0.412500X-0.650000X-0.412500X0*%
%ADD17R,4.130000X1.008000*%
%ADD18R,4.257000X1.008000*%
%ADD19R,4.130000X1.000000*%
%ADD20R,4.257000X1.000000*%
%ADD21RoundRect,0.250000X-0.400000X-0.625000X0.400000X-0.625000X0.400000X0.625000X-0.400000X0.625000X0*%
%ADD22RoundRect,0.250000X0.400000X0.625000X-0.400000X0.625000X-0.400000X-0.625000X0.400000X-0.625000X0*%
%ADD23RoundRect,0.250000X0.412500X0.650000X-0.412500X0.650000X-0.412500X-0.650000X0.412500X-0.650000X0*%
%ADD24RoundRect,0.102000X-1.512500X-0.762000X1.512500X-0.762000X1.512500X0.762000X-1.512500X0.762000X0*%
%ADD25RoundRect,0.150000X-0.950000X-0.150000X0.950000X-0.150000X0.950000X0.150000X-0.950000X0.150000X0*%
%ADD26RoundRect,0.250000X-0.625000X0.400000X-0.625000X-0.400000X0.625000X-0.400000X0.625000X0.400000X0*%
%ADD27RoundRect,0.082000X0.868000X-0.328000X0.868000X0.328000X-0.868000X0.328000X-0.868000X-0.328000X0*%
%ADD28RoundRect,0.086000X0.864000X-0.344000X0.864000X0.344000X-0.864000X0.344000X-0.864000X-0.344000X0*%
%ADD29RoundRect,0.076000X0.874000X-0.304000X0.874000X0.304000X-0.874000X0.304000X-0.874000X-0.304000X0*%
%ADD30RoundRect,0.220000X1.005000X0.330000X-1.005000X0.330000X-1.005000X-0.330000X1.005000X-0.330000X0*%
G04 APERTURE END LIST*
D10*
%TO.C,J6*%
X129550000Y-96200000D03*
D11*
X129550000Y-98740000D03*
X129550000Y-101280000D03*
X129550000Y-103820000D03*
%TD*%
D10*
%TO.C,J5*%
X102050000Y-96200000D03*
D11*
X102050000Y-98740000D03*
X102050000Y-101280000D03*
X102050000Y-103820000D03*
%TD*%
D12*
%TO.C,BZ1*%
X135925000Y-78225000D03*
X142075000Y-78225000D03*
X135925000Y-84975000D03*
X142075000Y-84975000D03*
%TD*%
D13*
%TO.C,J2*%
X142806000Y-98996000D03*
X142806000Y-92204000D03*
D14*
X140270000Y-98996000D03*
D13*
X140274000Y-92204000D03*
X137726000Y-98996000D03*
X137734000Y-92204000D03*
X135186000Y-98996000D03*
X135194000Y-92204000D03*
%TD*%
D10*
%TO.C,J3*%
X170525000Y-96180000D03*
D11*
X170525000Y-98720000D03*
X170525000Y-101260000D03*
X170525000Y-103800000D03*
%TD*%
D15*
%TO.C,J8*%
X131900000Y-107200000D03*
%TD*%
D16*
%TO.C,C1*%
X174000000Y-114462500D03*
X174000000Y-111337500D03*
%TD*%
D17*
%TO.C,J1*%
X112085000Y-102836000D03*
D18*
X118178500Y-102836000D03*
D19*
X112085000Y-100300000D03*
D18*
X118178500Y-100296000D03*
D19*
X112085000Y-97760000D03*
D20*
X118178500Y-97760000D03*
%TD*%
D10*
%TO.C,J4*%
X198025000Y-96180000D03*
D11*
X198025000Y-98720000D03*
X198025000Y-101260000D03*
X198025000Y-103800000D03*
%TD*%
D21*
%TO.C,R3*%
X145750000Y-94600000D03*
X148850000Y-94600000D03*
%TD*%
D22*
%TO.C,R5*%
X127750000Y-98900000D03*
X124650000Y-98900000D03*
%TD*%
%TO.C,R6*%
X127750000Y-101200000D03*
X124650000Y-101200000D03*
%TD*%
D15*
%TO.C,J7*%
X114800000Y-125800000D03*
%TD*%
D23*
%TO.C,C3*%
X114862500Y-120900000D03*
X111737500Y-120900000D03*
%TD*%
D24*
%TO.C,U1*%
X150985000Y-108120000D03*
X150985000Y-110660000D03*
X150985000Y-113200000D03*
X150985000Y-115740000D03*
X150985000Y-120820000D03*
X150985000Y-118280000D03*
X135015000Y-125900000D03*
X150985000Y-125900000D03*
X135015000Y-123360000D03*
X135015000Y-120820000D03*
X135015000Y-118280000D03*
X135015000Y-115740000D03*
X135015000Y-113200000D03*
X135015000Y-110660000D03*
X135015000Y-108120000D03*
X150985000Y-123360000D03*
%TD*%
D15*
%TO.C,J9*%
X131900000Y-109723250D03*
%TD*%
D25*
%TO.C,U3*%
X176800000Y-114805000D03*
X176800000Y-113535000D03*
X176800000Y-112265000D03*
X176800000Y-110995000D03*
X182000000Y-110995000D03*
X182000000Y-112265000D03*
X182000000Y-113535000D03*
X182000000Y-114805000D03*
%TD*%
D16*
%TO.C,C2*%
X174000000Y-88662500D03*
X174000000Y-85537500D03*
%TD*%
D21*
%TO.C,R4*%
X145750000Y-97100000D03*
X148850000Y-97100000D03*
%TD*%
D26*
%TO.C,R2*%
X145900000Y-87050000D03*
X145900000Y-90150000D03*
%TD*%
D25*
%TO.C,U2*%
X176800000Y-89005000D03*
X176800000Y-87735000D03*
X176800000Y-86465000D03*
X176800000Y-85195000D03*
X182000000Y-85195000D03*
X182000000Y-86465000D03*
X182000000Y-87735000D03*
X182000000Y-89005000D03*
%TD*%
D27*
%TO.C,D21*%
X114750000Y-123050000D03*
D28*
X114750000Y-124530000D03*
D27*
X120650000Y-124550000D03*
D29*
X120650000Y-123020000D03*
%TD*%
D30*
%TO.C,SW8*%
X131775000Y-121550000D03*
X122825000Y-121550000D03*
X131775000Y-126050000D03*
X122825000Y-126050000D03*
%TD*%
M02*
