%TF.GenerationSoftware,KiCad,Pcbnew,10.0.0*%
%TF.CreationDate,2026-05-11T23:15:42+02:00*%
%TF.ProjectId,malibotti_stepper_pcb,6d616c69-626f-4747-9469-5f7374657070,rev?*%
%TF.SameCoordinates,Original*%
%TF.FileFunction,Profile,NP*%
%FSLAX46Y46*%
G04 Gerber Fmt 4.6, Leading zero omitted, Abs format (unit mm)*
G04 Created by KiCad (PCBNEW 10.0.0) date 2026-05-11 23:15:42*
%MOMM*%
%LPD*%
G01*
G04 APERTURE LIST*
%TA.AperFunction,Profile*%
%ADD10C,0.050000*%
%TD*%
G04 APERTURE END LIST*
D10*
X50000000Y-73000000D02*
X50000000Y-127000000D01*
X50000000Y-73000000D02*
G75*
G02*
X52000000Y-71000000I2000000J0D01*
G01*
X52000000Y-69386605D02*
X52000000Y-71000000D01*
X52000000Y-69386606D02*
G75*
G02*
X54500000Y-69300000I1200000J1486606D01*
G01*
X52000000Y-129000000D02*
G75*
G02*
X50000000Y-127000000I0J2000000D01*
G01*
X52000000Y-129000000D02*
X52000000Y-130700000D01*
X54500000Y-71000000D02*
X54500000Y-69300000D01*
X54500000Y-71000000D02*
X56200000Y-71000000D01*
X54500000Y-128900000D02*
X54500000Y-130613395D01*
X54500000Y-128900000D02*
X56200000Y-128900000D01*
X54500000Y-130613394D02*
G75*
G02*
X52000000Y-130700000I-1200000J-1486606D01*
G01*
X55400000Y-97800000D02*
X56900000Y-97800000D01*
X56900000Y-102200000D01*
X55400000Y-102200000D01*
X55400000Y-97800000D01*
X56200000Y-128900000D02*
G75*
G02*
X58200000Y-130900000I0J-2000000D01*
G01*
X58200000Y-68000001D02*
X58200000Y-69000000D01*
X58200000Y-68000001D02*
G75*
G02*
X60200000Y-66000000I2000000J1D01*
G01*
X58200000Y-69000000D02*
G75*
G02*
X56200000Y-71000000I-2000000J0D01*
G01*
X58200000Y-130900000D02*
X58200000Y-132000000D01*
X60200000Y-134000000D02*
G75*
G02*
X58200000Y-132000000I0J2000000D01*
G01*
X60200000Y-134000000D02*
X80200000Y-134000000D01*
X74250000Y-97800000D02*
X75750000Y-97800000D01*
X75750000Y-102200000D01*
X74250000Y-102200000D01*
X74250000Y-97800000D01*
X82200000Y-129000000D02*
X82200000Y-132000000D01*
X82200000Y-129000000D02*
X106000000Y-129000000D01*
X82200000Y-132000000D02*
G75*
G02*
X80200000Y-134000000I-2000000J0D01*
G01*
X106000000Y-132000000D02*
X106000000Y-129000000D01*
X108000000Y-134000000D02*
G75*
G02*
X106000000Y-132000000I0J2000000D01*
G01*
X118000000Y-66000000D02*
X60200000Y-66000000D01*
X118000000Y-66000000D02*
G75*
G02*
X120000000Y-68000000I0J-2000000D01*
G01*
X118000000Y-134000000D02*
X108000000Y-134000000D01*
X120000000Y-68000000D02*
X120000000Y-132000000D01*
X120000000Y-132000000D02*
G75*
G02*
X118000000Y-134000000I-2000000J0D01*
G01*
%TO.C,SW2*%
X61850000Y-94500000D02*
G75*
G02*
X59650000Y-94500000I-1100000J0D01*
G01*
X59650000Y-94500000D02*
G75*
G02*
X61850000Y-94500000I1100000J0D01*
G01*
X68350000Y-94500000D02*
G75*
G02*
X66150000Y-94500000I-1100000J0D01*
G01*
X66150000Y-94500000D02*
G75*
G02*
X68350000Y-94500000I1100000J0D01*
G01*
%TO.C,ST2*%
X55675631Y-105625631D02*
G75*
G02*
X51475631Y-105625631I-2100000J0D01*
G01*
X51475631Y-105625631D02*
G75*
G02*
X55675631Y-105625631I2100000J0D01*
G01*
X65293146Y-123656854D02*
G75*
G02*
X55293146Y-123656854I-5000000J0D01*
G01*
X55293146Y-123656854D02*
G75*
G02*
X65293146Y-123656854I5000000J0D01*
G01*
X80424370Y-130374369D02*
G75*
G02*
X76224368Y-130374369I-2100001J0D01*
G01*
X76224368Y-130374369D02*
G75*
G02*
X80424370Y-130374369I2100001J0D01*
G01*
%TO.C,SRV1*%
X106000000Y-119300000D02*
X107400000Y-119300000D01*
X107400000Y-124300000D01*
X106000000Y-124300000D01*
X106000000Y-119300000D01*
X106800000Y-112200000D02*
X119200000Y-112200000D01*
X119200000Y-115000000D01*
X106800000Y-115000000D01*
X106800000Y-112200000D01*
X118600000Y-119300000D02*
X120000000Y-119300000D01*
X120000000Y-124300000D01*
X118600000Y-124300000D01*
X118600000Y-119300000D01*
%TO.C,SW3*%
X61850000Y-105500000D02*
G75*
G02*
X59650000Y-105500000I-1100000J0D01*
G01*
X59650000Y-105500000D02*
G75*
G02*
X61850000Y-105500000I1100000J0D01*
G01*
X68350000Y-105500000D02*
G75*
G02*
X66150000Y-105500000I-1100000J0D01*
G01*
X66150000Y-105500000D02*
G75*
G02*
X68350000Y-105500000I1100000J0D01*
G01*
%TO.C,H1*%
X113000000Y-86000000D02*
G75*
G02*
X108000000Y-86000000I-2500000J0D01*
G01*
X108000000Y-86000000D02*
G75*
G02*
X113000000Y-86000000I2500000J0D01*
G01*
X113000000Y-100000000D02*
G75*
G02*
X108000000Y-100000000I-2500000J0D01*
G01*
X108000000Y-100000000D02*
G75*
G02*
X113000000Y-100000000I2500000J0D01*
G01*
%TO.C,ST1*%
X55675632Y-94374369D02*
G75*
G02*
X51475630Y-94374369I-2100001J0D01*
G01*
X51475630Y-94374369D02*
G75*
G02*
X55675632Y-94374369I2100001J0D01*
G01*
X65293146Y-76343146D02*
G75*
G02*
X55293146Y-76343146I-5000000J0D01*
G01*
X55293146Y-76343146D02*
G75*
G02*
X65293146Y-76343146I5000000J0D01*
G01*
X80424369Y-69625631D02*
G75*
G02*
X76224369Y-69625631I-2100000J0D01*
G01*
X76224369Y-69625631D02*
G75*
G02*
X80424369Y-69625631I2100000J0D01*
G01*
%TO.C,D21*%
X78250000Y-98300000D02*
X81250000Y-98300000D01*
X81250000Y-101700000D01*
X78250000Y-101700000D01*
X78250000Y-98300000D01*
%TO.C,SW1*%
X86300000Y-120850000D02*
G75*
G02*
X82300000Y-120850000I-2000000J0D01*
G01*
X82300000Y-120850000D02*
G75*
G02*
X86300000Y-120850000I2000000J0D01*
G01*
%TO.C,SW8*%
X89400000Y-84900000D02*
G75*
G02*
X85400000Y-84900000I-2000000J0D01*
G01*
X85400000Y-84900000D02*
G75*
G02*
X89400000Y-84900000I2000000J0D01*
G01*
%TD*%
M02*
