%TF.GenerationSoftware,KiCad,Pcbnew,10.0.0*%
%TF.CreationDate,2026-05-11T23:15:42+02:00*%
%TF.ProjectId,malibotti_stepper_pcb,6d616c69-626f-4747-9469-5f7374657070,rev?*%
%TF.SameCoordinates,Original*%
%TF.FileFunction,Legend,Bot*%
%TF.FilePolarity,Positive*%
%FSLAX46Y46*%
G04 Gerber Fmt 4.6, Leading zero omitted, Abs format (unit mm)*
G04 Created by KiCad (PCBNEW 10.0.0) date 2026-05-11 23:15:42*
%MOMM*%
%LPD*%
G01*
G04 APERTURE LIST*
G04 Aperture macros list*
%AMRoundRect*
0 Rectangle with rounded corners*
0 $1 Rounding radius*
0 $2 $3 $4 $5 $6 $7 $8 $9 X,Y pos of 4 corners*
0 Add a 4 corners polygon primitive as box body*
4,1,4,$2,$3,$4,$5,$6,$7,$8,$9,$2,$3,0*
0 Add four circle primitives for the rounded corners*
1,1,$1+$1,$2,$3*
1,1,$1+$1,$4,$5*
1,1,$1+$1,$6,$7*
1,1,$1+$1,$8,$9*
0 Add four rect primitives between the rounded corners*
20,1,$1+$1,$2,$3,$4,$5,0*
20,1,$1+$1,$4,$5,$6,$7,0*
20,1,$1+$1,$6,$7,$8,$9,0*
20,1,$1+$1,$8,$9,$2,$3,0*%
%AMFreePoly0*
4,1,6,0.725000,-0.725000,-0.125000,-0.725000,-0.725000,-0.125000,-0.725000,0.725000,0.725000,0.725000,0.725000,-0.725000,0.725000,-0.725000,$1*%
G04 Aperture macros list end*
%ADD10C,0.250000*%
%ADD11C,0.150000*%
%ADD12C,0.200000*%
%ADD13C,0.350000*%
%ADD14C,0.100000*%
%ADD15C,0.120000*%
%ADD16C,0.127000*%
%ADD17O,1.600000X2.000000*%
%ADD18C,1.000000*%
%ADD19RoundRect,0.082000X-0.328000X-0.618000X0.328000X-0.618000X0.328000X0.618000X-0.328000X0.618000X0*%
%ADD20RoundRect,0.140000X-0.170000X0.140000X-0.170000X-0.140000X0.170000X-0.140000X0.170000X0.140000X0*%
%ADD21RoundRect,0.140000X0.140000X0.170000X-0.140000X0.170000X-0.140000X-0.170000X0.140000X-0.170000X0*%
%ADD22RoundRect,0.250000X-0.450000X0.350000X-0.450000X-0.350000X0.450000X-0.350000X0.450000X0.350000X0*%
%ADD23RoundRect,0.135000X0.185000X-0.135000X0.185000X0.135000X-0.185000X0.135000X-0.185000X-0.135000X0*%
%ADD24RoundRect,0.062500X-0.062500X0.325000X-0.062500X-0.325000X0.062500X-0.325000X0.062500X0.325000X0*%
%ADD25RoundRect,0.062500X-0.325000X0.062500X-0.325000X-0.062500X0.325000X-0.062500X0.325000X0.062500X0*%
%ADD26R,1.800000X1.800000*%
%ADD27RoundRect,0.180000X2.570000X-0.420000X2.570000X0.420000X-2.570000X0.420000X-2.570000X-0.420000X0*%
%ADD28RoundRect,0.225000X1.275000X-0.525000X1.275000X0.525000X-1.275000X0.525000X-1.275000X-0.525000X0*%
%ADD29RoundRect,0.250000X0.250000X0.475000X-0.250000X0.475000X-0.250000X-0.475000X0.250000X-0.475000X0*%
%ADD30RoundRect,0.250000X-0.250000X-0.475000X0.250000X-0.475000X0.250000X0.475000X-0.250000X0.475000X0*%
%ADD31RoundRect,0.150000X-0.512500X-0.150000X0.512500X-0.150000X0.512500X0.150000X-0.512500X0.150000X0*%
%ADD32RoundRect,0.140000X-0.140000X-0.170000X0.140000X-0.170000X0.140000X0.170000X-0.140000X0.170000X0*%
%ADD33RoundRect,0.135000X-0.135000X-0.185000X0.135000X-0.185000X0.135000X0.185000X-0.135000X0.185000X0*%
%ADD34RoundRect,0.180000X-2.570000X0.420000X-2.570000X-0.420000X2.570000X-0.420000X2.570000X0.420000X0*%
%ADD35RoundRect,0.225000X-1.275000X0.525000X-1.275000X-0.525000X1.275000X-0.525000X1.275000X0.525000X0*%
%ADD36RoundRect,0.135000X0.135000X0.185000X-0.135000X0.185000X-0.135000X-0.185000X0.135000X-0.185000X0*%
%ADD37RoundRect,0.135000X-0.185000X0.135000X-0.185000X-0.135000X0.185000X-0.135000X0.185000X0.135000X0*%
%ADD38RoundRect,0.250000X0.650000X-0.950000X0.650000X0.950000X-0.650000X0.950000X-0.650000X-0.950000X0*%
%ADD39RoundRect,0.250000X0.450000X-0.350000X0.450000X0.350000X-0.450000X0.350000X-0.450000X-0.350000X0*%
%ADD40R,1.000000X2.510000*%
%ADD41RoundRect,0.220000X0.330000X-0.780000X0.330000X0.780000X-0.330000X0.780000X-0.330000X-0.780000X0*%
%ADD42RoundRect,0.250000X-0.350000X-0.450000X0.350000X-0.450000X0.350000X0.450000X-0.350000X0.450000X0*%
%ADD43RoundRect,0.140000X0.170000X-0.140000X0.170000X0.140000X-0.170000X0.140000X-0.170000X-0.140000X0*%
%ADD44RoundRect,0.062500X0.062500X-0.325000X0.062500X0.325000X-0.062500X0.325000X-0.062500X-0.325000X0*%
%ADD45RoundRect,0.062500X0.325000X-0.062500X0.325000X0.062500X-0.325000X0.062500X-0.325000X-0.062500X0*%
%ADD46R,0.800000X0.400000*%
%ADD47R,0.400000X0.800000*%
%ADD48R,1.450000X1.450000*%
%ADD49FreePoly0,0.000000*%
%ADD50R,0.700000X0.700000*%
%ADD51RoundRect,0.225000X0.225000X0.250000X-0.225000X0.250000X-0.225000X-0.250000X0.225000X-0.250000X0*%
%ADD52RoundRect,0.225000X-0.225000X-0.250000X0.225000X-0.250000X0.225000X0.250000X-0.225000X0.250000X0*%
%ADD53C,0.650000*%
%ADD54RoundRect,0.150000X-0.150000X-0.575000X0.150000X-0.575000X0.150000X0.575000X-0.150000X0.575000X0*%
%ADD55RoundRect,0.075000X-0.075000X-0.650000X0.075000X-0.650000X0.075000X0.650000X-0.075000X0.650000X0*%
%ADD56O,1.000000X1.600000*%
%ADD57O,1.000000X2.100000*%
G04 APERTURE END LIST*
D10*
X83159500Y-79000001D02*
X83230928Y-79171430D01*
X83230928Y-79171430D02*
X83230928Y-79457144D01*
X83230928Y-79457144D02*
X83159500Y-79571430D01*
X83159500Y-79571430D02*
X83088071Y-79628572D01*
X83088071Y-79628572D02*
X82945214Y-79685715D01*
X82945214Y-79685715D02*
X82802357Y-79685715D01*
X82802357Y-79685715D02*
X82659500Y-79628572D01*
X82659500Y-79628572D02*
X82588071Y-79571430D01*
X82588071Y-79571430D02*
X82516642Y-79457144D01*
X82516642Y-79457144D02*
X82445214Y-79228572D01*
X82445214Y-79228572D02*
X82373785Y-79114287D01*
X82373785Y-79114287D02*
X82302357Y-79057144D01*
X82302357Y-79057144D02*
X82159500Y-79000001D01*
X82159500Y-79000001D02*
X82016642Y-79000001D01*
X82016642Y-79000001D02*
X81873785Y-79057144D01*
X81873785Y-79057144D02*
X81802357Y-79114287D01*
X81802357Y-79114287D02*
X81730928Y-79228572D01*
X81730928Y-79228572D02*
X81730928Y-79514287D01*
X81730928Y-79514287D02*
X81802357Y-79685715D01*
X82230928Y-80028572D02*
X82230928Y-80485715D01*
X81730928Y-80200001D02*
X83016642Y-80200001D01*
X83016642Y-80200001D02*
X83159500Y-80257144D01*
X83159500Y-80257144D02*
X83230928Y-80371429D01*
X83230928Y-80371429D02*
X83230928Y-80485715D01*
X83159500Y-81342858D02*
X83230928Y-81228572D01*
X83230928Y-81228572D02*
X83230928Y-81000001D01*
X83230928Y-81000001D02*
X83159500Y-80885715D01*
X83159500Y-80885715D02*
X83016642Y-80828572D01*
X83016642Y-80828572D02*
X82445214Y-80828572D01*
X82445214Y-80828572D02*
X82302357Y-80885715D01*
X82302357Y-80885715D02*
X82230928Y-81000001D01*
X82230928Y-81000001D02*
X82230928Y-81228572D01*
X82230928Y-81228572D02*
X82302357Y-81342858D01*
X82302357Y-81342858D02*
X82445214Y-81400001D01*
X82445214Y-81400001D02*
X82588071Y-81400001D01*
X82588071Y-81400001D02*
X82730928Y-80828572D01*
X82230928Y-81914286D02*
X83730928Y-81914286D01*
X82302357Y-81914286D02*
X82230928Y-82028572D01*
X82230928Y-82028572D02*
X82230928Y-82257143D01*
X82230928Y-82257143D02*
X82302357Y-82371429D01*
X82302357Y-82371429D02*
X82373785Y-82428572D01*
X82373785Y-82428572D02*
X82516642Y-82485714D01*
X82516642Y-82485714D02*
X82945214Y-82485714D01*
X82945214Y-82485714D02*
X83088071Y-82428572D01*
X83088071Y-82428572D02*
X83159500Y-82371429D01*
X83159500Y-82371429D02*
X83230928Y-82257143D01*
X83230928Y-82257143D02*
X83230928Y-82028572D01*
X83230928Y-82028572D02*
X83159500Y-81914286D01*
X82230928Y-83000000D02*
X83730928Y-83000000D01*
X82302357Y-83000000D02*
X82230928Y-83114286D01*
X82230928Y-83114286D02*
X82230928Y-83342857D01*
X82230928Y-83342857D02*
X82302357Y-83457143D01*
X82302357Y-83457143D02*
X82373785Y-83514286D01*
X82373785Y-83514286D02*
X82516642Y-83571428D01*
X82516642Y-83571428D02*
X82945214Y-83571428D01*
X82945214Y-83571428D02*
X83088071Y-83514286D01*
X83088071Y-83514286D02*
X83159500Y-83457143D01*
X83159500Y-83457143D02*
X83230928Y-83342857D01*
X83230928Y-83342857D02*
X83230928Y-83114286D01*
X83230928Y-83114286D02*
X83159500Y-83000000D01*
X83159500Y-84542857D02*
X83230928Y-84428571D01*
X83230928Y-84428571D02*
X83230928Y-84200000D01*
X83230928Y-84200000D02*
X83159500Y-84085714D01*
X83159500Y-84085714D02*
X83016642Y-84028571D01*
X83016642Y-84028571D02*
X82445214Y-84028571D01*
X82445214Y-84028571D02*
X82302357Y-84085714D01*
X82302357Y-84085714D02*
X82230928Y-84200000D01*
X82230928Y-84200000D02*
X82230928Y-84428571D01*
X82230928Y-84428571D02*
X82302357Y-84542857D01*
X82302357Y-84542857D02*
X82445214Y-84600000D01*
X82445214Y-84600000D02*
X82588071Y-84600000D01*
X82588071Y-84600000D02*
X82730928Y-84028571D01*
X83230928Y-85114285D02*
X82230928Y-85114285D01*
X82516642Y-85114285D02*
X82373785Y-85171428D01*
X82373785Y-85171428D02*
X82302357Y-85228571D01*
X82302357Y-85228571D02*
X82230928Y-85342856D01*
X82230928Y-85342856D02*
X82230928Y-85457142D01*
X83230928Y-87399999D02*
X83230928Y-86714285D01*
X83230928Y-87057142D02*
X81730928Y-87057142D01*
X81730928Y-87057142D02*
X81945214Y-86942856D01*
X81945214Y-86942856D02*
X82088071Y-86828571D01*
X82088071Y-86828571D02*
X82159500Y-86714285D01*
X105109500Y-103600001D02*
X105180928Y-103771430D01*
X105180928Y-103771430D02*
X105180928Y-104057144D01*
X105180928Y-104057144D02*
X105109500Y-104171430D01*
X105109500Y-104171430D02*
X105038071Y-104228572D01*
X105038071Y-104228572D02*
X104895214Y-104285715D01*
X104895214Y-104285715D02*
X104752357Y-104285715D01*
X104752357Y-104285715D02*
X104609500Y-104228572D01*
X104609500Y-104228572D02*
X104538071Y-104171430D01*
X104538071Y-104171430D02*
X104466642Y-104057144D01*
X104466642Y-104057144D02*
X104395214Y-103828572D01*
X104395214Y-103828572D02*
X104323785Y-103714287D01*
X104323785Y-103714287D02*
X104252357Y-103657144D01*
X104252357Y-103657144D02*
X104109500Y-103600001D01*
X104109500Y-103600001D02*
X103966642Y-103600001D01*
X103966642Y-103600001D02*
X103823785Y-103657144D01*
X103823785Y-103657144D02*
X103752357Y-103714287D01*
X103752357Y-103714287D02*
X103680928Y-103828572D01*
X103680928Y-103828572D02*
X103680928Y-104114287D01*
X103680928Y-104114287D02*
X103752357Y-104285715D01*
X104180928Y-104628572D02*
X104180928Y-105085715D01*
X103680928Y-104800001D02*
X104966642Y-104800001D01*
X104966642Y-104800001D02*
X105109500Y-104857144D01*
X105109500Y-104857144D02*
X105180928Y-104971429D01*
X105180928Y-104971429D02*
X105180928Y-105085715D01*
X105109500Y-105942858D02*
X105180928Y-105828572D01*
X105180928Y-105828572D02*
X105180928Y-105600001D01*
X105180928Y-105600001D02*
X105109500Y-105485715D01*
X105109500Y-105485715D02*
X104966642Y-105428572D01*
X104966642Y-105428572D02*
X104395214Y-105428572D01*
X104395214Y-105428572D02*
X104252357Y-105485715D01*
X104252357Y-105485715D02*
X104180928Y-105600001D01*
X104180928Y-105600001D02*
X104180928Y-105828572D01*
X104180928Y-105828572D02*
X104252357Y-105942858D01*
X104252357Y-105942858D02*
X104395214Y-106000001D01*
X104395214Y-106000001D02*
X104538071Y-106000001D01*
X104538071Y-106000001D02*
X104680928Y-105428572D01*
X104180928Y-106514286D02*
X105680928Y-106514286D01*
X104252357Y-106514286D02*
X104180928Y-106628572D01*
X104180928Y-106628572D02*
X104180928Y-106857143D01*
X104180928Y-106857143D02*
X104252357Y-106971429D01*
X104252357Y-106971429D02*
X104323785Y-107028572D01*
X104323785Y-107028572D02*
X104466642Y-107085714D01*
X104466642Y-107085714D02*
X104895214Y-107085714D01*
X104895214Y-107085714D02*
X105038071Y-107028572D01*
X105038071Y-107028572D02*
X105109500Y-106971429D01*
X105109500Y-106971429D02*
X105180928Y-106857143D01*
X105180928Y-106857143D02*
X105180928Y-106628572D01*
X105180928Y-106628572D02*
X105109500Y-106514286D01*
X104180928Y-107600000D02*
X105680928Y-107600000D01*
X104252357Y-107600000D02*
X104180928Y-107714286D01*
X104180928Y-107714286D02*
X104180928Y-107942857D01*
X104180928Y-107942857D02*
X104252357Y-108057143D01*
X104252357Y-108057143D02*
X104323785Y-108114286D01*
X104323785Y-108114286D02*
X104466642Y-108171428D01*
X104466642Y-108171428D02*
X104895214Y-108171428D01*
X104895214Y-108171428D02*
X105038071Y-108114286D01*
X105038071Y-108114286D02*
X105109500Y-108057143D01*
X105109500Y-108057143D02*
X105180928Y-107942857D01*
X105180928Y-107942857D02*
X105180928Y-107714286D01*
X105180928Y-107714286D02*
X105109500Y-107600000D01*
X105109500Y-109142857D02*
X105180928Y-109028571D01*
X105180928Y-109028571D02*
X105180928Y-108800000D01*
X105180928Y-108800000D02*
X105109500Y-108685714D01*
X105109500Y-108685714D02*
X104966642Y-108628571D01*
X104966642Y-108628571D02*
X104395214Y-108628571D01*
X104395214Y-108628571D02*
X104252357Y-108685714D01*
X104252357Y-108685714D02*
X104180928Y-108800000D01*
X104180928Y-108800000D02*
X104180928Y-109028571D01*
X104180928Y-109028571D02*
X104252357Y-109142857D01*
X104252357Y-109142857D02*
X104395214Y-109200000D01*
X104395214Y-109200000D02*
X104538071Y-109200000D01*
X104538071Y-109200000D02*
X104680928Y-108628571D01*
X105180928Y-109714285D02*
X104180928Y-109714285D01*
X104466642Y-109714285D02*
X104323785Y-109771428D01*
X104323785Y-109771428D02*
X104252357Y-109828571D01*
X104252357Y-109828571D02*
X104180928Y-109942856D01*
X104180928Y-109942856D02*
X104180928Y-110057142D01*
X103823785Y-111314285D02*
X103752357Y-111371428D01*
X103752357Y-111371428D02*
X103680928Y-111485714D01*
X103680928Y-111485714D02*
X103680928Y-111771428D01*
X103680928Y-111771428D02*
X103752357Y-111885714D01*
X103752357Y-111885714D02*
X103823785Y-111942856D01*
X103823785Y-111942856D02*
X103966642Y-111999999D01*
X103966642Y-111999999D02*
X104109500Y-111999999D01*
X104109500Y-111999999D02*
X104323785Y-111942856D01*
X104323785Y-111942856D02*
X105180928Y-111257142D01*
X105180928Y-111257142D02*
X105180928Y-111999999D01*
D11*
X98023866Y-86019048D02*
X98023866Y-86780953D01*
X104273866Y-86119048D02*
X104273866Y-86880953D01*
X104654819Y-86500000D02*
X103892914Y-86500000D01*
X100111905Y-132069104D02*
X99635715Y-132069104D01*
X100207143Y-132354819D02*
X99873810Y-131354819D01*
X99873810Y-131354819D02*
X99540477Y-132354819D01*
X99207143Y-131688152D02*
X99207143Y-132354819D01*
X99207143Y-131783390D02*
X99159524Y-131735771D01*
X99159524Y-131735771D02*
X99064286Y-131688152D01*
X99064286Y-131688152D02*
X98921429Y-131688152D01*
X98921429Y-131688152D02*
X98826191Y-131735771D01*
X98826191Y-131735771D02*
X98778572Y-131831009D01*
X98778572Y-131831009D02*
X98778572Y-132354819D01*
X98445238Y-131688152D02*
X98064286Y-131688152D01*
X98302381Y-131354819D02*
X98302381Y-132211961D01*
X98302381Y-132211961D02*
X98254762Y-132307200D01*
X98254762Y-132307200D02*
X98159524Y-132354819D01*
X98159524Y-132354819D02*
X98064286Y-132354819D01*
X97350000Y-132307200D02*
X97445238Y-132354819D01*
X97445238Y-132354819D02*
X97635714Y-132354819D01*
X97635714Y-132354819D02*
X97730952Y-132307200D01*
X97730952Y-132307200D02*
X97778571Y-132211961D01*
X97778571Y-132211961D02*
X97778571Y-131831009D01*
X97778571Y-131831009D02*
X97730952Y-131735771D01*
X97730952Y-131735771D02*
X97635714Y-131688152D01*
X97635714Y-131688152D02*
X97445238Y-131688152D01*
X97445238Y-131688152D02*
X97350000Y-131735771D01*
X97350000Y-131735771D02*
X97302381Y-131831009D01*
X97302381Y-131831009D02*
X97302381Y-131926247D01*
X97302381Y-131926247D02*
X97778571Y-132021485D01*
X96873809Y-131688152D02*
X96873809Y-132354819D01*
X96873809Y-131783390D02*
X96826190Y-131735771D01*
X96826190Y-131735771D02*
X96730952Y-131688152D01*
X96730952Y-131688152D02*
X96588095Y-131688152D01*
X96588095Y-131688152D02*
X96492857Y-131735771D01*
X96492857Y-131735771D02*
X96445238Y-131831009D01*
X96445238Y-131831009D02*
X96445238Y-132354819D01*
X95969047Y-131688152D02*
X95969047Y-132354819D01*
X95969047Y-131783390D02*
X95921428Y-131735771D01*
X95921428Y-131735771D02*
X95826190Y-131688152D01*
X95826190Y-131688152D02*
X95683333Y-131688152D01*
X95683333Y-131688152D02*
X95588095Y-131735771D01*
X95588095Y-131735771D02*
X95540476Y-131831009D01*
X95540476Y-131831009D02*
X95540476Y-132354819D01*
X94635714Y-132354819D02*
X94635714Y-131831009D01*
X94635714Y-131831009D02*
X94683333Y-131735771D01*
X94683333Y-131735771D02*
X94778571Y-131688152D01*
X94778571Y-131688152D02*
X94969047Y-131688152D01*
X94969047Y-131688152D02*
X95064285Y-131735771D01*
X94635714Y-132307200D02*
X94730952Y-132354819D01*
X94730952Y-132354819D02*
X94969047Y-132354819D01*
X94969047Y-132354819D02*
X95064285Y-132307200D01*
X95064285Y-132307200D02*
X95111904Y-132211961D01*
X95111904Y-132211961D02*
X95111904Y-132116723D01*
X95111904Y-132116723D02*
X95064285Y-132021485D01*
X95064285Y-132021485D02*
X94969047Y-131973866D01*
X94969047Y-131973866D02*
X94730952Y-131973866D01*
X94730952Y-131973866D02*
X94635714Y-131926247D01*
X93445237Y-132069104D02*
X92969047Y-132069104D01*
X93540475Y-132354819D02*
X93207142Y-131354819D01*
X93207142Y-131354819D02*
X92873809Y-132354819D01*
X92540475Y-132354819D02*
X92540475Y-131688152D01*
X92540475Y-131878628D02*
X92492856Y-131783390D01*
X92492856Y-131783390D02*
X92445237Y-131735771D01*
X92445237Y-131735771D02*
X92349999Y-131688152D01*
X92349999Y-131688152D02*
X92254761Y-131688152D01*
X91540475Y-132307200D02*
X91635713Y-132354819D01*
X91635713Y-132354819D02*
X91826189Y-132354819D01*
X91826189Y-132354819D02*
X91921427Y-132307200D01*
X91921427Y-132307200D02*
X91969046Y-132211961D01*
X91969046Y-132211961D02*
X91969046Y-131831009D01*
X91969046Y-131831009D02*
X91921427Y-131735771D01*
X91921427Y-131735771D02*
X91826189Y-131688152D01*
X91826189Y-131688152D02*
X91635713Y-131688152D01*
X91635713Y-131688152D02*
X91540475Y-131735771D01*
X91540475Y-131735771D02*
X91492856Y-131831009D01*
X91492856Y-131831009D02*
X91492856Y-131926247D01*
X91492856Y-131926247D02*
X91969046Y-132021485D01*
X90635713Y-132354819D02*
X90635713Y-131831009D01*
X90635713Y-131831009D02*
X90683332Y-131735771D01*
X90683332Y-131735771D02*
X90778570Y-131688152D01*
X90778570Y-131688152D02*
X90969046Y-131688152D01*
X90969046Y-131688152D02*
X91064284Y-131735771D01*
X90635713Y-132307200D02*
X90730951Y-132354819D01*
X90730951Y-132354819D02*
X90969046Y-132354819D01*
X90969046Y-132354819D02*
X91064284Y-132307200D01*
X91064284Y-132307200D02*
X91111903Y-132211961D01*
X91111903Y-132211961D02*
X91111903Y-132116723D01*
X91111903Y-132116723D02*
X91064284Y-132021485D01*
X91064284Y-132021485D02*
X90969046Y-131973866D01*
X90969046Y-131973866D02*
X90730951Y-131973866D01*
X90730951Y-131973866D02*
X90635713Y-131926247D01*
%TO.C,D21*%
D12*
X77750000Y-101400000D02*
X78550000Y-102200000D01*
D13*
X80725000Y-96200000D02*
G75*
G02*
X80375000Y-96200000I-175000J0D01*
G01*
X80375000Y-96200000D02*
G75*
G02*
X80725000Y-96200000I175000J0D01*
G01*
D14*
X79350000Y-103800000D02*
X78750000Y-103800000D01*
X79050000Y-103500000D01*
X79350000Y-103800000D01*
G36*
X79350000Y-103800000D02*
G01*
X78750000Y-103800000D01*
X79050000Y-103500000D01*
X79350000Y-103800000D01*
G37*
%TO.C,C15*%
D15*
X88940000Y-113792164D02*
X88940000Y-114007836D01*
X89660000Y-113792164D02*
X89660000Y-114007836D01*
%TO.C,C10*%
X98207836Y-92540000D02*
X97992164Y-92540000D01*
X98207836Y-93260000D02*
X97992164Y-93260000D01*
%TO.C,C3*%
X79957836Y-95190000D02*
X79742164Y-95190000D01*
X79957836Y-95910000D02*
X79742164Y-95910000D01*
%TO.C,R2*%
X95115000Y-83322936D02*
X95115000Y-83777064D01*
X96585000Y-83322936D02*
X96585000Y-83777064D01*
%TO.C,R23*%
X87970000Y-113103641D02*
X87970000Y-112796359D01*
X88730000Y-113103641D02*
X88730000Y-112796359D01*
%TO.C,U4*%
X86840000Y-108140000D02*
X86840000Y-108615000D01*
X86840000Y-110885000D02*
X86840000Y-111360000D01*
X86840000Y-111360000D02*
X87315000Y-111360000D01*
X87315000Y-108140000D02*
X86840000Y-108140000D01*
X89585000Y-111360000D02*
X90060000Y-111360000D01*
X90060000Y-108140000D02*
X89585000Y-108140000D01*
X90060000Y-108615000D02*
X90060000Y-108140000D01*
X90060000Y-111360000D02*
X90060000Y-110885000D01*
X87700000Y-107610000D02*
X87460000Y-107280000D01*
X87940000Y-107280000D01*
X87700000Y-107610000D01*
G36*
X87700000Y-107610000D02*
G01*
X87460000Y-107280000D01*
X87940000Y-107280000D01*
X87700000Y-107610000D01*
G37*
%TO.C,J1*%
D14*
X81850000Y-104650000D02*
X82350000Y-104650000D01*
X81875000Y-94650000D02*
X82375000Y-94650000D01*
X82350000Y-103450000D02*
X81850000Y-103450000D01*
X82350000Y-104650000D02*
X82350000Y-103450000D01*
X82375000Y-93450000D02*
X81850000Y-93450000D01*
X82375000Y-94650000D02*
X82375000Y-93450000D01*
X81850000Y-91550000D02*
X87550000Y-91550000D01*
X87550000Y-106550000D01*
X81850000Y-106550000D01*
X81850000Y-91550000D01*
%TO.C,C17*%
D15*
X92561252Y-97415000D02*
X92038748Y-97415000D01*
X92561252Y-98885000D02*
X92038748Y-98885000D01*
%TO.C,C2*%
X110438748Y-69115000D02*
X110961252Y-69115000D01*
X110438748Y-70585000D02*
X110961252Y-70585000D01*
%TO.C,C14*%
X85140000Y-113142164D02*
X85140000Y-113357836D01*
X85860000Y-113142164D02*
X85860000Y-113357836D01*
%TO.C,U2*%
X106990000Y-70940000D02*
X106990000Y-70990000D01*
X106990000Y-72110000D02*
X106990000Y-72890000D01*
X106990000Y-74010000D02*
X106990000Y-74060000D01*
X106990000Y-74060000D02*
X108810000Y-74060000D01*
X108810000Y-70940000D02*
X106990000Y-70940000D01*
X108810000Y-71940000D02*
X108810000Y-70940000D01*
X108810000Y-74060000D02*
X108810000Y-73060000D01*
X106450000Y-72880000D02*
X106210000Y-72550000D01*
X106690000Y-72550000D01*
X106450000Y-72880000D01*
G36*
X106450000Y-72880000D02*
G01*
X106210000Y-72550000D01*
X106690000Y-72550000D01*
X106450000Y-72880000D01*
G37*
%TO.C,C1*%
X109842164Y-70990000D02*
X110057836Y-70990000D01*
X109842164Y-71710000D02*
X110057836Y-71710000D01*
%TO.C,C9*%
X99142164Y-98040000D02*
X99357836Y-98040000D01*
X99142164Y-98760000D02*
X99357836Y-98760000D01*
%TO.C,R14*%
X99096359Y-96120000D02*
X99403641Y-96120000D01*
X99096359Y-96880000D02*
X99403641Y-96880000D01*
%TO.C,C12*%
X87061252Y-126415000D02*
X86538748Y-126415000D01*
X87061252Y-127885000D02*
X86538748Y-127885000D01*
%TO.C,R19*%
X86070000Y-113103641D02*
X86070000Y-112796359D01*
X86830000Y-113103641D02*
X86830000Y-112796359D01*
%TO.C,J2*%
D14*
X102475000Y-112600000D02*
X102475000Y-113800000D01*
X102475000Y-113800000D02*
X103000000Y-113800000D01*
X102500000Y-102600000D02*
X102500000Y-103800000D01*
X102500000Y-103800000D02*
X103000000Y-103800000D01*
X102975000Y-112600000D02*
X102475000Y-112600000D01*
X103000000Y-102600000D02*
X102500000Y-102600000D01*
X97300000Y-100700000D02*
X103000000Y-100700000D01*
X103000000Y-115700000D01*
X97300000Y-115700000D01*
X97300000Y-100700000D01*
%TO.C,R16*%
D15*
X85153641Y-111470000D02*
X84846359Y-111470000D01*
X85153641Y-112230000D02*
X84846359Y-112230000D01*
%TO.C,R22*%
X95320000Y-95096359D02*
X95320000Y-95403641D01*
X96080000Y-95096359D02*
X96080000Y-95403641D01*
%TO.C,BZ1*%
D16*
X97350000Y-82850000D02*
X97350000Y-79450000D01*
X99400000Y-77400000D02*
X102800000Y-77400000D01*
X102800000Y-84900000D02*
X99400000Y-84900000D01*
X104850000Y-79450000D02*
X104850000Y-82850000D01*
D15*
X104850000Y-80750000D02*
X101500000Y-77400000D01*
X99850000Y-77400000D02*
X102350000Y-77400000D01*
X102350000Y-78500000D01*
X99850000Y-78500000D01*
X99850000Y-77400000D01*
%TO.C,R5*%
X91615000Y-95277064D02*
X91615000Y-94822936D01*
X93085000Y-95277064D02*
X93085000Y-94822936D01*
%TO.C,R9*%
X90020000Y-76446359D02*
X90020000Y-76753641D01*
X90780000Y-76446359D02*
X90780000Y-76753641D01*
%TO.C,J3*%
X91680000Y-90280000D02*
X91680000Y-87520000D01*
X92250000Y-87520000D02*
X91680000Y-87520000D01*
X94790000Y-87520000D02*
X91680000Y-87520000D01*
X97330000Y-90280000D02*
X93870000Y-90280000D01*
X98950000Y-87520000D02*
X96410000Y-87520000D01*
X98950000Y-90280000D02*
X98950000Y-91750000D01*
X99520000Y-90280000D02*
X98950000Y-90280000D01*
X99520000Y-90280000D02*
X99520000Y-87520000D01*
%TO.C,SW1*%
X81070000Y-117620000D02*
X81100000Y-117620000D01*
X81070000Y-124080000D02*
X81070000Y-117620000D01*
X81070000Y-124080000D02*
X81100000Y-124080000D01*
X85600000Y-117620000D02*
X83000000Y-117620000D01*
X85600000Y-124080000D02*
X83000000Y-124080000D01*
X87500000Y-124080000D02*
X87530000Y-124080000D01*
X87530000Y-117620000D02*
X87500000Y-117620000D01*
X87530000Y-124080000D02*
X87530000Y-117620000D01*
%TO.C,R17*%
X89870000Y-114653641D02*
X89870000Y-114346359D01*
X90630000Y-114653641D02*
X90630000Y-114346359D01*
%TO.C,R20*%
X91872936Y-105915000D02*
X92327064Y-105915000D01*
X91872936Y-107385000D02*
X92327064Y-107385000D01*
%TO.C,R3*%
X103870000Y-71853641D02*
X103870000Y-71546359D01*
X104630000Y-71853641D02*
X104630000Y-71546359D01*
%TO.C,C7*%
X96340000Y-93457836D02*
X96340000Y-93242164D01*
X97060000Y-93457836D02*
X97060000Y-93242164D01*
%TO.C,C8*%
X93440000Y-94157836D02*
X93440000Y-93942164D01*
X94160000Y-94157836D02*
X94160000Y-93942164D01*
%TO.C,R10*%
X97270000Y-95096359D02*
X97270000Y-95403641D01*
X98030000Y-95096359D02*
X98030000Y-95403641D01*
%TO.C,U3*%
X94540000Y-97190000D02*
X94540000Y-97665000D01*
X94540000Y-99935000D02*
X94540000Y-100410000D01*
X94540000Y-100410000D02*
X95015000Y-100410000D01*
X95015000Y-97190000D02*
X94540000Y-97190000D01*
X97285000Y-100410000D02*
X97760000Y-100410000D01*
X97760000Y-97190000D02*
X97285000Y-97190000D01*
X97760000Y-97665000D02*
X97760000Y-97190000D01*
X97760000Y-100410000D02*
X97760000Y-99935000D01*
X97140000Y-101270000D02*
X96660000Y-101270000D01*
X96900000Y-100940000D01*
X97140000Y-101270000D01*
G36*
X97140000Y-101270000D02*
G01*
X96660000Y-101270000D01*
X96900000Y-100940000D01*
X97140000Y-101270000D01*
G37*
%TO.C,U1*%
X88550000Y-117550000D02*
X89350000Y-117550000D01*
X88550000Y-118350000D02*
X88550000Y-117550000D01*
X88750000Y-117750000D02*
X88750000Y-134350000D01*
X88750000Y-128950000D02*
X101950000Y-128950000D01*
X88750000Y-134350000D02*
X101950000Y-134350000D01*
X89425000Y-134550000D02*
X88575000Y-134550000D01*
X101400000Y-134550000D02*
X102150000Y-134550000D01*
X101950000Y-117750000D02*
X88750000Y-117750000D01*
X101950000Y-134350000D02*
X101950000Y-117750000D01*
X102150000Y-117550000D02*
X101350000Y-117550000D01*
X102150000Y-118350000D02*
X102150000Y-117550000D01*
X102150000Y-134550000D02*
X102150000Y-133950000D01*
%TO.C,SW8*%
X84170000Y-81670000D02*
X84200000Y-81670000D01*
X84170000Y-88130000D02*
X84170000Y-81670000D01*
X84170000Y-88130000D02*
X84200000Y-88130000D01*
X88700000Y-81670000D02*
X86100000Y-81670000D01*
X88700000Y-88130000D02*
X86100000Y-88130000D01*
X90600000Y-88130000D02*
X90630000Y-88130000D01*
X90630000Y-81670000D02*
X90600000Y-81670000D01*
X90630000Y-88130000D02*
X90630000Y-81670000D01*
%TO.C,R8*%
X91020000Y-76446359D02*
X91020000Y-76753641D01*
X91780000Y-76446359D02*
X91780000Y-76753641D01*
%TO.C,R6*%
X91365000Y-102522936D02*
X91365000Y-102977064D01*
X92835000Y-102522936D02*
X92835000Y-102977064D01*
%TO.C,C18*%
X92640580Y-99390000D02*
X92359420Y-99390000D01*
X92640580Y-100410000D02*
X92359420Y-100410000D01*
%TO.C,C6*%
X91959420Y-108090000D02*
X92240580Y-108090000D01*
X91959420Y-109110000D02*
X92240580Y-109110000D01*
%TO.C,C4*%
X104890000Y-71592164D02*
X104890000Y-71807836D01*
X105610000Y-71592164D02*
X105610000Y-71807836D01*
%TO.C,R25*%
X87970000Y-114696359D02*
X87970000Y-115003641D01*
X88730000Y-114696359D02*
X88730000Y-115003641D01*
%TO.C,R15*%
X85153641Y-110470000D02*
X84846359Y-110470000D01*
X85153641Y-111230000D02*
X84846359Y-111230000D01*
%TO.C,C5*%
X92038748Y-109615000D02*
X92561252Y-109615000D01*
X92038748Y-111085000D02*
X92561252Y-111085000D01*
%TO.C,R7*%
X92520000Y-76446359D02*
X92520000Y-76753641D01*
X93280000Y-76446359D02*
X93280000Y-76753641D01*
%TO.C,R18*%
X87020000Y-113103641D02*
X87020000Y-112796359D01*
X87780000Y-113103641D02*
X87780000Y-112796359D01*
%TO.C,R21*%
X90965000Y-113172936D02*
X90965000Y-113627064D01*
X92435000Y-113172936D02*
X92435000Y-113627064D01*
%TO.C,R13*%
X99096359Y-97070000D02*
X99403641Y-97070000D01*
X99096359Y-97830000D02*
X99403641Y-97830000D01*
%TO.C,J5*%
X85450000Y-66500000D02*
X94850000Y-66500000D01*
X85450000Y-68400000D02*
X85450000Y-66500000D01*
X85450000Y-72300000D02*
X85450000Y-70300000D01*
X94850000Y-68400000D02*
X94850000Y-66500000D01*
X94850000Y-72300000D02*
X94850000Y-70300000D01*
%TO.C,R24*%
X95320000Y-93196359D02*
X95320000Y-93503641D01*
X96080000Y-93196359D02*
X96080000Y-93503641D01*
%TO.C,C16*%
X87057836Y-113990000D02*
X86842164Y-113990000D01*
X87057836Y-114710000D02*
X86842164Y-114710000D01*
%TO.C,C11*%
X87690000Y-125057836D02*
X87690000Y-124842164D01*
X88410000Y-125057836D02*
X88410000Y-124842164D01*
%TO.C,R4*%
X102120000Y-71853641D02*
X102120000Y-71546359D01*
X102880000Y-71853641D02*
X102880000Y-71546359D01*
%TO.C,R12*%
X94370000Y-93896359D02*
X94370000Y-94203641D01*
X95130000Y-93896359D02*
X95130000Y-94203641D01*
%TO.C,R1*%
X88520000Y-76446359D02*
X88520000Y-76753641D01*
X89280000Y-76446359D02*
X89280000Y-76753641D01*
%TO.C,C13*%
X84190000Y-114407836D02*
X84190000Y-114192164D01*
X84910000Y-114407836D02*
X84910000Y-114192164D01*
%TO.C,R11*%
X96320000Y-95096359D02*
X96320000Y-95403641D01*
X97080000Y-95096359D02*
X97080000Y-95403641D01*
%TD*%
%LPC*%
D17*
%TO.C,SW2*%
X69080000Y-98800000D03*
X64000000Y-98800000D03*
X58900000Y-98800000D03*
%TD*%
%TO.C,J6*%
X117450000Y-74072500D03*
X114950000Y-74072500D03*
X112450000Y-74072500D03*
X109950000Y-74072500D03*
%TD*%
%TO.C,SW3*%
X69100000Y-101200000D03*
X64000000Y-101200000D03*
X58920000Y-101200000D03*
%TD*%
D18*
%TO.C,TP1*%
X98700000Y-94950000D03*
%TD*%
D17*
%TO.C,J4*%
X104850000Y-74072500D03*
X102350000Y-74072500D03*
X99850000Y-74072500D03*
X97350000Y-74072500D03*
%TD*%
D19*
%TO.C,D21*%
X80500000Y-97300000D03*
X79000000Y-97300000D03*
X79000000Y-102700000D03*
X80500000Y-102700000D03*
%TD*%
D20*
%TO.C,C15*%
X89300000Y-113420000D03*
X89300000Y-114380000D03*
%TD*%
D21*
%TO.C,C10*%
X98580000Y-92900000D03*
X97620000Y-92900000D03*
%TD*%
%TO.C,C3*%
X80330000Y-95550000D03*
X79370000Y-95550000D03*
%TD*%
D22*
%TO.C,R2*%
X95850000Y-82550000D03*
X95850000Y-84550000D03*
%TD*%
D23*
%TO.C,R23*%
X88350000Y-113460000D03*
X88350000Y-112440000D03*
%TD*%
D24*
%TO.C,U4*%
X87700000Y-108262500D03*
X88200000Y-108262500D03*
X88700000Y-108262500D03*
X89200000Y-108262500D03*
D25*
X89937500Y-109000000D03*
X89937500Y-109500000D03*
X89937500Y-110000000D03*
X89937500Y-110500000D03*
D24*
X89200000Y-111237500D03*
X88700000Y-111237500D03*
X88200000Y-111237500D03*
X87700000Y-111237500D03*
D25*
X86962500Y-110500000D03*
X86962500Y-110000000D03*
X86962500Y-109500000D03*
X86962500Y-109000000D03*
D26*
X88450000Y-109750000D03*
%TD*%
D27*
%TO.C,J1*%
X87750000Y-104050000D03*
X87750000Y-101550000D03*
X87750000Y-99050000D03*
X87750000Y-96550000D03*
X87750000Y-94050000D03*
D28*
X84000000Y-107150000D03*
X84000000Y-90950000D03*
%TD*%
D29*
%TO.C,C17*%
X93250000Y-98150000D03*
X91350000Y-98150000D03*
%TD*%
D30*
%TO.C,C2*%
X109750000Y-69850000D03*
X111650000Y-69850000D03*
%TD*%
D20*
%TO.C,C14*%
X85500000Y-112770000D03*
X85500000Y-113730000D03*
%TD*%
D31*
%TO.C,U2*%
X106762500Y-73450000D03*
X106762500Y-71550000D03*
X109037500Y-72500000D03*
%TD*%
D32*
%TO.C,C1*%
X109470000Y-71350000D03*
X110430000Y-71350000D03*
%TD*%
%TO.C,C9*%
X98770000Y-98400000D03*
X99730000Y-98400000D03*
%TD*%
D33*
%TO.C,R14*%
X98740000Y-96500000D03*
X99760000Y-96500000D03*
%TD*%
D29*
%TO.C,C12*%
X87750000Y-127150000D03*
X85850000Y-127150000D03*
%TD*%
D23*
%TO.C,R19*%
X86450000Y-113460000D03*
X86450000Y-112440000D03*
%TD*%
D34*
%TO.C,J2*%
X97100000Y-103200000D03*
X97100000Y-105700000D03*
X97100000Y-108200000D03*
X97100000Y-110700000D03*
X97100000Y-113200000D03*
D35*
X100850000Y-100100000D03*
X100850000Y-116300000D03*
%TD*%
D36*
%TO.C,R16*%
X85510000Y-111850000D03*
X84490000Y-111850000D03*
%TD*%
D37*
%TO.C,R22*%
X95700000Y-94740000D03*
X95700000Y-95760000D03*
%TD*%
D38*
%TO.C,BZ1*%
X98025000Y-77775000D03*
X104175000Y-77775000D03*
X98025000Y-84525000D03*
X104175000Y-84525000D03*
%TD*%
D39*
%TO.C,R5*%
X92350000Y-96050000D03*
X92350000Y-94050000D03*
%TD*%
D37*
%TO.C,R9*%
X90400000Y-76090000D03*
X90400000Y-77110000D03*
%TD*%
D40*
%TO.C,J3*%
X98140000Y-90555000D03*
X95600000Y-87245000D03*
X93060000Y-90555000D03*
%TD*%
D41*
%TO.C,SW1*%
X86550000Y-125100000D03*
X86550000Y-116600000D03*
X82050000Y-125100000D03*
X82050000Y-116600000D03*
%TD*%
D23*
%TO.C,R17*%
X90250000Y-115010000D03*
X90250000Y-113990000D03*
%TD*%
D42*
%TO.C,R20*%
X91100000Y-106650000D03*
X93100000Y-106650000D03*
%TD*%
D23*
%TO.C,R3*%
X104250000Y-72210000D03*
X104250000Y-71190000D03*
%TD*%
D43*
%TO.C,C7*%
X96700000Y-93830000D03*
X96700000Y-92870000D03*
%TD*%
%TO.C,C8*%
X93800000Y-94530000D03*
X93800000Y-93570000D03*
%TD*%
D37*
%TO.C,R10*%
X97650000Y-94740000D03*
X97650000Y-95760000D03*
%TD*%
D44*
%TO.C,U3*%
X96900000Y-100287500D03*
X96400000Y-100287500D03*
X95900000Y-100287500D03*
X95400000Y-100287500D03*
D45*
X94662500Y-99550000D03*
X94662500Y-99050000D03*
X94662500Y-98550000D03*
X94662500Y-98050000D03*
D44*
X95400000Y-97312500D03*
X95900000Y-97312500D03*
X96400000Y-97312500D03*
X96900000Y-97312500D03*
D45*
X97637500Y-98050000D03*
X97637500Y-98550000D03*
X97637500Y-99050000D03*
X97637500Y-99550000D03*
D26*
X96150000Y-98800000D03*
%TD*%
D46*
%TO.C,U1*%
X89450000Y-127350000D03*
X89450000Y-126550000D03*
X89450000Y-125750000D03*
X89450000Y-124950000D03*
X89450000Y-124150000D03*
X89450000Y-123350000D03*
X89450000Y-122550000D03*
X89450000Y-121750000D03*
X89450000Y-120950000D03*
X89450000Y-120150000D03*
X89450000Y-119350000D03*
D47*
X90550000Y-118450000D03*
X91350000Y-118450000D03*
X92150000Y-118450000D03*
X92950000Y-118450000D03*
X93750000Y-118450000D03*
X94550000Y-118450000D03*
X95350000Y-118450000D03*
X96150000Y-118450000D03*
X96950000Y-118450000D03*
X97750000Y-118450000D03*
X98550000Y-118450000D03*
X99350000Y-118450000D03*
X100150000Y-118450000D03*
D46*
X101250000Y-119350000D03*
X101250000Y-120150000D03*
X101250000Y-120950000D03*
X101250000Y-121750000D03*
X101250000Y-122550000D03*
X101250000Y-123350000D03*
X101250000Y-124150000D03*
X101250000Y-124950000D03*
X101250000Y-125750000D03*
X101250000Y-126550000D03*
X101250000Y-127350000D03*
D47*
X100150000Y-128250000D03*
X99350000Y-128250000D03*
X98550000Y-128250000D03*
X97750000Y-128250000D03*
X96950000Y-128250000D03*
X96150000Y-128250000D03*
X95350000Y-128250000D03*
X94550000Y-128250000D03*
X93750000Y-128250000D03*
X92950000Y-128250000D03*
X92150000Y-128250000D03*
X91350000Y-128250000D03*
X90550000Y-128250000D03*
D48*
X93375000Y-121375000D03*
X93375000Y-123350000D03*
D49*
X93375000Y-125325000D03*
D48*
X95350000Y-121375000D03*
X95350000Y-123350000D03*
X95350000Y-125325000D03*
X97325000Y-121375000D03*
X97325000Y-123350000D03*
X97325000Y-125325000D03*
D50*
X101300000Y-128300000D03*
X101300000Y-118400000D03*
X89400000Y-118400000D03*
X89400000Y-128300000D03*
%TD*%
D41*
%TO.C,SW8*%
X89650000Y-89150000D03*
X89650000Y-80650000D03*
X85150000Y-89150000D03*
X85150000Y-80650000D03*
%TD*%
D37*
%TO.C,R8*%
X91400000Y-76090000D03*
X91400000Y-77110000D03*
%TD*%
D22*
%TO.C,R6*%
X92100000Y-101750000D03*
X92100000Y-103750000D03*
%TD*%
D51*
%TO.C,C18*%
X93275000Y-99900000D03*
X91725000Y-99900000D03*
%TD*%
D52*
%TO.C,C6*%
X91325000Y-108600000D03*
X92875000Y-108600000D03*
%TD*%
D20*
%TO.C,C4*%
X105250000Y-71220000D03*
X105250000Y-72180000D03*
%TD*%
D37*
%TO.C,R25*%
X88350000Y-114340000D03*
X88350000Y-115360000D03*
%TD*%
D36*
%TO.C,R15*%
X85510000Y-110850000D03*
X84490000Y-110850000D03*
%TD*%
D30*
%TO.C,C5*%
X91350000Y-110350000D03*
X93250000Y-110350000D03*
%TD*%
D37*
%TO.C,R7*%
X92900000Y-76090000D03*
X92900000Y-77110000D03*
%TD*%
D23*
%TO.C,R18*%
X87400000Y-113460000D03*
X87400000Y-112440000D03*
%TD*%
D22*
%TO.C,R21*%
X91700000Y-112400000D03*
X91700000Y-114400000D03*
%TD*%
D33*
%TO.C,R13*%
X98740000Y-97450000D03*
X99760000Y-97450000D03*
%TD*%
D53*
%TO.C,J5*%
X87260000Y-73000000D03*
X93040000Y-73000000D03*
D54*
X86900000Y-74445000D03*
X87700000Y-74445000D03*
D55*
X88900000Y-74445000D03*
X89900000Y-74445000D03*
X90400000Y-74445000D03*
X91400000Y-74445000D03*
D54*
X92600000Y-74445000D03*
X93400000Y-74445000D03*
X93400000Y-74445000D03*
X92600000Y-74445000D03*
D55*
X91900000Y-74445000D03*
X90900000Y-74445000D03*
X89400000Y-74445000D03*
X88400000Y-74445000D03*
D54*
X87700000Y-74445000D03*
X86900000Y-74445000D03*
D56*
X85830000Y-69350000D03*
D57*
X85830000Y-73530000D03*
D56*
X94470000Y-69350000D03*
D57*
X94470000Y-73530000D03*
%TD*%
D37*
%TO.C,R24*%
X95700000Y-92840000D03*
X95700000Y-93860000D03*
%TD*%
D21*
%TO.C,C16*%
X87430000Y-114350000D03*
X86470000Y-114350000D03*
%TD*%
D43*
%TO.C,C11*%
X88050000Y-125430000D03*
X88050000Y-124470000D03*
%TD*%
D23*
%TO.C,R4*%
X102500000Y-72210000D03*
X102500000Y-71190000D03*
%TD*%
D37*
%TO.C,R12*%
X94750000Y-93540000D03*
X94750000Y-94560000D03*
%TD*%
%TO.C,R1*%
X88900000Y-76090000D03*
X88900000Y-77110000D03*
%TD*%
D43*
%TO.C,C13*%
X84550000Y-114780000D03*
X84550000Y-113820000D03*
%TD*%
D37*
%TO.C,R11*%
X96700000Y-94740000D03*
X96700000Y-95760000D03*
%TD*%
%LPD*%
M02*
