M48
; DRILL file KiCad 10.0.0 date 2026-05-11T23:15:42
; FORMAT={-:-/ absolute / inch / decimal}
; #@! TF.CreationDate,2026-05-11T23:15:42+02:00
; #@! TF.GenerationSoftware,Kicad,Pcbnew,10.0.0
; #@! TF.FileFunction,Plated,1,2,PTH
FMAT,2
INCH
; #@! TA.AperFunction,Plated,PTH,ViaDrill
T1C0.0118
; #@! TA.AperFunction,Plated,PTH,ComponentDrill
T2C0.0197
; #@! TA.AperFunction,Plated,PTH,ComponentDrill
T3C0.0236
; #@! TA.AperFunction,Plated,PTH,ComponentDrill
T4C0.0374
; #@! TA.AperFunction,Plated,PTH,ComponentDrill
T5C0.0394
%
G90
G05
T1
X2.0709Y-2.9154
X2.0965Y-4.9291
X2.1339Y-4.5728
X2.2185Y-3.3268
X2.5Y-5.1732
X2.6476Y-2.7933
X2.7461Y-3.4626
X2.8366Y-4.3504
X2.8504Y-5.0276
X2.9213Y-2.8661
X2.9567Y-3.374
X3.0217Y-4.5689
X3.0295Y-4.1319
X3.0354Y-3.6772
X3.0374Y-3.7972
X3.0433Y-4.0748
X3.0965Y-4.1929
X3.1555Y-4.935
X3.2008Y-4.122
X3.2047Y-4.6949
X3.2067Y-4.748
X3.2146Y-3.1201
X3.215Y-4.1701
X3.2165Y-4.2303
X3.2165Y-4.5394
X3.2303Y-3.7756
X3.2323Y-3.0098
X3.2323Y-3.4311
X3.2362Y-4.0256
X3.2382Y-3.6949
X3.2421Y-3.8524
X3.2441Y-3.5295
X3.2539Y-2.9528
X3.2618Y-4.4528
X3.2736Y-4.6063
X3.2776Y-3.311
X3.2795Y-4.6476
X3.2913Y-4.0945
X3.3051Y-3.3976
X3.3071Y-4.9173
X3.3264Y-4.3839
X3.3268Y-4.4449
X3.3307Y-4.8622
X3.3406Y-5.0059
X3.3465Y-4.9764
X3.3504Y-5.0394
X3.3563Y-4.5669
X3.3661Y-4.5098
X3.376Y-4.9252
X3.378Y-3.9528
X3.3976Y-3.8543
X3.4094Y-4.1594
X3.4213Y-4.3976
X3.4252Y-3.0768
X3.4291Y-3.5276
X3.4311Y-4.8642
X3.439Y-4.0472
X3.4469Y-3.9528
X3.4508Y-3.6594
X3.4528Y-3.8524
X3.4528Y-4.5984
X3.4626Y-3.0197
X3.4626Y-3.1339
X3.4685Y-4.1693
X3.4705Y-4.6339
X3.4803Y-4.6752
X3.4823Y-3.6594
X3.4862Y-4.9508
X3.4941Y-4.7933
X3.502Y-4.5413
X3.5138Y-3.6161
X3.5138Y-3.6594
X3.5276Y-3.0591
X3.5551Y-4.0453
X3.5571Y-4.7382
X3.5591Y-4.7776
X3.561Y-4.8563
X3.5669Y-3.8524
X3.5709Y-3.6284
X3.5787Y-4.128
X3.5807Y-3.2264
X3.5807Y-3.9331
X3.5886Y-4.565
X3.5955Y-4.3209
X3.5965Y-3.9016
X3.6024Y-4.9547
X3.6043Y-3.1693
X3.6043Y-3.6791
X3.6142Y-5.0
X3.6201Y-3.4193
X3.624Y-3.8642
X3.628Y-3.0709
X3.6575Y-4.3209
X3.6654Y-4.6083
X3.6673Y-4.5551
X3.6732Y-3.9055
X3.6732Y-4.0846
X3.6811Y-4.2913
X3.685Y-4.4921
X3.6929Y-3.0157
X3.7087Y-3.2815
X3.7126Y-4.5787
X3.7146Y-3.6634
X3.7185Y-3.0866
X3.7224Y-3.5787
X3.7283Y-3.0374
X3.7362Y-5.0
X3.7382Y-3.4348
X3.7437Y-4.5528
X3.7638Y-2.9547
X3.7697Y-4.6004
X3.7717Y-3.0315
X3.7795Y-2.8583
X3.7913Y-4.0015
X3.7992Y-3.5236
X3.7992Y-4.9941
X3.811Y-4.1122
X3.815Y-4.2106
X3.8169Y-4.6378
X3.8248Y-3.9823
X3.8445Y-3.7087
X3.8484Y-3.4331
X3.8504Y-3.2461
X3.8708Y-3.8799
X3.872Y-4.6142
X3.8858Y-4.0098
X3.9055Y-2.8228
X3.9055Y-4.9075
X3.9094Y-4.2106
X3.9094Y-4.752
X3.9094Y-4.9862
X3.9134Y-4.8406
X3.9232Y-4.1122
X3.9429Y-3.4823
X3.9823Y-2.9764
X3.9862Y-3.0768
X3.9902Y-3.8878
X3.9941Y-4.2028
X3.9961Y-4.1083
X3.9961Y-4.3307
X3.998Y-4.0335
X4.0256Y-4.6516
X4.0374Y-4.7756
X4.0413Y-2.9961
X4.0591Y-3.3976
X4.063Y-3.4528
X4.063Y-3.5
X4.065Y-3.7717
X4.065Y-4.624
X4.0965Y-4.9646
X4.1004Y-3.1575
X4.1004Y-4.7106
X4.1201Y-3.5512
X4.122Y-3.2244
X4.1299Y-3.4646
X4.1319Y-2.7441
X4.1713Y-4.2587
X4.1969Y-4.2776
X4.2362Y-2.7697
X4.2618Y-3.748
X4.2657Y-3.2067
X4.2677Y-5.126
X4.2913Y-2.9862
X4.3189Y-4.6024
X4.4134Y-3.1693
X4.4213Y-3.5906
X4.4232Y-4.3012
X4.4587Y-5.0965
X4.4646Y-4.8878
X4.5394Y-2.6457
X4.6102Y-2.7933
X4.6122Y-3.0354
X4.6378Y-3.7953
X4.6417Y-3.3366
X4.6437Y-4.2756
X4.6516Y-3.563
X4.6614Y-5.189
T2
X3.8858Y-3.7382
T4
X3.8327Y-2.9162
X3.9311Y-2.9162
X4.0295Y-2.9162
X4.128Y-2.9162
X4.3287Y-2.9162
X4.4272Y-2.9162
X4.5256Y-2.9162
X4.624Y-2.9162
T5
X2.3189Y-3.8898
X2.3197Y-3.9843
X2.5197Y-3.8898
X2.5197Y-3.9843
X2.7197Y-3.8898
X2.7205Y-3.9843
T3
G00X3.3791Y-2.7185
M15
G01X3.3791Y-2.7421
M16
G05
G00X3.3791Y-2.8732
M15
G01X3.3791Y-2.9165
M16
G05
G00X3.7193Y-2.7185
M15
G01X3.7193Y-2.7421
M16
G05
G00X3.7193Y-2.8732
M15
G01X3.7193Y-2.9165
M16
G05
M30
