%TF.GenerationSoftware,KiCad,Pcbnew,10.0.0*%
%TF.CreationDate,2026-05-11T23:15:42+02:00*%
%TF.ProjectId,malibotti_stepper_pcb,6d616c69-626f-4747-9469-5f7374657070,rev?*%
%TF.SameCoordinates,Original*%
%TF.FileFunction,Copper,L1,Top*%
%TF.FilePolarity,Positive*%
%FSLAX46Y46*%
G04 Gerber Fmt 4.6, Leading zero omitted, Abs format (unit mm)*
G04 Created by KiCad (PCBNEW 10.0.0) date 2026-05-11 23:15:42*
%MOMM*%
%LPD*%
G01*
G04 APERTURE LIST*
%TA.AperFunction,ComponentPad*%
%ADD10O,1.600000X2.000000*%
%TD*%
%TA.AperFunction,ComponentPad*%
%ADD11C,1.000000*%
%TD*%
%TA.AperFunction,ComponentPad*%
%ADD12O,1.000000X1.600000*%
%TD*%
%TA.AperFunction,ComponentPad*%
%ADD13O,1.000000X2.100000*%
%TD*%
%TA.AperFunction,ViaPad*%
%ADD14C,0.600000*%
%TD*%
%TA.AperFunction,Conductor*%
%ADD15C,0.300000*%
%TD*%
%TA.AperFunction,Conductor*%
%ADD16C,0.200000*%
%TD*%
%TA.AperFunction,Conductor*%
%ADD17C,1.200000*%
%TD*%
%TA.AperFunction,Conductor*%
%ADD18C,0.600000*%
%TD*%
G04 APERTURE END LIST*
D10*
%TO.P,SW2,1,B_1*%
%TO.N,BUZZER*%
X69080000Y-98800000D03*
%TO.P,SW2,2,C_2*%
%TO.N,GND*%
X64000000Y-98800000D03*
%TO.P,SW2,3,A_3*%
%TO.N,unconnected-(SW2-A-Pad3)*%
X58900000Y-98800000D03*
%TD*%
%TO.P,J6,1,Pin_1_1*%
%TO.N,/TX*%
X117450000Y-74072500D03*
%TO.P,J6,2,Pin_2_2*%
%TO.N,/RX*%
X114950000Y-74072500D03*
%TO.P,J6,3,Pin_3_3*%
%TO.N,GND*%
X112450000Y-74072500D03*
%TO.P,J6,4,Pin_4_4*%
%TO.N,+5V*%
X109950000Y-74072500D03*
%TD*%
%TO.P,SW3,1,B_1*%
%TO.N,BUZZER*%
X69100000Y-101200000D03*
%TO.P,SW3,2,C_2*%
%TO.N,GND*%
X64000000Y-101200000D03*
%TO.P,SW3,3,A_3*%
%TO.N,unconnected-(SW3-A-Pad3)*%
X58920000Y-101200000D03*
%TD*%
D11*
%TO.P,TP1,1,1_1*%
%TO.N,Net-(U3-EN{slash}FLT)*%
X98700000Y-94950000D03*
%TD*%
D10*
%TO.P,J4,1,Pin_1_1*%
%TO.N,SCL*%
X104850000Y-74072500D03*
%TO.P,J4,2,Pin_2_2*%
%TO.N,SDA*%
X102350000Y-74072500D03*
%TO.P,J4,3,Pin_3_3*%
%TO.N,+3V3*%
X99850000Y-74072500D03*
%TO.P,J4,4,Pin_4_4*%
%TO.N,GND*%
X97350000Y-74072500D03*
%TD*%
D12*
%TO.P,J5,SH,SHIELD_SH*%
%TO.N,GND*%
X85830000Y-69350000D03*
D13*
X85830000Y-73530000D03*
D12*
X94470000Y-69350000D03*
D13*
X94470000Y-73530000D03*
%TD*%
D14*
%TO.N,BUZZER*%
X83300000Y-118050000D03*
X88150000Y-117700000D03*
X76950000Y-104950000D03*
X81300000Y-104700000D03*
%TO.N,GND*%
X109700000Y-116900000D03*
X91550000Y-93450000D03*
X85100000Y-128000000D03*
X94550000Y-90900000D03*
X97650000Y-94200000D03*
X82350000Y-97850000D03*
X101450000Y-106750000D03*
X112350000Y-109250000D03*
X104150000Y-80200000D03*
X93150000Y-115700000D03*
X91500000Y-125850000D03*
X95800000Y-77000000D03*
X82400000Y-89650000D03*
X104150000Y-119650000D03*
X92150000Y-78000000D03*
X99650000Y-104450000D03*
X82250000Y-93850000D03*
X115300000Y-67200000D03*
X90950000Y-81950000D03*
X96800000Y-104450000D03*
X112300000Y-91200000D03*
X83250000Y-84100000D03*
X103100000Y-86300000D03*
X96500000Y-126850000D03*
X82850000Y-113100000D03*
X54200000Y-116150000D03*
X90400000Y-121350000D03*
X81450000Y-120600000D03*
X99400000Y-122950000D03*
X63500000Y-131400000D03*
X89250000Y-91850000D03*
X118400000Y-131800000D03*
X82100000Y-76450000D03*
X87150000Y-123550000D03*
X117900000Y-84750000D03*
X117100000Y-70950000D03*
X98700000Y-101850000D03*
X83600000Y-104000000D03*
X80150000Y-125350000D03*
X103200000Y-88900000D03*
X93500000Y-109000000D03*
X94900000Y-127000000D03*
X91800000Y-127000000D03*
X88100000Y-105900000D03*
X94450000Y-78400000D03*
X87350000Y-102800000D03*
X96900000Y-106950000D03*
X94700000Y-77150000D03*
X108350000Y-81450000D03*
X84000000Y-124900000D03*
X72400000Y-127700000D03*
X82100000Y-87150000D03*
X92900000Y-109750000D03*
X90950000Y-99900000D03*
X107600000Y-70350000D03*
X109000000Y-75850000D03*
X103200000Y-87700000D03*
X94200000Y-83350000D03*
X113400000Y-124150000D03*
X85800000Y-100400000D03*
X74200000Y-72800000D03*
X69750000Y-87950000D03*
X108250000Y-95200000D03*
X77300000Y-103500000D03*
X96000000Y-72600000D03*
X93300000Y-103750000D03*
X84850000Y-127150000D03*
X103250000Y-95800000D03*
X104050000Y-126100000D03*
X101250000Y-78150000D03*
X87700000Y-116800000D03*
X86300000Y-97900000D03*
X113250000Y-129450000D03*
X118150000Y-90500000D03*
X81660000Y-105920000D03*
X75100000Y-85700000D03*
X87000000Y-78150000D03*
X77150000Y-96450000D03*
X101500000Y-110000000D03*
X103250000Y-117450000D03*
X99300000Y-126650000D03*
X87650000Y-92950000D03*
X84500000Y-112900000D03*
X81400000Y-119250000D03*
X104650000Y-90200000D03*
X90450000Y-123350000D03*
X87550000Y-100400000D03*
X101150000Y-75600000D03*
X82050000Y-95900000D03*
X101500000Y-104350000D03*
X97800000Y-82450000D03*
X72050000Y-110500000D03*
X86600000Y-105650000D03*
X53250000Y-125200000D03*
X93800000Y-76600000D03*
X104900000Y-88000000D03*
X99300000Y-120700000D03*
X117950000Y-108600000D03*
X52600000Y-74050000D03*
X81700000Y-115300000D03*
X95600000Y-75050000D03*
X87950000Y-76700000D03*
X85250000Y-116000000D03*
X102550000Y-121300000D03*
X97750000Y-87200000D03*
X82650000Y-75000000D03*
X100150000Y-88450000D03*
X104950000Y-69700000D03*
X91350000Y-99100000D03*
X90600000Y-97850000D03*
X83150000Y-117000000D03*
X94350000Y-93050000D03*
X78650000Y-106500000D03*
X96500000Y-89500000D03*
X81650000Y-79250000D03*
X87100000Y-89600000D03*
X91150000Y-115950000D03*
X67250000Y-70950000D03*
X112100000Y-80500000D03*
X89250000Y-92950000D03*
X89600000Y-77700000D03*
X81700000Y-107450000D03*
X101550000Y-102450000D03*
X90300000Y-102750000D03*
X56350000Y-84500000D03*
X91550000Y-80500000D03*
X88450000Y-92950000D03*
X99300000Y-106950000D03*
X99200000Y-124650000D03*
X93600000Y-114100000D03*
X85000000Y-126400000D03*
X87700000Y-97850000D03*
X83950000Y-86300000D03*
X90900000Y-104850000D03*
X76750000Y-116050000D03*
X101350000Y-98750000D03*
X88400000Y-118750000D03*
X95750000Y-116850000D03*
X91950000Y-86850000D03*
X99200000Y-71700000D03*
X117800000Y-96400000D03*
X108400000Y-130200000D03*
X87950000Y-79600000D03*
X82200000Y-102250000D03*
X77100000Y-93400000D03*
X102650000Y-76100000D03*
X85500000Y-114550000D03*
X102250000Y-118150000D03*
X86900000Y-111700000D03*
X92050000Y-98150000D03*
X104700000Y-81900000D03*
X117150000Y-77100000D03*
%TO.N,+5V*%
X94950000Y-87245000D03*
X91325000Y-109750000D03*
X93300000Y-99200000D03*
%TO.N,SCL*%
X106600000Y-108650000D03*
X98350000Y-117200000D03*
%TO.N,SDA*%
X96950000Y-117800000D03*
X105950000Y-108169998D03*
%TO.N,+3V3*%
X90700000Y-92161000D03*
X88549998Y-125750000D03*
X84490000Y-111350000D03*
X88950000Y-115350000D03*
%TO.N,RGB_LED*%
X90350000Y-120350000D03*
X84600000Y-123501000D03*
%TO.N,STEPPER_RESET*%
X98317384Y-98550000D03*
X93100000Y-117050000D03*
%TO.N,Net-(U1-EN{slash}CHIP_PU)*%
X88750000Y-121750000D03*
X85750000Y-125100000D03*
%TO.N,DIR1*%
X95090380Y-115640380D03*
X97150000Y-101150000D03*
%TO.N,STEP1*%
X96300000Y-101638140D03*
X94300000Y-116300000D03*
%TD*%
%TO.N,BUZZER*%
D15*
X83650000Y-117700000D02*
X83300000Y-118050000D01*
X88150000Y-117700000D02*
X83650000Y-117700000D01*
D16*
X76950000Y-104950000D02*
X81050000Y-104950000D01*
%TO.N,GND*%
X64000000Y-98800000D02*
X64000000Y-101200000D01*
%TO.N,+5V*%
D17*
X93150000Y-89045000D02*
X94945000Y-87250000D01*
X94950000Y-87245000D02*
X94955000Y-87250000D01*
X94955000Y-87245000D02*
X108200000Y-74000000D01*
X91325000Y-109750000D02*
X92050000Y-109025000D01*
X92050000Y-109025000D02*
X92050000Y-100900000D01*
X92050000Y-100900000D02*
X93150000Y-99800000D01*
X108200000Y-74000000D02*
X109950000Y-74000000D01*
X93150000Y-99800000D02*
X93150000Y-89045000D01*
X94955000Y-87250000D02*
X94955000Y-87245000D01*
%TO.N,SCL*%
D15*
X98600000Y-116950000D02*
X98600000Y-115508520D01*
X105104260Y-109004260D02*
X106245740Y-109004260D01*
X98350000Y-117200000D02*
X98600000Y-116950000D01*
X106245740Y-109004260D02*
X106600000Y-108650000D01*
X98600000Y-115508520D02*
X105104260Y-109004260D01*
%TO.N,SDA*%
X96950000Y-117800000D02*
X97330760Y-117419240D01*
X97330760Y-117419240D02*
X97330760Y-116069240D01*
X105230002Y-108169998D02*
X105950000Y-108169998D01*
X97330760Y-116069240D02*
X105230002Y-108169998D01*
%TO.N,+3V3*%
D18*
X90700000Y-84372500D02*
X99850000Y-75222500D01*
X91650000Y-119299000D02*
X91650000Y-121601000D01*
X88950000Y-97600000D02*
X88950000Y-115350000D01*
X91401000Y-123781786D02*
X89432786Y-125750000D01*
D15*
X88950000Y-111000000D02*
X84840000Y-111000000D01*
D18*
X89432786Y-125750000D02*
X88549998Y-125750000D01*
D15*
X84840000Y-111000000D02*
X84490000Y-111350000D01*
D18*
X99850000Y-75222500D02*
X99850000Y-74072500D01*
X91401000Y-117801000D02*
X91401000Y-119050000D01*
X91401000Y-121850000D02*
X91401000Y-123781786D01*
X90700000Y-92161000D02*
X90700000Y-95850000D01*
X90700000Y-92161000D02*
X90700000Y-84372500D01*
X91401000Y-119050000D02*
X91650000Y-119299000D01*
X91650000Y-121601000D02*
X91401000Y-121850000D01*
D15*
X88950000Y-115350000D02*
X88950000Y-111000000D01*
D18*
X90700000Y-95850000D02*
X88950000Y-97600000D01*
X88950000Y-115350000D02*
X91401000Y-117801000D01*
%TO.N,RGB_LED*%
D15*
X88550000Y-120350000D02*
X90350000Y-120350000D01*
X84651000Y-123450000D02*
X85450000Y-123450000D01*
X85450000Y-123450000D02*
X88550000Y-120350000D01*
X84600000Y-123501000D02*
X84651000Y-123450000D01*
%TO.N,STEPPER_RESET*%
X98317384Y-98550000D02*
X98167384Y-98700000D01*
X95741380Y-115908620D02*
X95741380Y-115910034D01*
X95358620Y-116291380D02*
X94600000Y-117050000D01*
X94600000Y-117050000D02*
X93100000Y-117050000D01*
X97950000Y-99791504D02*
X97950000Y-101852000D01*
X95360034Y-116291380D02*
X95358620Y-116291380D01*
X95741380Y-115910034D02*
X95360034Y-116291380D01*
X95802000Y-104000000D02*
X95802000Y-115848000D01*
X95802000Y-115848000D02*
X95741380Y-115908620D01*
X98167384Y-99574120D02*
X97950000Y-99791504D01*
X97950000Y-101852000D02*
X95802000Y-104000000D01*
X98167384Y-98700000D02*
X98167384Y-99574120D01*
%TO.N,Net-(U1-EN{slash}CHIP_PU)*%
X85750000Y-123858521D02*
X85750000Y-125100000D01*
X87858520Y-121750000D02*
X85750000Y-123858521D01*
X88750000Y-121750000D02*
X87858520Y-121750000D01*
%TO.N,DIR1*%
X95301000Y-115429760D02*
X95090380Y-115640380D01*
X97150000Y-101150000D02*
X96950000Y-101350000D01*
X96950000Y-101950000D02*
X95301000Y-103599000D01*
X95301000Y-103599000D02*
X95301000Y-115429760D01*
X96950000Y-101350000D02*
X96950000Y-101950000D01*
%TO.N,STEP1*%
X96150000Y-101788140D02*
X96150000Y-102041480D01*
X96150000Y-102041480D02*
X94800000Y-103391480D01*
X94300000Y-115300000D02*
X94300000Y-116300000D01*
X96300000Y-101638140D02*
X96150000Y-101788140D01*
X94800000Y-103391480D02*
X94800000Y-114800000D01*
X94800000Y-114800000D02*
X94300000Y-115300000D01*
%TD*%
%TA.AperFunction,Conductor*%
%TO.N,GND*%
G36*
X64084191Y-99318907D02*
G01*
X64120155Y-99368407D01*
X64125000Y-99399000D01*
X64125000Y-100601000D01*
X64106093Y-100659191D01*
X64056593Y-100695155D01*
X64026000Y-100700000D01*
X63974000Y-100700000D01*
X63915809Y-100681093D01*
X63879845Y-100631593D01*
X63875000Y-100601000D01*
X63875000Y-99399000D01*
X63893907Y-99340809D01*
X63943407Y-99304845D01*
X63974000Y-99300000D01*
X64026000Y-99300000D01*
X64084191Y-99318907D01*
G37*
%TD.AperFunction*%
%TA.AperFunction,Conductor*%
G36*
X53155503Y-66291432D02*
G01*
X53376872Y-66300567D01*
X53384326Y-66301158D01*
X53391785Y-66302036D01*
X53399164Y-66303189D01*
X53595022Y-66341463D01*
X53616576Y-66345675D01*
X53623875Y-66347390D01*
X53631116Y-66349385D01*
X53638254Y-66351646D01*
X53846751Y-66426508D01*
X53853710Y-66429310D01*
X53860556Y-66432372D01*
X53867290Y-66435696D01*
X54062036Y-66541193D01*
X54068492Y-66545013D01*
X54074798Y-66549075D01*
X54080960Y-66553384D01*
X54098800Y-66566896D01*
X54111667Y-66576641D01*
X54257539Y-66687121D01*
X54263344Y-66691874D01*
X54268966Y-66696846D01*
X54274386Y-66702019D01*
X54428718Y-66860907D01*
X54433740Y-66866485D01*
X54438546Y-66872250D01*
X54443127Y-66878190D01*
X54449450Y-66887063D01*
X54449452Y-66887065D01*
X54571667Y-67058577D01*
X54575790Y-67064854D01*
X54579663Y-67071268D01*
X54583298Y-67077838D01*
X54683096Y-67275590D01*
X54686225Y-67282425D01*
X54689086Y-67289357D01*
X54691683Y-67296394D01*
X54760438Y-67506941D01*
X54762497Y-67514163D01*
X54764253Y-67521348D01*
X54764277Y-67521444D01*
X54765782Y-67528801D01*
X54801922Y-67747332D01*
X54802866Y-67754781D01*
X54803524Y-67762236D01*
X54803900Y-67769737D01*
X54806592Y-67991238D01*
X54806398Y-67998745D01*
X54805921Y-68006221D01*
X54805159Y-68013691D01*
X54774340Y-68233040D01*
X54773012Y-68240442D01*
X54771410Y-68247758D01*
X54769530Y-68255017D01*
X54705909Y-68467185D01*
X54703489Y-68474269D01*
X54700797Y-68481269D01*
X54697835Y-68488176D01*
X54602865Y-68688310D01*
X54599384Y-68694979D01*
X54595679Y-68701464D01*
X54591717Y-68707827D01*
X54467590Y-68891301D01*
X54463148Y-68897359D01*
X54458494Y-68903225D01*
X54453607Y-68908925D01*
X54301100Y-69073766D01*
X54299796Y-69075149D01*
X54298474Y-69076524D01*
X54297113Y-69077913D01*
X54293354Y-69081672D01*
X54292050Y-69082951D01*
X54290753Y-69084201D01*
X54289419Y-69085463D01*
X54260645Y-69112182D01*
X54260644Y-69112184D01*
X54238952Y-69151123D01*
X54238556Y-69151833D01*
X54219979Y-69184011D01*
X54219372Y-69186267D01*
X54215320Y-69193541D01*
X54215320Y-69193542D01*
X54214332Y-69195315D01*
X54214322Y-69195335D01*
X54207744Y-69228785D01*
X54207745Y-69228786D01*
X54207096Y-69232086D01*
X54199500Y-69260438D01*
X54199500Y-69270736D01*
X54197642Y-69280190D01*
X54197640Y-69280192D01*
X54197640Y-69280199D01*
X54195960Y-69288738D01*
X54198430Y-69309200D01*
X54198964Y-69315114D01*
X54199321Y-69321046D01*
X54199500Y-69326993D01*
X54199500Y-71039566D01*
X54211034Y-71082608D01*
X54219978Y-71115988D01*
X54219980Y-71115992D01*
X54247327Y-71163358D01*
X54247328Y-71163359D01*
X54247327Y-71163359D01*
X54259536Y-71184506D01*
X54259538Y-71184508D01*
X54259540Y-71184511D01*
X54315489Y-71240460D01*
X54315491Y-71240461D01*
X54316019Y-71240842D01*
X54317877Y-71241839D01*
X54318027Y-71241925D01*
X54384007Y-71280019D01*
X54384009Y-71280020D01*
X54384011Y-71280021D01*
X54450762Y-71297907D01*
X54452913Y-71298723D01*
X54460436Y-71300500D01*
X54460437Y-71300500D01*
X54460438Y-71300500D01*
X56339149Y-71300500D01*
X56339154Y-71300500D01*
X56615435Y-71266954D01*
X56885657Y-71200350D01*
X57145881Y-71101661D01*
X57392311Y-70972324D01*
X57621355Y-70814226D01*
X57829673Y-70629673D01*
X58014226Y-70421355D01*
X58172324Y-70192311D01*
X58301661Y-69945881D01*
X58400350Y-69685657D01*
X58448379Y-69490796D01*
X75923869Y-69490796D01*
X75923869Y-69760464D01*
X75954052Y-70028333D01*
X75954054Y-70028348D01*
X75954057Y-70028366D01*
X76009285Y-70270333D01*
X76014053Y-70291225D01*
X76014053Y-70291226D01*
X76014052Y-70291226D01*
X76102842Y-70544968D01*
X76103067Y-70545627D01*
X76103100Y-70545708D01*
X76220059Y-70788576D01*
X76220085Y-70788629D01*
X76289020Y-70898338D01*
X76335509Y-70972324D01*
X76363531Y-71016920D01*
X76531635Y-71227716D01*
X76722284Y-71418365D01*
X76933080Y-71586469D01*
X77031195Y-71648119D01*
X77161374Y-71729916D01*
X77161386Y-71729922D01*
X77373925Y-71832275D01*
X77404290Y-71846898D01*
X77519078Y-71887064D01*
X77650895Y-71933189D01*
X77655267Y-71935145D01*
X77658768Y-71935944D01*
X77658774Y-71935946D01*
X77658777Y-71935946D01*
X77658778Y-71935947D01*
X77921637Y-71995943D01*
X77993884Y-72004083D01*
X78175673Y-72024567D01*
X78181736Y-72026131D01*
X78459178Y-72026131D01*
X78466999Y-72026131D01*
X78473056Y-72024567D01*
X78630771Y-72006796D01*
X78727101Y-71995943D01*
X78989960Y-71935947D01*
X79244448Y-71846898D01*
X79487366Y-71729915D01*
X79715658Y-71586469D01*
X79926454Y-71418365D01*
X80117103Y-71227716D01*
X80285207Y-71016920D01*
X80428653Y-70788628D01*
X80545636Y-70545710D01*
X80634685Y-70291222D01*
X80694681Y-70028363D01*
X80724266Y-69765796D01*
X80724868Y-69760456D01*
X80724869Y-69760439D01*
X80724869Y-69490822D01*
X80719715Y-69445077D01*
X80719715Y-69445074D01*
X80701137Y-69280196D01*
X80694681Y-69222899D01*
X80642264Y-68993249D01*
X80641678Y-68990679D01*
X80639481Y-68981052D01*
X85130000Y-68981052D01*
X85130000Y-68981055D01*
X85130000Y-69224999D01*
X85130001Y-69225000D01*
X85431000Y-69225000D01*
X85489191Y-69243907D01*
X85525155Y-69293407D01*
X85530000Y-69324000D01*
X85530000Y-69376000D01*
X85511093Y-69434191D01*
X85461593Y-69470155D01*
X85431000Y-69475000D01*
X85130001Y-69475000D01*
X85130000Y-69475001D01*
X85130000Y-69475002D01*
X85130000Y-69718946D01*
X85156901Y-69854182D01*
X85156901Y-69854184D01*
X85209663Y-69981565D01*
X85209668Y-69981575D01*
X85254720Y-70049000D01*
X85286271Y-70096220D01*
X85383779Y-70193728D01*
X85383782Y-70193730D01*
X85498423Y-70270330D01*
X85498425Y-70270331D01*
X85498428Y-70270333D01*
X85625816Y-70323098D01*
X85625819Y-70323099D01*
X85704999Y-70338848D01*
X85705000Y-70338848D01*
X85705000Y-70338847D01*
X85705000Y-70049000D01*
X85723907Y-69990809D01*
X85773407Y-69954845D01*
X85804000Y-69950000D01*
X85856000Y-69950000D01*
X85914191Y-69968907D01*
X85950155Y-70018407D01*
X85955000Y-70049000D01*
X85955000Y-70338846D01*
X85955000Y-70338848D01*
X86034180Y-70323099D01*
X86034183Y-70323098D01*
X86161571Y-70270333D01*
X86276220Y-70193728D01*
X86373728Y-70096220D01*
X86450333Y-69981571D01*
X86503098Y-69854183D01*
X86529665Y-69720622D01*
X86530000Y-69719083D01*
X86530000Y-69475002D01*
X86530000Y-69475001D01*
X86529999Y-69475000D01*
X86529998Y-69475000D01*
X86229000Y-69475000D01*
X86170809Y-69456093D01*
X86134845Y-69406593D01*
X86130000Y-69376000D01*
X86130000Y-69324000D01*
X86148907Y-69265809D01*
X86198407Y-69229845D01*
X86229000Y-69225000D01*
X86529998Y-69225000D01*
X86529999Y-69225000D01*
X86530000Y-69224999D01*
X86530000Y-68981057D01*
X86529999Y-68981055D01*
X86529998Y-68981052D01*
X93770000Y-68981052D01*
X93770000Y-68981055D01*
X93770000Y-69224999D01*
X93770001Y-69225000D01*
X94071000Y-69225000D01*
X94129191Y-69243907D01*
X94165155Y-69293407D01*
X94170000Y-69324000D01*
X94170000Y-69376000D01*
X94151093Y-69434191D01*
X94101593Y-69470155D01*
X94071000Y-69475000D01*
X93770001Y-69475000D01*
X93770000Y-69475001D01*
X93770000Y-69475002D01*
X93770000Y-69718946D01*
X93796901Y-69854182D01*
X93796901Y-69854184D01*
X93849663Y-69981565D01*
X93849668Y-69981575D01*
X93894720Y-70049000D01*
X93926271Y-70096220D01*
X94023779Y-70193728D01*
X94023782Y-70193730D01*
X94138423Y-70270330D01*
X94138425Y-70270331D01*
X94138428Y-70270333D01*
X94265816Y-70323098D01*
X94265819Y-70323099D01*
X94344999Y-70338848D01*
X94345000Y-70338848D01*
X94345000Y-70338847D01*
X94345000Y-70049000D01*
X94363907Y-69990809D01*
X94413407Y-69954845D01*
X94444000Y-69950000D01*
X94496000Y-69950000D01*
X94554191Y-69968907D01*
X94590155Y-70018407D01*
X94595000Y-70049000D01*
X94595000Y-70338846D01*
X94595000Y-70338848D01*
X94674180Y-70323099D01*
X94674183Y-70323098D01*
X94801571Y-70270333D01*
X94916220Y-70193728D01*
X95013728Y-70096220D01*
X95090333Y-69981571D01*
X95143098Y-69854183D01*
X95169665Y-69720622D01*
X95170000Y-69719083D01*
X95170000Y-69475002D01*
X95170000Y-69475001D01*
X95169999Y-69475000D01*
X95169998Y-69475000D01*
X94869000Y-69475000D01*
X94810809Y-69456093D01*
X94774845Y-69406593D01*
X94770000Y-69376000D01*
X94770000Y-69324000D01*
X94788907Y-69265809D01*
X94838407Y-69229845D01*
X94869000Y-69225000D01*
X95169998Y-69225000D01*
X95169999Y-69225000D01*
X95170000Y-69224999D01*
X95170000Y-68981057D01*
X95170000Y-68980915D01*
X95169662Y-68979365D01*
X95143098Y-68845816D01*
X95090333Y-68718428D01*
X95081730Y-68705553D01*
X95013730Y-68603782D01*
X95013728Y-68603779D01*
X94916220Y-68506271D01*
X94884061Y-68484783D01*
X94801575Y-68429668D01*
X94801565Y-68429663D01*
X94674183Y-68376901D01*
X94595000Y-68361150D01*
X94595000Y-68651000D01*
X94576093Y-68709191D01*
X94526593Y-68745155D01*
X94496000Y-68750000D01*
X94444000Y-68750000D01*
X94385809Y-68731093D01*
X94349845Y-68681593D01*
X94345000Y-68651000D01*
X94345000Y-68361150D01*
X94265815Y-68376901D01*
X94138433Y-68429663D01*
X94138423Y-68429668D01*
X94023782Y-68506268D01*
X93926268Y-68603782D01*
X93849668Y-68718423D01*
X93849663Y-68718433D01*
X93796901Y-68845814D01*
X93796901Y-68845816D01*
X93770000Y-68981052D01*
X86529998Y-68981052D01*
X86503098Y-68845816D01*
X86450333Y-68718428D01*
X86441730Y-68705553D01*
X86373730Y-68603782D01*
X86373728Y-68603779D01*
X86276220Y-68506271D01*
X86244061Y-68484783D01*
X86161575Y-68429668D01*
X86161565Y-68429663D01*
X86034183Y-68376901D01*
X85955000Y-68361150D01*
X85955000Y-68651000D01*
X85936093Y-68709191D01*
X85886593Y-68745155D01*
X85856000Y-68750000D01*
X85804000Y-68750000D01*
X85745809Y-68731093D01*
X85709845Y-68681593D01*
X85705000Y-68651000D01*
X85705000Y-68361150D01*
X85625815Y-68376901D01*
X85498433Y-68429663D01*
X85498423Y-68429668D01*
X85383782Y-68506268D01*
X85286268Y-68603782D01*
X85209668Y-68718423D01*
X85209663Y-68718433D01*
X85156901Y-68845814D01*
X85156901Y-68845816D01*
X85130000Y-68981052D01*
X80639481Y-68981052D01*
X80634683Y-68960032D01*
X80582163Y-68809940D01*
X80550143Y-68718433D01*
X80545636Y-68705552D01*
X80474177Y-68557165D01*
X80428660Y-68462648D01*
X80428654Y-68462636D01*
X80413889Y-68439138D01*
X80285207Y-68234342D01*
X80117103Y-68023546D01*
X79926454Y-67832897D01*
X79715658Y-67664793D01*
X79587978Y-67584566D01*
X79587977Y-67584565D01*
X79487371Y-67521349D01*
X79487368Y-67521348D01*
X79487366Y-67521347D01*
X79487363Y-67521345D01*
X79487351Y-67521339D01*
X79487314Y-67521321D01*
X79244446Y-67404362D01*
X79244365Y-67404329D01*
X79243706Y-67404104D01*
X78989964Y-67315315D01*
X78727104Y-67255319D01*
X78727086Y-67255316D01*
X78727071Y-67255314D01*
X78459202Y-67225131D01*
X78459194Y-67225131D01*
X78459178Y-67225131D01*
X78189560Y-67225131D01*
X78189543Y-67225131D01*
X78189534Y-67225131D01*
X77921665Y-67255314D01*
X77921650Y-67255316D01*
X77921632Y-67255319D01*
X77658772Y-67315315D01*
X77405030Y-67404104D01*
X77404376Y-67404327D01*
X77404290Y-67404362D01*
X77161422Y-67521321D01*
X77161369Y-67521347D01*
X76933078Y-67664793D01*
X76722286Y-67832895D01*
X76531633Y-68023548D01*
X76363531Y-68234340D01*
X76220085Y-68462631D01*
X76220059Y-68462684D01*
X76103102Y-68705550D01*
X76103065Y-68705638D01*
X76102842Y-68706292D01*
X76014053Y-68960034D01*
X75954057Y-69222894D01*
X75954054Y-69222912D01*
X75954052Y-69222927D01*
X75923869Y-69490796D01*
X58448379Y-69490796D01*
X58466954Y-69415435D01*
X58500500Y-69139154D01*
X58500500Y-69000000D01*
X58500500Y-68952405D01*
X58500500Y-68005302D01*
X58500562Y-68001791D01*
X58500563Y-68001762D01*
X58500690Y-67998211D01*
X58500874Y-67994761D01*
X58506105Y-67921630D01*
X58517041Y-67768699D01*
X58517796Y-67761693D01*
X58518797Y-67754726D01*
X58520049Y-67747787D01*
X58543922Y-67638041D01*
X58567091Y-67531530D01*
X58568827Y-67524731D01*
X58570825Y-67517927D01*
X58573038Y-67511280D01*
X58650378Y-67303926D01*
X58653077Y-67297412D01*
X58656008Y-67290995D01*
X58659169Y-67284681D01*
X58675202Y-67255319D01*
X58765209Y-67090482D01*
X58768799Y-67084430D01*
X58772616Y-67078491D01*
X58776640Y-67072697D01*
X58909257Y-66895542D01*
X58913659Y-66890077D01*
X58918299Y-66884721D01*
X58923074Y-66879592D01*
X59079591Y-66723075D01*
X59084720Y-66718300D01*
X59090076Y-66713660D01*
X59095541Y-66709258D01*
X59272696Y-66576641D01*
X59278490Y-66572617D01*
X59284429Y-66568800D01*
X59290481Y-66565210D01*
X59484688Y-66459165D01*
X59490994Y-66456009D01*
X59497411Y-66453078D01*
X59503925Y-66450379D01*
X59711279Y-66373039D01*
X59717926Y-66370826D01*
X59724730Y-66368828D01*
X59731529Y-66367092D01*
X59947790Y-66320049D01*
X59954715Y-66318799D01*
X59961703Y-66317795D01*
X59968696Y-66317043D01*
X60194732Y-66300876D01*
X60198220Y-66300689D01*
X60201815Y-66300562D01*
X60205281Y-66300501D01*
X60259117Y-66300501D01*
X60259125Y-66300500D01*
X117994689Y-66300500D01*
X117998203Y-66300562D01*
X118001751Y-66300688D01*
X118005294Y-66300877D01*
X118231288Y-66317041D01*
X118238299Y-66317795D01*
X118240453Y-66318104D01*
X118245267Y-66318796D01*
X118252222Y-66320051D01*
X118468450Y-66367089D01*
X118475270Y-66368829D01*
X118482067Y-66370825D01*
X118488730Y-66373043D01*
X118696055Y-66450371D01*
X118702577Y-66453072D01*
X118706749Y-66454978D01*
X118709002Y-66456007D01*
X118715315Y-66459168D01*
X118909503Y-66565202D01*
X118915587Y-66568812D01*
X118921513Y-66572621D01*
X118927312Y-66576647D01*
X118978673Y-66615095D01*
X119081243Y-66691878D01*
X119104434Y-66709238D01*
X119109935Y-66713671D01*
X119115259Y-66718284D01*
X119120434Y-66723101D01*
X119276897Y-66879564D01*
X119281714Y-66884739D01*
X119286327Y-66890063D01*
X119290749Y-66895550D01*
X119423360Y-67072697D01*
X119427366Y-67078466D01*
X119431205Y-67084441D01*
X119434796Y-67090494D01*
X119540834Y-67284690D01*
X119543991Y-67290995D01*
X119546922Y-67297412D01*
X119549627Y-67303941D01*
X119626946Y-67511242D01*
X119629175Y-67517938D01*
X119631163Y-67524706D01*
X119632914Y-67531563D01*
X119679948Y-67747775D01*
X119681201Y-67754724D01*
X119682201Y-67761681D01*
X119682203Y-67761693D01*
X119682958Y-67768714D01*
X119699122Y-67994718D01*
X119699311Y-67998241D01*
X119699437Y-68001762D01*
X119699500Y-68005302D01*
X119699500Y-118884819D01*
X119694654Y-118915412D01*
X119690532Y-118928098D01*
X119654580Y-118977589D01*
X119650459Y-118980584D01*
X119592271Y-118999500D01*
X118560432Y-118999500D01*
X118484018Y-119019976D01*
X118484011Y-119019978D01*
X118484007Y-119019980D01*
X118465649Y-119030579D01*
X118415492Y-119059537D01*
X118359537Y-119115492D01*
X118359307Y-119115891D01*
X118319980Y-119184007D01*
X118319979Y-119184010D01*
X118319976Y-119184018D01*
X118299500Y-119260432D01*
X118299500Y-124339566D01*
X118302127Y-124349369D01*
X118319978Y-124415988D01*
X118319980Y-124415992D01*
X118319981Y-124415993D01*
X118319981Y-124415995D01*
X118359533Y-124484500D01*
X118359535Y-124484504D01*
X118359538Y-124484508D01*
X118359540Y-124484511D01*
X118415489Y-124540460D01*
X118415491Y-124540461D01*
X118484007Y-124580019D01*
X118484011Y-124580021D01*
X118557283Y-124599654D01*
X118557829Y-124599884D01*
X118560436Y-124600500D01*
X118560437Y-124600500D01*
X118560438Y-124600500D01*
X118639562Y-124600500D01*
X119584820Y-124600500D01*
X119615408Y-124605343D01*
X119628095Y-124609466D01*
X119677595Y-124645427D01*
X119677596Y-124645428D01*
X119680591Y-124649550D01*
X119699500Y-124707740D01*
X119699500Y-131994696D01*
X119699437Y-131998236D01*
X119699311Y-132001757D01*
X119699122Y-132005280D01*
X119682958Y-132231284D01*
X119682204Y-132238296D01*
X119681205Y-132245252D01*
X119681203Y-132245263D01*
X119679948Y-132252223D01*
X119632914Y-132468435D01*
X119631163Y-132475292D01*
X119629175Y-132482060D01*
X119626946Y-132488756D01*
X119549627Y-132696057D01*
X119546918Y-132702596D01*
X119543993Y-132708999D01*
X119540834Y-132715308D01*
X119434796Y-132909504D01*
X119431199Y-132915568D01*
X119427381Y-132921510D01*
X119423355Y-132927308D01*
X119296531Y-133096725D01*
X119290760Y-133104435D01*
X119286327Y-133109935D01*
X119281714Y-133115259D01*
X119276897Y-133120434D01*
X119120434Y-133276897D01*
X119115259Y-133281714D01*
X119109935Y-133286327D01*
X119104434Y-133290760D01*
X118969701Y-133391621D01*
X118927313Y-133423352D01*
X118921519Y-133427374D01*
X118915569Y-133431197D01*
X118909504Y-133434796D01*
X118715308Y-133540834D01*
X118708999Y-133543993D01*
X118706320Y-133545216D01*
X118702584Y-133546922D01*
X118696057Y-133549627D01*
X118488756Y-133626946D01*
X118482060Y-133629175D01*
X118475292Y-133631163D01*
X118468435Y-133632914D01*
X118252223Y-133679948D01*
X118245261Y-133681203D01*
X118238302Y-133682203D01*
X118231283Y-133682958D01*
X118102388Y-133692177D01*
X118080310Y-133693756D01*
X118005277Y-133699122D01*
X118001757Y-133699311D01*
X117998216Y-133699437D01*
X117994696Y-133699500D01*
X108005304Y-133699500D01*
X108001781Y-133699437D01*
X107998520Y-133699320D01*
X107998243Y-133699311D01*
X107994721Y-133699122D01*
X107897616Y-133692177D01*
X107768716Y-133682958D01*
X107761696Y-133682203D01*
X107755999Y-133681384D01*
X107754734Y-133681202D01*
X107747775Y-133679948D01*
X107531563Y-133632914D01*
X107524706Y-133631163D01*
X107517938Y-133629175D01*
X107511242Y-133626946D01*
X107352220Y-133567634D01*
X107303933Y-133549624D01*
X107297424Y-133546927D01*
X107290996Y-133543991D01*
X107284690Y-133540834D01*
X107090494Y-133434796D01*
X107084441Y-133431205D01*
X107078466Y-133427366D01*
X107072703Y-133423364D01*
X106895550Y-133290749D01*
X106890063Y-133286327D01*
X106884739Y-133281714D01*
X106879564Y-133276897D01*
X106723101Y-133120434D01*
X106718284Y-133115259D01*
X106713671Y-133109935D01*
X106709238Y-133104434D01*
X106669659Y-133051563D01*
X106590547Y-132945881D01*
X106576652Y-132927319D01*
X106572620Y-132921511D01*
X106568801Y-132915568D01*
X106565197Y-132909494D01*
X106475202Y-132744681D01*
X106475200Y-132744678D01*
X106459165Y-132715310D01*
X106456003Y-132708991D01*
X106453074Y-132702577D01*
X106450372Y-132696056D01*
X106448710Y-132691602D01*
X106446131Y-132684686D01*
X106373043Y-132488730D01*
X106370823Y-132482060D01*
X106368829Y-132475270D01*
X106367089Y-132468450D01*
X106320051Y-132252222D01*
X106318798Y-132245284D01*
X106317792Y-132238286D01*
X106317041Y-132231285D01*
X106309275Y-132122700D01*
X106300874Y-132005240D01*
X106300689Y-132001784D01*
X106300561Y-131998190D01*
X106300500Y-131994696D01*
X106300500Y-128960436D01*
X106299518Y-128956278D01*
X106299006Y-128954866D01*
X106280021Y-128884011D01*
X106266409Y-128860435D01*
X106241942Y-128818057D01*
X106240858Y-128816042D01*
X106240461Y-128815491D01*
X106240460Y-128815489D01*
X106184511Y-128759540D01*
X106184508Y-128759538D01*
X106184504Y-128759535D01*
X106184500Y-128759533D01*
X106115994Y-128719981D01*
X106115993Y-128719980D01*
X106115992Y-128719980D01*
X106115988Y-128719978D01*
X106099246Y-128715492D01*
X106039566Y-128699500D01*
X106039564Y-128699500D01*
X106039562Y-128699500D01*
X82239562Y-128699500D01*
X82160438Y-128699500D01*
X82160435Y-128699500D01*
X82160432Y-128699500D01*
X82084018Y-128719976D01*
X82084011Y-128719978D01*
X82084007Y-128719980D01*
X82065649Y-128730579D01*
X82015492Y-128759537D01*
X81959537Y-128815492D01*
X81919979Y-128884009D01*
X81919976Y-128884018D01*
X81899500Y-128960432D01*
X81899500Y-131994696D01*
X81899437Y-131998236D01*
X81899311Y-132001757D01*
X81899122Y-132005280D01*
X81882958Y-132231284D01*
X81882204Y-132238296D01*
X81881205Y-132245252D01*
X81881203Y-132245263D01*
X81879948Y-132252223D01*
X81832914Y-132468435D01*
X81831163Y-132475292D01*
X81829175Y-132482060D01*
X81826946Y-132488756D01*
X81749627Y-132696057D01*
X81746918Y-132702596D01*
X81743993Y-132708999D01*
X81740834Y-132715308D01*
X81634796Y-132909504D01*
X81631199Y-132915568D01*
X81627381Y-132921510D01*
X81623355Y-132927308D01*
X81496531Y-133096725D01*
X81490760Y-133104435D01*
X81486327Y-133109935D01*
X81481714Y-133115259D01*
X81476897Y-133120434D01*
X81320434Y-133276897D01*
X81315259Y-133281714D01*
X81309935Y-133286327D01*
X81304434Y-133290760D01*
X81169701Y-133391621D01*
X81127313Y-133423352D01*
X81121519Y-133427374D01*
X81115569Y-133431197D01*
X81109504Y-133434796D01*
X80915308Y-133540834D01*
X80908999Y-133543993D01*
X80906320Y-133545216D01*
X80902584Y-133546922D01*
X80896057Y-133549627D01*
X80688756Y-133626946D01*
X80682060Y-133629175D01*
X80675292Y-133631163D01*
X80668435Y-133632914D01*
X80452223Y-133679948D01*
X80445261Y-133681203D01*
X80438302Y-133682203D01*
X80431283Y-133682958D01*
X80302388Y-133692177D01*
X80280310Y-133693756D01*
X80205277Y-133699122D01*
X80201757Y-133699311D01*
X80198216Y-133699437D01*
X80194696Y-133699500D01*
X60205304Y-133699500D01*
X60201781Y-133699437D01*
X60198520Y-133699320D01*
X60198243Y-133699311D01*
X60194721Y-133699122D01*
X60097616Y-133692177D01*
X59968716Y-133682958D01*
X59961696Y-133682203D01*
X59955999Y-133681384D01*
X59954734Y-133681202D01*
X59947775Y-133679948D01*
X59731563Y-133632914D01*
X59724706Y-133631163D01*
X59717938Y-133629175D01*
X59711242Y-133626946D01*
X59552220Y-133567634D01*
X59503933Y-133549624D01*
X59497424Y-133546927D01*
X59490996Y-133543991D01*
X59484690Y-133540834D01*
X59290494Y-133434796D01*
X59284441Y-133431205D01*
X59278466Y-133427366D01*
X59272703Y-133423364D01*
X59095550Y-133290749D01*
X59090063Y-133286327D01*
X59084739Y-133281714D01*
X59079564Y-133276897D01*
X58923101Y-133120434D01*
X58918284Y-133115259D01*
X58913671Y-133109935D01*
X58909238Y-133104434D01*
X58869659Y-133051563D01*
X58790547Y-132945881D01*
X58776652Y-132927319D01*
X58772620Y-132921511D01*
X58768801Y-132915568D01*
X58765197Y-132909494D01*
X58675202Y-132744681D01*
X58675200Y-132744678D01*
X58659165Y-132715310D01*
X58656003Y-132708991D01*
X58653074Y-132702577D01*
X58650372Y-132696056D01*
X58648710Y-132691602D01*
X58646131Y-132684686D01*
X58573043Y-132488730D01*
X58570823Y-132482060D01*
X58568829Y-132475270D01*
X58567089Y-132468450D01*
X58520051Y-132252222D01*
X58518798Y-132245284D01*
X58517792Y-132238286D01*
X58517041Y-132231285D01*
X58509275Y-132122700D01*
X58500874Y-132005240D01*
X58500689Y-132001784D01*
X58500561Y-131998190D01*
X58500500Y-131994696D01*
X58500500Y-130760839D01*
X58500452Y-130760450D01*
X58500432Y-130760288D01*
X58466955Y-130484575D01*
X58466953Y-130484560D01*
X58411716Y-130260457D01*
X58406559Y-130239534D01*
X75923868Y-130239534D01*
X75923868Y-130509202D01*
X75954051Y-130777071D01*
X75954053Y-130777086D01*
X75954056Y-130777104D01*
X76009588Y-131020403D01*
X76014052Y-131039963D01*
X76014052Y-131039964D01*
X76014051Y-131039964D01*
X76102841Y-131293706D01*
X76103066Y-131294365D01*
X76103099Y-131294446D01*
X76220074Y-131537349D01*
X76220080Y-131537361D01*
X76220082Y-131537364D01*
X76357330Y-131755792D01*
X76362006Y-131763233D01*
X76363532Y-131765662D01*
X76430342Y-131849438D01*
X76531634Y-131976455D01*
X76722283Y-132167104D01*
X76933079Y-132335208D01*
X76981602Y-132365697D01*
X77161373Y-132478655D01*
X77161381Y-132478658D01*
X77161386Y-132478662D01*
X77301873Y-132546316D01*
X77388166Y-132587872D01*
X77404290Y-132595637D01*
X77445003Y-132609883D01*
X77650895Y-132681928D01*
X77655267Y-132683884D01*
X77658768Y-132684683D01*
X77658774Y-132684685D01*
X77658777Y-132684685D01*
X77658778Y-132684686D01*
X77921637Y-132744682D01*
X77993884Y-132752822D01*
X78175673Y-132773306D01*
X78181736Y-132774870D01*
X78459178Y-132774870D01*
X78466999Y-132774870D01*
X78473056Y-132773306D01*
X78630771Y-132755535D01*
X78727101Y-132744682D01*
X78989960Y-132684686D01*
X79244448Y-132595637D01*
X79479733Y-132482330D01*
X79487364Y-132478655D01*
X79487366Y-132478654D01*
X79715659Y-132335208D01*
X79926455Y-132167104D01*
X80117104Y-131976455D01*
X80285208Y-131765659D01*
X80428654Y-131537366D01*
X80545637Y-131294448D01*
X80634686Y-131039960D01*
X80694682Y-130777101D01*
X80709491Y-130645668D01*
X80724869Y-130509194D01*
X80724870Y-130509177D01*
X80724870Y-130239560D01*
X80724869Y-130239543D01*
X80722029Y-130214343D01*
X80702822Y-130043886D01*
X80702822Y-130043884D01*
X80694682Y-129971638D01*
X80694681Y-129971635D01*
X80634686Y-129708778D01*
X80634308Y-129707698D01*
X80634316Y-129707695D01*
X80634298Y-129707671D01*
X80587206Y-129573088D01*
X80545637Y-129454290D01*
X80507270Y-129374620D01*
X80428662Y-129211387D01*
X80428656Y-129211375D01*
X80428655Y-129211373D01*
X80285207Y-128983078D01*
X80280693Y-128977418D01*
X80267155Y-128960441D01*
X80267153Y-128960439D01*
X80267152Y-128960438D01*
X80117104Y-128772283D01*
X79926455Y-128581634D01*
X79715659Y-128413530D01*
X79635130Y-128362930D01*
X79487364Y-128270082D01*
X79487356Y-128270078D01*
X79487349Y-128270074D01*
X79244446Y-128153099D01*
X79244365Y-128153066D01*
X79243706Y-128152841D01*
X78989964Y-128064052D01*
X78727104Y-128004056D01*
X78727086Y-128004053D01*
X78727071Y-128004051D01*
X78459202Y-127973868D01*
X78459194Y-127973868D01*
X78459178Y-127973868D01*
X78189560Y-127973868D01*
X78189543Y-127973868D01*
X78189534Y-127973868D01*
X77921665Y-128004051D01*
X77921650Y-128004053D01*
X77921632Y-128004056D01*
X77658772Y-128064052D01*
X77405030Y-128152841D01*
X77404376Y-128153064D01*
X77404290Y-128153099D01*
X77161387Y-128270074D01*
X77161375Y-128270080D01*
X76933077Y-128413530D01*
X76722285Y-128581632D01*
X76531632Y-128772285D01*
X76363530Y-128983077D01*
X76220080Y-129211375D01*
X76220074Y-129211387D01*
X76103099Y-129454290D01*
X76103064Y-129454376D01*
X76102841Y-129455030D01*
X76014052Y-129708772D01*
X75954056Y-129971632D01*
X75954052Y-129971658D01*
X75923868Y-130239534D01*
X58406559Y-130239534D01*
X58400351Y-130214347D01*
X58400350Y-130214346D01*
X58400350Y-130214343D01*
X58308313Y-129971658D01*
X58308305Y-129971636D01*
X58308305Y-129971635D01*
X58301664Y-129954125D01*
X58172322Y-129707685D01*
X58015218Y-129480082D01*
X58014444Y-129478918D01*
X58014231Y-129478651D01*
X57993305Y-129455030D01*
X57829673Y-129270327D01*
X57621355Y-129085774D01*
X57621350Y-129085770D01*
X57621347Y-129085768D01*
X57621340Y-129085762D01*
X57621197Y-129085658D01*
X57620691Y-129085315D01*
X57392313Y-128927676D01*
X57145875Y-128798335D01*
X56958254Y-128727182D01*
X56885657Y-128699650D01*
X56885654Y-128699649D01*
X56885651Y-128699648D01*
X56885648Y-128699647D01*
X56615441Y-128633046D01*
X56341341Y-128599765D01*
X56339956Y-128599565D01*
X56339161Y-128599500D01*
X56339159Y-128599500D01*
X56339154Y-128599500D01*
X56239562Y-128599500D01*
X54539562Y-128599500D01*
X54460438Y-128599500D01*
X54460435Y-128599500D01*
X54460432Y-128599500D01*
X54384018Y-128619976D01*
X54384011Y-128619978D01*
X54384009Y-128619979D01*
X54315492Y-128659537D01*
X54259537Y-128715492D01*
X54239479Y-128750234D01*
X54227612Y-128770789D01*
X54219979Y-128784009D01*
X54219976Y-128784018D01*
X54199500Y-128860432D01*
X54199500Y-128860435D01*
X54199500Y-128860438D01*
X54199500Y-130605756D01*
X54197471Y-130645668D01*
X54209755Y-130691229D01*
X54211618Y-130698183D01*
X54211619Y-130698190D01*
X54221485Y-130735004D01*
X54221668Y-130735606D01*
X54222199Y-130737462D01*
X54222251Y-130737578D01*
X54242345Y-130768413D01*
X54242346Y-130768413D01*
X54243805Y-130770652D01*
X54259540Y-130797906D01*
X54265350Y-130803716D01*
X54267098Y-130806398D01*
X54270989Y-130812369D01*
X54270989Y-130812371D01*
X54270993Y-130812375D01*
X54274217Y-130817324D01*
X54293883Y-130833200D01*
X54295537Y-130834565D01*
X54296567Y-130835434D01*
X54302729Y-130841095D01*
X54315489Y-130853855D01*
X54315491Y-130853856D01*
X54315492Y-130853857D01*
X54320641Y-130857808D01*
X54320568Y-130857902D01*
X54323412Y-130859860D01*
X54329891Y-130865120D01*
X54330178Y-130865563D01*
X54335335Y-130869881D01*
X54386136Y-130917683D01*
X54480790Y-131006750D01*
X54486055Y-131012094D01*
X54491105Y-131017625D01*
X54495952Y-131023355D01*
X54508950Y-131039964D01*
X54632472Y-131197791D01*
X54636875Y-131203879D01*
X54641035Y-131210117D01*
X54644959Y-131216515D01*
X54753535Y-131409569D01*
X54756962Y-131416242D01*
X54760135Y-131423043D01*
X54763048Y-131429963D01*
X54793915Y-131511820D01*
X54841197Y-131637215D01*
X54843577Y-131644331D01*
X54845682Y-131651522D01*
X54847518Y-131658809D01*
X54893443Y-131875502D01*
X54894720Y-131882903D01*
X54895713Y-131890327D01*
X54896426Y-131897802D01*
X54909068Y-132118946D01*
X54909212Y-132126457D01*
X54909071Y-132133956D01*
X54908645Y-132141450D01*
X54887715Y-132361951D01*
X54886722Y-132369400D01*
X54885448Y-132376797D01*
X54883894Y-132384138D01*
X54829877Y-132598928D01*
X54827773Y-132606129D01*
X54825398Y-132613244D01*
X54822750Y-132620278D01*
X54736874Y-132824468D01*
X54733705Y-132831268D01*
X54730279Y-132837947D01*
X54726607Y-132844482D01*
X54610858Y-133033332D01*
X54606694Y-133039581D01*
X54602310Y-133045648D01*
X54597685Y-133051563D01*
X54454708Y-133220764D01*
X54449647Y-133226311D01*
X54444401Y-133231641D01*
X54438933Y-133236791D01*
X54272029Y-133382427D01*
X54266192Y-133387143D01*
X54260198Y-133391621D01*
X54254013Y-133395886D01*
X54067021Y-133514617D01*
X54060518Y-133518407D01*
X54053893Y-133521938D01*
X54047152Y-133525209D01*
X53844372Y-133614305D01*
X53837388Y-133617063D01*
X53830315Y-133619550D01*
X53823141Y-133621770D01*
X53609215Y-133679192D01*
X53601896Y-133680862D01*
X53594533Y-133682250D01*
X53587107Y-133683361D01*
X53366963Y-133707785D01*
X53359475Y-133708330D01*
X53351974Y-133708590D01*
X53344464Y-133708565D01*
X53123156Y-133699434D01*
X53115667Y-133698840D01*
X53108214Y-133697963D01*
X53100797Y-133696803D01*
X52883416Y-133654323D01*
X52876110Y-133652606D01*
X52868893Y-133650617D01*
X52861734Y-133648350D01*
X52653245Y-133573490D01*
X52646281Y-133570687D01*
X52639455Y-133567634D01*
X52632719Y-133564309D01*
X52437960Y-133458804D01*
X52431494Y-133454977D01*
X52425182Y-133450910D01*
X52419033Y-133446609D01*
X52242467Y-133312884D01*
X52236661Y-133308131D01*
X52231029Y-133303150D01*
X52225603Y-133297972D01*
X52209811Y-133281714D01*
X52071278Y-133139091D01*
X52066257Y-133133513D01*
X52061460Y-133127760D01*
X52056871Y-133121812D01*
X52054109Y-133117936D01*
X52054108Y-133117935D01*
X52048407Y-133109935D01*
X51928333Y-132941425D01*
X51924210Y-132935147D01*
X51920333Y-132928726D01*
X51916699Y-132922158D01*
X51816901Y-132724408D01*
X51813772Y-132717573D01*
X51810911Y-132710641D01*
X51808314Y-132703605D01*
X51806929Y-132699363D01*
X51739558Y-132493054D01*
X51737500Y-132485834D01*
X51737404Y-132485442D01*
X51735717Y-132478542D01*
X51734220Y-132471227D01*
X51724994Y-132415435D01*
X51698071Y-132252641D01*
X51697134Y-132245246D01*
X51696471Y-132237742D01*
X51696097Y-132230266D01*
X51693405Y-132008742D01*
X51693599Y-132001252D01*
X51694077Y-131993760D01*
X51694835Y-131986332D01*
X51725659Y-131766949D01*
X51726980Y-131759583D01*
X51728588Y-131752237D01*
X51730459Y-131745015D01*
X51794094Y-131532794D01*
X51796513Y-131525717D01*
X51799211Y-131518704D01*
X51802158Y-131511832D01*
X51834900Y-131442835D01*
X51897138Y-131311676D01*
X51900597Y-131305048D01*
X51904321Y-131298528D01*
X51908263Y-131292197D01*
X52032422Y-131108677D01*
X52036846Y-131102645D01*
X52041494Y-131096786D01*
X52046379Y-131091087D01*
X52198936Y-130926189D01*
X52200188Y-130924860D01*
X52201536Y-130923458D01*
X52202799Y-130922169D01*
X52206723Y-130918245D01*
X52207944Y-130917047D01*
X52209300Y-130915741D01*
X52210443Y-130914660D01*
X52239353Y-130887819D01*
X52261405Y-130848231D01*
X52280021Y-130815989D01*
X52280627Y-130813727D01*
X52285677Y-130804662D01*
X52292895Y-130767940D01*
X52300500Y-130739562D01*
X52300500Y-130729258D01*
X52304038Y-130711261D01*
X52301564Y-130690765D01*
X52301034Y-130684893D01*
X52300676Y-130678927D01*
X52300500Y-130673015D01*
X52300500Y-128952406D01*
X52300500Y-128952405D01*
X52288222Y-128914618D01*
X52280021Y-128884011D01*
X52276033Y-128877103D01*
X52271085Y-128861875D01*
X52264543Y-128852871D01*
X52255419Y-128840312D01*
X52255418Y-128840311D01*
X52252595Y-128836425D01*
X52252362Y-128836104D01*
X52240460Y-128815489D01*
X52229211Y-128804240D01*
X52224629Y-128797933D01*
X52224623Y-128797916D01*
X52224579Y-128797864D01*
X52222421Y-128794889D01*
X52222357Y-128794807D01*
X52216290Y-128786456D01*
X52215311Y-128785050D01*
X52215132Y-128784863D01*
X52202063Y-128775368D01*
X52190256Y-128765285D01*
X52184511Y-128759540D01*
X52168378Y-128750225D01*
X52159702Y-128744592D01*
X52138125Y-128728915D01*
X52132784Y-128727179D01*
X52122896Y-128723966D01*
X52115989Y-128719979D01*
X52085397Y-128711781D01*
X52082934Y-128710981D01*
X52082922Y-128710978D01*
X52082914Y-128710975D01*
X52050935Y-128700585D01*
X52047596Y-128699500D01*
X52047595Y-128699500D01*
X52047594Y-128699500D01*
X52039562Y-128699500D01*
X52005304Y-128699500D01*
X52001781Y-128699437D01*
X51998520Y-128699320D01*
X51998243Y-128699311D01*
X51994721Y-128699122D01*
X51897616Y-128692177D01*
X51768716Y-128682958D01*
X51761696Y-128682203D01*
X51755999Y-128681384D01*
X51754734Y-128681202D01*
X51747775Y-128679948D01*
X51531563Y-128632914D01*
X51524706Y-128631163D01*
X51517938Y-128629175D01*
X51511242Y-128626946D01*
X51327846Y-128558543D01*
X51303933Y-128549624D01*
X51297424Y-128546927D01*
X51290996Y-128543991D01*
X51284690Y-128540834D01*
X51090494Y-128434796D01*
X51084441Y-128431205D01*
X51078466Y-128427366D01*
X51072703Y-128423364D01*
X50895550Y-128290749D01*
X50890063Y-128286327D01*
X50884739Y-128281714D01*
X50879564Y-128276897D01*
X50723101Y-128120434D01*
X50718284Y-128115259D01*
X50713671Y-128109935D01*
X50709238Y-128104434D01*
X50679009Y-128064052D01*
X50576638Y-127927300D01*
X50572616Y-127921507D01*
X50568798Y-127915565D01*
X50565197Y-127909495D01*
X50541460Y-127866024D01*
X50459162Y-127715305D01*
X50456011Y-127709010D01*
X50453074Y-127702580D01*
X50450367Y-127696045D01*
X50402805Y-127568525D01*
X50373047Y-127488742D01*
X50370825Y-127482067D01*
X50368829Y-127475270D01*
X50367089Y-127468450D01*
X50320051Y-127252222D01*
X50318798Y-127245284D01*
X50317792Y-127238286D01*
X50317041Y-127231285D01*
X50300874Y-127005240D01*
X50300689Y-127001784D01*
X50300561Y-126998190D01*
X50300500Y-126994696D01*
X50300500Y-123425413D01*
X54992646Y-123425413D01*
X54992646Y-123888293D01*
X55032608Y-124345051D01*
X55032609Y-124345064D01*
X55032985Y-124349369D01*
X55113356Y-124805175D01*
X55113858Y-124807155D01*
X55114123Y-124808038D01*
X55232400Y-125249461D01*
X55232407Y-125249486D01*
X55233149Y-125252252D01*
X55233151Y-125252260D01*
X55233153Y-125252264D01*
X55248049Y-125293190D01*
X55359899Y-125600498D01*
X55391456Y-125687199D01*
X55391955Y-125688274D01*
X55392037Y-125688445D01*
X55451467Y-125815892D01*
X55564044Y-126057314D01*
X55587069Y-126106690D01*
X55818487Y-126507518D01*
X55818488Y-126507519D01*
X55818705Y-126507894D01*
X55819708Y-126509263D01*
X55825634Y-126517725D01*
X55825634Y-126517726D01*
X55825636Y-126517728D01*
X56083974Y-126886675D01*
X56083977Y-126886678D01*
X56083981Y-126886683D01*
X56381468Y-127241215D01*
X56381474Y-127241221D01*
X56381478Y-127241225D01*
X56381484Y-127241232D01*
X56708768Y-127568516D01*
X56708774Y-127568521D01*
X56708776Y-127568523D01*
X57063315Y-127866017D01*
X57063320Y-127866021D01*
X57063322Y-127866023D01*
X57063325Y-127866025D01*
X57063340Y-127866036D01*
X57146816Y-127924486D01*
X57442476Y-128131509D01*
X57442480Y-128131511D01*
X57442481Y-128131512D01*
X57444278Y-128132549D01*
X57444537Y-128132719D01*
X57445050Y-128132995D01*
X57682494Y-128270084D01*
X57682495Y-128270084D01*
X57843316Y-128362934D01*
X58262800Y-128558543D01*
X58603937Y-128682707D01*
X58623082Y-128689675D01*
X58637046Y-128700585D01*
X58697735Y-128716846D01*
X58697736Y-128716847D01*
X58697747Y-128716850D01*
X58697746Y-128716850D01*
X58742778Y-128728916D01*
X59144815Y-128836641D01*
X59600633Y-128917014D01*
X59703097Y-128925978D01*
X60061706Y-128957354D01*
X60524578Y-128957354D01*
X60524586Y-128957354D01*
X60678270Y-128943907D01*
X60793539Y-128933822D01*
X60985659Y-128917014D01*
X61441477Y-128836641D01*
X61888556Y-128716847D01*
X62323492Y-128558543D01*
X62742976Y-128362934D01*
X63143816Y-128131509D01*
X63522960Y-127866030D01*
X63522966Y-127866025D01*
X63522969Y-127866023D01*
X63877513Y-127568525D01*
X63877524Y-127568516D01*
X64204808Y-127241232D01*
X64502322Y-126886668D01*
X64767801Y-126507524D01*
X64999226Y-126106684D01*
X65194835Y-125687200D01*
X65353139Y-125252264D01*
X65353142Y-125252251D01*
X65353143Y-125252251D01*
X65411593Y-125034109D01*
X65472933Y-124805185D01*
X65553306Y-124349367D01*
X65570114Y-124157247D01*
X65593646Y-123888294D01*
X65593646Y-123425412D01*
X65560227Y-123043446D01*
X65560227Y-123043445D01*
X65553307Y-122964356D01*
X65553306Y-122964341D01*
X65472933Y-122508523D01*
X65353139Y-122061444D01*
X65207630Y-121661661D01*
X65196033Y-121629801D01*
X65195833Y-121629182D01*
X65194981Y-121626902D01*
X65194690Y-121626113D01*
X65193880Y-121623887D01*
X65192102Y-121620647D01*
X64999226Y-121207024D01*
X64773695Y-120816392D01*
X64767804Y-120806189D01*
X64767803Y-120806188D01*
X64767801Y-120806184D01*
X64767797Y-120806179D01*
X64767585Y-120805811D01*
X64766572Y-120804428D01*
X64730392Y-120752758D01*
X64692899Y-120699213D01*
X81999500Y-120699213D01*
X81999500Y-121000784D01*
X82038014Y-121293326D01*
X82038014Y-121293331D01*
X82038860Y-121299762D01*
X82053039Y-121352678D01*
X82107737Y-121556814D01*
X82116915Y-121591064D01*
X82116916Y-121591067D01*
X82232310Y-121869654D01*
X82232313Y-121869660D01*
X82232315Y-121869664D01*
X82232317Y-121869668D01*
X82364329Y-122098319D01*
X82364330Y-122098323D01*
X82382325Y-122129490D01*
X82383102Y-122130835D01*
X82566675Y-122370073D01*
X82566677Y-122370075D01*
X82566681Y-122370080D01*
X82779920Y-122583319D01*
X82779924Y-122583322D01*
X82779926Y-122583324D01*
X82779931Y-122583328D01*
X82779961Y-122583354D01*
X82780305Y-122583614D01*
X82853392Y-122639696D01*
X83019168Y-122766900D01*
X83280332Y-122917683D01*
X83558942Y-123033087D01*
X83850232Y-123111138D01*
X84056676Y-123138316D01*
X84086369Y-123147111D01*
X84096652Y-123152015D01*
X84141037Y-123194129D01*
X84152191Y-123254289D01*
X84152191Y-123254291D01*
X84151124Y-123262398D01*
X84138707Y-123298979D01*
X84133611Y-123307805D01*
X84133586Y-123307867D01*
X84133398Y-123308594D01*
X84102098Y-123425412D01*
X84099500Y-123435108D01*
X84099500Y-123566892D01*
X84129579Y-123679151D01*
X84133609Y-123694190D01*
X84199496Y-123808309D01*
X84199498Y-123808311D01*
X84199500Y-123808314D01*
X84292686Y-123901500D01*
X84292688Y-123901501D01*
X84292690Y-123901503D01*
X84293237Y-123901898D01*
X84295239Y-123902975D01*
X84303493Y-123907740D01*
X84350040Y-123934614D01*
X84371634Y-123958596D01*
X84405944Y-123967174D01*
X84407548Y-123967588D01*
X84534108Y-124001500D01*
X84534110Y-124001500D01*
X84665890Y-124001500D01*
X84665892Y-124001500D01*
X84793186Y-123967392D01*
X84793188Y-123967390D01*
X84793190Y-123967390D01*
X84901190Y-123905035D01*
X84904067Y-123903639D01*
X84904853Y-123903122D01*
X84909862Y-123900028D01*
X84911161Y-123899277D01*
X84916519Y-123892294D01*
X84961138Y-123847676D01*
X84968237Y-123840576D01*
X84993284Y-123822380D01*
X85015056Y-123811287D01*
X85059995Y-123800500D01*
X85284820Y-123800500D01*
X85315408Y-123805343D01*
X85328095Y-123809466D01*
X85377595Y-123845427D01*
X85377596Y-123845428D01*
X85380591Y-123849550D01*
X85399500Y-123907740D01*
X85399500Y-124685997D01*
X85394654Y-124716591D01*
X85387107Y-124739817D01*
X85362961Y-124779222D01*
X85349506Y-124792678D01*
X85349501Y-124792683D01*
X85349497Y-124792689D01*
X85349491Y-124792697D01*
X85283608Y-124906809D01*
X85283330Y-124907545D01*
X85282784Y-124909886D01*
X85249500Y-125034108D01*
X85249500Y-125165892D01*
X85272640Y-125252252D01*
X85272639Y-125252252D01*
X85283609Y-125293190D01*
X85283610Y-125293193D01*
X85349494Y-125407307D01*
X85349496Y-125407309D01*
X85349498Y-125407311D01*
X85349500Y-125407314D01*
X85442686Y-125500500D01*
X85442688Y-125500501D01*
X85442690Y-125500503D01*
X85443237Y-125500898D01*
X85445239Y-125501975D01*
X85489207Y-125527359D01*
X85500040Y-125533614D01*
X85521634Y-125557596D01*
X85555944Y-125566174D01*
X85557548Y-125566588D01*
X85684108Y-125600500D01*
X85684110Y-125600500D01*
X85815890Y-125600500D01*
X85815892Y-125600500D01*
X85943186Y-125566392D01*
X85943188Y-125566390D01*
X85943190Y-125566390D01*
X86051190Y-125504035D01*
X86054067Y-125502639D01*
X86054853Y-125502122D01*
X86059862Y-125499028D01*
X86061161Y-125498277D01*
X86066519Y-125491294D01*
X86150500Y-125407314D01*
X86183879Y-125349500D01*
X86216390Y-125293190D01*
X86216390Y-125293188D01*
X86216392Y-125293186D01*
X86250500Y-125165892D01*
X86250500Y-125034108D01*
X86216392Y-124906814D01*
X86216390Y-124906811D01*
X86216390Y-124906809D01*
X86216383Y-124906798D01*
X86216064Y-124906091D01*
X86214805Y-124904063D01*
X86150507Y-124792697D01*
X86150503Y-124792690D01*
X86150498Y-124792684D01*
X86140579Y-124782765D01*
X86122377Y-124757708D01*
X86111289Y-124735945D01*
X86100500Y-124691003D01*
X86100500Y-124060390D01*
X86105344Y-124029801D01*
X86112891Y-124006570D01*
X86137040Y-123967161D01*
X87963622Y-122140579D01*
X87988674Y-122122378D01*
X88010441Y-122111288D01*
X88055382Y-122100500D01*
X88335999Y-122100500D01*
X88366590Y-122105344D01*
X88389816Y-122112891D01*
X88429226Y-122137041D01*
X88442686Y-122150500D01*
X88443237Y-122150898D01*
X88445239Y-122151975D01*
X88489207Y-122177359D01*
X88500040Y-122183614D01*
X88521634Y-122207596D01*
X88555944Y-122216174D01*
X88557548Y-122216588D01*
X88684108Y-122250500D01*
X88684110Y-122250500D01*
X88815890Y-122250500D01*
X88815892Y-122250500D01*
X88943186Y-122216392D01*
X88943188Y-122216390D01*
X88943190Y-122216390D01*
X89051190Y-122154035D01*
X89054067Y-122152639D01*
X89054853Y-122152122D01*
X89059862Y-122149028D01*
X89061161Y-122148277D01*
X89066519Y-122141294D01*
X89150500Y-122057314D01*
X89150503Y-122057309D01*
X89216390Y-121943190D01*
X89216390Y-121943188D01*
X89216392Y-121943186D01*
X89250500Y-121815892D01*
X89250500Y-121684108D01*
X89216392Y-121556814D01*
X89216390Y-121556811D01*
X89216390Y-121556809D01*
X89216383Y-121556798D01*
X89216066Y-121556094D01*
X89214812Y-121554076D01*
X89150503Y-121442690D01*
X89150501Y-121442688D01*
X89150500Y-121442686D01*
X89057314Y-121349500D01*
X89057311Y-121349498D01*
X89057309Y-121349496D01*
X89035660Y-121336997D01*
X89000476Y-121316683D01*
X88979442Y-121293321D01*
X88892053Y-121269907D01*
X88892052Y-121269906D01*
X88836298Y-121254967D01*
X88815892Y-121249500D01*
X88815891Y-121249500D01*
X88684109Y-121249500D01*
X88684108Y-121249500D01*
X88646027Y-121259703D01*
X88607946Y-121269907D01*
X88607945Y-121269906D01*
X88556807Y-121283609D01*
X88556805Y-121283610D01*
X88445291Y-121347993D01*
X88445287Y-121347996D01*
X88442690Y-121349496D01*
X88442689Y-121349497D01*
X88442686Y-121349499D01*
X88442686Y-121349500D01*
X88432547Y-121359637D01*
X88429259Y-121362643D01*
X88417331Y-121368058D01*
X88407423Y-121377769D01*
X88385950Y-121388710D01*
X88341005Y-121399500D01*
X88250870Y-121399500D01*
X88220276Y-121394654D01*
X88209874Y-121391274D01*
X88160374Y-121355309D01*
X88141468Y-121297118D01*
X88156051Y-121245402D01*
X88159062Y-121240489D01*
X88173464Y-121222217D01*
X88655102Y-120740579D01*
X88680154Y-120722378D01*
X88701921Y-120711288D01*
X88746862Y-120700500D01*
X89935999Y-120700500D01*
X89966590Y-120705344D01*
X89989816Y-120712891D01*
X90029226Y-120737041D01*
X90042790Y-120750605D01*
X90043046Y-120750794D01*
X90045239Y-120751975D01*
X90089207Y-120777359D01*
X90100040Y-120783614D01*
X90121634Y-120807596D01*
X90155944Y-120816174D01*
X90157548Y-120816588D01*
X90284108Y-120850500D01*
X90284110Y-120850500D01*
X90415890Y-120850500D01*
X90415892Y-120850500D01*
X90543186Y-120816392D01*
X90543188Y-120816390D01*
X90543190Y-120816390D01*
X90651190Y-120754035D01*
X90654067Y-120752639D01*
X90654853Y-120752122D01*
X90659862Y-120749028D01*
X90661161Y-120748277D01*
X90666519Y-120741294D01*
X90750500Y-120657314D01*
X90816392Y-120543186D01*
X90850500Y-120415892D01*
X90850500Y-120284108D01*
X90816392Y-120156814D01*
X90816390Y-120156811D01*
X90816390Y-120156809D01*
X90816383Y-120156798D01*
X90816066Y-120156094D01*
X90814812Y-120154076D01*
X90750503Y-120042690D01*
X90750501Y-120042688D01*
X90750500Y-120042686D01*
X90657314Y-119949500D01*
X90657311Y-119949498D01*
X90657309Y-119949496D01*
X90654706Y-119947993D01*
X90600476Y-119916683D01*
X90579442Y-119893322D01*
X90493799Y-119870375D01*
X90493798Y-119870374D01*
X90436766Y-119855093D01*
X90415892Y-119849500D01*
X90415891Y-119849500D01*
X90284109Y-119849500D01*
X90284108Y-119849500D01*
X90245154Y-119859937D01*
X90206199Y-119870375D01*
X90206198Y-119870374D01*
X90156807Y-119883609D01*
X90156805Y-119883610D01*
X90045291Y-119947993D01*
X90045287Y-119947996D01*
X90042690Y-119949496D01*
X90042689Y-119949497D01*
X90042686Y-119949499D01*
X90042686Y-119949500D01*
X90032547Y-119959637D01*
X90029259Y-119962643D01*
X90017331Y-119968058D01*
X90007423Y-119977769D01*
X89985950Y-119988710D01*
X89941005Y-119999500D01*
X88503856Y-119999500D01*
X88414712Y-120023386D01*
X88334788Y-120069530D01*
X86612637Y-121791679D01*
X86585260Y-121808616D01*
X86580277Y-121813605D01*
X86576133Y-121814263D01*
X86574033Y-121815563D01*
X86566495Y-121818084D01*
X86565768Y-121815910D01*
X86519850Y-121823206D01*
X86465320Y-121795455D01*
X86437516Y-121740954D01*
X86437321Y-121739725D01*
X86443630Y-121686313D01*
X86483087Y-121591058D01*
X86561138Y-121299768D01*
X86600500Y-121000783D01*
X86600500Y-120699217D01*
X86561138Y-120400232D01*
X86483087Y-120108942D01*
X86367683Y-119830332D01*
X86216900Y-119569168D01*
X86216897Y-119569164D01*
X86033324Y-119329926D01*
X86033322Y-119329924D01*
X86033319Y-119329920D01*
X85820080Y-119116681D01*
X85820075Y-119116677D01*
X85820073Y-119116675D01*
X85745609Y-119059537D01*
X85580838Y-118933104D01*
X85580835Y-118933102D01*
X85524367Y-118900500D01*
X85319668Y-118782317D01*
X85319664Y-118782315D01*
X85319660Y-118782313D01*
X85319654Y-118782310D01*
X85048870Y-118670148D01*
X85048856Y-118670143D01*
X85041063Y-118666915D01*
X85041062Y-118666914D01*
X85041058Y-118666913D01*
X84752632Y-118589629D01*
X84750433Y-118588969D01*
X84745373Y-118588148D01*
X84743329Y-118588014D01*
X84450785Y-118549500D01*
X84450784Y-118549500D01*
X84450783Y-118549500D01*
X84149217Y-118549500D01*
X84149215Y-118549500D01*
X84149213Y-118549500D01*
X83857961Y-118587843D01*
X83857950Y-118587845D01*
X83850239Y-118588861D01*
X83850237Y-118588861D01*
X83850232Y-118588862D01*
X83760553Y-118612891D01*
X83691050Y-118631514D01*
X83690684Y-118631610D01*
X83690134Y-118631577D01*
X83660436Y-118634697D01*
X83655463Y-118634437D01*
X83653045Y-118634310D01*
X83638014Y-118628538D01*
X83629602Y-118628048D01*
X83623312Y-118622893D01*
X83595926Y-118612377D01*
X83562608Y-118561059D01*
X83565816Y-118499957D01*
X83594345Y-118459822D01*
X83594463Y-118459723D01*
X83604292Y-118452817D01*
X83607312Y-118450501D01*
X83607314Y-118450500D01*
X83700500Y-118357314D01*
X83766392Y-118243186D01*
X83794303Y-118139016D01*
X83806899Y-118110726D01*
X83814167Y-118099535D01*
X83861714Y-118061035D01*
X83872040Y-118057072D01*
X83907510Y-118050500D01*
X87735999Y-118050500D01*
X87766590Y-118055344D01*
X87789816Y-118062891D01*
X87829226Y-118087041D01*
X87842686Y-118100500D01*
X87843237Y-118100898D01*
X87845239Y-118101975D01*
X87869343Y-118115891D01*
X87900040Y-118133614D01*
X87921634Y-118157596D01*
X87955944Y-118166174D01*
X87957548Y-118166588D01*
X88084108Y-118200500D01*
X88084110Y-118200500D01*
X88215890Y-118200500D01*
X88215892Y-118200500D01*
X88343186Y-118166392D01*
X88343188Y-118166390D01*
X88343190Y-118166390D01*
X88451190Y-118104035D01*
X88454067Y-118102639D01*
X88454853Y-118102122D01*
X88459862Y-118099028D01*
X88461161Y-118098277D01*
X88466519Y-118091294D01*
X88550500Y-118007314D01*
X88550503Y-118007309D01*
X88558657Y-117993187D01*
X88579788Y-117956585D01*
X88616390Y-117893190D01*
X88616390Y-117893188D01*
X88616392Y-117893186D01*
X88650500Y-117765892D01*
X88650500Y-117634108D01*
X88616392Y-117506814D01*
X88616390Y-117506811D01*
X88616390Y-117506809D01*
X88616383Y-117506798D01*
X88616066Y-117506094D01*
X88614812Y-117504076D01*
X88550503Y-117392690D01*
X88550501Y-117392688D01*
X88550500Y-117392686D01*
X88457314Y-117299500D01*
X88457311Y-117299498D01*
X88457309Y-117299496D01*
X88445285Y-117292554D01*
X88400476Y-117266683D01*
X88379442Y-117243322D01*
X88293799Y-117220375D01*
X88293798Y-117220374D01*
X88236766Y-117205093D01*
X88215892Y-117199500D01*
X88215891Y-117199500D01*
X88084109Y-117199500D01*
X88084108Y-117199500D01*
X88046380Y-117209609D01*
X88006199Y-117220375D01*
X88006198Y-117220374D01*
X87956807Y-117233609D01*
X87956805Y-117233610D01*
X87845291Y-117297993D01*
X87845287Y-117297996D01*
X87842690Y-117299496D01*
X87842689Y-117299497D01*
X87842686Y-117299499D01*
X87842686Y-117299500D01*
X87832547Y-117309637D01*
X87829259Y-117312643D01*
X87817331Y-117318058D01*
X87807423Y-117327769D01*
X87785950Y-117338710D01*
X87741005Y-117349500D01*
X83603855Y-117349500D01*
X83600115Y-117350501D01*
X83600116Y-117350502D01*
X83595192Y-117351821D01*
X83574694Y-117357313D01*
X83542232Y-117366012D01*
X83542229Y-117366011D01*
X83514710Y-117373386D01*
X83434786Y-117419530D01*
X83434783Y-117419532D01*
X83344899Y-117509416D01*
X83319843Y-117527620D01*
X83298083Y-117538708D01*
X83253136Y-117549500D01*
X83234108Y-117549500D01*
X83215343Y-117554528D01*
X83156199Y-117570375D01*
X83156198Y-117570374D01*
X83106807Y-117583609D01*
X83106805Y-117583610D01*
X82992694Y-117649492D01*
X82899492Y-117742694D01*
X82833610Y-117856805D01*
X82833608Y-117856809D01*
X82823861Y-117893184D01*
X82823862Y-117893185D01*
X82799500Y-117984108D01*
X82799500Y-118115891D01*
X82822170Y-118200502D01*
X82833608Y-118243189D01*
X82833610Y-118243193D01*
X82899494Y-118357307D01*
X82899496Y-118357309D01*
X82899498Y-118357311D01*
X82899500Y-118357314D01*
X82992686Y-118450500D01*
X82992688Y-118450501D01*
X82992690Y-118450503D01*
X82993237Y-118450898D01*
X82995239Y-118451975D01*
X83038695Y-118477064D01*
X83050040Y-118483614D01*
X83071634Y-118507596D01*
X83105944Y-118516174D01*
X83107548Y-118516588D01*
X83234108Y-118550500D01*
X83234110Y-118550500D01*
X83326601Y-118550500D01*
X83357957Y-118557884D01*
X83364999Y-118557882D01*
X83368384Y-118560339D01*
X83370780Y-118560904D01*
X83377893Y-118564451D01*
X83376870Y-118566500D01*
X83414512Y-118593828D01*
X83433440Y-118652012D01*
X83414553Y-118710209D01*
X83413827Y-118711209D01*
X83371600Y-118744511D01*
X83280338Y-118782313D01*
X83280336Y-118782314D01*
X83280333Y-118782316D01*
X83019160Y-118933104D01*
X82779929Y-119116672D01*
X82566672Y-119329929D01*
X82383104Y-119569160D01*
X82232310Y-119830343D01*
X82116916Y-120108931D01*
X82116915Y-120108934D01*
X82038860Y-120400236D01*
X82038014Y-120406668D01*
X82038014Y-120406672D01*
X81999500Y-120699213D01*
X64692899Y-120699213D01*
X64663558Y-120657309D01*
X64502322Y-120427040D01*
X64502316Y-120427032D01*
X64502311Y-120427026D01*
X64502309Y-120427023D01*
X64204815Y-120072484D01*
X64204813Y-120072482D01*
X64204808Y-120072476D01*
X63877524Y-119745192D01*
X63877517Y-119745186D01*
X63877513Y-119745182D01*
X63877507Y-119745176D01*
X63522975Y-119447689D01*
X63522970Y-119447685D01*
X63522967Y-119447682D01*
X63255553Y-119260438D01*
X63145571Y-119183428D01*
X63144184Y-119182411D01*
X62742988Y-118950780D01*
X62742982Y-118950777D01*
X62618772Y-118892857D01*
X62324736Y-118755745D01*
X62324540Y-118755651D01*
X62323491Y-118755164D01*
X62117234Y-118680093D01*
X61994768Y-118635519D01*
X61994768Y-118635518D01*
X61963208Y-118624031D01*
X61949244Y-118613121D01*
X61892977Y-118598045D01*
X61891811Y-118597673D01*
X61889360Y-118597061D01*
X61887776Y-118596651D01*
X61711804Y-118549500D01*
X61444330Y-118477831D01*
X61443447Y-118477566D01*
X61441467Y-118477064D01*
X60985652Y-118396692D01*
X60524586Y-118356354D01*
X60524578Y-118356354D01*
X60524571Y-118356354D01*
X60061721Y-118356354D01*
X60061714Y-118356354D01*
X60061707Y-118356354D01*
X59655396Y-118391902D01*
X59604946Y-118396316D01*
X59604934Y-118396316D01*
X59604935Y-118396317D01*
X59600629Y-118396693D01*
X59144823Y-118477064D01*
X59142843Y-118477566D01*
X59141960Y-118477831D01*
X58697755Y-118596854D01*
X58469057Y-118680093D01*
X58262808Y-118755161D01*
X57955419Y-118898499D01*
X57843302Y-118950780D01*
X57442101Y-119182413D01*
X57440710Y-119183434D01*
X57063324Y-119447682D01*
X57063320Y-119447685D01*
X57063315Y-119447689D01*
X56708788Y-119745172D01*
X56381464Y-120072496D01*
X56083981Y-120427023D01*
X56083977Y-120427028D01*
X56083974Y-120427032D01*
X55819726Y-120804418D01*
X55818705Y-120805809D01*
X55587072Y-121207010D01*
X55571457Y-121240497D01*
X55391453Y-121626516D01*
X55391450Y-121626523D01*
X55391450Y-121626524D01*
X55233146Y-122061463D01*
X55114123Y-122505668D01*
X55113858Y-122506551D01*
X55113356Y-122508531D01*
X55032985Y-122964337D01*
X55032609Y-122968643D01*
X55032608Y-122968655D01*
X54992646Y-123425413D01*
X50300500Y-123425413D01*
X50300500Y-111284108D01*
X83989500Y-111284108D01*
X83989500Y-111415892D01*
X84019579Y-111528151D01*
X84023609Y-111543190D01*
X84089496Y-111657309D01*
X84089498Y-111657311D01*
X84089500Y-111657314D01*
X84182686Y-111750500D01*
X84182688Y-111750501D01*
X84182690Y-111750503D01*
X84183237Y-111750898D01*
X84185239Y-111751975D01*
X84229207Y-111777359D01*
X84240040Y-111783614D01*
X84261634Y-111807596D01*
X84295944Y-111816174D01*
X84297548Y-111816588D01*
X84424108Y-111850500D01*
X84424110Y-111850500D01*
X84555890Y-111850500D01*
X84555892Y-111850500D01*
X84683186Y-111816392D01*
X84683188Y-111816390D01*
X84683190Y-111816390D01*
X84791190Y-111754035D01*
X84794067Y-111752639D01*
X84794853Y-111752122D01*
X84799862Y-111749028D01*
X84801161Y-111748277D01*
X84806519Y-111741294D01*
X84890500Y-111657314D01*
X84956392Y-111543186D01*
X84984303Y-111439016D01*
X84996899Y-111410726D01*
X85004167Y-111399535D01*
X85051714Y-111361035D01*
X85062040Y-111357072D01*
X85097510Y-111350500D01*
X88334820Y-111350500D01*
X88365408Y-111355343D01*
X88378095Y-111359466D01*
X88427595Y-111395427D01*
X88427596Y-111395428D01*
X88430591Y-111399550D01*
X88449500Y-111457740D01*
X88449500Y-115284108D01*
X88449500Y-115415892D01*
X88479579Y-115528151D01*
X88483609Y-115543190D01*
X88549496Y-115657309D01*
X88549498Y-115657311D01*
X88549500Y-115657314D01*
X89747933Y-116855747D01*
X90860418Y-117968232D01*
X90878623Y-117993290D01*
X90889709Y-118015047D01*
X90900500Y-118059993D01*
X90900500Y-118984108D01*
X90900500Y-119115892D01*
X90906283Y-119137475D01*
X90916299Y-119174857D01*
X90916301Y-119174861D01*
X90934609Y-119243190D01*
X90934610Y-119243192D01*
X90934611Y-119243195D01*
X91000495Y-119357309D01*
X91000498Y-119357313D01*
X91109415Y-119466228D01*
X91127620Y-119491285D01*
X91138708Y-119513045D01*
X91149500Y-119557992D01*
X91149500Y-121336997D01*
X91144654Y-121367590D01*
X91137107Y-121390817D01*
X91112957Y-121430227D01*
X91108756Y-121434427D01*
X91108751Y-121434430D01*
X91085611Y-121457572D01*
X91079761Y-121463422D01*
X91079760Y-121463423D01*
X91064330Y-121478852D01*
X91050765Y-121492418D01*
X91000498Y-121542687D01*
X91000497Y-121542689D01*
X91000491Y-121542697D01*
X90934611Y-121656803D01*
X90934609Y-121656807D01*
X90934609Y-121656809D01*
X90900500Y-121784109D01*
X90900500Y-121784110D01*
X90900500Y-123517783D01*
X90895654Y-123548376D01*
X90888107Y-123571603D01*
X90863957Y-123611014D01*
X89265554Y-125209417D01*
X89240497Y-125227621D01*
X89218739Y-125238708D01*
X89173792Y-125249500D01*
X88615890Y-125249500D01*
X88484106Y-125249500D01*
X88445152Y-125259937D01*
X88406197Y-125270375D01*
X88406196Y-125270374D01*
X88356805Y-125283609D01*
X88356803Y-125283610D01*
X88242692Y-125349492D01*
X88149490Y-125442694D01*
X88083608Y-125556805D01*
X88083606Y-125556809D01*
X88071899Y-125600498D01*
X88071900Y-125600499D01*
X88049498Y-125684108D01*
X88049498Y-125815896D01*
X88052431Y-125826842D01*
X88052432Y-125826842D01*
X88083608Y-125943194D01*
X88149492Y-126057307D01*
X88149494Y-126057309D01*
X88149496Y-126057311D01*
X88149498Y-126057314D01*
X88242684Y-126150500D01*
X88242686Y-126150501D01*
X88242688Y-126150503D01*
X88243235Y-126150898D01*
X88245237Y-126151975D01*
X88289205Y-126177359D01*
X88300038Y-126183614D01*
X88321632Y-126207596D01*
X88355942Y-126216174D01*
X88357546Y-126216588D01*
X88484106Y-126250500D01*
X88484108Y-126250500D01*
X89498676Y-126250500D01*
X89498678Y-126250500D01*
X89625972Y-126216392D01*
X89625974Y-126216390D01*
X89625976Y-126216390D01*
X89733976Y-126154035D01*
X89736853Y-126152639D01*
X89737639Y-126152122D01*
X89742648Y-126149028D01*
X89743945Y-126148278D01*
X89749301Y-126141298D01*
X91801500Y-124089100D01*
X91853231Y-123999500D01*
X91867390Y-123974976D01*
X91867390Y-123974974D01*
X91867392Y-123974972D01*
X91901500Y-123847678D01*
X91901500Y-123715893D01*
X91901500Y-122113999D01*
X91906345Y-122083408D01*
X91913475Y-122061463D01*
X91913891Y-122060181D01*
X91938040Y-122020771D01*
X91957312Y-122001500D01*
X91957314Y-122001500D01*
X92050500Y-121908314D01*
X92050503Y-121908309D01*
X92116390Y-121794190D01*
X92116390Y-121794188D01*
X92116392Y-121794186D01*
X92150500Y-121666892D01*
X92150500Y-119260432D01*
X105699500Y-119260432D01*
X105699500Y-124339566D01*
X105702127Y-124349369D01*
X105719978Y-124415988D01*
X105719980Y-124415992D01*
X105719981Y-124415993D01*
X105719981Y-124415995D01*
X105759533Y-124484500D01*
X105759535Y-124484504D01*
X105759538Y-124484508D01*
X105759540Y-124484511D01*
X105815489Y-124540460D01*
X105815491Y-124540461D01*
X105884007Y-124580019D01*
X105884011Y-124580021D01*
X105957283Y-124599654D01*
X105957829Y-124599884D01*
X105960436Y-124600500D01*
X107439563Y-124600500D01*
X107453293Y-124600500D01*
X107465185Y-124593633D01*
X107515989Y-124580021D01*
X107584511Y-124540460D01*
X107640460Y-124484511D01*
X107680021Y-124415989D01*
X107700500Y-124339562D01*
X107700500Y-119260438D01*
X107680021Y-119184011D01*
X107674738Y-119174861D01*
X107640693Y-119115892D01*
X107640677Y-119115864D01*
X107640677Y-119115863D01*
X107640462Y-119115492D01*
X107640461Y-119115491D01*
X107640460Y-119115489D01*
X107584511Y-119059540D01*
X107584508Y-119059538D01*
X107584504Y-119059535D01*
X107584500Y-119059533D01*
X107515994Y-119019981D01*
X107515993Y-119019980D01*
X107515992Y-119019980D01*
X107515988Y-119019978D01*
X107499829Y-119015648D01*
X107439566Y-118999500D01*
X107439564Y-118999500D01*
X107439562Y-118999500D01*
X106039562Y-118999500D01*
X105960438Y-118999500D01*
X105960435Y-118999500D01*
X105960432Y-118999500D01*
X105884018Y-119019976D01*
X105884011Y-119019978D01*
X105884007Y-119019980D01*
X105865649Y-119030579D01*
X105815492Y-119059537D01*
X105759537Y-119115492D01*
X105759307Y-119115891D01*
X105719980Y-119184007D01*
X105719979Y-119184010D01*
X105719976Y-119184018D01*
X105699500Y-119260432D01*
X92150500Y-119260432D01*
X92150500Y-119233108D01*
X92116392Y-119105814D01*
X92116390Y-119105811D01*
X92116390Y-119105809D01*
X92115579Y-119104405D01*
X92115548Y-119104260D01*
X92114812Y-119103076D01*
X92050503Y-118991690D01*
X92050501Y-118991688D01*
X92050500Y-118991686D01*
X91957314Y-118898500D01*
X91957312Y-118898499D01*
X91951670Y-118892856D01*
X91951665Y-118892852D01*
X91941578Y-118882764D01*
X91923377Y-118857712D01*
X91912287Y-118835946D01*
X91901500Y-118791006D01*
X91901500Y-117740669D01*
X91901500Y-117735109D01*
X91901232Y-117734108D01*
X96449500Y-117734108D01*
X96449500Y-117865892D01*
X96479579Y-117978151D01*
X96483609Y-117993190D01*
X96549496Y-118107309D01*
X96549498Y-118107311D01*
X96549500Y-118107314D01*
X96642686Y-118200500D01*
X96642688Y-118200501D01*
X96642690Y-118200503D01*
X96643237Y-118200898D01*
X96645239Y-118201975D01*
X96689207Y-118227359D01*
X96700040Y-118233614D01*
X96721634Y-118257596D01*
X96755944Y-118266174D01*
X96757548Y-118266588D01*
X96884108Y-118300500D01*
X96884110Y-118300500D01*
X97015890Y-118300500D01*
X97015892Y-118300500D01*
X97143186Y-118266392D01*
X97143188Y-118266390D01*
X97143190Y-118266390D01*
X97251190Y-118204035D01*
X97254067Y-118202639D01*
X97254853Y-118202122D01*
X97259862Y-118199028D01*
X97261161Y-118198277D01*
X97266519Y-118191294D01*
X97350500Y-118107314D01*
X97383302Y-118050500D01*
X97416390Y-117993190D01*
X97416390Y-117993188D01*
X97416392Y-117993186D01*
X97450500Y-117865892D01*
X97450500Y-117851869D01*
X97455345Y-117821278D01*
X97462892Y-117798049D01*
X97487042Y-117758638D01*
X97611230Y-117634452D01*
X97657374Y-117554528D01*
X97657376Y-117554521D01*
X97659818Y-117545409D01*
X97663995Y-117546528D01*
X97667233Y-117526087D01*
X97683886Y-117509433D01*
X97681878Y-117506012D01*
X97680413Y-117471818D01*
X97681260Y-117465384D01*
X97681260Y-117401119D01*
X97685713Y-117387413D01*
X97684666Y-117379455D01*
X97693709Y-117362802D01*
X97700167Y-117342928D01*
X97710495Y-117330877D01*
X97711694Y-117329685D01*
X97713866Y-117325687D01*
X97769094Y-117299351D01*
X97829254Y-117310506D01*
X97871367Y-117354893D01*
X97871975Y-117356168D01*
X97878240Y-117373151D01*
X97879166Y-117376606D01*
X97879167Y-117376616D01*
X97879168Y-117376616D01*
X97883606Y-117393182D01*
X97883607Y-117393185D01*
X97883608Y-117393186D01*
X97883609Y-117393189D01*
X97949496Y-117507309D01*
X97949498Y-117507311D01*
X97949500Y-117507314D01*
X98042686Y-117600500D01*
X98042688Y-117600501D01*
X98042690Y-117600503D01*
X98043237Y-117600898D01*
X98045239Y-117601975D01*
X98055348Y-117607811D01*
X98100040Y-117633614D01*
X98121634Y-117657596D01*
X98155944Y-117666174D01*
X98157548Y-117666588D01*
X98284108Y-117700500D01*
X98284110Y-117700500D01*
X98415890Y-117700500D01*
X98415892Y-117700500D01*
X98543186Y-117666392D01*
X98543188Y-117666390D01*
X98543190Y-117666390D01*
X98651190Y-117604035D01*
X98654067Y-117602639D01*
X98654853Y-117602122D01*
X98659862Y-117599028D01*
X98661161Y-117598277D01*
X98666519Y-117591294D01*
X98750500Y-117507314D01*
X98758946Y-117492686D01*
X98816390Y-117393190D01*
X98816390Y-117393188D01*
X98816392Y-117393186D01*
X98850500Y-117265892D01*
X98850500Y-117236933D01*
X98852864Y-117226311D01*
X98853066Y-117225967D01*
X98853195Y-117224876D01*
X98856832Y-117209609D01*
X98878095Y-117171574D01*
X98876516Y-117170363D01*
X98880462Y-117165218D01*
X98880469Y-117165212D01*
X98926614Y-117085288D01*
X98937298Y-117045413D01*
X98950500Y-116996144D01*
X98950500Y-115710390D01*
X98955344Y-115679801D01*
X98962891Y-115656570D01*
X98987040Y-115617161D01*
X102443769Y-112160432D01*
X106499500Y-112160432D01*
X106499500Y-115039566D01*
X106513284Y-115091005D01*
X106519978Y-115115988D01*
X106519980Y-115115992D01*
X106548108Y-115164710D01*
X106559540Y-115184511D01*
X106615489Y-115240460D01*
X106615491Y-115240461D01*
X106684007Y-115280019D01*
X106684011Y-115280021D01*
X106750762Y-115297907D01*
X106752913Y-115298723D01*
X106760436Y-115300500D01*
X119239563Y-115300500D01*
X119253293Y-115300500D01*
X119265185Y-115293633D01*
X119315989Y-115280021D01*
X119384511Y-115240460D01*
X119440460Y-115184511D01*
X119480021Y-115115989D01*
X119500500Y-115039562D01*
X119500500Y-112160438D01*
X119480021Y-112084011D01*
X119440460Y-112015489D01*
X119384511Y-111959540D01*
X119384508Y-111959538D01*
X119384504Y-111959535D01*
X119384500Y-111959533D01*
X119315994Y-111919981D01*
X119315993Y-111919980D01*
X119315992Y-111919980D01*
X119315988Y-111919978D01*
X119299829Y-111915648D01*
X119239566Y-111899500D01*
X119239564Y-111899500D01*
X119239562Y-111899500D01*
X106839562Y-111899500D01*
X106760438Y-111899500D01*
X106760435Y-111899500D01*
X106760432Y-111899500D01*
X106684018Y-111919976D01*
X106684011Y-111919978D01*
X106684007Y-111919980D01*
X106665649Y-111930579D01*
X106615492Y-111959537D01*
X106559537Y-112015492D01*
X106519979Y-112084009D01*
X106519976Y-112084018D01*
X106499500Y-112160432D01*
X102443769Y-112160432D01*
X105209362Y-109394839D01*
X105234414Y-109376638D01*
X105256181Y-109365548D01*
X105301122Y-109354760D01*
X106291882Y-109354760D01*
X106291884Y-109354760D01*
X106381028Y-109330874D01*
X106460952Y-109284730D01*
X106513570Y-109232111D01*
X106555100Y-109190582D01*
X106580159Y-109172377D01*
X106601922Y-109161289D01*
X106646864Y-109150500D01*
X106665890Y-109150500D01*
X106665892Y-109150500D01*
X106793186Y-109116392D01*
X106793188Y-109116390D01*
X106793190Y-109116390D01*
X106901190Y-109054035D01*
X106904067Y-109052639D01*
X106904853Y-109052122D01*
X106909862Y-109049028D01*
X106911161Y-109048277D01*
X106916519Y-109041294D01*
X107000500Y-108957314D01*
X107066392Y-108843186D01*
X107100500Y-108715892D01*
X107100500Y-108584108D01*
X107066392Y-108456814D01*
X107066390Y-108456811D01*
X107066390Y-108456809D01*
X107066383Y-108456798D01*
X107066066Y-108456094D01*
X107064812Y-108454076D01*
X107000503Y-108342690D01*
X107000501Y-108342688D01*
X107000500Y-108342686D01*
X106907314Y-108249500D01*
X106907311Y-108249498D01*
X106907309Y-108249496D01*
X106850476Y-108216683D01*
X106829442Y-108193322D01*
X106743799Y-108170375D01*
X106743798Y-108170374D01*
X106686766Y-108155093D01*
X106665892Y-108149500D01*
X106665891Y-108149500D01*
X106554309Y-108149500D01*
X106523716Y-108144654D01*
X106511030Y-108140532D01*
X106461531Y-108104570D01*
X106455037Y-108095632D01*
X106439502Y-108063061D01*
X106429607Y-108026129D01*
X106429607Y-108026128D01*
X106421518Y-107995942D01*
X106416392Y-107976812D01*
X106416390Y-107976809D01*
X106416390Y-107976807D01*
X106416384Y-107976797D01*
X106416066Y-107976092D01*
X106414812Y-107974074D01*
X106350503Y-107862688D01*
X106350501Y-107862686D01*
X106350500Y-107862684D01*
X106257314Y-107769498D01*
X106257311Y-107769496D01*
X106257309Y-107769494D01*
X106254706Y-107767991D01*
X106200476Y-107736681D01*
X106179442Y-107713320D01*
X106093799Y-107690373D01*
X106093798Y-107690372D01*
X106036766Y-107675091D01*
X106015892Y-107669498D01*
X106015891Y-107669498D01*
X105884109Y-107669498D01*
X105884108Y-107669498D01*
X105845154Y-107679935D01*
X105806199Y-107690373D01*
X105806198Y-107690372D01*
X105756807Y-107703607D01*
X105756805Y-107703608D01*
X105645291Y-107767991D01*
X105645287Y-107767994D01*
X105642690Y-107769494D01*
X105642689Y-107769495D01*
X105642686Y-107769497D01*
X105642686Y-107769498D01*
X105632547Y-107779635D01*
X105629259Y-107782641D01*
X105617331Y-107788056D01*
X105607423Y-107797767D01*
X105585950Y-107808708D01*
X105541005Y-107819498D01*
X105183858Y-107819498D01*
X105094714Y-107843384D01*
X105014790Y-107889528D01*
X97050288Y-115854030D01*
X97013677Y-115917441D01*
X97013671Y-115917453D01*
X97008279Y-115926793D01*
X97008278Y-115926794D01*
X97004148Y-115933946D01*
X97004147Y-115933948D01*
X97004146Y-115933952D01*
X97001687Y-115943125D01*
X97001687Y-115943128D01*
X96990927Y-115983287D01*
X96980260Y-116023097D01*
X96980260Y-117184819D01*
X96975414Y-117215412D01*
X96971292Y-117228098D01*
X96935328Y-117277598D01*
X96935321Y-117277603D01*
X96931074Y-117280688D01*
X96888375Y-117298372D01*
X96866498Y-117301836D01*
X96861257Y-117305542D01*
X96857506Y-117306626D01*
X96756809Y-117333608D01*
X96756805Y-117333610D01*
X96642694Y-117399492D01*
X96549492Y-117492694D01*
X96483610Y-117606805D01*
X96483608Y-117606809D01*
X96472169Y-117649498D01*
X96472170Y-117649499D01*
X96458505Y-117700500D01*
X96449500Y-117734108D01*
X91901232Y-117734108D01*
X91892227Y-117700500D01*
X91867392Y-117607814D01*
X91867390Y-117607811D01*
X91867390Y-117607809D01*
X91867230Y-117607533D01*
X91867154Y-117607235D01*
X91865804Y-117605062D01*
X91801505Y-117493693D01*
X91801502Y-117493689D01*
X91801499Y-117493685D01*
X91708314Y-117400499D01*
X91661539Y-117353724D01*
X91661539Y-117353725D01*
X91291922Y-116984108D01*
X92599500Y-116984108D01*
X92599500Y-117115892D01*
X92629579Y-117228151D01*
X92633609Y-117243190D01*
X92699496Y-117357309D01*
X92699498Y-117357311D01*
X92699500Y-117357314D01*
X92792686Y-117450500D01*
X92792688Y-117450501D01*
X92792690Y-117450503D01*
X92793237Y-117450898D01*
X92795239Y-117451975D01*
X92798825Y-117454045D01*
X92850040Y-117483614D01*
X92871178Y-117507089D01*
X92891956Y-117507814D01*
X92906810Y-117516390D01*
X92906808Y-117516390D01*
X92906812Y-117516391D01*
X92906814Y-117516392D01*
X93034108Y-117550500D01*
X93034110Y-117550500D01*
X93165890Y-117550500D01*
X93165892Y-117550500D01*
X93293186Y-117516392D01*
X93293188Y-117516390D01*
X93293190Y-117516390D01*
X93401190Y-117454035D01*
X93404069Y-117452638D01*
X93404850Y-117452124D01*
X93409855Y-117449032D01*
X93411147Y-117448285D01*
X93416471Y-117441342D01*
X93417186Y-117440626D01*
X93442292Y-117422374D01*
X93453697Y-117416563D01*
X93464056Y-117411287D01*
X93508994Y-117400500D01*
X94646142Y-117400500D01*
X94646144Y-117400500D01*
X94735288Y-117376614D01*
X94745912Y-117370480D01*
X94815212Y-117330470D01*
X95562299Y-116583380D01*
X95567001Y-116578976D01*
X95571067Y-116575411D01*
X95574078Y-116573016D01*
X95575242Y-116571852D01*
X95575246Y-116571850D01*
X96021850Y-116125246D01*
X96021852Y-116125242D01*
X96023020Y-116124074D01*
X96025424Y-116121052D01*
X96028967Y-116117012D01*
X96033362Y-116112317D01*
X96082470Y-116063212D01*
X96128614Y-115983288D01*
X96133577Y-115964766D01*
X96152500Y-115894144D01*
X96152500Y-104201869D01*
X96157344Y-104171280D01*
X96164891Y-104148049D01*
X96189040Y-104108640D01*
X98230470Y-102067212D01*
X98276614Y-101987288D01*
X98278562Y-101980019D01*
X98284050Y-101959539D01*
X98293224Y-101925296D01*
X98293225Y-101925296D01*
X98293225Y-101925292D01*
X98300500Y-101898144D01*
X98300500Y-99993372D01*
X98305345Y-99962781D01*
X98312892Y-99939552D01*
X98337042Y-99900141D01*
X98394459Y-99842725D01*
X107699500Y-99842725D01*
X107699500Y-100157273D01*
X107734717Y-100469841D01*
X107804709Y-100776497D01*
X107908596Y-101073391D01*
X107908636Y-101073485D01*
X107908909Y-101074041D01*
X108045066Y-101356774D01*
X108045070Y-101356781D01*
X108045074Y-101356789D01*
X108212423Y-101623123D01*
X108408539Y-101869044D01*
X108630956Y-102091461D01*
X108876877Y-102287577D01*
X109120187Y-102440459D01*
X109142148Y-102454258D01*
X109142149Y-102454259D01*
X109143212Y-102454927D01*
X109144128Y-102455368D01*
X109195317Y-102480019D01*
X109195318Y-102480020D01*
X109411255Y-102584009D01*
X109426606Y-102591402D01*
X109723500Y-102695289D01*
X110030160Y-102765282D01*
X110342727Y-102800500D01*
X110342728Y-102800500D01*
X110657272Y-102800500D01*
X110657273Y-102800500D01*
X110969840Y-102765282D01*
X111276500Y-102695289D01*
X111573394Y-102591402D01*
X111856789Y-102454926D01*
X112123123Y-102287577D01*
X112369044Y-102091461D01*
X112591461Y-101869044D01*
X112787577Y-101623123D01*
X112954926Y-101356789D01*
X113091402Y-101073394D01*
X113195289Y-100776500D01*
X113265282Y-100469840D01*
X113300500Y-100157273D01*
X113300500Y-99842727D01*
X113265282Y-99530160D01*
X113195289Y-99223500D01*
X113091402Y-98926606D01*
X112970234Y-98674999D01*
X112955391Y-98644176D01*
X112955002Y-98643345D01*
X112954927Y-98643213D01*
X112954926Y-98643211D01*
X112954920Y-98643201D01*
X112954773Y-98642944D01*
X112954258Y-98642148D01*
X112953728Y-98641305D01*
X112787577Y-98376877D01*
X112591461Y-98130956D01*
X112369044Y-97908539D01*
X112123123Y-97712423D01*
X111856789Y-97545074D01*
X111856781Y-97545070D01*
X111856774Y-97545066D01*
X111574041Y-97408909D01*
X111573485Y-97408636D01*
X111573391Y-97408596D01*
X111276497Y-97304709D01*
X110969839Y-97234717D01*
X110813556Y-97217109D01*
X110813556Y-97217108D01*
X110813554Y-97217108D01*
X110657289Y-97199500D01*
X110657273Y-97199500D01*
X110342727Y-97199500D01*
X110342725Y-97199500D01*
X110238538Y-97211239D01*
X110238537Y-97211238D01*
X110030161Y-97234717D01*
X110030151Y-97234719D01*
X109723501Y-97304709D01*
X109426607Y-97408596D01*
X109426509Y-97408638D01*
X109425947Y-97408914D01*
X109143230Y-97545063D01*
X109143212Y-97545073D01*
X108876875Y-97712423D01*
X108630953Y-97908541D01*
X108408541Y-98130953D01*
X108212423Y-98376875D01*
X108134143Y-98501459D01*
X108050315Y-98634868D01*
X108050316Y-98634869D01*
X108045066Y-98643224D01*
X108045063Y-98643229D01*
X107908914Y-98925947D01*
X107908638Y-98926509D01*
X107908596Y-98926607D01*
X107804709Y-99223501D01*
X107734717Y-99530157D01*
X107699500Y-99842725D01*
X98394459Y-99842725D01*
X98447853Y-99789332D01*
X98493998Y-99709408D01*
X98497086Y-99697881D01*
X98505525Y-99666391D01*
X98508227Y-99656307D01*
X98513191Y-99637781D01*
X98513192Y-99637772D01*
X98517884Y-99620265D01*
X98517884Y-99085006D01*
X98522728Y-99054417D01*
X98528593Y-99036364D01*
X98556499Y-98993388D01*
X98559650Y-98990551D01*
X98576388Y-98978391D01*
X98624698Y-98950500D01*
X98717884Y-98857314D01*
X98735963Y-98826000D01*
X98783774Y-98743190D01*
X98783774Y-98743188D01*
X98783776Y-98743186D01*
X98817884Y-98615892D01*
X98817884Y-98484108D01*
X98783776Y-98356814D01*
X98783774Y-98356811D01*
X98783774Y-98356809D01*
X98783767Y-98356798D01*
X98783450Y-98356094D01*
X98782196Y-98354076D01*
X98717887Y-98242690D01*
X98717885Y-98242688D01*
X98717884Y-98242686D01*
X98624698Y-98149500D01*
X98624695Y-98149498D01*
X98624693Y-98149496D01*
X98624686Y-98149492D01*
X98567860Y-98116683D01*
X98546826Y-98093322D01*
X98461183Y-98070375D01*
X98461182Y-98070374D01*
X98404150Y-98055093D01*
X98383276Y-98049500D01*
X98383275Y-98049500D01*
X98251493Y-98049500D01*
X98251492Y-98049500D01*
X98214048Y-98059533D01*
X98173583Y-98070375D01*
X98173582Y-98070374D01*
X98124191Y-98083609D01*
X98124189Y-98083610D01*
X98010078Y-98149492D01*
X97916876Y-98242694D01*
X97850995Y-98356803D01*
X97850993Y-98356807D01*
X97850993Y-98356809D01*
X97816884Y-98484109D01*
X97816884Y-98484110D01*
X97816884Y-98615891D01*
X97817096Y-98619131D01*
X97817071Y-98619132D01*
X97817682Y-98628445D01*
X97817682Y-98641305D01*
X97817071Y-98650626D01*
X97817096Y-98650628D01*
X97816884Y-98653860D01*
X97816884Y-99372249D01*
X97812038Y-99402843D01*
X97804491Y-99426069D01*
X97780341Y-99465478D01*
X97669533Y-99576287D01*
X97669526Y-99576296D01*
X97661263Y-99590610D01*
X97655550Y-99600504D01*
X97655551Y-99600504D01*
X97645754Y-99617474D01*
X97644144Y-99620263D01*
X97644144Y-99620264D01*
X97644143Y-99620265D01*
X97623401Y-99656185D01*
X97623384Y-99656218D01*
X97623339Y-99656307D01*
X97623002Y-99657646D01*
X97614952Y-99687693D01*
X97609134Y-99709408D01*
X97604317Y-99727384D01*
X97599500Y-99745360D01*
X97599500Y-100644436D01*
X97594654Y-100675030D01*
X97591133Y-100685866D01*
X97555169Y-100735366D01*
X97496979Y-100754272D01*
X97492107Y-100754272D01*
X97442607Y-100741008D01*
X97343190Y-100683609D01*
X97343186Y-100683607D01*
X97300755Y-100672237D01*
X97300755Y-100672238D01*
X97252060Y-100659191D01*
X97215892Y-100649500D01*
X97215891Y-100649500D01*
X97084109Y-100649500D01*
X97084108Y-100649500D01*
X97047940Y-100659191D01*
X97006199Y-100670375D01*
X97006198Y-100670374D01*
X96956807Y-100683609D01*
X96956805Y-100683610D01*
X96842694Y-100749492D01*
X96749492Y-100842694D01*
X96683608Y-100956809D01*
X96683331Y-100957543D01*
X96682783Y-100959890D01*
X96651942Y-101074996D01*
X96651941Y-101075000D01*
X96649498Y-101084112D01*
X96649266Y-101085881D01*
X96645269Y-101103541D01*
X96641734Y-101114421D01*
X96605771Y-101163921D01*
X96547580Y-101182829D01*
X96521957Y-101179456D01*
X96443799Y-101158515D01*
X96443798Y-101158514D01*
X96386766Y-101143233D01*
X96365892Y-101137640D01*
X96365891Y-101137640D01*
X96234109Y-101137640D01*
X96234108Y-101137640D01*
X96212585Y-101143407D01*
X96156199Y-101158515D01*
X96156198Y-101158514D01*
X96106807Y-101171749D01*
X96106805Y-101171750D01*
X95992694Y-101237632D01*
X95899492Y-101330834D01*
X95833611Y-101444943D01*
X95833609Y-101444947D01*
X95833609Y-101444949D01*
X95799500Y-101572249D01*
X95799500Y-101572250D01*
X95799500Y-101704045D01*
X95799835Y-101706586D01*
X95800506Y-101713634D01*
X95800794Y-101718492D01*
X95800122Y-101737265D01*
X95799500Y-101741992D01*
X95799500Y-101840183D01*
X95794267Y-101871944D01*
X95789887Y-101884873D01*
X95787106Y-101893433D01*
X95762956Y-101932841D01*
X94519527Y-103176271D01*
X94491318Y-103225131D01*
X94491318Y-103225132D01*
X94473892Y-103255314D01*
X94473386Y-103256190D01*
X94449500Y-103345337D01*
X94449500Y-114598129D01*
X94444654Y-114628723D01*
X94437107Y-114651949D01*
X94412957Y-114691358D01*
X94019529Y-115084786D01*
X93984702Y-115145107D01*
X93984696Y-115145120D01*
X93973386Y-115164710D01*
X93968081Y-115184511D01*
X93966534Y-115190281D01*
X93966533Y-115190286D01*
X93956229Y-115228741D01*
X93953090Y-115240460D01*
X93949500Y-115253857D01*
X93949500Y-115253858D01*
X93949500Y-115885997D01*
X93944654Y-115916591D01*
X93937107Y-115939817D01*
X93912961Y-115979222D01*
X93899506Y-115992678D01*
X93899501Y-115992683D01*
X93899497Y-115992689D01*
X93899491Y-115992697D01*
X93833610Y-116106805D01*
X93833609Y-116106808D01*
X93828914Y-116124325D01*
X93828915Y-116124326D01*
X93799500Y-116234108D01*
X93799500Y-116365891D01*
X93822237Y-116450753D01*
X93833607Y-116493186D01*
X93859146Y-116537419D01*
X93870248Y-116566343D01*
X93872616Y-116577487D01*
X93866216Y-116638337D01*
X93825289Y-116683794D01*
X93821071Y-116686230D01*
X93771560Y-116699500D01*
X93514001Y-116699500D01*
X93483407Y-116694654D01*
X93460181Y-116687107D01*
X93420776Y-116662961D01*
X93414043Y-116656229D01*
X93407314Y-116649500D01*
X93407311Y-116649498D01*
X93407309Y-116649496D01*
X93378403Y-116632807D01*
X93350476Y-116616683D01*
X93329442Y-116593322D01*
X93243799Y-116570375D01*
X93243798Y-116570374D01*
X93186766Y-116555093D01*
X93165892Y-116549500D01*
X93165891Y-116549500D01*
X93034109Y-116549500D01*
X93034108Y-116549500D01*
X92995154Y-116559937D01*
X92956199Y-116570375D01*
X92956198Y-116570374D01*
X92906807Y-116583609D01*
X92906805Y-116583610D01*
X92792694Y-116649492D01*
X92699492Y-116742694D01*
X92634221Y-116855747D01*
X92634220Y-116855749D01*
X92633609Y-116856809D01*
X92633608Y-116856814D01*
X92599500Y-116984108D01*
X91291922Y-116984108D01*
X89490582Y-115182768D01*
X89472376Y-115157709D01*
X89461288Y-115135947D01*
X89450500Y-115091005D01*
X89450500Y-109671154D01*
X90524500Y-109671154D01*
X90524500Y-109828844D01*
X90553361Y-109973933D01*
X90553361Y-109973937D01*
X90555262Y-109983499D01*
X90615600Y-110129169D01*
X90615603Y-110129174D01*
X90615609Y-110129185D01*
X90668312Y-110208059D01*
X90703211Y-110260289D01*
X90703215Y-110260293D01*
X90703218Y-110260297D01*
X90814707Y-110371785D01*
X90814711Y-110371789D01*
X90892876Y-110424017D01*
X90945814Y-110459390D01*
X90945825Y-110459396D01*
X90999638Y-110481685D01*
X91004296Y-110483614D01*
X91004299Y-110483616D01*
X91047494Y-110501508D01*
X91091503Y-110519737D01*
X91246158Y-110550500D01*
X91246159Y-110550500D01*
X91403841Y-110550500D01*
X91403842Y-110550500D01*
X91558497Y-110519737D01*
X91704179Y-110459394D01*
X91835289Y-110371789D01*
X92671789Y-109535289D01*
X92759394Y-109404179D01*
X92819737Y-109258497D01*
X92850500Y-109103842D01*
X92850500Y-108946157D01*
X92850500Y-101288266D01*
X92855344Y-101257677D01*
X92855696Y-101256593D01*
X92862891Y-101234446D01*
X92887043Y-101195035D01*
X93305578Y-100776500D01*
X93481078Y-100601000D01*
X93771789Y-100310289D01*
X93859394Y-100179179D01*
X93919737Y-100033497D01*
X93950500Y-99878842D01*
X93950500Y-99721158D01*
X93950500Y-94881004D01*
X97999500Y-94881004D01*
X97999500Y-95018995D01*
X98000128Y-95022153D01*
X98000128Y-95022155D01*
X98024518Y-95144764D01*
X98024518Y-95144768D01*
X98026419Y-95154330D01*
X98079216Y-95281794D01*
X98079219Y-95281801D01*
X98079232Y-95281824D01*
X98155884Y-95396540D01*
X98253458Y-95494114D01*
X98368174Y-95570766D01*
X98368177Y-95570767D01*
X98368182Y-95570771D01*
X98368193Y-95570777D01*
X98368197Y-95570779D01*
X98404938Y-95585997D01*
X98415283Y-95590282D01*
X98495672Y-95623580D01*
X98631007Y-95650500D01*
X98631008Y-95650500D01*
X98768992Y-95650500D01*
X98768993Y-95650500D01*
X98904328Y-95623580D01*
X99031811Y-95570775D01*
X99146542Y-95494114D01*
X99244114Y-95396542D01*
X99320775Y-95281811D01*
X99373580Y-95154328D01*
X99400500Y-95018993D01*
X99400500Y-94881007D01*
X99373580Y-94745672D01*
X99355978Y-94703177D01*
X99320777Y-94618193D01*
X99320773Y-94618186D01*
X99320771Y-94618182D01*
X99244114Y-94503458D01*
X99146541Y-94405885D01*
X99146540Y-94405884D01*
X99031824Y-94329232D01*
X99031801Y-94329219D01*
X98904329Y-94276420D01*
X98768995Y-94249500D01*
X98768993Y-94249500D01*
X98631007Y-94249500D01*
X98631004Y-94249500D01*
X98631003Y-94249500D01*
X98575876Y-94260465D01*
X98505234Y-94274518D01*
X98505227Y-94274518D01*
X98495668Y-94276419D01*
X98368204Y-94329216D01*
X98368197Y-94329219D01*
X98368174Y-94329232D01*
X98253458Y-94405884D01*
X98155884Y-94503458D01*
X98079232Y-94618174D01*
X98079228Y-94618182D01*
X98079225Y-94618189D01*
X98079223Y-94618192D01*
X98079216Y-94618204D01*
X98027066Y-94744107D01*
X98027065Y-94744111D01*
X98026420Y-94745670D01*
X98026420Y-94745672D01*
X97999500Y-94881004D01*
X93950500Y-94881004D01*
X93950500Y-89433265D01*
X93955344Y-89402676D01*
X93962891Y-89379445D01*
X93987040Y-89340036D01*
X95424834Y-87902241D01*
X95432026Y-87895725D01*
X95439496Y-87889595D01*
X95447301Y-87883807D01*
X95465289Y-87871789D01*
X95576789Y-87760289D01*
X95578747Y-87757357D01*
X95584506Y-87749590D01*
X95590665Y-87742083D01*
X95597169Y-87734906D01*
X97489348Y-85842727D01*
X107699500Y-85842727D01*
X107699500Y-85842734D01*
X107699500Y-86157271D01*
X107702155Y-86180835D01*
X107734717Y-86469839D01*
X107804709Y-86776497D01*
X107908596Y-87073391D01*
X107908636Y-87073485D01*
X107908909Y-87074041D01*
X108045066Y-87356774D01*
X108045070Y-87356781D01*
X108045074Y-87356789D01*
X108212423Y-87623123D01*
X108408539Y-87869044D01*
X108630956Y-88091461D01*
X108876877Y-88287577D01*
X109142148Y-88454258D01*
X109142149Y-88454259D01*
X109143216Y-88454929D01*
X109144159Y-88455384D01*
X109237375Y-88500273D01*
X109237376Y-88500274D01*
X109413153Y-88584923D01*
X109426606Y-88591402D01*
X109723500Y-88695289D01*
X110030160Y-88765282D01*
X110342727Y-88800500D01*
X110342728Y-88800500D01*
X110657272Y-88800500D01*
X110657273Y-88800500D01*
X110969840Y-88765282D01*
X111276500Y-88695289D01*
X111573394Y-88591402D01*
X111856789Y-88454926D01*
X112123123Y-88287577D01*
X112369044Y-88091461D01*
X112591461Y-87869044D01*
X112787577Y-87623123D01*
X112954926Y-87356789D01*
X113091402Y-87073394D01*
X113195289Y-86776500D01*
X113265282Y-86469840D01*
X113300500Y-86157273D01*
X113300500Y-85842727D01*
X113265282Y-85530160D01*
X113195289Y-85223500D01*
X113091402Y-84926606D01*
X112954926Y-84643211D01*
X112787577Y-84376877D01*
X112591461Y-84130956D01*
X112369044Y-83908539D01*
X112123123Y-83712423D01*
X111856789Y-83545074D01*
X111856781Y-83545070D01*
X111856774Y-83545066D01*
X111574041Y-83408909D01*
X111573485Y-83408636D01*
X111573391Y-83408596D01*
X111276497Y-83304709D01*
X110969839Y-83234717D01*
X110813556Y-83217109D01*
X110813556Y-83217108D01*
X110813554Y-83217108D01*
X110657289Y-83199500D01*
X110657273Y-83199500D01*
X110342727Y-83199500D01*
X110342725Y-83199500D01*
X110238538Y-83211239D01*
X110238537Y-83211238D01*
X110030161Y-83234717D01*
X110030151Y-83234719D01*
X109723501Y-83304709D01*
X109426607Y-83408596D01*
X109426509Y-83408638D01*
X109425947Y-83408914D01*
X109143230Y-83545063D01*
X109143212Y-83545073D01*
X108876875Y-83712423D01*
X108630953Y-83908541D01*
X108408541Y-84130953D01*
X108212423Y-84376875D01*
X108045073Y-84643212D01*
X108045063Y-84643230D01*
X107908914Y-84925947D01*
X107908638Y-84926509D01*
X107908596Y-84926607D01*
X107804709Y-85223501D01*
X107734717Y-85530158D01*
X107722224Y-85641050D01*
X107722223Y-85641058D01*
X107699500Y-85842727D01*
X97489348Y-85842727D01*
X108491498Y-74840579D01*
X108516550Y-74822378D01*
X108538317Y-74811288D01*
X108583258Y-74800500D01*
X109030911Y-74800500D01*
X109061501Y-74805345D01*
X109081194Y-74811743D01*
X109121954Y-74837268D01*
X109122817Y-74838165D01*
X109133774Y-74851784D01*
X109172861Y-74910282D01*
X109312218Y-75049639D01*
X109476086Y-75159132D01*
X109658165Y-75234551D01*
X109851459Y-75273000D01*
X109851460Y-75273000D01*
X110048540Y-75273000D01*
X110048541Y-75273000D01*
X110241835Y-75234551D01*
X110423914Y-75159132D01*
X110587782Y-75049639D01*
X110727139Y-74910282D01*
X110836632Y-74746414D01*
X110912051Y-74564335D01*
X110950500Y-74371041D01*
X110950500Y-73774003D01*
X111450000Y-73774003D01*
X111450000Y-73774006D01*
X111450000Y-73947499D01*
X111450001Y-73947500D01*
X111876000Y-73947500D01*
X111934191Y-73966407D01*
X111970155Y-74015907D01*
X111975000Y-74046500D01*
X111975000Y-74098500D01*
X111956093Y-74156691D01*
X111906593Y-74192655D01*
X111876000Y-74197500D01*
X111450001Y-74197500D01*
X111450000Y-74197501D01*
X111450000Y-74197502D01*
X111450000Y-74370995D01*
X111486527Y-74554626D01*
X111486527Y-74554629D01*
X111488428Y-74564189D01*
X111563811Y-74746180D01*
X111563812Y-74746182D01*
X111563814Y-74746185D01*
X111673249Y-74909962D01*
X111673252Y-74909966D01*
X111812533Y-75049247D01*
X111812537Y-75049250D01*
X111976314Y-75158685D01*
X111976318Y-75158687D01*
X111976323Y-75158690D01*
X112158294Y-75234064D01*
X112158295Y-75234064D01*
X112158309Y-75234070D01*
X112158312Y-75234071D01*
X112324999Y-75267226D01*
X112325000Y-75267226D01*
X112325000Y-75267225D01*
X112325000Y-74646500D01*
X112343907Y-74588309D01*
X112393407Y-74552345D01*
X112424000Y-74547500D01*
X112476000Y-74547500D01*
X112534191Y-74566407D01*
X112570155Y-74615907D01*
X112575000Y-74646500D01*
X112575000Y-75267225D01*
X112575000Y-75267226D01*
X112741687Y-75234071D01*
X112741690Y-75234070D01*
X112923673Y-75158691D01*
X112923685Y-75158685D01*
X113087462Y-75049250D01*
X113087466Y-75049247D01*
X113226747Y-74909966D01*
X113226750Y-74909962D01*
X113336185Y-74746185D01*
X113336191Y-74746173D01*
X113411570Y-74564190D01*
X113411570Y-74564188D01*
X113413472Y-74554629D01*
X113413472Y-74554627D01*
X113434600Y-74448407D01*
X113448789Y-74377074D01*
X113449364Y-74374904D01*
X113450000Y-74370991D01*
X113450000Y-74197502D01*
X113450000Y-74197501D01*
X113449999Y-74197500D01*
X113449998Y-74197500D01*
X113024000Y-74197500D01*
X112965809Y-74178593D01*
X112929845Y-74129093D01*
X112925000Y-74098500D01*
X112925000Y-74046500D01*
X112943907Y-73988309D01*
X112993407Y-73952345D01*
X113024000Y-73947500D01*
X113449998Y-73947500D01*
X113449999Y-73947500D01*
X113450000Y-73947499D01*
X113450000Y-73774009D01*
X113449999Y-73774006D01*
X113449989Y-73773956D01*
X113949500Y-73773956D01*
X113949500Y-74371043D01*
X113984600Y-74547500D01*
X113986047Y-74554771D01*
X113986047Y-74554775D01*
X113987948Y-74564337D01*
X114063364Y-74746407D01*
X114063365Y-74746409D01*
X114063367Y-74746413D01*
X114078358Y-74768848D01*
X114172861Y-74910282D01*
X114312218Y-75049639D01*
X114476086Y-75159132D01*
X114658165Y-75234551D01*
X114851459Y-75273000D01*
X114851460Y-75273000D01*
X115048540Y-75273000D01*
X115048541Y-75273000D01*
X115241835Y-75234551D01*
X115423914Y-75159132D01*
X115587782Y-75049639D01*
X115727139Y-74910282D01*
X115836632Y-74746414D01*
X115912051Y-74564335D01*
X115950500Y-74371041D01*
X115950500Y-73773959D01*
X115950499Y-73773956D01*
X116449500Y-73773956D01*
X116449500Y-74371043D01*
X116484600Y-74547500D01*
X116486047Y-74554771D01*
X116486047Y-74554775D01*
X116487948Y-74564337D01*
X116563364Y-74746407D01*
X116563365Y-74746409D01*
X116563367Y-74746413D01*
X116578358Y-74768848D01*
X116672861Y-74910282D01*
X116812218Y-75049639D01*
X116976086Y-75159132D01*
X117158165Y-75234551D01*
X117351459Y-75273000D01*
X117351460Y-75273000D01*
X117548540Y-75273000D01*
X117548541Y-75273000D01*
X117741835Y-75234551D01*
X117923914Y-75159132D01*
X118087782Y-75049639D01*
X118227139Y-74910282D01*
X118336632Y-74746414D01*
X118412051Y-74564335D01*
X118450500Y-74371041D01*
X118450500Y-73773959D01*
X118412051Y-73580665D01*
X118336632Y-73398586D01*
X118227139Y-73234718D01*
X118087782Y-73095361D01*
X117939790Y-72996476D01*
X117939788Y-72996473D01*
X117923914Y-72985867D01*
X117923910Y-72985865D01*
X117741836Y-72910449D01*
X117741835Y-72910449D01*
X117666829Y-72895529D01*
X117548545Y-72872000D01*
X117548543Y-72872000D01*
X117548541Y-72872000D01*
X117351459Y-72872000D01*
X117351456Y-72872000D01*
X117351455Y-72872000D01*
X117308800Y-72880485D01*
X117167727Y-72908547D01*
X117167720Y-72908547D01*
X117158161Y-72910448D01*
X116976088Y-72985865D01*
X116976087Y-72985865D01*
X116812220Y-73095358D01*
X116812218Y-73095360D01*
X116812214Y-73095363D01*
X116812214Y-73095364D01*
X116672864Y-73234714D01*
X116672861Y-73234718D01*
X116563365Y-73398587D01*
X116563365Y-73398588D01*
X116487950Y-73580658D01*
X116487950Y-73580659D01*
X116487949Y-73580661D01*
X116487949Y-73580663D01*
X116487949Y-73580665D01*
X116449500Y-73773956D01*
X115950499Y-73773956D01*
X115944120Y-73741888D01*
X115912051Y-73580665D01*
X115836632Y-73398586D01*
X115727139Y-73234718D01*
X115587782Y-73095361D01*
X115439790Y-72996476D01*
X115439788Y-72996473D01*
X115423914Y-72985867D01*
X115423910Y-72985865D01*
X115241836Y-72910449D01*
X115241835Y-72910449D01*
X115166829Y-72895529D01*
X115048545Y-72872000D01*
X115048543Y-72872000D01*
X115048541Y-72872000D01*
X114851459Y-72872000D01*
X114851456Y-72872000D01*
X114851455Y-72872000D01*
X114808800Y-72880485D01*
X114667727Y-72908547D01*
X114667720Y-72908547D01*
X114658161Y-72910448D01*
X114476088Y-72985865D01*
X114476087Y-72985865D01*
X114312220Y-73095358D01*
X114312218Y-73095360D01*
X114312214Y-73095363D01*
X114312214Y-73095364D01*
X114172864Y-73234714D01*
X114172861Y-73234718D01*
X114063365Y-73398587D01*
X114063365Y-73398588D01*
X113987950Y-73580658D01*
X113987950Y-73580659D01*
X113987949Y-73580661D01*
X113987949Y-73580663D01*
X113987949Y-73580665D01*
X113949500Y-73773956D01*
X113449989Y-73773956D01*
X113411570Y-73580811D01*
X113411570Y-73580809D01*
X113411569Y-73580807D01*
X113411569Y-73580805D01*
X113361744Y-73460517D01*
X113336191Y-73398826D01*
X113336185Y-73398814D01*
X113226750Y-73235037D01*
X113226747Y-73235033D01*
X113087466Y-73095752D01*
X113087462Y-73095749D01*
X112923685Y-72986314D01*
X112923682Y-72986312D01*
X112923680Y-72986311D01*
X112923675Y-72986308D01*
X112741690Y-72910929D01*
X112741689Y-72910929D01*
X112575000Y-72877772D01*
X112575000Y-73498500D01*
X112556093Y-73556691D01*
X112506593Y-73592655D01*
X112476000Y-73597500D01*
X112424000Y-73597500D01*
X112365809Y-73578593D01*
X112329845Y-73529093D01*
X112325000Y-73498500D01*
X112325000Y-72877771D01*
X112167873Y-72909027D01*
X112167867Y-72909027D01*
X112158309Y-72910928D01*
X111976318Y-72986311D01*
X111812535Y-73095750D01*
X111673250Y-73235035D01*
X111563811Y-73398818D01*
X111488430Y-73580805D01*
X111488429Y-73580811D01*
X111450000Y-73774003D01*
X110950500Y-73774003D01*
X110950500Y-73773959D01*
X110912051Y-73580665D01*
X110836632Y-73398586D01*
X110727139Y-73234718D01*
X110587782Y-73095361D01*
X110439790Y-72996476D01*
X110439788Y-72996473D01*
X110423914Y-72985867D01*
X110423910Y-72985865D01*
X110241836Y-72910449D01*
X110241835Y-72910449D01*
X110166829Y-72895529D01*
X110048545Y-72872000D01*
X110048543Y-72872000D01*
X110048541Y-72872000D01*
X109851459Y-72872000D01*
X109851456Y-72872000D01*
X109851455Y-72872000D01*
X109808800Y-72880485D01*
X109667727Y-72908547D01*
X109667720Y-72908547D01*
X109658161Y-72910448D01*
X109476088Y-72985865D01*
X109476087Y-72985865D01*
X109312220Y-73095358D01*
X109312219Y-73095359D01*
X109312210Y-73095366D01*
X109248162Y-73159416D01*
X109223104Y-73177622D01*
X109201345Y-73188709D01*
X109156399Y-73199500D01*
X108121150Y-73199500D01*
X107966505Y-73230260D01*
X107966502Y-73230261D01*
X107820823Y-73290603D01*
X107689709Y-73378212D01*
X94465103Y-86602816D01*
X94457906Y-86609338D01*
X94450437Y-86615468D01*
X94442641Y-86621251D01*
X94439720Y-86623202D01*
X94439701Y-86623218D01*
X94406143Y-86656770D01*
X94405714Y-86657207D01*
X92528210Y-88534711D01*
X92440613Y-88665806D01*
X92440600Y-88665829D01*
X92380264Y-88811496D01*
X92380264Y-88811497D01*
X92380263Y-88811504D01*
X92349500Y-88966154D01*
X92349500Y-99411733D01*
X92344654Y-99442326D01*
X92337107Y-99465553D01*
X92312957Y-99504964D01*
X91428210Y-100389711D01*
X91340613Y-100520806D01*
X91340600Y-100520829D01*
X91280264Y-100666496D01*
X91280264Y-100666497D01*
X91280263Y-100666499D01*
X91280263Y-100666501D01*
X91280263Y-100666503D01*
X91271948Y-100708305D01*
X91249500Y-100821154D01*
X91249500Y-108636733D01*
X91244654Y-108667326D01*
X91237107Y-108690553D01*
X91212957Y-108729964D01*
X90703210Y-109239711D01*
X90615613Y-109370806D01*
X90615600Y-109370829D01*
X90555264Y-109516496D01*
X90555264Y-109516497D01*
X90555263Y-109516504D01*
X90524500Y-109671154D01*
X89450500Y-109671154D01*
X89450500Y-97864001D01*
X89455344Y-97833412D01*
X89458645Y-97823252D01*
X89462891Y-97810181D01*
X89487040Y-97770772D01*
X91100500Y-96157314D01*
X91100503Y-96157309D01*
X91166390Y-96043190D01*
X91166390Y-96043188D01*
X91166392Y-96043186D01*
X91200500Y-95915892D01*
X91200500Y-95784107D01*
X91200500Y-92095108D01*
X91200500Y-84636501D01*
X91205344Y-84605912D01*
X91212891Y-84582681D01*
X91237040Y-84543272D01*
X100250500Y-75529814D01*
X100316392Y-75415686D01*
X100350500Y-75288393D01*
X100350500Y-75209964D01*
X100355344Y-75179376D01*
X100358047Y-75171056D01*
X100361743Y-75159679D01*
X100387264Y-75118923D01*
X100388169Y-75118053D01*
X100401787Y-75107098D01*
X100487782Y-75049639D01*
X100627139Y-74910282D01*
X100736632Y-74746414D01*
X100812051Y-74564335D01*
X100850500Y-74371041D01*
X100850500Y-73773959D01*
X100850499Y-73773956D01*
X101349500Y-73773956D01*
X101349500Y-74371043D01*
X101384600Y-74547500D01*
X101386047Y-74554771D01*
X101386047Y-74554775D01*
X101387948Y-74564337D01*
X101463364Y-74746407D01*
X101463365Y-74746409D01*
X101463367Y-74746413D01*
X101478358Y-74768848D01*
X101572861Y-74910282D01*
X101712218Y-75049639D01*
X101876086Y-75159132D01*
X102058165Y-75234551D01*
X102251459Y-75273000D01*
X102251460Y-75273000D01*
X102448540Y-75273000D01*
X102448541Y-75273000D01*
X102641835Y-75234551D01*
X102823914Y-75159132D01*
X102987782Y-75049639D01*
X103127139Y-74910282D01*
X103236632Y-74746414D01*
X103312051Y-74564335D01*
X103350500Y-74371041D01*
X103350500Y-73773959D01*
X103350499Y-73773956D01*
X103849500Y-73773956D01*
X103849500Y-74371043D01*
X103884600Y-74547500D01*
X103886047Y-74554771D01*
X103886047Y-74554775D01*
X103887948Y-74564337D01*
X103963364Y-74746407D01*
X103963365Y-74746409D01*
X103963367Y-74746413D01*
X103978358Y-74768848D01*
X104072861Y-74910282D01*
X104212218Y-75049639D01*
X104376086Y-75159132D01*
X104558165Y-75234551D01*
X104751459Y-75273000D01*
X104751460Y-75273000D01*
X104948540Y-75273000D01*
X104948541Y-75273000D01*
X105141835Y-75234551D01*
X105323914Y-75159132D01*
X105487782Y-75049639D01*
X105627139Y-74910282D01*
X105736632Y-74746414D01*
X105812051Y-74564335D01*
X105850500Y-74371041D01*
X105850500Y-73773959D01*
X105812051Y-73580665D01*
X105736632Y-73398586D01*
X105627139Y-73234718D01*
X105487782Y-73095361D01*
X105339790Y-72996476D01*
X105339788Y-72996473D01*
X105323914Y-72985867D01*
X105323910Y-72985865D01*
X105141836Y-72910449D01*
X105141835Y-72910449D01*
X105066829Y-72895529D01*
X104948545Y-72872000D01*
X104948543Y-72872000D01*
X104948541Y-72872000D01*
X104751459Y-72872000D01*
X104751456Y-72872000D01*
X104751455Y-72872000D01*
X104708800Y-72880485D01*
X104567727Y-72908547D01*
X104567720Y-72908547D01*
X104558161Y-72910448D01*
X104376088Y-72985865D01*
X104376087Y-72985865D01*
X104212220Y-73095358D01*
X104212218Y-73095360D01*
X104212214Y-73095363D01*
X104212214Y-73095364D01*
X104072864Y-73234714D01*
X104072861Y-73234718D01*
X103963365Y-73398587D01*
X103963365Y-73398588D01*
X103887950Y-73580658D01*
X103887950Y-73580659D01*
X103887949Y-73580661D01*
X103887949Y-73580663D01*
X103887949Y-73580665D01*
X103849500Y-73773956D01*
X103350499Y-73773956D01*
X103344120Y-73741888D01*
X103312051Y-73580665D01*
X103236632Y-73398586D01*
X103127139Y-73234718D01*
X102987782Y-73095361D01*
X102839790Y-72996476D01*
X102839788Y-72996473D01*
X102823914Y-72985867D01*
X102823910Y-72985865D01*
X102641836Y-72910449D01*
X102641835Y-72910449D01*
X102566829Y-72895529D01*
X102448545Y-72872000D01*
X102448543Y-72872000D01*
X102448541Y-72872000D01*
X102251459Y-72872000D01*
X102251456Y-72872000D01*
X102251455Y-72872000D01*
X102208800Y-72880485D01*
X102067727Y-72908547D01*
X102067720Y-72908547D01*
X102058161Y-72910448D01*
X101876088Y-72985865D01*
X101876087Y-72985865D01*
X101712220Y-73095358D01*
X101712218Y-73095360D01*
X101712214Y-73095363D01*
X101712214Y-73095364D01*
X101572864Y-73234714D01*
X101572861Y-73234718D01*
X101463365Y-73398587D01*
X101463365Y-73398588D01*
X101387950Y-73580658D01*
X101387950Y-73580659D01*
X101387949Y-73580661D01*
X101387949Y-73580663D01*
X101387949Y-73580665D01*
X101349500Y-73773956D01*
X100850499Y-73773956D01*
X100844120Y-73741888D01*
X100812051Y-73580665D01*
X100736632Y-73398586D01*
X100627139Y-73234718D01*
X100487782Y-73095361D01*
X100339790Y-72996476D01*
X100339788Y-72996473D01*
X100323914Y-72985867D01*
X100323910Y-72985865D01*
X100141836Y-72910449D01*
X100141835Y-72910449D01*
X100066829Y-72895529D01*
X99948545Y-72872000D01*
X99948543Y-72872000D01*
X99948541Y-72872000D01*
X99751459Y-72872000D01*
X99751456Y-72872000D01*
X99751455Y-72872000D01*
X99708800Y-72880485D01*
X99567727Y-72908547D01*
X99567720Y-72908547D01*
X99558161Y-72910448D01*
X99376088Y-72985865D01*
X99376087Y-72985865D01*
X99212220Y-73095358D01*
X99212218Y-73095360D01*
X99212214Y-73095363D01*
X99212214Y-73095364D01*
X99072864Y-73234714D01*
X99072861Y-73234718D01*
X98963365Y-73398587D01*
X98963365Y-73398588D01*
X98887950Y-73580658D01*
X98887950Y-73580659D01*
X98887949Y-73580661D01*
X98887949Y-73580663D01*
X98887949Y-73580665D01*
X98849500Y-73773956D01*
X98849500Y-74371043D01*
X98884600Y-74547500D01*
X98886047Y-74554771D01*
X98886047Y-74554775D01*
X98887948Y-74564337D01*
X98963364Y-74746407D01*
X98963365Y-74746409D01*
X98963367Y-74746413D01*
X98978358Y-74768848D01*
X99072861Y-74910282D01*
X99072864Y-74910285D01*
X99072868Y-74910290D01*
X99074318Y-74911740D01*
X99074319Y-74911741D01*
X99182538Y-75019959D01*
X99200744Y-75045016D01*
X99206801Y-75056903D01*
X99216373Y-75117335D01*
X99216372Y-75117343D01*
X99215575Y-75122373D01*
X99187799Y-75176884D01*
X90421683Y-83943003D01*
X90421676Y-83943006D01*
X90299504Y-84065180D01*
X90299497Y-84065188D01*
X90233610Y-84179305D01*
X90199500Y-84306610D01*
X90199500Y-95585997D01*
X90194654Y-95616590D01*
X90187107Y-95639817D01*
X90162957Y-95679228D01*
X88671683Y-97170503D01*
X88671676Y-97170506D01*
X88549504Y-97292680D01*
X88549497Y-97292688D01*
X88483610Y-97406805D01*
X88483609Y-97406809D01*
X88453286Y-97519981D01*
X88449500Y-97534110D01*
X88449500Y-110534819D01*
X88444654Y-110565412D01*
X88440532Y-110578098D01*
X88404580Y-110627589D01*
X88400459Y-110630584D01*
X88342271Y-110649500D01*
X84793856Y-110649500D01*
X84739297Y-110664118D01*
X84704707Y-110673387D01*
X84624789Y-110719528D01*
X84624783Y-110719532D01*
X84534899Y-110809416D01*
X84509843Y-110827620D01*
X84488083Y-110838708D01*
X84443136Y-110849500D01*
X84424108Y-110849500D01*
X84385154Y-110859937D01*
X84346199Y-110870375D01*
X84346198Y-110870374D01*
X84296807Y-110883609D01*
X84296805Y-110883610D01*
X84182694Y-110949492D01*
X84089492Y-111042694D01*
X84024221Y-111155747D01*
X84024220Y-111155749D01*
X84023609Y-111156809D01*
X84023608Y-111156814D01*
X83989500Y-111284108D01*
X50300500Y-111284108D01*
X50300500Y-105490796D01*
X51175131Y-105490796D01*
X51175131Y-105760464D01*
X51205314Y-106028333D01*
X51205316Y-106028348D01*
X51205319Y-106028366D01*
X51207427Y-106037599D01*
X51265315Y-106291225D01*
X51265315Y-106291226D01*
X51265314Y-106291226D01*
X51354104Y-106544968D01*
X51354329Y-106545627D01*
X51354362Y-106545708D01*
X51471328Y-106788591D01*
X51471347Y-106788629D01*
X51477171Y-106797897D01*
X51519973Y-106866015D01*
X51614793Y-107016920D01*
X51782897Y-107227716D01*
X51973546Y-107418365D01*
X52184342Y-107586469D01*
X52412634Y-107729915D01*
X52412636Y-107729916D01*
X52412648Y-107729922D01*
X52494829Y-107769498D01*
X52655552Y-107846898D01*
X52695387Y-107860837D01*
X52774268Y-107888439D01*
X52774323Y-107888457D01*
X52774350Y-107888467D01*
X52900198Y-107932503D01*
X52902157Y-107933189D01*
X52907249Y-107935467D01*
X52907289Y-107935479D01*
X52912703Y-107936555D01*
X53172899Y-107995943D01*
X53245146Y-108004083D01*
X53426935Y-108024567D01*
X53432998Y-108026131D01*
X53710440Y-108026131D01*
X53718261Y-108026131D01*
X53724318Y-108024567D01*
X53882033Y-108006796D01*
X53978363Y-107995943D01*
X54241222Y-107935947D01*
X54495710Y-107846898D01*
X54738628Y-107729915D01*
X54966920Y-107586469D01*
X55177716Y-107418365D01*
X55368365Y-107227716D01*
X55536469Y-107016920D01*
X55679915Y-106788628D01*
X55796898Y-106545710D01*
X55885947Y-106291222D01*
X55945943Y-106028363D01*
X55963011Y-105876882D01*
X55976130Y-105760456D01*
X55976131Y-105760439D01*
X55976131Y-105490822D01*
X55976130Y-105490805D01*
X55971588Y-105450500D01*
X55965557Y-105396974D01*
X55965556Y-105396964D01*
X55964745Y-105389770D01*
X59349500Y-105389770D01*
X59349500Y-105610228D01*
X59383983Y-105827945D01*
X59451047Y-106034354D01*
X59452122Y-106037664D01*
X59452548Y-106038520D01*
X59453983Y-106041483D01*
X59454726Y-106042752D01*
X59552178Y-106234011D01*
X59552182Y-106234018D01*
X59552183Y-106234019D01*
X59552185Y-106234022D01*
X59681758Y-106412365D01*
X59837635Y-106568242D01*
X60015978Y-106697815D01*
X60212394Y-106797895D01*
X60422049Y-106866015D01*
X60509140Y-106879809D01*
X60552685Y-106886706D01*
X60639773Y-106900500D01*
X60860225Y-106900500D01*
X60860228Y-106900500D01*
X60914655Y-106891878D01*
X60969086Y-106883257D01*
X61039941Y-106872034D01*
X61077947Y-106866016D01*
X61077947Y-106866015D01*
X61077951Y-106866015D01*
X61287606Y-106797895D01*
X61484022Y-106697815D01*
X61662365Y-106568242D01*
X61818242Y-106412365D01*
X61947815Y-106234022D01*
X62047895Y-106037606D01*
X62116015Y-105827951D01*
X62133257Y-105719086D01*
X62150500Y-105610225D01*
X62150500Y-105389771D01*
X62150500Y-105389770D01*
X65849500Y-105389770D01*
X65849500Y-105610228D01*
X65883983Y-105827945D01*
X65951047Y-106034354D01*
X65952122Y-106037664D01*
X65952548Y-106038520D01*
X65953983Y-106041483D01*
X65954726Y-106042752D01*
X66052178Y-106234011D01*
X66052182Y-106234018D01*
X66052183Y-106234019D01*
X66052185Y-106234022D01*
X66181758Y-106412365D01*
X66337635Y-106568242D01*
X66515978Y-106697815D01*
X66712394Y-106797895D01*
X66922049Y-106866015D01*
X67009140Y-106879809D01*
X67052685Y-106886706D01*
X67139773Y-106900500D01*
X67360225Y-106900500D01*
X67360228Y-106900500D01*
X67414655Y-106891878D01*
X67469086Y-106883257D01*
X67539941Y-106872034D01*
X67577947Y-106866016D01*
X67577947Y-106866015D01*
X67577951Y-106866015D01*
X67787606Y-106797895D01*
X67984022Y-106697815D01*
X68162365Y-106568242D01*
X68318242Y-106412365D01*
X68447815Y-106234022D01*
X68547895Y-106037606D01*
X68616015Y-105827951D01*
X68633257Y-105719086D01*
X68650500Y-105610225D01*
X68650500Y-105389771D01*
X68616015Y-105172052D01*
X68616015Y-105172050D01*
X68593462Y-105102639D01*
X68547895Y-104962394D01*
X68508006Y-104884109D01*
X76449500Y-104884109D01*
X76449500Y-105015891D01*
X76472170Y-105100502D01*
X76483608Y-105143189D01*
X76483610Y-105143193D01*
X76549494Y-105257307D01*
X76549496Y-105257309D01*
X76549498Y-105257311D01*
X76549500Y-105257314D01*
X76642686Y-105350500D01*
X76642688Y-105350501D01*
X76642690Y-105350503D01*
X76643237Y-105350898D01*
X76645239Y-105351975D01*
X76689207Y-105377359D01*
X76700040Y-105383614D01*
X76721634Y-105407596D01*
X76755944Y-105416174D01*
X76757548Y-105416588D01*
X76884108Y-105450500D01*
X76884110Y-105450500D01*
X77015890Y-105450500D01*
X77015892Y-105450500D01*
X77143186Y-105416392D01*
X77143188Y-105416390D01*
X77143190Y-105416390D01*
X77251190Y-105354035D01*
X77254067Y-105352639D01*
X77254856Y-105352120D01*
X77259866Y-105349026D01*
X77261160Y-105348278D01*
X77266520Y-105341294D01*
X77271632Y-105336180D01*
X77317232Y-105290580D01*
X77342290Y-105272375D01*
X77364055Y-105261287D01*
X77408994Y-105250500D01*
X81103294Y-105250500D01*
X81115186Y-105243633D01*
X81165989Y-105230021D01*
X81172779Y-105226100D01*
X81172785Y-105226097D01*
X81178332Y-105222894D01*
X81182861Y-105220279D01*
X81206734Y-105210391D01*
X81226580Y-105205073D01*
X81231061Y-105203873D01*
X81256681Y-105200500D01*
X81365890Y-105200500D01*
X81365892Y-105200500D01*
X81493186Y-105166392D01*
X81493188Y-105166390D01*
X81493190Y-105166390D01*
X81601190Y-105104035D01*
X81604067Y-105102639D01*
X81604853Y-105102122D01*
X81609862Y-105099028D01*
X81611161Y-105098277D01*
X81616519Y-105091294D01*
X81700500Y-105007314D01*
X81700503Y-105007309D01*
X81766390Y-104893190D01*
X81766390Y-104893188D01*
X81766392Y-104893186D01*
X81800500Y-104765892D01*
X81800500Y-104634108D01*
X81766392Y-104506814D01*
X81766390Y-104506811D01*
X81766390Y-104506809D01*
X81766383Y-104506798D01*
X81766066Y-104506094D01*
X81764812Y-104504076D01*
X81700503Y-104392690D01*
X81700501Y-104392688D01*
X81700500Y-104392686D01*
X81607314Y-104299500D01*
X81607311Y-104299498D01*
X81607309Y-104299496D01*
X81607302Y-104299492D01*
X81550476Y-104266683D01*
X81529442Y-104243322D01*
X81443799Y-104220375D01*
X81443798Y-104220374D01*
X81375610Y-104202104D01*
X81365892Y-104199500D01*
X81365891Y-104199500D01*
X81234109Y-104199500D01*
X81234108Y-104199500D01*
X81214593Y-104204729D01*
X81156199Y-104220375D01*
X81156198Y-104220374D01*
X81106807Y-104233609D01*
X81106805Y-104233610D01*
X80992694Y-104299492D01*
X80899492Y-104392694D01*
X80833610Y-104506805D01*
X80833609Y-104506807D01*
X80819094Y-104560977D01*
X80806496Y-104589273D01*
X80799231Y-104600460D01*
X80751688Y-104638962D01*
X80741374Y-104642922D01*
X80705889Y-104649500D01*
X77414001Y-104649500D01*
X77383407Y-104644654D01*
X77360181Y-104637107D01*
X77320772Y-104612957D01*
X77257312Y-104549498D01*
X77200476Y-104516683D01*
X77179442Y-104493321D01*
X77064961Y-104462648D01*
X77064960Y-104462647D01*
X77029039Y-104453022D01*
X77015892Y-104449500D01*
X77015891Y-104449500D01*
X76884109Y-104449500D01*
X76884108Y-104449500D01*
X76875548Y-104451793D01*
X76835038Y-104462647D01*
X76835039Y-104462648D01*
X76756809Y-104483609D01*
X76756807Y-104483609D01*
X76756803Y-104483611D01*
X76642694Y-104549492D01*
X76549495Y-104642691D01*
X76483608Y-104756810D01*
X76481152Y-104765980D01*
X76449500Y-104884109D01*
X68508006Y-104884109D01*
X68447815Y-104765978D01*
X68318242Y-104587635D01*
X68162365Y-104431758D01*
X68042340Y-104344555D01*
X67992460Y-104308315D01*
X67992453Y-104308310D01*
X67984022Y-104302185D01*
X67984021Y-104302184D01*
X67984019Y-104302183D01*
X67979197Y-104299726D01*
X67979194Y-104299724D01*
X67849433Y-104233608D01*
X67849433Y-104233607D01*
X67849431Y-104233607D01*
X67792755Y-104204728D01*
X67787606Y-104202105D01*
X67787603Y-104202104D01*
X67787601Y-104202103D01*
X67787600Y-104202102D01*
X67787599Y-104202102D01*
X67784349Y-104201046D01*
X67784348Y-104201045D01*
X67577945Y-104133983D01*
X67360228Y-104099500D01*
X67360225Y-104099500D01*
X67360222Y-104099500D01*
X67139778Y-104099500D01*
X67139775Y-104099500D01*
X67139772Y-104099500D01*
X66922053Y-104133983D01*
X66712401Y-104202101D01*
X66515980Y-104302182D01*
X66515976Y-104302185D01*
X66426805Y-104366971D01*
X66337640Y-104431753D01*
X66181753Y-104587640D01*
X66136910Y-104649363D01*
X66136910Y-104649364D01*
X66052183Y-104765980D01*
X66052182Y-104765980D01*
X65991994Y-104884108D01*
X65972399Y-104922565D01*
X65953307Y-104960036D01*
X65952647Y-104961329D01*
X65952101Y-104962401D01*
X65952100Y-104962403D01*
X65883983Y-105172053D01*
X65849500Y-105389770D01*
X62150500Y-105389770D01*
X62116015Y-105172052D01*
X62116015Y-105172050D01*
X62093462Y-105102639D01*
X62047895Y-104962394D01*
X61947815Y-104765978D01*
X61818242Y-104587635D01*
X61662365Y-104431758D01*
X61542340Y-104344555D01*
X61492460Y-104308315D01*
X61492453Y-104308310D01*
X61484022Y-104302185D01*
X61484021Y-104302184D01*
X61484019Y-104302183D01*
X61479197Y-104299726D01*
X61479194Y-104299724D01*
X61349433Y-104233608D01*
X61349433Y-104233607D01*
X61349431Y-104233607D01*
X61292755Y-104204728D01*
X61287606Y-104202105D01*
X61287603Y-104202104D01*
X61287601Y-104202103D01*
X61287600Y-104202102D01*
X61287599Y-104202102D01*
X61284349Y-104201046D01*
X61284348Y-104201045D01*
X61077945Y-104133983D01*
X60860228Y-104099500D01*
X60860225Y-104099500D01*
X60860222Y-104099500D01*
X60639778Y-104099500D01*
X60639775Y-104099500D01*
X60639772Y-104099500D01*
X60422053Y-104133983D01*
X60212401Y-104202101D01*
X60015980Y-104302182D01*
X60015976Y-104302185D01*
X59926805Y-104366971D01*
X59837640Y-104431753D01*
X59681753Y-104587640D01*
X59636910Y-104649363D01*
X59636910Y-104649364D01*
X59552183Y-104765980D01*
X59552182Y-104765980D01*
X59491994Y-104884108D01*
X59472399Y-104922565D01*
X59453307Y-104960036D01*
X59452647Y-104961329D01*
X59452101Y-104962401D01*
X59452100Y-104962403D01*
X59383983Y-105172053D01*
X59349500Y-105389770D01*
X55964745Y-105389770D01*
X55952320Y-105279496D01*
X55948279Y-105243633D01*
X55945943Y-105222899D01*
X55885947Y-104960040D01*
X55796898Y-104705552D01*
X55762492Y-104634108D01*
X55734568Y-104576122D01*
X55679922Y-104462648D01*
X55679916Y-104462636D01*
X55635966Y-104392690D01*
X55536469Y-104234342D01*
X55368365Y-104023546D01*
X55177716Y-103832897D01*
X54966920Y-103664793D01*
X54739757Y-103522056D01*
X54738954Y-103521536D01*
X54738635Y-103521351D01*
X54738628Y-103521347D01*
X54738625Y-103521345D01*
X54738613Y-103521339D01*
X54710151Y-103507632D01*
X54495708Y-103404362D01*
X54495627Y-103404329D01*
X54494968Y-103404104D01*
X54241226Y-103315315D01*
X53978366Y-103255319D01*
X53978348Y-103255316D01*
X53978333Y-103255314D01*
X53710464Y-103225131D01*
X53710456Y-103225131D01*
X53710440Y-103225131D01*
X53440822Y-103225131D01*
X53440805Y-103225131D01*
X53440796Y-103225131D01*
X53172927Y-103255314D01*
X53172912Y-103255316D01*
X53172894Y-103255319D01*
X52910034Y-103315315D01*
X52656292Y-103404104D01*
X52655638Y-103404327D01*
X52655552Y-103404362D01*
X52412684Y-103521321D01*
X52412631Y-103521347D01*
X52184340Y-103664793D01*
X51973548Y-103832895D01*
X51782895Y-104023548D01*
X51614793Y-104234340D01*
X51471347Y-104462631D01*
X51471339Y-104462648D01*
X51354362Y-104705552D01*
X51354327Y-104705638D01*
X51354104Y-104706292D01*
X51265315Y-104960034D01*
X51205319Y-105222894D01*
X51205316Y-105222912D01*
X51205314Y-105222927D01*
X51175131Y-105490796D01*
X50300500Y-105490796D01*
X50300500Y-97760432D01*
X55099500Y-97760432D01*
X55099500Y-102239566D01*
X55111994Y-102286191D01*
X55119978Y-102315988D01*
X55119980Y-102315992D01*
X55119981Y-102315993D01*
X55119981Y-102315995D01*
X55159533Y-102384500D01*
X55159535Y-102384504D01*
X55159538Y-102384508D01*
X55159540Y-102384511D01*
X55215489Y-102440460D01*
X55215491Y-102440461D01*
X55284007Y-102480019D01*
X55284011Y-102480021D01*
X55357283Y-102499654D01*
X55357829Y-102499884D01*
X55360436Y-102500500D01*
X56939563Y-102500500D01*
X56953293Y-102500500D01*
X56965185Y-102493633D01*
X57015989Y-102480021D01*
X57084511Y-102440460D01*
X57140460Y-102384511D01*
X57180021Y-102315989D01*
X57200500Y-102239562D01*
X57200500Y-98501456D01*
X57899500Y-98501456D01*
X57899500Y-99098543D01*
X57924356Y-99223501D01*
X57936047Y-99282271D01*
X57936047Y-99282275D01*
X57937948Y-99291837D01*
X58013365Y-99473909D01*
X58013367Y-99473913D01*
X58013368Y-99473914D01*
X58029073Y-99497419D01*
X58050948Y-99530157D01*
X58122860Y-99637781D01*
X58122862Y-99637783D01*
X58262209Y-99777131D01*
X58262213Y-99777134D01*
X58262218Y-99777139D01*
X58359914Y-99842417D01*
X58426079Y-99886628D01*
X58426082Y-99886629D01*
X58426086Y-99886632D01*
X58456038Y-99899038D01*
X58474486Y-99906680D01*
X58500884Y-99922856D01*
X58509203Y-99929962D01*
X58541174Y-99982129D01*
X58536375Y-100043126D01*
X58503103Y-100085334D01*
X58498447Y-100088717D01*
X58478140Y-100100090D01*
X58446086Y-100113367D01*
X58446077Y-100113371D01*
X58282220Y-100222858D01*
X58142858Y-100362220D01*
X58033365Y-100526087D01*
X58033365Y-100526088D01*
X57957950Y-100708158D01*
X57957950Y-100708159D01*
X57957949Y-100708161D01*
X57957949Y-100708163D01*
X57957949Y-100708165D01*
X57919500Y-100901456D01*
X57919500Y-101498543D01*
X57934161Y-101572249D01*
X57956047Y-101682271D01*
X57956047Y-101682275D01*
X57957948Y-101691837D01*
X58033365Y-101873909D01*
X58033366Y-101873912D01*
X58040706Y-101884896D01*
X58040707Y-101884901D01*
X58040709Y-101884901D01*
X58040710Y-101884902D01*
X58142861Y-102037782D01*
X58282218Y-102177139D01*
X58446086Y-102286632D01*
X58628165Y-102362051D01*
X58821459Y-102400500D01*
X58821460Y-102400500D01*
X59018540Y-102400500D01*
X59018541Y-102400500D01*
X59211835Y-102362051D01*
X59393914Y-102286632D01*
X59557782Y-102177139D01*
X59697139Y-102037782D01*
X59806632Y-101873914D01*
X59882051Y-101691835D01*
X59920500Y-101498541D01*
X59920500Y-100901459D01*
X59882051Y-100708165D01*
X59806632Y-100526086D01*
X59697139Y-100362218D01*
X59557782Y-100222861D01*
X59459621Y-100157272D01*
X59393912Y-100113366D01*
X59393908Y-100113365D01*
X59345516Y-100093319D01*
X59319111Y-100077139D01*
X59310796Y-100070038D01*
X59278824Y-100017871D01*
X59283622Y-99956874D01*
X59316890Y-99914668D01*
X59321550Y-99911282D01*
X59341846Y-99899914D01*
X59373914Y-99886632D01*
X59537782Y-99777139D01*
X59677139Y-99637782D01*
X59786632Y-99473914D01*
X59862051Y-99291835D01*
X59900500Y-99098541D01*
X59900500Y-98501503D01*
X63000000Y-98501503D01*
X63000000Y-98501506D01*
X63000000Y-98674999D01*
X63000001Y-98675000D01*
X63401000Y-98675000D01*
X63459191Y-98693907D01*
X63495155Y-98743407D01*
X63500000Y-98774000D01*
X63500000Y-98826000D01*
X63481093Y-98884191D01*
X63431593Y-98920155D01*
X63401000Y-98925000D01*
X63000001Y-98925000D01*
X63000000Y-98925001D01*
X63000000Y-98925002D01*
X63000000Y-99098495D01*
X63036527Y-99282126D01*
X63036527Y-99282129D01*
X63038428Y-99291689D01*
X63113811Y-99473680D01*
X63113812Y-99473682D01*
X63113814Y-99473685D01*
X63223249Y-99637462D01*
X63223252Y-99637466D01*
X63362533Y-99776747D01*
X63362537Y-99776750D01*
X63526314Y-99886185D01*
X63526323Y-99886189D01*
X63559440Y-99899907D01*
X63565789Y-99902537D01*
X63592192Y-99918717D01*
X63593110Y-99919501D01*
X63600507Y-99925819D01*
X63632479Y-99977985D01*
X63627681Y-100038982D01*
X63594408Y-100081192D01*
X63589752Y-100084575D01*
X63569444Y-100095948D01*
X63526320Y-100113810D01*
X63526315Y-100113812D01*
X63362549Y-100223240D01*
X63362535Y-100223250D01*
X63223250Y-100362535D01*
X63113811Y-100526318D01*
X63038430Y-100708305D01*
X63038429Y-100708311D01*
X63000000Y-100901503D01*
X63000000Y-100901506D01*
X63000000Y-101074999D01*
X63000001Y-101075000D01*
X63401000Y-101075000D01*
X63459191Y-101093907D01*
X63495155Y-101143407D01*
X63500000Y-101174000D01*
X63500000Y-101226000D01*
X63481093Y-101284191D01*
X63431593Y-101320155D01*
X63401000Y-101325000D01*
X63000001Y-101325000D01*
X63000000Y-101325001D01*
X63000000Y-101325002D01*
X63000000Y-101498495D01*
X63036527Y-101682126D01*
X63036527Y-101682129D01*
X63038428Y-101691689D01*
X63113811Y-101873680D01*
X63113812Y-101873682D01*
X63113814Y-101873685D01*
X63223249Y-102037462D01*
X63223252Y-102037466D01*
X63362533Y-102176747D01*
X63362537Y-102176750D01*
X63526314Y-102286185D01*
X63526318Y-102286187D01*
X63526323Y-102286190D01*
X63708294Y-102361564D01*
X63708295Y-102361564D01*
X63708309Y-102361570D01*
X63708312Y-102361571D01*
X63874999Y-102394726D01*
X63875000Y-102394726D01*
X63875000Y-102394725D01*
X63875000Y-101799000D01*
X63893907Y-101740809D01*
X63943407Y-101704845D01*
X63974000Y-101700000D01*
X64026000Y-101700000D01*
X64084191Y-101718907D01*
X64120155Y-101768407D01*
X64125000Y-101799000D01*
X64125000Y-102394725D01*
X64125000Y-102394726D01*
X64291687Y-102361571D01*
X64291690Y-102361570D01*
X64473673Y-102286191D01*
X64473685Y-102286185D01*
X64637462Y-102176750D01*
X64637466Y-102176747D01*
X64776747Y-102037466D01*
X64776750Y-102037462D01*
X64886185Y-101873685D01*
X64886191Y-101873673D01*
X64961570Y-101691690D01*
X64961570Y-101691688D01*
X64963071Y-101684144D01*
X64963472Y-101682129D01*
X64963472Y-101682127D01*
X64975208Y-101623123D01*
X64998789Y-101504574D01*
X64999364Y-101502404D01*
X65000000Y-101498491D01*
X65000000Y-101325002D01*
X65000000Y-101325001D01*
X64999999Y-101325000D01*
X64999998Y-101325000D01*
X64599000Y-101325000D01*
X64540809Y-101306093D01*
X64504845Y-101256593D01*
X64500000Y-101226000D01*
X64500000Y-101174000D01*
X64518907Y-101115809D01*
X64568407Y-101079845D01*
X64599000Y-101075000D01*
X64999998Y-101075000D01*
X64999999Y-101075000D01*
X65000000Y-101074999D01*
X65000000Y-100901509D01*
X65000000Y-100901507D01*
X64999364Y-100897594D01*
X64998789Y-100895424D01*
X64961570Y-100708311D01*
X64961570Y-100708309D01*
X64961569Y-100708307D01*
X64961569Y-100708305D01*
X64917122Y-100601000D01*
X64886191Y-100526326D01*
X64886185Y-100526314D01*
X64776750Y-100362537D01*
X64776747Y-100362533D01*
X64637466Y-100223252D01*
X64637462Y-100223249D01*
X64473685Y-100113814D01*
X64473673Y-100113808D01*
X64473667Y-100113805D01*
X64434210Y-100097461D01*
X64407802Y-100081278D01*
X64399489Y-100074178D01*
X64367519Y-100022009D01*
X64372320Y-99961012D01*
X64405591Y-99918807D01*
X64410247Y-99915424D01*
X64430553Y-99904051D01*
X64473673Y-99886191D01*
X64473685Y-99886185D01*
X64637462Y-99776750D01*
X64637466Y-99776747D01*
X64776747Y-99637466D01*
X64776750Y-99637462D01*
X64886185Y-99473685D01*
X64886191Y-99473673D01*
X64961570Y-99291690D01*
X64961570Y-99291688D01*
X64963071Y-99284144D01*
X64963472Y-99282129D01*
X64963472Y-99282127D01*
X64975134Y-99223498D01*
X64998789Y-99104574D01*
X64999364Y-99102404D01*
X65000000Y-99098491D01*
X65000000Y-98925002D01*
X65000000Y-98925001D01*
X64999999Y-98925000D01*
X64999998Y-98925000D01*
X64599000Y-98925000D01*
X64540809Y-98906093D01*
X64504845Y-98856593D01*
X64500000Y-98826000D01*
X64500000Y-98774000D01*
X64518907Y-98715809D01*
X64568407Y-98679845D01*
X64599000Y-98675000D01*
X64999998Y-98675000D01*
X64999999Y-98675000D01*
X65000000Y-98674999D01*
X65000000Y-98501509D01*
X64999999Y-98501506D01*
X64999989Y-98501456D01*
X68079500Y-98501456D01*
X68079500Y-99098543D01*
X68104356Y-99223501D01*
X68116047Y-99282271D01*
X68116047Y-99282275D01*
X68117948Y-99291837D01*
X68193365Y-99473909D01*
X68193367Y-99473913D01*
X68193368Y-99473914D01*
X68209073Y-99497419D01*
X68230948Y-99530157D01*
X68302860Y-99637781D01*
X68302862Y-99637783D01*
X68442209Y-99777131D01*
X68442213Y-99777134D01*
X68442218Y-99777139D01*
X68539914Y-99842417D01*
X68606079Y-99886628D01*
X68606082Y-99886629D01*
X68606086Y-99886632D01*
X68636038Y-99899038D01*
X68654486Y-99906680D01*
X68680884Y-99922856D01*
X68689203Y-99929962D01*
X68721174Y-99982129D01*
X68716375Y-100043126D01*
X68683103Y-100085334D01*
X68678447Y-100088717D01*
X68658140Y-100100090D01*
X68626086Y-100113367D01*
X68626077Y-100113371D01*
X68462220Y-100222858D01*
X68322858Y-100362220D01*
X68213365Y-100526087D01*
X68213365Y-100526088D01*
X68137950Y-100708158D01*
X68137950Y-100708159D01*
X68137949Y-100708161D01*
X68137949Y-100708163D01*
X68137949Y-100708165D01*
X68099500Y-100901456D01*
X68099500Y-101498543D01*
X68114161Y-101572249D01*
X68136047Y-101682271D01*
X68136047Y-101682275D01*
X68137948Y-101691837D01*
X68213365Y-101873909D01*
X68213366Y-101873912D01*
X68220706Y-101884896D01*
X68220707Y-101884901D01*
X68220709Y-101884901D01*
X68220710Y-101884902D01*
X68322861Y-102037782D01*
X68462218Y-102177139D01*
X68626086Y-102286632D01*
X68808165Y-102362051D01*
X69001459Y-102400500D01*
X69001460Y-102400500D01*
X69198540Y-102400500D01*
X69198541Y-102400500D01*
X69391835Y-102362051D01*
X69573914Y-102286632D01*
X69737782Y-102177139D01*
X69877139Y-102037782D01*
X69986632Y-101873914D01*
X70062051Y-101691835D01*
X70100500Y-101498541D01*
X70100500Y-100901459D01*
X70062051Y-100708165D01*
X69986632Y-100526086D01*
X69877139Y-100362218D01*
X69737782Y-100222861D01*
X69639621Y-100157272D01*
X69573912Y-100113366D01*
X69573908Y-100113365D01*
X69525516Y-100093319D01*
X69499111Y-100077139D01*
X69490796Y-100070038D01*
X69458824Y-100017871D01*
X69463622Y-99956874D01*
X69496890Y-99914668D01*
X69501550Y-99911282D01*
X69521846Y-99899914D01*
X69553914Y-99886632D01*
X69717782Y-99777139D01*
X69857139Y-99637782D01*
X69966632Y-99473914D01*
X70042051Y-99291835D01*
X70080500Y-99098541D01*
X70080500Y-98501459D01*
X70042051Y-98308165D01*
X69966632Y-98126086D01*
X69857139Y-97962218D01*
X69717782Y-97822861D01*
X69624351Y-97760432D01*
X73949500Y-97760432D01*
X73949500Y-102239566D01*
X73961994Y-102286191D01*
X73969978Y-102315988D01*
X73969980Y-102315992D01*
X73969981Y-102315993D01*
X73969981Y-102315995D01*
X74009533Y-102384500D01*
X74009535Y-102384504D01*
X74009538Y-102384508D01*
X74009540Y-102384511D01*
X74065489Y-102440460D01*
X74065491Y-102440461D01*
X74134007Y-102480019D01*
X74134011Y-102480021D01*
X74207283Y-102499654D01*
X74207829Y-102499884D01*
X74210436Y-102500500D01*
X75789563Y-102500500D01*
X75803293Y-102500500D01*
X75815185Y-102493633D01*
X75865989Y-102480021D01*
X75934511Y-102440460D01*
X75990460Y-102384511D01*
X76030021Y-102315989D01*
X76050500Y-102239562D01*
X76050500Y-98260432D01*
X77949500Y-98260432D01*
X77949500Y-101739566D01*
X77965426Y-101799000D01*
X77969978Y-101815988D01*
X77969980Y-101815992D01*
X78003421Y-101873913D01*
X78003422Y-101873914D01*
X78003421Y-101873914D01*
X78009540Y-101884512D01*
X78038510Y-101913481D01*
X78065489Y-101940460D01*
X78065491Y-101940461D01*
X78134007Y-101980019D01*
X78134011Y-101980021D01*
X78207283Y-101999654D01*
X78207829Y-101999884D01*
X78210436Y-102000500D01*
X81289563Y-102000500D01*
X81303293Y-102000500D01*
X81315185Y-101993633D01*
X81365989Y-101980021D01*
X81434511Y-101940460D01*
X81490460Y-101884511D01*
X81530021Y-101815989D01*
X81550500Y-101739562D01*
X81550500Y-98260438D01*
X81530021Y-98184011D01*
X81490460Y-98115489D01*
X81434511Y-98059540D01*
X81434508Y-98059538D01*
X81434504Y-98059535D01*
X81434500Y-98059533D01*
X81365994Y-98019981D01*
X81365993Y-98019980D01*
X81365992Y-98019980D01*
X81365988Y-98019978D01*
X81349829Y-98015648D01*
X81289566Y-97999500D01*
X81289564Y-97999500D01*
X81289562Y-97999500D01*
X78289562Y-97999500D01*
X78210438Y-97999500D01*
X78210435Y-97999500D01*
X78210432Y-97999500D01*
X78134018Y-98019976D01*
X78134011Y-98019978D01*
X78134007Y-98019980D01*
X78115649Y-98030579D01*
X78065492Y-98059537D01*
X78009537Y-98115492D01*
X77969979Y-98184009D01*
X77969976Y-98184018D01*
X77949500Y-98260432D01*
X76050500Y-98260432D01*
X76050500Y-97760438D01*
X76030021Y-97684011D01*
X75990460Y-97615489D01*
X75934511Y-97559540D01*
X75934508Y-97559538D01*
X75934504Y-97559535D01*
X75934500Y-97559533D01*
X75865994Y-97519981D01*
X75865993Y-97519980D01*
X75865992Y-97519980D01*
X75865988Y-97519978D01*
X75849829Y-97515648D01*
X75789566Y-97499500D01*
X75789564Y-97499500D01*
X75789562Y-97499500D01*
X74289562Y-97499500D01*
X74210438Y-97499500D01*
X74210435Y-97499500D01*
X74210432Y-97499500D01*
X74134018Y-97519976D01*
X74134011Y-97519978D01*
X74134007Y-97519980D01*
X74115649Y-97530579D01*
X74065492Y-97559537D01*
X74009537Y-97615492D01*
X73969979Y-97684009D01*
X73969976Y-97684018D01*
X73949500Y-97760432D01*
X69624351Y-97760432D01*
X69608288Y-97749699D01*
X69553913Y-97713367D01*
X69553911Y-97713366D01*
X69371836Y-97637949D01*
X69371835Y-97637949D01*
X69307404Y-97625132D01*
X69178545Y-97599500D01*
X69178543Y-97599500D01*
X69178541Y-97599500D01*
X68981459Y-97599500D01*
X68981456Y-97599500D01*
X68981455Y-97599500D01*
X68901076Y-97615489D01*
X68797727Y-97636047D01*
X68797720Y-97636047D01*
X68788161Y-97637948D01*
X68606088Y-97713365D01*
X68606087Y-97713365D01*
X68442220Y-97822858D01*
X68302858Y-97962220D01*
X68193365Y-98126087D01*
X68193365Y-98126088D01*
X68117950Y-98308158D01*
X68117950Y-98308159D01*
X68117949Y-98308161D01*
X68117949Y-98308163D01*
X68117949Y-98308165D01*
X68108272Y-98356812D01*
X68082951Y-98484109D01*
X68079500Y-98501456D01*
X64999989Y-98501456D01*
X64961570Y-98308311D01*
X64961570Y-98308309D01*
X64961569Y-98308307D01*
X64961569Y-98308305D01*
X64917122Y-98201000D01*
X64886191Y-98126326D01*
X64886185Y-98126314D01*
X64776750Y-97962537D01*
X64776747Y-97962533D01*
X64637466Y-97823252D01*
X64637462Y-97823249D01*
X64473685Y-97713814D01*
X64473682Y-97713812D01*
X64473680Y-97713811D01*
X64473675Y-97713808D01*
X64291690Y-97638429D01*
X64291689Y-97638429D01*
X64125000Y-97605272D01*
X64125000Y-98201000D01*
X64106093Y-98259191D01*
X64056593Y-98295155D01*
X64026000Y-98300000D01*
X63974000Y-98300000D01*
X63915809Y-98281093D01*
X63879845Y-98231593D01*
X63875000Y-98201000D01*
X63875000Y-97605271D01*
X63717873Y-97636527D01*
X63717867Y-97636527D01*
X63708309Y-97638428D01*
X63526318Y-97713811D01*
X63362535Y-97823250D01*
X63223250Y-97962535D01*
X63113811Y-98126318D01*
X63038430Y-98308305D01*
X63038429Y-98308311D01*
X63000000Y-98501503D01*
X59900500Y-98501503D01*
X59900500Y-98501459D01*
X59862051Y-98308165D01*
X59786632Y-98126086D01*
X59677139Y-97962218D01*
X59537782Y-97822861D01*
X59428288Y-97749699D01*
X59373913Y-97713367D01*
X59373911Y-97713366D01*
X59191836Y-97637949D01*
X59191835Y-97637949D01*
X59127404Y-97625132D01*
X58998545Y-97599500D01*
X58998543Y-97599500D01*
X58998541Y-97599500D01*
X58801459Y-97599500D01*
X58801456Y-97599500D01*
X58801455Y-97599500D01*
X58721076Y-97615489D01*
X58617727Y-97636047D01*
X58617720Y-97636047D01*
X58608161Y-97637948D01*
X58426088Y-97713365D01*
X58426087Y-97713365D01*
X58262220Y-97822858D01*
X58122858Y-97962220D01*
X58013365Y-98126087D01*
X58013365Y-98126088D01*
X57937950Y-98308158D01*
X57937950Y-98308159D01*
X57937949Y-98308161D01*
X57937949Y-98308163D01*
X57937949Y-98308165D01*
X57928272Y-98356812D01*
X57902951Y-98484109D01*
X57899500Y-98501456D01*
X57200500Y-98501456D01*
X57200500Y-97760438D01*
X57180021Y-97684011D01*
X57140460Y-97615489D01*
X57084511Y-97559540D01*
X57084508Y-97559538D01*
X57084504Y-97559535D01*
X57084500Y-97559533D01*
X57015994Y-97519981D01*
X57015993Y-97519980D01*
X57015992Y-97519980D01*
X57015988Y-97519978D01*
X56999829Y-97515648D01*
X56939566Y-97499500D01*
X56939564Y-97499500D01*
X56939562Y-97499500D01*
X55439562Y-97499500D01*
X55360438Y-97499500D01*
X55360435Y-97499500D01*
X55360432Y-97499500D01*
X55284018Y-97519976D01*
X55284011Y-97519978D01*
X55284007Y-97519980D01*
X55265649Y-97530579D01*
X55215492Y-97559537D01*
X55159537Y-97615492D01*
X55119979Y-97684009D01*
X55119976Y-97684018D01*
X55099500Y-97760432D01*
X50300500Y-97760432D01*
X50300500Y-94239534D01*
X51175130Y-94239534D01*
X51175130Y-94509202D01*
X51205313Y-94777071D01*
X51205315Y-94777086D01*
X51205318Y-94777104D01*
X51264985Y-95038520D01*
X51265314Y-95039963D01*
X51265314Y-95039964D01*
X51265313Y-95039964D01*
X51354103Y-95293706D01*
X51354328Y-95294365D01*
X51354361Y-95294446D01*
X51471336Y-95537349D01*
X51471342Y-95537361D01*
X51572163Y-95697815D01*
X51614792Y-95765659D01*
X51782896Y-95976455D01*
X51973545Y-96167104D01*
X52184341Y-96335208D01*
X52298487Y-96406931D01*
X52412636Y-96478656D01*
X52495298Y-96518463D01*
X52639428Y-96587872D01*
X52655552Y-96595637D01*
X52774350Y-96637206D01*
X52900582Y-96681376D01*
X52902157Y-96681928D01*
X52906530Y-96683884D01*
X52910029Y-96684682D01*
X52910036Y-96684685D01*
X52910039Y-96684685D01*
X52910040Y-96684686D01*
X53172899Y-96744682D01*
X53245146Y-96752822D01*
X53426935Y-96773306D01*
X53432998Y-96774870D01*
X53710440Y-96774870D01*
X53718261Y-96774870D01*
X53724318Y-96773306D01*
X53882033Y-96755535D01*
X53978363Y-96744682D01*
X54241222Y-96684686D01*
X54495710Y-96595637D01*
X54738628Y-96478654D01*
X54966921Y-96335208D01*
X55177717Y-96167104D01*
X55368366Y-95976455D01*
X55536470Y-95765659D01*
X55679916Y-95537366D01*
X55796899Y-95294448D01*
X55885948Y-95039960D01*
X55945944Y-94777101D01*
X55963849Y-94618193D01*
X55976131Y-94509194D01*
X55976132Y-94509177D01*
X55976132Y-94389770D01*
X59349500Y-94389770D01*
X59349500Y-94610228D01*
X59383983Y-94827945D01*
X59451047Y-95034354D01*
X59452122Y-95037664D01*
X59452548Y-95038520D01*
X59453983Y-95041483D01*
X59454726Y-95042752D01*
X59552178Y-95234011D01*
X59552182Y-95234018D01*
X59552183Y-95234019D01*
X59552185Y-95234022D01*
X59681758Y-95412365D01*
X59837635Y-95568242D01*
X60015978Y-95697815D01*
X60212394Y-95797895D01*
X60422049Y-95866015D01*
X60509140Y-95879809D01*
X60552685Y-95886706D01*
X60639773Y-95900500D01*
X60860225Y-95900500D01*
X60860228Y-95900500D01*
X60914655Y-95891878D01*
X60969086Y-95883257D01*
X61039941Y-95872034D01*
X61077947Y-95866016D01*
X61077947Y-95866015D01*
X61077951Y-95866015D01*
X61287606Y-95797895D01*
X61484022Y-95697815D01*
X61662365Y-95568242D01*
X61818242Y-95412365D01*
X61947815Y-95234022D01*
X62047895Y-95037606D01*
X62116015Y-94827951D01*
X62149238Y-94618193D01*
X62150500Y-94610225D01*
X62150500Y-94389774D01*
X62150499Y-94389770D01*
X65849500Y-94389770D01*
X65849500Y-94610228D01*
X65883983Y-94827945D01*
X65951047Y-95034354D01*
X65952122Y-95037664D01*
X65952548Y-95038520D01*
X65953983Y-95041483D01*
X65954726Y-95042752D01*
X66052178Y-95234011D01*
X66052182Y-95234018D01*
X66052183Y-95234019D01*
X66052185Y-95234022D01*
X66181758Y-95412365D01*
X66337635Y-95568242D01*
X66515978Y-95697815D01*
X66712394Y-95797895D01*
X66922049Y-95866015D01*
X67009140Y-95879809D01*
X67052685Y-95886706D01*
X67139773Y-95900500D01*
X67360225Y-95900500D01*
X67360228Y-95900500D01*
X67414655Y-95891878D01*
X67469086Y-95883257D01*
X67539941Y-95872034D01*
X67577947Y-95866016D01*
X67577947Y-95866015D01*
X67577951Y-95866015D01*
X67787606Y-95797895D01*
X67984022Y-95697815D01*
X68162365Y-95568242D01*
X68318242Y-95412365D01*
X68447815Y-95234022D01*
X68547895Y-95037606D01*
X68616015Y-94827951D01*
X68649238Y-94618193D01*
X68650500Y-94610225D01*
X68650500Y-94389774D01*
X68650499Y-94389770D01*
X68616015Y-94172052D01*
X68616015Y-94172050D01*
X68547897Y-93962400D01*
X68547896Y-93962399D01*
X68547895Y-93962394D01*
X68447815Y-93765978D01*
X68318242Y-93587635D01*
X68162365Y-93431758D01*
X68040728Y-93343384D01*
X67992493Y-93308339D01*
X67992486Y-93308334D01*
X67984022Y-93302185D01*
X67984021Y-93302184D01*
X67984019Y-93302183D01*
X67940419Y-93279967D01*
X67894825Y-93256735D01*
X67894825Y-93256736D01*
X67792752Y-93204727D01*
X67791473Y-93203978D01*
X67788528Y-93202552D01*
X67788513Y-93202545D01*
X67787615Y-93202110D01*
X67787606Y-93202105D01*
X67787604Y-93202104D01*
X67787226Y-93201921D01*
X67786438Y-93201646D01*
X67784359Y-93201049D01*
X67577945Y-93133983D01*
X67360228Y-93099500D01*
X67360225Y-93099500D01*
X67360222Y-93099500D01*
X67139778Y-93099500D01*
X67139775Y-93099500D01*
X67139772Y-93099500D01*
X66922053Y-93133983D01*
X66712401Y-93202101D01*
X66515980Y-93302182D01*
X66515978Y-93302184D01*
X66426805Y-93366971D01*
X66337640Y-93431753D01*
X66181753Y-93587640D01*
X66116970Y-93676804D01*
X66116971Y-93676805D01*
X66052185Y-93765976D01*
X66052182Y-93765980D01*
X65952101Y-93962401D01*
X65883983Y-94172053D01*
X65849500Y-94389770D01*
X62150499Y-94389770D01*
X62116015Y-94172052D01*
X62116015Y-94172050D01*
X62047897Y-93962400D01*
X62047896Y-93962399D01*
X62047895Y-93962394D01*
X61947815Y-93765978D01*
X61818242Y-93587635D01*
X61662365Y-93431758D01*
X61540728Y-93343384D01*
X61492493Y-93308339D01*
X61492486Y-93308334D01*
X61484022Y-93302185D01*
X61484021Y-93302184D01*
X61484019Y-93302183D01*
X61440419Y-93279967D01*
X61394825Y-93256735D01*
X61394825Y-93256736D01*
X61292752Y-93204727D01*
X61291473Y-93203978D01*
X61288528Y-93202552D01*
X61288513Y-93202545D01*
X61287615Y-93202110D01*
X61287606Y-93202105D01*
X61287604Y-93202104D01*
X61287226Y-93201921D01*
X61286438Y-93201646D01*
X61284359Y-93201049D01*
X61077945Y-93133983D01*
X60860228Y-93099500D01*
X60860225Y-93099500D01*
X60860222Y-93099500D01*
X60639778Y-93099500D01*
X60639775Y-93099500D01*
X60639772Y-93099500D01*
X60422053Y-93133983D01*
X60212401Y-93202101D01*
X60015980Y-93302182D01*
X60015978Y-93302184D01*
X59926805Y-93366971D01*
X59837640Y-93431753D01*
X59681753Y-93587640D01*
X59616970Y-93676804D01*
X59616971Y-93676805D01*
X59552185Y-93765976D01*
X59552182Y-93765980D01*
X59452101Y-93962401D01*
X59383983Y-94172053D01*
X59349500Y-94389770D01*
X55976132Y-94389770D01*
X55976132Y-94239560D01*
X55976131Y-94239543D01*
X55954084Y-94043884D01*
X55945944Y-93971637D01*
X55885948Y-93708778D01*
X55796899Y-93454290D01*
X55786046Y-93431753D01*
X55723649Y-93302184D01*
X55679918Y-93211374D01*
X55536468Y-92983077D01*
X55452783Y-92878139D01*
X55368366Y-92772283D01*
X55177717Y-92581634D01*
X54966921Y-92413530D01*
X54738626Y-92270082D01*
X54738623Y-92270080D01*
X54738611Y-92270074D01*
X54495708Y-92153099D01*
X54495627Y-92153066D01*
X54494968Y-92152841D01*
X54241226Y-92064052D01*
X53978366Y-92004056D01*
X53978348Y-92004053D01*
X53978333Y-92004051D01*
X53710464Y-91973868D01*
X53710456Y-91973868D01*
X53710440Y-91973868D01*
X53440822Y-91973868D01*
X53440805Y-91973868D01*
X53440796Y-91973868D01*
X53172927Y-92004051D01*
X53172912Y-92004053D01*
X53172894Y-92004056D01*
X52910034Y-92064052D01*
X52656292Y-92152841D01*
X52655638Y-92153064D01*
X52655552Y-92153099D01*
X52412649Y-92270074D01*
X52412637Y-92270080D01*
X52184339Y-92413530D01*
X51973547Y-92581632D01*
X51782894Y-92772285D01*
X51614792Y-92983077D01*
X51471342Y-93211375D01*
X51471336Y-93211387D01*
X51354361Y-93454290D01*
X51354326Y-93454376D01*
X51354103Y-93455030D01*
X51265314Y-93708772D01*
X51205318Y-93971632D01*
X51205315Y-93971650D01*
X51205313Y-93971665D01*
X51175130Y-94239534D01*
X50300500Y-94239534D01*
X50300500Y-84749213D01*
X85099500Y-84749213D01*
X85099500Y-85050784D01*
X85138014Y-85343326D01*
X85138014Y-85343331D01*
X85138860Y-85349762D01*
X85138861Y-85349765D01*
X85216911Y-85641050D01*
X85216915Y-85641063D01*
X85216916Y-85641067D01*
X85332310Y-85919654D01*
X85332324Y-85919681D01*
X85469497Y-86157271D01*
X85481322Y-86177752D01*
X85483102Y-86180835D01*
X85666675Y-86420073D01*
X85666677Y-86420075D01*
X85666681Y-86420080D01*
X85879920Y-86633319D01*
X85879924Y-86633322D01*
X85879926Y-86633324D01*
X85879931Y-86633328D01*
X85879961Y-86633354D01*
X85880305Y-86633614D01*
X86066519Y-86776501D01*
X86119168Y-86816900D01*
X86380332Y-86967683D01*
X86658942Y-87083087D01*
X86950232Y-87161138D01*
X87249217Y-87200500D01*
X87249218Y-87200500D01*
X87550782Y-87200500D01*
X87550783Y-87200500D01*
X87849768Y-87161138D01*
X88141058Y-87083087D01*
X88419668Y-86967683D01*
X88680832Y-86816900D01*
X88920080Y-86633319D01*
X89133319Y-86420080D01*
X89316900Y-86180832D01*
X89467683Y-85919668D01*
X89583087Y-85641058D01*
X89661138Y-85349768D01*
X89700500Y-85050783D01*
X89700500Y-84749217D01*
X89661138Y-84450232D01*
X89583087Y-84158942D01*
X89467683Y-83880332D01*
X89316900Y-83619168D01*
X89260040Y-83545066D01*
X89133324Y-83379926D01*
X89133322Y-83379924D01*
X89133319Y-83379920D01*
X88920080Y-83166681D01*
X88920075Y-83166677D01*
X88920073Y-83166675D01*
X88680835Y-82983102D01*
X88680832Y-82983100D01*
X88419668Y-82832317D01*
X88419664Y-82832315D01*
X88419660Y-82832313D01*
X88419654Y-82832310D01*
X88148870Y-82720148D01*
X88148856Y-82720143D01*
X88141063Y-82716915D01*
X88141062Y-82716914D01*
X88141058Y-82716913D01*
X87852632Y-82639629D01*
X87850433Y-82638969D01*
X87845373Y-82638148D01*
X87843329Y-82638014D01*
X87550785Y-82599500D01*
X87550784Y-82599500D01*
X87550783Y-82599500D01*
X87249217Y-82599500D01*
X87249215Y-82599500D01*
X87249214Y-82599500D01*
X86956673Y-82638014D01*
X86956663Y-82638014D01*
X86950236Y-82638860D01*
X86658934Y-82716915D01*
X86658931Y-82716916D01*
X86380343Y-82832310D01*
X86119160Y-82983104D01*
X85879929Y-83166672D01*
X85666672Y-83379929D01*
X85483104Y-83619160D01*
X85332310Y-83880343D01*
X85216916Y-84158931D01*
X85216915Y-84158934D01*
X85138860Y-84450236D01*
X85138014Y-84456668D01*
X85138014Y-84456672D01*
X85099500Y-84749213D01*
X50300500Y-84749213D01*
X50300500Y-76111705D01*
X54992646Y-76111705D01*
X54992646Y-76574585D01*
X55032608Y-77031343D01*
X55032609Y-77031356D01*
X55032985Y-77035661D01*
X55113356Y-77491467D01*
X55113858Y-77493447D01*
X55114123Y-77494330D01*
X55233146Y-77938535D01*
X55233148Y-77938541D01*
X55233149Y-77938544D01*
X55391453Y-78373483D01*
X55587066Y-78792976D01*
X55587072Y-78792988D01*
X55818700Y-79194180D01*
X55819708Y-79195555D01*
X55825634Y-79204017D01*
X55825634Y-79204018D01*
X55825636Y-79204020D01*
X56083974Y-79572967D01*
X56083977Y-79572970D01*
X56083981Y-79572975D01*
X56381468Y-79927507D01*
X56381474Y-79927513D01*
X56381478Y-79927517D01*
X56381484Y-79927524D01*
X56708768Y-80254808D01*
X56708774Y-80254813D01*
X56708776Y-80254815D01*
X57063315Y-80552309D01*
X57063320Y-80552313D01*
X57063324Y-80552316D01*
X57063340Y-80552328D01*
X57189285Y-80640515D01*
X57442464Y-80817793D01*
X57442470Y-80817797D01*
X57442476Y-80817801D01*
X57843316Y-81049226D01*
X58262800Y-81244835D01*
X58262807Y-81244837D01*
X58262808Y-81244838D01*
X58623082Y-81375967D01*
X58637046Y-81386877D01*
X58697733Y-81403138D01*
X58697736Y-81403139D01*
X58697747Y-81403142D01*
X58697746Y-81403142D01*
X58825191Y-81437290D01*
X59144815Y-81522933D01*
X59600633Y-81603306D01*
X59703097Y-81612270D01*
X60061706Y-81643646D01*
X60524578Y-81643646D01*
X60524586Y-81643646D01*
X60678270Y-81630199D01*
X60793539Y-81620114D01*
X60985659Y-81603306D01*
X61441477Y-81522933D01*
X61888556Y-81403139D01*
X62323492Y-81244835D01*
X62742976Y-81049226D01*
X63143816Y-80817801D01*
X63522960Y-80552322D01*
X63877524Y-80254808D01*
X64204808Y-79927524D01*
X64502322Y-79572960D01*
X64767801Y-79193816D01*
X64999226Y-78792976D01*
X65194835Y-78373492D01*
X65353139Y-77938556D01*
X65472933Y-77491477D01*
X65553306Y-77035659D01*
X65570114Y-76843539D01*
X65593646Y-76574586D01*
X65593646Y-76111704D01*
X65553683Y-75654941D01*
X65553682Y-75654934D01*
X65553306Y-75650637D01*
X65553306Y-75650634D01*
X65511878Y-75415686D01*
X65472933Y-75194815D01*
X65353139Y-74747736D01*
X65194835Y-74312800D01*
X64999226Y-73893316D01*
X64999218Y-73893302D01*
X64767807Y-73492486D01*
X64767793Y-73492464D01*
X64587317Y-73234718D01*
X64502959Y-73114241D01*
X64502409Y-73113435D01*
X64393129Y-72983201D01*
X64393123Y-72983194D01*
X64383689Y-72971949D01*
X64381909Y-72969828D01*
X64381908Y-72969826D01*
X64381903Y-72969820D01*
X64381902Y-72969819D01*
X64332591Y-72911052D01*
X85130000Y-72911052D01*
X85130000Y-72911055D01*
X85130000Y-73404999D01*
X85130001Y-73405000D01*
X85431000Y-73405000D01*
X85489191Y-73423907D01*
X85525155Y-73473407D01*
X85530000Y-73504000D01*
X85530000Y-73556000D01*
X85511093Y-73614191D01*
X85461593Y-73650155D01*
X85431000Y-73655000D01*
X85130001Y-73655000D01*
X85130000Y-73655001D01*
X85130000Y-73655002D01*
X85130000Y-74148946D01*
X85156901Y-74284182D01*
X85156901Y-74284184D01*
X85209663Y-74411565D01*
X85209668Y-74411575D01*
X85254720Y-74479000D01*
X85286271Y-74526220D01*
X85383779Y-74623728D01*
X85383782Y-74623730D01*
X85498423Y-74700330D01*
X85498425Y-74700331D01*
X85498428Y-74700333D01*
X85498433Y-74700335D01*
X85612916Y-74747755D01*
X85625816Y-74753098D01*
X85625819Y-74753099D01*
X85704999Y-74768848D01*
X85705000Y-74768848D01*
X85705000Y-74768847D01*
X85705000Y-74479000D01*
X85723907Y-74420809D01*
X85773407Y-74384845D01*
X85804000Y-74380000D01*
X85856000Y-74380000D01*
X85914191Y-74398907D01*
X85950155Y-74448407D01*
X85955000Y-74479000D01*
X85955000Y-74768846D01*
X85955000Y-74768848D01*
X86034180Y-74753099D01*
X86034183Y-74753098D01*
X86161571Y-74700333D01*
X86276220Y-74623728D01*
X86373728Y-74526220D01*
X86450333Y-74411571D01*
X86503098Y-74284183D01*
X86529665Y-74150622D01*
X86530000Y-74149083D01*
X86530000Y-73655002D01*
X86530000Y-73655001D01*
X86529999Y-73655000D01*
X86529998Y-73655000D01*
X86229000Y-73655000D01*
X86170809Y-73636093D01*
X86134845Y-73586593D01*
X86130000Y-73556000D01*
X86130000Y-73504000D01*
X86148907Y-73445809D01*
X86198407Y-73409845D01*
X86229000Y-73405000D01*
X86529998Y-73405000D01*
X86529999Y-73405000D01*
X86530000Y-73404999D01*
X86530000Y-73266824D01*
X86534841Y-73236245D01*
X86535338Y-73234714D01*
X86537127Y-73229206D01*
X86573083Y-73179704D01*
X86631271Y-73160788D01*
X86689464Y-73179687D01*
X86720642Y-73217170D01*
X86731104Y-73239107D01*
X86735354Y-73242553D01*
X86738026Y-73246918D01*
X86799480Y-73353359D01*
X86799481Y-73353360D01*
X86799483Y-73353362D01*
X86799485Y-73353365D01*
X86906635Y-73460515D01*
X86906637Y-73460516D01*
X86906639Y-73460518D01*
X86907186Y-73460913D01*
X86909188Y-73461990D01*
X86956203Y-73489133D01*
X86981091Y-73503503D01*
X87002685Y-73527486D01*
X87037010Y-73536067D01*
X87038612Y-73536481D01*
X87184234Y-73575500D01*
X87184236Y-73575500D01*
X87335764Y-73575500D01*
X87335766Y-73575500D01*
X87482135Y-73536281D01*
X87482137Y-73536279D01*
X87482139Y-73536279D01*
X87607225Y-73464059D01*
X87610114Y-73462657D01*
X87610904Y-73462137D01*
X87615913Y-73459043D01*
X87617212Y-73458292D01*
X87622570Y-73451309D01*
X87720515Y-73353365D01*
X87788832Y-73235037D01*
X87788835Y-73235033D01*
X87796279Y-73222139D01*
X87796279Y-73222136D01*
X87796281Y-73222135D01*
X87835500Y-73075766D01*
X87835500Y-72924234D01*
X92464500Y-72924234D01*
X92464500Y-73075766D01*
X92489244Y-73168112D01*
X92503720Y-73222139D01*
X92503721Y-73222141D01*
X92503722Y-73222144D01*
X92579479Y-73353358D01*
X92579480Y-73353359D01*
X92579481Y-73353360D01*
X92579483Y-73353362D01*
X92579485Y-73353365D01*
X92686635Y-73460515D01*
X92686637Y-73460516D01*
X92686639Y-73460518D01*
X92687186Y-73460913D01*
X92689188Y-73461990D01*
X92736203Y-73489133D01*
X92761091Y-73503503D01*
X92782685Y-73527486D01*
X92817010Y-73536067D01*
X92818612Y-73536481D01*
X92964234Y-73575500D01*
X92964236Y-73575500D01*
X93115764Y-73575500D01*
X93115766Y-73575500D01*
X93262135Y-73536281D01*
X93262137Y-73536279D01*
X93262139Y-73536279D01*
X93393360Y-73460518D01*
X93393360Y-73460517D01*
X93393365Y-73460515D01*
X93500515Y-73353365D01*
X93564638Y-73242299D01*
X93567485Y-73237670D01*
X93588129Y-73206083D01*
X93590821Y-73207842D01*
X93623451Y-73173235D01*
X93683575Y-73161891D01*
X93738885Y-73188053D01*
X93768254Y-73241730D01*
X93768284Y-73241889D01*
X93770000Y-73260244D01*
X93770000Y-73404999D01*
X93770001Y-73405000D01*
X94071000Y-73405000D01*
X94129191Y-73423907D01*
X94165155Y-73473407D01*
X94170000Y-73504000D01*
X94170000Y-73556000D01*
X94151093Y-73614191D01*
X94101593Y-73650155D01*
X94071000Y-73655000D01*
X93770001Y-73655000D01*
X93770000Y-73655001D01*
X93770000Y-73655002D01*
X93770000Y-74148946D01*
X93796901Y-74284182D01*
X93796901Y-74284184D01*
X93849663Y-74411565D01*
X93849668Y-74411575D01*
X93894720Y-74479000D01*
X93926271Y-74526220D01*
X94023779Y-74623728D01*
X94023782Y-74623730D01*
X94138423Y-74700330D01*
X94138425Y-74700331D01*
X94138428Y-74700333D01*
X94138433Y-74700335D01*
X94252916Y-74747755D01*
X94265816Y-74753098D01*
X94265819Y-74753099D01*
X94344999Y-74768848D01*
X94345000Y-74768848D01*
X94345000Y-74768847D01*
X94345000Y-74479000D01*
X94363907Y-74420809D01*
X94413407Y-74384845D01*
X94444000Y-74380000D01*
X94496000Y-74380000D01*
X94554191Y-74398907D01*
X94590155Y-74448407D01*
X94595000Y-74479000D01*
X94595000Y-74768846D01*
X94595000Y-74768848D01*
X94674180Y-74753099D01*
X94674183Y-74753098D01*
X94801571Y-74700333D01*
X94916220Y-74623728D01*
X95013728Y-74526220D01*
X95090333Y-74411571D01*
X95143098Y-74284183D01*
X95170000Y-74148943D01*
X95170000Y-73774003D01*
X96350000Y-73774003D01*
X96350000Y-73774006D01*
X96350000Y-73947499D01*
X96350001Y-73947500D01*
X96776000Y-73947500D01*
X96834191Y-73966407D01*
X96870155Y-74015907D01*
X96875000Y-74046500D01*
X96875000Y-74098500D01*
X96856093Y-74156691D01*
X96806593Y-74192655D01*
X96776000Y-74197500D01*
X96350001Y-74197500D01*
X96350000Y-74197501D01*
X96350000Y-74197502D01*
X96350000Y-74370995D01*
X96386527Y-74554626D01*
X96386527Y-74554629D01*
X96388428Y-74564189D01*
X96463811Y-74746180D01*
X96463812Y-74746182D01*
X96463814Y-74746185D01*
X96573249Y-74909962D01*
X96573252Y-74909966D01*
X96712533Y-75049247D01*
X96712537Y-75049250D01*
X96876314Y-75158685D01*
X96876318Y-75158687D01*
X96876323Y-75158690D01*
X97058294Y-75234064D01*
X97058295Y-75234064D01*
X97058309Y-75234070D01*
X97058312Y-75234071D01*
X97224999Y-75267226D01*
X97225000Y-75267226D01*
X97225000Y-75267225D01*
X97225000Y-74646500D01*
X97243907Y-74588309D01*
X97293407Y-74552345D01*
X97324000Y-74547500D01*
X97376000Y-74547500D01*
X97434191Y-74566407D01*
X97470155Y-74615907D01*
X97475000Y-74646500D01*
X97475000Y-75267225D01*
X97475000Y-75267226D01*
X97641687Y-75234071D01*
X97641690Y-75234070D01*
X97823673Y-75158691D01*
X97823685Y-75158685D01*
X97987462Y-75049250D01*
X97987466Y-75049247D01*
X98126747Y-74909966D01*
X98126750Y-74909962D01*
X98236185Y-74746185D01*
X98236191Y-74746173D01*
X98311570Y-74564190D01*
X98311570Y-74564188D01*
X98313472Y-74554629D01*
X98313472Y-74554627D01*
X98334600Y-74448407D01*
X98348789Y-74377074D01*
X98349364Y-74374904D01*
X98350000Y-74370991D01*
X98350000Y-74197502D01*
X98350000Y-74197501D01*
X98349999Y-74197500D01*
X98349998Y-74197500D01*
X97924000Y-74197500D01*
X97865809Y-74178593D01*
X97829845Y-74129093D01*
X97825000Y-74098500D01*
X97825000Y-74046500D01*
X97843907Y-73988309D01*
X97893407Y-73952345D01*
X97924000Y-73947500D01*
X98349998Y-73947500D01*
X98349999Y-73947500D01*
X98350000Y-73947499D01*
X98350000Y-73774009D01*
X98350000Y-73774007D01*
X98349364Y-73770094D01*
X98348789Y-73767924D01*
X98311570Y-73580811D01*
X98311570Y-73580809D01*
X98311569Y-73580807D01*
X98311569Y-73580805D01*
X98261744Y-73460517D01*
X98236191Y-73398826D01*
X98236185Y-73398814D01*
X98126750Y-73235037D01*
X98126747Y-73235033D01*
X97987466Y-73095752D01*
X97987462Y-73095749D01*
X97823685Y-72986314D01*
X97823682Y-72986312D01*
X97823680Y-72986311D01*
X97823675Y-72986308D01*
X97641690Y-72910929D01*
X97641689Y-72910929D01*
X97475000Y-72877772D01*
X97475000Y-73498500D01*
X97456093Y-73556691D01*
X97406593Y-73592655D01*
X97376000Y-73597500D01*
X97324000Y-73597500D01*
X97265809Y-73578593D01*
X97229845Y-73529093D01*
X97225000Y-73498500D01*
X97225000Y-72877771D01*
X97067873Y-72909027D01*
X97067867Y-72909027D01*
X97058309Y-72910928D01*
X96876318Y-72986311D01*
X96712535Y-73095750D01*
X96573250Y-73235035D01*
X96463811Y-73398818D01*
X96388430Y-73580805D01*
X96388429Y-73580811D01*
X96350000Y-73774003D01*
X95170000Y-73774003D01*
X95170000Y-73655001D01*
X95169999Y-73655000D01*
X95169998Y-73655000D01*
X94869000Y-73655000D01*
X94810809Y-73636093D01*
X94774845Y-73586593D01*
X94770000Y-73556000D01*
X94770000Y-73504000D01*
X94788907Y-73445809D01*
X94838407Y-73409845D01*
X94869000Y-73405000D01*
X95169998Y-73405000D01*
X95169999Y-73405000D01*
X95170000Y-73404999D01*
X95170000Y-72911057D01*
X95170000Y-72910915D01*
X95169662Y-72909365D01*
X95143098Y-72775816D01*
X95090333Y-72648428D01*
X95089140Y-72646643D01*
X95013730Y-72533782D01*
X95013728Y-72533779D01*
X94916220Y-72436271D01*
X94909026Y-72431464D01*
X94801575Y-72359668D01*
X94801565Y-72359663D01*
X94674183Y-72306901D01*
X94595000Y-72291150D01*
X94595000Y-72581000D01*
X94576093Y-72639191D01*
X94526593Y-72675155D01*
X94496000Y-72680000D01*
X94444000Y-72680000D01*
X94385809Y-72661093D01*
X94349845Y-72611593D01*
X94345000Y-72581000D01*
X94345000Y-72291150D01*
X94265815Y-72306901D01*
X94138433Y-72359663D01*
X94138423Y-72359668D01*
X94023782Y-72436268D01*
X93926268Y-72533782D01*
X93849668Y-72648423D01*
X93849663Y-72648433D01*
X93796901Y-72775814D01*
X93796899Y-72775822D01*
X93788559Y-72817748D01*
X93776863Y-72838653D01*
X93773812Y-72853996D01*
X93762356Y-72864585D01*
X93758730Y-72871068D01*
X93752979Y-72876394D01*
X93751412Y-72874702D01*
X93728883Y-72895529D01*
X93668121Y-72902721D01*
X93614738Y-72872825D01*
X93613012Y-72870958D01*
X93590084Y-72829380D01*
X93576280Y-72777861D01*
X93501991Y-72649189D01*
X93501991Y-72649190D01*
X93500518Y-72646639D01*
X93500516Y-72646637D01*
X93500515Y-72646635D01*
X93393365Y-72539485D01*
X93393362Y-72539483D01*
X93393360Y-72539481D01*
X93393359Y-72539480D01*
X93319426Y-72496795D01*
X93298390Y-72473432D01*
X93205347Y-72448503D01*
X93205346Y-72448502D01*
X93139768Y-72430931D01*
X93115766Y-72424500D01*
X93115765Y-72424500D01*
X92964235Y-72424500D01*
X92964234Y-72424500D01*
X92945304Y-72429572D01*
X92874652Y-72448502D01*
X92874652Y-72448503D01*
X92817860Y-72463720D01*
X92817858Y-72463720D01*
X92817854Y-72463722D01*
X92686643Y-72539477D01*
X92579477Y-72646643D01*
X92503722Y-72777854D01*
X92503720Y-72777858D01*
X92503720Y-72777860D01*
X92487222Y-72839432D01*
X92487222Y-72839433D01*
X92487221Y-72839432D01*
X92468069Y-72910915D01*
X92464500Y-72924234D01*
X87835500Y-72924234D01*
X87796281Y-72777865D01*
X87796279Y-72777861D01*
X87796279Y-72777860D01*
X87795105Y-72775826D01*
X87721991Y-72649189D01*
X87720915Y-72647190D01*
X87720518Y-72646639D01*
X87720516Y-72646637D01*
X87720515Y-72646635D01*
X87613365Y-72539485D01*
X87613362Y-72539483D01*
X87613360Y-72539481D01*
X87613359Y-72539480D01*
X87539426Y-72496795D01*
X87518390Y-72473432D01*
X87425347Y-72448503D01*
X87425346Y-72448502D01*
X87359768Y-72430931D01*
X87335766Y-72424500D01*
X87335765Y-72424500D01*
X87184235Y-72424500D01*
X87184234Y-72424500D01*
X87165304Y-72429572D01*
X87094652Y-72448502D01*
X87094652Y-72448503D01*
X87037860Y-72463720D01*
X87037858Y-72463720D01*
X87037854Y-72463722D01*
X86906643Y-72539477D01*
X86906639Y-72539481D01*
X86799481Y-72646639D01*
X86723725Y-72777854D01*
X86723717Y-72777867D01*
X86711279Y-72824287D01*
X86698250Y-72844368D01*
X86694213Y-72859462D01*
X86682078Y-72869295D01*
X86678024Y-72875546D01*
X86671936Y-72880485D01*
X86670482Y-72878693D01*
X86646678Y-72897986D01*
X86585578Y-72901213D01*
X86534250Y-72867909D01*
X86533892Y-72867467D01*
X86532649Y-72865933D01*
X86512467Y-72822917D01*
X86503099Y-72775819D01*
X86503098Y-72775816D01*
X86450333Y-72648428D01*
X86449140Y-72646643D01*
X86373730Y-72533782D01*
X86373728Y-72533779D01*
X86276220Y-72436271D01*
X86269026Y-72431464D01*
X86161575Y-72359668D01*
X86161565Y-72359663D01*
X86034183Y-72306901D01*
X85955000Y-72291150D01*
X85955000Y-72581000D01*
X85936093Y-72639191D01*
X85886593Y-72675155D01*
X85856000Y-72680000D01*
X85804000Y-72680000D01*
X85745809Y-72661093D01*
X85709845Y-72611593D01*
X85705000Y-72581000D01*
X85705000Y-72291150D01*
X85625815Y-72306901D01*
X85498433Y-72359663D01*
X85498423Y-72359668D01*
X85383782Y-72436268D01*
X85286268Y-72533782D01*
X85209668Y-72648423D01*
X85209663Y-72648433D01*
X85156901Y-72775814D01*
X85156901Y-72775816D01*
X85130000Y-72911052D01*
X64332591Y-72911052D01*
X64204820Y-72758781D01*
X64204813Y-72758774D01*
X64204808Y-72758768D01*
X63877524Y-72431484D01*
X63877517Y-72431478D01*
X63877513Y-72431474D01*
X63877507Y-72431468D01*
X63522975Y-72133981D01*
X63522970Y-72133977D01*
X63522967Y-72133974D01*
X63240152Y-71935946D01*
X63236215Y-71933189D01*
X63145566Y-71869716D01*
X63144184Y-71868703D01*
X62742988Y-71637072D01*
X62742982Y-71637069D01*
X62634470Y-71586469D01*
X62588859Y-71565200D01*
X62324737Y-71442037D01*
X62324566Y-71441955D01*
X62323491Y-71441456D01*
X61963208Y-71310324D01*
X61963183Y-71310314D01*
X61888704Y-71283183D01*
X61887775Y-71282942D01*
X61729229Y-71240461D01*
X61444330Y-71164123D01*
X61443447Y-71163858D01*
X61441467Y-71163356D01*
X60985652Y-71082984D01*
X60524586Y-71042646D01*
X60524578Y-71042646D01*
X60524571Y-71042646D01*
X60061721Y-71042646D01*
X60061714Y-71042646D01*
X60061707Y-71042646D01*
X59655396Y-71078194D01*
X59604946Y-71082608D01*
X59604934Y-71082608D01*
X59604935Y-71082609D01*
X59600629Y-71082985D01*
X59144823Y-71163356D01*
X59142843Y-71163858D01*
X59141960Y-71164123D01*
X58697755Y-71283146D01*
X58450756Y-71373046D01*
X58262808Y-71441453D01*
X57997432Y-71565200D01*
X57843302Y-71637072D01*
X57442101Y-71868705D01*
X57440710Y-71869726D01*
X57063324Y-72133974D01*
X57063320Y-72133977D01*
X57063315Y-72133981D01*
X56708788Y-72431464D01*
X56381464Y-72758788D01*
X56083981Y-73113315D01*
X56083977Y-73113320D01*
X56083974Y-73113324D01*
X55819726Y-73490710D01*
X55818705Y-73492101D01*
X55587072Y-73893302D01*
X55561800Y-73947498D01*
X55391453Y-74312808D01*
X55391450Y-74312815D01*
X55391450Y-74312816D01*
X55233146Y-74747755D01*
X55114123Y-75191960D01*
X55113858Y-75192843D01*
X55113356Y-75194823D01*
X55032985Y-75650629D01*
X55032609Y-75654935D01*
X55032608Y-75654947D01*
X54992646Y-76111705D01*
X50300500Y-76111705D01*
X50300500Y-73005302D01*
X50300562Y-73001791D01*
X50300690Y-72998211D01*
X50300874Y-72994764D01*
X50304755Y-72940504D01*
X50317041Y-72768698D01*
X50317795Y-72761694D01*
X50318797Y-72754725D01*
X50320049Y-72747786D01*
X50329192Y-72705757D01*
X50367091Y-72531529D01*
X50368827Y-72524730D01*
X50370825Y-72517926D01*
X50373038Y-72511279D01*
X50450378Y-72303925D01*
X50453077Y-72297411D01*
X50456008Y-72290994D01*
X50459169Y-72284680D01*
X50565209Y-72090481D01*
X50568799Y-72084429D01*
X50572616Y-72078490D01*
X50576640Y-72072696D01*
X50709257Y-71895541D01*
X50713659Y-71890076D01*
X50718299Y-71884720D01*
X50723074Y-71879591D01*
X50879591Y-71723074D01*
X50884720Y-71718299D01*
X50890076Y-71713659D01*
X50895541Y-71709257D01*
X51072696Y-71576640D01*
X51078490Y-71572616D01*
X51084429Y-71568799D01*
X51090481Y-71565209D01*
X51284688Y-71459164D01*
X51290994Y-71456008D01*
X51297411Y-71453077D01*
X51303925Y-71450378D01*
X51511279Y-71373038D01*
X51517926Y-71370825D01*
X51524730Y-71368827D01*
X51531529Y-71367091D01*
X51747790Y-71320048D01*
X51754725Y-71318797D01*
X51761694Y-71317795D01*
X51768698Y-71317041D01*
X51996476Y-71300751D01*
X52003538Y-71300500D01*
X52047594Y-71300500D01*
X52082923Y-71289020D01*
X52087872Y-71287554D01*
X52091244Y-71286651D01*
X52100623Y-71287144D01*
X52122018Y-71277614D01*
X52122019Y-71277615D01*
X52128052Y-71274927D01*
X52137733Y-71271212D01*
X52138125Y-71271085D01*
X52163891Y-71252364D01*
X52184511Y-71240460D01*
X52195760Y-71229210D01*
X52215134Y-71215135D01*
X52229210Y-71195760D01*
X52240460Y-71184511D01*
X52252364Y-71163891D01*
X52271085Y-71138125D01*
X52276033Y-71122896D01*
X52280021Y-71115989D01*
X52288222Y-71085381D01*
X52300500Y-71047595D01*
X52300500Y-70952406D01*
X52300500Y-70952405D01*
X52300500Y-69394243D01*
X52302529Y-69354332D01*
X52290244Y-69308770D01*
X52280021Y-69270616D01*
X52278727Y-69265786D01*
X52278727Y-69265785D01*
X52278723Y-69265772D01*
X52278507Y-69264967D01*
X52278306Y-69264304D01*
X52277800Y-69262541D01*
X52277748Y-69262426D01*
X52277748Y-69262423D01*
X52257646Y-69231574D01*
X52257646Y-69231573D01*
X52257624Y-69231540D01*
X52254844Y-69227010D01*
X52253682Y-69224998D01*
X52240460Y-69202094D01*
X52240455Y-69202089D01*
X52236509Y-69196946D01*
X52236544Y-69196919D01*
X52229008Y-69187626D01*
X52225781Y-69182674D01*
X52206134Y-69166814D01*
X52204470Y-69165441D01*
X52203426Y-69164560D01*
X52197272Y-69158906D01*
X52184511Y-69146145D01*
X52184508Y-69146143D01*
X52179363Y-69142195D01*
X52179435Y-69142100D01*
X52176596Y-69140146D01*
X52170117Y-69134886D01*
X52169830Y-69134444D01*
X52164673Y-69130126D01*
X52117207Y-69085463D01*
X52019204Y-68993246D01*
X52013936Y-68987897D01*
X52008893Y-68982373D01*
X52004045Y-68976641D01*
X51991049Y-68960036D01*
X51867526Y-68802207D01*
X51863123Y-68796119D01*
X51858963Y-68789881D01*
X51855039Y-68783484D01*
X51811208Y-68705550D01*
X51746461Y-68590426D01*
X51743036Y-68583756D01*
X51742685Y-68583004D01*
X51739856Y-68576939D01*
X51736955Y-68570048D01*
X51658799Y-68362779D01*
X51656425Y-68355679D01*
X51654312Y-68348461D01*
X51652480Y-68341189D01*
X51606550Y-68124470D01*
X51605278Y-68117105D01*
X51604283Y-68109664D01*
X51603573Y-68102219D01*
X51590929Y-67881032D01*
X51590787Y-67873534D01*
X51590928Y-67866048D01*
X51591353Y-67858558D01*
X51593789Y-67832895D01*
X51612285Y-67638021D01*
X51613273Y-67630615D01*
X51614554Y-67623177D01*
X51616097Y-67615889D01*
X51670128Y-67401038D01*
X51672220Y-67393878D01*
X51674608Y-67386726D01*
X51677243Y-67379731D01*
X51763134Y-67175510D01*
X51766287Y-67168743D01*
X51769710Y-67162071D01*
X51773376Y-67155546D01*
X51889167Y-66966620D01*
X51893306Y-66960411D01*
X51897697Y-66954335D01*
X51902297Y-66948453D01*
X52045298Y-66779226D01*
X52050332Y-66773707D01*
X52055599Y-66768356D01*
X52061047Y-66763225D01*
X52227984Y-66617559D01*
X52233803Y-66612858D01*
X52239837Y-66608351D01*
X52245956Y-66604132D01*
X52433020Y-66485357D01*
X52439455Y-66481606D01*
X52446098Y-66478064D01*
X52452818Y-66474803D01*
X52655661Y-66385679D01*
X52662609Y-66382936D01*
X52669694Y-66380444D01*
X52676839Y-66378234D01*
X52890796Y-66320803D01*
X52898093Y-66319138D01*
X52905472Y-66317747D01*
X52912874Y-66316640D01*
X53133044Y-66292212D01*
X53140520Y-66291669D01*
X53145559Y-66291494D01*
X53148016Y-66291409D01*
X53155503Y-66291432D01*
G37*
%TD.AperFunction*%
%TD*%
M02*
