%TF.GenerationSoftware,KiCad,Pcbnew,10.0.0*%
%TF.CreationDate,2026-05-11T23:15:42+02:00*%
%TF.ProjectId,malibotti_stepper_pcb,6d616c69-626f-4747-9469-5f7374657070,rev?*%
%TF.SameCoordinates,Original*%
%TF.FileFunction,Soldermask,Bot*%
%TF.FilePolarity,Negative*%
%FSLAX46Y46*%
G04 Gerber Fmt 4.6, Leading zero omitted, Abs format (unit mm)*
G04 Created by KiCad (PCBNEW 10.0.0) date 2026-05-11 23:15:42*
%MOMM*%
%LPD*%
G01*
G04 APERTURE LIST*
G04 Aperture macros list*
%AMRoundRect*
0 Rectangle with rounded corners*
0 $1 Rounding radius*
0 $2 $3 $4 $5 $6 $7 $8 $9 X,Y pos of 4 corners*
0 Add a 4 corners polygon primitive as box body*
4,1,4,$2,$3,$4,$5,$6,$7,$8,$9,$2,$3,0*
0 Add four circle primitives for the rounded corners*
1,1,$1+$1,$2,$3*
1,1,$1+$1,$4,$5*
1,1,$1+$1,$6,$7*
1,1,$1+$1,$8,$9*
0 Add four rect primitives between the rounded corners*
20,1,$1+$1,$2,$3,$4,$5,0*
20,1,$1+$1,$4,$5,$6,$7,0*
20,1,$1+$1,$6,$7,$8,$9,0*
20,1,$1+$1,$8,$9,$2,$3,0*%
%AMFreePoly0*
4,1,6,0.725000,-0.725000,-0.125000,-0.725000,-0.725000,-0.125000,-0.725000,0.725000,0.725000,0.725000,0.725000,-0.725000,0.725000,-0.725000,$1*%
G04 Aperture macros list end*
%ADD10O,1.600000X2.000000*%
%ADD11C,1.000000*%
%ADD12RoundRect,0.082000X-0.328000X-0.618000X0.328000X-0.618000X0.328000X0.618000X-0.328000X0.618000X0*%
%ADD13RoundRect,0.140000X-0.170000X0.140000X-0.170000X-0.140000X0.170000X-0.140000X0.170000X0.140000X0*%
%ADD14RoundRect,0.140000X0.140000X0.170000X-0.140000X0.170000X-0.140000X-0.170000X0.140000X-0.170000X0*%
%ADD15RoundRect,0.250000X-0.450000X0.350000X-0.450000X-0.350000X0.450000X-0.350000X0.450000X0.350000X0*%
%ADD16RoundRect,0.135000X0.185000X-0.135000X0.185000X0.135000X-0.185000X0.135000X-0.185000X-0.135000X0*%
%ADD17RoundRect,0.062500X-0.062500X0.325000X-0.062500X-0.325000X0.062500X-0.325000X0.062500X0.325000X0*%
%ADD18RoundRect,0.062500X-0.325000X0.062500X-0.325000X-0.062500X0.325000X-0.062500X0.325000X0.062500X0*%
%ADD19R,1.800000X1.800000*%
%ADD20RoundRect,0.180000X2.570000X-0.420000X2.570000X0.420000X-2.570000X0.420000X-2.570000X-0.420000X0*%
%ADD21RoundRect,0.225000X1.275000X-0.525000X1.275000X0.525000X-1.275000X0.525000X-1.275000X-0.525000X0*%
%ADD22RoundRect,0.250000X0.250000X0.475000X-0.250000X0.475000X-0.250000X-0.475000X0.250000X-0.475000X0*%
%ADD23RoundRect,0.250000X-0.250000X-0.475000X0.250000X-0.475000X0.250000X0.475000X-0.250000X0.475000X0*%
%ADD24RoundRect,0.150000X-0.512500X-0.150000X0.512500X-0.150000X0.512500X0.150000X-0.512500X0.150000X0*%
%ADD25RoundRect,0.140000X-0.140000X-0.170000X0.140000X-0.170000X0.140000X0.170000X-0.140000X0.170000X0*%
%ADD26RoundRect,0.135000X-0.135000X-0.185000X0.135000X-0.185000X0.135000X0.185000X-0.135000X0.185000X0*%
%ADD27RoundRect,0.180000X-2.570000X0.420000X-2.570000X-0.420000X2.570000X-0.420000X2.570000X0.420000X0*%
%ADD28RoundRect,0.225000X-1.275000X0.525000X-1.275000X-0.525000X1.275000X-0.525000X1.275000X0.525000X0*%
%ADD29RoundRect,0.135000X0.135000X0.185000X-0.135000X0.185000X-0.135000X-0.185000X0.135000X-0.185000X0*%
%ADD30RoundRect,0.135000X-0.185000X0.135000X-0.185000X-0.135000X0.185000X-0.135000X0.185000X0.135000X0*%
%ADD31RoundRect,0.250000X0.650000X-0.950000X0.650000X0.950000X-0.650000X0.950000X-0.650000X-0.950000X0*%
%ADD32RoundRect,0.250000X0.450000X-0.350000X0.450000X0.350000X-0.450000X0.350000X-0.450000X-0.350000X0*%
%ADD33R,1.000000X2.510000*%
%ADD34RoundRect,0.220000X0.330000X-0.780000X0.330000X0.780000X-0.330000X0.780000X-0.330000X-0.780000X0*%
%ADD35RoundRect,0.250000X-0.350000X-0.450000X0.350000X-0.450000X0.350000X0.450000X-0.350000X0.450000X0*%
%ADD36RoundRect,0.140000X0.170000X-0.140000X0.170000X0.140000X-0.170000X0.140000X-0.170000X-0.140000X0*%
%ADD37RoundRect,0.062500X0.062500X-0.325000X0.062500X0.325000X-0.062500X0.325000X-0.062500X-0.325000X0*%
%ADD38RoundRect,0.062500X0.325000X-0.062500X0.325000X0.062500X-0.325000X0.062500X-0.325000X-0.062500X0*%
%ADD39R,0.800000X0.400000*%
%ADD40R,0.400000X0.800000*%
%ADD41R,1.450000X1.450000*%
%ADD42FreePoly0,0.000000*%
%ADD43R,0.700000X0.700000*%
%ADD44RoundRect,0.225000X0.225000X0.250000X-0.225000X0.250000X-0.225000X-0.250000X0.225000X-0.250000X0*%
%ADD45RoundRect,0.225000X-0.225000X-0.250000X0.225000X-0.250000X0.225000X0.250000X-0.225000X0.250000X0*%
%ADD46C,0.650000*%
%ADD47RoundRect,0.150000X-0.150000X-0.575000X0.150000X-0.575000X0.150000X0.575000X-0.150000X0.575000X0*%
%ADD48RoundRect,0.075000X-0.075000X-0.650000X0.075000X-0.650000X0.075000X0.650000X-0.075000X0.650000X0*%
%ADD49O,1.000000X1.600000*%
%ADD50O,1.000000X2.100000*%
G04 APERTURE END LIST*
D10*
%TO.C,SW2*%
X69080000Y-98800000D03*
X64000000Y-98800000D03*
X58900000Y-98800000D03*
%TD*%
%TO.C,J6*%
X117450000Y-74072500D03*
X114950000Y-74072500D03*
X112450000Y-74072500D03*
X109950000Y-74072500D03*
%TD*%
%TO.C,SW3*%
X69100000Y-101200000D03*
X64000000Y-101200000D03*
X58920000Y-101200000D03*
%TD*%
D11*
%TO.C,TP1*%
X98700000Y-94950000D03*
%TD*%
D10*
%TO.C,J4*%
X104850000Y-74072500D03*
X102350000Y-74072500D03*
X99850000Y-74072500D03*
X97350000Y-74072500D03*
%TD*%
D12*
%TO.C,D21*%
X80500000Y-97300000D03*
X79000000Y-97300000D03*
X79000000Y-102700000D03*
X80500000Y-102700000D03*
%TD*%
D13*
%TO.C,C15*%
X89300000Y-113420000D03*
X89300000Y-114380000D03*
%TD*%
D14*
%TO.C,C10*%
X98580000Y-92900000D03*
X97620000Y-92900000D03*
%TD*%
%TO.C,C3*%
X80330000Y-95550000D03*
X79370000Y-95550000D03*
%TD*%
D15*
%TO.C,R2*%
X95850000Y-82550000D03*
X95850000Y-84550000D03*
%TD*%
D16*
%TO.C,R23*%
X88350000Y-113460000D03*
X88350000Y-112440000D03*
%TD*%
D17*
%TO.C,U4*%
X87700000Y-108262500D03*
X88200000Y-108262500D03*
X88700000Y-108262500D03*
X89200000Y-108262500D03*
D18*
X89937500Y-109000000D03*
X89937500Y-109500000D03*
X89937500Y-110000000D03*
X89937500Y-110500000D03*
D17*
X89200000Y-111237500D03*
X88700000Y-111237500D03*
X88200000Y-111237500D03*
X87700000Y-111237500D03*
D18*
X86962500Y-110500000D03*
X86962500Y-110000000D03*
X86962500Y-109500000D03*
X86962500Y-109000000D03*
D19*
X88450000Y-109750000D03*
%TD*%
D20*
%TO.C,J1*%
X87750000Y-104050000D03*
X87750000Y-101550000D03*
X87750000Y-99050000D03*
X87750000Y-96550000D03*
X87750000Y-94050000D03*
D21*
X84000000Y-107150000D03*
X84000000Y-90950000D03*
%TD*%
D22*
%TO.C,C17*%
X93250000Y-98150000D03*
X91350000Y-98150000D03*
%TD*%
D23*
%TO.C,C2*%
X109750000Y-69850000D03*
X111650000Y-69850000D03*
%TD*%
D13*
%TO.C,C14*%
X85500000Y-112770000D03*
X85500000Y-113730000D03*
%TD*%
D24*
%TO.C,U2*%
X106762500Y-73450000D03*
X106762500Y-71550000D03*
X109037500Y-72500000D03*
%TD*%
D25*
%TO.C,C1*%
X109470000Y-71350000D03*
X110430000Y-71350000D03*
%TD*%
%TO.C,C9*%
X98770000Y-98400000D03*
X99730000Y-98400000D03*
%TD*%
D26*
%TO.C,R14*%
X98740000Y-96500000D03*
X99760000Y-96500000D03*
%TD*%
D22*
%TO.C,C12*%
X87750000Y-127150000D03*
X85850000Y-127150000D03*
%TD*%
D16*
%TO.C,R19*%
X86450000Y-113460000D03*
X86450000Y-112440000D03*
%TD*%
D27*
%TO.C,J2*%
X97100000Y-103200000D03*
X97100000Y-105700000D03*
X97100000Y-108200000D03*
X97100000Y-110700000D03*
X97100000Y-113200000D03*
D28*
X100850000Y-100100000D03*
X100850000Y-116300000D03*
%TD*%
D29*
%TO.C,R16*%
X85510000Y-111850000D03*
X84490000Y-111850000D03*
%TD*%
D30*
%TO.C,R22*%
X95700000Y-94740000D03*
X95700000Y-95760000D03*
%TD*%
D31*
%TO.C,BZ1*%
X98025000Y-77775000D03*
X104175000Y-77775000D03*
X98025000Y-84525000D03*
X104175000Y-84525000D03*
%TD*%
D32*
%TO.C,R5*%
X92350000Y-96050000D03*
X92350000Y-94050000D03*
%TD*%
D30*
%TO.C,R9*%
X90400000Y-76090000D03*
X90400000Y-77110000D03*
%TD*%
D33*
%TO.C,J3*%
X98140000Y-90555000D03*
X95600000Y-87245000D03*
X93060000Y-90555000D03*
%TD*%
D34*
%TO.C,SW1*%
X86550000Y-125100000D03*
X86550000Y-116600000D03*
X82050000Y-125100000D03*
X82050000Y-116600000D03*
%TD*%
D16*
%TO.C,R17*%
X90250000Y-115010000D03*
X90250000Y-113990000D03*
%TD*%
D35*
%TO.C,R20*%
X91100000Y-106650000D03*
X93100000Y-106650000D03*
%TD*%
D16*
%TO.C,R3*%
X104250000Y-72210000D03*
X104250000Y-71190000D03*
%TD*%
D36*
%TO.C,C7*%
X96700000Y-93830000D03*
X96700000Y-92870000D03*
%TD*%
%TO.C,C8*%
X93800000Y-94530000D03*
X93800000Y-93570000D03*
%TD*%
D30*
%TO.C,R10*%
X97650000Y-94740000D03*
X97650000Y-95760000D03*
%TD*%
D37*
%TO.C,U3*%
X96900000Y-100287500D03*
X96400000Y-100287500D03*
X95900000Y-100287500D03*
X95400000Y-100287500D03*
D38*
X94662500Y-99550000D03*
X94662500Y-99050000D03*
X94662500Y-98550000D03*
X94662500Y-98050000D03*
D37*
X95400000Y-97312500D03*
X95900000Y-97312500D03*
X96400000Y-97312500D03*
X96900000Y-97312500D03*
D38*
X97637500Y-98050000D03*
X97637500Y-98550000D03*
X97637500Y-99050000D03*
X97637500Y-99550000D03*
D19*
X96150000Y-98800000D03*
%TD*%
D39*
%TO.C,U1*%
X89450000Y-127350000D03*
X89450000Y-126550000D03*
X89450000Y-125750000D03*
X89450000Y-124950000D03*
X89450000Y-124150000D03*
X89450000Y-123350000D03*
X89450000Y-122550000D03*
X89450000Y-121750000D03*
X89450000Y-120950000D03*
X89450000Y-120150000D03*
X89450000Y-119350000D03*
D40*
X90550000Y-118450000D03*
X91350000Y-118450000D03*
X92150000Y-118450000D03*
X92950000Y-118450000D03*
X93750000Y-118450000D03*
X94550000Y-118450000D03*
X95350000Y-118450000D03*
X96150000Y-118450000D03*
X96950000Y-118450000D03*
X97750000Y-118450000D03*
X98550000Y-118450000D03*
X99350000Y-118450000D03*
X100150000Y-118450000D03*
D39*
X101250000Y-119350000D03*
X101250000Y-120150000D03*
X101250000Y-120950000D03*
X101250000Y-121750000D03*
X101250000Y-122550000D03*
X101250000Y-123350000D03*
X101250000Y-124150000D03*
X101250000Y-124950000D03*
X101250000Y-125750000D03*
X101250000Y-126550000D03*
X101250000Y-127350000D03*
D40*
X100150000Y-128250000D03*
X99350000Y-128250000D03*
X98550000Y-128250000D03*
X97750000Y-128250000D03*
X96950000Y-128250000D03*
X96150000Y-128250000D03*
X95350000Y-128250000D03*
X94550000Y-128250000D03*
X93750000Y-128250000D03*
X92950000Y-128250000D03*
X92150000Y-128250000D03*
X91350000Y-128250000D03*
X90550000Y-128250000D03*
D41*
X93375000Y-121375000D03*
X93375000Y-123350000D03*
D42*
X93375000Y-125325000D03*
D41*
X95350000Y-121375000D03*
X95350000Y-123350000D03*
X95350000Y-125325000D03*
X97325000Y-121375000D03*
X97325000Y-123350000D03*
X97325000Y-125325000D03*
D43*
X101300000Y-128300000D03*
X101300000Y-118400000D03*
X89400000Y-118400000D03*
X89400000Y-128300000D03*
%TD*%
D34*
%TO.C,SW8*%
X89650000Y-89150000D03*
X89650000Y-80650000D03*
X85150000Y-89150000D03*
X85150000Y-80650000D03*
%TD*%
D30*
%TO.C,R8*%
X91400000Y-76090000D03*
X91400000Y-77110000D03*
%TD*%
D15*
%TO.C,R6*%
X92100000Y-101750000D03*
X92100000Y-103750000D03*
%TD*%
D44*
%TO.C,C18*%
X93275000Y-99900000D03*
X91725000Y-99900000D03*
%TD*%
D45*
%TO.C,C6*%
X91325000Y-108600000D03*
X92875000Y-108600000D03*
%TD*%
D13*
%TO.C,C4*%
X105250000Y-71220000D03*
X105250000Y-72180000D03*
%TD*%
D30*
%TO.C,R25*%
X88350000Y-114340000D03*
X88350000Y-115360000D03*
%TD*%
D29*
%TO.C,R15*%
X85510000Y-110850000D03*
X84490000Y-110850000D03*
%TD*%
D23*
%TO.C,C5*%
X91350000Y-110350000D03*
X93250000Y-110350000D03*
%TD*%
D30*
%TO.C,R7*%
X92900000Y-76090000D03*
X92900000Y-77110000D03*
%TD*%
D16*
%TO.C,R18*%
X87400000Y-113460000D03*
X87400000Y-112440000D03*
%TD*%
D15*
%TO.C,R21*%
X91700000Y-112400000D03*
X91700000Y-114400000D03*
%TD*%
D26*
%TO.C,R13*%
X98740000Y-97450000D03*
X99760000Y-97450000D03*
%TD*%
D46*
%TO.C,J5*%
X87260000Y-73000000D03*
X93040000Y-73000000D03*
D47*
X86900000Y-74445000D03*
X87700000Y-74445000D03*
D48*
X88900000Y-74445000D03*
X89900000Y-74445000D03*
X90400000Y-74445000D03*
X91400000Y-74445000D03*
D47*
X92600000Y-74445000D03*
X93400000Y-74445000D03*
X93400000Y-74445000D03*
X92600000Y-74445000D03*
D48*
X91900000Y-74445000D03*
X90900000Y-74445000D03*
X89400000Y-74445000D03*
X88400000Y-74445000D03*
D47*
X87700000Y-74445000D03*
X86900000Y-74445000D03*
D49*
X85830000Y-69350000D03*
D50*
X85830000Y-73530000D03*
D49*
X94470000Y-69350000D03*
D50*
X94470000Y-73530000D03*
%TD*%
D30*
%TO.C,R24*%
X95700000Y-92840000D03*
X95700000Y-93860000D03*
%TD*%
D14*
%TO.C,C16*%
X87430000Y-114350000D03*
X86470000Y-114350000D03*
%TD*%
D36*
%TO.C,C11*%
X88050000Y-125430000D03*
X88050000Y-124470000D03*
%TD*%
D16*
%TO.C,R4*%
X102500000Y-72210000D03*
X102500000Y-71190000D03*
%TD*%
D30*
%TO.C,R12*%
X94750000Y-93540000D03*
X94750000Y-94560000D03*
%TD*%
%TO.C,R1*%
X88900000Y-76090000D03*
X88900000Y-77110000D03*
%TD*%
D36*
%TO.C,C13*%
X84550000Y-114780000D03*
X84550000Y-113820000D03*
%TD*%
D30*
%TO.C,R11*%
X96700000Y-94740000D03*
X96700000Y-95760000D03*
%TD*%
M02*
