M48
; DRILL file {KiCad 9.0.4} date 2025-12-19T12:52:20+0100
; FORMAT={-:-/ absolute / inch / decimal}
; #@! TF.CreationDate,2025-12-19T12:52:20+01:00
; #@! TF.GenerationSoftware,Kicad,Pcbnew,9.0.4
; #@! TF.FileFunction,Plated,1,2,PTH
FMAT,2
INCH
; #@! TA.AperFunction,Plated,PTH,ViaDrill
T1C0.0118
; #@! TA.AperFunction,Plated,PTH,ViaDrill
T2C0.0236
; #@! TA.AperFunction,Plated,PTH,ComponentDrill
T3C0.0394
%
G90
G05
T1
X4.0236Y-3.6181
X4.0236Y-4.2638
X4.0394Y-3.1929
X4.0551Y-2.937
X4.0551Y-4.6299
X4.063Y-4.8583
X4.1063Y-4.1496
X4.1732Y-3.9134
X4.252Y-3.9567
X4.4843Y-4.1614
X4.5157Y-2.9055
X4.5197Y-4.815
X4.5315Y-3.811
X4.5315Y-4.0236
X4.5354Y-3.0984
X4.6063Y-4.1575
X4.6339Y-4.7598
X4.7323Y-4.7283
X4.7441Y-3.0748
X4.7913Y-2.9094
X4.815Y-3.9449
X4.8228Y-4.9055
X4.8307Y-4.8465
X4.874Y-4.878
X5.0866Y-3.5276
X5.1142Y-4.5669
X5.1535Y-3.2598
X5.1732Y-3.8346
X5.1732Y-3.8976
X5.1811Y-3.0709
X5.1811Y-4.874
X5.185Y-4.0945
X5.189Y-4.5945
X5.248Y-3.7205
X5.252Y-3.626
X5.4016Y-2.9449
X5.4606Y-3.3937
X5.4882Y-3.2087
X5.5276Y-4.6535
X5.5354Y-4.563
X5.5669Y-4.748
X5.5709Y-3.5787
X5.5709Y-3.7795
X5.5866Y-4.8976
X5.6181Y-2.9528
X5.6614Y-3.4173
X5.6732Y-4.6299
X5.6732Y-4.937
X5.6772Y-3.5433
X5.685Y-3.6496
X5.7087Y-3.9291
X5.7087Y-4.2047
X5.7126Y-4.1339
X5.7165Y-4.3307
X5.7165Y-4.5433
X5.7874Y-4.4803
X5.8071Y-4.6339
X5.815Y-4.8189
X5.8701Y-3.6063
X5.8701Y-4.1181
X5.8701Y-4.189
X5.9094Y-4.0236
X5.9331Y-3.9449
X5.9528Y-3.6417
X6.0079Y-3.1102
X6.122Y-4.9646
X6.1417Y-3.9646
X6.2283Y-4.2047
X6.3307Y-3.5787
X6.3465Y-4.5039
X6.4055Y-2.9843
X6.4724Y-4.878
X6.4843Y-3.2677
X6.4882Y-3.7874
X6.5118Y-3.9764
X6.7008Y-4.4764
X6.7244Y-4.2559
X6.7835Y-3.6181
X6.8543Y-4.0709
X6.8976Y-3.7362
X6.9646Y-4.2953
X7.0551Y-3.374
X7.1496Y-3.9764
X7.2402Y-4.311
X7.248Y-3.6772
X7.3504Y-4.4409
X7.3701Y-3.4291
X7.4055Y-4.1654
X7.4173Y-4.311
X7.5787Y-4.5157
X7.5827Y-3.8819
X7.6299Y-4.3425
X7.6339Y-4.1575
X7.6417Y-3.3976
X7.7047Y-3.8425
X7.7598Y-4.4213
X7.7638Y-3.6575
T2
X4.5354Y-3.9488
X5.3228Y-4.0118
X5.5236Y-4.0118
X5.8661Y-4.9567
T3
X4.0177Y-3.7874
X4.0177Y-3.8874
X4.0177Y-3.9874
X4.0177Y-4.0874
X5.1004Y-3.7874
X5.1004Y-3.8874
X5.1004Y-3.9874
X5.1004Y-4.0874
X6.7136Y-3.7866
X6.7136Y-3.8866
X6.7136Y-3.9866
X6.7136Y-4.0866
X7.7963Y-3.7866
X7.7963Y-3.8866
X7.7963Y-3.9866
X7.7963Y-4.0866
M30
