%TF.GenerationSoftware,KiCad,Pcbnew,9.0.4*%
%TF.CreationDate,2025-12-19T12:52:20+01:00*%
%TF.ProjectId,malibotti,6d616c69-626f-4747-9469-2e6b69636164,rev?*%
%TF.SameCoordinates,Original*%
%TF.FileFunction,Copper,L2,Bot*%
%TF.FilePolarity,Positive*%
%FSLAX46Y46*%
G04 Gerber Fmt 4.6, Leading zero omitted, Abs format (unit mm)*
G04 Created by KiCad (PCBNEW 9.0.4) date 2025-12-19 12:52:20*
%MOMM*%
%LPD*%
G01*
G04 APERTURE LIST*
G04 Aperture macros list*
%AMRoundRect*
0 Rectangle with rounded corners*
0 $1 Rounding radius*
0 $2 $3 $4 $5 $6 $7 $8 $9 X,Y pos of 4 corners*
0 Add a 4 corners polygon primitive as box body*
4,1,4,$2,$3,$4,$5,$6,$7,$8,$9,$2,$3,0*
0 Add four circle primitives for the rounded corners*
1,1,$1+$1,$2,$3*
1,1,$1+$1,$4,$5*
1,1,$1+$1,$6,$7*
1,1,$1+$1,$8,$9*
0 Add four rect primitives between the rounded corners*
20,1,$1+$1,$2,$3,$4,$5,0*
20,1,$1+$1,$4,$5,$6,$7,0*
20,1,$1+$1,$6,$7,$8,$9,0*
20,1,$1+$1,$8,$9,$2,$3,0*%
G04 Aperture macros list end*
%TA.AperFunction,ComponentPad*%
%ADD10R,1.700000X1.700000*%
%TD*%
%TA.AperFunction,ComponentPad*%
%ADD11C,1.700000*%
%TD*%
%TA.AperFunction,SMDPad,CuDef*%
%ADD12RoundRect,0.250000X0.650000X-0.950000X0.650000X0.950000X-0.650000X0.950000X-0.650000X-0.950000X0*%
%TD*%
%TA.AperFunction,SMDPad,CuDef*%
%ADD13R,1.008000X4.892000*%
%TD*%
%TA.AperFunction,SMDPad,CuDef*%
%ADD14R,1.000000X4.892000*%
%TD*%
%TA.AperFunction,SMDPad,CuDef*%
%ADD15R,1.500000X1.500000*%
%TD*%
%TA.AperFunction,SMDPad,CuDef*%
%ADD16RoundRect,0.250000X0.650000X-0.412500X0.650000X0.412500X-0.650000X0.412500X-0.650000X-0.412500X0*%
%TD*%
%TA.AperFunction,SMDPad,CuDef*%
%ADD17R,4.130000X1.008000*%
%TD*%
%TA.AperFunction,SMDPad,CuDef*%
%ADD18R,4.257000X1.008000*%
%TD*%
%TA.AperFunction,SMDPad,CuDef*%
%ADD19R,4.130000X1.000000*%
%TD*%
%TA.AperFunction,SMDPad,CuDef*%
%ADD20R,4.257000X1.000000*%
%TD*%
%TA.AperFunction,SMDPad,CuDef*%
%ADD21RoundRect,0.250000X-0.400000X-0.625000X0.400000X-0.625000X0.400000X0.625000X-0.400000X0.625000X0*%
%TD*%
%TA.AperFunction,SMDPad,CuDef*%
%ADD22RoundRect,0.250000X0.400000X0.625000X-0.400000X0.625000X-0.400000X-0.625000X0.400000X-0.625000X0*%
%TD*%
%TA.AperFunction,SMDPad,CuDef*%
%ADD23RoundRect,0.250000X0.412500X0.650000X-0.412500X0.650000X-0.412500X-0.650000X0.412500X-0.650000X0*%
%TD*%
%TA.AperFunction,SMDPad,CuDef*%
%ADD24R,3.025000X1.524000*%
%TD*%
%TA.AperFunction,SMDPad,CuDef*%
%ADD25RoundRect,0.150000X-0.950000X-0.150000X0.950000X-0.150000X0.950000X0.150000X-0.950000X0.150000X0*%
%TD*%
%TA.AperFunction,SMDPad,CuDef*%
%ADD26RoundRect,0.250000X-0.625000X0.400000X-0.625000X-0.400000X0.625000X-0.400000X0.625000X0.400000X0*%
%TD*%
%TA.AperFunction,SMDPad,CuDef*%
%ADD27RoundRect,0.082000X0.868000X-0.328000X0.868000X0.328000X-0.868000X0.328000X-0.868000X-0.328000X0*%
%TD*%
%TA.AperFunction,SMDPad,CuDef*%
%ADD28RoundRect,0.086000X0.864000X-0.344000X0.864000X0.344000X-0.864000X0.344000X-0.864000X-0.344000X0*%
%TD*%
%TA.AperFunction,SMDPad,CuDef*%
%ADD29RoundRect,0.076000X0.874000X-0.304000X0.874000X0.304000X-0.874000X0.304000X-0.874000X-0.304000X0*%
%TD*%
%TA.AperFunction,SMDPad,CuDef*%
%ADD30RoundRect,0.220000X1.005000X0.330000X-1.005000X0.330000X-1.005000X-0.330000X1.005000X-0.330000X0*%
%TD*%
%TA.AperFunction,ViaPad*%
%ADD31C,0.600000*%
%TD*%
%TA.AperFunction,ViaPad*%
%ADD32C,1.200000*%
%TD*%
%TA.AperFunction,Conductor*%
%ADD33C,0.600000*%
%TD*%
%TA.AperFunction,Conductor*%
%ADD34C,1.200000*%
%TD*%
%TA.AperFunction,Conductor*%
%ADD35C,0.300000*%
%TD*%
G04 APERTURE END LIST*
D10*
%TO.P,J6,1,Pin_1*%
%TO.N,+3.3V*%
X129550000Y-96200000D03*
D11*
%TO.P,J6,2,Pin_2*%
%TO.N,SCL1*%
X129550000Y-98740000D03*
%TO.P,J6,3,Pin_3*%
%TO.N,SDA1*%
X129550000Y-101280000D03*
%TO.P,J6,4,Pin_4*%
%TO.N,GND*%
X129550000Y-103820000D03*
%TD*%
D10*
%TO.P,J5,1,Pin_1*%
%TO.N,+3.3V*%
X102050000Y-96200000D03*
D11*
%TO.P,J5,2,Pin_2*%
%TO.N,SCL*%
X102050000Y-98740000D03*
%TO.P,J5,3,Pin_3*%
%TO.N,SDA*%
X102050000Y-101280000D03*
%TO.P,J5,4,Pin_4*%
%TO.N,GND*%
X102050000Y-103820000D03*
%TD*%
D12*
%TO.P,BZ1,*%
%TO.N,*%
X135925000Y-78225000D03*
X142075000Y-78225000D03*
%TO.P,BZ1,N,-*%
%TO.N,Net-(BZ1--)*%
X135925000Y-84975000D03*
%TO.P,BZ1,P,+*%
%TO.N,+3.3V*%
X142075000Y-84975000D03*
%TD*%
D13*
%TO.P,J2,1,Pin_1*%
%TO.N,SRV3*%
X142806000Y-98996000D03*
%TO.P,J2,2,Pin_2*%
%TO.N,SCL*%
X142806000Y-92204000D03*
D14*
%TO.P,J2,3,Pin_3*%
%TO.N,+5V*%
X140270000Y-98996000D03*
D13*
%TO.P,J2,4,Pin_4*%
%TO.N,SDA*%
X140274000Y-92204000D03*
%TO.P,J2,5,Pin_5*%
%TO.N,GND*%
X137726000Y-98996000D03*
%TO.P,J2,6,Pin_6*%
%TO.N,+3.3V*%
X137734000Y-92204000D03*
%TO.P,J2,7,Pin_7*%
%TO.N,+5V*%
X135186000Y-98996000D03*
%TO.P,J2,8,Pin_8*%
%TO.N,GND*%
X135194000Y-92204000D03*
%TD*%
D10*
%TO.P,J3,1,Pin_1*%
%TO.N,+3.3VP*%
X170525000Y-96180000D03*
D11*
%TO.P,J3,2,Pin_2*%
%TO.N,Net-(J3-Pin_2)*%
X170525000Y-98720000D03*
%TO.P,J3,3,Pin_3*%
%TO.N,Net-(J3-Pin_3)*%
X170525000Y-101260000D03*
%TO.P,J3,4,Pin_4*%
%TO.N,GND1*%
X170525000Y-103800000D03*
%TD*%
D15*
%TO.P,J8,1,Pin_1*%
%TO.N,/TX*%
X131900000Y-107200000D03*
%TD*%
D16*
%TO.P,C1,1*%
%TO.N,+3.3VP*%
X174000000Y-114462500D03*
%TO.P,C1,2*%
%TO.N,GND1*%
X174000000Y-111337500D03*
%TD*%
D17*
%TO.P,J1,1,Pin_1*%
%TO.N,SRV1*%
X112085000Y-102836000D03*
D18*
%TO.P,J1,2,Pin_2*%
%TO.N,SRV2*%
X118178500Y-102836000D03*
D19*
%TO.P,J1,3,Pin_3*%
%TO.N,+5V*%
X112085000Y-100300000D03*
D18*
%TO.P,J1,4,Pin_4*%
X118178500Y-100296000D03*
D19*
%TO.P,J1,5,Pin_5*%
%TO.N,GND*%
X112085000Y-97760000D03*
D20*
%TO.P,J1,6,Pin_6*%
X118178500Y-97760000D03*
%TD*%
D10*
%TO.P,J4,1,Pin_1*%
%TO.N,+3.3VP*%
X198025000Y-96180000D03*
D11*
%TO.P,J4,2,Pin_2*%
%TO.N,Net-(J4-Pin_2)*%
X198025000Y-98720000D03*
%TO.P,J4,3,Pin_3*%
%TO.N,Net-(J4-Pin_3)*%
X198025000Y-101260000D03*
%TO.P,J4,4,Pin_4*%
%TO.N,GND1*%
X198025000Y-103800000D03*
%TD*%
D21*
%TO.P,R3,1*%
%TO.N,SCL*%
X145750000Y-94600000D03*
%TO.P,R3,2*%
%TO.N,+3.3V*%
X148850000Y-94600000D03*
%TD*%
D22*
%TO.P,R5,1*%
%TO.N,SCL1*%
X127750000Y-98900000D03*
%TO.P,R5,2*%
%TO.N,+3.3V*%
X124650000Y-98900000D03*
%TD*%
%TO.P,R6,1*%
%TO.N,SDA1*%
X127750000Y-101200000D03*
%TO.P,R6,2*%
%TO.N,+3.3V*%
X124650000Y-101200000D03*
%TD*%
D15*
%TO.P,J7,1,Pin_1*%
%TO.N,Net-(D21-DOUT)*%
X114800000Y-125800000D03*
%TD*%
D23*
%TO.P,C3,1*%
%TO.N,+5V*%
X114862500Y-120900000D03*
%TO.P,C3,2*%
%TO.N,GND*%
X111737500Y-120900000D03*
%TD*%
D24*
%TO.P,U1,0,GPIO0*%
%TO.N,unconnected-(U1-GPIO0-Pad0)*%
X150985000Y-108120000D03*
%TO.P,U1,1,GPIO1*%
%TO.N,BUZZER*%
X150985000Y-110660000D03*
%TO.P,U1,2,GPIO2*%
%TO.N,SCL*%
X150985000Y-113200000D03*
%TO.P,U1,3,GPIO3*%
%TO.N,SDA*%
X150985000Y-115740000D03*
%TO.P,U1,3.3,3V3*%
%TO.N,+3.3V*%
X150985000Y-120820000D03*
%TO.P,U1,4,GPIO4*%
%TO.N,SRV3*%
X150985000Y-118280000D03*
%TO.P,U1,5,GPIO5*%
%TO.N,SCL1*%
X135015000Y-125900000D03*
%TO.P,U1,5V,5V*%
%TO.N,+5V*%
X150985000Y-125900000D03*
%TO.P,U1,6,GPIO6*%
%TO.N,SDA1*%
X135015000Y-123360000D03*
%TO.P,U1,7,GPIO7*%
%TO.N,SRV2*%
X135015000Y-120820000D03*
%TO.P,U1,8,GPIO8*%
%TO.N,RGB_LED*%
X135015000Y-118280000D03*
%TO.P,U1,9,GPIO9*%
%TO.N,Net-(U1-GPIO9)*%
X135015000Y-115740000D03*
%TO.P,U1,10,GPIO10*%
%TO.N,SRV1*%
X135015000Y-113200000D03*
%TO.P,U1,20,GPIO20*%
%TO.N,/RX*%
X135015000Y-110660000D03*
%TO.P,U1,21,GPIO21*%
%TO.N,/TX*%
X135015000Y-108120000D03*
%TO.P,U1,G,GND*%
%TO.N,GND*%
X150985000Y-123360000D03*
%TD*%
D15*
%TO.P,J9,1,Pin_1*%
%TO.N,/RX*%
X131900000Y-109723250D03*
%TD*%
D25*
%TO.P,U3,1,VDD5V*%
%TO.N,+3.3VP*%
X176800000Y-114805000D03*
%TO.P,U3,2,VDD3V*%
X176800000Y-113535000D03*
%TO.P,U3,3,OUT*%
%TO.N,unconnected-(U3-OUT-Pad3)*%
X176800000Y-112265000D03*
%TO.P,U3,4,GND*%
%TO.N,GND1*%
X176800000Y-110995000D03*
%TO.P,U3,5,PGO*%
%TO.N,unconnected-(U3-PGO-Pad5)*%
X182000000Y-110995000D03*
%TO.P,U3,6,SDA*%
%TO.N,Net-(J4-Pin_3)*%
X182000000Y-112265000D03*
%TO.P,U3,7,SCL*%
%TO.N,Net-(J4-Pin_2)*%
X182000000Y-113535000D03*
%TO.P,U3,8,DIR*%
%TO.N,GND1*%
X182000000Y-114805000D03*
%TD*%
D16*
%TO.P,C2,1*%
%TO.N,+3.3VP*%
X174000000Y-88662500D03*
%TO.P,C2,2*%
%TO.N,GND1*%
X174000000Y-85537500D03*
%TD*%
D21*
%TO.P,R4,1*%
%TO.N,SDA*%
X145750000Y-97100000D03*
%TO.P,R4,2*%
%TO.N,+3.3V*%
X148850000Y-97100000D03*
%TD*%
D26*
%TO.P,R2,1*%
%TO.N,Net-(BZ1--)*%
X145900000Y-87050000D03*
%TO.P,R2,2*%
%TO.N,BUZZER*%
X145900000Y-90150000D03*
%TD*%
D25*
%TO.P,U2,1,VDD5V*%
%TO.N,+3.3VP*%
X176800000Y-89005000D03*
%TO.P,U2,2,VDD3V*%
X176800000Y-87735000D03*
%TO.P,U2,3,OUT*%
%TO.N,unconnected-(U2-OUT-Pad3)*%
X176800000Y-86465000D03*
%TO.P,U2,4,GND*%
%TO.N,GND1*%
X176800000Y-85195000D03*
%TO.P,U2,5,PGO*%
%TO.N,unconnected-(U2-PGO-Pad5)*%
X182000000Y-85195000D03*
%TO.P,U2,6,SDA*%
%TO.N,Net-(J3-Pin_3)*%
X182000000Y-86465000D03*
%TO.P,U2,7,SCL*%
%TO.N,Net-(J3-Pin_2)*%
X182000000Y-87735000D03*
%TO.P,U2,8,DIR*%
%TO.N,GND1*%
X182000000Y-89005000D03*
%TD*%
D27*
%TO.P,D21,1,VDD*%
%TO.N,+5V*%
X114750000Y-123050000D03*
D28*
%TO.P,D21,2,DOUT*%
%TO.N,Net-(D21-DOUT)*%
X114750000Y-124530000D03*
D27*
%TO.P,D21,3,GND*%
%TO.N,GND*%
X120650000Y-124550000D03*
D29*
%TO.P,D21,4,DIN*%
%TO.N,RGB_LED*%
X120650000Y-123020000D03*
%TD*%
D30*
%TO.P,SW8,1,1*%
%TO.N,Net-(U1-GPIO9)*%
X131775000Y-121550000D03*
X122825000Y-121550000D03*
%TO.P,SW8,2,2*%
%TO.N,GND*%
X131775000Y-126050000D03*
X122825000Y-126050000D03*
%TD*%
D31*
%TO.N,GND*%
X115200000Y-78700000D03*
X131700000Y-104000000D03*
X122700000Y-123100000D03*
X131600000Y-78000000D03*
X114700000Y-73800000D03*
X145000000Y-99800000D03*
X129200000Y-89600000D03*
X164700000Y-83000000D03*
X130900000Y-82800000D03*
X164800000Y-96200000D03*
X152600000Y-79000000D03*
X144400000Y-92700000D03*
X162700000Y-75800000D03*
X149100000Y-106400000D03*
X149100000Y-104600000D03*
X145200000Y-115400000D03*
X158200000Y-106800000D03*
X131600000Y-123800000D03*
X131800000Y-116700000D03*
X104300000Y-105400000D03*
X145000000Y-106800000D03*
X142700000Y-75000000D03*
X120500000Y-78100000D03*
X141900000Y-124400000D03*
X113900000Y-105700000D03*
X123800000Y-123900000D03*
X161200000Y-114400000D03*
X139400000Y-81500000D03*
X144200000Y-90000000D03*
X103200000Y-123400000D03*
X150100000Y-102200000D03*
X102200000Y-91900000D03*
X117000000Y-105600000D03*
X103000000Y-74600000D03*
X165400000Y-101000000D03*
X115100000Y-102200000D03*
X160800000Y-90900000D03*
X141400000Y-120600000D03*
X143800000Y-86800000D03*
X129900000Y-116000000D03*
X122300000Y-100200000D03*
X137200000Y-74800000D03*
X115100000Y-96800000D03*
X117700000Y-120900000D03*
X164400000Y-123900000D03*
X121700000Y-73900000D03*
X140400000Y-118200000D03*
X106000000Y-99400000D03*
X108000000Y-100500000D03*
X145200000Y-110000000D03*
X131400000Y-97400000D03*
X145100000Y-105000000D03*
X147000000Y-113800000D03*
X155500000Y-126100000D03*
X103000000Y-117600000D03*
X102600000Y-81100000D03*
X144100000Y-117600000D03*
X147500000Y-117700000D03*
X140600000Y-115900000D03*
X138700000Y-86200000D03*
X144100000Y-125400000D03*
X133300000Y-94500000D03*
X151200000Y-92500000D03*
X141500000Y-90900000D03*
X102200000Y-108300000D03*
X147700000Y-122400000D03*
X141500000Y-96000000D03*
X122500000Y-124600000D03*
X156000000Y-100700000D03*
X150700000Y-100200000D03*
X131400000Y-99000000D03*
X133400000Y-92100000D03*
X120200000Y-120100000D03*
X149100000Y-91600000D03*
D32*
%TO.N,+5V*%
X140300000Y-101900000D03*
X135200000Y-101900000D03*
X115200000Y-100300000D03*
D31*
X114800000Y-122300000D03*
D32*
X149000000Y-125900000D03*
D31*
%TO.N,GND1*%
X197100000Y-112300000D03*
X181600000Y-101000000D03*
X184100000Y-93400000D03*
X187200000Y-87100000D03*
X197200000Y-92900000D03*
X174100000Y-103400000D03*
X192600000Y-98600000D03*
X193900000Y-105600000D03*
X188100000Y-105800000D03*
X194100000Y-86300000D03*
X170800000Y-108100000D03*
X179200000Y-85700000D03*
X176900000Y-109100000D03*
X172300000Y-91900000D03*
X188400000Y-109500000D03*
X195700000Y-97600000D03*
X170200000Y-113700000D03*
X193800000Y-110300000D03*
X175200000Y-94900000D03*
X183900000Y-109500000D03*
X186700000Y-112800000D03*
X192500000Y-114700000D03*
%TD*%
D33*
%TO.N,GND*%
X122450000Y-124550000D02*
X122500000Y-124600000D01*
X120650000Y-124550000D02*
X122450000Y-124550000D01*
X136400000Y-92200000D02*
X136396000Y-92204000D01*
X122825000Y-124925000D02*
X122500000Y-124600000D01*
X122825000Y-126050000D02*
X122825000Y-124925000D01*
X135194000Y-92204000D02*
X136396000Y-92204000D01*
D34*
%TO.N,+5V*%
X150985000Y-125900000D02*
X149000000Y-125900000D01*
D33*
X114800000Y-122300000D02*
X114800000Y-120962500D01*
D34*
X135200000Y-101900000D02*
X135200000Y-99010000D01*
D33*
X114800000Y-120962500D02*
X114862500Y-120900000D01*
D34*
X140300000Y-99026000D02*
X140270000Y-98996000D01*
X140300000Y-101900000D02*
X140300000Y-99026000D01*
X135200000Y-99010000D02*
X135186000Y-98996000D01*
X115200000Y-100300000D02*
X118174500Y-100300000D01*
D33*
X114800000Y-123000000D02*
X114750000Y-123050000D01*
X114800000Y-122300000D02*
X114800000Y-123000000D01*
D34*
X115200000Y-100300000D02*
X112085000Y-100300000D01*
X118174500Y-100300000D02*
X118178500Y-100296000D01*
D35*
%TO.N,SRV1*%
X136878500Y-107104060D02*
X136878500Y-112087000D01*
X112085000Y-102836000D02*
X113636000Y-102836000D01*
X114491000Y-103691000D02*
X118891000Y-103691000D01*
X118891000Y-103691000D02*
X121248999Y-106049000D01*
X135823440Y-106049000D02*
X136878500Y-107104060D01*
X135765500Y-113200000D02*
X135015000Y-113200000D01*
X113636000Y-102836000D02*
X114491000Y-103691000D01*
X121248999Y-106049000D02*
X135823440Y-106049000D01*
X136878500Y-112087000D02*
X135765500Y-113200000D01*
%TO.N,SRV2*%
X118790000Y-103190000D02*
X119098520Y-103190000D01*
X136160021Y-120820000D02*
X135015000Y-120820000D01*
X119098520Y-103190000D02*
X121456520Y-105548000D01*
X118436000Y-102836000D02*
X118790000Y-103190000D01*
X121456520Y-105548000D02*
X136030960Y-105548000D01*
X118178500Y-102836000D02*
X118436000Y-102836000D01*
X136030960Y-105548000D02*
X137400000Y-106917040D01*
X137400000Y-106917040D02*
X137400000Y-119580021D01*
X137400000Y-119580021D02*
X136160021Y-120820000D01*
%TO.N,SRV3*%
X150985000Y-118280000D02*
X150234500Y-118280000D01*
X143200000Y-100090000D02*
X142806000Y-99696000D01*
X150234500Y-118280000D02*
X143200000Y-111245500D01*
X143200000Y-111245500D02*
X143200000Y-100090000D01*
D33*
%TO.N,+3.3V*%
X142075000Y-88230000D02*
X142075000Y-84975000D01*
X104845174Y-94197000D02*
X127673826Y-94197000D01*
X151669000Y-120820000D02*
X152400000Y-121551000D01*
X148452786Y-120820000D02*
X150985000Y-120820000D01*
X146155000Y-88255000D02*
X142100000Y-88255000D01*
X152400000Y-121551000D02*
X155031785Y-121551000D01*
D35*
X124650000Y-98900000D02*
X125820653Y-98900000D01*
D33*
X140600000Y-88255000D02*
X133915827Y-88255000D01*
X147951000Y-90051000D02*
X146155000Y-88255000D01*
D35*
X124650000Y-101200000D02*
X124650000Y-98900000D01*
D33*
X137734000Y-92204000D02*
X137734000Y-95034000D01*
X133915827Y-88255000D02*
X128901000Y-93269826D01*
X129701000Y-96049000D02*
X129550000Y-96200000D01*
X155031785Y-121551000D02*
X155600000Y-120982785D01*
X147951000Y-102051000D02*
X147951000Y-97100000D01*
D35*
X128520653Y-96200000D02*
X129550000Y-96200000D01*
D33*
X149150000Y-103250000D02*
X147951000Y-102051000D01*
X141700000Y-114067214D02*
X148452786Y-120820000D01*
X142100000Y-88255000D02*
X142075000Y-88230000D01*
X102050000Y-96200000D02*
X102650174Y-96200000D01*
X152998500Y-107098500D02*
X149150000Y-103250000D01*
D35*
X128403000Y-93997000D02*
X127700000Y-93997000D01*
D33*
X137734000Y-95066000D02*
X136751000Y-96049000D01*
X137734000Y-95034000D02*
X138731000Y-96031000D01*
D35*
X125820653Y-98900000D02*
X128520653Y-96200000D01*
D33*
X150985000Y-120820000D02*
X151669000Y-120820000D01*
X138731000Y-96031000D02*
X138731000Y-103431000D01*
X104749174Y-94101000D02*
X104845174Y-94197000D01*
X142100000Y-88255000D02*
X140600000Y-88255000D01*
D35*
X128901000Y-93269826D02*
X128901000Y-93499000D01*
D33*
X147951000Y-97100000D02*
X147951000Y-94600000D01*
X155600000Y-120982785D02*
X155600000Y-115500000D01*
X137734000Y-92204000D02*
X137734000Y-95066000D01*
X136751000Y-96049000D02*
X129701000Y-96049000D01*
X147951000Y-94600000D02*
X147951000Y-90051000D01*
X148850000Y-97100000D02*
X147951000Y-97100000D01*
X141700000Y-106400000D02*
X141700000Y-114067214D01*
X152998500Y-112898500D02*
X152998500Y-107098500D01*
X148850000Y-94600000D02*
X147951000Y-94600000D01*
X155600000Y-115500000D02*
X152998500Y-112898500D01*
X138731000Y-103431000D02*
X141700000Y-106400000D01*
D35*
X128901000Y-93499000D02*
X128403000Y-93997000D01*
D33*
X102650174Y-96200000D02*
X104749174Y-94101000D01*
%TO.N,Net-(BZ1--)*%
X137500000Y-83200000D02*
X135925000Y-84775000D01*
X145900000Y-87050000D02*
X145900000Y-85000000D01*
X145900000Y-85000000D02*
X144100000Y-83200000D01*
X135925000Y-84775000D02*
X135925000Y-84975000D01*
X144100000Y-83200000D02*
X137500000Y-83200000D01*
%TO.N,GND1*%
X176800000Y-109200000D02*
X176900000Y-109100000D01*
X176800000Y-110995000D02*
X176800000Y-109200000D01*
X178695000Y-85195000D02*
X179200000Y-85700000D01*
X174342500Y-85195000D02*
X174000000Y-85537500D01*
X174342500Y-110995000D02*
X174000000Y-111337500D01*
X176800000Y-85195000D02*
X178695000Y-85195000D01*
X176800000Y-110995000D02*
X174342500Y-110995000D01*
X176800000Y-85195000D02*
X174342500Y-85195000D01*
D35*
%TO.N,SDA*%
X128501000Y-94999000D02*
X128151000Y-95349000D01*
X143651000Y-95001000D02*
X141101000Y-95001000D01*
X150419346Y-115740000D02*
X146250000Y-111570654D01*
X105130347Y-95349000D02*
X104630000Y-95849347D01*
X128151000Y-95349000D02*
X105130347Y-95349000D01*
X146250000Y-97600000D02*
X145750000Y-97100000D01*
X104630000Y-98700000D02*
X102050000Y-101280000D01*
X134516000Y-89407000D02*
X128924000Y-94999000D01*
X146250000Y-111570654D02*
X146250000Y-97600000D01*
X150985000Y-115740000D02*
X150419346Y-115740000D01*
X140274000Y-92204000D02*
X140274000Y-91092000D01*
X138589000Y-89407000D02*
X134516000Y-89407000D01*
X104630000Y-95849347D02*
X104630000Y-98700000D01*
X141101000Y-95001000D02*
X140274000Y-94174000D01*
X128924000Y-94999000D02*
X128501000Y-94999000D01*
X140274000Y-91092000D02*
X138589000Y-89407000D01*
X145750000Y-97100000D02*
X143651000Y-95001000D01*
X140274000Y-94174000D02*
X140274000Y-92204000D01*
%TO.N,SCL*%
X104129000Y-96661000D02*
X102050000Y-98740000D01*
X145400000Y-94500000D02*
X142806000Y-94500000D01*
X145500000Y-94600000D02*
X145400000Y-94500000D01*
X145750000Y-94600000D02*
X145500000Y-94600000D01*
X134308479Y-88906000D02*
X128716479Y-94498000D01*
X146751000Y-95601000D02*
X145750000Y-94600000D01*
X146751000Y-109751000D02*
X146751000Y-95601000D01*
X141450000Y-88906000D02*
X134308479Y-88906000D01*
X104922826Y-94848000D02*
X104129000Y-95641827D01*
X142806000Y-90262000D02*
X141450000Y-88906000D01*
X128716479Y-94498000D02*
X128293479Y-94498000D01*
X104129000Y-95641827D02*
X104129000Y-96661000D01*
X150200000Y-113200000D02*
X146751000Y-109751000D01*
X142806000Y-92204000D02*
X142806000Y-90262000D01*
X142806000Y-94500000D02*
X142806000Y-92204000D01*
X127943480Y-94848000D02*
X104922826Y-94848000D01*
X128293479Y-94498000D02*
X127943480Y-94848000D01*
X150985000Y-113200000D02*
X150200000Y-113200000D01*
D33*
%TO.N,+3.3VP*%
X191699346Y-96180000D02*
X198025000Y-96180000D01*
D35*
X169324000Y-97381000D02*
X170525000Y-96180000D01*
X169324000Y-109786500D02*
X169324000Y-97381000D01*
D33*
X174000000Y-88662500D02*
X170525000Y-92137500D01*
X174342500Y-89005000D02*
X174000000Y-88662500D01*
X169301000Y-105100000D02*
X169301000Y-105101000D01*
X176800000Y-114805000D02*
X174342500Y-114805000D01*
X174927500Y-87735000D02*
X174000000Y-88662500D01*
X169301000Y-109763500D02*
X169301000Y-105100000D01*
D35*
X174000000Y-114462500D02*
X171918750Y-112381250D01*
D33*
X176800000Y-87735000D02*
X174927500Y-87735000D01*
X174927500Y-113535000D02*
X174000000Y-114462500D01*
D35*
X171918750Y-112381250D02*
X169324000Y-109786500D01*
D33*
X174000000Y-114462500D02*
X169301000Y-109763500D01*
X176800000Y-113535000D02*
X178283653Y-113535000D01*
X176800000Y-113535000D02*
X174927500Y-113535000D01*
X178283653Y-113535000D02*
X178949000Y-112869653D01*
X178949000Y-108930346D02*
X191699346Y-96180000D01*
X176800000Y-89005000D02*
X174342500Y-89005000D01*
X174342500Y-114805000D02*
X174000000Y-114462500D01*
X178949000Y-112869653D02*
X178949000Y-108930346D01*
X170525000Y-96180000D02*
X170525000Y-92137500D01*
D35*
%TO.N,BUZZER*%
X147300000Y-90800000D02*
X146650000Y-90150000D01*
X150985000Y-110660000D02*
X150234500Y-110660000D01*
X146650000Y-90150000D02*
X145900000Y-90150000D01*
X147300000Y-107725500D02*
X147300000Y-90800000D01*
X150234500Y-110660000D02*
X147300000Y-107725500D01*
%TO.N,Net-(J3-Pin_3)*%
X183273521Y-86465000D02*
X182000000Y-86465000D01*
X184700000Y-87891480D02*
X183273521Y-86465000D01*
X174699001Y-100201000D02*
X184901000Y-89999000D01*
X171584000Y-100201000D02*
X174699001Y-100201000D01*
X184901000Y-88092479D02*
X184700000Y-87891480D01*
X184901000Y-89999000D02*
X184901000Y-88092479D01*
X170525000Y-101260000D02*
X171584000Y-100201000D01*
%TO.N,Net-(J3-Pin_2)*%
X171505000Y-99700000D02*
X174491480Y-99700000D01*
X184400000Y-89791480D02*
X184400000Y-88300000D01*
X183835000Y-87735000D02*
X182000000Y-87735000D01*
X184400000Y-88300000D02*
X183835000Y-87735000D01*
X170525000Y-98720000D02*
X171505000Y-99700000D01*
X174491480Y-99700000D02*
X184400000Y-89791480D01*
%TO.N,Net-(J4-Pin_2)*%
X196645000Y-100100000D02*
X188700000Y-100100000D01*
X198025000Y-98720000D02*
X196645000Y-100100000D01*
X188700000Y-100100000D02*
X179600000Y-109200000D01*
X179600000Y-109200000D02*
X179600000Y-112600000D01*
X180535000Y-113535000D02*
X182000000Y-113535000D01*
X179600000Y-112600000D02*
X180535000Y-113535000D01*
%TO.N,Net-(J4-Pin_3)*%
X180101000Y-111465999D02*
X180900001Y-112265000D01*
X180101000Y-109407520D02*
X180101000Y-111465999D01*
X188908520Y-100600000D02*
X180101000Y-109407520D01*
X198025000Y-101260000D02*
X197365000Y-100600000D01*
X180900001Y-112265000D02*
X182000000Y-112265000D01*
X197365000Y-100600000D02*
X188908520Y-100600000D01*
%TO.N,SCL1*%
X138401999Y-123998001D02*
X136500000Y-125900000D01*
X129550000Y-99150000D02*
X131179000Y-100779000D01*
X129550000Y-98740000D02*
X129550000Y-99150000D01*
X131179000Y-100779000D02*
X132679001Y-100779000D01*
X127750000Y-98900000D02*
X129390000Y-98900000D01*
X129390000Y-98900000D02*
X129550000Y-98740000D01*
X136500000Y-125900000D02*
X135015000Y-125900000D01*
X132679001Y-100779000D02*
X138402000Y-106502000D01*
X138402000Y-106502000D02*
X138401999Y-123998001D01*
%TO.N,SDA1*%
X132471480Y-101280000D02*
X137901000Y-106709520D01*
X127830000Y-101280000D02*
X127750000Y-101200000D01*
X129550000Y-101280000D02*
X127830000Y-101280000D01*
X129550000Y-101280000D02*
X132471480Y-101280000D01*
X135765500Y-123360000D02*
X135015000Y-123360000D01*
X137901000Y-106709520D02*
X137901000Y-121224500D01*
X137901000Y-121224500D02*
X135765500Y-123360000D01*
%TO.N,RGB_LED*%
X124192479Y-120199000D02*
X124191480Y-120200000D01*
X120650000Y-121370654D02*
X120650000Y-123020000D01*
X121820654Y-120200000D02*
X120650000Y-121370654D01*
X135015000Y-118280000D02*
X135765500Y-118280000D01*
X135015000Y-118280000D02*
X133820000Y-118280000D01*
X124191480Y-120200000D02*
X121820654Y-120200000D01*
X131901000Y-120199000D02*
X124192479Y-120199000D01*
X135015000Y-118280000D02*
X134119000Y-118280000D01*
X133820000Y-118280000D02*
X131901000Y-120199000D01*
%TO.N,Net-(U1-GPIO9)*%
X123550000Y-121550000D02*
X124400000Y-120700000D01*
X136878500Y-119393000D02*
X136878500Y-117167000D01*
X129700000Y-120700000D02*
X132158500Y-120700000D01*
X124400000Y-120700000D02*
X127500000Y-120700000D01*
X133151500Y-119707000D02*
X136564500Y-119707000D01*
X123450000Y-121550000D02*
X123550000Y-121550000D01*
X132158500Y-120700000D02*
X132158500Y-121166500D01*
X132158500Y-120700000D02*
X132929250Y-119929250D01*
X135451500Y-115740000D02*
X135015000Y-115740000D01*
X127500000Y-120700000D02*
X129700000Y-120700000D01*
X136878500Y-117167000D02*
X135451500Y-115740000D01*
X129700000Y-120700000D02*
X131100000Y-120700000D01*
X132158500Y-121166500D02*
X131775000Y-121550000D01*
X136564500Y-119707000D02*
X136878500Y-119393000D01*
X132929250Y-119929250D02*
X133151500Y-119707000D01*
%TO.N,/RX*%
X135015000Y-110660000D02*
X134360000Y-110660000D01*
X133800000Y-110100000D02*
X132276750Y-110100000D01*
X132276750Y-110100000D02*
X131900000Y-109723250D01*
X134360000Y-110660000D02*
X133800000Y-110100000D01*
%TO.N,/TX*%
X134595000Y-107700000D02*
X135015000Y-108120000D01*
X132500000Y-107700000D02*
X134595000Y-107700000D01*
X131900000Y-107200000D02*
X132000000Y-107200000D01*
X132000000Y-107200000D02*
X132500000Y-107700000D01*
D33*
%TO.N,Net-(D21-DOUT)*%
X114750000Y-124530000D02*
X114750000Y-125750000D01*
X114750000Y-125750000D02*
X114800000Y-125800000D01*
%TD*%
%TA.AperFunction,Conductor*%
%TO.N,GND*%
G36*
X121542539Y-96019185D02*
G01*
X121588294Y-96071989D01*
X121599500Y-96123500D01*
X121599500Y-97565892D01*
X121612835Y-97615658D01*
X121633608Y-97693187D01*
X121655120Y-97730446D01*
X121699500Y-97807314D01*
X121792686Y-97900500D01*
X121906814Y-97966392D01*
X122034108Y-98000500D01*
X122165892Y-98000500D01*
X123385121Y-98000500D01*
X123452160Y-98020185D01*
X123497915Y-98072989D01*
X123508479Y-98137103D01*
X123499500Y-98224983D01*
X123499500Y-99575001D01*
X123499501Y-99575018D01*
X123510000Y-99677796D01*
X123510001Y-99677799D01*
X123565185Y-99844331D01*
X123565189Y-99844340D01*
X123651889Y-99984904D01*
X123670329Y-100052296D01*
X123651889Y-100115096D01*
X123565189Y-100255659D01*
X123565186Y-100255666D01*
X123510001Y-100422203D01*
X123510001Y-100422204D01*
X123510000Y-100422204D01*
X123499500Y-100524983D01*
X123499500Y-101875001D01*
X123499501Y-101875018D01*
X123510000Y-101977796D01*
X123510001Y-101977799D01*
X123565185Y-102144331D01*
X123565187Y-102144336D01*
X123600069Y-102200888D01*
X123651415Y-102284135D01*
X123657289Y-102293657D01*
X123751451Y-102387819D01*
X123784936Y-102449142D01*
X123779952Y-102518834D01*
X123738080Y-102574767D01*
X123672616Y-102599184D01*
X123663770Y-102599500D01*
X122034108Y-102599500D01*
X121906812Y-102633608D01*
X121792686Y-102699500D01*
X121792683Y-102699502D01*
X121699502Y-102792683D01*
X121699500Y-102792686D01*
X121633608Y-102906812D01*
X121599500Y-103034108D01*
X121599500Y-104471672D01*
X121579815Y-104538711D01*
X121527011Y-104584466D01*
X121457853Y-104594410D01*
X121394297Y-104565385D01*
X121387819Y-104559353D01*
X120681214Y-103852748D01*
X120647729Y-103791425D01*
X120652713Y-103721733D01*
X120669626Y-103690758D01*
X120750796Y-103582331D01*
X120801091Y-103447483D01*
X120807500Y-103387873D01*
X120807499Y-102284128D01*
X120801091Y-102224517D01*
X120776170Y-102157701D01*
X120750797Y-102089671D01*
X120750793Y-102089664D01*
X120664547Y-101974455D01*
X120664544Y-101974452D01*
X120549335Y-101888206D01*
X120549328Y-101888202D01*
X120414482Y-101837908D01*
X120414483Y-101837908D01*
X120354883Y-101831501D01*
X120354881Y-101831500D01*
X120354873Y-101831500D01*
X120354864Y-101831500D01*
X116002129Y-101831500D01*
X116002123Y-101831501D01*
X115942516Y-101837908D01*
X115807671Y-101888202D01*
X115807664Y-101888206D01*
X115692455Y-101974452D01*
X115692452Y-101974455D01*
X115606206Y-102089664D01*
X115606202Y-102089671D01*
X115555910Y-102224513D01*
X115555909Y-102224517D01*
X115549500Y-102284127D01*
X115549500Y-102660763D01*
X115549501Y-102916500D01*
X115529817Y-102983539D01*
X115477013Y-103029294D01*
X115425501Y-103040500D01*
X114811808Y-103040500D01*
X114782367Y-103031855D01*
X114752381Y-103025332D01*
X114747365Y-103021577D01*
X114744769Y-103020815D01*
X114724127Y-103004181D01*
X114686818Y-102966872D01*
X114653333Y-102905549D01*
X114650499Y-102879191D01*
X114650499Y-102284129D01*
X114650498Y-102284123D01*
X114644091Y-102224516D01*
X114593797Y-102089671D01*
X114593793Y-102089664D01*
X114507547Y-101974455D01*
X114507544Y-101974452D01*
X114392335Y-101888206D01*
X114392328Y-101888202D01*
X114257482Y-101837908D01*
X114257483Y-101837908D01*
X114197883Y-101831501D01*
X114197881Y-101831500D01*
X114197873Y-101831500D01*
X114197864Y-101831500D01*
X109972129Y-101831500D01*
X109972113Y-101831501D01*
X109966259Y-101832131D01*
X109897500Y-101819722D01*
X109846365Y-101772109D01*
X109845623Y-101770841D01*
X109815936Y-101719422D01*
X109800500Y-101692686D01*
X109707314Y-101599500D01*
X109624259Y-101551548D01*
X109593187Y-101533608D01*
X109529539Y-101516554D01*
X109465892Y-101499500D01*
X105465892Y-101499500D01*
X105334108Y-101499500D01*
X105206812Y-101533608D01*
X105092686Y-101599500D01*
X105092683Y-101599502D01*
X104999502Y-101692683D01*
X104999500Y-101692686D01*
X104933608Y-101806812D01*
X104912563Y-101885354D01*
X104899500Y-101934108D01*
X104899500Y-104065892D01*
X104908505Y-104099500D01*
X104933608Y-104193187D01*
X104949146Y-104220099D01*
X104999500Y-104307314D01*
X105092686Y-104400500D01*
X105206814Y-104466392D01*
X105334108Y-104500500D01*
X105334110Y-104500500D01*
X109465890Y-104500500D01*
X109465892Y-104500500D01*
X109593186Y-104466392D01*
X109707314Y-104400500D01*
X109800500Y-104307314D01*
X109866392Y-104193186D01*
X109900500Y-104065892D01*
X109900500Y-103964499D01*
X109920185Y-103897460D01*
X109972989Y-103851705D01*
X110024495Y-103840499D01*
X113669190Y-103840499D01*
X113736229Y-103860184D01*
X113756871Y-103876818D01*
X114076325Y-104196272D01*
X114076332Y-104196278D01*
X114182863Y-104267459D01*
X114182867Y-104267461D01*
X114182874Y-104267466D01*
X114243762Y-104292686D01*
X114301256Y-104316501D01*
X114301260Y-104316501D01*
X114301261Y-104316502D01*
X114426928Y-104341500D01*
X114426931Y-104341500D01*
X118570192Y-104341500D01*
X118637231Y-104361185D01*
X118657873Y-104377819D01*
X120267873Y-105987819D01*
X120301358Y-106049142D01*
X120296374Y-106118834D01*
X120254502Y-106174767D01*
X120189038Y-106199184D01*
X120180192Y-106199500D01*
X104834108Y-106199500D01*
X104706812Y-106233608D01*
X104592686Y-106299500D01*
X104592683Y-106299502D01*
X104499502Y-106392683D01*
X104499500Y-106392686D01*
X104433608Y-106506812D01*
X104399500Y-106634108D01*
X104399500Y-119165891D01*
X104433608Y-119293187D01*
X104466554Y-119350250D01*
X104499500Y-119407314D01*
X104592686Y-119500500D01*
X104706814Y-119566392D01*
X104834108Y-119600500D01*
X104965892Y-119600500D01*
X110622246Y-119600500D01*
X110689285Y-119620185D01*
X110735040Y-119672989D01*
X110744984Y-119742147D01*
X110727785Y-119789597D01*
X110640643Y-119930875D01*
X110640641Y-119930880D01*
X110585494Y-120097302D01*
X110585493Y-120097309D01*
X110575000Y-120200013D01*
X110575000Y-120650000D01*
X112899999Y-120650000D01*
X112899999Y-120200028D01*
X112899998Y-120200013D01*
X112889505Y-120097302D01*
X112834358Y-119930880D01*
X112834356Y-119930875D01*
X112747215Y-119789597D01*
X112728775Y-119722204D01*
X112749698Y-119655541D01*
X112803340Y-119610771D01*
X112852754Y-119600500D01*
X113746659Y-119600500D01*
X113813698Y-119620185D01*
X113859453Y-119672989D01*
X113869397Y-119742147D01*
X113852198Y-119789596D01*
X113765189Y-119930659D01*
X113765185Y-119930668D01*
X113758608Y-119950517D01*
X113710001Y-120097203D01*
X113710001Y-120097204D01*
X113710000Y-120097204D01*
X113699500Y-120199983D01*
X113699500Y-121600001D01*
X113699501Y-121600018D01*
X113710000Y-121702796D01*
X113710001Y-121702799D01*
X113765185Y-121869331D01*
X113765189Y-121869340D01*
X113824656Y-121965751D01*
X113843096Y-122033143D01*
X113822173Y-122099806D01*
X113768531Y-122144576D01*
X113767458Y-122145036D01*
X113751970Y-122151592D01*
X113729937Y-122154493D01*
X113588237Y-122213188D01*
X113565791Y-122230410D01*
X113551205Y-122236586D01*
X113531593Y-122238848D01*
X113513175Y-122245968D01*
X113497593Y-122242771D01*
X113481796Y-122244594D01*
X113464073Y-122235894D01*
X113444731Y-122231926D01*
X113429164Y-122218758D01*
X113419076Y-122213806D01*
X113414654Y-122206484D01*
X113404490Y-122197886D01*
X113400498Y-122192684D01*
X113307316Y-122099502D01*
X113307314Y-122099500D01*
X113245205Y-122063641D01*
X113193187Y-122033608D01*
X113129539Y-122016554D01*
X113065892Y-121999500D01*
X112962875Y-121999500D01*
X112895836Y-121979815D01*
X112850081Y-121927011D01*
X112840137Y-121857853D01*
X112845169Y-121836496D01*
X112889505Y-121702697D01*
X112889506Y-121702690D01*
X112899999Y-121599986D01*
X112900000Y-121599973D01*
X112900000Y-121150000D01*
X110575001Y-121150000D01*
X110575001Y-121599986D01*
X110585494Y-121702697D01*
X110629831Y-121836496D01*
X110632233Y-121906324D01*
X110596501Y-121966366D01*
X110533981Y-121997559D01*
X110512125Y-121999500D01*
X108934108Y-121999500D01*
X108806812Y-122033608D01*
X108692686Y-122099500D01*
X108692683Y-122099502D01*
X108599502Y-122192683D01*
X108599500Y-122192686D01*
X108533608Y-122306812D01*
X108503281Y-122419997D01*
X108499500Y-122434108D01*
X108499500Y-124074395D01*
X108495334Y-124100966D01*
X108499500Y-124140018D01*
X108499500Y-124179287D01*
X108506460Y-124205262D01*
X108509313Y-124232006D01*
X108523442Y-124268645D01*
X108525149Y-124275015D01*
X108533606Y-124306577D01*
X108533607Y-124306580D01*
X108533608Y-124306581D01*
X108547055Y-124329872D01*
X108556732Y-124354964D01*
X108579863Y-124386697D01*
X108599500Y-124420709D01*
X108599502Y-124420711D01*
X108611684Y-124432893D01*
X108624203Y-124447527D01*
X108634359Y-124461459D01*
X108656320Y-124479186D01*
X108659784Y-124481982D01*
X108664055Y-124485592D01*
X108666896Y-124488105D01*
X108692686Y-124513895D01*
X108702374Y-124519488D01*
X108711726Y-124527760D01*
X108712382Y-124528805D01*
X108714996Y-124530758D01*
X108843582Y-124652985D01*
X108856938Y-124667916D01*
X108977291Y-124826598D01*
X108982546Y-124833526D01*
X108993329Y-124850425D01*
X109034153Y-124927511D01*
X109090607Y-125034111D01*
X109098527Y-125052529D01*
X109164933Y-125249494D01*
X109169781Y-125268947D01*
X109203577Y-125474031D01*
X109205227Y-125494011D01*
X109205532Y-125701869D01*
X109203940Y-125721854D01*
X109170746Y-125927035D01*
X109165955Y-125946503D01*
X109100129Y-126143655D01*
X109092264Y-126162095D01*
X108995525Y-126346067D01*
X108984790Y-126362999D01*
X108859669Y-126528976D01*
X108846345Y-126543958D01*
X108696112Y-126687601D01*
X108680550Y-126700239D01*
X108509135Y-126817794D01*
X108491739Y-126827759D01*
X108303616Y-126916156D01*
X108284841Y-126923187D01*
X108084936Y-126980111D01*
X108065274Y-126984025D01*
X107858807Y-127007991D01*
X107838770Y-127008685D01*
X107631137Y-126999065D01*
X107611250Y-126996521D01*
X107407888Y-126953567D01*
X107388673Y-126947852D01*
X107194885Y-126872687D01*
X107176840Y-126863950D01*
X106997697Y-126758536D01*
X106981297Y-126747005D01*
X106821483Y-126614102D01*
X106807155Y-126600078D01*
X106670855Y-126443164D01*
X106658975Y-126427017D01*
X106549735Y-126250180D01*
X106540611Y-126232327D01*
X106529972Y-126206556D01*
X106461297Y-126040197D01*
X106455171Y-126021110D01*
X106407854Y-125818703D01*
X106404886Y-125798883D01*
X106404317Y-125790505D01*
X106390807Y-125591508D01*
X106391070Y-125571466D01*
X106393872Y-125541768D01*
X106410594Y-125364517D01*
X106414082Y-125344792D01*
X106466700Y-125143700D01*
X106473325Y-125124783D01*
X106488709Y-125090129D01*
X106557657Y-124934805D01*
X106567246Y-124917200D01*
X106581340Y-124895671D01*
X106681094Y-124743292D01*
X106693383Y-124727474D01*
X106833504Y-124574474D01*
X106837225Y-124570587D01*
X106845755Y-124562057D01*
X106849004Y-124558926D01*
X106888851Y-124521927D01*
X106888853Y-124521923D01*
X106894037Y-124515663D01*
X106894320Y-124515897D01*
X106895841Y-124513988D01*
X106895550Y-124513765D01*
X106900497Y-124507316D01*
X106900500Y-124507314D01*
X106928818Y-124458265D01*
X106958922Y-124410315D01*
X106961689Y-124401330D01*
X106966392Y-124393186D01*
X106981047Y-124338491D01*
X106997719Y-124284371D01*
X106998067Y-124274971D01*
X107000500Y-124265892D01*
X107000500Y-124211569D01*
X107000585Y-124206980D01*
X107002596Y-124152681D01*
X107001834Y-124144590D01*
X107002196Y-124144555D01*
X107000500Y-124129516D01*
X107000500Y-122434110D01*
X107000500Y-122434108D01*
X106966392Y-122306814D01*
X106900500Y-122192686D01*
X106807314Y-122099500D01*
X106745205Y-122063641D01*
X106693187Y-122033608D01*
X106629539Y-122016554D01*
X106565892Y-121999500D01*
X104065892Y-121999500D01*
X103934108Y-121999500D01*
X103806812Y-122033608D01*
X103692686Y-122099500D01*
X103692683Y-122099502D01*
X103599502Y-122192683D01*
X103599500Y-122192686D01*
X103533608Y-122306812D01*
X103499500Y-122434108D01*
X103499500Y-125495124D01*
X103499118Y-125504853D01*
X103481804Y-125724845D01*
X103478760Y-125744063D01*
X103428387Y-125953881D01*
X103422374Y-125972387D01*
X103339797Y-126171744D01*
X103330964Y-126189080D01*
X103218222Y-126373060D01*
X103206784Y-126388803D01*
X103066644Y-126552886D01*
X103052886Y-126566644D01*
X102888803Y-126706784D01*
X102873060Y-126718222D01*
X102689080Y-126830964D01*
X102671744Y-126839797D01*
X102472387Y-126922374D01*
X102453881Y-126928387D01*
X102244063Y-126978760D01*
X102224845Y-126981804D01*
X102009729Y-126998734D01*
X101990271Y-126998734D01*
X101775154Y-126981804D01*
X101755936Y-126978760D01*
X101546118Y-126928387D01*
X101527612Y-126922374D01*
X101328255Y-126839797D01*
X101310919Y-126830964D01*
X101219890Y-126775182D01*
X101126933Y-126718217D01*
X101111196Y-126706784D01*
X101087281Y-126686359D01*
X100983667Y-126597864D01*
X100947113Y-126566644D01*
X100933355Y-126552886D01*
X100793215Y-126388803D01*
X100781783Y-126373069D01*
X100669034Y-126189078D01*
X100660202Y-126171744D01*
X100601864Y-126030904D01*
X100577623Y-125972380D01*
X100571614Y-125953888D01*
X100521238Y-125744058D01*
X100518195Y-125724845D01*
X100518102Y-125723668D01*
X100500882Y-125504853D01*
X100500500Y-125495124D01*
X100500500Y-114522413D01*
X100520185Y-114455374D01*
X100572989Y-114409619D01*
X100642147Y-114399675D01*
X100699984Y-114424036D01*
X100769660Y-114477501D01*
X100886196Y-114566924D01*
X101113299Y-114698041D01*
X101113309Y-114698046D01*
X101355571Y-114798394D01*
X101355581Y-114798398D01*
X101608884Y-114866270D01*
X101868880Y-114900500D01*
X101868887Y-114900500D01*
X102131113Y-114900500D01*
X102131120Y-114900500D01*
X102391116Y-114866270D01*
X102644419Y-114798398D01*
X102886697Y-114698043D01*
X103113803Y-114566924D01*
X103321851Y-114407282D01*
X103321855Y-114407277D01*
X103321860Y-114407274D01*
X103507274Y-114221860D01*
X103507277Y-114221855D01*
X103507282Y-114221851D01*
X103666924Y-114013803D01*
X103798043Y-113786697D01*
X103798336Y-113785991D01*
X103875582Y-113599502D01*
X103898398Y-113544419D01*
X103966270Y-113291116D01*
X104000500Y-113031120D01*
X104000500Y-112768880D01*
X103966270Y-112508884D01*
X103898398Y-112255581D01*
X103885216Y-112223757D01*
X103798046Y-112013309D01*
X103798041Y-112013299D01*
X103666924Y-111786196D01*
X103507281Y-111578148D01*
X103507274Y-111578140D01*
X103321860Y-111392726D01*
X103321851Y-111392718D01*
X103113803Y-111233075D01*
X102886700Y-111101958D01*
X102886690Y-111101953D01*
X102644428Y-111001605D01*
X102644421Y-111001603D01*
X102644419Y-111001602D01*
X102391116Y-110933730D01*
X102333339Y-110926123D01*
X102131127Y-110899500D01*
X102131120Y-110899500D01*
X101868880Y-110899500D01*
X101868872Y-110899500D01*
X101637772Y-110929926D01*
X101608884Y-110933730D01*
X101450928Y-110976054D01*
X101355581Y-111001602D01*
X101355571Y-111001605D01*
X101113309Y-111101953D01*
X101113299Y-111101958D01*
X100886196Y-111233075D01*
X100699987Y-111375961D01*
X100634818Y-111401156D01*
X100566373Y-111387118D01*
X100516383Y-111338304D01*
X100500500Y-111277586D01*
X100500500Y-104202726D01*
X100520185Y-104135687D01*
X100572989Y-104089932D01*
X100642147Y-104079988D01*
X100705703Y-104109013D01*
X100742431Y-104164408D01*
X100798904Y-104338217D01*
X100895375Y-104527550D01*
X100934728Y-104581716D01*
X101567037Y-103949408D01*
X101584075Y-104012993D01*
X101649901Y-104127007D01*
X101742993Y-104220099D01*
X101857007Y-104285925D01*
X101920590Y-104302962D01*
X101288282Y-104935269D01*
X101288282Y-104935270D01*
X101342449Y-104974624D01*
X101531782Y-105071095D01*
X101733870Y-105136757D01*
X101943754Y-105170000D01*
X102156246Y-105170000D01*
X102366127Y-105136757D01*
X102366130Y-105136757D01*
X102568217Y-105071095D01*
X102757554Y-104974622D01*
X102811716Y-104935270D01*
X102811717Y-104935270D01*
X102179408Y-104302962D01*
X102242993Y-104285925D01*
X102357007Y-104220099D01*
X102450099Y-104127007D01*
X102515925Y-104012993D01*
X102532962Y-103949409D01*
X103165270Y-104581717D01*
X103165270Y-104581716D01*
X103204622Y-104527554D01*
X103301095Y-104338217D01*
X103366757Y-104136130D01*
X103366757Y-104136127D01*
X103400000Y-103926246D01*
X103400000Y-103713753D01*
X103366757Y-103503868D01*
X103301095Y-103301782D01*
X103204624Y-103112449D01*
X103165270Y-103058282D01*
X103165269Y-103058282D01*
X102532962Y-103690590D01*
X102515925Y-103627007D01*
X102450099Y-103512993D01*
X102357007Y-103419901D01*
X102242993Y-103354075D01*
X102179409Y-103337037D01*
X102811716Y-102704728D01*
X102757547Y-102665373D01*
X102757547Y-102665372D01*
X102748500Y-102660763D01*
X102697706Y-102612788D01*
X102680912Y-102544966D01*
X102703451Y-102478832D01*
X102748508Y-102439793D01*
X102757816Y-102435051D01*
X102897326Y-102333692D01*
X102929786Y-102310109D01*
X102929788Y-102310106D01*
X102929792Y-102310104D01*
X103080104Y-102159792D01*
X103080106Y-102159788D01*
X103080109Y-102159786D01*
X103205048Y-101987820D01*
X103205047Y-101987820D01*
X103205051Y-101987816D01*
X103301557Y-101798412D01*
X103367246Y-101596243D01*
X103400500Y-101386287D01*
X103400500Y-101173713D01*
X103367246Y-100963757D01*
X103366484Y-100958945D01*
X103368123Y-100958685D01*
X103371257Y-100896126D01*
X103400655Y-100849289D01*
X104497810Y-99752135D01*
X109519500Y-99752135D01*
X109519500Y-100847870D01*
X109519501Y-100847876D01*
X109525908Y-100907483D01*
X109576202Y-101042328D01*
X109576206Y-101042335D01*
X109662452Y-101157544D01*
X109662455Y-101157547D01*
X109777664Y-101243793D01*
X109777671Y-101243797D01*
X109912517Y-101294091D01*
X109912516Y-101294091D01*
X109919444Y-101294835D01*
X109972127Y-101300500D01*
X111594762Y-101300499D01*
X111651053Y-101314012D01*
X111662555Y-101319873D01*
X111827299Y-101373402D01*
X111998389Y-101400500D01*
X111998390Y-101400500D01*
X118261110Y-101400500D01*
X118261111Y-101400500D01*
X118432201Y-101373402D01*
X118596945Y-101319873D01*
X118608442Y-101314014D01*
X118664737Y-101300499D01*
X120354871Y-101300499D01*
X120354872Y-101300499D01*
X120414483Y-101294091D01*
X120549331Y-101243796D01*
X120664546Y-101157546D01*
X120750796Y-101042331D01*
X120801091Y-100907483D01*
X120807500Y-100847873D01*
X120807499Y-99744128D01*
X120801091Y-99684517D01*
X120798585Y-99677799D01*
X120750797Y-99549671D01*
X120750793Y-99549664D01*
X120664547Y-99434455D01*
X120664544Y-99434452D01*
X120549335Y-99348206D01*
X120549328Y-99348202D01*
X120414482Y-99297908D01*
X120414483Y-99297908D01*
X120354883Y-99291501D01*
X120354881Y-99291500D01*
X120354873Y-99291500D01*
X120354865Y-99291500D01*
X118660886Y-99291500D01*
X118604592Y-99277985D01*
X118600942Y-99276125D01*
X118436198Y-99222597D01*
X118280731Y-99197974D01*
X118265111Y-99195500D01*
X118091889Y-99195500D01*
X118076263Y-99197974D01*
X118056877Y-99199500D01*
X115286611Y-99199500D01*
X111998389Y-99199500D01*
X111966192Y-99204599D01*
X111827301Y-99226597D01*
X111662558Y-99280125D01*
X111662552Y-99280127D01*
X111651055Y-99285986D01*
X111594762Y-99299500D01*
X109972129Y-99299500D01*
X109972123Y-99299501D01*
X109912516Y-99305908D01*
X109777671Y-99356202D01*
X109777664Y-99356206D01*
X109662455Y-99442452D01*
X109662452Y-99442455D01*
X109576206Y-99557664D01*
X109576202Y-99557671D01*
X109525908Y-99692517D01*
X109519501Y-99752116D01*
X109519500Y-99752135D01*
X104497810Y-99752135D01*
X105135277Y-99114669D01*
X105206465Y-99008127D01*
X105255501Y-98889744D01*
X105272543Y-98804069D01*
X105280500Y-98764069D01*
X105280500Y-98621349D01*
X105280659Y-98618216D01*
X105291195Y-98588076D01*
X105300185Y-98557461D01*
X105302642Y-98555331D01*
X105303716Y-98552260D01*
X105328877Y-98532599D01*
X105352989Y-98511706D01*
X105356628Y-98510914D01*
X105358771Y-98509240D01*
X105368422Y-98508348D01*
X105404500Y-98500500D01*
X109465888Y-98500500D01*
X109465892Y-98500500D01*
X109476083Y-98497769D01*
X109545928Y-98499428D01*
X109603793Y-98538587D01*
X109607445Y-98543230D01*
X109662812Y-98617190D01*
X109777906Y-98703350D01*
X109777913Y-98703354D01*
X109912620Y-98753596D01*
X109912627Y-98753598D01*
X109972155Y-98759999D01*
X109972172Y-98760000D01*
X111835000Y-98760000D01*
X112335000Y-98760000D01*
X114197828Y-98760000D01*
X114197844Y-98759999D01*
X114257372Y-98753598D01*
X114257379Y-98753596D01*
X114392086Y-98703354D01*
X114392093Y-98703350D01*
X114507187Y-98617190D01*
X114507190Y-98617187D01*
X114593350Y-98502093D01*
X114593354Y-98502086D01*
X114643596Y-98367379D01*
X114643598Y-98367372D01*
X114649999Y-98307844D01*
X115550000Y-98307844D01*
X115556401Y-98367372D01*
X115556403Y-98367379D01*
X115606645Y-98502086D01*
X115606649Y-98502093D01*
X115692809Y-98617187D01*
X115692812Y-98617190D01*
X115807906Y-98703350D01*
X115807913Y-98703354D01*
X115942620Y-98753596D01*
X115942627Y-98753598D01*
X116002155Y-98759999D01*
X116002172Y-98760000D01*
X117928500Y-98760000D01*
X118428500Y-98760000D01*
X120354828Y-98760000D01*
X120354844Y-98759999D01*
X120414372Y-98753598D01*
X120414379Y-98753596D01*
X120549086Y-98703354D01*
X120549093Y-98703350D01*
X120664187Y-98617190D01*
X120664190Y-98617187D01*
X120750350Y-98502093D01*
X120750354Y-98502086D01*
X120800596Y-98367379D01*
X120800598Y-98367372D01*
X120806999Y-98307844D01*
X120807000Y-98307827D01*
X120807000Y-98010000D01*
X118428500Y-98010000D01*
X118428500Y-98760000D01*
X117928500Y-98760000D01*
X117928500Y-98010000D01*
X115550000Y-98010000D01*
X115550000Y-98307844D01*
X114649999Y-98307844D01*
X114650000Y-98307827D01*
X114650000Y-98010000D01*
X112335000Y-98010000D01*
X112335000Y-98760000D01*
X111835000Y-98760000D01*
X111835000Y-97510000D01*
X112335000Y-97510000D01*
X114650000Y-97510000D01*
X114650000Y-97212172D01*
X114649999Y-97212155D01*
X115550000Y-97212155D01*
X115550000Y-97510000D01*
X117928500Y-97510000D01*
X118428500Y-97510000D01*
X120807000Y-97510000D01*
X120807000Y-97212172D01*
X120806999Y-97212155D01*
X120800598Y-97152627D01*
X120800596Y-97152620D01*
X120750354Y-97017913D01*
X120750350Y-97017906D01*
X120664190Y-96902812D01*
X120664187Y-96902809D01*
X120549093Y-96816649D01*
X120549086Y-96816645D01*
X120414379Y-96766403D01*
X120414372Y-96766401D01*
X120354844Y-96760000D01*
X118428500Y-96760000D01*
X118428500Y-97510000D01*
X117928500Y-97510000D01*
X117928500Y-96760000D01*
X116002155Y-96760000D01*
X115942627Y-96766401D01*
X115942620Y-96766403D01*
X115807913Y-96816645D01*
X115807906Y-96816649D01*
X115692812Y-96902809D01*
X115692809Y-96902812D01*
X115606649Y-97017906D01*
X115606645Y-97017913D01*
X115556403Y-97152620D01*
X115556401Y-97152627D01*
X115550000Y-97212155D01*
X114649999Y-97212155D01*
X114643598Y-97152627D01*
X114643596Y-97152620D01*
X114593354Y-97017913D01*
X114593350Y-97017906D01*
X114507190Y-96902812D01*
X114507187Y-96902809D01*
X114392093Y-96816649D01*
X114392086Y-96816645D01*
X114257379Y-96766403D01*
X114257372Y-96766401D01*
X114197844Y-96760000D01*
X112335000Y-96760000D01*
X112335000Y-97510000D01*
X111835000Y-97510000D01*
X111835000Y-96760000D01*
X110024500Y-96760000D01*
X109957461Y-96740315D01*
X109911706Y-96687511D01*
X109900500Y-96636000D01*
X109900500Y-96123500D01*
X109920185Y-96056461D01*
X109972989Y-96010706D01*
X110024500Y-95999500D01*
X121475500Y-95999500D01*
X121542539Y-96019185D01*
G37*
%TD.AperFunction*%
%TA.AperFunction,Conductor*%
G36*
X126087557Y-121352691D02*
G01*
X126095232Y-121351428D01*
X126120607Y-121362396D01*
X126147132Y-121370185D01*
X126152225Y-121376063D01*
X126159367Y-121379150D01*
X126174787Y-121402101D01*
X126192887Y-121422989D01*
X126193993Y-121430686D01*
X126198333Y-121437145D01*
X126198896Y-121464786D01*
X126202831Y-121492147D01*
X126199599Y-121499223D01*
X126199758Y-121507000D01*
X126185290Y-121530555D01*
X126173806Y-121555703D01*
X126166337Y-121561413D01*
X126163191Y-121566537D01*
X126133895Y-121586220D01*
X126088557Y-121608053D01*
X125850753Y-121757476D01*
X125631175Y-121932583D01*
X125432583Y-122131175D01*
X125257476Y-122350753D01*
X125108053Y-122588557D01*
X124986200Y-122841588D01*
X124893443Y-123106670D01*
X124893439Y-123106682D01*
X124830945Y-123380487D01*
X124830942Y-123380505D01*
X124799500Y-123659568D01*
X124799500Y-123940431D01*
X124830942Y-124219494D01*
X124830945Y-124219512D01*
X124893439Y-124493317D01*
X124893443Y-124493329D01*
X124986200Y-124758411D01*
X125108053Y-125011442D01*
X125108055Y-125011445D01*
X125257477Y-125249248D01*
X125432584Y-125468825D01*
X125631175Y-125667416D01*
X125850752Y-125842523D01*
X126080066Y-125986611D01*
X126088557Y-125991946D01*
X126149117Y-126021110D01*
X126341592Y-126113801D01*
X126507184Y-126171744D01*
X126606670Y-126206556D01*
X126606682Y-126206560D01*
X126880491Y-126269055D01*
X126880497Y-126269055D01*
X126880505Y-126269057D01*
X127066547Y-126290018D01*
X127159569Y-126300499D01*
X127159572Y-126300500D01*
X127159575Y-126300500D01*
X127440428Y-126300500D01*
X127440429Y-126300499D01*
X127583055Y-126284429D01*
X127719494Y-126269057D01*
X127719499Y-126269056D01*
X127719509Y-126269055D01*
X127993318Y-126206560D01*
X128258408Y-126113801D01*
X128511445Y-125991945D01*
X128749248Y-125842523D01*
X128963064Y-125672010D01*
X130050000Y-125672010D01*
X130050000Y-125800000D01*
X131525000Y-125800000D01*
X131525000Y-125000000D01*
X130722010Y-125000000D01*
X130623415Y-125010073D01*
X130463645Y-125063015D01*
X130463634Y-125063020D01*
X130320393Y-125151373D01*
X130320389Y-125151376D01*
X130201376Y-125270389D01*
X130201373Y-125270393D01*
X130113020Y-125413634D01*
X130113015Y-125413645D01*
X130060073Y-125573415D01*
X130050000Y-125672010D01*
X128963064Y-125672010D01*
X128968825Y-125667416D01*
X129167416Y-125468825D01*
X129342523Y-125249248D01*
X129491945Y-125011445D01*
X129613801Y-124758408D01*
X129706560Y-124493318D01*
X129769055Y-124219509D01*
X129770661Y-124205262D01*
X129800499Y-123940431D01*
X129800500Y-123940427D01*
X129800500Y-123659572D01*
X129800499Y-123659568D01*
X129769057Y-123380505D01*
X129769054Y-123380487D01*
X129768981Y-123380169D01*
X129706560Y-123106682D01*
X129698647Y-123084069D01*
X129676660Y-123021234D01*
X129613801Y-122841592D01*
X129491945Y-122588555D01*
X129342523Y-122350752D01*
X129167416Y-122131175D01*
X128968825Y-121932584D01*
X128963084Y-121928006D01*
X128873173Y-121856304D01*
X128749248Y-121757477D01*
X128546168Y-121629873D01*
X128511442Y-121608053D01*
X128466105Y-121586220D01*
X128414246Y-121539397D01*
X128395933Y-121471970D01*
X128416981Y-121405346D01*
X128470707Y-121360678D01*
X128519907Y-121350500D01*
X129925500Y-121350500D01*
X129992539Y-121370185D01*
X130038294Y-121422989D01*
X130049500Y-121474500D01*
X130049500Y-121928019D01*
X130059580Y-122026688D01*
X130109719Y-122177994D01*
X130112560Y-122186569D01*
X130200981Y-122329922D01*
X130320078Y-122449019D01*
X130463431Y-122537440D01*
X130623310Y-122590419D01*
X130721988Y-122600500D01*
X130721993Y-122600500D01*
X132828007Y-122600500D01*
X132828012Y-122600500D01*
X132865398Y-122596680D01*
X132934088Y-122609448D01*
X132984974Y-122657328D01*
X133002000Y-122720038D01*
X133002000Y-124169870D01*
X133002001Y-124169876D01*
X133008408Y-124229483D01*
X133058702Y-124364328D01*
X133058706Y-124364335D01*
X133144952Y-124479544D01*
X133144953Y-124479544D01*
X133144954Y-124479546D01*
X133163350Y-124493317D01*
X133213332Y-124530734D01*
X133255202Y-124586668D01*
X133260186Y-124656360D01*
X133226700Y-124717682D01*
X133213332Y-124729266D01*
X133144952Y-124780455D01*
X133058706Y-124895664D01*
X133058703Y-124895670D01*
X133046229Y-124929115D01*
X133004357Y-124985048D01*
X132938893Y-125009465D01*
X132917445Y-125009139D01*
X132827991Y-125000000D01*
X132025000Y-125000000D01*
X132025000Y-125926000D01*
X132005315Y-125993039D01*
X131952511Y-126038794D01*
X131901000Y-126050000D01*
X131775000Y-126050000D01*
X131775000Y-126176000D01*
X131755315Y-126243039D01*
X131702511Y-126288794D01*
X131651000Y-126300000D01*
X130050000Y-126300000D01*
X130050000Y-126427989D01*
X130060073Y-126526584D01*
X130113015Y-126686354D01*
X130113017Y-126686359D01*
X130189529Y-126810403D01*
X130207969Y-126877795D01*
X130187047Y-126944459D01*
X130133405Y-126989229D01*
X130083990Y-126999500D01*
X124516010Y-126999500D01*
X124448971Y-126979815D01*
X124403216Y-126927011D01*
X124393272Y-126857853D01*
X124410471Y-126810403D01*
X124486982Y-126686359D01*
X124486984Y-126686354D01*
X124539926Y-126526584D01*
X124549999Y-126427989D01*
X124550000Y-126427976D01*
X124550000Y-126300000D01*
X121100000Y-126300000D01*
X121100000Y-126427989D01*
X121110073Y-126526584D01*
X121163015Y-126686354D01*
X121163017Y-126686359D01*
X121239529Y-126810403D01*
X121257969Y-126877795D01*
X121237047Y-126944459D01*
X121183405Y-126989229D01*
X121133990Y-126999500D01*
X116086432Y-126999500D01*
X116019393Y-126979815D01*
X115973638Y-126927011D01*
X115963694Y-126857853D01*
X115987165Y-126801190D01*
X115991074Y-126795967D01*
X115993796Y-126792331D01*
X116044091Y-126657483D01*
X116050500Y-126597873D01*
X116050499Y-126029975D01*
X116070183Y-125962937D01*
X116122987Y-125917182D01*
X116192146Y-125907238D01*
X116199040Y-125908429D01*
X116242394Y-125917182D01*
X116282507Y-125925281D01*
X116282501Y-125925281D01*
X116298821Y-125925561D01*
X116465083Y-125928422D01*
X116645212Y-125898460D01*
X116816941Y-125836385D01*
X116831790Y-125827731D01*
X116838666Y-125823734D01*
X116838950Y-125823657D01*
X116866944Y-125807296D01*
X116870059Y-125806530D01*
X116929262Y-125790499D01*
X118410298Y-125790499D01*
X118410402Y-125790505D01*
X118418605Y-125790504D01*
X118418608Y-125790505D01*
X118450742Y-125790502D01*
X118513305Y-125807435D01*
X118547273Y-125827280D01*
X118548918Y-125828099D01*
X118563077Y-125836351D01*
X118734799Y-125898422D01*
X118914920Y-125928383D01*
X119089081Y-125925386D01*
X119097492Y-125925242D01*
X119276465Y-125889107D01*
X119276467Y-125889106D01*
X119276474Y-125889105D01*
X119445959Y-125821164D01*
X119600346Y-125723665D01*
X119734533Y-125599829D01*
X119802197Y-125509604D01*
X119858167Y-125467781D01*
X119901400Y-125460000D01*
X120400000Y-125460000D01*
X120900000Y-125460000D01*
X120984347Y-125460000D01*
X121051386Y-125479685D01*
X121097141Y-125532489D01*
X121107705Y-125596603D01*
X121100000Y-125672011D01*
X121100000Y-125800000D01*
X122575000Y-125800000D01*
X123075000Y-125800000D01*
X124550000Y-125800000D01*
X124550000Y-125672023D01*
X124549999Y-125672010D01*
X124539926Y-125573415D01*
X124486984Y-125413645D01*
X124486979Y-125413634D01*
X124398626Y-125270393D01*
X124398623Y-125270389D01*
X124279610Y-125151376D01*
X124279606Y-125151373D01*
X124136365Y-125063020D01*
X124136354Y-125063015D01*
X123976583Y-125010073D01*
X123976586Y-125010073D01*
X123877989Y-125000000D01*
X123075000Y-125000000D01*
X123075000Y-125800000D01*
X122575000Y-125800000D01*
X122575000Y-125000000D01*
X122224000Y-125000000D01*
X122156961Y-124980315D01*
X122111206Y-124927511D01*
X122100000Y-124876000D01*
X122100000Y-124800000D01*
X120900000Y-124800000D01*
X120900000Y-125460000D01*
X120400000Y-125460000D01*
X120400000Y-124674000D01*
X120419685Y-124606961D01*
X120472489Y-124561206D01*
X120524000Y-124550000D01*
X120650000Y-124550000D01*
X120650000Y-124424000D01*
X120669685Y-124356961D01*
X120722489Y-124311206D01*
X120774000Y-124300000D01*
X122100000Y-124300000D01*
X122100000Y-124183853D01*
X122085020Y-124070069D01*
X122085018Y-124070064D01*
X122026378Y-123928493D01*
X122026375Y-123928488D01*
X121964521Y-123847878D01*
X121939327Y-123782709D01*
X121953365Y-123714264D01*
X121964517Y-123696912D01*
X122027572Y-123614738D01*
X122085662Y-123474497D01*
X122100500Y-123361789D01*
X122100499Y-122724499D01*
X122120183Y-122657461D01*
X122172987Y-122611706D01*
X122224499Y-122600500D01*
X123878007Y-122600500D01*
X123878012Y-122600500D01*
X123976690Y-122590419D01*
X124136569Y-122537440D01*
X124279922Y-122449019D01*
X124399019Y-122329922D01*
X124487440Y-122186569D01*
X124540419Y-122026690D01*
X124550500Y-121928012D01*
X124550500Y-121520808D01*
X124570185Y-121453769D01*
X124586819Y-121433127D01*
X124633127Y-121386819D01*
X124694450Y-121353334D01*
X124720808Y-121350500D01*
X126080093Y-121350500D01*
X126087557Y-121352691D01*
G37*
%TD.AperFunction*%
%TA.AperFunction,Conductor*%
G36*
X136665039Y-96869185D02*
G01*
X136710794Y-96921989D01*
X136722000Y-96973500D01*
X136722000Y-98746000D01*
X137602000Y-98746000D01*
X137669039Y-98765685D01*
X137714794Y-98818489D01*
X137726000Y-98870000D01*
X137726000Y-98996000D01*
X137806500Y-98996000D01*
X137873539Y-99015685D01*
X137919294Y-99068489D01*
X137930500Y-99120000D01*
X137930500Y-103509846D01*
X137961261Y-103664489D01*
X137961264Y-103664501D01*
X138021602Y-103810172D01*
X138021609Y-103810185D01*
X138109210Y-103941288D01*
X138109213Y-103941292D01*
X140863181Y-106695259D01*
X140896666Y-106756582D01*
X140899500Y-106782940D01*
X140899500Y-114146060D01*
X140930261Y-114300703D01*
X140930264Y-114300715D01*
X140990602Y-114446386D01*
X140990609Y-114446399D01*
X141078210Y-114577502D01*
X141078213Y-114577506D01*
X147942493Y-121441786D01*
X147942497Y-121441789D01*
X148073600Y-121529390D01*
X148073604Y-121529392D01*
X148073607Y-121529394D01*
X148219289Y-121589738D01*
X148373939Y-121620499D01*
X148373943Y-121620500D01*
X148373944Y-121620500D01*
X148866585Y-121620500D01*
X148933624Y-121640185D01*
X148979379Y-121692989D01*
X148982765Y-121701163D01*
X148983375Y-121702797D01*
X149028702Y-121824328D01*
X149028706Y-121824335D01*
X149114952Y-121939544D01*
X149114955Y-121939547D01*
X149183748Y-121991046D01*
X149225619Y-122046980D01*
X149230603Y-122116671D01*
X149197117Y-122177994D01*
X149183749Y-122189578D01*
X149115309Y-122240812D01*
X149029149Y-122355906D01*
X149029145Y-122355913D01*
X148978903Y-122490620D01*
X148978901Y-122490627D01*
X148972500Y-122550155D01*
X148972500Y-123110000D01*
X152997500Y-123110000D01*
X152997500Y-122550172D01*
X152997499Y-122550158D01*
X152990897Y-122488757D01*
X153003301Y-122419997D01*
X153050911Y-122368859D01*
X153114186Y-122351500D01*
X155110629Y-122351500D01*
X155110630Y-122351499D01*
X155265282Y-122320737D01*
X155410964Y-122260394D01*
X155542074Y-122172789D01*
X156221788Y-121493075D01*
X156226295Y-121486330D01*
X156240691Y-121464786D01*
X156309390Y-121361970D01*
X156309390Y-121361969D01*
X156309394Y-121361964D01*
X156362121Y-121234669D01*
X156369737Y-121216283D01*
X156400500Y-121061628D01*
X156400500Y-120903943D01*
X156400500Y-115421158D01*
X156369738Y-115266503D01*
X156309394Y-115120821D01*
X156309392Y-115120818D01*
X156309390Y-115120814D01*
X156221789Y-114989711D01*
X156221786Y-114989707D01*
X153835319Y-112603240D01*
X153801834Y-112541917D01*
X153799000Y-112515559D01*
X153799000Y-112049102D01*
X153818685Y-111982063D01*
X153871489Y-111936308D01*
X153940647Y-111926364D01*
X153955070Y-111929322D01*
X154034108Y-111950500D01*
X154034111Y-111950500D01*
X166565890Y-111950500D01*
X166565892Y-111950500D01*
X166693186Y-111916392D01*
X166807314Y-111850500D01*
X166807316Y-111850497D01*
X166813499Y-111846928D01*
X166881399Y-111830455D01*
X166947426Y-111853307D01*
X166990617Y-111908228D01*
X166999500Y-111954315D01*
X166999500Y-112565891D01*
X167033608Y-112693187D01*
X167054381Y-112729166D01*
X167099500Y-112807314D01*
X167192686Y-112900500D01*
X167306814Y-112966392D01*
X167408095Y-112993529D01*
X167467753Y-113029892D01*
X167498283Y-113092739D01*
X167500000Y-113113303D01*
X167500000Y-113386696D01*
X167480315Y-113453735D01*
X167427511Y-113499490D01*
X167408097Y-113506469D01*
X167366853Y-113517520D01*
X167306812Y-113533608D01*
X167192686Y-113599500D01*
X167192683Y-113599502D01*
X167099502Y-113692683D01*
X167099500Y-113692686D01*
X167033608Y-113806812D01*
X166999500Y-113934108D01*
X166999500Y-115125500D01*
X166979815Y-115192539D01*
X166927011Y-115238294D01*
X166875500Y-115249500D01*
X165834108Y-115249500D01*
X165706812Y-115283608D01*
X165592686Y-115349500D01*
X165592683Y-115349502D01*
X165499502Y-115442683D01*
X165499500Y-115442686D01*
X165433608Y-115556812D01*
X165399500Y-115684108D01*
X165399500Y-120815891D01*
X165433608Y-120943187D01*
X165449924Y-120971446D01*
X165499500Y-121057314D01*
X165592686Y-121150500D01*
X165706814Y-121216392D01*
X165834108Y-121250500D01*
X165965892Y-121250500D01*
X166875500Y-121250500D01*
X166942539Y-121270185D01*
X166988294Y-121322989D01*
X166999500Y-121374500D01*
X166999500Y-125495572D01*
X166999184Y-125504419D01*
X166984869Y-125704557D01*
X166982351Y-125722068D01*
X166940646Y-125913787D01*
X166935662Y-125930763D01*
X166867090Y-126114609D01*
X166859740Y-126130701D01*
X166765711Y-126302904D01*
X166756146Y-126317789D01*
X166638558Y-126474867D01*
X166626972Y-126488237D01*
X166488237Y-126626972D01*
X166474867Y-126638558D01*
X166317789Y-126756146D01*
X166302904Y-126765711D01*
X166130701Y-126859740D01*
X166114609Y-126867090D01*
X165930763Y-126935662D01*
X165913787Y-126940646D01*
X165722068Y-126982351D01*
X165704557Y-126984869D01*
X165523779Y-126997799D01*
X165504417Y-126999184D01*
X165495572Y-126999500D01*
X153084394Y-126999500D01*
X153017355Y-126979815D01*
X152971600Y-126927011D01*
X152961656Y-126857853D01*
X152968212Y-126832168D01*
X152991590Y-126769485D01*
X152991591Y-126769483D01*
X152998000Y-126709873D01*
X152997999Y-125090128D01*
X152991591Y-125030517D01*
X152984476Y-125011442D01*
X152941297Y-124895671D01*
X152941293Y-124895664D01*
X152855047Y-124780455D01*
X152786250Y-124728953D01*
X152744380Y-124673019D01*
X152739396Y-124603327D01*
X152772882Y-124542005D01*
X152786252Y-124530420D01*
X152854689Y-124479188D01*
X152854690Y-124479187D01*
X152940850Y-124364093D01*
X152940854Y-124364086D01*
X152991096Y-124229379D01*
X152991098Y-124229372D01*
X152997499Y-124169844D01*
X152997500Y-124169827D01*
X152997500Y-123610000D01*
X148972500Y-123610000D01*
X148972500Y-124169844D01*
X148978901Y-124229372D01*
X148978903Y-124229379D01*
X149029145Y-124364086D01*
X149029149Y-124364093D01*
X149115308Y-124479186D01*
X149183748Y-124530420D01*
X149199583Y-124551574D01*
X149218268Y-124570258D01*
X149220192Y-124579105D01*
X149225619Y-124586354D01*
X149227503Y-124612710D01*
X149233121Y-124638530D01*
X149229957Y-124647013D01*
X149230603Y-124656046D01*
X149217938Y-124679238D01*
X149208706Y-124703995D01*
X149199265Y-124713435D01*
X149197118Y-124717369D01*
X149183750Y-124728952D01*
X149122554Y-124774765D01*
X149057090Y-124799184D01*
X149048241Y-124799500D01*
X148913389Y-124799500D01*
X148873728Y-124805781D01*
X148742302Y-124826597D01*
X148742299Y-124826598D01*
X148590257Y-124876000D01*
X148577552Y-124880128D01*
X148423211Y-124958768D01*
X148343256Y-125016859D01*
X148283072Y-125060586D01*
X148283070Y-125060588D01*
X148283069Y-125060588D01*
X148160588Y-125183069D01*
X148160588Y-125183070D01*
X148160586Y-125183072D01*
X148158926Y-125185357D01*
X148058768Y-125323211D01*
X147980128Y-125477552D01*
X147980127Y-125477554D01*
X147980127Y-125477555D01*
X147974780Y-125494011D01*
X147926597Y-125642302D01*
X147899500Y-125813389D01*
X147899500Y-125986610D01*
X147925884Y-126153198D01*
X147926598Y-126157701D01*
X147980127Y-126322445D01*
X148058768Y-126476788D01*
X148160586Y-126616928D01*
X148283072Y-126739414D01*
X148332303Y-126775183D01*
X148374968Y-126830512D01*
X148380947Y-126900126D01*
X148348341Y-126961921D01*
X148287502Y-126996278D01*
X148259417Y-126999500D01*
X137114394Y-126999500D01*
X137047355Y-126979815D01*
X137001600Y-126927011D01*
X136991656Y-126857853D01*
X136998212Y-126832168D01*
X137021590Y-126769485D01*
X137021591Y-126769483D01*
X137028000Y-126709873D01*
X137027999Y-125608806D01*
X137047684Y-125541768D01*
X137064313Y-125521131D01*
X139205277Y-123380169D01*
X139276465Y-123273627D01*
X139302926Y-123209744D01*
X139325501Y-123155244D01*
X139350500Y-123029569D01*
X139350500Y-106735931D01*
X139350500Y-106735928D01*
X139325502Y-106610261D01*
X139325501Y-106610260D01*
X139325501Y-106610256D01*
X139276465Y-106491873D01*
X139266334Y-106476711D01*
X139205277Y-106385331D01*
X139205275Y-106385329D01*
X139205273Y-106385326D01*
X139205272Y-106385325D01*
X135812489Y-102992543D01*
X135779004Y-102931220D01*
X135783988Y-102861528D01*
X135825860Y-102805595D01*
X135827250Y-102804568D01*
X135916928Y-102739414D01*
X136039414Y-102616928D01*
X136141232Y-102476788D01*
X136219873Y-102322445D01*
X136273402Y-102157701D01*
X136300500Y-101986611D01*
X136300500Y-101813389D01*
X136300500Y-101489844D01*
X136722000Y-101489844D01*
X136728401Y-101549372D01*
X136728403Y-101549379D01*
X136778645Y-101684086D01*
X136778649Y-101684093D01*
X136864809Y-101799187D01*
X136864812Y-101799190D01*
X136979906Y-101885350D01*
X136979913Y-101885354D01*
X137114620Y-101935596D01*
X137114627Y-101935598D01*
X137174155Y-101941999D01*
X137174172Y-101942000D01*
X137476000Y-101942000D01*
X137476000Y-99246000D01*
X136722000Y-99246000D01*
X136722000Y-101489844D01*
X136300500Y-101489844D01*
X136300500Y-98923389D01*
X136273402Y-98752299D01*
X136219873Y-98587555D01*
X136219870Y-98587549D01*
X136204014Y-98556428D01*
X136190499Y-98500134D01*
X136190499Y-96973500D01*
X136210184Y-96906461D01*
X136262988Y-96860706D01*
X136314499Y-96849500D01*
X136598000Y-96849500D01*
X136665039Y-96869185D01*
G37*
%TD.AperFunction*%
%TA.AperFunction,Conductor*%
G36*
X121267884Y-119620185D02*
G01*
X121313639Y-119672989D01*
X121323583Y-119742147D01*
X121294558Y-119805703D01*
X121288526Y-119812181D01*
X120144727Y-120955979D01*
X120144726Y-120955980D01*
X120079569Y-121053497D01*
X120079568Y-121053498D01*
X120073537Y-121062523D01*
X120073535Y-121062527D01*
X120024499Y-121180909D01*
X120024497Y-121180915D01*
X119999500Y-121306582D01*
X119999500Y-121961398D01*
X119979815Y-122028437D01*
X119927011Y-122074192D01*
X119857853Y-122084136D01*
X119794297Y-122055111D01*
X119776298Y-122035795D01*
X119734563Y-121980144D01*
X119734559Y-121980140D01*
X119600376Y-121856308D01*
X119600372Y-121856305D01*
X119600371Y-121856304D01*
X119445978Y-121758801D01*
X119276487Y-121690857D01*
X119276485Y-121690856D01*
X119276484Y-121690856D01*
X119276479Y-121690855D01*
X119097494Y-121654717D01*
X119097501Y-121654717D01*
X118923200Y-121651719D01*
X118914920Y-121651577D01*
X118914919Y-121651577D01*
X118914917Y-121651577D01*
X118734799Y-121681536D01*
X118734793Y-121681537D01*
X118563064Y-121743611D01*
X118551972Y-121750074D01*
X118547784Y-121752515D01*
X118541381Y-121756238D01*
X118541129Y-121756308D01*
X118513166Y-121772644D01*
X118513086Y-121772691D01*
X118510314Y-121773372D01*
X118450746Y-121789495D01*
X118410511Y-121789492D01*
X118410389Y-121789500D01*
X116929263Y-121789500D01*
X116913694Y-121785312D01*
X116899793Y-121785947D01*
X116867524Y-121772892D01*
X116867053Y-121772766D01*
X116866897Y-121772675D01*
X116838951Y-121756342D01*
X116838538Y-121756228D01*
X116831335Y-121752051D01*
X116831300Y-121752014D01*
X116831113Y-121751921D01*
X116816926Y-121743653D01*
X116816919Y-121743650D01*
X116645209Y-121681583D01*
X116645192Y-121681579D01*
X116465083Y-121651620D01*
X116465080Y-121651620D01*
X116455973Y-121651776D01*
X116282513Y-121654760D01*
X116174038Y-121676661D01*
X116104429Y-121670632D01*
X116049129Y-121627928D01*
X116025696Y-121562105D01*
X116025499Y-121555147D01*
X116025499Y-120199992D01*
X116014999Y-120097203D01*
X115959814Y-119930666D01*
X115872802Y-119789597D01*
X115872802Y-119789596D01*
X115854362Y-119722204D01*
X115875285Y-119655541D01*
X115928927Y-119610771D01*
X115978341Y-119600500D01*
X121200845Y-119600500D01*
X121267884Y-119620185D01*
G37*
%TD.AperFunction*%
%TA.AperFunction,Conductor*%
G36*
X142705703Y-111671595D02*
G01*
X142712181Y-111677627D01*
X148935681Y-117901127D01*
X148969166Y-117962450D01*
X148972000Y-117988808D01*
X148972000Y-119089870D01*
X148972001Y-119089876D01*
X148978408Y-119149483D01*
X149028702Y-119284328D01*
X149028706Y-119284335D01*
X149114952Y-119399544D01*
X149114953Y-119399544D01*
X149114954Y-119399546D01*
X149163947Y-119436222D01*
X149183332Y-119450734D01*
X149225202Y-119506668D01*
X149230186Y-119576360D01*
X149196700Y-119637682D01*
X149183332Y-119649266D01*
X149114952Y-119700455D01*
X149028706Y-119815664D01*
X149028702Y-119815671D01*
X148982767Y-119938833D01*
X148969497Y-119956559D01*
X148960298Y-119976703D01*
X148948966Y-119983985D01*
X148940896Y-119994766D01*
X148920150Y-120002504D01*
X148901520Y-120014477D01*
X148879602Y-120017628D01*
X148875432Y-120019184D01*
X148866585Y-120019500D01*
X148835726Y-120019500D01*
X148768687Y-119999815D01*
X148748045Y-119983181D01*
X142536819Y-113771955D01*
X142503334Y-113710632D01*
X142500500Y-113684274D01*
X142500500Y-111765308D01*
X142520185Y-111698269D01*
X142572989Y-111652514D01*
X142642147Y-111642570D01*
X142705703Y-111671595D01*
G37*
%TD.AperFunction*%
%TA.AperFunction,Conductor*%
G36*
X130592539Y-106719185D02*
G01*
X130638294Y-106771989D01*
X130649500Y-106823500D01*
X130649500Y-107997870D01*
X130649501Y-107997876D01*
X130655908Y-108057483D01*
X130706202Y-108192328D01*
X130706206Y-108192335D01*
X130792452Y-108307544D01*
X130792453Y-108307544D01*
X130792454Y-108307546D01*
X130830081Y-108335713D01*
X130865674Y-108362359D01*
X130907544Y-108418293D01*
X130912528Y-108487985D01*
X130879042Y-108549307D01*
X130865674Y-108560891D01*
X130792452Y-108615705D01*
X130706206Y-108730914D01*
X130706202Y-108730921D01*
X130655908Y-108865767D01*
X130649501Y-108925366D01*
X130649500Y-108925385D01*
X130649500Y-110521120D01*
X130649501Y-110521126D01*
X130655908Y-110580733D01*
X130706202Y-110715578D01*
X130706204Y-110715581D01*
X130719167Y-110732897D01*
X130743585Y-110798361D01*
X130728734Y-110866634D01*
X130679330Y-110916040D01*
X130636090Y-110930148D01*
X130608882Y-110933730D01*
X130355581Y-111001602D01*
X130355571Y-111001605D01*
X130113309Y-111101953D01*
X130113299Y-111101958D01*
X129886196Y-111233075D01*
X129678148Y-111392718D01*
X129492718Y-111578148D01*
X129333075Y-111786196D01*
X129201958Y-112013299D01*
X129201953Y-112013309D01*
X129101605Y-112255571D01*
X129101602Y-112255581D01*
X129033730Y-112508885D01*
X128999500Y-112768872D01*
X128999500Y-113031127D01*
X129013885Y-113140385D01*
X129033730Y-113291116D01*
X129089566Y-113499500D01*
X129101602Y-113544418D01*
X129101605Y-113544428D01*
X129201953Y-113786690D01*
X129201958Y-113786700D01*
X129333075Y-114013803D01*
X129492718Y-114221851D01*
X129492726Y-114221860D01*
X129678140Y-114407274D01*
X129678148Y-114407281D01*
X129886196Y-114566924D01*
X130113299Y-114698041D01*
X130113309Y-114698046D01*
X130355571Y-114798394D01*
X130355581Y-114798398D01*
X130608884Y-114866270D01*
X130868880Y-114900500D01*
X130868887Y-114900500D01*
X131131113Y-114900500D01*
X131131120Y-114900500D01*
X131391116Y-114866270D01*
X131644419Y-114798398D01*
X131886697Y-114698043D01*
X132113803Y-114566924D01*
X132321851Y-114407282D01*
X132321855Y-114407277D01*
X132321860Y-114407274D01*
X132507274Y-114221860D01*
X132507277Y-114221855D01*
X132507282Y-114221851D01*
X132666924Y-114013803D01*
X132770614Y-113834204D01*
X132821179Y-113785991D01*
X132889786Y-113772767D01*
X132954651Y-113798735D01*
X132995180Y-113855649D01*
X133002000Y-113896205D01*
X133002000Y-114009869D01*
X133002001Y-114009876D01*
X133008408Y-114069483D01*
X133058702Y-114204328D01*
X133058706Y-114204335D01*
X133144952Y-114319544D01*
X133144953Y-114319544D01*
X133144954Y-114319546D01*
X133193947Y-114356222D01*
X133213332Y-114370734D01*
X133255202Y-114426668D01*
X133260186Y-114496360D01*
X133226700Y-114557682D01*
X133213332Y-114569266D01*
X133144952Y-114620455D01*
X133058706Y-114735664D01*
X133058702Y-114735671D01*
X133008408Y-114870517D01*
X133005185Y-114900499D01*
X133002001Y-114930123D01*
X133002000Y-114930135D01*
X133002000Y-116549870D01*
X133002001Y-116549876D01*
X133008408Y-116609483D01*
X133058702Y-116744328D01*
X133058706Y-116744335D01*
X133144952Y-116859544D01*
X133144953Y-116859544D01*
X133144954Y-116859546D01*
X133193947Y-116896222D01*
X133213332Y-116910734D01*
X133255202Y-116966668D01*
X133260186Y-117036360D01*
X133226700Y-117097682D01*
X133213332Y-117109266D01*
X133144952Y-117160455D01*
X133058706Y-117275664D01*
X133058702Y-117275671D01*
X133008408Y-117410517D01*
X133002001Y-117470116D01*
X133002000Y-117470135D01*
X133002000Y-118126691D01*
X132982315Y-118193730D01*
X132965681Y-118214372D01*
X131667873Y-119512181D01*
X131606550Y-119545666D01*
X131580192Y-119548500D01*
X128633761Y-119548500D01*
X128566722Y-119528815D01*
X128520967Y-119476011D01*
X128511023Y-119406853D01*
X128526374Y-119362500D01*
X128566390Y-119293189D01*
X128566392Y-119293186D01*
X128600500Y-119165892D01*
X128600500Y-106823500D01*
X128620185Y-106756461D01*
X128672989Y-106710706D01*
X128724500Y-106699500D01*
X130525500Y-106699500D01*
X130592539Y-106719185D01*
G37*
%TD.AperFunction*%
%TA.AperFunction,Conductor*%
G36*
X143943619Y-96229411D02*
G01*
X143987966Y-96257912D01*
X144563181Y-96833127D01*
X144596666Y-96894450D01*
X144599500Y-96920808D01*
X144599500Y-97775001D01*
X144599501Y-97775019D01*
X144610000Y-97877796D01*
X144610001Y-97877799D01*
X144650660Y-98000499D01*
X144665186Y-98044334D01*
X144757288Y-98193656D01*
X144881344Y-98317712D01*
X145030666Y-98409814D01*
X145197203Y-98464999D01*
X145299991Y-98475500D01*
X145475500Y-98475499D01*
X145542539Y-98495183D01*
X145588294Y-98547987D01*
X145599500Y-98599499D01*
X145599500Y-111634723D01*
X145603039Y-111652514D01*
X145604562Y-111660167D01*
X145604562Y-111660171D01*
X145624497Y-111760390D01*
X145624499Y-111760398D01*
X145661820Y-111850500D01*
X145673535Y-111878781D01*
X145725371Y-111956360D01*
X145744726Y-111985327D01*
X145744727Y-111985328D01*
X148935681Y-115176281D01*
X148969166Y-115237604D01*
X148972000Y-115263962D01*
X148972000Y-115798192D01*
X148952315Y-115865231D01*
X148899511Y-115910986D01*
X148830353Y-115920930D01*
X148766797Y-115891905D01*
X148760319Y-115885873D01*
X143886819Y-111012373D01*
X143853334Y-110951050D01*
X143850500Y-110924692D01*
X143850500Y-100025928D01*
X143825502Y-99900260D01*
X143825499Y-99900250D01*
X143819938Y-99886824D01*
X143810499Y-99839372D01*
X143810499Y-96502129D01*
X143810498Y-96502123D01*
X143810497Y-96502116D01*
X143804091Y-96442517D01*
X143784103Y-96388926D01*
X143779119Y-96319234D01*
X143812604Y-96257911D01*
X143873927Y-96224427D01*
X143943619Y-96229411D01*
G37*
%TD.AperFunction*%
%TA.AperFunction,Conductor*%
G36*
X148155703Y-103388227D02*
G01*
X148162181Y-103394259D01*
X151413741Y-106645819D01*
X151447226Y-106707142D01*
X151442242Y-106776834D01*
X151400370Y-106832767D01*
X151334906Y-106857184D01*
X151326060Y-106857500D01*
X149424629Y-106857500D01*
X149424623Y-106857501D01*
X149365016Y-106863908D01*
X149230171Y-106914202D01*
X149230164Y-106914206D01*
X149114955Y-107000452D01*
X149114952Y-107000455D01*
X149028706Y-107115664D01*
X149028702Y-107115671D01*
X148978408Y-107250517D01*
X148972001Y-107310116D01*
X148972000Y-107310135D01*
X148972000Y-108178192D01*
X148952315Y-108245231D01*
X148899511Y-108290986D01*
X148830353Y-108300930D01*
X148766797Y-108271905D01*
X148760319Y-108265873D01*
X147986819Y-107492373D01*
X147953334Y-107431050D01*
X147950500Y-107404692D01*
X147950500Y-103481940D01*
X147970185Y-103414901D01*
X148022989Y-103369146D01*
X148092147Y-103359202D01*
X148155703Y-103388227D01*
G37*
%TD.AperFunction*%
%TA.AperFunction,Conductor*%
G36*
X107868869Y-73000934D02*
G01*
X107888739Y-73003476D01*
X108092113Y-73046432D01*
X108111326Y-73052147D01*
X108305114Y-73127312D01*
X108323155Y-73136047D01*
X108502302Y-73241463D01*
X108518702Y-73252994D01*
X108678516Y-73385897D01*
X108692844Y-73399921D01*
X108829144Y-73556835D01*
X108841024Y-73572982D01*
X108950264Y-73749819D01*
X108959388Y-73767672D01*
X109038701Y-73959800D01*
X109044828Y-73978889D01*
X109092143Y-74181288D01*
X109095113Y-74201116D01*
X109109192Y-74408487D01*
X109108929Y-74428533D01*
X109089406Y-74635473D01*
X109085915Y-74655215D01*
X109033300Y-74856295D01*
X109026674Y-74875216D01*
X108942342Y-75065192D01*
X108932754Y-75082799D01*
X108818903Y-75256710D01*
X108806610Y-75272531D01*
X108752073Y-75332081D01*
X108666526Y-75425490D01*
X108662762Y-75429422D01*
X108654267Y-75437917D01*
X108650963Y-75441101D01*
X108611153Y-75478068D01*
X108605969Y-75484330D01*
X108605691Y-75484099D01*
X108604156Y-75486025D01*
X108604442Y-75486245D01*
X108599502Y-75492682D01*
X108572325Y-75539752D01*
X108572324Y-75539751D01*
X108571157Y-75541771D01*
X108541078Y-75589685D01*
X108538312Y-75598660D01*
X108533611Y-75606804D01*
X108533608Y-75606812D01*
X108519545Y-75659293D01*
X108518277Y-75663698D01*
X108502281Y-75715629D01*
X108501932Y-75725028D01*
X108499500Y-75734108D01*
X108499500Y-75790723D01*
X108499415Y-75793019D01*
X108497403Y-75847320D01*
X108498166Y-75855413D01*
X108497802Y-75855447D01*
X108499500Y-75870484D01*
X108499500Y-77565891D01*
X108533608Y-77693187D01*
X108566554Y-77750250D01*
X108599500Y-77807314D01*
X108692686Y-77900500D01*
X108806814Y-77966392D01*
X108934108Y-78000500D01*
X108934110Y-78000500D01*
X113065890Y-78000500D01*
X113065892Y-78000500D01*
X113193186Y-77966392D01*
X113307314Y-77900500D01*
X113400500Y-77807314D01*
X113466392Y-77693186D01*
X113500500Y-77565892D01*
X113500500Y-77224983D01*
X134524500Y-77224983D01*
X134524500Y-79225001D01*
X134524501Y-79225018D01*
X134535000Y-79327796D01*
X134535001Y-79327799D01*
X134562977Y-79412223D01*
X134590186Y-79494334D01*
X134682288Y-79643656D01*
X134806344Y-79767712D01*
X134955666Y-79859814D01*
X135122203Y-79914999D01*
X135224991Y-79925500D01*
X136625008Y-79925499D01*
X136727797Y-79914999D01*
X136894334Y-79859814D01*
X137043656Y-79767712D01*
X137167712Y-79643656D01*
X137259814Y-79494334D01*
X137314999Y-79327797D01*
X137325500Y-79225009D01*
X137325499Y-77224992D01*
X137325498Y-77224983D01*
X140674500Y-77224983D01*
X140674500Y-79225001D01*
X140674501Y-79225018D01*
X140685000Y-79327796D01*
X140685001Y-79327799D01*
X140712977Y-79412223D01*
X140740186Y-79494334D01*
X140832288Y-79643656D01*
X140956344Y-79767712D01*
X141105666Y-79859814D01*
X141272203Y-79914999D01*
X141374991Y-79925500D01*
X142775008Y-79925499D01*
X142877797Y-79914999D01*
X143044334Y-79859814D01*
X143193656Y-79767712D01*
X143317712Y-79643656D01*
X143409814Y-79494334D01*
X143464999Y-79327797D01*
X143475500Y-79225009D01*
X143475499Y-77224992D01*
X143464999Y-77122203D01*
X143409814Y-76955666D01*
X143317712Y-76806344D01*
X143193656Y-76682288D01*
X143044334Y-76590186D01*
X142877797Y-76535001D01*
X142877795Y-76535000D01*
X142775010Y-76524500D01*
X141374998Y-76524500D01*
X141374981Y-76524501D01*
X141272203Y-76535000D01*
X141272200Y-76535001D01*
X141105668Y-76590185D01*
X141105663Y-76590187D01*
X140956342Y-76682289D01*
X140832289Y-76806342D01*
X140740187Y-76955663D01*
X140740186Y-76955666D01*
X140685001Y-77122203D01*
X140685001Y-77122204D01*
X140685000Y-77122204D01*
X140674500Y-77224983D01*
X137325498Y-77224983D01*
X137314999Y-77122203D01*
X137259814Y-76955666D01*
X137167712Y-76806344D01*
X137043656Y-76682288D01*
X136894334Y-76590186D01*
X136727797Y-76535001D01*
X136727795Y-76535000D01*
X136625010Y-76524500D01*
X135224998Y-76524500D01*
X135224981Y-76524501D01*
X135122203Y-76535000D01*
X135122200Y-76535001D01*
X134955668Y-76590185D01*
X134955663Y-76590187D01*
X134806342Y-76682289D01*
X134682289Y-76806342D01*
X134590187Y-76955663D01*
X134590186Y-76955666D01*
X134535001Y-77122203D01*
X134535001Y-77122204D01*
X134535000Y-77122204D01*
X134524500Y-77224983D01*
X113500500Y-77224983D01*
X113500500Y-74504427D01*
X113500816Y-74495581D01*
X113505382Y-74431735D01*
X113515131Y-74295434D01*
X113517646Y-74277938D01*
X113559356Y-74086199D01*
X113564333Y-74069248D01*
X113632911Y-73885385D01*
X113640259Y-73869298D01*
X113657401Y-73837904D01*
X113734291Y-73697089D01*
X113743845Y-73682221D01*
X113861448Y-73525123D01*
X113873020Y-73511769D01*
X114011769Y-73373020D01*
X114025123Y-73361448D01*
X114182221Y-73243845D01*
X114197089Y-73234291D01*
X114369298Y-73140258D01*
X114385385Y-73132911D01*
X114569248Y-73064333D01*
X114586199Y-73059356D01*
X114777938Y-73017646D01*
X114795436Y-73015130D01*
X114995582Y-73000816D01*
X115004428Y-73000500D01*
X115065892Y-73000500D01*
X165434108Y-73000500D01*
X165495572Y-73000500D01*
X165504418Y-73000816D01*
X165704561Y-73015130D01*
X165722063Y-73017647D01*
X165913797Y-73059355D01*
X165930755Y-73064334D01*
X166099603Y-73127312D01*
X166114609Y-73132909D01*
X166130701Y-73140259D01*
X166302904Y-73234288D01*
X166317784Y-73243849D01*
X166474867Y-73361441D01*
X166488237Y-73373027D01*
X166626972Y-73511762D01*
X166638558Y-73525132D01*
X166756146Y-73682210D01*
X166765711Y-73697095D01*
X166859740Y-73869298D01*
X166867090Y-73885390D01*
X166935662Y-74069236D01*
X166940646Y-74086212D01*
X166982351Y-74277931D01*
X166984869Y-74295442D01*
X166999184Y-74495580D01*
X166999500Y-74504427D01*
X166999500Y-85934108D01*
X166999500Y-86065892D01*
X167010063Y-86105313D01*
X167033608Y-86193187D01*
X167066554Y-86250250D01*
X167099500Y-86307314D01*
X167192686Y-86400500D01*
X167306814Y-86466392D01*
X167408095Y-86493529D01*
X167467753Y-86529892D01*
X167498283Y-86592739D01*
X167500000Y-86613303D01*
X167500000Y-86886696D01*
X167480315Y-86953735D01*
X167427511Y-86999490D01*
X167408097Y-87006469D01*
X167366853Y-87017520D01*
X167306812Y-87033608D01*
X167192686Y-87099500D01*
X167192683Y-87099502D01*
X167099502Y-87192683D01*
X167099500Y-87192686D01*
X167033608Y-87306812D01*
X166999500Y-87434108D01*
X166999500Y-108145684D01*
X166979815Y-108212723D01*
X166927011Y-108258478D01*
X166857853Y-108268422D01*
X166813500Y-108253071D01*
X166693189Y-108183609D01*
X166693186Y-108183608D01*
X166565892Y-108149500D01*
X154165892Y-108149500D01*
X154034108Y-108149500D01*
X153955092Y-108170671D01*
X153885243Y-108169009D01*
X153827381Y-108129846D01*
X153799877Y-108065618D01*
X153799000Y-108050897D01*
X153799000Y-107019655D01*
X153798999Y-107019653D01*
X153778024Y-106914206D01*
X153768237Y-106865003D01*
X153767784Y-106863909D01*
X153707897Y-106719327D01*
X153707890Y-106719314D01*
X153620290Y-106588212D01*
X153620289Y-106588211D01*
X153508789Y-106476711D01*
X149660289Y-102628211D01*
X148787819Y-101755741D01*
X148754334Y-101694418D01*
X148751500Y-101668060D01*
X148751500Y-98599499D01*
X148771185Y-98532460D01*
X148823989Y-98486705D01*
X148875500Y-98475499D01*
X149300002Y-98475499D01*
X149300008Y-98475499D01*
X149402797Y-98464999D01*
X149569334Y-98409814D01*
X149718656Y-98317712D01*
X149842712Y-98193656D01*
X149934814Y-98044334D01*
X149989999Y-97877797D01*
X150000500Y-97775009D01*
X150000499Y-96424992D01*
X149989999Y-96322203D01*
X149934814Y-96155666D01*
X149919903Y-96131491D01*
X154499500Y-96131491D01*
X154499500Y-96468508D01*
X154537231Y-96803381D01*
X154537233Y-96803397D01*
X154612223Y-97131953D01*
X154612227Y-97131965D01*
X154723532Y-97450054D01*
X154869752Y-97753683D01*
X154883152Y-97775009D01*
X155049054Y-98039039D01*
X155259175Y-98302523D01*
X155497477Y-98540825D01*
X155760961Y-98750946D01*
X156046314Y-98930246D01*
X156349949Y-99076469D01*
X156588848Y-99160063D01*
X156668034Y-99187772D01*
X156668046Y-99187776D01*
X156996606Y-99262767D01*
X157331492Y-99300499D01*
X157331493Y-99300500D01*
X157331496Y-99300500D01*
X157668507Y-99300500D01*
X157668507Y-99300499D01*
X158003394Y-99262767D01*
X158331954Y-99187776D01*
X158650051Y-99076469D01*
X158953686Y-98930246D01*
X159239039Y-98750946D01*
X159502523Y-98540825D01*
X159740825Y-98302523D01*
X159950946Y-98039039D01*
X160130246Y-97753686D01*
X160276469Y-97450051D01*
X160387776Y-97131954D01*
X160462767Y-96803394D01*
X160500500Y-96468504D01*
X160500500Y-96131496D01*
X160462767Y-95796606D01*
X160387776Y-95468046D01*
X160276469Y-95149949D01*
X160130246Y-94846314D01*
X159950946Y-94560961D01*
X159740825Y-94297477D01*
X159502523Y-94059175D01*
X159239039Y-93849054D01*
X158953686Y-93669754D01*
X158953683Y-93669752D01*
X158650054Y-93523532D01*
X158331965Y-93412227D01*
X158331953Y-93412223D01*
X158003397Y-93337233D01*
X158003381Y-93337231D01*
X157668508Y-93299500D01*
X157668504Y-93299500D01*
X157331496Y-93299500D01*
X157331491Y-93299500D01*
X156996618Y-93337231D01*
X156996602Y-93337233D01*
X156668046Y-93412223D01*
X156668034Y-93412227D01*
X156349945Y-93523532D01*
X156046316Y-93669752D01*
X155760962Y-93849053D01*
X155497477Y-94059174D01*
X155259174Y-94297477D01*
X155049053Y-94560962D01*
X154869752Y-94846316D01*
X154723532Y-95149945D01*
X154612227Y-95468034D01*
X154612223Y-95468046D01*
X154537233Y-95796602D01*
X154537231Y-95796618D01*
X154499500Y-96131491D01*
X149919903Y-96131491D01*
X149842712Y-96006344D01*
X149774049Y-95937681D01*
X149740564Y-95876358D01*
X149745548Y-95806666D01*
X149774049Y-95762319D01*
X149842712Y-95693656D01*
X149934814Y-95544334D01*
X149989999Y-95377797D01*
X150000500Y-95275009D01*
X150000499Y-93924992D01*
X149989999Y-93822203D01*
X149934814Y-93655666D01*
X149842712Y-93506344D01*
X149718656Y-93382288D01*
X149588966Y-93302295D01*
X149569336Y-93290187D01*
X149569331Y-93290185D01*
X149567862Y-93289698D01*
X149402797Y-93235001D01*
X149402795Y-93235000D01*
X149300016Y-93224500D01*
X149300009Y-93224500D01*
X148875500Y-93224500D01*
X148808461Y-93204815D01*
X148762706Y-93152011D01*
X148751500Y-93100500D01*
X148751500Y-89972157D01*
X148751499Y-89972156D01*
X148739589Y-89912276D01*
X148739589Y-89912272D01*
X148720739Y-89817510D01*
X148720738Y-89817503D01*
X148660394Y-89671821D01*
X148660392Y-89671818D01*
X148660390Y-89671814D01*
X148572789Y-89540711D01*
X148572786Y-89540707D01*
X147121904Y-88089825D01*
X147088419Y-88028502D01*
X147093403Y-87958810D01*
X147114791Y-87925550D01*
X147113234Y-87924319D01*
X147117705Y-87918662D01*
X147117712Y-87918656D01*
X147209814Y-87769334D01*
X147264999Y-87602797D01*
X147275500Y-87500009D01*
X147275499Y-86599992D01*
X147264999Y-86497203D01*
X147209814Y-86330666D01*
X147117712Y-86181344D01*
X146993656Y-86057288D01*
X146900888Y-86000069D01*
X146844336Y-85965187D01*
X146844335Y-85965186D01*
X146844334Y-85965186D01*
X146785493Y-85945688D01*
X146728051Y-85905916D01*
X146701228Y-85841400D01*
X146700500Y-85827983D01*
X146700500Y-84921155D01*
X146700499Y-84921153D01*
X146669738Y-84766510D01*
X146669737Y-84766503D01*
X146663293Y-84750946D01*
X146609397Y-84620827D01*
X146609390Y-84620814D01*
X146521790Y-84489712D01*
X146502337Y-84470259D01*
X146410289Y-84378211D01*
X145588420Y-83556342D01*
X144610291Y-82578212D01*
X144610288Y-82578210D01*
X144479185Y-82490609D01*
X144479172Y-82490602D01*
X144333501Y-82430264D01*
X144333489Y-82430261D01*
X144178845Y-82399500D01*
X144178842Y-82399500D01*
X137578842Y-82399500D01*
X137421157Y-82399500D01*
X137421154Y-82399500D01*
X137266509Y-82430261D01*
X137266497Y-82430264D01*
X137223832Y-82447936D01*
X137223833Y-82447937D01*
X137120823Y-82490604D01*
X137120814Y-82490609D01*
X136989712Y-82578209D01*
X136989710Y-82578212D01*
X136329740Y-83238181D01*
X136268417Y-83271666D01*
X136242059Y-83274500D01*
X135224998Y-83274500D01*
X135224980Y-83274501D01*
X135122203Y-83285000D01*
X135122200Y-83285001D01*
X134955668Y-83340185D01*
X134955663Y-83340187D01*
X134806342Y-83432289D01*
X134682289Y-83556342D01*
X134590187Y-83705663D01*
X134590186Y-83705666D01*
X134535001Y-83872203D01*
X134535001Y-83872204D01*
X134535000Y-83872204D01*
X134524500Y-83974983D01*
X134524500Y-85975001D01*
X134524501Y-85975018D01*
X134535000Y-86077796D01*
X134535001Y-86077799D01*
X134579902Y-86213299D01*
X134590186Y-86244334D01*
X134682288Y-86393656D01*
X134806344Y-86517712D01*
X134955666Y-86609814D01*
X135122203Y-86664999D01*
X135224991Y-86675500D01*
X136625008Y-86675499D01*
X136727797Y-86664999D01*
X136894334Y-86609814D01*
X137043656Y-86517712D01*
X137167712Y-86393656D01*
X137259814Y-86244334D01*
X137314999Y-86077797D01*
X137325500Y-85975009D01*
X137325499Y-84557939D01*
X137345184Y-84490901D01*
X137361818Y-84470259D01*
X137795259Y-84036819D01*
X137856582Y-84003334D01*
X137882940Y-84000500D01*
X140550500Y-84000500D01*
X140617539Y-84020185D01*
X140663294Y-84072989D01*
X140674500Y-84124500D01*
X140674500Y-85975001D01*
X140674501Y-85975018D01*
X140685000Y-86077796D01*
X140685001Y-86077799D01*
X140729902Y-86213299D01*
X140740186Y-86244334D01*
X140832288Y-86393656D01*
X140956344Y-86517712D01*
X141105666Y-86609814D01*
X141189505Y-86637595D01*
X141246948Y-86677366D01*
X141273772Y-86741882D01*
X141274500Y-86755300D01*
X141274500Y-87330500D01*
X141254815Y-87397539D01*
X141202011Y-87443294D01*
X141150500Y-87454500D01*
X133836980Y-87454500D01*
X133682337Y-87485260D01*
X133682329Y-87485262D01*
X133536651Y-87545604D01*
X133536641Y-87545609D01*
X133405538Y-87633210D01*
X133405534Y-87633213D01*
X133059235Y-87979512D01*
X132997912Y-88012997D01*
X132928220Y-88008013D01*
X132872287Y-87966141D01*
X132847870Y-87900677D01*
X132856992Y-87844380D01*
X132898398Y-87744419D01*
X132966270Y-87491116D01*
X133000500Y-87231120D01*
X133000500Y-86968880D01*
X132966270Y-86708884D01*
X132898398Y-86455581D01*
X132875582Y-86400499D01*
X132798046Y-86213309D01*
X132798041Y-86213299D01*
X132666924Y-85986196D01*
X132544424Y-85826554D01*
X132507282Y-85778149D01*
X132507281Y-85778148D01*
X132507274Y-85778140D01*
X132321860Y-85592726D01*
X132321851Y-85592718D01*
X132113803Y-85433075D01*
X131886700Y-85301958D01*
X131886690Y-85301953D01*
X131644428Y-85201605D01*
X131644421Y-85201603D01*
X131644419Y-85201602D01*
X131391116Y-85133730D01*
X131333339Y-85126123D01*
X131131127Y-85099500D01*
X131131120Y-85099500D01*
X130868880Y-85099500D01*
X130868872Y-85099500D01*
X130637772Y-85129926D01*
X130608884Y-85133730D01*
X130407196Y-85187772D01*
X130355581Y-85201602D01*
X130355571Y-85201605D01*
X130113309Y-85301953D01*
X130113299Y-85301958D01*
X129886196Y-85433075D01*
X129678148Y-85592718D01*
X129492718Y-85778148D01*
X129333075Y-85986196D01*
X129201958Y-86213299D01*
X129201953Y-86213309D01*
X129101605Y-86455571D01*
X129101602Y-86455581D01*
X129042676Y-86675499D01*
X129033730Y-86708885D01*
X128999500Y-86968872D01*
X128999500Y-87231127D01*
X129020436Y-87390140D01*
X129033730Y-87491116D01*
X129098831Y-87734076D01*
X129101602Y-87744418D01*
X129101605Y-87744428D01*
X129201953Y-87986690D01*
X129201958Y-87986700D01*
X129333075Y-88213803D01*
X129492718Y-88421851D01*
X129492726Y-88421860D01*
X129678140Y-88607274D01*
X129678148Y-88607281D01*
X129886196Y-88766924D01*
X130113299Y-88898041D01*
X130113309Y-88898046D01*
X130355571Y-88998394D01*
X130355581Y-88998398D01*
X130608884Y-89066270D01*
X130868880Y-89100500D01*
X130868887Y-89100500D01*
X131131113Y-89100500D01*
X131131120Y-89100500D01*
X131391116Y-89066270D01*
X131644419Y-88998398D01*
X131744380Y-88956992D01*
X131813847Y-88949524D01*
X131876326Y-88980798D01*
X131911979Y-89040887D01*
X131909486Y-89110712D01*
X131879512Y-89159235D01*
X128812181Y-92226567D01*
X128750858Y-92260052D01*
X128681166Y-92255068D01*
X128625233Y-92213196D01*
X128600816Y-92147732D01*
X128600500Y-92138886D01*
X128600500Y-82131491D01*
X154499500Y-82131491D01*
X154499500Y-82468508D01*
X154537231Y-82803381D01*
X154537233Y-82803397D01*
X154612223Y-83131953D01*
X154612227Y-83131965D01*
X154723532Y-83450054D01*
X154869752Y-83753683D01*
X154869754Y-83753686D01*
X155049054Y-84039039D01*
X155259175Y-84302523D01*
X155497477Y-84540825D01*
X155760961Y-84750946D01*
X156046314Y-84930246D01*
X156349949Y-85076469D01*
X156588848Y-85160063D01*
X156668034Y-85187772D01*
X156668046Y-85187776D01*
X156996606Y-85262767D01*
X157331492Y-85300499D01*
X157331493Y-85300500D01*
X157331496Y-85300500D01*
X157668507Y-85300500D01*
X157668507Y-85300499D01*
X158003394Y-85262767D01*
X158331954Y-85187776D01*
X158650051Y-85076469D01*
X158953686Y-84930246D01*
X159239039Y-84750946D01*
X159502523Y-84540825D01*
X159740825Y-84302523D01*
X159950946Y-84039039D01*
X160130246Y-83753686D01*
X160276469Y-83450051D01*
X160387776Y-83131954D01*
X160462767Y-82803394D01*
X160500500Y-82468504D01*
X160500500Y-82131496D01*
X160462767Y-81796606D01*
X160387776Y-81468046D01*
X160276469Y-81149949D01*
X160130246Y-80846314D01*
X159950946Y-80560961D01*
X159740825Y-80297477D01*
X159502523Y-80059175D01*
X159239039Y-79849054D01*
X158953686Y-79669754D01*
X158953683Y-79669752D01*
X158650054Y-79523532D01*
X158331965Y-79412227D01*
X158331953Y-79412223D01*
X158003397Y-79337233D01*
X158003381Y-79337231D01*
X157668508Y-79299500D01*
X157668504Y-79299500D01*
X157331496Y-79299500D01*
X157331491Y-79299500D01*
X156996618Y-79337231D01*
X156996602Y-79337233D01*
X156668046Y-79412223D01*
X156668034Y-79412227D01*
X156349945Y-79523532D01*
X156046316Y-79669752D01*
X155760962Y-79849053D01*
X155497477Y-80059174D01*
X155259174Y-80297477D01*
X155049053Y-80560962D01*
X154869752Y-80846316D01*
X154723532Y-81149945D01*
X154612227Y-81468034D01*
X154612223Y-81468046D01*
X154537233Y-81796602D01*
X154537231Y-81796618D01*
X154499500Y-82131491D01*
X128600500Y-82131491D01*
X128600500Y-80834110D01*
X128600500Y-80834108D01*
X128566392Y-80706814D01*
X128500500Y-80592686D01*
X128407314Y-80499500D01*
X128350250Y-80466554D01*
X128293187Y-80433608D01*
X128192438Y-80406613D01*
X128165892Y-80399500D01*
X104965892Y-80399500D01*
X104834108Y-80399500D01*
X104706812Y-80433608D01*
X104592686Y-80499500D01*
X104592683Y-80499502D01*
X104499502Y-80592683D01*
X104499500Y-80592686D01*
X104433608Y-80706812D01*
X104399500Y-80834108D01*
X104399500Y-93305612D01*
X104397263Y-93313229D01*
X104398533Y-93321064D01*
X104387560Y-93346271D01*
X104379815Y-93372651D01*
X104373105Y-93379481D01*
X104370648Y-93385128D01*
X104344394Y-93408712D01*
X104316631Y-93427263D01*
X104316630Y-93427264D01*
X104238882Y-93479212D01*
X102904913Y-94813181D01*
X102843590Y-94846666D01*
X102817232Y-94849500D01*
X101152129Y-94849500D01*
X101152123Y-94849501D01*
X101092516Y-94855908D01*
X100957671Y-94906202D01*
X100957664Y-94906206D01*
X100842455Y-94992452D01*
X100842452Y-94992455D01*
X100756206Y-95107664D01*
X100756202Y-95107671D01*
X100740682Y-95149284D01*
X100698811Y-95205218D01*
X100633346Y-95229635D01*
X100565073Y-95214783D01*
X100515668Y-95165378D01*
X100500500Y-95105951D01*
X100500500Y-88722413D01*
X100520185Y-88655374D01*
X100572989Y-88609619D01*
X100642147Y-88599675D01*
X100699984Y-88624036D01*
X100805711Y-88705165D01*
X100886196Y-88766924D01*
X101113299Y-88898041D01*
X101113309Y-88898046D01*
X101355571Y-88998394D01*
X101355581Y-88998398D01*
X101608884Y-89066270D01*
X101868880Y-89100500D01*
X101868887Y-89100500D01*
X102131113Y-89100500D01*
X102131120Y-89100500D01*
X102391116Y-89066270D01*
X102644419Y-88998398D01*
X102886697Y-88898043D01*
X103113803Y-88766924D01*
X103321851Y-88607282D01*
X103321855Y-88607277D01*
X103321860Y-88607274D01*
X103507274Y-88421860D01*
X103507277Y-88421855D01*
X103507282Y-88421851D01*
X103666924Y-88213803D01*
X103798043Y-87986697D01*
X103898398Y-87744419D01*
X103966270Y-87491116D01*
X104000500Y-87231120D01*
X104000500Y-86968880D01*
X103966270Y-86708884D01*
X103898398Y-86455581D01*
X103875582Y-86400499D01*
X103798046Y-86213309D01*
X103798041Y-86213299D01*
X103666924Y-85986196D01*
X103544424Y-85826554D01*
X103507282Y-85778149D01*
X103507281Y-85778148D01*
X103507274Y-85778140D01*
X103321860Y-85592726D01*
X103321851Y-85592718D01*
X103113803Y-85433075D01*
X102886700Y-85301958D01*
X102886690Y-85301953D01*
X102644428Y-85201605D01*
X102644421Y-85201603D01*
X102644419Y-85201602D01*
X102391116Y-85133730D01*
X102333339Y-85126123D01*
X102131127Y-85099500D01*
X102131120Y-85099500D01*
X101868880Y-85099500D01*
X101868872Y-85099500D01*
X101637772Y-85129926D01*
X101608884Y-85133730D01*
X101407196Y-85187772D01*
X101355581Y-85201602D01*
X101355571Y-85201605D01*
X101113309Y-85301953D01*
X101113299Y-85301958D01*
X100886196Y-85433075D01*
X100699987Y-85575961D01*
X100634818Y-85601156D01*
X100566373Y-85587118D01*
X100516383Y-85538304D01*
X100500500Y-85477586D01*
X100500500Y-74504427D01*
X100500816Y-74495581D01*
X100505382Y-74431735D01*
X100515131Y-74295434D01*
X100517646Y-74277938D01*
X100559356Y-74086199D01*
X100564333Y-74069248D01*
X100632911Y-73885385D01*
X100640259Y-73869298D01*
X100657401Y-73837904D01*
X100734291Y-73697089D01*
X100743845Y-73682221D01*
X100861448Y-73525123D01*
X100873020Y-73511769D01*
X101011769Y-73373020D01*
X101025123Y-73361448D01*
X101182221Y-73243845D01*
X101197089Y-73234291D01*
X101369298Y-73140258D01*
X101385385Y-73132911D01*
X101569248Y-73064333D01*
X101586199Y-73059356D01*
X101777938Y-73017646D01*
X101795436Y-73015130D01*
X101991164Y-73001132D01*
X102008836Y-73001132D01*
X102204561Y-73015130D01*
X102222063Y-73017647D01*
X102413797Y-73059355D01*
X102430755Y-73064334D01*
X102599603Y-73127312D01*
X102614609Y-73132909D01*
X102630701Y-73140259D01*
X102802904Y-73234288D01*
X102817784Y-73243849D01*
X102974867Y-73361441D01*
X102988237Y-73373027D01*
X103126972Y-73511762D01*
X103138558Y-73525132D01*
X103256146Y-73682210D01*
X103265711Y-73697095D01*
X103359740Y-73869298D01*
X103367090Y-73885390D01*
X103435662Y-74069236D01*
X103440646Y-74086212D01*
X103482351Y-74277931D01*
X103484869Y-74295442D01*
X103499184Y-74495580D01*
X103499500Y-74504427D01*
X103499500Y-77565891D01*
X103533608Y-77693187D01*
X103566554Y-77750250D01*
X103599500Y-77807314D01*
X103692686Y-77900500D01*
X103806814Y-77966392D01*
X103934108Y-78000500D01*
X103934110Y-78000500D01*
X106565890Y-78000500D01*
X106565892Y-78000500D01*
X106693186Y-77966392D01*
X106807314Y-77900500D01*
X106900500Y-77807314D01*
X106966392Y-77693186D01*
X107000500Y-77565892D01*
X107000500Y-75925604D01*
X107004666Y-75899034D01*
X107000500Y-75859981D01*
X107000500Y-75820713D01*
X106996038Y-75804065D01*
X106992514Y-75785127D01*
X106990687Y-75767994D01*
X106976556Y-75731352D01*
X106966392Y-75693419D01*
X106952944Y-75670127D01*
X106943268Y-75645036D01*
X106924023Y-75618634D01*
X106916840Y-75607592D01*
X106900502Y-75579294D01*
X106900498Y-75579289D01*
X106881482Y-75560273D01*
X106865641Y-75538541D01*
X106835085Y-75513876D01*
X106807314Y-75486105D01*
X106807312Y-75486104D01*
X106800863Y-75481155D01*
X106800892Y-75481116D01*
X106785002Y-75469240D01*
X106656417Y-75347014D01*
X106643062Y-75332084D01*
X106517450Y-75166468D01*
X106506672Y-75149578D01*
X106409389Y-74965883D01*
X106401472Y-74947470D01*
X106384207Y-74896262D01*
X106335066Y-74750505D01*
X106330218Y-74731052D01*
X106316117Y-74645483D01*
X106296421Y-74525965D01*
X106294772Y-74505988D01*
X106294663Y-74431735D01*
X106294467Y-74298121D01*
X106296058Y-74278154D01*
X106329255Y-74072953D01*
X106334040Y-74053510D01*
X106399874Y-73856332D01*
X106407731Y-73837912D01*
X106504479Y-73653922D01*
X106515209Y-73637000D01*
X106569915Y-73564431D01*
X106640335Y-73471016D01*
X106653649Y-73456046D01*
X106803888Y-73312396D01*
X106819440Y-73299766D01*
X106990869Y-73182201D01*
X107008254Y-73172242D01*
X107196387Y-73083841D01*
X107215154Y-73076813D01*
X107415068Y-73019886D01*
X107434718Y-73015975D01*
X107641200Y-72992007D01*
X107661223Y-72991314D01*
X107868869Y-73000934D01*
G37*
%TD.AperFunction*%
%TA.AperFunction,Conductor*%
G36*
X138943702Y-90682094D02*
G01*
X138950180Y-90688126D01*
X139233181Y-90971127D01*
X139266666Y-91032450D01*
X139269500Y-91058808D01*
X139269500Y-94697870D01*
X139269501Y-94697876D01*
X139275908Y-94757483D01*
X139326202Y-94892328D01*
X139326206Y-94892335D01*
X139412452Y-95007544D01*
X139412455Y-95007547D01*
X139527664Y-95093793D01*
X139527671Y-95093797D01*
X139560258Y-95105951D01*
X139662517Y-95144091D01*
X139722127Y-95150500D01*
X140279190Y-95150499D01*
X140346229Y-95170183D01*
X140366871Y-95186818D01*
X140686325Y-95506272D01*
X140686332Y-95506278D01*
X140792863Y-95577459D01*
X140792867Y-95577461D01*
X140792874Y-95577466D01*
X140846070Y-95599500D01*
X140911256Y-95626501D01*
X140911260Y-95626501D01*
X140911261Y-95626502D01*
X141036928Y-95651500D01*
X141036931Y-95651500D01*
X141165069Y-95651500D01*
X143330192Y-95651500D01*
X143397231Y-95671185D01*
X143417873Y-95687819D01*
X143602087Y-95872033D01*
X143635572Y-95933356D01*
X143630588Y-96003048D01*
X143588716Y-96058981D01*
X143523252Y-96083398D01*
X143471074Y-96075896D01*
X143417485Y-96055909D01*
X143417483Y-96055908D01*
X143357883Y-96049501D01*
X143357881Y-96049500D01*
X143357873Y-96049500D01*
X143357864Y-96049500D01*
X142254129Y-96049500D01*
X142254123Y-96049501D01*
X142194516Y-96055908D01*
X142059671Y-96106202D01*
X142059664Y-96106206D01*
X141944455Y-96192452D01*
X141944452Y-96192455D01*
X141858206Y-96307664D01*
X141858202Y-96307671D01*
X141807908Y-96442517D01*
X141801675Y-96500500D01*
X141801501Y-96502123D01*
X141801500Y-96502135D01*
X141801500Y-101489870D01*
X141801501Y-101489876D01*
X141807908Y-101549483D01*
X141858202Y-101684328D01*
X141858206Y-101684335D01*
X141944452Y-101799544D01*
X141944455Y-101799547D01*
X142059664Y-101885793D01*
X142059671Y-101885797D01*
X142104618Y-101902561D01*
X142194517Y-101936091D01*
X142254127Y-101942500D01*
X142425500Y-101942499D01*
X142492539Y-101962183D01*
X142538294Y-102014987D01*
X142549500Y-102066499D01*
X142549500Y-105821730D01*
X142529815Y-105888769D01*
X142477011Y-105934524D01*
X142407853Y-105944468D01*
X142344297Y-105915443D01*
X142336584Y-105908159D01*
X142328687Y-105900035D01*
X142321789Y-105889711D01*
X142210289Y-105778211D01*
X139567819Y-103135741D01*
X139534334Y-103074418D01*
X139531500Y-103048060D01*
X139531500Y-102945168D01*
X139551185Y-102878129D01*
X139603989Y-102832374D01*
X139673147Y-102822430D01*
X139720299Y-102839446D01*
X139723204Y-102841226D01*
X139723212Y-102841232D01*
X139877555Y-102919873D01*
X140042299Y-102973402D01*
X140213389Y-103000500D01*
X140213390Y-103000500D01*
X140386610Y-103000500D01*
X140386611Y-103000500D01*
X140557701Y-102973402D01*
X140722445Y-102919873D01*
X140876788Y-102841232D01*
X141016928Y-102739414D01*
X141139414Y-102616928D01*
X141241232Y-102476788D01*
X141319873Y-102322445D01*
X141373402Y-102157701D01*
X141400500Y-101986611D01*
X141400500Y-98939389D01*
X141373402Y-98768299D01*
X141343390Y-98675931D01*
X141319873Y-98603554D01*
X141319871Y-98603551D01*
X141319871Y-98603549D01*
X141284014Y-98533176D01*
X141270499Y-98476881D01*
X141270499Y-96502129D01*
X141270498Y-96502123D01*
X141270497Y-96502116D01*
X141264091Y-96442517D01*
X141259711Y-96430774D01*
X141213797Y-96307671D01*
X141213793Y-96307664D01*
X141127547Y-96192455D01*
X141127544Y-96192452D01*
X141012335Y-96106206D01*
X141012328Y-96106202D01*
X140877482Y-96055908D01*
X140877483Y-96055908D01*
X140817883Y-96049501D01*
X140817881Y-96049500D01*
X140817873Y-96049500D01*
X140817864Y-96049500D01*
X139722129Y-96049500D01*
X139722118Y-96049501D01*
X139667193Y-96055405D01*
X139598434Y-96042997D01*
X139547298Y-95995385D01*
X139532325Y-95956306D01*
X139511179Y-95850000D01*
X139500737Y-95797503D01*
X139500370Y-95796618D01*
X139440397Y-95651827D01*
X139440390Y-95651814D01*
X139352790Y-95520712D01*
X139300112Y-95468034D01*
X139241289Y-95409211D01*
X138749721Y-94917643D01*
X138716236Y-94856320D01*
X138721219Y-94786630D01*
X138732091Y-94757483D01*
X138738500Y-94697873D01*
X138738499Y-90775806D01*
X138758184Y-90708768D01*
X138810988Y-90663013D01*
X138880146Y-90653069D01*
X138943702Y-90682094D01*
G37*
%TD.AperFunction*%
%TA.AperFunction,Conductor*%
G36*
X126518833Y-99224278D02*
G01*
X126574767Y-99266149D01*
X126599184Y-99331613D01*
X126599500Y-99340459D01*
X126599500Y-99575000D01*
X126599501Y-99575019D01*
X126610000Y-99677796D01*
X126610001Y-99677799D01*
X126665185Y-99844331D01*
X126665189Y-99844340D01*
X126751889Y-99984904D01*
X126770329Y-100052296D01*
X126751889Y-100115096D01*
X126665189Y-100255659D01*
X126665186Y-100255666D01*
X126610001Y-100422203D01*
X126610001Y-100422204D01*
X126610000Y-100422204D01*
X126599500Y-100524983D01*
X126599500Y-101875001D01*
X126599501Y-101875018D01*
X126610000Y-101977796D01*
X126610001Y-101977799D01*
X126665185Y-102144331D01*
X126665187Y-102144336D01*
X126700069Y-102200888D01*
X126757288Y-102293656D01*
X126881344Y-102417712D01*
X127030666Y-102509814D01*
X127197203Y-102564999D01*
X127299991Y-102575500D01*
X128200008Y-102575499D01*
X128200016Y-102575498D01*
X128200019Y-102575498D01*
X128256302Y-102569748D01*
X128302797Y-102564999D01*
X128469334Y-102509814D01*
X128618656Y-102417712D01*
X128627786Y-102408582D01*
X128655992Y-102393179D01*
X128683435Y-102376470D01*
X128686455Y-102376543D01*
X128689108Y-102375095D01*
X128721153Y-102377385D01*
X128753284Y-102378166D01*
X128756767Y-102379931D01*
X128758799Y-102380077D01*
X128785023Y-102393603D01*
X128786692Y-102394733D01*
X128842184Y-102435051D01*
X128858373Y-102443299D01*
X128864754Y-102447623D01*
X128882272Y-102468862D01*
X128902290Y-102487766D01*
X128904188Y-102495431D01*
X128909213Y-102501523D01*
X128912468Y-102528863D01*
X128919087Y-102555587D01*
X128916540Y-102563060D01*
X128917474Y-102570902D01*
X128905432Y-102595659D01*
X128896552Y-102621722D01*
X128889990Y-102627407D01*
X128886914Y-102633734D01*
X128872714Y-102642379D01*
X128851505Y-102660760D01*
X128842446Y-102665376D01*
X128842440Y-102665380D01*
X128788282Y-102704727D01*
X128788282Y-102704728D01*
X129420591Y-103337037D01*
X129357007Y-103354075D01*
X129242993Y-103419901D01*
X129149901Y-103512993D01*
X129084075Y-103627007D01*
X129067037Y-103690591D01*
X128434728Y-103058282D01*
X128434727Y-103058282D01*
X128395380Y-103112439D01*
X128298904Y-103301782D01*
X128233243Y-103503868D01*
X128200000Y-103713753D01*
X128200000Y-103926246D01*
X128233242Y-104136127D01*
X128233242Y-104136130D01*
X128298904Y-104338217D01*
X128395375Y-104527550D01*
X128434728Y-104581716D01*
X129067037Y-103949408D01*
X129084075Y-104012993D01*
X129149901Y-104127007D01*
X129242993Y-104220099D01*
X129357007Y-104285925D01*
X129420591Y-104302962D01*
X128862373Y-104861181D01*
X128801050Y-104894666D01*
X128774692Y-104897500D01*
X126700041Y-104897500D01*
X126633002Y-104877815D01*
X126587247Y-104825011D01*
X126577303Y-104755853D01*
X126580266Y-104741407D01*
X126600500Y-104665892D01*
X126600500Y-103034108D01*
X126566392Y-102906814D01*
X126500500Y-102792686D01*
X126407314Y-102699500D01*
X126340215Y-102660760D01*
X126293187Y-102633608D01*
X126215484Y-102612788D01*
X126165892Y-102599500D01*
X125636230Y-102599500D01*
X125569191Y-102579815D01*
X125523436Y-102527011D01*
X125513492Y-102457853D01*
X125542517Y-102394297D01*
X125548549Y-102387819D01*
X125561273Y-102375095D01*
X125642712Y-102293656D01*
X125734814Y-102144334D01*
X125789999Y-101977797D01*
X125800500Y-101875009D01*
X125800499Y-100524992D01*
X125789999Y-100422203D01*
X125734814Y-100255666D01*
X125648109Y-100115094D01*
X125629670Y-100047704D01*
X125648110Y-99984904D01*
X125734814Y-99844334D01*
X125789999Y-99677797D01*
X125791997Y-99658236D01*
X125818391Y-99593544D01*
X125875571Y-99553391D01*
X125891163Y-99549219D01*
X125955892Y-99536343D01*
X126010397Y-99525501D01*
X126128780Y-99476465D01*
X126235322Y-99405277D01*
X126387821Y-99252777D01*
X126449141Y-99219294D01*
X126518833Y-99224278D01*
G37*
%TD.AperFunction*%
%TA.AperFunction,Conductor*%
G36*
X132217711Y-101950185D02*
G01*
X132238353Y-101966819D01*
X134957353Y-104685819D01*
X134990838Y-104747142D01*
X134985854Y-104816834D01*
X134943982Y-104872767D01*
X134878518Y-104897184D01*
X134869672Y-104897500D01*
X130325308Y-104897500D01*
X130258269Y-104877815D01*
X130237627Y-104861181D01*
X129679408Y-104302962D01*
X129742993Y-104285925D01*
X129857007Y-104220099D01*
X129950099Y-104127007D01*
X130015925Y-104012993D01*
X130032962Y-103949408D01*
X130665270Y-104581717D01*
X130665270Y-104581716D01*
X130704622Y-104527554D01*
X130801095Y-104338217D01*
X130866757Y-104136130D01*
X130866757Y-104136127D01*
X130900000Y-103926246D01*
X130900000Y-103713753D01*
X130866757Y-103503868D01*
X130801095Y-103301782D01*
X130704624Y-103112449D01*
X130665270Y-103058282D01*
X130665269Y-103058282D01*
X130032962Y-103690590D01*
X130015925Y-103627007D01*
X129950099Y-103512993D01*
X129857007Y-103419901D01*
X129742993Y-103354075D01*
X129679409Y-103337037D01*
X130311716Y-102704728D01*
X130257547Y-102665373D01*
X130257547Y-102665372D01*
X130248500Y-102660763D01*
X130197706Y-102612788D01*
X130180912Y-102544966D01*
X130203451Y-102478832D01*
X130248508Y-102439793D01*
X130257816Y-102435051D01*
X130397326Y-102333692D01*
X130429786Y-102310109D01*
X130429788Y-102310106D01*
X130429792Y-102310104D01*
X130580104Y-102159792D01*
X130580106Y-102159788D01*
X130580109Y-102159786D01*
X130707915Y-101983875D01*
X130709259Y-101984851D01*
X130755705Y-101942834D01*
X130809618Y-101930500D01*
X132150672Y-101930500D01*
X132217711Y-101950185D01*
G37*
%TD.AperFunction*%
%TA.AperFunction,Conductor*%
G36*
X100705703Y-101570629D02*
G01*
X100742429Y-101626022D01*
X100789485Y-101770841D01*
X100798444Y-101798414D01*
X100894951Y-101987820D01*
X101019890Y-102159786D01*
X101170213Y-102310109D01*
X101342179Y-102435048D01*
X101342181Y-102435049D01*
X101342184Y-102435051D01*
X101351493Y-102439794D01*
X101402290Y-102487766D01*
X101419087Y-102555587D01*
X101396552Y-102621722D01*
X101351505Y-102660760D01*
X101342446Y-102665376D01*
X101342440Y-102665380D01*
X101288282Y-102704727D01*
X101288282Y-102704728D01*
X101920591Y-103337037D01*
X101857007Y-103354075D01*
X101742993Y-103419901D01*
X101649901Y-103512993D01*
X101584075Y-103627007D01*
X101567037Y-103690591D01*
X100934728Y-103058282D01*
X100934727Y-103058282D01*
X100895380Y-103112439D01*
X100798904Y-103301782D01*
X100742431Y-103475591D01*
X100702994Y-103533266D01*
X100638635Y-103560465D01*
X100569789Y-103548550D01*
X100518313Y-103501306D01*
X100500500Y-103437273D01*
X100500500Y-101664342D01*
X100520185Y-101597303D01*
X100572989Y-101551548D01*
X100642147Y-101541604D01*
X100705703Y-101570629D01*
G37*
%TD.AperFunction*%
%TA.AperFunction,Conductor*%
G36*
X134124539Y-96869185D02*
G01*
X134170294Y-96921989D01*
X134181500Y-96973500D01*
X134181500Y-98513613D01*
X134167985Y-98569907D01*
X134166129Y-98573548D01*
X134166125Y-98573558D01*
X134112597Y-98738301D01*
X134085500Y-98909389D01*
X134085500Y-99082610D01*
X134097973Y-99161361D01*
X134099500Y-99180759D01*
X134099500Y-100980191D01*
X134079815Y-101047230D01*
X134027011Y-101092985D01*
X133957853Y-101102929D01*
X133894297Y-101073904D01*
X133887819Y-101067872D01*
X133093673Y-100273726D01*
X133066644Y-100255666D01*
X132987127Y-100202535D01*
X132868744Y-100153499D01*
X132868738Y-100153497D01*
X132743071Y-100128500D01*
X132743069Y-100128500D01*
X131499808Y-100128500D01*
X131432769Y-100108815D01*
X131412127Y-100092181D01*
X130789922Y-99469976D01*
X130756437Y-99408653D01*
X130761421Y-99338961D01*
X130767119Y-99325999D01*
X130781433Y-99297908D01*
X130801557Y-99258412D01*
X130867246Y-99056243D01*
X130900500Y-98846287D01*
X130900500Y-98633713D01*
X130867246Y-98423757D01*
X130801557Y-98221588D01*
X130705051Y-98032184D01*
X130705049Y-98032181D01*
X130705048Y-98032179D01*
X130580109Y-97860213D01*
X130466569Y-97746673D01*
X130433084Y-97685350D01*
X130438068Y-97615658D01*
X130479940Y-97559725D01*
X130510915Y-97542810D01*
X130642331Y-97493796D01*
X130757546Y-97407546D01*
X130843796Y-97292331D01*
X130894091Y-97157483D01*
X130900500Y-97097873D01*
X130900500Y-96973500D01*
X130920185Y-96906461D01*
X130972989Y-96860706D01*
X131024500Y-96849500D01*
X134057500Y-96849500D01*
X134124539Y-96869185D01*
G37*
%TD.AperFunction*%
%TA.AperFunction,Conductor*%
G36*
X136672539Y-90077185D02*
G01*
X136718294Y-90129989D01*
X136729500Y-90181500D01*
X136729500Y-94687583D01*
X136729500Y-94687587D01*
X136729501Y-94697872D01*
X136735909Y-94757483D01*
X136758474Y-94817984D01*
X136760338Y-94826373D01*
X136758552Y-94853004D01*
X136760456Y-94879627D01*
X136756250Y-94887329D01*
X136755663Y-94896086D01*
X136739763Y-94917522D01*
X136726971Y-94940949D01*
X136455739Y-95212182D01*
X136394419Y-95245666D01*
X136368060Y-95248500D01*
X136105396Y-95248500D01*
X136038357Y-95228815D01*
X135992602Y-95176011D01*
X135982658Y-95106853D01*
X136011683Y-95043297D01*
X136031084Y-95025234D01*
X136055190Y-95007187D01*
X136141350Y-94892093D01*
X136141354Y-94892086D01*
X136191596Y-94757379D01*
X136191598Y-94757372D01*
X136197999Y-94697844D01*
X136198000Y-94697827D01*
X136198000Y-92454000D01*
X134190000Y-92454000D01*
X134190000Y-94697844D01*
X134196401Y-94757372D01*
X134196403Y-94757379D01*
X134246645Y-94892086D01*
X134246649Y-94892093D01*
X134332809Y-95007187D01*
X134356916Y-95025234D01*
X134398786Y-95081168D01*
X134403770Y-95150860D01*
X134370284Y-95212183D01*
X134308960Y-95245667D01*
X134282604Y-95248500D01*
X130982418Y-95248500D01*
X130915379Y-95228815D01*
X130869624Y-95176011D01*
X130866236Y-95167833D01*
X130843797Y-95107671D01*
X130843793Y-95107664D01*
X130757547Y-94992455D01*
X130757544Y-94992452D01*
X130642335Y-94906206D01*
X130642328Y-94906202D01*
X130507482Y-94855908D01*
X130507483Y-94855908D01*
X130447883Y-94849501D01*
X130447881Y-94849500D01*
X130447873Y-94849500D01*
X130447865Y-94849500D01*
X130292807Y-94849500D01*
X130225768Y-94829815D01*
X130180013Y-94777011D01*
X130170069Y-94707853D01*
X130199094Y-94644297D01*
X130205126Y-94637819D01*
X132388945Y-92454000D01*
X133978320Y-90864624D01*
X134039642Y-90831141D01*
X134109334Y-90836125D01*
X134165267Y-90877997D01*
X134189684Y-90943461D01*
X134190000Y-90952307D01*
X134190000Y-91954000D01*
X136198000Y-91954000D01*
X136198000Y-90181500D01*
X136217685Y-90114461D01*
X136270489Y-90068706D01*
X136322000Y-90057500D01*
X136605500Y-90057500D01*
X136672539Y-90077185D01*
G37*
%TD.AperFunction*%
%TA.AperFunction,Conductor*%
G36*
X141483702Y-89860094D02*
G01*
X141490180Y-89866126D01*
X141765181Y-90141127D01*
X141798666Y-90202450D01*
X141801500Y-90228808D01*
X141801500Y-92260052D01*
X141801501Y-94226500D01*
X141781816Y-94293539D01*
X141729012Y-94339294D01*
X141677501Y-94350500D01*
X141421808Y-94350500D01*
X141392367Y-94341855D01*
X141362381Y-94335332D01*
X141357365Y-94331577D01*
X141354769Y-94330815D01*
X141334127Y-94314181D01*
X141314818Y-94294872D01*
X141281333Y-94233549D01*
X141278499Y-94207191D01*
X141278499Y-89953807D01*
X141298184Y-89886768D01*
X141350988Y-89841013D01*
X141420146Y-89831069D01*
X141483702Y-89860094D01*
G37*
%TD.AperFunction*%
%TA.AperFunction,Conductor*%
G36*
X144675809Y-89075185D02*
G01*
X144721564Y-89127989D01*
X144731508Y-89197147D01*
X144702483Y-89260703D01*
X144696451Y-89267181D01*
X144682289Y-89281342D01*
X144590187Y-89430663D01*
X144590186Y-89430666D01*
X144535001Y-89597203D01*
X144535001Y-89597204D01*
X144535000Y-89597204D01*
X144524500Y-89699983D01*
X144524500Y-90600001D01*
X144524501Y-90600019D01*
X144535000Y-90702796D01*
X144535001Y-90702799D01*
X144588626Y-90864626D01*
X144590186Y-90869334D01*
X144682288Y-91018656D01*
X144806344Y-91142712D01*
X144955666Y-91234814D01*
X145122203Y-91289999D01*
X145224991Y-91300500D01*
X146525500Y-91300499D01*
X146592539Y-91320184D01*
X146638294Y-91372987D01*
X146649500Y-91424499D01*
X146649500Y-93179557D01*
X146629815Y-93246596D01*
X146577011Y-93292351D01*
X146507853Y-93302295D01*
X146473106Y-93291944D01*
X146469340Y-93290188D01*
X146469331Y-93290185D01*
X146302797Y-93235001D01*
X146302795Y-93235000D01*
X146200010Y-93224500D01*
X145299998Y-93224500D01*
X145299980Y-93224501D01*
X145197203Y-93235000D01*
X145197200Y-93235001D01*
X145030668Y-93290185D01*
X145030663Y-93290187D01*
X144881342Y-93382289D01*
X144757289Y-93506342D01*
X144665187Y-93655663D01*
X144665185Y-93655668D01*
X144629121Y-93764504D01*
X144589348Y-93821949D01*
X144524833Y-93848772D01*
X144511415Y-93849500D01*
X143934500Y-93849500D01*
X143867461Y-93829815D01*
X143821706Y-93777011D01*
X143810500Y-93725500D01*
X143810499Y-89710129D01*
X143810498Y-89710123D01*
X143804091Y-89650516D01*
X143753797Y-89515671D01*
X143753793Y-89515664D01*
X143667547Y-89400455D01*
X143667544Y-89400452D01*
X143552335Y-89314206D01*
X143552328Y-89314202D01*
X143502672Y-89295682D01*
X143446738Y-89253811D01*
X143422321Y-89188347D01*
X143437173Y-89120074D01*
X143486578Y-89070668D01*
X143546005Y-89055500D01*
X144608770Y-89055500D01*
X144675809Y-89075185D01*
G37*
%TD.AperFunction*%
%TA.AperFunction,Conductor*%
G36*
X143784099Y-84020185D02*
G01*
X143804741Y-84036819D01*
X145063181Y-85295259D01*
X145096666Y-85356582D01*
X145099500Y-85382940D01*
X145099500Y-85827983D01*
X145079815Y-85895022D01*
X145027011Y-85940777D01*
X145014510Y-85945686D01*
X144955666Y-85965186D01*
X144955663Y-85965187D01*
X144806342Y-86057289D01*
X144682289Y-86181342D01*
X144590187Y-86330663D01*
X144590186Y-86330666D01*
X144535001Y-86497203D01*
X144535001Y-86497204D01*
X144535000Y-86497204D01*
X144524500Y-86599983D01*
X144524500Y-86599991D01*
X144524500Y-87006471D01*
X144524501Y-87330500D01*
X144504817Y-87397539D01*
X144452013Y-87443294D01*
X144400501Y-87454500D01*
X142999500Y-87454500D01*
X142932461Y-87434815D01*
X142886706Y-87382011D01*
X142875500Y-87330500D01*
X142875500Y-86755300D01*
X142895185Y-86688261D01*
X142947989Y-86642506D01*
X142960482Y-86637599D01*
X143044334Y-86609814D01*
X143193656Y-86517712D01*
X143317712Y-86393656D01*
X143409814Y-86244334D01*
X143464999Y-86077797D01*
X143475500Y-85975009D01*
X143475499Y-84124499D01*
X143478049Y-84115814D01*
X143476761Y-84106853D01*
X143487739Y-84082812D01*
X143495184Y-84057461D01*
X143502024Y-84051533D01*
X143505786Y-84043297D01*
X143528018Y-84029009D01*
X143547987Y-84011706D01*
X143558502Y-84009418D01*
X143564564Y-84005523D01*
X143599499Y-84000500D01*
X143717060Y-84000500D01*
X143784099Y-84020185D01*
G37*
%TD.AperFunction*%
%TD*%
%TA.AperFunction,Conductor*%
%TO.N,GND1*%
G36*
X169205703Y-110800727D02*
G01*
X169212181Y-110806759D01*
X172563181Y-114157759D01*
X172596666Y-114219082D01*
X172599500Y-114245440D01*
X172599500Y-114925001D01*
X172599501Y-114925019D01*
X172610000Y-115027796D01*
X172610001Y-115027799D01*
X172665185Y-115194331D01*
X172665186Y-115194334D01*
X172727873Y-115295967D01*
X172736778Y-115310403D01*
X172755218Y-115377796D01*
X172734295Y-115444459D01*
X172680653Y-115489229D01*
X172631239Y-115499500D01*
X170504428Y-115499500D01*
X170495582Y-115499184D01*
X170473622Y-115497613D01*
X170295442Y-115484869D01*
X170277931Y-115482351D01*
X170086212Y-115440646D01*
X170069236Y-115435662D01*
X169885390Y-115367090D01*
X169869298Y-115359740D01*
X169697095Y-115265711D01*
X169682210Y-115256146D01*
X169627777Y-115215398D01*
X169525132Y-115138558D01*
X169511762Y-115126972D01*
X169373027Y-114988237D01*
X169361441Y-114974867D01*
X169324117Y-114925008D01*
X169243849Y-114817784D01*
X169234288Y-114802904D01*
X169140259Y-114630701D01*
X169132909Y-114614609D01*
X169109718Y-114552432D01*
X169064334Y-114430755D01*
X169059355Y-114413797D01*
X169017647Y-114222063D01*
X169015130Y-114204556D01*
X169012618Y-114169440D01*
X169000816Y-114004418D01*
X169000500Y-113995572D01*
X169000500Y-113934110D01*
X169000500Y-113934108D01*
X168966392Y-113806814D01*
X168900500Y-113692686D01*
X168807314Y-113599500D01*
X168750250Y-113566554D01*
X168693187Y-113533608D01*
X168650519Y-113522175D01*
X168591905Y-113506470D01*
X168532246Y-113470106D01*
X168501717Y-113407259D01*
X168500000Y-113386696D01*
X168500000Y-113113303D01*
X168519685Y-113046264D01*
X168572489Y-113000509D01*
X168591895Y-112993532D01*
X168693186Y-112966392D01*
X168807314Y-112900500D01*
X168900500Y-112807314D01*
X168966392Y-112693186D01*
X169000500Y-112565892D01*
X169000500Y-110894440D01*
X169020185Y-110827401D01*
X169072989Y-110781646D01*
X169142147Y-110771702D01*
X169205703Y-110800727D01*
G37*
%TD.AperFunction*%
%TA.AperFunction,Conductor*%
G36*
X196554706Y-101251657D02*
G01*
X196558717Y-101250755D01*
X196587953Y-101261420D01*
X196617802Y-101270185D01*
X196620493Y-101273290D01*
X196624356Y-101274700D01*
X196643185Y-101299479D01*
X196663557Y-101322989D01*
X196664853Y-101327993D01*
X196666629Y-101330330D01*
X196673643Y-101361490D01*
X196673738Y-101361475D01*
X196673970Y-101362945D01*
X196674380Y-101364763D01*
X196674499Y-101366285D01*
X196707753Y-101576239D01*
X196707754Y-101576243D01*
X196764298Y-101750268D01*
X196773444Y-101778414D01*
X196869951Y-101967820D01*
X196994890Y-102139786D01*
X197145213Y-102290109D01*
X197317179Y-102415048D01*
X197317181Y-102415049D01*
X197317184Y-102415051D01*
X197326493Y-102419794D01*
X197377290Y-102467766D01*
X197394087Y-102535587D01*
X197371552Y-102601722D01*
X197326505Y-102640760D01*
X197317446Y-102645376D01*
X197317440Y-102645380D01*
X197263282Y-102684727D01*
X197263282Y-102684728D01*
X197895591Y-103317037D01*
X197832007Y-103334075D01*
X197717993Y-103399901D01*
X197624901Y-103492993D01*
X197559075Y-103607007D01*
X197542037Y-103670590D01*
X196909728Y-103038282D01*
X196909727Y-103038282D01*
X196870380Y-103092439D01*
X196773904Y-103281782D01*
X196708242Y-103483869D01*
X196708242Y-103483872D01*
X196675000Y-103693753D01*
X196675000Y-103906246D01*
X196708242Y-104116127D01*
X196708242Y-104116130D01*
X196773904Y-104318217D01*
X196870375Y-104507550D01*
X196909728Y-104561716D01*
X197542037Y-103929408D01*
X197559075Y-103992993D01*
X197624901Y-104107007D01*
X197717993Y-104200099D01*
X197832007Y-104265925D01*
X197895590Y-104282962D01*
X197263282Y-104915269D01*
X197263282Y-104915270D01*
X197317449Y-104954624D01*
X197506782Y-105051095D01*
X197708870Y-105116757D01*
X197918754Y-105150000D01*
X198131246Y-105150000D01*
X198341127Y-105116757D01*
X198341130Y-105116757D01*
X198543217Y-105051095D01*
X198732554Y-104954622D01*
X198786716Y-104915270D01*
X198786717Y-104915270D01*
X198154408Y-104282962D01*
X198217993Y-104265925D01*
X198332007Y-104200099D01*
X198425099Y-104107007D01*
X198490925Y-103992993D01*
X198507962Y-103929408D01*
X199140270Y-104561717D01*
X199140270Y-104561716D01*
X199179622Y-104507554D01*
X199265015Y-104339963D01*
X199312990Y-104289167D01*
X199380811Y-104272372D01*
X199446946Y-104294909D01*
X199490397Y-104349625D01*
X199499500Y-104396258D01*
X199499500Y-113995572D01*
X199499184Y-114004418D01*
X199499184Y-114004419D01*
X199484869Y-114204557D01*
X199482351Y-114222068D01*
X199440646Y-114413787D01*
X199435662Y-114430763D01*
X199367090Y-114614609D01*
X199359740Y-114630701D01*
X199265711Y-114802904D01*
X199256146Y-114817789D01*
X199138558Y-114974867D01*
X199126972Y-114988237D01*
X198988237Y-115126972D01*
X198974867Y-115138558D01*
X198817789Y-115256146D01*
X198802904Y-115265711D01*
X198630701Y-115359740D01*
X198614609Y-115367090D01*
X198430763Y-115435662D01*
X198413787Y-115440646D01*
X198222068Y-115482351D01*
X198204557Y-115484869D01*
X198023779Y-115497799D01*
X198004417Y-115499184D01*
X197995572Y-115499500D01*
X183600541Y-115499500D01*
X183533502Y-115479815D01*
X183487747Y-115427011D01*
X183477803Y-115357853D01*
X183493809Y-115312379D01*
X183551281Y-115215198D01*
X183597100Y-115057486D01*
X183597295Y-115055001D01*
X183597295Y-115055000D01*
X180402705Y-115055000D01*
X180402704Y-115055001D01*
X180402899Y-115057486D01*
X180448718Y-115215198D01*
X180506191Y-115312379D01*
X180523374Y-115380103D01*
X180501214Y-115446365D01*
X180446748Y-115490129D01*
X180399459Y-115499500D01*
X178401122Y-115499500D01*
X178334083Y-115479815D01*
X178288328Y-115427011D01*
X178278384Y-115357853D01*
X178294390Y-115312379D01*
X178324503Y-115261460D01*
X178351744Y-115215398D01*
X178397598Y-115057569D01*
X178400500Y-115020694D01*
X178400500Y-114589306D01*
X178397598Y-114552431D01*
X178382511Y-114500500D01*
X178373820Y-114470585D01*
X178374019Y-114400715D01*
X178411961Y-114342045D01*
X178468703Y-114314373D01*
X178517150Y-114304737D01*
X178640976Y-114253447D01*
X178662825Y-114244397D01*
X178662825Y-114244396D01*
X178662832Y-114244394D01*
X178793942Y-114156789D01*
X179427711Y-113523018D01*
X179489034Y-113489534D01*
X179558725Y-113494518D01*
X179603073Y-113523019D01*
X180120325Y-114040272D01*
X180120328Y-114040275D01*
X180120331Y-114040277D01*
X180184752Y-114083321D01*
X180226873Y-114111465D01*
X180345256Y-114160501D01*
X180390201Y-114169441D01*
X180452111Y-114201825D01*
X180486685Y-114262540D01*
X180482946Y-114332310D01*
X180472743Y-114354176D01*
X180448718Y-114394801D01*
X180402899Y-114552513D01*
X180402704Y-114554998D01*
X180402705Y-114555000D01*
X183597295Y-114555000D01*
X183597295Y-114554998D01*
X183597100Y-114552513D01*
X183551281Y-114394801D01*
X183467685Y-114253447D01*
X183462900Y-114247278D01*
X183465366Y-114245364D01*
X183438802Y-114196776D01*
X183443749Y-114127082D01*
X183464856Y-114094232D01*
X183463301Y-114093026D01*
X183468077Y-114086868D01*
X183468081Y-114086865D01*
X183551744Y-113945398D01*
X183597598Y-113787569D01*
X183600500Y-113750694D01*
X183600500Y-113319306D01*
X183597598Y-113282431D01*
X183551744Y-113124602D01*
X183468081Y-112983135D01*
X183468078Y-112983132D01*
X183463298Y-112976969D01*
X183465750Y-112975066D01*
X183439155Y-112926421D01*
X183444104Y-112856726D01*
X183464940Y-112824304D01*
X183463298Y-112823031D01*
X183468075Y-112816870D01*
X183468081Y-112816865D01*
X183551744Y-112675398D01*
X183597598Y-112517569D01*
X183600500Y-112480694D01*
X183600500Y-112049306D01*
X183597598Y-112012431D01*
X183593841Y-111999500D01*
X183551745Y-111854606D01*
X183551744Y-111854603D01*
X183551744Y-111854602D01*
X183468081Y-111713135D01*
X183468078Y-111713132D01*
X183463298Y-111706969D01*
X183465750Y-111705066D01*
X183439155Y-111656421D01*
X183444104Y-111586726D01*
X183464940Y-111554304D01*
X183463298Y-111553031D01*
X183468075Y-111546870D01*
X183468081Y-111546865D01*
X183551744Y-111405398D01*
X183597598Y-111247569D01*
X183600500Y-111210694D01*
X183600500Y-110779306D01*
X183597598Y-110742431D01*
X183551744Y-110584602D01*
X183468081Y-110443135D01*
X183468079Y-110443133D01*
X183468076Y-110443129D01*
X183351870Y-110326923D01*
X183351862Y-110326917D01*
X183248499Y-110265789D01*
X183210398Y-110243256D01*
X183210397Y-110243255D01*
X183210396Y-110243255D01*
X183210393Y-110243254D01*
X183052573Y-110197402D01*
X183052567Y-110197401D01*
X183015701Y-110194500D01*
X183015694Y-110194500D01*
X180984306Y-110194500D01*
X180984298Y-110194500D01*
X180947432Y-110197401D01*
X180947429Y-110197402D01*
X180910093Y-110208249D01*
X180840224Y-110208048D01*
X180781554Y-110170105D01*
X180752712Y-110106467D01*
X180751500Y-110089172D01*
X180751500Y-109728328D01*
X180771185Y-109661289D01*
X180787819Y-109640647D01*
X189141647Y-101286819D01*
X189202970Y-101253334D01*
X189229328Y-101250500D01*
X196550763Y-101250500D01*
X196554706Y-101251657D01*
G37*
%TD.AperFunction*%
%TA.AperFunction,Conductor*%
G36*
X198004418Y-84500816D02*
G01*
X198204561Y-84515130D01*
X198222063Y-84517647D01*
X198413797Y-84559355D01*
X198430755Y-84564334D01*
X198579723Y-84619897D01*
X198614609Y-84632909D01*
X198630701Y-84640259D01*
X198802904Y-84734288D01*
X198817784Y-84743849D01*
X198974867Y-84861441D01*
X198988237Y-84873027D01*
X199126972Y-85011762D01*
X199138558Y-85025132D01*
X199256146Y-85182210D01*
X199265711Y-85197095D01*
X199359740Y-85369298D01*
X199367090Y-85385390D01*
X199435662Y-85569236D01*
X199440646Y-85586212D01*
X199482351Y-85777931D01*
X199484869Y-85795442D01*
X199499184Y-85995580D01*
X199499500Y-86004427D01*
X199499500Y-94956501D01*
X199479815Y-95023540D01*
X199427011Y-95069295D01*
X199357853Y-95079239D01*
X199294297Y-95050214D01*
X199276234Y-95030813D01*
X199256175Y-95004019D01*
X199232546Y-94972454D01*
X199232544Y-94972453D01*
X199232544Y-94972452D01*
X199117335Y-94886206D01*
X199117328Y-94886202D01*
X198982482Y-94835908D01*
X198982483Y-94835908D01*
X198922883Y-94829501D01*
X198922881Y-94829500D01*
X198922873Y-94829500D01*
X198922864Y-94829500D01*
X197127129Y-94829500D01*
X197127123Y-94829501D01*
X197067516Y-94835908D01*
X196932671Y-94886202D01*
X196932664Y-94886206D01*
X196817455Y-94972452D01*
X196817452Y-94972455D01*
X196731206Y-95087664D01*
X196731202Y-95087671D01*
X196680910Y-95222513D01*
X196680909Y-95222517D01*
X196675937Y-95268757D01*
X196649201Y-95333306D01*
X196591809Y-95373154D01*
X196552649Y-95379500D01*
X191620501Y-95379500D01*
X191503061Y-95402861D01*
X191503060Y-95402861D01*
X191465855Y-95410261D01*
X191465844Y-95410264D01*
X191320173Y-95470602D01*
X191320161Y-95470609D01*
X191232026Y-95529500D01*
X191189054Y-95558212D01*
X191189051Y-95558215D01*
X181625070Y-105122198D01*
X178438711Y-108308557D01*
X178382960Y-108364308D01*
X178327209Y-108420058D01*
X178239609Y-108551160D01*
X178239602Y-108551173D01*
X178179264Y-108696844D01*
X178179261Y-108696856D01*
X178148500Y-108851499D01*
X178148500Y-110118746D01*
X178128815Y-110185785D01*
X178076011Y-110231540D01*
X178006853Y-110241484D01*
X177989905Y-110237822D01*
X177852495Y-110197900D01*
X177852489Y-110197899D01*
X177815649Y-110195000D01*
X177050000Y-110195000D01*
X177050000Y-110871000D01*
X177030315Y-110938039D01*
X176977511Y-110983794D01*
X176926000Y-110995000D01*
X176674000Y-110995000D01*
X176606961Y-110975315D01*
X176561206Y-110922511D01*
X176550000Y-110871000D01*
X176550000Y-110195000D01*
X175784350Y-110195000D01*
X175747510Y-110197899D01*
X175747504Y-110197900D01*
X175589806Y-110243716D01*
X175589803Y-110243717D01*
X175448447Y-110327314D01*
X175448442Y-110327318D01*
X175368391Y-110407369D01*
X175307067Y-110440853D01*
X175237376Y-110435869D01*
X175193029Y-110407368D01*
X175118345Y-110332684D01*
X174969124Y-110240643D01*
X174969119Y-110240641D01*
X174802697Y-110185494D01*
X174802690Y-110185493D01*
X174699986Y-110175000D01*
X174250000Y-110175000D01*
X174250000Y-112499999D01*
X174699972Y-112499999D01*
X174699986Y-112499998D01*
X174802697Y-112489505D01*
X174969119Y-112434358D01*
X174969121Y-112434357D01*
X175012567Y-112407559D01*
X175079959Y-112389118D01*
X175146623Y-112410039D01*
X175191394Y-112463681D01*
X175198455Y-112485061D01*
X175200556Y-112494113D01*
X175202402Y-112517569D01*
X175220296Y-112579161D01*
X175221063Y-112582464D01*
X175219241Y-112614098D01*
X175219151Y-112645774D01*
X175217247Y-112648717D01*
X175217046Y-112652218D01*
X175198410Y-112677845D01*
X175181209Y-112704444D01*
X175178016Y-112705891D01*
X175175954Y-112708727D01*
X175146429Y-112720207D01*
X175117571Y-112733288D01*
X175111741Y-112733696D01*
X175110835Y-112734049D01*
X175109776Y-112733834D01*
X175100274Y-112734500D01*
X174848655Y-112734500D01*
X174694010Y-112765261D01*
X174693998Y-112765264D01*
X174548327Y-112825602D01*
X174548314Y-112825609D01*
X174417211Y-112913210D01*
X174417207Y-112913213D01*
X174087680Y-113242740D01*
X174026357Y-113276225D01*
X173956665Y-113271241D01*
X173912318Y-113242740D01*
X173381258Y-112711680D01*
X173347773Y-112650357D01*
X173352757Y-112580665D01*
X173394629Y-112524732D01*
X173460093Y-112500315D01*
X173468939Y-112499999D01*
X173749999Y-112499999D01*
X173750000Y-112499998D01*
X173750000Y-111587500D01*
X172600001Y-111587500D01*
X172600001Y-111631061D01*
X172580316Y-111698100D01*
X172527512Y-111743855D01*
X172458354Y-111753799D01*
X172394798Y-111724774D01*
X172388320Y-111718742D01*
X171544591Y-110875013D01*
X172600000Y-110875013D01*
X172600000Y-111087500D01*
X173750000Y-111087500D01*
X173750000Y-110175000D01*
X173300028Y-110175000D01*
X173300012Y-110175001D01*
X173197302Y-110185494D01*
X173030880Y-110240641D01*
X173030875Y-110240643D01*
X172881654Y-110332684D01*
X172757684Y-110456654D01*
X172665643Y-110605875D01*
X172665641Y-110605880D01*
X172610494Y-110772302D01*
X172610493Y-110772309D01*
X172600000Y-110875013D01*
X171544591Y-110875013D01*
X170137819Y-109468241D01*
X170104334Y-109406918D01*
X170101500Y-109380560D01*
X170101500Y-105244936D01*
X170121185Y-105177897D01*
X170173989Y-105132142D01*
X170243147Y-105122198D01*
X170244898Y-105122463D01*
X170418754Y-105150000D01*
X170631246Y-105150000D01*
X170841127Y-105116757D01*
X170841130Y-105116757D01*
X171043217Y-105051095D01*
X171232554Y-104954622D01*
X171286716Y-104915270D01*
X171286717Y-104915270D01*
X170654409Y-104282962D01*
X170717993Y-104265925D01*
X170832007Y-104200099D01*
X170925099Y-104107007D01*
X170990925Y-103992993D01*
X171007962Y-103929409D01*
X171640270Y-104561717D01*
X171640270Y-104561716D01*
X171679622Y-104507554D01*
X171776095Y-104318217D01*
X171841757Y-104116130D01*
X171841757Y-104116127D01*
X171875000Y-103906246D01*
X171875000Y-103693753D01*
X171841757Y-103483872D01*
X171841757Y-103483869D01*
X171776095Y-103281782D01*
X171679624Y-103092449D01*
X171640270Y-103038282D01*
X171640269Y-103038282D01*
X171007962Y-103670590D01*
X170990925Y-103607007D01*
X170925099Y-103492993D01*
X170832007Y-103399901D01*
X170717993Y-103334075D01*
X170654407Y-103317036D01*
X171286716Y-102684728D01*
X171232547Y-102645373D01*
X171232547Y-102645372D01*
X171223500Y-102640763D01*
X171172706Y-102592788D01*
X171155912Y-102524966D01*
X171178451Y-102458832D01*
X171223508Y-102419793D01*
X171232816Y-102415051D01*
X171312007Y-102357515D01*
X171404786Y-102290109D01*
X171404788Y-102290106D01*
X171404792Y-102290104D01*
X171555104Y-102139792D01*
X171555106Y-102139788D01*
X171555109Y-102139786D01*
X171680048Y-101967820D01*
X171680047Y-101967820D01*
X171680051Y-101967816D01*
X171776557Y-101778412D01*
X171842246Y-101576243D01*
X171875500Y-101366287D01*
X171875500Y-101153713D01*
X171850346Y-100994898D01*
X171859301Y-100925604D01*
X171904297Y-100872152D01*
X171971048Y-100851513D01*
X171972819Y-100851500D01*
X174763072Y-100851500D01*
X174847616Y-100834682D01*
X174888745Y-100826501D01*
X175007128Y-100777465D01*
X175113670Y-100706277D01*
X185406277Y-90413669D01*
X185477465Y-90307127D01*
X185526501Y-90188744D01*
X185551500Y-90063069D01*
X185551500Y-88028410D01*
X185551500Y-88028407D01*
X185526502Y-87902740D01*
X185526501Y-87902739D01*
X185526501Y-87902735D01*
X185477465Y-87784352D01*
X185422264Y-87701738D01*
X185406275Y-87677808D01*
X185114668Y-87386202D01*
X184762074Y-87033608D01*
X183688196Y-85959728D01*
X183688189Y-85959722D01*
X183581649Y-85888535D01*
X183555148Y-85877558D01*
X183500745Y-85833717D01*
X183478680Y-85767422D01*
X183495867Y-85699880D01*
X183551744Y-85605398D01*
X183565752Y-85557185D01*
X183597597Y-85447573D01*
X183597598Y-85447567D01*
X183600500Y-85410694D01*
X183600500Y-84979306D01*
X183597598Y-84942431D01*
X183551744Y-84784602D01*
X183504096Y-84704033D01*
X183494390Y-84687621D01*
X183477207Y-84619897D01*
X183499367Y-84553634D01*
X183553833Y-84509871D01*
X183601122Y-84500500D01*
X197934108Y-84500500D01*
X197995572Y-84500500D01*
X198004418Y-84500816D01*
G37*
%TD.AperFunction*%
%TA.AperFunction,Conductor*%
G36*
X199446945Y-101756010D02*
G01*
X199490397Y-101810725D01*
X199499500Y-101857359D01*
X199499500Y-103203741D01*
X199479815Y-103270780D01*
X199427011Y-103316535D01*
X199357853Y-103326479D01*
X199294297Y-103297454D01*
X199265015Y-103260036D01*
X199179624Y-103092449D01*
X199140270Y-103038282D01*
X199140269Y-103038282D01*
X198507962Y-103670590D01*
X198490925Y-103607007D01*
X198425099Y-103492993D01*
X198332007Y-103399901D01*
X198217993Y-103334075D01*
X198154409Y-103317037D01*
X198786716Y-102684728D01*
X198732547Y-102645373D01*
X198732547Y-102645372D01*
X198723500Y-102640763D01*
X198672706Y-102592788D01*
X198655912Y-102524966D01*
X198678451Y-102458832D01*
X198723508Y-102419793D01*
X198732816Y-102415051D01*
X198812007Y-102357515D01*
X198904786Y-102290109D01*
X198904788Y-102290106D01*
X198904792Y-102290104D01*
X199055104Y-102139792D01*
X199055106Y-102139788D01*
X199055109Y-102139786D01*
X199180048Y-101967820D01*
X199180047Y-101967820D01*
X199180051Y-101967816D01*
X199265015Y-101801063D01*
X199312989Y-101750268D01*
X199380810Y-101733473D01*
X199446945Y-101756010D01*
G37*
%TD.AperFunction*%
%TA.AperFunction,Conductor*%
G36*
X196619688Y-97000185D02*
G01*
X196665443Y-97052989D01*
X196675939Y-97091248D01*
X196680908Y-97137483D01*
X196731202Y-97272328D01*
X196731206Y-97272335D01*
X196817452Y-97387544D01*
X196817455Y-97387547D01*
X196932664Y-97473793D01*
X196932671Y-97473797D01*
X197064082Y-97522810D01*
X197120016Y-97564681D01*
X197144433Y-97630145D01*
X197129582Y-97698418D01*
X197108431Y-97726673D01*
X196994889Y-97840215D01*
X196869951Y-98012179D01*
X196773444Y-98201585D01*
X196707753Y-98403760D01*
X196674500Y-98613713D01*
X196674500Y-98826286D01*
X196708516Y-99041055D01*
X196706877Y-99041314D01*
X196703738Y-99103883D01*
X196674342Y-99150710D01*
X196411871Y-99413182D01*
X196350551Y-99446666D01*
X196324192Y-99449500D01*
X189861286Y-99449500D01*
X189794247Y-99429815D01*
X189748492Y-99377011D01*
X189738548Y-99307853D01*
X189767573Y-99244297D01*
X189773605Y-99237819D01*
X191994605Y-97016819D01*
X192055928Y-96983334D01*
X192082286Y-96980500D01*
X196552649Y-96980500D01*
X196619688Y-97000185D01*
G37*
%TD.AperFunction*%
%TA.AperFunction,Conductor*%
G36*
X180465917Y-84520185D02*
G01*
X180511672Y-84572989D01*
X180521616Y-84642147D01*
X180505610Y-84687621D01*
X180448255Y-84784603D01*
X180448254Y-84784606D01*
X180402402Y-84942426D01*
X180402401Y-84942432D01*
X180399500Y-84979298D01*
X180399500Y-85410701D01*
X180402401Y-85447567D01*
X180402402Y-85447573D01*
X180448254Y-85605393D01*
X180448255Y-85605396D01*
X180448256Y-85605398D01*
X180483209Y-85664500D01*
X180531917Y-85746862D01*
X180536702Y-85753031D01*
X180534256Y-85754927D01*
X180560857Y-85803642D01*
X180555873Y-85873334D01*
X180535069Y-85905703D01*
X180536702Y-85906969D01*
X180531917Y-85913137D01*
X180448255Y-86054603D01*
X180448254Y-86054606D01*
X180402402Y-86212426D01*
X180402401Y-86212432D01*
X180399500Y-86249298D01*
X180399500Y-86680701D01*
X180402401Y-86717567D01*
X180402402Y-86717573D01*
X180448254Y-86875393D01*
X180448255Y-86875396D01*
X180448256Y-86875398D01*
X180467967Y-86908727D01*
X180531917Y-87016862D01*
X180536702Y-87023031D01*
X180534256Y-87024927D01*
X180560857Y-87073642D01*
X180555873Y-87143334D01*
X180535069Y-87175703D01*
X180536702Y-87176969D01*
X180531917Y-87183137D01*
X180448255Y-87324603D01*
X180448254Y-87324606D01*
X180402402Y-87482426D01*
X180402401Y-87482432D01*
X180399500Y-87519298D01*
X180399500Y-87950701D01*
X180402401Y-87987567D01*
X180402402Y-87987573D01*
X180448254Y-88145393D01*
X180448255Y-88145396D01*
X180531917Y-88286862D01*
X180536702Y-88293031D01*
X180534369Y-88294840D01*
X180561210Y-88343995D01*
X180556226Y-88413687D01*
X180535470Y-88446021D01*
X180537097Y-88447283D01*
X180532313Y-88453449D01*
X180448718Y-88594801D01*
X180402899Y-88752513D01*
X180402704Y-88754998D01*
X180402705Y-88755000D01*
X181876000Y-88755000D01*
X181943039Y-88774685D01*
X181988794Y-88827489D01*
X182000000Y-88879000D01*
X182000000Y-89005000D01*
X182126000Y-89005000D01*
X182193039Y-89024685D01*
X182238794Y-89077489D01*
X182250000Y-89129000D01*
X182250000Y-89805000D01*
X183015634Y-89805000D01*
X183015649Y-89804999D01*
X183052489Y-89802100D01*
X183052495Y-89802099D01*
X183176398Y-89766102D01*
X183246267Y-89766301D01*
X183304937Y-89804243D01*
X183333781Y-89867881D01*
X183323640Y-89937011D01*
X183298674Y-89972859D01*
X174258353Y-99013181D01*
X174197030Y-99046666D01*
X174170672Y-99049500D01*
X171985331Y-99049500D01*
X171918292Y-99029815D01*
X171872537Y-98977011D01*
X171862593Y-98907853D01*
X171862858Y-98906102D01*
X171875500Y-98826285D01*
X171875500Y-98613713D01*
X171842246Y-98403760D01*
X171842246Y-98403757D01*
X171776557Y-98201588D01*
X171680051Y-98012184D01*
X171680049Y-98012181D01*
X171680048Y-98012179D01*
X171555109Y-97840213D01*
X171441569Y-97726673D01*
X171408084Y-97665350D01*
X171413068Y-97595658D01*
X171454940Y-97539725D01*
X171485915Y-97522810D01*
X171617331Y-97473796D01*
X171732546Y-97387546D01*
X171818796Y-97272331D01*
X171869091Y-97137483D01*
X171875500Y-97077873D01*
X171875499Y-95282128D01*
X171869091Y-95222517D01*
X171841308Y-95148028D01*
X171818797Y-95087671D01*
X171818793Y-95087664D01*
X171732547Y-94972455D01*
X171732544Y-94972452D01*
X171617335Y-94886206D01*
X171617328Y-94886202D01*
X171482483Y-94835908D01*
X171436243Y-94830937D01*
X171371693Y-94804199D01*
X171331845Y-94746806D01*
X171325500Y-94707648D01*
X171325500Y-92520439D01*
X171345185Y-92453400D01*
X171361814Y-92432763D01*
X173932759Y-89861817D01*
X173994082Y-89828333D01*
X174020440Y-89825499D01*
X174700002Y-89825499D01*
X174700008Y-89825499D01*
X174802797Y-89814999D01*
X174807729Y-89813364D01*
X174812470Y-89811794D01*
X174851474Y-89805500D01*
X177815686Y-89805500D01*
X177815694Y-89805500D01*
X177852569Y-89802598D01*
X177852571Y-89802597D01*
X177852573Y-89802597D01*
X177894191Y-89790505D01*
X178010398Y-89756744D01*
X178151865Y-89673081D01*
X178268081Y-89556865D01*
X178351744Y-89415398D01*
X178397598Y-89257569D01*
X178397800Y-89255001D01*
X180402704Y-89255001D01*
X180402899Y-89257486D01*
X180448718Y-89415198D01*
X180532314Y-89556552D01*
X180532321Y-89556561D01*
X180648438Y-89672678D01*
X180648447Y-89672685D01*
X180789803Y-89756282D01*
X180789806Y-89756283D01*
X180947504Y-89802099D01*
X180947510Y-89802100D01*
X180984350Y-89804999D01*
X180984366Y-89805000D01*
X181750000Y-89805000D01*
X181750000Y-89255000D01*
X180402705Y-89255000D01*
X180402704Y-89255001D01*
X178397800Y-89255001D01*
X178400500Y-89220694D01*
X178400500Y-88789306D01*
X178397598Y-88752431D01*
X178351744Y-88594602D01*
X178268081Y-88453135D01*
X178268078Y-88453132D01*
X178263298Y-88446969D01*
X178265750Y-88445066D01*
X178239155Y-88396421D01*
X178244104Y-88326726D01*
X178264940Y-88294304D01*
X178263298Y-88293031D01*
X178268075Y-88286870D01*
X178268081Y-88286865D01*
X178351744Y-88145398D01*
X178397598Y-87987569D01*
X178400500Y-87950694D01*
X178400500Y-87519306D01*
X178397598Y-87482431D01*
X178392005Y-87463181D01*
X178351745Y-87324606D01*
X178351744Y-87324603D01*
X178351744Y-87324602D01*
X178268081Y-87183135D01*
X178268078Y-87183132D01*
X178263298Y-87176969D01*
X178265750Y-87175066D01*
X178239155Y-87126421D01*
X178244104Y-87056726D01*
X178264940Y-87024304D01*
X178263298Y-87023031D01*
X178268075Y-87016870D01*
X178268081Y-87016865D01*
X178351744Y-86875398D01*
X178397598Y-86717569D01*
X178400500Y-86680694D01*
X178400500Y-86249306D01*
X178397598Y-86212431D01*
X178351744Y-86054602D01*
X178268081Y-85913135D01*
X178268078Y-85913132D01*
X178263298Y-85906969D01*
X178265635Y-85905155D01*
X178238798Y-85856050D01*
X178243756Y-85786356D01*
X178264554Y-85753998D01*
X178262903Y-85752717D01*
X178267686Y-85746550D01*
X178351281Y-85605198D01*
X178397100Y-85447486D01*
X178397295Y-85445001D01*
X178397295Y-85445000D01*
X176924000Y-85445000D01*
X176856961Y-85425315D01*
X176811206Y-85372511D01*
X176800000Y-85321000D01*
X176800000Y-85069000D01*
X176819685Y-85001961D01*
X176872489Y-84956206D01*
X176924000Y-84945000D01*
X178397295Y-84945000D01*
X178397295Y-84944998D01*
X178397100Y-84942513D01*
X178351281Y-84784801D01*
X178293809Y-84687621D01*
X178276626Y-84619897D01*
X178298786Y-84553635D01*
X178353252Y-84509871D01*
X178400541Y-84500500D01*
X180398878Y-84500500D01*
X180465917Y-84520185D01*
G37*
%TD.AperFunction*%
%TA.AperFunction,Conductor*%
G36*
X172698865Y-84520185D02*
G01*
X172744620Y-84572989D01*
X172754564Y-84642147D01*
X172737365Y-84689597D01*
X172665643Y-84805875D01*
X172665641Y-84805880D01*
X172610494Y-84972302D01*
X172610493Y-84972309D01*
X172600000Y-85075013D01*
X172600000Y-85287500D01*
X173876000Y-85287500D01*
X173943039Y-85307185D01*
X173988794Y-85359989D01*
X174000000Y-85411500D01*
X174000000Y-85537500D01*
X174126000Y-85537500D01*
X174193039Y-85557185D01*
X174238794Y-85609989D01*
X174250000Y-85661500D01*
X174250000Y-86699999D01*
X174699972Y-86699999D01*
X174699986Y-86699998D01*
X174802697Y-86689505D01*
X174969119Y-86634358D01*
X174969121Y-86634357D01*
X175012567Y-86607559D01*
X175079959Y-86589118D01*
X175146623Y-86610039D01*
X175191394Y-86663681D01*
X175198455Y-86685061D01*
X175200556Y-86694113D01*
X175202402Y-86717569D01*
X175220296Y-86779161D01*
X175221063Y-86782464D01*
X175219241Y-86814098D01*
X175219151Y-86845774D01*
X175217247Y-86848717D01*
X175217046Y-86852218D01*
X175198410Y-86877845D01*
X175181209Y-86904444D01*
X175178016Y-86905891D01*
X175175954Y-86908727D01*
X175146429Y-86920207D01*
X175117571Y-86933288D01*
X175111741Y-86933696D01*
X175110835Y-86934049D01*
X175109776Y-86933834D01*
X175100274Y-86934500D01*
X174848655Y-86934500D01*
X174694010Y-86965261D01*
X174693998Y-86965264D01*
X174548327Y-87025602D01*
X174548314Y-87025609D01*
X174417211Y-87113210D01*
X174417207Y-87113213D01*
X174067239Y-87463181D01*
X174005916Y-87496666D01*
X173979558Y-87499500D01*
X173299998Y-87499500D01*
X173299980Y-87499501D01*
X173197203Y-87510000D01*
X173197200Y-87510001D01*
X173030668Y-87565185D01*
X173030663Y-87565187D01*
X172881342Y-87657289D01*
X172757289Y-87781342D01*
X172665187Y-87930663D01*
X172665185Y-87930668D01*
X172646331Y-87987567D01*
X172610001Y-88097203D01*
X172610001Y-88097204D01*
X172610000Y-88097204D01*
X172599500Y-88199983D01*
X172599500Y-88879559D01*
X172579815Y-88946598D01*
X172563180Y-88967240D01*
X170014711Y-91515711D01*
X169958960Y-91571462D01*
X169903209Y-91627212D01*
X169815609Y-91758314D01*
X169815602Y-91758327D01*
X169755264Y-91903998D01*
X169755261Y-91904010D01*
X169724500Y-92058653D01*
X169724500Y-94707648D01*
X169704815Y-94774687D01*
X169652011Y-94820442D01*
X169613755Y-94830938D01*
X169567516Y-94835909D01*
X169432671Y-94886202D01*
X169432664Y-94886206D01*
X169317455Y-94972452D01*
X169317452Y-94972455D01*
X169225888Y-95094769D01*
X169223855Y-95093247D01*
X169183925Y-95133177D01*
X169115652Y-95148028D01*
X169050188Y-95123610D01*
X169008318Y-95067676D01*
X169000500Y-95024344D01*
X169000500Y-87434110D01*
X169000500Y-87434108D01*
X168966392Y-87306814D01*
X168900500Y-87192686D01*
X168807314Y-87099500D01*
X168750250Y-87066554D01*
X168693187Y-87033608D01*
X168650519Y-87022175D01*
X168591905Y-87006470D01*
X168532246Y-86970106D01*
X168501717Y-86907259D01*
X168500000Y-86886696D01*
X168500000Y-86613303D01*
X168519685Y-86546264D01*
X168572489Y-86500509D01*
X168591895Y-86493532D01*
X168693186Y-86466392D01*
X168807314Y-86400500D01*
X168900500Y-86307314D01*
X168966392Y-86193186D01*
X169000500Y-86065892D01*
X169000500Y-86004427D01*
X169000659Y-85999986D01*
X172600001Y-85999986D01*
X172610494Y-86102697D01*
X172665641Y-86269119D01*
X172665643Y-86269124D01*
X172757684Y-86418345D01*
X172881654Y-86542315D01*
X173030875Y-86634356D01*
X173030880Y-86634358D01*
X173197302Y-86689505D01*
X173197309Y-86689506D01*
X173300019Y-86699999D01*
X173749999Y-86699999D01*
X173750000Y-86699998D01*
X173750000Y-85787500D01*
X172600001Y-85787500D01*
X172600001Y-85999986D01*
X169000659Y-85999986D01*
X169000816Y-85995581D01*
X169005213Y-85934108D01*
X169015131Y-85795434D01*
X169017646Y-85777938D01*
X169059356Y-85586199D01*
X169064333Y-85569248D01*
X169132911Y-85385385D01*
X169140259Y-85369298D01*
X169145342Y-85359989D01*
X169234291Y-85197089D01*
X169243845Y-85182221D01*
X169361448Y-85025123D01*
X169373020Y-85011769D01*
X169511769Y-84873020D01*
X169525123Y-84861448D01*
X169682221Y-84743845D01*
X169697089Y-84734291D01*
X169869298Y-84640258D01*
X169885385Y-84632911D01*
X170069248Y-84564333D01*
X170086199Y-84559356D01*
X170277938Y-84517646D01*
X170295436Y-84515130D01*
X170495582Y-84500816D01*
X170504428Y-84500500D01*
X170565892Y-84500500D01*
X172631826Y-84500500D01*
X172698865Y-84520185D01*
G37*
%TD.AperFunction*%
%TD*%
M02*
