%TF.GenerationSoftware,KiCad,Pcbnew,9.0.4*%
%TF.CreationDate,2025-12-19T12:52:20+01:00*%
%TF.ProjectId,malibotti,6d616c69-626f-4747-9469-2e6b69636164,rev?*%
%TF.SameCoordinates,Original*%
%TF.FileFunction,Copper,L1,Top*%
%TF.FilePolarity,Positive*%
%FSLAX46Y46*%
G04 Gerber Fmt 4.6, Leading zero omitted, Abs format (unit mm)*
G04 Created by KiCad (PCBNEW 9.0.4) date 2025-12-19 12:52:20*
%MOMM*%
%LPD*%
G01*
G04 APERTURE LIST*
%TA.AperFunction,ComponentPad*%
%ADD10R,1.700000X1.700000*%
%TD*%
%TA.AperFunction,ComponentPad*%
%ADD11C,1.700000*%
%TD*%
%TA.AperFunction,ViaPad*%
%ADD12C,0.600000*%
%TD*%
%TA.AperFunction,ViaPad*%
%ADD13C,1.200000*%
%TD*%
%TA.AperFunction,Conductor*%
%ADD14C,1.200000*%
%TD*%
%TA.AperFunction,Conductor*%
%ADD15C,0.600000*%
%TD*%
G04 APERTURE END LIST*
D10*
%TO.P,J6,1,Pin_1*%
%TO.N,+3.3V*%
X129550000Y-96200000D03*
D11*
%TO.P,J6,2,Pin_2*%
%TO.N,SCL1*%
X129550000Y-98740000D03*
%TO.P,J6,3,Pin_3*%
%TO.N,SDA1*%
X129550000Y-101280000D03*
%TO.P,J6,4,Pin_4*%
%TO.N,GND*%
X129550000Y-103820000D03*
%TD*%
D10*
%TO.P,J5,1,Pin_1*%
%TO.N,+3.3V*%
X102050000Y-96200000D03*
D11*
%TO.P,J5,2,Pin_2*%
%TO.N,SCL*%
X102050000Y-98740000D03*
%TO.P,J5,3,Pin_3*%
%TO.N,SDA*%
X102050000Y-101280000D03*
%TO.P,J5,4,Pin_4*%
%TO.N,GND*%
X102050000Y-103820000D03*
%TD*%
D10*
%TO.P,J3,1,Pin_1*%
%TO.N,+3.3VP*%
X170525000Y-96180000D03*
D11*
%TO.P,J3,2,Pin_2*%
%TO.N,Net-(J3-Pin_2)*%
X170525000Y-98720000D03*
%TO.P,J3,3,Pin_3*%
%TO.N,Net-(J3-Pin_3)*%
X170525000Y-101260000D03*
%TO.P,J3,4,Pin_4*%
%TO.N,GND1*%
X170525000Y-103800000D03*
%TD*%
D10*
%TO.P,J4,1,Pin_1*%
%TO.N,+3.3VP*%
X198025000Y-96180000D03*
D11*
%TO.P,J4,2,Pin_2*%
%TO.N,Net-(J4-Pin_2)*%
X198025000Y-98720000D03*
%TO.P,J4,3,Pin_3*%
%TO.N,Net-(J4-Pin_3)*%
X198025000Y-101260000D03*
%TO.P,J4,4,Pin_4*%
%TO.N,GND1*%
X198025000Y-103800000D03*
%TD*%
D12*
%TO.N,GND*%
X115200000Y-78700000D03*
X131700000Y-104000000D03*
X122700000Y-123100000D03*
X131600000Y-78000000D03*
X114700000Y-73800000D03*
X145000000Y-99800000D03*
X129200000Y-89600000D03*
X164700000Y-83000000D03*
X130900000Y-82800000D03*
X164800000Y-96200000D03*
X152600000Y-79000000D03*
X144400000Y-92700000D03*
X162700000Y-75800000D03*
X149100000Y-106400000D03*
X149100000Y-104600000D03*
X145200000Y-115400000D03*
X158200000Y-106800000D03*
X131600000Y-123800000D03*
X131800000Y-116700000D03*
X104300000Y-105400000D03*
X145000000Y-106800000D03*
X142700000Y-75000000D03*
X120500000Y-78100000D03*
X141900000Y-124400000D03*
X113900000Y-105700000D03*
X123800000Y-123900000D03*
X161200000Y-114400000D03*
X139400000Y-81500000D03*
X144200000Y-90000000D03*
X103200000Y-123400000D03*
X150100000Y-102200000D03*
X102200000Y-91900000D03*
X117000000Y-105600000D03*
X103000000Y-74600000D03*
X165400000Y-101000000D03*
X115100000Y-102200000D03*
X160800000Y-90900000D03*
X141400000Y-120600000D03*
X143800000Y-86800000D03*
X129900000Y-116000000D03*
X122300000Y-100200000D03*
X137200000Y-74800000D03*
X115100000Y-96800000D03*
X117700000Y-120900000D03*
X164400000Y-123900000D03*
X121700000Y-73900000D03*
X140400000Y-118200000D03*
X106000000Y-99400000D03*
X108000000Y-100500000D03*
X145200000Y-110000000D03*
X131400000Y-97400000D03*
X145100000Y-105000000D03*
X147000000Y-113800000D03*
X155500000Y-126100000D03*
X103000000Y-117600000D03*
X102600000Y-81100000D03*
X144100000Y-117600000D03*
X147500000Y-117700000D03*
X140600000Y-115900000D03*
X138700000Y-86200000D03*
X144100000Y-125400000D03*
X133300000Y-94500000D03*
X151200000Y-92500000D03*
X141500000Y-90900000D03*
X102200000Y-108300000D03*
X147700000Y-122400000D03*
X141500000Y-96000000D03*
X122500000Y-124600000D03*
X156000000Y-100700000D03*
X150700000Y-100200000D03*
X131400000Y-99000000D03*
X133400000Y-92100000D03*
X120200000Y-120100000D03*
X149100000Y-91600000D03*
D13*
%TO.N,+5V*%
X140300000Y-101900000D03*
X135200000Y-101900000D03*
X115200000Y-100300000D03*
D12*
X114800000Y-122300000D03*
D13*
X149000000Y-125900000D03*
D12*
%TO.N,GND1*%
X197100000Y-112300000D03*
X181600000Y-101000000D03*
X184100000Y-93400000D03*
X187200000Y-87100000D03*
X197200000Y-92900000D03*
X174100000Y-103400000D03*
X192600000Y-98600000D03*
X193900000Y-105600000D03*
X188100000Y-105800000D03*
X194100000Y-86300000D03*
X170800000Y-108100000D03*
X179200000Y-85700000D03*
X176900000Y-109100000D03*
X172300000Y-91900000D03*
X188400000Y-109500000D03*
X195700000Y-97600000D03*
X170200000Y-113700000D03*
X193800000Y-110300000D03*
X175200000Y-94900000D03*
X183900000Y-109500000D03*
X186700000Y-112800000D03*
X192500000Y-114700000D03*
%TD*%
D14*
%TO.N,+5V*%
X131201000Y-94549000D02*
X133100000Y-96448000D01*
X140300000Y-101900000D02*
X143000000Y-104600000D01*
D15*
X148001000Y-126699000D02*
X129062213Y-126699000D01*
D14*
X120951000Y-94549000D02*
X131201000Y-94549000D01*
X143000000Y-119900000D02*
X149000000Y-125900000D01*
D15*
X149000000Y-125900000D02*
X148800000Y-125900000D01*
X115300000Y-126300000D02*
X114800000Y-125800000D01*
X118600000Y-126699000D02*
X115699000Y-126699000D01*
D14*
X133100000Y-99800000D02*
X135200000Y-101900000D01*
D15*
X114800000Y-125800000D02*
X114800000Y-122300000D01*
X129062213Y-126699000D02*
X118600000Y-126699000D01*
D14*
X115200000Y-100300000D02*
X120951000Y-94549000D01*
D15*
X148800000Y-125900000D02*
X148001000Y-126699000D01*
X115699000Y-126699000D02*
X115300000Y-126300000D01*
D14*
X133100000Y-96448000D02*
X133100000Y-99800000D01*
X143000000Y-104600000D02*
X143000000Y-119900000D01*
X140300000Y-101900000D02*
X135200000Y-101900000D01*
%TD*%
%TA.AperFunction,Conductor*%
%TO.N,GND*%
G36*
X107868869Y-73000934D02*
G01*
X107888739Y-73003476D01*
X108092113Y-73046432D01*
X108111326Y-73052147D01*
X108305114Y-73127312D01*
X108323155Y-73136047D01*
X108502302Y-73241463D01*
X108518702Y-73252994D01*
X108678516Y-73385897D01*
X108692844Y-73399921D01*
X108829144Y-73556835D01*
X108841024Y-73572982D01*
X108950264Y-73749819D01*
X108959388Y-73767672D01*
X109038701Y-73959800D01*
X109044828Y-73978889D01*
X109092143Y-74181288D01*
X109095113Y-74201116D01*
X109109192Y-74408487D01*
X109108929Y-74428533D01*
X109089406Y-74635473D01*
X109085915Y-74655215D01*
X109033300Y-74856295D01*
X109026674Y-74875216D01*
X108942342Y-75065192D01*
X108932754Y-75082799D01*
X108818903Y-75256710D01*
X108806610Y-75272531D01*
X108752073Y-75332081D01*
X108666526Y-75425490D01*
X108662762Y-75429422D01*
X108654267Y-75437917D01*
X108650963Y-75441101D01*
X108611153Y-75478068D01*
X108605969Y-75484330D01*
X108605691Y-75484099D01*
X108604156Y-75486025D01*
X108604442Y-75486245D01*
X108599502Y-75492682D01*
X108572325Y-75539752D01*
X108572324Y-75539751D01*
X108571157Y-75541771D01*
X108541078Y-75589685D01*
X108538312Y-75598660D01*
X108533611Y-75606804D01*
X108533608Y-75606812D01*
X108519545Y-75659293D01*
X108518277Y-75663698D01*
X108502281Y-75715629D01*
X108501932Y-75725028D01*
X108499500Y-75734108D01*
X108499500Y-75790723D01*
X108499415Y-75793019D01*
X108497403Y-75847320D01*
X108498166Y-75855413D01*
X108497802Y-75855447D01*
X108499500Y-75870484D01*
X108499500Y-77565891D01*
X108533608Y-77693187D01*
X108566554Y-77750250D01*
X108599500Y-77807314D01*
X108692686Y-77900500D01*
X108806814Y-77966392D01*
X108934108Y-78000500D01*
X108934110Y-78000500D01*
X113065890Y-78000500D01*
X113065892Y-78000500D01*
X113193186Y-77966392D01*
X113307314Y-77900500D01*
X113400500Y-77807314D01*
X113466392Y-77693186D01*
X113500500Y-77565892D01*
X113500500Y-74504427D01*
X113500816Y-74495581D01*
X113505382Y-74431735D01*
X113515131Y-74295434D01*
X113517646Y-74277938D01*
X113559356Y-74086199D01*
X113564333Y-74069248D01*
X113632911Y-73885385D01*
X113640259Y-73869298D01*
X113657401Y-73837904D01*
X113734291Y-73697089D01*
X113743845Y-73682221D01*
X113861448Y-73525123D01*
X113873020Y-73511769D01*
X114011769Y-73373020D01*
X114025123Y-73361448D01*
X114182221Y-73243845D01*
X114197089Y-73234291D01*
X114369298Y-73140258D01*
X114385385Y-73132911D01*
X114569248Y-73064333D01*
X114586199Y-73059356D01*
X114777938Y-73017646D01*
X114795436Y-73015130D01*
X114995582Y-73000816D01*
X115004428Y-73000500D01*
X115065892Y-73000500D01*
X165434108Y-73000500D01*
X165495572Y-73000500D01*
X165504418Y-73000816D01*
X165704561Y-73015130D01*
X165722063Y-73017647D01*
X165913797Y-73059355D01*
X165930755Y-73064334D01*
X166099603Y-73127312D01*
X166114609Y-73132909D01*
X166130701Y-73140259D01*
X166302904Y-73234288D01*
X166317784Y-73243849D01*
X166474867Y-73361441D01*
X166488237Y-73373027D01*
X166626972Y-73511762D01*
X166638558Y-73525132D01*
X166756146Y-73682210D01*
X166765711Y-73697095D01*
X166859740Y-73869298D01*
X166867090Y-73885390D01*
X166935662Y-74069236D01*
X166940646Y-74086212D01*
X166982351Y-74277931D01*
X166984869Y-74295442D01*
X166999184Y-74495580D01*
X166999500Y-74504427D01*
X166999500Y-86065891D01*
X167033608Y-86193187D01*
X167066554Y-86250250D01*
X167099500Y-86307314D01*
X167192686Y-86400500D01*
X167306814Y-86466392D01*
X167408095Y-86493529D01*
X167467753Y-86529892D01*
X167498283Y-86592739D01*
X167500000Y-86613303D01*
X167500000Y-86886696D01*
X167480315Y-86953735D01*
X167427511Y-86999490D01*
X167408097Y-87006469D01*
X167366853Y-87017520D01*
X167306812Y-87033608D01*
X167192686Y-87099500D01*
X167192683Y-87099502D01*
X167099502Y-87192683D01*
X167099500Y-87192686D01*
X167033608Y-87306812D01*
X166999500Y-87434108D01*
X166999500Y-108145684D01*
X166979815Y-108212723D01*
X166927011Y-108258478D01*
X166857853Y-108268422D01*
X166813500Y-108253071D01*
X166693189Y-108183609D01*
X166693186Y-108183608D01*
X166565892Y-108149500D01*
X154165892Y-108149500D01*
X154034108Y-108149500D01*
X153906812Y-108183608D01*
X153792686Y-108249500D01*
X153792683Y-108249502D01*
X153699502Y-108342683D01*
X153699500Y-108342686D01*
X153633608Y-108456812D01*
X153599500Y-108584108D01*
X153599500Y-111515891D01*
X153633608Y-111643187D01*
X153666554Y-111700250D01*
X153699500Y-111757314D01*
X153792686Y-111850500D01*
X153906814Y-111916392D01*
X154034108Y-111950500D01*
X154034110Y-111950500D01*
X166565890Y-111950500D01*
X166565892Y-111950500D01*
X166693186Y-111916392D01*
X166807314Y-111850500D01*
X166807316Y-111850497D01*
X166813499Y-111846928D01*
X166881399Y-111830455D01*
X166947426Y-111853307D01*
X166990617Y-111908228D01*
X166999500Y-111954315D01*
X166999500Y-112565891D01*
X167033608Y-112693187D01*
X167066554Y-112750250D01*
X167099500Y-112807314D01*
X167192686Y-112900500D01*
X167306814Y-112966392D01*
X167408095Y-112993529D01*
X167467753Y-113029892D01*
X167498283Y-113092739D01*
X167500000Y-113113303D01*
X167500000Y-113386696D01*
X167480315Y-113453735D01*
X167427511Y-113499490D01*
X167408097Y-113506469D01*
X167366853Y-113517520D01*
X167306812Y-113533608D01*
X167192686Y-113599500D01*
X167192683Y-113599502D01*
X167099502Y-113692683D01*
X167099500Y-113692686D01*
X167033608Y-113806812D01*
X166999500Y-113934108D01*
X166999500Y-115125500D01*
X166979815Y-115192539D01*
X166927011Y-115238294D01*
X166875500Y-115249500D01*
X165834108Y-115249500D01*
X165706812Y-115283608D01*
X165592686Y-115349500D01*
X165592683Y-115349502D01*
X165499502Y-115442683D01*
X165499500Y-115442686D01*
X165433608Y-115556812D01*
X165399500Y-115684108D01*
X165399500Y-120815891D01*
X165433608Y-120943187D01*
X165466554Y-121000250D01*
X165499500Y-121057314D01*
X165592686Y-121150500D01*
X165706814Y-121216392D01*
X165834108Y-121250500D01*
X165965892Y-121250500D01*
X166875500Y-121250500D01*
X166942539Y-121270185D01*
X166988294Y-121322989D01*
X166999500Y-121374500D01*
X166999500Y-125495572D01*
X166999184Y-125504418D01*
X166999184Y-125504419D01*
X166984869Y-125704557D01*
X166982351Y-125722068D01*
X166940646Y-125913787D01*
X166935662Y-125930763D01*
X166867090Y-126114609D01*
X166859740Y-126130701D01*
X166765711Y-126302904D01*
X166756146Y-126317789D01*
X166638558Y-126474867D01*
X166626972Y-126488237D01*
X166488237Y-126626972D01*
X166474867Y-126638558D01*
X166317789Y-126756146D01*
X166302904Y-126765711D01*
X166130701Y-126859740D01*
X166114609Y-126867090D01*
X165930763Y-126935662D01*
X165913787Y-126940646D01*
X165722068Y-126982351D01*
X165704557Y-126984869D01*
X165523779Y-126997799D01*
X165504417Y-126999184D01*
X165495572Y-126999500D01*
X149740583Y-126999500D01*
X149673544Y-126979815D01*
X149627789Y-126927011D01*
X149617845Y-126857853D01*
X149646870Y-126794297D01*
X149667694Y-126775184D01*
X149716928Y-126739414D01*
X149839414Y-126616928D01*
X149941232Y-126476788D01*
X150019873Y-126322445D01*
X150073402Y-126157701D01*
X150100500Y-125986611D01*
X150100500Y-125813389D01*
X150073402Y-125642299D01*
X150044698Y-125553958D01*
X150027166Y-125500000D01*
X150019875Y-125477559D01*
X150019873Y-125477553D01*
X149962282Y-125364526D01*
X149941232Y-125323212D01*
X149839414Y-125183072D01*
X144136819Y-119480477D01*
X144103334Y-119419154D01*
X144100500Y-119392796D01*
X144100500Y-115684108D01*
X152799500Y-115684108D01*
X152799500Y-120815891D01*
X152833608Y-120943187D01*
X152866554Y-121000250D01*
X152899500Y-121057314D01*
X152992686Y-121150500D01*
X153106814Y-121216392D01*
X153234108Y-121250500D01*
X153234110Y-121250500D01*
X154765890Y-121250500D01*
X154765892Y-121250500D01*
X154893186Y-121216392D01*
X155007314Y-121150500D01*
X155100500Y-121057314D01*
X155166392Y-120943186D01*
X155200500Y-120815892D01*
X155200500Y-115684108D01*
X155166392Y-115556814D01*
X155100500Y-115442686D01*
X155007314Y-115349500D01*
X154950250Y-115316554D01*
X154893187Y-115283608D01*
X154829539Y-115266554D01*
X154765892Y-115249500D01*
X153365892Y-115249500D01*
X153234108Y-115249500D01*
X153106812Y-115283608D01*
X152992686Y-115349500D01*
X152992683Y-115349502D01*
X152899502Y-115442683D01*
X152899500Y-115442686D01*
X152833608Y-115556812D01*
X152799500Y-115684108D01*
X144100500Y-115684108D01*
X144100500Y-104513388D01*
X144099882Y-104509490D01*
X144096795Y-104489996D01*
X144073403Y-104342299D01*
X144019873Y-104177555D01*
X144019871Y-104177552D01*
X144019871Y-104177550D01*
X143965970Y-104071764D01*
X143965969Y-104071763D01*
X143962978Y-104065892D01*
X143941232Y-104023212D01*
X143876494Y-103934108D01*
X143839415Y-103883072D01*
X141016928Y-101060586D01*
X140876788Y-100958768D01*
X140722445Y-100880127D01*
X140557701Y-100826598D01*
X140557699Y-100826597D01*
X140557698Y-100826597D01*
X140426271Y-100805781D01*
X140386611Y-100799500D01*
X140386610Y-100799500D01*
X135707204Y-100799500D01*
X135640165Y-100779815D01*
X135619523Y-100763181D01*
X134236819Y-99380477D01*
X134203334Y-99319154D01*
X134200500Y-99292796D01*
X134200500Y-96361388D01*
X134200166Y-96359286D01*
X134196795Y-96337996D01*
X134173403Y-96190299D01*
X134154295Y-96131491D01*
X154499500Y-96131491D01*
X154499500Y-96468508D01*
X154537231Y-96803381D01*
X154537233Y-96803397D01*
X154612223Y-97131953D01*
X154612227Y-97131965D01*
X154723532Y-97450054D01*
X154869752Y-97753683D01*
X154869754Y-97753686D01*
X155049054Y-98039039D01*
X155259175Y-98302523D01*
X155497477Y-98540825D01*
X155760961Y-98750946D01*
X156046314Y-98930246D01*
X156349949Y-99076469D01*
X156588848Y-99160063D01*
X156668034Y-99187772D01*
X156668046Y-99187776D01*
X156996606Y-99262767D01*
X157331492Y-99300499D01*
X157331493Y-99300500D01*
X157331496Y-99300500D01*
X157668507Y-99300500D01*
X157668507Y-99300499D01*
X158003394Y-99262767D01*
X158331954Y-99187776D01*
X158650051Y-99076469D01*
X158953686Y-98930246D01*
X159239039Y-98750946D01*
X159502523Y-98540825D01*
X159740825Y-98302523D01*
X159950946Y-98039039D01*
X160130246Y-97753686D01*
X160276469Y-97450051D01*
X160387776Y-97131954D01*
X160462767Y-96803394D01*
X160500500Y-96468504D01*
X160500500Y-96131496D01*
X160462767Y-95796606D01*
X160387776Y-95468046D01*
X160276469Y-95149949D01*
X160130246Y-94846314D01*
X159950946Y-94560961D01*
X159740825Y-94297477D01*
X159502523Y-94059175D01*
X159239039Y-93849054D01*
X158953686Y-93669754D01*
X158953683Y-93669752D01*
X158650054Y-93523532D01*
X158331965Y-93412227D01*
X158331953Y-93412223D01*
X158003397Y-93337233D01*
X158003381Y-93337231D01*
X157668508Y-93299500D01*
X157668504Y-93299500D01*
X157331496Y-93299500D01*
X157331491Y-93299500D01*
X156996618Y-93337231D01*
X156996602Y-93337233D01*
X156668046Y-93412223D01*
X156668034Y-93412227D01*
X156349945Y-93523532D01*
X156046316Y-93669752D01*
X155760962Y-93849053D01*
X155497477Y-94059174D01*
X155259174Y-94297477D01*
X155049053Y-94560962D01*
X154869752Y-94846316D01*
X154723532Y-95149945D01*
X154612227Y-95468034D01*
X154612223Y-95468046D01*
X154537233Y-95796602D01*
X154537231Y-95796618D01*
X154499500Y-96131491D01*
X134154295Y-96131491D01*
X134119873Y-96025555D01*
X134119871Y-96025552D01*
X134119871Y-96025550D01*
X134060060Y-95908165D01*
X134041232Y-95871212D01*
X134041230Y-95871209D01*
X134041229Y-95871207D01*
X133994444Y-95806814D01*
X133939414Y-95731072D01*
X133816928Y-95608586D01*
X131917928Y-93709586D01*
X131777788Y-93607768D01*
X131623445Y-93529127D01*
X131458701Y-93475598D01*
X131458699Y-93475597D01*
X131458698Y-93475597D01*
X131327271Y-93454781D01*
X131287611Y-93448500D01*
X131287610Y-93448500D01*
X128724500Y-93448500D01*
X128657461Y-93428815D01*
X128611706Y-93376011D01*
X128600500Y-93324500D01*
X128600500Y-86968872D01*
X128999500Y-86968872D01*
X128999500Y-87231127D01*
X129020436Y-87390140D01*
X129033730Y-87491116D01*
X129098831Y-87734076D01*
X129101602Y-87744418D01*
X129101605Y-87744428D01*
X129201953Y-87986690D01*
X129201958Y-87986700D01*
X129333075Y-88213803D01*
X129492718Y-88421851D01*
X129492726Y-88421860D01*
X129678140Y-88607274D01*
X129678148Y-88607281D01*
X129886196Y-88766924D01*
X130113299Y-88898041D01*
X130113309Y-88898046D01*
X130355571Y-88998394D01*
X130355581Y-88998398D01*
X130608884Y-89066270D01*
X130868880Y-89100500D01*
X130868887Y-89100500D01*
X131131113Y-89100500D01*
X131131120Y-89100500D01*
X131391116Y-89066270D01*
X131644419Y-88998398D01*
X131886697Y-88898043D01*
X132113803Y-88766924D01*
X132321851Y-88607282D01*
X132321855Y-88607277D01*
X132321860Y-88607274D01*
X132507274Y-88421860D01*
X132507277Y-88421855D01*
X132507282Y-88421851D01*
X132666924Y-88213803D01*
X132798043Y-87986697D01*
X132898398Y-87744419D01*
X132966270Y-87491116D01*
X133000500Y-87231120D01*
X133000500Y-86968880D01*
X132966270Y-86708884D01*
X132898398Y-86455581D01*
X132875582Y-86400499D01*
X132798046Y-86213309D01*
X132798041Y-86213299D01*
X132666924Y-85986196D01*
X132544424Y-85826554D01*
X132507282Y-85778149D01*
X132507281Y-85778148D01*
X132507274Y-85778140D01*
X132321860Y-85592726D01*
X132321851Y-85592718D01*
X132113803Y-85433075D01*
X131886700Y-85301958D01*
X131886690Y-85301953D01*
X131644428Y-85201605D01*
X131644421Y-85201603D01*
X131644419Y-85201602D01*
X131391116Y-85133730D01*
X131333339Y-85126123D01*
X131131127Y-85099500D01*
X131131120Y-85099500D01*
X130868880Y-85099500D01*
X130868872Y-85099500D01*
X130637772Y-85129926D01*
X130608884Y-85133730D01*
X130407196Y-85187772D01*
X130355581Y-85201602D01*
X130355571Y-85201605D01*
X130113309Y-85301953D01*
X130113299Y-85301958D01*
X129886196Y-85433075D01*
X129678148Y-85592718D01*
X129492718Y-85778148D01*
X129333075Y-85986196D01*
X129201958Y-86213299D01*
X129201953Y-86213309D01*
X129101605Y-86455571D01*
X129101602Y-86455581D01*
X129033730Y-86708885D01*
X128999500Y-86968872D01*
X128600500Y-86968872D01*
X128600500Y-82131491D01*
X154499500Y-82131491D01*
X154499500Y-82468508D01*
X154537231Y-82803381D01*
X154537233Y-82803397D01*
X154612223Y-83131953D01*
X154612227Y-83131965D01*
X154723532Y-83450054D01*
X154869752Y-83753683D01*
X154869754Y-83753686D01*
X155049054Y-84039039D01*
X155259175Y-84302523D01*
X155497477Y-84540825D01*
X155760961Y-84750946D01*
X156046314Y-84930246D01*
X156349949Y-85076469D01*
X156588848Y-85160063D01*
X156668034Y-85187772D01*
X156668046Y-85187776D01*
X156996606Y-85262767D01*
X157331492Y-85300499D01*
X157331493Y-85300500D01*
X157331496Y-85300500D01*
X157668507Y-85300500D01*
X157668507Y-85300499D01*
X158003394Y-85262767D01*
X158331954Y-85187776D01*
X158650051Y-85076469D01*
X158953686Y-84930246D01*
X159239039Y-84750946D01*
X159502523Y-84540825D01*
X159740825Y-84302523D01*
X159950946Y-84039039D01*
X160130246Y-83753686D01*
X160276469Y-83450051D01*
X160387776Y-83131954D01*
X160462767Y-82803394D01*
X160500500Y-82468504D01*
X160500500Y-82131496D01*
X160462767Y-81796606D01*
X160387776Y-81468046D01*
X160276469Y-81149949D01*
X160130246Y-80846314D01*
X159950946Y-80560961D01*
X159740825Y-80297477D01*
X159502523Y-80059175D01*
X159239039Y-79849054D01*
X158953686Y-79669754D01*
X158953683Y-79669752D01*
X158650054Y-79523532D01*
X158331965Y-79412227D01*
X158331953Y-79412223D01*
X158003397Y-79337233D01*
X158003381Y-79337231D01*
X157668508Y-79299500D01*
X157668504Y-79299500D01*
X157331496Y-79299500D01*
X157331491Y-79299500D01*
X156996618Y-79337231D01*
X156996602Y-79337233D01*
X156668046Y-79412223D01*
X156668034Y-79412227D01*
X156349945Y-79523532D01*
X156046316Y-79669752D01*
X155760962Y-79849053D01*
X155497477Y-80059174D01*
X155259174Y-80297477D01*
X155049053Y-80560962D01*
X154869752Y-80846316D01*
X154723532Y-81149945D01*
X154612227Y-81468034D01*
X154612223Y-81468046D01*
X154537233Y-81796602D01*
X154537231Y-81796618D01*
X154499500Y-82131491D01*
X128600500Y-82131491D01*
X128600500Y-80834110D01*
X128600500Y-80834108D01*
X128566392Y-80706814D01*
X128500500Y-80592686D01*
X128407314Y-80499500D01*
X128350250Y-80466554D01*
X128293187Y-80433608D01*
X128192438Y-80406613D01*
X128165892Y-80399500D01*
X104965892Y-80399500D01*
X104834108Y-80399500D01*
X104706812Y-80433608D01*
X104592686Y-80499500D01*
X104592683Y-80499502D01*
X104499502Y-80592683D01*
X104499500Y-80592686D01*
X104433608Y-80706812D01*
X104409524Y-80796696D01*
X104399500Y-80834108D01*
X104399500Y-93365892D01*
X104411914Y-93412223D01*
X104433608Y-93493187D01*
X104454359Y-93529128D01*
X104499500Y-93607314D01*
X104592686Y-93700500D01*
X104706814Y-93766392D01*
X104834108Y-93800500D01*
X104965892Y-93800500D01*
X119843796Y-93800500D01*
X119910835Y-93820185D01*
X119956590Y-93872989D01*
X119966534Y-93942147D01*
X119937509Y-94005703D01*
X119931477Y-94012181D01*
X114360588Y-99583069D01*
X114360588Y-99583070D01*
X114360586Y-99583072D01*
X114333912Y-99619786D01*
X114258768Y-99723211D01*
X114180128Y-99877552D01*
X114180127Y-99877554D01*
X114180127Y-99877555D01*
X114174442Y-99895051D01*
X114126597Y-100042302D01*
X114099500Y-100213389D01*
X114099500Y-100386610D01*
X114120140Y-100516930D01*
X114126598Y-100557701D01*
X114180127Y-100722445D01*
X114258768Y-100876788D01*
X114360586Y-101016928D01*
X114483072Y-101139414D01*
X114623212Y-101241232D01*
X114777555Y-101319873D01*
X114942299Y-101373402D01*
X115113389Y-101400500D01*
X115113390Y-101400500D01*
X115286610Y-101400500D01*
X115286611Y-101400500D01*
X115457701Y-101373402D01*
X115622445Y-101319873D01*
X115776788Y-101241232D01*
X115916928Y-101139414D01*
X121370523Y-95685819D01*
X121397450Y-95671115D01*
X121423269Y-95654523D01*
X121429469Y-95653631D01*
X121431846Y-95652334D01*
X121458204Y-95649500D01*
X121514161Y-95649500D01*
X121581200Y-95669185D01*
X121626955Y-95721989D01*
X121636899Y-95791147D01*
X121633936Y-95805594D01*
X121633610Y-95806810D01*
X121633608Y-95806814D01*
X121599500Y-95934108D01*
X121599500Y-97565892D01*
X121604606Y-97584949D01*
X121633608Y-97693187D01*
X121664489Y-97746673D01*
X121699500Y-97807314D01*
X121792686Y-97900500D01*
X121906814Y-97966392D01*
X122034108Y-98000500D01*
X122034110Y-98000500D01*
X126165890Y-98000500D01*
X126165892Y-98000500D01*
X126293186Y-97966392D01*
X126407314Y-97900500D01*
X126500500Y-97807314D01*
X126566392Y-97693186D01*
X126600500Y-97565892D01*
X126600500Y-95934108D01*
X126566392Y-95806814D01*
X126566389Y-95806810D01*
X126566064Y-95805594D01*
X126567727Y-95735744D01*
X126606889Y-95677881D01*
X126671118Y-95650377D01*
X126685839Y-95649500D01*
X128075500Y-95649500D01*
X128142539Y-95669185D01*
X128188294Y-95721989D01*
X128199500Y-95773500D01*
X128199500Y-97097870D01*
X128199501Y-97097876D01*
X128205908Y-97157483D01*
X128256202Y-97292328D01*
X128256206Y-97292335D01*
X128342452Y-97407544D01*
X128342455Y-97407547D01*
X128457664Y-97493793D01*
X128457671Y-97493797D01*
X128589082Y-97542810D01*
X128645016Y-97584681D01*
X128669433Y-97650145D01*
X128654582Y-97718418D01*
X128633431Y-97746673D01*
X128519889Y-97860215D01*
X128394951Y-98032179D01*
X128298444Y-98221585D01*
X128232753Y-98423760D01*
X128228336Y-98451651D01*
X128199500Y-98633713D01*
X128199500Y-98846287D01*
X128232754Y-99056243D01*
X128242430Y-99086024D01*
X128298444Y-99258414D01*
X128394951Y-99447820D01*
X128519890Y-99619786D01*
X128670213Y-99770109D01*
X128842182Y-99895050D01*
X128850946Y-99899516D01*
X128901742Y-99947491D01*
X128918536Y-100015312D01*
X128895998Y-100081447D01*
X128850946Y-100120484D01*
X128842182Y-100124949D01*
X128670213Y-100249890D01*
X128519890Y-100400213D01*
X128394951Y-100572179D01*
X128298444Y-100761585D01*
X128232753Y-100963760D01*
X128199500Y-101173713D01*
X128199500Y-101386286D01*
X128222833Y-101533608D01*
X128232754Y-101596243D01*
X128264090Y-101692686D01*
X128298444Y-101798414D01*
X128394951Y-101987820D01*
X128519890Y-102159786D01*
X128670213Y-102310109D01*
X128842179Y-102435048D01*
X128842181Y-102435049D01*
X128842184Y-102435051D01*
X128851493Y-102439794D01*
X128902290Y-102487766D01*
X128919087Y-102555587D01*
X128896552Y-102621722D01*
X128851505Y-102660760D01*
X128842446Y-102665376D01*
X128842440Y-102665380D01*
X128788282Y-102704727D01*
X128788282Y-102704728D01*
X129420591Y-103337037D01*
X129357007Y-103354075D01*
X129242993Y-103419901D01*
X129149901Y-103512993D01*
X129084075Y-103627007D01*
X129067037Y-103690591D01*
X128434728Y-103058282D01*
X128434727Y-103058282D01*
X128395380Y-103112439D01*
X128298904Y-103301782D01*
X128233242Y-103503869D01*
X128233242Y-103503872D01*
X128200000Y-103713753D01*
X128200000Y-103926246D01*
X128233242Y-104136127D01*
X128233242Y-104136130D01*
X128298904Y-104338217D01*
X128395375Y-104527550D01*
X128434728Y-104581716D01*
X129067037Y-103949408D01*
X129084075Y-104012993D01*
X129149901Y-104127007D01*
X129242993Y-104220099D01*
X129357007Y-104285925D01*
X129420590Y-104302962D01*
X128788282Y-104935269D01*
X128788282Y-104935270D01*
X128842449Y-104974624D01*
X129031782Y-105071095D01*
X129233870Y-105136757D01*
X129443754Y-105170000D01*
X129656246Y-105170000D01*
X129866127Y-105136757D01*
X129866130Y-105136757D01*
X130068217Y-105071095D01*
X130257554Y-104974622D01*
X130311716Y-104935270D01*
X130311717Y-104935270D01*
X129679408Y-104302962D01*
X129742993Y-104285925D01*
X129857007Y-104220099D01*
X129950099Y-104127007D01*
X130015925Y-104012993D01*
X130032962Y-103949408D01*
X130665270Y-104581717D01*
X130665270Y-104581716D01*
X130704622Y-104527554D01*
X130801095Y-104338217D01*
X130866757Y-104136130D01*
X130866757Y-104136127D01*
X130900000Y-103926246D01*
X130900000Y-103713753D01*
X130866757Y-103503872D01*
X130866757Y-103503869D01*
X130801095Y-103301782D01*
X130704624Y-103112449D01*
X130665270Y-103058282D01*
X130665269Y-103058282D01*
X130032962Y-103690590D01*
X130015925Y-103627007D01*
X129950099Y-103512993D01*
X129857007Y-103419901D01*
X129742993Y-103354075D01*
X129679409Y-103337037D01*
X130311716Y-102704728D01*
X130257547Y-102665373D01*
X130257547Y-102665372D01*
X130248500Y-102660763D01*
X130197706Y-102612788D01*
X130180912Y-102544966D01*
X130203451Y-102478832D01*
X130248508Y-102439793D01*
X130257816Y-102435051D01*
X130337007Y-102377515D01*
X130429786Y-102310109D01*
X130429788Y-102310106D01*
X130429792Y-102310104D01*
X130580104Y-102159792D01*
X130580106Y-102159788D01*
X130580109Y-102159786D01*
X130705048Y-101987820D01*
X130705047Y-101987820D01*
X130705051Y-101987816D01*
X130801557Y-101798412D01*
X130867246Y-101596243D01*
X130900500Y-101386287D01*
X130900500Y-101173713D01*
X130867246Y-100963757D01*
X130801557Y-100761588D01*
X130705051Y-100572184D01*
X130705049Y-100572181D01*
X130705048Y-100572179D01*
X130580109Y-100400213D01*
X130429786Y-100249890D01*
X130257820Y-100124951D01*
X130257115Y-100124591D01*
X130249054Y-100120485D01*
X130198259Y-100072512D01*
X130181463Y-100004692D01*
X130203999Y-99938556D01*
X130249054Y-99899515D01*
X130257816Y-99895051D01*
X130281901Y-99877552D01*
X130429786Y-99770109D01*
X130429788Y-99770106D01*
X130429792Y-99770104D01*
X130580104Y-99619792D01*
X130580106Y-99619788D01*
X130580109Y-99619786D01*
X130705048Y-99447820D01*
X130705047Y-99447820D01*
X130705051Y-99447816D01*
X130801557Y-99258412D01*
X130867246Y-99056243D01*
X130900500Y-98846287D01*
X130900500Y-98633713D01*
X130867246Y-98423757D01*
X130801557Y-98221588D01*
X130705051Y-98032184D01*
X130705049Y-98032181D01*
X130705048Y-98032179D01*
X130580109Y-97860213D01*
X130466569Y-97746673D01*
X130433084Y-97685350D01*
X130438068Y-97615658D01*
X130479940Y-97559725D01*
X130510915Y-97542810D01*
X130642331Y-97493796D01*
X130757546Y-97407546D01*
X130843796Y-97292331D01*
X130894091Y-97157483D01*
X130900500Y-97097873D01*
X130900499Y-96104202D01*
X130920183Y-96037164D01*
X130972987Y-95991409D01*
X131042146Y-95981465D01*
X131105702Y-96010490D01*
X131112180Y-96016522D01*
X131963181Y-96867523D01*
X131996666Y-96928846D01*
X131999500Y-96955204D01*
X131999500Y-99886610D01*
X132024158Y-100042299D01*
X132026598Y-100057701D01*
X132080127Y-100222445D01*
X132158768Y-100376788D01*
X132260586Y-100516928D01*
X134360585Y-102616927D01*
X134360586Y-102616928D01*
X134483072Y-102739414D01*
X134623212Y-102841232D01*
X134777555Y-102919873D01*
X134942299Y-102973402D01*
X135113389Y-103000500D01*
X135286610Y-103000500D01*
X135286611Y-103000500D01*
X139792796Y-103000500D01*
X139859835Y-103020185D01*
X139880477Y-103036819D01*
X141863181Y-105019523D01*
X141896666Y-105080846D01*
X141899500Y-105107204D01*
X141899500Y-119813389D01*
X141899500Y-119986611D01*
X141926598Y-120157701D01*
X141980127Y-120322445D01*
X142058768Y-120476788D01*
X142160586Y-120616928D01*
X142160588Y-120616930D01*
X147230477Y-125686819D01*
X147263962Y-125748142D01*
X147258978Y-125817834D01*
X147217106Y-125873767D01*
X147151642Y-125898184D01*
X147142796Y-125898500D01*
X129033427Y-125898500D01*
X128966388Y-125878815D01*
X128920633Y-125826011D01*
X128910689Y-125756853D01*
X128939714Y-125693297D01*
X128956114Y-125677553D01*
X128959630Y-125674748D01*
X128968825Y-125667416D01*
X129167416Y-125468825D01*
X129342523Y-125249248D01*
X129491945Y-125011445D01*
X129613801Y-124758408D01*
X129706560Y-124493318D01*
X129769055Y-124219509D01*
X129770661Y-124205262D01*
X129800499Y-123940431D01*
X129800500Y-123940427D01*
X129800500Y-123659572D01*
X129800499Y-123659568D01*
X129769057Y-123380505D01*
X129769054Y-123380487D01*
X129706560Y-123106682D01*
X129706556Y-123106670D01*
X129676369Y-123020401D01*
X129613801Y-122841592D01*
X129491945Y-122588555D01*
X129342523Y-122350752D01*
X129167416Y-122131175D01*
X128968825Y-121932584D01*
X128749248Y-121757477D01*
X128511445Y-121608055D01*
X128511442Y-121608053D01*
X128258411Y-121486200D01*
X127993329Y-121393443D01*
X127993317Y-121393439D01*
X127719512Y-121330945D01*
X127719494Y-121330942D01*
X127440431Y-121299500D01*
X127440425Y-121299500D01*
X127159575Y-121299500D01*
X127159568Y-121299500D01*
X126880505Y-121330942D01*
X126880487Y-121330945D01*
X126606682Y-121393439D01*
X126606670Y-121393443D01*
X126341588Y-121486200D01*
X126088557Y-121608053D01*
X125850753Y-121757476D01*
X125631175Y-121932583D01*
X125432583Y-122131175D01*
X125257476Y-122350753D01*
X125108053Y-122588557D01*
X124986200Y-122841588D01*
X124893443Y-123106670D01*
X124893439Y-123106682D01*
X124830945Y-123380487D01*
X124830942Y-123380505D01*
X124799500Y-123659568D01*
X124799500Y-123940431D01*
X124830942Y-124219494D01*
X124830945Y-124219512D01*
X124893439Y-124493317D01*
X124893443Y-124493329D01*
X124986200Y-124758411D01*
X125108053Y-125011442D01*
X125108055Y-125011445D01*
X125257477Y-125249248D01*
X125349408Y-125364526D01*
X125432583Y-125468824D01*
X125631175Y-125667416D01*
X125643886Y-125677553D01*
X125684026Y-125734742D01*
X125686876Y-125804554D01*
X125651530Y-125864823D01*
X125589211Y-125896416D01*
X125566573Y-125898500D01*
X119728100Y-125898500D01*
X119661061Y-125878815D01*
X119615306Y-125826011D01*
X119605362Y-125756853D01*
X119634387Y-125693297D01*
X119643997Y-125683380D01*
X119734533Y-125599829D01*
X119844085Y-125453749D01*
X119925384Y-125290250D01*
X119975743Y-125114736D01*
X119993498Y-124933005D01*
X119978062Y-124751062D01*
X119929945Y-124574920D01*
X119922668Y-124559756D01*
X119919076Y-124552255D01*
X119919020Y-124551959D01*
X119902911Y-124518502D01*
X119902664Y-124517986D01*
X119902519Y-124517094D01*
X119890500Y-124464427D01*
X119890500Y-123115577D01*
X119898962Y-123078393D01*
X119899593Y-123069584D01*
X119902543Y-123062661D01*
X119902714Y-123061913D01*
X119903990Y-123059255D01*
X119903994Y-123059257D01*
X119904043Y-123059141D01*
X119919020Y-123028040D01*
X119919020Y-123028036D01*
X119922326Y-123021172D01*
X119922636Y-123020401D01*
X119924502Y-123016513D01*
X119929984Y-123005091D01*
X119978102Y-122828942D01*
X119993538Y-122646993D01*
X119975782Y-122465255D01*
X119925421Y-122289734D01*
X119844119Y-122126230D01*
X119734562Y-121980144D01*
X119734561Y-121980142D01*
X119734559Y-121980140D01*
X119600376Y-121856308D01*
X119600372Y-121856305D01*
X119600371Y-121856304D01*
X119445978Y-121758801D01*
X119276487Y-121690857D01*
X119276485Y-121690856D01*
X119276484Y-121690856D01*
X119276479Y-121690855D01*
X119097494Y-121654717D01*
X119097501Y-121654717D01*
X118923200Y-121651719D01*
X118914920Y-121651577D01*
X118914919Y-121651577D01*
X118914917Y-121651577D01*
X118734799Y-121681536D01*
X118734793Y-121681537D01*
X118563064Y-121743611D01*
X118551972Y-121750074D01*
X118547784Y-121752515D01*
X118541381Y-121756238D01*
X118541129Y-121756308D01*
X118513166Y-121772644D01*
X118513086Y-121772691D01*
X118510314Y-121773372D01*
X118450746Y-121789495D01*
X118410511Y-121789492D01*
X118410389Y-121789500D01*
X116929263Y-121789500D01*
X116913694Y-121785312D01*
X116899793Y-121785947D01*
X116867524Y-121772892D01*
X116867053Y-121772766D01*
X116866897Y-121772675D01*
X116838951Y-121756342D01*
X116838538Y-121756228D01*
X116831335Y-121752051D01*
X116831300Y-121752014D01*
X116831113Y-121751921D01*
X116816926Y-121743653D01*
X116816919Y-121743650D01*
X116645209Y-121681583D01*
X116645192Y-121681579D01*
X116465083Y-121651620D01*
X116465080Y-121651620D01*
X116456541Y-121651766D01*
X116282509Y-121654760D01*
X116103536Y-121690895D01*
X116103525Y-121690898D01*
X115934042Y-121758838D01*
X115779662Y-121856333D01*
X115779650Y-121856342D01*
X115692432Y-121936832D01*
X115629816Y-121967832D01*
X115560380Y-121960057D01*
X115506170Y-121915977D01*
X115505235Y-121914596D01*
X115421792Y-121789715D01*
X115421786Y-121789707D01*
X115310292Y-121678213D01*
X115310288Y-121678210D01*
X115179185Y-121590609D01*
X115179172Y-121590602D01*
X115033501Y-121530264D01*
X115033489Y-121530261D01*
X114878845Y-121499500D01*
X114878842Y-121499500D01*
X114721158Y-121499500D01*
X114721155Y-121499500D01*
X114566510Y-121530261D01*
X114566498Y-121530264D01*
X114420827Y-121590602D01*
X114420814Y-121590609D01*
X114289711Y-121678210D01*
X114289707Y-121678213D01*
X114178213Y-121789707D01*
X114178210Y-121789711D01*
X114090609Y-121920814D01*
X114090602Y-121920827D01*
X114030264Y-122066498D01*
X114030261Y-122066510D01*
X113999500Y-122221153D01*
X113999500Y-125878846D01*
X114030261Y-126033489D01*
X114030264Y-126033501D01*
X114090602Y-126179172D01*
X114090609Y-126179185D01*
X114178210Y-126310288D01*
X114178213Y-126310292D01*
X114539920Y-126671998D01*
X114544258Y-126679943D01*
X114551507Y-126685370D01*
X114560741Y-126710129D01*
X114573405Y-126733321D01*
X114572759Y-126742351D01*
X114575923Y-126750835D01*
X114570306Y-126776653D01*
X114568421Y-126803012D01*
X114562994Y-126810261D01*
X114561070Y-126819107D01*
X114542387Y-126837788D01*
X114526550Y-126858946D01*
X114518065Y-126862110D01*
X114511664Y-126868512D01*
X114485843Y-126874128D01*
X114461085Y-126883363D01*
X114450432Y-126881831D01*
X114443391Y-126883363D01*
X114408904Y-126875860D01*
X114385389Y-126867089D01*
X114369298Y-126859740D01*
X114197095Y-126765711D01*
X114182210Y-126756146D01*
X114178591Y-126753437D01*
X114025132Y-126638558D01*
X114011762Y-126626972D01*
X113873027Y-126488237D01*
X113861441Y-126474867D01*
X113844221Y-126451864D01*
X113743849Y-126317784D01*
X113734288Y-126302904D01*
X113640259Y-126130701D01*
X113632909Y-126114609D01*
X113602657Y-126033501D01*
X113564334Y-125930755D01*
X113559355Y-125913797D01*
X113517647Y-125722063D01*
X113515130Y-125704556D01*
X113513861Y-125686819D01*
X113500816Y-125504418D01*
X113500500Y-125495572D01*
X113500500Y-122434110D01*
X113500500Y-122434108D01*
X113466392Y-122306814D01*
X113400500Y-122192686D01*
X113307314Y-122099500D01*
X113250153Y-122066498D01*
X113193187Y-122033608D01*
X113129539Y-122016554D01*
X113065892Y-121999500D01*
X109065892Y-121999500D01*
X108934108Y-121999500D01*
X108806812Y-122033608D01*
X108692686Y-122099500D01*
X108692683Y-122099502D01*
X108599502Y-122192683D01*
X108599500Y-122192686D01*
X108533608Y-122306812D01*
X108499500Y-122434108D01*
X108499500Y-124074395D01*
X108495334Y-124100966D01*
X108499500Y-124140018D01*
X108499500Y-124179287D01*
X108506460Y-124205262D01*
X108509313Y-124232006D01*
X108523442Y-124268645D01*
X108525149Y-124275015D01*
X108533606Y-124306577D01*
X108533607Y-124306580D01*
X108533608Y-124306581D01*
X108547055Y-124329872D01*
X108556732Y-124354964D01*
X108579863Y-124386697D01*
X108599500Y-124420709D01*
X108599502Y-124420711D01*
X108611684Y-124432893D01*
X108624203Y-124447527D01*
X108634359Y-124461459D01*
X108638036Y-124464427D01*
X108659784Y-124481982D01*
X108664055Y-124485592D01*
X108666896Y-124488105D01*
X108692686Y-124513895D01*
X108702374Y-124519488D01*
X108711726Y-124527760D01*
X108712382Y-124528805D01*
X108714996Y-124530758D01*
X108843582Y-124652985D01*
X108856938Y-124667916D01*
X108962416Y-124806985D01*
X108982546Y-124833526D01*
X108993329Y-124850425D01*
X109037063Y-124933005D01*
X109090607Y-125034111D01*
X109098527Y-125052529D01*
X109164933Y-125249494D01*
X109169781Y-125268947D01*
X109203577Y-125474031D01*
X109205227Y-125494011D01*
X109205532Y-125701869D01*
X109203940Y-125721854D01*
X109170746Y-125927035D01*
X109165955Y-125946503D01*
X109100129Y-126143655D01*
X109092264Y-126162095D01*
X108995525Y-126346067D01*
X108984790Y-126362999D01*
X108859669Y-126528976D01*
X108846345Y-126543958D01*
X108696112Y-126687601D01*
X108680550Y-126700239D01*
X108509135Y-126817794D01*
X108491739Y-126827759D01*
X108303616Y-126916156D01*
X108284841Y-126923187D01*
X108084936Y-126980111D01*
X108065274Y-126984025D01*
X107858807Y-127007991D01*
X107838770Y-127008685D01*
X107631137Y-126999065D01*
X107611250Y-126996521D01*
X107407888Y-126953567D01*
X107388673Y-126947852D01*
X107194885Y-126872687D01*
X107176840Y-126863950D01*
X106997697Y-126758536D01*
X106981297Y-126747005D01*
X106821483Y-126614102D01*
X106807155Y-126600078D01*
X106670855Y-126443164D01*
X106658975Y-126427017D01*
X106549735Y-126250180D01*
X106540611Y-126232327D01*
X106518673Y-126179185D01*
X106461297Y-126040197D01*
X106455171Y-126021110D01*
X106407854Y-125818703D01*
X106404886Y-125798883D01*
X106404317Y-125790505D01*
X106390807Y-125591508D01*
X106391070Y-125571466D01*
X106392722Y-125553957D01*
X106410594Y-125364517D01*
X106414082Y-125344792D01*
X106466700Y-125143700D01*
X106473325Y-125124783D01*
X106493856Y-125078534D01*
X106557657Y-124934805D01*
X106567246Y-124917200D01*
X106681094Y-124743292D01*
X106693383Y-124727474D01*
X106833504Y-124574474D01*
X106837225Y-124570587D01*
X106845755Y-124562057D01*
X106849004Y-124558926D01*
X106888851Y-124521927D01*
X106888853Y-124521923D01*
X106894037Y-124515663D01*
X106894320Y-124515897D01*
X106895841Y-124513988D01*
X106895550Y-124513765D01*
X106900497Y-124507316D01*
X106900500Y-124507314D01*
X106928818Y-124458265D01*
X106958922Y-124410315D01*
X106961689Y-124401330D01*
X106966392Y-124393186D01*
X106981047Y-124338491D01*
X106997719Y-124284371D01*
X106998067Y-124274971D01*
X107000500Y-124265892D01*
X107000500Y-124211569D01*
X107000585Y-124206980D01*
X107002596Y-124152681D01*
X107001834Y-124144590D01*
X107002196Y-124144555D01*
X107000500Y-124129516D01*
X107000500Y-122434110D01*
X107000500Y-122434108D01*
X106966392Y-122306814D01*
X106900500Y-122192686D01*
X106807314Y-122099500D01*
X106750153Y-122066498D01*
X106693187Y-122033608D01*
X106629539Y-122016554D01*
X106565892Y-121999500D01*
X104065892Y-121999500D01*
X103934108Y-121999500D01*
X103806812Y-122033608D01*
X103692686Y-122099500D01*
X103692683Y-122099502D01*
X103599502Y-122192683D01*
X103599500Y-122192686D01*
X103533608Y-122306812D01*
X103499500Y-122434108D01*
X103499500Y-125495124D01*
X103499118Y-125504853D01*
X103481804Y-125724845D01*
X103478760Y-125744063D01*
X103428387Y-125953881D01*
X103422374Y-125972387D01*
X103339797Y-126171744D01*
X103330964Y-126189080D01*
X103218222Y-126373060D01*
X103206784Y-126388803D01*
X103066644Y-126552886D01*
X103052886Y-126566644D01*
X102888803Y-126706784D01*
X102873060Y-126718222D01*
X102689080Y-126830964D01*
X102671744Y-126839797D01*
X102472387Y-126922374D01*
X102453881Y-126928387D01*
X102244063Y-126978760D01*
X102224845Y-126981804D01*
X102009729Y-126998734D01*
X101990271Y-126998734D01*
X101775154Y-126981804D01*
X101755936Y-126978760D01*
X101546118Y-126928387D01*
X101527612Y-126922374D01*
X101328255Y-126839797D01*
X101310919Y-126830964D01*
X101197498Y-126761460D01*
X101126933Y-126718217D01*
X101111196Y-126706784D01*
X101086123Y-126685370D01*
X100986259Y-126600078D01*
X100947113Y-126566644D01*
X100933355Y-126552886D01*
X100793215Y-126388803D01*
X100781783Y-126373069D01*
X100669034Y-126189078D01*
X100660202Y-126171744D01*
X100605714Y-126040199D01*
X100577623Y-125972380D01*
X100571614Y-125953888D01*
X100521238Y-125744058D01*
X100518195Y-125724845D01*
X100518102Y-125723665D01*
X100500882Y-125504853D01*
X100500500Y-125495124D01*
X100500500Y-114522413D01*
X100520185Y-114455374D01*
X100572989Y-114409619D01*
X100642147Y-114399675D01*
X100699984Y-114424036D01*
X100799632Y-114500500D01*
X100886196Y-114566924D01*
X101113299Y-114698041D01*
X101113309Y-114698046D01*
X101355571Y-114798394D01*
X101355581Y-114798398D01*
X101608884Y-114866270D01*
X101868880Y-114900500D01*
X101868887Y-114900500D01*
X102131113Y-114900500D01*
X102131120Y-114900500D01*
X102391116Y-114866270D01*
X102644419Y-114798398D01*
X102886697Y-114698043D01*
X103113803Y-114566924D01*
X103321851Y-114407282D01*
X103321855Y-114407277D01*
X103321860Y-114407274D01*
X103507274Y-114221860D01*
X103507277Y-114221855D01*
X103507282Y-114221851D01*
X103666924Y-114013803D01*
X103798043Y-113786697D01*
X103898398Y-113544419D01*
X103966270Y-113291116D01*
X104000500Y-113031120D01*
X104000500Y-112768880D01*
X103966270Y-112508884D01*
X103898398Y-112255581D01*
X103800204Y-112018520D01*
X103798046Y-112013309D01*
X103798041Y-112013299D01*
X103666924Y-111786196D01*
X103507281Y-111578148D01*
X103507274Y-111578140D01*
X103321860Y-111392726D01*
X103321851Y-111392718D01*
X103113803Y-111233075D01*
X102886700Y-111101958D01*
X102886690Y-111101953D01*
X102644428Y-111001605D01*
X102644421Y-111001603D01*
X102644419Y-111001602D01*
X102391116Y-110933730D01*
X102333339Y-110926123D01*
X102131127Y-110899500D01*
X102131120Y-110899500D01*
X101868880Y-110899500D01*
X101868872Y-110899500D01*
X101637772Y-110929926D01*
X101608884Y-110933730D01*
X101355581Y-111001602D01*
X101355571Y-111001605D01*
X101113309Y-111101953D01*
X101113299Y-111101958D01*
X100886196Y-111233075D01*
X100699987Y-111375961D01*
X100634818Y-111401156D01*
X100566373Y-111387118D01*
X100516383Y-111338304D01*
X100500500Y-111277586D01*
X100500500Y-106634108D01*
X104399500Y-106634108D01*
X104399500Y-119165891D01*
X104433608Y-119293187D01*
X104466554Y-119350250D01*
X104499500Y-119407314D01*
X104592686Y-119500500D01*
X104706814Y-119566392D01*
X104834108Y-119600500D01*
X104834110Y-119600500D01*
X128165890Y-119600500D01*
X128165892Y-119600500D01*
X128293186Y-119566392D01*
X128407314Y-119500500D01*
X128500500Y-119407314D01*
X128566392Y-119293186D01*
X128600500Y-119165892D01*
X128600500Y-112768872D01*
X128999500Y-112768872D01*
X128999500Y-113031127D01*
X129020436Y-113190140D01*
X129033730Y-113291116D01*
X129089566Y-113499500D01*
X129101602Y-113544418D01*
X129101605Y-113544428D01*
X129201953Y-113786690D01*
X129201958Y-113786700D01*
X129333075Y-114013803D01*
X129492718Y-114221851D01*
X129492726Y-114221860D01*
X129678140Y-114407274D01*
X129678148Y-114407281D01*
X129886196Y-114566924D01*
X130113299Y-114698041D01*
X130113309Y-114698046D01*
X130355571Y-114798394D01*
X130355581Y-114798398D01*
X130608884Y-114866270D01*
X130868880Y-114900500D01*
X130868887Y-114900500D01*
X131131113Y-114900500D01*
X131131120Y-114900500D01*
X131391116Y-114866270D01*
X131644419Y-114798398D01*
X131886697Y-114698043D01*
X132113803Y-114566924D01*
X132321851Y-114407282D01*
X132321855Y-114407277D01*
X132321860Y-114407274D01*
X132507274Y-114221860D01*
X132507277Y-114221855D01*
X132507282Y-114221851D01*
X132666924Y-114013803D01*
X132798043Y-113786697D01*
X132898398Y-113544419D01*
X132966270Y-113291116D01*
X133000500Y-113031120D01*
X133000500Y-112768880D01*
X132966270Y-112508884D01*
X132898398Y-112255581D01*
X132800204Y-112018520D01*
X132798046Y-112013309D01*
X132798041Y-112013299D01*
X132666924Y-111786196D01*
X132507281Y-111578148D01*
X132507274Y-111578140D01*
X132321860Y-111392726D01*
X132321851Y-111392718D01*
X132113803Y-111233075D01*
X131886700Y-111101958D01*
X131886690Y-111101953D01*
X131644428Y-111001605D01*
X131644421Y-111001603D01*
X131644419Y-111001602D01*
X131391116Y-110933730D01*
X131333339Y-110926123D01*
X131131127Y-110899500D01*
X131131120Y-110899500D01*
X130868880Y-110899500D01*
X130868872Y-110899500D01*
X130637772Y-110929926D01*
X130608884Y-110933730D01*
X130355581Y-111001602D01*
X130355571Y-111001605D01*
X130113309Y-111101953D01*
X130113299Y-111101958D01*
X129886196Y-111233075D01*
X129678148Y-111392718D01*
X129492718Y-111578148D01*
X129333075Y-111786196D01*
X129201958Y-112013299D01*
X129201953Y-112013309D01*
X129101605Y-112255571D01*
X129101602Y-112255581D01*
X129033730Y-112508885D01*
X128999500Y-112768872D01*
X128600500Y-112768872D01*
X128600500Y-106634108D01*
X128566392Y-106506814D01*
X128500500Y-106392686D01*
X128407314Y-106299500D01*
X128350250Y-106266554D01*
X128293187Y-106233608D01*
X128229539Y-106216554D01*
X128165892Y-106199500D01*
X104965892Y-106199500D01*
X104834108Y-106199500D01*
X104706812Y-106233608D01*
X104592686Y-106299500D01*
X104592683Y-106299502D01*
X104499502Y-106392683D01*
X104499500Y-106392686D01*
X104433608Y-106506812D01*
X104399500Y-106634108D01*
X100500500Y-106634108D01*
X100500500Y-104202726D01*
X100520185Y-104135687D01*
X100572989Y-104089932D01*
X100642147Y-104079988D01*
X100705703Y-104109013D01*
X100742431Y-104164408D01*
X100798904Y-104338217D01*
X100895375Y-104527550D01*
X100934728Y-104581716D01*
X101567037Y-103949408D01*
X101584075Y-104012993D01*
X101649901Y-104127007D01*
X101742993Y-104220099D01*
X101857007Y-104285925D01*
X101920590Y-104302962D01*
X101288282Y-104935269D01*
X101288282Y-104935270D01*
X101342449Y-104974624D01*
X101531782Y-105071095D01*
X101733870Y-105136757D01*
X101943754Y-105170000D01*
X102156246Y-105170000D01*
X102366127Y-105136757D01*
X102366130Y-105136757D01*
X102568217Y-105071095D01*
X102757554Y-104974622D01*
X102811716Y-104935270D01*
X102811717Y-104935270D01*
X102179408Y-104302962D01*
X102242993Y-104285925D01*
X102357007Y-104220099D01*
X102450099Y-104127007D01*
X102515925Y-104012993D01*
X102532962Y-103949409D01*
X103165270Y-104581717D01*
X103165270Y-104581716D01*
X103204622Y-104527554D01*
X103301095Y-104338217D01*
X103366757Y-104136130D01*
X103366757Y-104136127D01*
X103400000Y-103926246D01*
X103400000Y-103713753D01*
X103366757Y-103503872D01*
X103366757Y-103503869D01*
X103301095Y-103301782D01*
X103204624Y-103112449D01*
X103165270Y-103058282D01*
X103165269Y-103058282D01*
X102532962Y-103690590D01*
X102515925Y-103627007D01*
X102450099Y-103512993D01*
X102357007Y-103419901D01*
X102242993Y-103354075D01*
X102179409Y-103337037D01*
X102811716Y-102704728D01*
X102757547Y-102665373D01*
X102757547Y-102665372D01*
X102748500Y-102660763D01*
X102697706Y-102612788D01*
X102680912Y-102544966D01*
X102703451Y-102478832D01*
X102748508Y-102439793D01*
X102757816Y-102435051D01*
X102837007Y-102377515D01*
X102929786Y-102310109D01*
X102929788Y-102310106D01*
X102929792Y-102310104D01*
X103080104Y-102159792D01*
X103080106Y-102159788D01*
X103080109Y-102159786D01*
X103205048Y-101987820D01*
X103205047Y-101987820D01*
X103205051Y-101987816D01*
X103232417Y-101934108D01*
X104899500Y-101934108D01*
X104899500Y-104065892D01*
X104908505Y-104099500D01*
X104933608Y-104193187D01*
X104949146Y-104220099D01*
X104999500Y-104307314D01*
X105092686Y-104400500D01*
X105206814Y-104466392D01*
X105334108Y-104500500D01*
X105334110Y-104500500D01*
X109465890Y-104500500D01*
X109465892Y-104500500D01*
X109593186Y-104466392D01*
X109707314Y-104400500D01*
X109800500Y-104307314D01*
X109866392Y-104193186D01*
X109900500Y-104065892D01*
X109900500Y-103034108D01*
X121599500Y-103034108D01*
X121599500Y-104665891D01*
X121633608Y-104793187D01*
X121652558Y-104826008D01*
X121699500Y-104907314D01*
X121792686Y-105000500D01*
X121906814Y-105066392D01*
X122034108Y-105100500D01*
X122034110Y-105100500D01*
X126165890Y-105100500D01*
X126165892Y-105100500D01*
X126293186Y-105066392D01*
X126407314Y-105000500D01*
X126500500Y-104907314D01*
X126566392Y-104793186D01*
X126600500Y-104665892D01*
X126600500Y-103034108D01*
X126566392Y-102906814D01*
X126500500Y-102792686D01*
X126407314Y-102699500D01*
X126340215Y-102660760D01*
X126293187Y-102633608D01*
X126215484Y-102612788D01*
X126165892Y-102599500D01*
X122165892Y-102599500D01*
X122034108Y-102599500D01*
X121906812Y-102633608D01*
X121792686Y-102699500D01*
X121792683Y-102699502D01*
X121699502Y-102792683D01*
X121699500Y-102792686D01*
X121633608Y-102906812D01*
X121599500Y-103034108D01*
X109900500Y-103034108D01*
X109900500Y-101934108D01*
X109866392Y-101806814D01*
X109800500Y-101692686D01*
X109707314Y-101599500D01*
X109624259Y-101551548D01*
X109593187Y-101533608D01*
X109529539Y-101516554D01*
X109465892Y-101499500D01*
X105465892Y-101499500D01*
X105334108Y-101499500D01*
X105206812Y-101533608D01*
X105092686Y-101599500D01*
X105092683Y-101599502D01*
X104999502Y-101692683D01*
X104999500Y-101692686D01*
X104933608Y-101806812D01*
X104899500Y-101934108D01*
X103232417Y-101934108D01*
X103301557Y-101798412D01*
X103367246Y-101596243D01*
X103400500Y-101386287D01*
X103400500Y-101173713D01*
X103367246Y-100963757D01*
X103301557Y-100761588D01*
X103205051Y-100572184D01*
X103205049Y-100572181D01*
X103205048Y-100572179D01*
X103080109Y-100400213D01*
X102929786Y-100249890D01*
X102757820Y-100124951D01*
X102757115Y-100124591D01*
X102749054Y-100120485D01*
X102698259Y-100072512D01*
X102681463Y-100004692D01*
X102703999Y-99938556D01*
X102749054Y-99899515D01*
X102757816Y-99895051D01*
X102781901Y-99877552D01*
X102929786Y-99770109D01*
X102929788Y-99770106D01*
X102929792Y-99770104D01*
X103080104Y-99619792D01*
X103080106Y-99619788D01*
X103080109Y-99619786D01*
X103205048Y-99447820D01*
X103205047Y-99447820D01*
X103205051Y-99447816D01*
X103301557Y-99258412D01*
X103367246Y-99056243D01*
X103400500Y-98846287D01*
X103400500Y-98633713D01*
X103367246Y-98423757D01*
X103301557Y-98221588D01*
X103205051Y-98032184D01*
X103205049Y-98032181D01*
X103205048Y-98032179D01*
X103080109Y-97860213D01*
X102966569Y-97746673D01*
X102933084Y-97685350D01*
X102938068Y-97615658D01*
X102979940Y-97559725D01*
X103010915Y-97542810D01*
X103142331Y-97493796D01*
X103257546Y-97407546D01*
X103343796Y-97292331D01*
X103394091Y-97157483D01*
X103400500Y-97097873D01*
X103400499Y-95934108D01*
X104899500Y-95934108D01*
X104899500Y-98065891D01*
X104933608Y-98193187D01*
X104950004Y-98221585D01*
X104999500Y-98307314D01*
X105092686Y-98400500D01*
X105206814Y-98466392D01*
X105334108Y-98500500D01*
X105334110Y-98500500D01*
X109465890Y-98500500D01*
X109465892Y-98500500D01*
X109593186Y-98466392D01*
X109707314Y-98400500D01*
X109800500Y-98307314D01*
X109866392Y-98193186D01*
X109900500Y-98065892D01*
X109900500Y-95934108D01*
X109866392Y-95806814D01*
X109800500Y-95692686D01*
X109707314Y-95599500D01*
X109650250Y-95566554D01*
X109593187Y-95533608D01*
X109529539Y-95516554D01*
X109465892Y-95499500D01*
X105465892Y-95499500D01*
X105334108Y-95499500D01*
X105206812Y-95533608D01*
X105092686Y-95599500D01*
X105092683Y-95599502D01*
X104999502Y-95692683D01*
X104999500Y-95692686D01*
X104933608Y-95806812D01*
X104899500Y-95934108D01*
X103400499Y-95934108D01*
X103400499Y-95302128D01*
X103394091Y-95242517D01*
X103389286Y-95229635D01*
X103343797Y-95107671D01*
X103343793Y-95107664D01*
X103257547Y-94992455D01*
X103257544Y-94992452D01*
X103142335Y-94906206D01*
X103142328Y-94906202D01*
X103007482Y-94855908D01*
X103007483Y-94855908D01*
X102947883Y-94849501D01*
X102947881Y-94849500D01*
X102947873Y-94849500D01*
X102947864Y-94849500D01*
X101152129Y-94849500D01*
X101152123Y-94849501D01*
X101092516Y-94855908D01*
X100957671Y-94906202D01*
X100957664Y-94906206D01*
X100842455Y-94992452D01*
X100842452Y-94992455D01*
X100756206Y-95107664D01*
X100756202Y-95107671D01*
X100740682Y-95149284D01*
X100698811Y-95205218D01*
X100633346Y-95229635D01*
X100565073Y-95214783D01*
X100515668Y-95165378D01*
X100500500Y-95105951D01*
X100500500Y-88722413D01*
X100520185Y-88655374D01*
X100572989Y-88609619D01*
X100642147Y-88599675D01*
X100699984Y-88624036D01*
X100805711Y-88705165D01*
X100886196Y-88766924D01*
X101113299Y-88898041D01*
X101113309Y-88898046D01*
X101355571Y-88998394D01*
X101355581Y-88998398D01*
X101608884Y-89066270D01*
X101868880Y-89100500D01*
X101868887Y-89100500D01*
X102131113Y-89100500D01*
X102131120Y-89100500D01*
X102391116Y-89066270D01*
X102644419Y-88998398D01*
X102886697Y-88898043D01*
X103113803Y-88766924D01*
X103321851Y-88607282D01*
X103321855Y-88607277D01*
X103321860Y-88607274D01*
X103507274Y-88421860D01*
X103507277Y-88421855D01*
X103507282Y-88421851D01*
X103666924Y-88213803D01*
X103798043Y-87986697D01*
X103898398Y-87744419D01*
X103966270Y-87491116D01*
X104000500Y-87231120D01*
X104000500Y-86968880D01*
X103966270Y-86708884D01*
X103898398Y-86455581D01*
X103875582Y-86400499D01*
X103798046Y-86213309D01*
X103798041Y-86213299D01*
X103666924Y-85986196D01*
X103544424Y-85826554D01*
X103507282Y-85778149D01*
X103507281Y-85778148D01*
X103507274Y-85778140D01*
X103321860Y-85592726D01*
X103321851Y-85592718D01*
X103113803Y-85433075D01*
X102886700Y-85301958D01*
X102886690Y-85301953D01*
X102644428Y-85201605D01*
X102644421Y-85201603D01*
X102644419Y-85201602D01*
X102391116Y-85133730D01*
X102333339Y-85126123D01*
X102131127Y-85099500D01*
X102131120Y-85099500D01*
X101868880Y-85099500D01*
X101868872Y-85099500D01*
X101637772Y-85129926D01*
X101608884Y-85133730D01*
X101407196Y-85187772D01*
X101355581Y-85201602D01*
X101355571Y-85201605D01*
X101113309Y-85301953D01*
X101113299Y-85301958D01*
X100886196Y-85433075D01*
X100699987Y-85575961D01*
X100634818Y-85601156D01*
X100566373Y-85587118D01*
X100516383Y-85538304D01*
X100500500Y-85477586D01*
X100500500Y-74504427D01*
X100500816Y-74495581D01*
X100505382Y-74431735D01*
X100515131Y-74295434D01*
X100517646Y-74277938D01*
X100559356Y-74086199D01*
X100564333Y-74069248D01*
X100632911Y-73885385D01*
X100640259Y-73869298D01*
X100657401Y-73837904D01*
X100734291Y-73697089D01*
X100743845Y-73682221D01*
X100861448Y-73525123D01*
X100873020Y-73511769D01*
X101011769Y-73373020D01*
X101025123Y-73361448D01*
X101182221Y-73243845D01*
X101197089Y-73234291D01*
X101369298Y-73140258D01*
X101385385Y-73132911D01*
X101569248Y-73064333D01*
X101586199Y-73059356D01*
X101777938Y-73017646D01*
X101795436Y-73015130D01*
X101991164Y-73001132D01*
X102008836Y-73001132D01*
X102204561Y-73015130D01*
X102222063Y-73017647D01*
X102413797Y-73059355D01*
X102430755Y-73064334D01*
X102599603Y-73127312D01*
X102614609Y-73132909D01*
X102630701Y-73140259D01*
X102802904Y-73234288D01*
X102817784Y-73243849D01*
X102974867Y-73361441D01*
X102988237Y-73373027D01*
X103126972Y-73511762D01*
X103138558Y-73525132D01*
X103256146Y-73682210D01*
X103265711Y-73697095D01*
X103359740Y-73869298D01*
X103367090Y-73885390D01*
X103435662Y-74069236D01*
X103440646Y-74086212D01*
X103482351Y-74277931D01*
X103484869Y-74295442D01*
X103499184Y-74495580D01*
X103499500Y-74504427D01*
X103499500Y-77565891D01*
X103533608Y-77693187D01*
X103566554Y-77750250D01*
X103599500Y-77807314D01*
X103692686Y-77900500D01*
X103806814Y-77966392D01*
X103934108Y-78000500D01*
X103934110Y-78000500D01*
X106565890Y-78000500D01*
X106565892Y-78000500D01*
X106693186Y-77966392D01*
X106807314Y-77900500D01*
X106900500Y-77807314D01*
X106966392Y-77693186D01*
X107000500Y-77565892D01*
X107000500Y-75925604D01*
X107004666Y-75899034D01*
X107000500Y-75859981D01*
X107000500Y-75820713D01*
X106996038Y-75804065D01*
X106992514Y-75785127D01*
X106990687Y-75767994D01*
X106976556Y-75731352D01*
X106966392Y-75693419D01*
X106952944Y-75670127D01*
X106943268Y-75645036D01*
X106924023Y-75618634D01*
X106916840Y-75607592D01*
X106900502Y-75579294D01*
X106900498Y-75579289D01*
X106881482Y-75560273D01*
X106865641Y-75538541D01*
X106835085Y-75513876D01*
X106807314Y-75486105D01*
X106807312Y-75486104D01*
X106800863Y-75481155D01*
X106800892Y-75481116D01*
X106785002Y-75469240D01*
X106656417Y-75347014D01*
X106643062Y-75332084D01*
X106517450Y-75166468D01*
X106506672Y-75149578D01*
X106409389Y-74965883D01*
X106401472Y-74947470D01*
X106384207Y-74896262D01*
X106335066Y-74750505D01*
X106330218Y-74731052D01*
X106316117Y-74645483D01*
X106296421Y-74525965D01*
X106294772Y-74505988D01*
X106294663Y-74431735D01*
X106294467Y-74298121D01*
X106296058Y-74278154D01*
X106329255Y-74072953D01*
X106334040Y-74053510D01*
X106399874Y-73856332D01*
X106407731Y-73837912D01*
X106504479Y-73653922D01*
X106515209Y-73637000D01*
X106569915Y-73564431D01*
X106640335Y-73471016D01*
X106653649Y-73456046D01*
X106803888Y-73312396D01*
X106819440Y-73299766D01*
X106990869Y-73182201D01*
X107008254Y-73172242D01*
X107196387Y-73083841D01*
X107215154Y-73076813D01*
X107415068Y-73019886D01*
X107434718Y-73015975D01*
X107641200Y-72992007D01*
X107661223Y-72991314D01*
X107868869Y-73000934D01*
G37*
%TD.AperFunction*%
%TA.AperFunction,Conductor*%
G36*
X100705703Y-101570629D02*
G01*
X100742429Y-101626022D01*
X100798443Y-101798412D01*
X100798444Y-101798414D01*
X100894951Y-101987820D01*
X101019890Y-102159786D01*
X101170213Y-102310109D01*
X101342179Y-102435048D01*
X101342181Y-102435049D01*
X101342184Y-102435051D01*
X101351493Y-102439794D01*
X101402290Y-102487766D01*
X101419087Y-102555587D01*
X101396552Y-102621722D01*
X101351505Y-102660760D01*
X101342446Y-102665376D01*
X101342440Y-102665380D01*
X101288282Y-102704727D01*
X101288282Y-102704728D01*
X101920591Y-103337037D01*
X101857007Y-103354075D01*
X101742993Y-103419901D01*
X101649901Y-103512993D01*
X101584075Y-103627007D01*
X101567037Y-103690591D01*
X100934728Y-103058282D01*
X100934727Y-103058282D01*
X100895380Y-103112439D01*
X100798904Y-103301782D01*
X100742431Y-103475591D01*
X100702994Y-103533266D01*
X100638635Y-103560465D01*
X100569789Y-103548550D01*
X100518313Y-103501306D01*
X100500500Y-103437273D01*
X100500500Y-101664342D01*
X100520185Y-101597303D01*
X100572989Y-101551548D01*
X100642147Y-101541604D01*
X100705703Y-101570629D01*
G37*
%TD.AperFunction*%
%TD*%
%TA.AperFunction,Conductor*%
%TO.N,GND1*%
G36*
X198004418Y-84500816D02*
G01*
X198204561Y-84515130D01*
X198222063Y-84517647D01*
X198413797Y-84559355D01*
X198430755Y-84564334D01*
X198614609Y-84632909D01*
X198630701Y-84640259D01*
X198802904Y-84734288D01*
X198817784Y-84743849D01*
X198974867Y-84861441D01*
X198988237Y-84873027D01*
X199126972Y-85011762D01*
X199138558Y-85025132D01*
X199256146Y-85182210D01*
X199265711Y-85197095D01*
X199359740Y-85369298D01*
X199367090Y-85385390D01*
X199435662Y-85569236D01*
X199440646Y-85586212D01*
X199482351Y-85777931D01*
X199484869Y-85795442D01*
X199499184Y-85995580D01*
X199499500Y-86004427D01*
X199499500Y-94956501D01*
X199479815Y-95023540D01*
X199427011Y-95069295D01*
X199357853Y-95079239D01*
X199294297Y-95050214D01*
X199276234Y-95030813D01*
X199256175Y-95004019D01*
X199232546Y-94972454D01*
X199232544Y-94972453D01*
X199232544Y-94972452D01*
X199117335Y-94886206D01*
X199117328Y-94886202D01*
X198982482Y-94835908D01*
X198982483Y-94835908D01*
X198922883Y-94829501D01*
X198922881Y-94829500D01*
X198922873Y-94829500D01*
X198922864Y-94829500D01*
X197127129Y-94829500D01*
X197127123Y-94829501D01*
X197067516Y-94835908D01*
X196932671Y-94886202D01*
X196932664Y-94886206D01*
X196817455Y-94972452D01*
X196817452Y-94972455D01*
X196731206Y-95087664D01*
X196731202Y-95087671D01*
X196680908Y-95222517D01*
X196674501Y-95282116D01*
X196674501Y-95282123D01*
X196674500Y-95282135D01*
X196674500Y-97077870D01*
X196674501Y-97077876D01*
X196680908Y-97137483D01*
X196731202Y-97272328D01*
X196731206Y-97272335D01*
X196817452Y-97387544D01*
X196817455Y-97387547D01*
X196932664Y-97473793D01*
X196932671Y-97473797D01*
X197064082Y-97522810D01*
X197120016Y-97564681D01*
X197144433Y-97630145D01*
X197129582Y-97698418D01*
X197108431Y-97726673D01*
X196994889Y-97840215D01*
X196869951Y-98012179D01*
X196773444Y-98201585D01*
X196707753Y-98403760D01*
X196674500Y-98613713D01*
X196674500Y-98826287D01*
X196707754Y-99036243D01*
X196764298Y-99210268D01*
X196773444Y-99238414D01*
X196869951Y-99427820D01*
X196994890Y-99599786D01*
X197145213Y-99750109D01*
X197317182Y-99875050D01*
X197325946Y-99879516D01*
X197376742Y-99927491D01*
X197393536Y-99995312D01*
X197370998Y-100061447D01*
X197325946Y-100100484D01*
X197317182Y-100104949D01*
X197145213Y-100229890D01*
X196994890Y-100380213D01*
X196869951Y-100552179D01*
X196773444Y-100741585D01*
X196707753Y-100943760D01*
X196674500Y-101153713D01*
X196674500Y-101366287D01*
X196707754Y-101576243D01*
X196764298Y-101750268D01*
X196773444Y-101778414D01*
X196869951Y-101967820D01*
X196994890Y-102139786D01*
X197145213Y-102290109D01*
X197317179Y-102415048D01*
X197317181Y-102415049D01*
X197317184Y-102415051D01*
X197326493Y-102419794D01*
X197377290Y-102467766D01*
X197394087Y-102535587D01*
X197371552Y-102601722D01*
X197326505Y-102640760D01*
X197317446Y-102645376D01*
X197317440Y-102645380D01*
X197263282Y-102684727D01*
X197263282Y-102684728D01*
X197895591Y-103317037D01*
X197832007Y-103334075D01*
X197717993Y-103399901D01*
X197624901Y-103492993D01*
X197559075Y-103607007D01*
X197542037Y-103670590D01*
X196909728Y-103038282D01*
X196909727Y-103038282D01*
X196870380Y-103092439D01*
X196773904Y-103281782D01*
X196708242Y-103483869D01*
X196708242Y-103483872D01*
X196675000Y-103693753D01*
X196675000Y-103906246D01*
X196708242Y-104116127D01*
X196708242Y-104116130D01*
X196773904Y-104318217D01*
X196870375Y-104507550D01*
X196909728Y-104561716D01*
X197542037Y-103929408D01*
X197559075Y-103992993D01*
X197624901Y-104107007D01*
X197717993Y-104200099D01*
X197832007Y-104265925D01*
X197895590Y-104282962D01*
X197263282Y-104915269D01*
X197263282Y-104915270D01*
X197317449Y-104954624D01*
X197506782Y-105051095D01*
X197708870Y-105116757D01*
X197918754Y-105150000D01*
X198131246Y-105150000D01*
X198341127Y-105116757D01*
X198341130Y-105116757D01*
X198543217Y-105051095D01*
X198732554Y-104954622D01*
X198786716Y-104915270D01*
X198786717Y-104915270D01*
X198154408Y-104282962D01*
X198217993Y-104265925D01*
X198332007Y-104200099D01*
X198425099Y-104107007D01*
X198490925Y-103992993D01*
X198507962Y-103929408D01*
X199140270Y-104561717D01*
X199140270Y-104561716D01*
X199179622Y-104507554D01*
X199265015Y-104339963D01*
X199312990Y-104289167D01*
X199380811Y-104272372D01*
X199446946Y-104294909D01*
X199490397Y-104349625D01*
X199499500Y-104396258D01*
X199499500Y-113995572D01*
X199499184Y-114004418D01*
X199499184Y-114004419D01*
X199484869Y-114204557D01*
X199482351Y-114222068D01*
X199440646Y-114413787D01*
X199435662Y-114430763D01*
X199367090Y-114614609D01*
X199359740Y-114630701D01*
X199265711Y-114802904D01*
X199256146Y-114817789D01*
X199138558Y-114974867D01*
X199126972Y-114988237D01*
X198988237Y-115126972D01*
X198974867Y-115138558D01*
X198817789Y-115256146D01*
X198802904Y-115265711D01*
X198630701Y-115359740D01*
X198614609Y-115367090D01*
X198430763Y-115435662D01*
X198413787Y-115440646D01*
X198222068Y-115482351D01*
X198204557Y-115484869D01*
X198023779Y-115497799D01*
X198004417Y-115499184D01*
X197995572Y-115499500D01*
X170504428Y-115499500D01*
X170495582Y-115499184D01*
X170473622Y-115497613D01*
X170295442Y-115484869D01*
X170277931Y-115482351D01*
X170086212Y-115440646D01*
X170069236Y-115435662D01*
X169885390Y-115367090D01*
X169869298Y-115359740D01*
X169697095Y-115265711D01*
X169682210Y-115256146D01*
X169525132Y-115138558D01*
X169511762Y-115126972D01*
X169373027Y-114988237D01*
X169361441Y-114974867D01*
X169243849Y-114817784D01*
X169234288Y-114802904D01*
X169140259Y-114630701D01*
X169132909Y-114614609D01*
X169090348Y-114500500D01*
X169064334Y-114430755D01*
X169059355Y-114413797D01*
X169017647Y-114222063D01*
X169015130Y-114204556D01*
X169000816Y-114004418D01*
X169000500Y-113995572D01*
X169000500Y-113934110D01*
X169000500Y-113934108D01*
X168966392Y-113806814D01*
X168900500Y-113692686D01*
X168807314Y-113599500D01*
X168750250Y-113566554D01*
X168693187Y-113533608D01*
X168650519Y-113522175D01*
X168591905Y-113506470D01*
X168532246Y-113470106D01*
X168501717Y-113407259D01*
X168500000Y-113386696D01*
X168500000Y-113113303D01*
X168519685Y-113046264D01*
X168572489Y-113000509D01*
X168591895Y-112993532D01*
X168693186Y-112966392D01*
X168807314Y-112900500D01*
X168900500Y-112807314D01*
X168966392Y-112693186D01*
X169000500Y-112565892D01*
X169000500Y-104259669D01*
X169020185Y-104192630D01*
X169072989Y-104146875D01*
X169142147Y-104136931D01*
X169205703Y-104165956D01*
X169242431Y-104221351D01*
X169273904Y-104318217D01*
X169370375Y-104507550D01*
X169409728Y-104561716D01*
X170042037Y-103929408D01*
X170059075Y-103992993D01*
X170124901Y-104107007D01*
X170217993Y-104200099D01*
X170332007Y-104265925D01*
X170395590Y-104282962D01*
X169763282Y-104915269D01*
X169763282Y-104915270D01*
X169817449Y-104954624D01*
X170006782Y-105051095D01*
X170208870Y-105116757D01*
X170418754Y-105150000D01*
X170631246Y-105150000D01*
X170841127Y-105116757D01*
X170841130Y-105116757D01*
X171043217Y-105051095D01*
X171232554Y-104954622D01*
X171286716Y-104915270D01*
X171286717Y-104915270D01*
X170654408Y-104282962D01*
X170717993Y-104265925D01*
X170832007Y-104200099D01*
X170925099Y-104107007D01*
X170990925Y-103992993D01*
X171007962Y-103929409D01*
X171640270Y-104561717D01*
X171640270Y-104561716D01*
X171679622Y-104507554D01*
X171776095Y-104318217D01*
X171841757Y-104116130D01*
X171841757Y-104116127D01*
X171875000Y-103906246D01*
X171875000Y-103693753D01*
X171841757Y-103483872D01*
X171841757Y-103483869D01*
X171776095Y-103281782D01*
X171679624Y-103092449D01*
X171640270Y-103038282D01*
X171640269Y-103038282D01*
X171007962Y-103670590D01*
X170990925Y-103607007D01*
X170925099Y-103492993D01*
X170832007Y-103399901D01*
X170717993Y-103334075D01*
X170654409Y-103317037D01*
X171286716Y-102684728D01*
X171232547Y-102645373D01*
X171232547Y-102645372D01*
X171223500Y-102640763D01*
X171172706Y-102592788D01*
X171155912Y-102524966D01*
X171178451Y-102458832D01*
X171223508Y-102419793D01*
X171232816Y-102415051D01*
X171312007Y-102357515D01*
X171404786Y-102290109D01*
X171404788Y-102290106D01*
X171404792Y-102290104D01*
X171555104Y-102139792D01*
X171555106Y-102139788D01*
X171555109Y-102139786D01*
X171680048Y-101967820D01*
X171680047Y-101967820D01*
X171680051Y-101967816D01*
X171776557Y-101778412D01*
X171842246Y-101576243D01*
X171875500Y-101366287D01*
X171875500Y-101153713D01*
X171842246Y-100943757D01*
X171776557Y-100741588D01*
X171680051Y-100552184D01*
X171680049Y-100552181D01*
X171680048Y-100552179D01*
X171555109Y-100380213D01*
X171404786Y-100229890D01*
X171232820Y-100104951D01*
X171232115Y-100104591D01*
X171224054Y-100100485D01*
X171173259Y-100052512D01*
X171156463Y-99984692D01*
X171178999Y-99918556D01*
X171224054Y-99879515D01*
X171232816Y-99875051D01*
X171254789Y-99859086D01*
X171404786Y-99750109D01*
X171404788Y-99750106D01*
X171404792Y-99750104D01*
X171555104Y-99599792D01*
X171555106Y-99599788D01*
X171555109Y-99599786D01*
X171680048Y-99427820D01*
X171680047Y-99427820D01*
X171680051Y-99427816D01*
X171776557Y-99238412D01*
X171842246Y-99036243D01*
X171875500Y-98826287D01*
X171875500Y-98613713D01*
X171842246Y-98403757D01*
X171776557Y-98201588D01*
X171680051Y-98012184D01*
X171680049Y-98012181D01*
X171680048Y-98012179D01*
X171555109Y-97840213D01*
X171441569Y-97726673D01*
X171408084Y-97665350D01*
X171413068Y-97595658D01*
X171454940Y-97539725D01*
X171485915Y-97522810D01*
X171617331Y-97473796D01*
X171732546Y-97387546D01*
X171818796Y-97272331D01*
X171869091Y-97137483D01*
X171875500Y-97077873D01*
X171875499Y-95282128D01*
X171869091Y-95222517D01*
X171841308Y-95148028D01*
X171818797Y-95087671D01*
X171818793Y-95087664D01*
X171732547Y-94972455D01*
X171732544Y-94972452D01*
X171617335Y-94886206D01*
X171617328Y-94886202D01*
X171482482Y-94835908D01*
X171482483Y-94835908D01*
X171422883Y-94829501D01*
X171422881Y-94829500D01*
X171422873Y-94829500D01*
X171422864Y-94829500D01*
X169627129Y-94829500D01*
X169627123Y-94829501D01*
X169567516Y-94835908D01*
X169432671Y-94886202D01*
X169432664Y-94886206D01*
X169317455Y-94972452D01*
X169317452Y-94972455D01*
X169225888Y-95094769D01*
X169223855Y-95093247D01*
X169183925Y-95133177D01*
X169115652Y-95148028D01*
X169050188Y-95123610D01*
X169008318Y-95067676D01*
X169000500Y-95024344D01*
X169000500Y-87434110D01*
X169000500Y-87434108D01*
X168966392Y-87306814D01*
X168900500Y-87192686D01*
X168807314Y-87099500D01*
X168750250Y-87066554D01*
X168693187Y-87033608D01*
X168650519Y-87022175D01*
X168591905Y-87006470D01*
X168532246Y-86970106D01*
X168501717Y-86907259D01*
X168500000Y-86886696D01*
X168500000Y-86613303D01*
X168519685Y-86546264D01*
X168572489Y-86500509D01*
X168591895Y-86493532D01*
X168693186Y-86466392D01*
X168807314Y-86400500D01*
X168900500Y-86307314D01*
X168966392Y-86193186D01*
X169000500Y-86065892D01*
X169000500Y-86004427D01*
X169000816Y-85995581D01*
X169015130Y-85795443D01*
X169015131Y-85795434D01*
X169017646Y-85777938D01*
X169059356Y-85586199D01*
X169064333Y-85569248D01*
X169132911Y-85385385D01*
X169140259Y-85369298D01*
X169202815Y-85254734D01*
X169234291Y-85197089D01*
X169243845Y-85182221D01*
X169361448Y-85025123D01*
X169373020Y-85011769D01*
X169511769Y-84873020D01*
X169525123Y-84861448D01*
X169682221Y-84743845D01*
X169697089Y-84734291D01*
X169869298Y-84640258D01*
X169885385Y-84632911D01*
X170069248Y-84564333D01*
X170086199Y-84559356D01*
X170277938Y-84517646D01*
X170295436Y-84515130D01*
X170495582Y-84500816D01*
X170504428Y-84500500D01*
X170565892Y-84500500D01*
X197934108Y-84500500D01*
X197995572Y-84500500D01*
X198004418Y-84500816D01*
G37*
%TD.AperFunction*%
%TA.AperFunction,Conductor*%
G36*
X169205703Y-101627571D02*
G01*
X169242430Y-101682964D01*
X169266164Y-101756010D01*
X169273444Y-101778414D01*
X169369951Y-101967820D01*
X169494890Y-102139786D01*
X169645213Y-102290109D01*
X169817179Y-102415048D01*
X169817181Y-102415049D01*
X169817184Y-102415051D01*
X169826493Y-102419794D01*
X169877290Y-102467766D01*
X169894087Y-102535587D01*
X169871552Y-102601722D01*
X169826505Y-102640760D01*
X169817446Y-102645376D01*
X169817440Y-102645380D01*
X169763282Y-102684727D01*
X169763282Y-102684728D01*
X170395591Y-103317037D01*
X170332007Y-103334075D01*
X170217993Y-103399901D01*
X170124901Y-103492993D01*
X170059075Y-103607007D01*
X170042037Y-103670591D01*
X169409728Y-103038282D01*
X169409727Y-103038282D01*
X169370380Y-103092439D01*
X169273904Y-103281783D01*
X169242431Y-103378648D01*
X169202994Y-103436324D01*
X169138635Y-103463522D01*
X169069789Y-103451607D01*
X169018313Y-103404363D01*
X169000500Y-103340330D01*
X169000500Y-101721284D01*
X169020185Y-101654245D01*
X169072989Y-101608490D01*
X169142147Y-101598546D01*
X169205703Y-101627571D01*
G37*
%TD.AperFunction*%
%TA.AperFunction,Conductor*%
G36*
X199446945Y-101756010D02*
G01*
X199490397Y-101810725D01*
X199499500Y-101857359D01*
X199499500Y-103203741D01*
X199479815Y-103270780D01*
X199427011Y-103316535D01*
X199357853Y-103326479D01*
X199294297Y-103297454D01*
X199265015Y-103260036D01*
X199179624Y-103092449D01*
X199140270Y-103038282D01*
X199140269Y-103038282D01*
X198507962Y-103670590D01*
X198490925Y-103607007D01*
X198425099Y-103492993D01*
X198332007Y-103399901D01*
X198217993Y-103334075D01*
X198154409Y-103317037D01*
X198786716Y-102684728D01*
X198732547Y-102645373D01*
X198732547Y-102645372D01*
X198723500Y-102640763D01*
X198672706Y-102592788D01*
X198655912Y-102524966D01*
X198678451Y-102458832D01*
X198723508Y-102419793D01*
X198732816Y-102415051D01*
X198812007Y-102357515D01*
X198904786Y-102290109D01*
X198904788Y-102290106D01*
X198904792Y-102290104D01*
X199055104Y-102139792D01*
X199055106Y-102139788D01*
X199055109Y-102139786D01*
X199180048Y-101967820D01*
X199180047Y-101967820D01*
X199180051Y-101967816D01*
X199265015Y-101801063D01*
X199312989Y-101750268D01*
X199380810Y-101733473D01*
X199446945Y-101756010D01*
G37*
%TD.AperFunction*%
%TD*%
M02*
