%TF.GenerationSoftware,KiCad,Pcbnew,9.0.4*%
%TF.CreationDate,2025-12-19T12:52:20+01:00*%
%TF.ProjectId,malibotti,6d616c69-626f-4747-9469-2e6b69636164,rev?*%
%TF.SameCoordinates,Original*%
%TF.FileFunction,Legend,Bot*%
%TF.FilePolarity,Positive*%
%FSLAX46Y46*%
G04 Gerber Fmt 4.6, Leading zero omitted, Abs format (unit mm)*
G04 Created by KiCad (PCBNEW 9.0.4) date 2025-12-19 12:52:20*
%MOMM*%
%LPD*%
G01*
G04 APERTURE LIST*
G04 Aperture macros list*
%AMRoundRect*
0 Rectangle with rounded corners*
0 $1 Rounding radius*
0 $2 $3 $4 $5 $6 $7 $8 $9 X,Y pos of 4 corners*
0 Add a 4 corners polygon primitive as box body*
4,1,4,$2,$3,$4,$5,$6,$7,$8,$9,$2,$3,0*
0 Add four circle primitives for the rounded corners*
1,1,$1+$1,$2,$3*
1,1,$1+$1,$4,$5*
1,1,$1+$1,$6,$7*
1,1,$1+$1,$8,$9*
0 Add four rect primitives between the rounded corners*
20,1,$1+$1,$2,$3,$4,$5,0*
20,1,$1+$1,$4,$5,$6,$7,0*
20,1,$1+$1,$6,$7,$8,$9,0*
20,1,$1+$1,$8,$9,$2,$3,0*%
G04 Aperture macros list end*
%ADD10C,0.150000*%
%ADD11C,0.127000*%
%ADD12C,0.120000*%
%ADD13C,0.350000*%
%ADD14C,0.100000*%
%ADD15R,1.700000X1.700000*%
%ADD16C,1.700000*%
%ADD17RoundRect,0.250000X0.650000X-0.950000X0.650000X0.950000X-0.650000X0.950000X-0.650000X-0.950000X0*%
%ADD18R,1.008000X4.892000*%
%ADD19R,1.000000X4.892000*%
%ADD20R,1.500000X1.500000*%
%ADD21RoundRect,0.250000X0.650000X-0.412500X0.650000X0.412500X-0.650000X0.412500X-0.650000X-0.412500X0*%
%ADD22R,4.130000X1.008000*%
%ADD23R,4.257000X1.008000*%
%ADD24R,4.130000X1.000000*%
%ADD25R,4.257000X1.000000*%
%ADD26RoundRect,0.250000X-0.400000X-0.625000X0.400000X-0.625000X0.400000X0.625000X-0.400000X0.625000X0*%
%ADD27RoundRect,0.250000X0.400000X0.625000X-0.400000X0.625000X-0.400000X-0.625000X0.400000X-0.625000X0*%
%ADD28RoundRect,0.250000X0.412500X0.650000X-0.412500X0.650000X-0.412500X-0.650000X0.412500X-0.650000X0*%
%ADD29RoundRect,0.102000X-1.512500X-0.762000X1.512500X-0.762000X1.512500X0.762000X-1.512500X0.762000X0*%
%ADD30RoundRect,0.150000X-0.950000X-0.150000X0.950000X-0.150000X0.950000X0.150000X-0.950000X0.150000X0*%
%ADD31RoundRect,0.250000X-0.625000X0.400000X-0.625000X-0.400000X0.625000X-0.400000X0.625000X0.400000X0*%
%ADD32RoundRect,0.082000X0.868000X-0.328000X0.868000X0.328000X-0.868000X0.328000X-0.868000X-0.328000X0*%
%ADD33RoundRect,0.086000X0.864000X-0.344000X0.864000X0.344000X-0.864000X0.344000X-0.864000X-0.344000X0*%
%ADD34RoundRect,0.076000X0.874000X-0.304000X0.874000X0.304000X-0.874000X0.304000X-0.874000X-0.304000X0*%
%ADD35RoundRect,0.220000X1.005000X0.330000X-1.005000X0.330000X-1.005000X-0.330000X1.005000X-0.330000X0*%
G04 APERTURE END LIST*
D10*
X140707200Y-86985714D02*
X140754819Y-87128571D01*
X140754819Y-87128571D02*
X140754819Y-87366666D01*
X140754819Y-87366666D02*
X140707200Y-87461904D01*
X140707200Y-87461904D02*
X140659580Y-87509523D01*
X140659580Y-87509523D02*
X140564342Y-87557142D01*
X140564342Y-87557142D02*
X140469104Y-87557142D01*
X140469104Y-87557142D02*
X140373866Y-87509523D01*
X140373866Y-87509523D02*
X140326247Y-87461904D01*
X140326247Y-87461904D02*
X140278628Y-87366666D01*
X140278628Y-87366666D02*
X140231009Y-87176190D01*
X140231009Y-87176190D02*
X140183390Y-87080952D01*
X140183390Y-87080952D02*
X140135771Y-87033333D01*
X140135771Y-87033333D02*
X140040533Y-86985714D01*
X140040533Y-86985714D02*
X139945295Y-86985714D01*
X139945295Y-86985714D02*
X139850057Y-87033333D01*
X139850057Y-87033333D02*
X139802438Y-87080952D01*
X139802438Y-87080952D02*
X139754819Y-87176190D01*
X139754819Y-87176190D02*
X139754819Y-87414285D01*
X139754819Y-87414285D02*
X139802438Y-87557142D01*
X140754819Y-87985714D02*
X139754819Y-87985714D01*
X139754819Y-87985714D02*
X139754819Y-88223809D01*
X139754819Y-88223809D02*
X139802438Y-88366666D01*
X139802438Y-88366666D02*
X139897676Y-88461904D01*
X139897676Y-88461904D02*
X139992914Y-88509523D01*
X139992914Y-88509523D02*
X140183390Y-88557142D01*
X140183390Y-88557142D02*
X140326247Y-88557142D01*
X140326247Y-88557142D02*
X140516723Y-88509523D01*
X140516723Y-88509523D02*
X140611961Y-88461904D01*
X140611961Y-88461904D02*
X140707200Y-88366666D01*
X140707200Y-88366666D02*
X140754819Y-88223809D01*
X140754819Y-88223809D02*
X140754819Y-87985714D01*
X140469104Y-88938095D02*
X140469104Y-89414285D01*
X140754819Y-88842857D02*
X139754819Y-89176190D01*
X139754819Y-89176190D02*
X140754819Y-89509523D01*
X162063220Y-87269819D02*
X162063220Y-86269819D01*
X161491792Y-87269819D02*
X161920363Y-86698390D01*
X161491792Y-86269819D02*
X162063220Y-86841247D01*
X160634649Y-87269819D02*
X160634649Y-86746009D01*
X160634649Y-86746009D02*
X160682268Y-86650771D01*
X160682268Y-86650771D02*
X160777506Y-86603152D01*
X160777506Y-86603152D02*
X160967982Y-86603152D01*
X160967982Y-86603152D02*
X161063220Y-86650771D01*
X160634649Y-87222200D02*
X160729887Y-87269819D01*
X160729887Y-87269819D02*
X160967982Y-87269819D01*
X160967982Y-87269819D02*
X161063220Y-87222200D01*
X161063220Y-87222200D02*
X161110839Y-87126961D01*
X161110839Y-87126961D02*
X161110839Y-87031723D01*
X161110839Y-87031723D02*
X161063220Y-86936485D01*
X161063220Y-86936485D02*
X160967982Y-86888866D01*
X160967982Y-86888866D02*
X160729887Y-86888866D01*
X160729887Y-86888866D02*
X160634649Y-86841247D01*
X160158458Y-87269819D02*
X160158458Y-86269819D01*
X160158458Y-86650771D02*
X160063220Y-86603152D01*
X160063220Y-86603152D02*
X159872744Y-86603152D01*
X159872744Y-86603152D02*
X159777506Y-86650771D01*
X159777506Y-86650771D02*
X159729887Y-86698390D01*
X159729887Y-86698390D02*
X159682268Y-86793628D01*
X159682268Y-86793628D02*
X159682268Y-87079342D01*
X159682268Y-87079342D02*
X159729887Y-87174580D01*
X159729887Y-87174580D02*
X159777506Y-87222200D01*
X159777506Y-87222200D02*
X159872744Y-87269819D01*
X159872744Y-87269819D02*
X160063220Y-87269819D01*
X160063220Y-87269819D02*
X160158458Y-87222200D01*
X158872744Y-87222200D02*
X158967982Y-87269819D01*
X158967982Y-87269819D02*
X159158458Y-87269819D01*
X159158458Y-87269819D02*
X159253696Y-87222200D01*
X159253696Y-87222200D02*
X159301315Y-87126961D01*
X159301315Y-87126961D02*
X159301315Y-86746009D01*
X159301315Y-86746009D02*
X159253696Y-86650771D01*
X159253696Y-86650771D02*
X159158458Y-86603152D01*
X159158458Y-86603152D02*
X158967982Y-86603152D01*
X158967982Y-86603152D02*
X158872744Y-86650771D01*
X158872744Y-86650771D02*
X158825125Y-86746009D01*
X158825125Y-86746009D02*
X158825125Y-86841247D01*
X158825125Y-86841247D02*
X159301315Y-86936485D01*
X158253696Y-87269819D02*
X158348934Y-87222200D01*
X158348934Y-87222200D02*
X158396553Y-87126961D01*
X158396553Y-87126961D02*
X158396553Y-86269819D01*
X157872743Y-87269819D02*
X157872743Y-86269819D01*
X157872743Y-86650771D02*
X157777505Y-86603152D01*
X157777505Y-86603152D02*
X157587029Y-86603152D01*
X157587029Y-86603152D02*
X157491791Y-86650771D01*
X157491791Y-86650771D02*
X157444172Y-86698390D01*
X157444172Y-86698390D02*
X157396553Y-86793628D01*
X157396553Y-86793628D02*
X157396553Y-87079342D01*
X157396553Y-87079342D02*
X157444172Y-87174580D01*
X157444172Y-87174580D02*
X157491791Y-87222200D01*
X157491791Y-87222200D02*
X157587029Y-87269819D01*
X157587029Y-87269819D02*
X157777505Y-87269819D01*
X157777505Y-87269819D02*
X157872743Y-87222200D01*
X156967981Y-87269819D02*
X156967981Y-86603152D01*
X156967981Y-86269819D02*
X157015600Y-86317438D01*
X157015600Y-86317438D02*
X156967981Y-86365057D01*
X156967981Y-86365057D02*
X156920362Y-86317438D01*
X156920362Y-86317438D02*
X156967981Y-86269819D01*
X156967981Y-86269819D02*
X156967981Y-86365057D01*
X156491791Y-86603152D02*
X156491791Y-87269819D01*
X156491791Y-86698390D02*
X156444172Y-86650771D01*
X156444172Y-86650771D02*
X156348934Y-86603152D01*
X156348934Y-86603152D02*
X156206077Y-86603152D01*
X156206077Y-86603152D02*
X156110839Y-86650771D01*
X156110839Y-86650771D02*
X156063220Y-86746009D01*
X156063220Y-86746009D02*
X156063220Y-87269819D01*
X155158458Y-87269819D02*
X155158458Y-86269819D01*
X155158458Y-87222200D02*
X155253696Y-87269819D01*
X155253696Y-87269819D02*
X155444172Y-87269819D01*
X155444172Y-87269819D02*
X155539410Y-87222200D01*
X155539410Y-87222200D02*
X155587029Y-87174580D01*
X155587029Y-87174580D02*
X155634648Y-87079342D01*
X155634648Y-87079342D02*
X155634648Y-86793628D01*
X155634648Y-86793628D02*
X155587029Y-86698390D01*
X155587029Y-86698390D02*
X155539410Y-86650771D01*
X155539410Y-86650771D02*
X155444172Y-86603152D01*
X155444172Y-86603152D02*
X155253696Y-86603152D01*
X155253696Y-86603152D02*
X155158458Y-86650771D01*
X154301315Y-87222200D02*
X154396553Y-87269819D01*
X154396553Y-87269819D02*
X154587029Y-87269819D01*
X154587029Y-87269819D02*
X154682267Y-87222200D01*
X154682267Y-87222200D02*
X154729886Y-87126961D01*
X154729886Y-87126961D02*
X154729886Y-86746009D01*
X154729886Y-86746009D02*
X154682267Y-86650771D01*
X154682267Y-86650771D02*
X154587029Y-86603152D01*
X154587029Y-86603152D02*
X154396553Y-86603152D01*
X154396553Y-86603152D02*
X154301315Y-86650771D01*
X154301315Y-86650771D02*
X154253696Y-86746009D01*
X154253696Y-86746009D02*
X154253696Y-86841247D01*
X154253696Y-86841247D02*
X154729886Y-86936485D01*
X153825124Y-87269819D02*
X153825124Y-86603152D01*
X153825124Y-86793628D02*
X153777505Y-86698390D01*
X153777505Y-86698390D02*
X153729886Y-86650771D01*
X153729886Y-86650771D02*
X153634648Y-86603152D01*
X153634648Y-86603152D02*
X153539410Y-86603152D01*
X143561904Y-103707200D02*
X143419047Y-103754819D01*
X143419047Y-103754819D02*
X143180952Y-103754819D01*
X143180952Y-103754819D02*
X143085714Y-103707200D01*
X143085714Y-103707200D02*
X143038095Y-103659580D01*
X143038095Y-103659580D02*
X142990476Y-103564342D01*
X142990476Y-103564342D02*
X142990476Y-103469104D01*
X142990476Y-103469104D02*
X143038095Y-103373866D01*
X143038095Y-103373866D02*
X143085714Y-103326247D01*
X143085714Y-103326247D02*
X143180952Y-103278628D01*
X143180952Y-103278628D02*
X143371428Y-103231009D01*
X143371428Y-103231009D02*
X143466666Y-103183390D01*
X143466666Y-103183390D02*
X143514285Y-103135771D01*
X143514285Y-103135771D02*
X143561904Y-103040533D01*
X143561904Y-103040533D02*
X143561904Y-102945295D01*
X143561904Y-102945295D02*
X143514285Y-102850057D01*
X143514285Y-102850057D02*
X143466666Y-102802438D01*
X143466666Y-102802438D02*
X143371428Y-102754819D01*
X143371428Y-102754819D02*
X143133333Y-102754819D01*
X143133333Y-102754819D02*
X142990476Y-102802438D01*
X142657142Y-102754819D02*
X142038095Y-102754819D01*
X142038095Y-102754819D02*
X142371428Y-103135771D01*
X142371428Y-103135771D02*
X142228571Y-103135771D01*
X142228571Y-103135771D02*
X142133333Y-103183390D01*
X142133333Y-103183390D02*
X142085714Y-103231009D01*
X142085714Y-103231009D02*
X142038095Y-103326247D01*
X142038095Y-103326247D02*
X142038095Y-103564342D01*
X142038095Y-103564342D02*
X142085714Y-103659580D01*
X142085714Y-103659580D02*
X142133333Y-103707200D01*
X142133333Y-103707200D02*
X142228571Y-103754819D01*
X142228571Y-103754819D02*
X142514285Y-103754819D01*
X142514285Y-103754819D02*
X142609523Y-103707200D01*
X142609523Y-103707200D02*
X142657142Y-103659580D01*
X119961904Y-104907200D02*
X119819047Y-104954819D01*
X119819047Y-104954819D02*
X119580952Y-104954819D01*
X119580952Y-104954819D02*
X119485714Y-104907200D01*
X119485714Y-104907200D02*
X119438095Y-104859580D01*
X119438095Y-104859580D02*
X119390476Y-104764342D01*
X119390476Y-104764342D02*
X119390476Y-104669104D01*
X119390476Y-104669104D02*
X119438095Y-104573866D01*
X119438095Y-104573866D02*
X119485714Y-104526247D01*
X119485714Y-104526247D02*
X119580952Y-104478628D01*
X119580952Y-104478628D02*
X119771428Y-104431009D01*
X119771428Y-104431009D02*
X119866666Y-104383390D01*
X119866666Y-104383390D02*
X119914285Y-104335771D01*
X119914285Y-104335771D02*
X119961904Y-104240533D01*
X119961904Y-104240533D02*
X119961904Y-104145295D01*
X119961904Y-104145295D02*
X119914285Y-104050057D01*
X119914285Y-104050057D02*
X119866666Y-104002438D01*
X119866666Y-104002438D02*
X119771428Y-103954819D01*
X119771428Y-103954819D02*
X119533333Y-103954819D01*
X119533333Y-103954819D02*
X119390476Y-104002438D01*
X119009523Y-104050057D02*
X118961904Y-104002438D01*
X118961904Y-104002438D02*
X118866666Y-103954819D01*
X118866666Y-103954819D02*
X118628571Y-103954819D01*
X118628571Y-103954819D02*
X118533333Y-104002438D01*
X118533333Y-104002438D02*
X118485714Y-104050057D01*
X118485714Y-104050057D02*
X118438095Y-104145295D01*
X118438095Y-104145295D02*
X118438095Y-104240533D01*
X118438095Y-104240533D02*
X118485714Y-104383390D01*
X118485714Y-104383390D02*
X119057142Y-104954819D01*
X119057142Y-104954819D02*
X118438095Y-104954819D01*
X110838095Y-95802438D02*
X110933333Y-95754819D01*
X110933333Y-95754819D02*
X111076190Y-95754819D01*
X111076190Y-95754819D02*
X111219047Y-95802438D01*
X111219047Y-95802438D02*
X111314285Y-95897676D01*
X111314285Y-95897676D02*
X111361904Y-95992914D01*
X111361904Y-95992914D02*
X111409523Y-96183390D01*
X111409523Y-96183390D02*
X111409523Y-96326247D01*
X111409523Y-96326247D02*
X111361904Y-96516723D01*
X111361904Y-96516723D02*
X111314285Y-96611961D01*
X111314285Y-96611961D02*
X111219047Y-96707200D01*
X111219047Y-96707200D02*
X111076190Y-96754819D01*
X111076190Y-96754819D02*
X110980952Y-96754819D01*
X110980952Y-96754819D02*
X110838095Y-96707200D01*
X110838095Y-96707200D02*
X110790476Y-96659580D01*
X110790476Y-96659580D02*
X110790476Y-96326247D01*
X110790476Y-96326247D02*
X110980952Y-96326247D01*
X134938095Y-88402438D02*
X135033333Y-88354819D01*
X135033333Y-88354819D02*
X135176190Y-88354819D01*
X135176190Y-88354819D02*
X135319047Y-88402438D01*
X135319047Y-88402438D02*
X135414285Y-88497676D01*
X135414285Y-88497676D02*
X135461904Y-88592914D01*
X135461904Y-88592914D02*
X135509523Y-88783390D01*
X135509523Y-88783390D02*
X135509523Y-88926247D01*
X135509523Y-88926247D02*
X135461904Y-89116723D01*
X135461904Y-89116723D02*
X135414285Y-89211961D01*
X135414285Y-89211961D02*
X135319047Y-89307200D01*
X135319047Y-89307200D02*
X135176190Y-89354819D01*
X135176190Y-89354819D02*
X135080952Y-89354819D01*
X135080952Y-89354819D02*
X134938095Y-89307200D01*
X134938095Y-89307200D02*
X134890476Y-89259580D01*
X134890476Y-89259580D02*
X134890476Y-88926247D01*
X134890476Y-88926247D02*
X135080952Y-88926247D01*
X138033332Y-88454819D02*
X137414285Y-88454819D01*
X137414285Y-88454819D02*
X137747618Y-88835771D01*
X137747618Y-88835771D02*
X137604761Y-88835771D01*
X137604761Y-88835771D02*
X137509523Y-88883390D01*
X137509523Y-88883390D02*
X137461904Y-88931009D01*
X137461904Y-88931009D02*
X137414285Y-89026247D01*
X137414285Y-89026247D02*
X137414285Y-89264342D01*
X137414285Y-89264342D02*
X137461904Y-89359580D01*
X137461904Y-89359580D02*
X137509523Y-89407200D01*
X137509523Y-89407200D02*
X137604761Y-89454819D01*
X137604761Y-89454819D02*
X137890475Y-89454819D01*
X137890475Y-89454819D02*
X137985713Y-89407200D01*
X137985713Y-89407200D02*
X138033332Y-89359580D01*
X120861904Y-99754819D02*
X121338094Y-99754819D01*
X121338094Y-99754819D02*
X121385713Y-100231009D01*
X121385713Y-100231009D02*
X121338094Y-100183390D01*
X121338094Y-100183390D02*
X121242856Y-100135771D01*
X121242856Y-100135771D02*
X121004761Y-100135771D01*
X121004761Y-100135771D02*
X120909523Y-100183390D01*
X120909523Y-100183390D02*
X120861904Y-100231009D01*
X120861904Y-100231009D02*
X120814285Y-100326247D01*
X120814285Y-100326247D02*
X120814285Y-100564342D01*
X120814285Y-100564342D02*
X120861904Y-100659580D01*
X120861904Y-100659580D02*
X120909523Y-100707200D01*
X120909523Y-100707200D02*
X121004761Y-100754819D01*
X121004761Y-100754819D02*
X121242856Y-100754819D01*
X121242856Y-100754819D02*
X121338094Y-100707200D01*
X121338094Y-100707200D02*
X121385713Y-100659580D01*
X143207200Y-87009524D02*
X143254819Y-87152381D01*
X143254819Y-87152381D02*
X143254819Y-87390476D01*
X143254819Y-87390476D02*
X143207200Y-87485714D01*
X143207200Y-87485714D02*
X143159580Y-87533333D01*
X143159580Y-87533333D02*
X143064342Y-87580952D01*
X143064342Y-87580952D02*
X142969104Y-87580952D01*
X142969104Y-87580952D02*
X142873866Y-87533333D01*
X142873866Y-87533333D02*
X142826247Y-87485714D01*
X142826247Y-87485714D02*
X142778628Y-87390476D01*
X142778628Y-87390476D02*
X142731009Y-87200000D01*
X142731009Y-87200000D02*
X142683390Y-87104762D01*
X142683390Y-87104762D02*
X142635771Y-87057143D01*
X142635771Y-87057143D02*
X142540533Y-87009524D01*
X142540533Y-87009524D02*
X142445295Y-87009524D01*
X142445295Y-87009524D02*
X142350057Y-87057143D01*
X142350057Y-87057143D02*
X142302438Y-87104762D01*
X142302438Y-87104762D02*
X142254819Y-87200000D01*
X142254819Y-87200000D02*
X142254819Y-87438095D01*
X142254819Y-87438095D02*
X142302438Y-87580952D01*
X143159580Y-88580952D02*
X143207200Y-88533333D01*
X143207200Y-88533333D02*
X143254819Y-88390476D01*
X143254819Y-88390476D02*
X143254819Y-88295238D01*
X143254819Y-88295238D02*
X143207200Y-88152381D01*
X143207200Y-88152381D02*
X143111961Y-88057143D01*
X143111961Y-88057143D02*
X143016723Y-88009524D01*
X143016723Y-88009524D02*
X142826247Y-87961905D01*
X142826247Y-87961905D02*
X142683390Y-87961905D01*
X142683390Y-87961905D02*
X142492914Y-88009524D01*
X142492914Y-88009524D02*
X142397676Y-88057143D01*
X142397676Y-88057143D02*
X142302438Y-88152381D01*
X142302438Y-88152381D02*
X142254819Y-88295238D01*
X142254819Y-88295238D02*
X142254819Y-88390476D01*
X142254819Y-88390476D02*
X142302438Y-88533333D01*
X142302438Y-88533333D02*
X142350057Y-88580952D01*
X143254819Y-89485714D02*
X143254819Y-89009524D01*
X143254819Y-89009524D02*
X142254819Y-89009524D01*
X139961904Y-102754819D02*
X140438094Y-102754819D01*
X140438094Y-102754819D02*
X140485713Y-103231009D01*
X140485713Y-103231009D02*
X140438094Y-103183390D01*
X140438094Y-103183390D02*
X140342856Y-103135771D01*
X140342856Y-103135771D02*
X140104761Y-103135771D01*
X140104761Y-103135771D02*
X140009523Y-103183390D01*
X140009523Y-103183390D02*
X139961904Y-103231009D01*
X139961904Y-103231009D02*
X139914285Y-103326247D01*
X139914285Y-103326247D02*
X139914285Y-103564342D01*
X139914285Y-103564342D02*
X139961904Y-103659580D01*
X139961904Y-103659580D02*
X140009523Y-103707200D01*
X140009523Y-103707200D02*
X140104761Y-103754819D01*
X140104761Y-103754819D02*
X140342856Y-103754819D01*
X140342856Y-103754819D02*
X140438094Y-103707200D01*
X140438094Y-103707200D02*
X140485713Y-103659580D01*
X135061904Y-102754819D02*
X135538094Y-102754819D01*
X135538094Y-102754819D02*
X135585713Y-103231009D01*
X135585713Y-103231009D02*
X135538094Y-103183390D01*
X135538094Y-103183390D02*
X135442856Y-103135771D01*
X135442856Y-103135771D02*
X135204761Y-103135771D01*
X135204761Y-103135771D02*
X135109523Y-103183390D01*
X135109523Y-103183390D02*
X135061904Y-103231009D01*
X135061904Y-103231009D02*
X135014285Y-103326247D01*
X135014285Y-103326247D02*
X135014285Y-103564342D01*
X135014285Y-103564342D02*
X135061904Y-103659580D01*
X135061904Y-103659580D02*
X135109523Y-103707200D01*
X135109523Y-103707200D02*
X135204761Y-103754819D01*
X135204761Y-103754819D02*
X135442856Y-103754819D01*
X135442856Y-103754819D02*
X135538094Y-103707200D01*
X135538094Y-103707200D02*
X135585713Y-103659580D01*
X108961904Y-99754819D02*
X109438094Y-99754819D01*
X109438094Y-99754819D02*
X109485713Y-100231009D01*
X109485713Y-100231009D02*
X109438094Y-100183390D01*
X109438094Y-100183390D02*
X109342856Y-100135771D01*
X109342856Y-100135771D02*
X109104761Y-100135771D01*
X109104761Y-100135771D02*
X109009523Y-100183390D01*
X109009523Y-100183390D02*
X108961904Y-100231009D01*
X108961904Y-100231009D02*
X108914285Y-100326247D01*
X108914285Y-100326247D02*
X108914285Y-100564342D01*
X108914285Y-100564342D02*
X108961904Y-100659580D01*
X108961904Y-100659580D02*
X109009523Y-100707200D01*
X109009523Y-100707200D02*
X109104761Y-100754819D01*
X109104761Y-100754819D02*
X109342856Y-100754819D01*
X109342856Y-100754819D02*
X109438094Y-100707200D01*
X109438094Y-100707200D02*
X109485713Y-100659580D01*
X111861904Y-104907200D02*
X111719047Y-104954819D01*
X111719047Y-104954819D02*
X111480952Y-104954819D01*
X111480952Y-104954819D02*
X111385714Y-104907200D01*
X111385714Y-104907200D02*
X111338095Y-104859580D01*
X111338095Y-104859580D02*
X111290476Y-104764342D01*
X111290476Y-104764342D02*
X111290476Y-104669104D01*
X111290476Y-104669104D02*
X111338095Y-104573866D01*
X111338095Y-104573866D02*
X111385714Y-104526247D01*
X111385714Y-104526247D02*
X111480952Y-104478628D01*
X111480952Y-104478628D02*
X111671428Y-104431009D01*
X111671428Y-104431009D02*
X111766666Y-104383390D01*
X111766666Y-104383390D02*
X111814285Y-104335771D01*
X111814285Y-104335771D02*
X111861904Y-104240533D01*
X111861904Y-104240533D02*
X111861904Y-104145295D01*
X111861904Y-104145295D02*
X111814285Y-104050057D01*
X111814285Y-104050057D02*
X111766666Y-104002438D01*
X111766666Y-104002438D02*
X111671428Y-103954819D01*
X111671428Y-103954819D02*
X111433333Y-103954819D01*
X111433333Y-103954819D02*
X111290476Y-104002438D01*
X110338095Y-104954819D02*
X110909523Y-104954819D01*
X110623809Y-104954819D02*
X110623809Y-103954819D01*
X110623809Y-103954819D02*
X110719047Y-104097676D01*
X110719047Y-104097676D02*
X110814285Y-104192914D01*
X110814285Y-104192914D02*
X110909523Y-104240533D01*
X120838095Y-97302438D02*
X120933333Y-97254819D01*
X120933333Y-97254819D02*
X121076190Y-97254819D01*
X121076190Y-97254819D02*
X121219047Y-97302438D01*
X121219047Y-97302438D02*
X121314285Y-97397676D01*
X121314285Y-97397676D02*
X121361904Y-97492914D01*
X121361904Y-97492914D02*
X121409523Y-97683390D01*
X121409523Y-97683390D02*
X121409523Y-97826247D01*
X121409523Y-97826247D02*
X121361904Y-98016723D01*
X121361904Y-98016723D02*
X121314285Y-98111961D01*
X121314285Y-98111961D02*
X121219047Y-98207200D01*
X121219047Y-98207200D02*
X121076190Y-98254819D01*
X121076190Y-98254819D02*
X120980952Y-98254819D01*
X120980952Y-98254819D02*
X120838095Y-98207200D01*
X120838095Y-98207200D02*
X120790476Y-98159580D01*
X120790476Y-98159580D02*
X120790476Y-97826247D01*
X120790476Y-97826247D02*
X120980952Y-97826247D01*
X137438095Y-102802438D02*
X137533333Y-102754819D01*
X137533333Y-102754819D02*
X137676190Y-102754819D01*
X137676190Y-102754819D02*
X137819047Y-102802438D01*
X137819047Y-102802438D02*
X137914285Y-102897676D01*
X137914285Y-102897676D02*
X137961904Y-102992914D01*
X137961904Y-102992914D02*
X138009523Y-103183390D01*
X138009523Y-103183390D02*
X138009523Y-103326247D01*
X138009523Y-103326247D02*
X137961904Y-103516723D01*
X137961904Y-103516723D02*
X137914285Y-103611961D01*
X137914285Y-103611961D02*
X137819047Y-103707200D01*
X137819047Y-103707200D02*
X137676190Y-103754819D01*
X137676190Y-103754819D02*
X137580952Y-103754819D01*
X137580952Y-103754819D02*
X137438095Y-103707200D01*
X137438095Y-103707200D02*
X137390476Y-103659580D01*
X137390476Y-103659580D02*
X137390476Y-103326247D01*
X137390476Y-103326247D02*
X137580952Y-103326247D01*
X112590475Y-80407200D02*
X112447618Y-80454819D01*
X112447618Y-80454819D02*
X112209523Y-80454819D01*
X112209523Y-80454819D02*
X112114285Y-80407200D01*
X112114285Y-80407200D02*
X112066666Y-80359580D01*
X112066666Y-80359580D02*
X112019047Y-80264342D01*
X112019047Y-80264342D02*
X112019047Y-80169104D01*
X112019047Y-80169104D02*
X112066666Y-80073866D01*
X112066666Y-80073866D02*
X112114285Y-80026247D01*
X112114285Y-80026247D02*
X112209523Y-79978628D01*
X112209523Y-79978628D02*
X112399999Y-79931009D01*
X112399999Y-79931009D02*
X112495237Y-79883390D01*
X112495237Y-79883390D02*
X112542856Y-79835771D01*
X112542856Y-79835771D02*
X112590475Y-79740533D01*
X112590475Y-79740533D02*
X112590475Y-79645295D01*
X112590475Y-79645295D02*
X112542856Y-79550057D01*
X112542856Y-79550057D02*
X112495237Y-79502438D01*
X112495237Y-79502438D02*
X112399999Y-79454819D01*
X112399999Y-79454819D02*
X112161904Y-79454819D01*
X112161904Y-79454819D02*
X112019047Y-79502438D01*
X111019047Y-80454819D02*
X111352380Y-79978628D01*
X111590475Y-80454819D02*
X111590475Y-79454819D01*
X111590475Y-79454819D02*
X111209523Y-79454819D01*
X111209523Y-79454819D02*
X111114285Y-79502438D01*
X111114285Y-79502438D02*
X111066666Y-79550057D01*
X111066666Y-79550057D02*
X111019047Y-79645295D01*
X111019047Y-79645295D02*
X111019047Y-79788152D01*
X111019047Y-79788152D02*
X111066666Y-79883390D01*
X111066666Y-79883390D02*
X111114285Y-79931009D01*
X111114285Y-79931009D02*
X111209523Y-79978628D01*
X111209523Y-79978628D02*
X111590475Y-79978628D01*
X110733332Y-79454819D02*
X110399999Y-80454819D01*
X110399999Y-80454819D02*
X110066666Y-79454819D01*
X109780951Y-79550057D02*
X109733332Y-79502438D01*
X109733332Y-79502438D02*
X109638094Y-79454819D01*
X109638094Y-79454819D02*
X109399999Y-79454819D01*
X109399999Y-79454819D02*
X109304761Y-79502438D01*
X109304761Y-79502438D02*
X109257142Y-79550057D01*
X109257142Y-79550057D02*
X109209523Y-79645295D01*
X109209523Y-79645295D02*
X109209523Y-79740533D01*
X109209523Y-79740533D02*
X109257142Y-79883390D01*
X109257142Y-79883390D02*
X109828570Y-80454819D01*
X109828570Y-80454819D02*
X109209523Y-80454819D01*
X110390475Y-120907200D02*
X110247618Y-120954819D01*
X110247618Y-120954819D02*
X110009523Y-120954819D01*
X110009523Y-120954819D02*
X109914285Y-120907200D01*
X109914285Y-120907200D02*
X109866666Y-120859580D01*
X109866666Y-120859580D02*
X109819047Y-120764342D01*
X109819047Y-120764342D02*
X109819047Y-120669104D01*
X109819047Y-120669104D02*
X109866666Y-120573866D01*
X109866666Y-120573866D02*
X109914285Y-120526247D01*
X109914285Y-120526247D02*
X110009523Y-120478628D01*
X110009523Y-120478628D02*
X110199999Y-120431009D01*
X110199999Y-120431009D02*
X110295237Y-120383390D01*
X110295237Y-120383390D02*
X110342856Y-120335771D01*
X110342856Y-120335771D02*
X110390475Y-120240533D01*
X110390475Y-120240533D02*
X110390475Y-120145295D01*
X110390475Y-120145295D02*
X110342856Y-120050057D01*
X110342856Y-120050057D02*
X110295237Y-120002438D01*
X110295237Y-120002438D02*
X110199999Y-119954819D01*
X110199999Y-119954819D02*
X109961904Y-119954819D01*
X109961904Y-119954819D02*
X109819047Y-120002438D01*
X108819047Y-120954819D02*
X109152380Y-120478628D01*
X109390475Y-120954819D02*
X109390475Y-119954819D01*
X109390475Y-119954819D02*
X109009523Y-119954819D01*
X109009523Y-119954819D02*
X108914285Y-120002438D01*
X108914285Y-120002438D02*
X108866666Y-120050057D01*
X108866666Y-120050057D02*
X108819047Y-120145295D01*
X108819047Y-120145295D02*
X108819047Y-120288152D01*
X108819047Y-120288152D02*
X108866666Y-120383390D01*
X108866666Y-120383390D02*
X108914285Y-120431009D01*
X108914285Y-120431009D02*
X109009523Y-120478628D01*
X109009523Y-120478628D02*
X109390475Y-120478628D01*
X108533332Y-119954819D02*
X108199999Y-120954819D01*
X108199999Y-120954819D02*
X107866666Y-119954819D01*
X107009523Y-120954819D02*
X107580951Y-120954819D01*
X107295237Y-120954819D02*
X107295237Y-119954819D01*
X107295237Y-119954819D02*
X107390475Y-120097676D01*
X107390475Y-120097676D02*
X107485713Y-120192914D01*
X107485713Y-120192914D02*
X107580951Y-120240533D01*
X161990475Y-92207200D02*
X161847618Y-92254819D01*
X161847618Y-92254819D02*
X161609523Y-92254819D01*
X161609523Y-92254819D02*
X161514285Y-92207200D01*
X161514285Y-92207200D02*
X161466666Y-92159580D01*
X161466666Y-92159580D02*
X161419047Y-92064342D01*
X161419047Y-92064342D02*
X161419047Y-91969104D01*
X161419047Y-91969104D02*
X161466666Y-91873866D01*
X161466666Y-91873866D02*
X161514285Y-91826247D01*
X161514285Y-91826247D02*
X161609523Y-91778628D01*
X161609523Y-91778628D02*
X161799999Y-91731009D01*
X161799999Y-91731009D02*
X161895237Y-91683390D01*
X161895237Y-91683390D02*
X161942856Y-91635771D01*
X161942856Y-91635771D02*
X161990475Y-91540533D01*
X161990475Y-91540533D02*
X161990475Y-91445295D01*
X161990475Y-91445295D02*
X161942856Y-91350057D01*
X161942856Y-91350057D02*
X161895237Y-91302438D01*
X161895237Y-91302438D02*
X161799999Y-91254819D01*
X161799999Y-91254819D02*
X161561904Y-91254819D01*
X161561904Y-91254819D02*
X161419047Y-91302438D01*
X160419047Y-92254819D02*
X160752380Y-91778628D01*
X160990475Y-92254819D02*
X160990475Y-91254819D01*
X160990475Y-91254819D02*
X160609523Y-91254819D01*
X160609523Y-91254819D02*
X160514285Y-91302438D01*
X160514285Y-91302438D02*
X160466666Y-91350057D01*
X160466666Y-91350057D02*
X160419047Y-91445295D01*
X160419047Y-91445295D02*
X160419047Y-91588152D01*
X160419047Y-91588152D02*
X160466666Y-91683390D01*
X160466666Y-91683390D02*
X160514285Y-91731009D01*
X160514285Y-91731009D02*
X160609523Y-91778628D01*
X160609523Y-91778628D02*
X160990475Y-91778628D01*
X160133332Y-91254819D02*
X159799999Y-92254819D01*
X159799999Y-92254819D02*
X159466666Y-91254819D01*
X159228570Y-91254819D02*
X158609523Y-91254819D01*
X158609523Y-91254819D02*
X158942856Y-91635771D01*
X158942856Y-91635771D02*
X158799999Y-91635771D01*
X158799999Y-91635771D02*
X158704761Y-91683390D01*
X158704761Y-91683390D02*
X158657142Y-91731009D01*
X158657142Y-91731009D02*
X158609523Y-91826247D01*
X158609523Y-91826247D02*
X158609523Y-92064342D01*
X158609523Y-92064342D02*
X158657142Y-92159580D01*
X158657142Y-92159580D02*
X158704761Y-92207200D01*
X158704761Y-92207200D02*
X158799999Y-92254819D01*
X158799999Y-92254819D02*
X159085713Y-92254819D01*
X159085713Y-92254819D02*
X159180951Y-92207200D01*
X159180951Y-92207200D02*
X159228570Y-92159580D01*
X140928571Y-75931009D02*
X140785714Y-75978628D01*
X140785714Y-75978628D02*
X140738095Y-76026247D01*
X140738095Y-76026247D02*
X140690476Y-76121485D01*
X140690476Y-76121485D02*
X140690476Y-76264342D01*
X140690476Y-76264342D02*
X140738095Y-76359580D01*
X140738095Y-76359580D02*
X140785714Y-76407200D01*
X140785714Y-76407200D02*
X140880952Y-76454819D01*
X140880952Y-76454819D02*
X141261904Y-76454819D01*
X141261904Y-76454819D02*
X141261904Y-75454819D01*
X141261904Y-75454819D02*
X140928571Y-75454819D01*
X140928571Y-75454819D02*
X140833333Y-75502438D01*
X140833333Y-75502438D02*
X140785714Y-75550057D01*
X140785714Y-75550057D02*
X140738095Y-75645295D01*
X140738095Y-75645295D02*
X140738095Y-75740533D01*
X140738095Y-75740533D02*
X140785714Y-75835771D01*
X140785714Y-75835771D02*
X140833333Y-75883390D01*
X140833333Y-75883390D02*
X140928571Y-75931009D01*
X140928571Y-75931009D02*
X141261904Y-75931009D01*
X139833333Y-75788152D02*
X139833333Y-76454819D01*
X140261904Y-75788152D02*
X140261904Y-76311961D01*
X140261904Y-76311961D02*
X140214285Y-76407200D01*
X140214285Y-76407200D02*
X140119047Y-76454819D01*
X140119047Y-76454819D02*
X139976190Y-76454819D01*
X139976190Y-76454819D02*
X139880952Y-76407200D01*
X139880952Y-76407200D02*
X139833333Y-76359580D01*
X139452380Y-75788152D02*
X138928571Y-75788152D01*
X138928571Y-75788152D02*
X139452380Y-76454819D01*
X139452380Y-76454819D02*
X138928571Y-76454819D01*
X138642856Y-75788152D02*
X138119047Y-75788152D01*
X138119047Y-75788152D02*
X138642856Y-76454819D01*
X138642856Y-76454819D02*
X138119047Y-76454819D01*
X137357142Y-76407200D02*
X137452380Y-76454819D01*
X137452380Y-76454819D02*
X137642856Y-76454819D01*
X137642856Y-76454819D02*
X137738094Y-76407200D01*
X137738094Y-76407200D02*
X137785713Y-76311961D01*
X137785713Y-76311961D02*
X137785713Y-75931009D01*
X137785713Y-75931009D02*
X137738094Y-75835771D01*
X137738094Y-75835771D02*
X137642856Y-75788152D01*
X137642856Y-75788152D02*
X137452380Y-75788152D01*
X137452380Y-75788152D02*
X137357142Y-75835771D01*
X137357142Y-75835771D02*
X137309523Y-75931009D01*
X137309523Y-75931009D02*
X137309523Y-76026247D01*
X137309523Y-76026247D02*
X137785713Y-76121485D01*
X136880951Y-76454819D02*
X136880951Y-75788152D01*
X136880951Y-75978628D02*
X136833332Y-75883390D01*
X136833332Y-75883390D02*
X136785713Y-75835771D01*
X136785713Y-75835771D02*
X136690475Y-75788152D01*
X136690475Y-75788152D02*
X136595237Y-75788152D01*
X135973866Y-82919048D02*
X135973866Y-83680953D01*
X142173866Y-82519048D02*
X142173866Y-83280953D01*
X142554819Y-82900000D02*
X141792914Y-82900000D01*
X171977380Y-106634819D02*
X171977380Y-105634819D01*
X171548809Y-105730057D02*
X171501190Y-105682438D01*
X171501190Y-105682438D02*
X171405952Y-105634819D01*
X171405952Y-105634819D02*
X171167857Y-105634819D01*
X171167857Y-105634819D02*
X171072619Y-105682438D01*
X171072619Y-105682438D02*
X171025000Y-105730057D01*
X171025000Y-105730057D02*
X170977381Y-105825295D01*
X170977381Y-105825295D02*
X170977381Y-105920533D01*
X170977381Y-105920533D02*
X171025000Y-106063390D01*
X171025000Y-106063390D02*
X171596428Y-106634819D01*
X171596428Y-106634819D02*
X170977381Y-106634819D01*
X169977381Y-106539580D02*
X170025000Y-106587200D01*
X170025000Y-106587200D02*
X170167857Y-106634819D01*
X170167857Y-106634819D02*
X170263095Y-106634819D01*
X170263095Y-106634819D02*
X170405952Y-106587200D01*
X170405952Y-106587200D02*
X170501190Y-106491961D01*
X170501190Y-106491961D02*
X170548809Y-106396723D01*
X170548809Y-106396723D02*
X170596428Y-106206247D01*
X170596428Y-106206247D02*
X170596428Y-106063390D01*
X170596428Y-106063390D02*
X170548809Y-105872914D01*
X170548809Y-105872914D02*
X170501190Y-105777676D01*
X170501190Y-105777676D02*
X170405952Y-105682438D01*
X170405952Y-105682438D02*
X170263095Y-105634819D01*
X170263095Y-105634819D02*
X170167857Y-105634819D01*
X170167857Y-105634819D02*
X170025000Y-105682438D01*
X170025000Y-105682438D02*
X169977381Y-105730057D01*
X169025000Y-106634819D02*
X169596428Y-106634819D01*
X169310714Y-106634819D02*
X169310714Y-105634819D01*
X169310714Y-105634819D02*
X169405952Y-105777676D01*
X169405952Y-105777676D02*
X169501190Y-105872914D01*
X169501190Y-105872914D02*
X169596428Y-105920533D01*
X130461904Y-106654819D02*
X129890476Y-106654819D01*
X130176190Y-107654819D02*
X130176190Y-106654819D01*
X129652380Y-106654819D02*
X128985714Y-107654819D01*
X128985714Y-106654819D02*
X129652380Y-107654819D01*
X172411904Y-112688152D02*
X172411904Y-113354819D01*
X172840475Y-112688152D02*
X172840475Y-113211961D01*
X172840475Y-113211961D02*
X172792856Y-113307200D01*
X172792856Y-113307200D02*
X172697618Y-113354819D01*
X172697618Y-113354819D02*
X172554761Y-113354819D01*
X172554761Y-113354819D02*
X172459523Y-113307200D01*
X172459523Y-113307200D02*
X172411904Y-113259580D01*
X171411904Y-113354819D02*
X171983332Y-113354819D01*
X171697618Y-113354819D02*
X171697618Y-112354819D01*
X171697618Y-112354819D02*
X171792856Y-112497676D01*
X171792856Y-112497676D02*
X171888094Y-112592914D01*
X171888094Y-112592914D02*
X171983332Y-112640533D01*
X117361904Y-95787200D02*
X117219047Y-95834819D01*
X117219047Y-95834819D02*
X116980952Y-95834819D01*
X116980952Y-95834819D02*
X116885714Y-95787200D01*
X116885714Y-95787200D02*
X116838095Y-95739580D01*
X116838095Y-95739580D02*
X116790476Y-95644342D01*
X116790476Y-95644342D02*
X116790476Y-95549104D01*
X116790476Y-95549104D02*
X116838095Y-95453866D01*
X116838095Y-95453866D02*
X116885714Y-95406247D01*
X116885714Y-95406247D02*
X116980952Y-95358628D01*
X116980952Y-95358628D02*
X117171428Y-95311009D01*
X117171428Y-95311009D02*
X117266666Y-95263390D01*
X117266666Y-95263390D02*
X117314285Y-95215771D01*
X117314285Y-95215771D02*
X117361904Y-95120533D01*
X117361904Y-95120533D02*
X117361904Y-95025295D01*
X117361904Y-95025295D02*
X117314285Y-94930057D01*
X117314285Y-94930057D02*
X117266666Y-94882438D01*
X117266666Y-94882438D02*
X117171428Y-94834819D01*
X117171428Y-94834819D02*
X116933333Y-94834819D01*
X116933333Y-94834819D02*
X116790476Y-94882438D01*
X115980952Y-95787200D02*
X116076190Y-95834819D01*
X116076190Y-95834819D02*
X116266666Y-95834819D01*
X116266666Y-95834819D02*
X116361904Y-95787200D01*
X116361904Y-95787200D02*
X116409523Y-95691961D01*
X116409523Y-95691961D02*
X116409523Y-95311009D01*
X116409523Y-95311009D02*
X116361904Y-95215771D01*
X116361904Y-95215771D02*
X116266666Y-95168152D01*
X116266666Y-95168152D02*
X116076190Y-95168152D01*
X116076190Y-95168152D02*
X115980952Y-95215771D01*
X115980952Y-95215771D02*
X115933333Y-95311009D01*
X115933333Y-95311009D02*
X115933333Y-95406247D01*
X115933333Y-95406247D02*
X116409523Y-95501485D01*
X115504761Y-95834819D02*
X115504761Y-95168152D01*
X115504761Y-95358628D02*
X115457142Y-95263390D01*
X115457142Y-95263390D02*
X115409523Y-95215771D01*
X115409523Y-95215771D02*
X115314285Y-95168152D01*
X115314285Y-95168152D02*
X115219047Y-95168152D01*
X114980951Y-95168152D02*
X114742856Y-95834819D01*
X114742856Y-95834819D02*
X114504761Y-95168152D01*
X113980951Y-95834819D02*
X114076189Y-95787200D01*
X114076189Y-95787200D02*
X114123808Y-95739580D01*
X114123808Y-95739580D02*
X114171427Y-95644342D01*
X114171427Y-95644342D02*
X114171427Y-95358628D01*
X114171427Y-95358628D02*
X114123808Y-95263390D01*
X114123808Y-95263390D02*
X114076189Y-95215771D01*
X114076189Y-95215771D02*
X113980951Y-95168152D01*
X113980951Y-95168152D02*
X113838094Y-95168152D01*
X113838094Y-95168152D02*
X113742856Y-95215771D01*
X113742856Y-95215771D02*
X113695237Y-95263390D01*
X113695237Y-95263390D02*
X113647618Y-95358628D01*
X113647618Y-95358628D02*
X113647618Y-95644342D01*
X113647618Y-95644342D02*
X113695237Y-95739580D01*
X113695237Y-95739580D02*
X113742856Y-95787200D01*
X113742856Y-95787200D02*
X113838094Y-95834819D01*
X113838094Y-95834819D02*
X113980951Y-95834819D01*
X113266665Y-95787200D02*
X113171427Y-95834819D01*
X113171427Y-95834819D02*
X112980951Y-95834819D01*
X112980951Y-95834819D02*
X112885713Y-95787200D01*
X112885713Y-95787200D02*
X112838094Y-95691961D01*
X112838094Y-95691961D02*
X112838094Y-95644342D01*
X112838094Y-95644342D02*
X112885713Y-95549104D01*
X112885713Y-95549104D02*
X112980951Y-95501485D01*
X112980951Y-95501485D02*
X113123808Y-95501485D01*
X113123808Y-95501485D02*
X113219046Y-95453866D01*
X113219046Y-95453866D02*
X113266665Y-95358628D01*
X113266665Y-95358628D02*
X113266665Y-95311009D01*
X113266665Y-95311009D02*
X113219046Y-95215771D01*
X113219046Y-95215771D02*
X113123808Y-95168152D01*
X113123808Y-95168152D02*
X112980951Y-95168152D01*
X112980951Y-95168152D02*
X112885713Y-95215771D01*
X199477380Y-106634819D02*
X199477380Y-105634819D01*
X199048809Y-105730057D02*
X199001190Y-105682438D01*
X199001190Y-105682438D02*
X198905952Y-105634819D01*
X198905952Y-105634819D02*
X198667857Y-105634819D01*
X198667857Y-105634819D02*
X198572619Y-105682438D01*
X198572619Y-105682438D02*
X198525000Y-105730057D01*
X198525000Y-105730057D02*
X198477381Y-105825295D01*
X198477381Y-105825295D02*
X198477381Y-105920533D01*
X198477381Y-105920533D02*
X198525000Y-106063390D01*
X198525000Y-106063390D02*
X199096428Y-106634819D01*
X199096428Y-106634819D02*
X198477381Y-106634819D01*
X197477381Y-106539580D02*
X197525000Y-106587200D01*
X197525000Y-106587200D02*
X197667857Y-106634819D01*
X197667857Y-106634819D02*
X197763095Y-106634819D01*
X197763095Y-106634819D02*
X197905952Y-106587200D01*
X197905952Y-106587200D02*
X198001190Y-106491961D01*
X198001190Y-106491961D02*
X198048809Y-106396723D01*
X198048809Y-106396723D02*
X198096428Y-106206247D01*
X198096428Y-106206247D02*
X198096428Y-106063390D01*
X198096428Y-106063390D02*
X198048809Y-105872914D01*
X198048809Y-105872914D02*
X198001190Y-105777676D01*
X198001190Y-105777676D02*
X197905952Y-105682438D01*
X197905952Y-105682438D02*
X197763095Y-105634819D01*
X197763095Y-105634819D02*
X197667857Y-105634819D01*
X197667857Y-105634819D02*
X197525000Y-105682438D01*
X197525000Y-105682438D02*
X197477381Y-105730057D01*
X197096428Y-105730057D02*
X197048809Y-105682438D01*
X197048809Y-105682438D02*
X196953571Y-105634819D01*
X196953571Y-105634819D02*
X196715476Y-105634819D01*
X196715476Y-105634819D02*
X196620238Y-105682438D01*
X196620238Y-105682438D02*
X196572619Y-105730057D01*
X196572619Y-105730057D02*
X196525000Y-105825295D01*
X196525000Y-105825295D02*
X196525000Y-105920533D01*
X196525000Y-105920533D02*
X196572619Y-106063390D01*
X196572619Y-106063390D02*
X197144047Y-106634819D01*
X197144047Y-106634819D02*
X196525000Y-106634819D01*
X151890476Y-94388152D02*
X151890476Y-95054819D01*
X152128571Y-94007200D02*
X152366666Y-94721485D01*
X152366666Y-94721485D02*
X151747619Y-94721485D01*
X151366666Y-95054819D02*
X151366666Y-94054819D01*
X151271428Y-94673866D02*
X150985714Y-95054819D01*
X150985714Y-94388152D02*
X151366666Y-94769104D01*
X150652380Y-94054819D02*
X149985714Y-94054819D01*
X149985714Y-94054819D02*
X150414285Y-95054819D01*
X123390476Y-98688152D02*
X123390476Y-99354819D01*
X123628571Y-98307200D02*
X123866666Y-99021485D01*
X123866666Y-99021485D02*
X123247619Y-99021485D01*
X122866666Y-99354819D02*
X122866666Y-98354819D01*
X122771428Y-98973866D02*
X122485714Y-99354819D01*
X122485714Y-98688152D02*
X122866666Y-99069104D01*
X122152380Y-98354819D02*
X121485714Y-98354819D01*
X121485714Y-98354819D02*
X121914285Y-99354819D01*
X123390476Y-101288152D02*
X123390476Y-101954819D01*
X123628571Y-100907200D02*
X123866666Y-101621485D01*
X123866666Y-101621485D02*
X123247619Y-101621485D01*
X122866666Y-101954819D02*
X122866666Y-100954819D01*
X122771428Y-101573866D02*
X122485714Y-101954819D01*
X122485714Y-101288152D02*
X122866666Y-101669104D01*
X122152380Y-100954819D02*
X121485714Y-100954819D01*
X121485714Y-100954819D02*
X121914285Y-101954819D01*
X118390476Y-126854819D02*
X118723809Y-126378628D01*
X118961904Y-126854819D02*
X118961904Y-125854819D01*
X118961904Y-125854819D02*
X118580952Y-125854819D01*
X118580952Y-125854819D02*
X118485714Y-125902438D01*
X118485714Y-125902438D02*
X118438095Y-125950057D01*
X118438095Y-125950057D02*
X118390476Y-126045295D01*
X118390476Y-126045295D02*
X118390476Y-126188152D01*
X118390476Y-126188152D02*
X118438095Y-126283390D01*
X118438095Y-126283390D02*
X118485714Y-126331009D01*
X118485714Y-126331009D02*
X118580952Y-126378628D01*
X118580952Y-126378628D02*
X118961904Y-126378628D01*
X117438095Y-125902438D02*
X117533333Y-125854819D01*
X117533333Y-125854819D02*
X117676190Y-125854819D01*
X117676190Y-125854819D02*
X117819047Y-125902438D01*
X117819047Y-125902438D02*
X117914285Y-125997676D01*
X117914285Y-125997676D02*
X117961904Y-126092914D01*
X117961904Y-126092914D02*
X118009523Y-126283390D01*
X118009523Y-126283390D02*
X118009523Y-126426247D01*
X118009523Y-126426247D02*
X117961904Y-126616723D01*
X117961904Y-126616723D02*
X117914285Y-126711961D01*
X117914285Y-126711961D02*
X117819047Y-126807200D01*
X117819047Y-126807200D02*
X117676190Y-126854819D01*
X117676190Y-126854819D02*
X117580952Y-126854819D01*
X117580952Y-126854819D02*
X117438095Y-126807200D01*
X117438095Y-126807200D02*
X117390476Y-126759580D01*
X117390476Y-126759580D02*
X117390476Y-126426247D01*
X117390476Y-126426247D02*
X117580952Y-126426247D01*
X116628571Y-126331009D02*
X116485714Y-126378628D01*
X116485714Y-126378628D02*
X116438095Y-126426247D01*
X116438095Y-126426247D02*
X116390476Y-126521485D01*
X116390476Y-126521485D02*
X116390476Y-126664342D01*
X116390476Y-126664342D02*
X116438095Y-126759580D01*
X116438095Y-126759580D02*
X116485714Y-126807200D01*
X116485714Y-126807200D02*
X116580952Y-126854819D01*
X116580952Y-126854819D02*
X116961904Y-126854819D01*
X116961904Y-126854819D02*
X116961904Y-125854819D01*
X116961904Y-125854819D02*
X116628571Y-125854819D01*
X116628571Y-125854819D02*
X116533333Y-125902438D01*
X116533333Y-125902438D02*
X116485714Y-125950057D01*
X116485714Y-125950057D02*
X116438095Y-126045295D01*
X116438095Y-126045295D02*
X116438095Y-126140533D01*
X116438095Y-126140533D02*
X116485714Y-126235771D01*
X116485714Y-126235771D02*
X116533333Y-126283390D01*
X116533333Y-126283390D02*
X116628571Y-126331009D01*
X116628571Y-126331009D02*
X116961904Y-126331009D01*
X116961904Y-120688152D02*
X116961904Y-121354819D01*
X117390475Y-120688152D02*
X117390475Y-121211961D01*
X117390475Y-121211961D02*
X117342856Y-121307200D01*
X117342856Y-121307200D02*
X117247618Y-121354819D01*
X117247618Y-121354819D02*
X117104761Y-121354819D01*
X117104761Y-121354819D02*
X117009523Y-121307200D01*
X117009523Y-121307200D02*
X116961904Y-121259580D01*
X115961904Y-121354819D02*
X116533332Y-121354819D01*
X116247618Y-121354819D02*
X116247618Y-120354819D01*
X116247618Y-120354819D02*
X116342856Y-120497676D01*
X116342856Y-120497676D02*
X116438094Y-120592914D01*
X116438094Y-120592914D02*
X116533332Y-120640533D01*
X129966666Y-110154819D02*
X130299999Y-109678628D01*
X130538094Y-110154819D02*
X130538094Y-109154819D01*
X130538094Y-109154819D02*
X130157142Y-109154819D01*
X130157142Y-109154819D02*
X130061904Y-109202438D01*
X130061904Y-109202438D02*
X130014285Y-109250057D01*
X130014285Y-109250057D02*
X129966666Y-109345295D01*
X129966666Y-109345295D02*
X129966666Y-109488152D01*
X129966666Y-109488152D02*
X130014285Y-109583390D01*
X130014285Y-109583390D02*
X130061904Y-109631009D01*
X130061904Y-109631009D02*
X130157142Y-109678628D01*
X130157142Y-109678628D02*
X130538094Y-109678628D01*
X129633332Y-109154819D02*
X128966666Y-110154819D01*
X128966666Y-109154819D02*
X129633332Y-110154819D01*
X182019047Y-109669104D02*
X181542857Y-109669104D01*
X182114285Y-109954819D02*
X181780952Y-108954819D01*
X181780952Y-108954819D02*
X181447619Y-109954819D01*
X181161904Y-109907200D02*
X181019047Y-109954819D01*
X181019047Y-109954819D02*
X180780952Y-109954819D01*
X180780952Y-109954819D02*
X180685714Y-109907200D01*
X180685714Y-109907200D02*
X180638095Y-109859580D01*
X180638095Y-109859580D02*
X180590476Y-109764342D01*
X180590476Y-109764342D02*
X180590476Y-109669104D01*
X180590476Y-109669104D02*
X180638095Y-109573866D01*
X180638095Y-109573866D02*
X180685714Y-109526247D01*
X180685714Y-109526247D02*
X180780952Y-109478628D01*
X180780952Y-109478628D02*
X180971428Y-109431009D01*
X180971428Y-109431009D02*
X181066666Y-109383390D01*
X181066666Y-109383390D02*
X181114285Y-109335771D01*
X181114285Y-109335771D02*
X181161904Y-109240533D01*
X181161904Y-109240533D02*
X181161904Y-109145295D01*
X181161904Y-109145295D02*
X181114285Y-109050057D01*
X181114285Y-109050057D02*
X181066666Y-109002438D01*
X181066666Y-109002438D02*
X180971428Y-108954819D01*
X180971428Y-108954819D02*
X180733333Y-108954819D01*
X180733333Y-108954819D02*
X180590476Y-109002438D01*
X179685714Y-108954819D02*
X180161904Y-108954819D01*
X180161904Y-108954819D02*
X180209523Y-109431009D01*
X180209523Y-109431009D02*
X180161904Y-109383390D01*
X180161904Y-109383390D02*
X180066666Y-109335771D01*
X180066666Y-109335771D02*
X179828571Y-109335771D01*
X179828571Y-109335771D02*
X179733333Y-109383390D01*
X179733333Y-109383390D02*
X179685714Y-109431009D01*
X179685714Y-109431009D02*
X179638095Y-109526247D01*
X179638095Y-109526247D02*
X179638095Y-109764342D01*
X179638095Y-109764342D02*
X179685714Y-109859580D01*
X179685714Y-109859580D02*
X179733333Y-109907200D01*
X179733333Y-109907200D02*
X179828571Y-109954819D01*
X179828571Y-109954819D02*
X180066666Y-109954819D01*
X180066666Y-109954819D02*
X180161904Y-109907200D01*
X180161904Y-109907200D02*
X180209523Y-109859580D01*
X178780952Y-108954819D02*
X178971428Y-108954819D01*
X178971428Y-108954819D02*
X179066666Y-109002438D01*
X179066666Y-109002438D02*
X179114285Y-109050057D01*
X179114285Y-109050057D02*
X179209523Y-109192914D01*
X179209523Y-109192914D02*
X179257142Y-109383390D01*
X179257142Y-109383390D02*
X179257142Y-109764342D01*
X179257142Y-109764342D02*
X179209523Y-109859580D01*
X179209523Y-109859580D02*
X179161904Y-109907200D01*
X179161904Y-109907200D02*
X179066666Y-109954819D01*
X179066666Y-109954819D02*
X178876190Y-109954819D01*
X178876190Y-109954819D02*
X178780952Y-109907200D01*
X178780952Y-109907200D02*
X178733333Y-109859580D01*
X178733333Y-109859580D02*
X178685714Y-109764342D01*
X178685714Y-109764342D02*
X178685714Y-109526247D01*
X178685714Y-109526247D02*
X178733333Y-109431009D01*
X178733333Y-109431009D02*
X178780952Y-109383390D01*
X178780952Y-109383390D02*
X178876190Y-109335771D01*
X178876190Y-109335771D02*
X179066666Y-109335771D01*
X179066666Y-109335771D02*
X179161904Y-109383390D01*
X179161904Y-109383390D02*
X179209523Y-109431009D01*
X179209523Y-109431009D02*
X179257142Y-109526247D01*
X178066666Y-108954819D02*
X177971428Y-108954819D01*
X177971428Y-108954819D02*
X177876190Y-109002438D01*
X177876190Y-109002438D02*
X177828571Y-109050057D01*
X177828571Y-109050057D02*
X177780952Y-109145295D01*
X177780952Y-109145295D02*
X177733333Y-109335771D01*
X177733333Y-109335771D02*
X177733333Y-109573866D01*
X177733333Y-109573866D02*
X177780952Y-109764342D01*
X177780952Y-109764342D02*
X177828571Y-109859580D01*
X177828571Y-109859580D02*
X177876190Y-109907200D01*
X177876190Y-109907200D02*
X177971428Y-109954819D01*
X177971428Y-109954819D02*
X178066666Y-109954819D01*
X178066666Y-109954819D02*
X178161904Y-109907200D01*
X178161904Y-109907200D02*
X178209523Y-109859580D01*
X178209523Y-109859580D02*
X178257142Y-109764342D01*
X178257142Y-109764342D02*
X178304761Y-109573866D01*
X178304761Y-109573866D02*
X178304761Y-109335771D01*
X178304761Y-109335771D02*
X178257142Y-109145295D01*
X178257142Y-109145295D02*
X178209523Y-109050057D01*
X178209523Y-109050057D02*
X178161904Y-109002438D01*
X178161904Y-109002438D02*
X178066666Y-108954819D01*
X177114285Y-108954819D02*
X177019047Y-108954819D01*
X177019047Y-108954819D02*
X176923809Y-109002438D01*
X176923809Y-109002438D02*
X176876190Y-109050057D01*
X176876190Y-109050057D02*
X176828571Y-109145295D01*
X176828571Y-109145295D02*
X176780952Y-109335771D01*
X176780952Y-109335771D02*
X176780952Y-109573866D01*
X176780952Y-109573866D02*
X176828571Y-109764342D01*
X176828571Y-109764342D02*
X176876190Y-109859580D01*
X176876190Y-109859580D02*
X176923809Y-109907200D01*
X176923809Y-109907200D02*
X177019047Y-109954819D01*
X177019047Y-109954819D02*
X177114285Y-109954819D01*
X177114285Y-109954819D02*
X177209523Y-109907200D01*
X177209523Y-109907200D02*
X177257142Y-109859580D01*
X177257142Y-109859580D02*
X177304761Y-109764342D01*
X177304761Y-109764342D02*
X177352380Y-109573866D01*
X177352380Y-109573866D02*
X177352380Y-109335771D01*
X177352380Y-109335771D02*
X177304761Y-109145295D01*
X177304761Y-109145295D02*
X177257142Y-109050057D01*
X177257142Y-109050057D02*
X177209523Y-109002438D01*
X177209523Y-109002438D02*
X177114285Y-108954819D01*
X172411904Y-86888152D02*
X172411904Y-87554819D01*
X172840475Y-86888152D02*
X172840475Y-87411961D01*
X172840475Y-87411961D02*
X172792856Y-87507200D01*
X172792856Y-87507200D02*
X172697618Y-87554819D01*
X172697618Y-87554819D02*
X172554761Y-87554819D01*
X172554761Y-87554819D02*
X172459523Y-87507200D01*
X172459523Y-87507200D02*
X172411904Y-87459580D01*
X171411904Y-87554819D02*
X171983332Y-87554819D01*
X171697618Y-87554819D02*
X171697618Y-86554819D01*
X171697618Y-86554819D02*
X171792856Y-86697676D01*
X171792856Y-86697676D02*
X171888094Y-86792914D01*
X171888094Y-86792914D02*
X171983332Y-86840533D01*
X151990476Y-96888152D02*
X151990476Y-97554819D01*
X152228571Y-96507200D02*
X152466666Y-97221485D01*
X152466666Y-97221485D02*
X151847619Y-97221485D01*
X151466666Y-97554819D02*
X151466666Y-96554819D01*
X151371428Y-97173866D02*
X151085714Y-97554819D01*
X151085714Y-96888152D02*
X151466666Y-97269104D01*
X150752380Y-96554819D02*
X150085714Y-96554819D01*
X150085714Y-96554819D02*
X150514285Y-97554819D01*
X150366666Y-89054819D02*
X150938094Y-89054819D01*
X150652380Y-89054819D02*
X150652380Y-88054819D01*
X150652380Y-88054819D02*
X150747618Y-88197676D01*
X150747618Y-88197676D02*
X150842856Y-88292914D01*
X150842856Y-88292914D02*
X150938094Y-88340533D01*
X149747618Y-88054819D02*
X149652380Y-88054819D01*
X149652380Y-88054819D02*
X149557142Y-88102438D01*
X149557142Y-88102438D02*
X149509523Y-88150057D01*
X149509523Y-88150057D02*
X149461904Y-88245295D01*
X149461904Y-88245295D02*
X149414285Y-88435771D01*
X149414285Y-88435771D02*
X149414285Y-88673866D01*
X149414285Y-88673866D02*
X149461904Y-88864342D01*
X149461904Y-88864342D02*
X149509523Y-88959580D01*
X149509523Y-88959580D02*
X149557142Y-89007200D01*
X149557142Y-89007200D02*
X149652380Y-89054819D01*
X149652380Y-89054819D02*
X149747618Y-89054819D01*
X149747618Y-89054819D02*
X149842856Y-89007200D01*
X149842856Y-89007200D02*
X149890475Y-88959580D01*
X149890475Y-88959580D02*
X149938094Y-88864342D01*
X149938094Y-88864342D02*
X149985713Y-88673866D01*
X149985713Y-88673866D02*
X149985713Y-88435771D01*
X149985713Y-88435771D02*
X149938094Y-88245295D01*
X149938094Y-88245295D02*
X149890475Y-88150057D01*
X149890475Y-88150057D02*
X149842856Y-88102438D01*
X149842856Y-88102438D02*
X149747618Y-88054819D01*
X148795237Y-88054819D02*
X148699999Y-88054819D01*
X148699999Y-88054819D02*
X148604761Y-88102438D01*
X148604761Y-88102438D02*
X148557142Y-88150057D01*
X148557142Y-88150057D02*
X148509523Y-88245295D01*
X148509523Y-88245295D02*
X148461904Y-88435771D01*
X148461904Y-88435771D02*
X148461904Y-88673866D01*
X148461904Y-88673866D02*
X148509523Y-88864342D01*
X148509523Y-88864342D02*
X148557142Y-88959580D01*
X148557142Y-88959580D02*
X148604761Y-89007200D01*
X148604761Y-89007200D02*
X148699999Y-89054819D01*
X148699999Y-89054819D02*
X148795237Y-89054819D01*
X148795237Y-89054819D02*
X148890475Y-89007200D01*
X148890475Y-89007200D02*
X148938094Y-88959580D01*
X148938094Y-88959580D02*
X148985713Y-88864342D01*
X148985713Y-88864342D02*
X149033332Y-88673866D01*
X149033332Y-88673866D02*
X149033332Y-88435771D01*
X149033332Y-88435771D02*
X148985713Y-88245295D01*
X148985713Y-88245295D02*
X148938094Y-88150057D01*
X148938094Y-88150057D02*
X148890475Y-88102438D01*
X148890475Y-88102438D02*
X148795237Y-88054819D01*
X147461904Y-89054819D02*
X147795237Y-88578628D01*
X148033332Y-89054819D02*
X148033332Y-88054819D01*
X148033332Y-88054819D02*
X147652380Y-88054819D01*
X147652380Y-88054819D02*
X147557142Y-88102438D01*
X147557142Y-88102438D02*
X147509523Y-88150057D01*
X147509523Y-88150057D02*
X147461904Y-88245295D01*
X147461904Y-88245295D02*
X147461904Y-88388152D01*
X147461904Y-88388152D02*
X147509523Y-88483390D01*
X147509523Y-88483390D02*
X147557142Y-88531009D01*
X147557142Y-88531009D02*
X147652380Y-88578628D01*
X147652380Y-88578628D02*
X148033332Y-88578628D01*
X182019047Y-91069104D02*
X181542857Y-91069104D01*
X182114285Y-91354819D02*
X181780952Y-90354819D01*
X181780952Y-90354819D02*
X181447619Y-91354819D01*
X181161904Y-91307200D02*
X181019047Y-91354819D01*
X181019047Y-91354819D02*
X180780952Y-91354819D01*
X180780952Y-91354819D02*
X180685714Y-91307200D01*
X180685714Y-91307200D02*
X180638095Y-91259580D01*
X180638095Y-91259580D02*
X180590476Y-91164342D01*
X180590476Y-91164342D02*
X180590476Y-91069104D01*
X180590476Y-91069104D02*
X180638095Y-90973866D01*
X180638095Y-90973866D02*
X180685714Y-90926247D01*
X180685714Y-90926247D02*
X180780952Y-90878628D01*
X180780952Y-90878628D02*
X180971428Y-90831009D01*
X180971428Y-90831009D02*
X181066666Y-90783390D01*
X181066666Y-90783390D02*
X181114285Y-90735771D01*
X181114285Y-90735771D02*
X181161904Y-90640533D01*
X181161904Y-90640533D02*
X181161904Y-90545295D01*
X181161904Y-90545295D02*
X181114285Y-90450057D01*
X181114285Y-90450057D02*
X181066666Y-90402438D01*
X181066666Y-90402438D02*
X180971428Y-90354819D01*
X180971428Y-90354819D02*
X180733333Y-90354819D01*
X180733333Y-90354819D02*
X180590476Y-90402438D01*
X179685714Y-90354819D02*
X180161904Y-90354819D01*
X180161904Y-90354819D02*
X180209523Y-90831009D01*
X180209523Y-90831009D02*
X180161904Y-90783390D01*
X180161904Y-90783390D02*
X180066666Y-90735771D01*
X180066666Y-90735771D02*
X179828571Y-90735771D01*
X179828571Y-90735771D02*
X179733333Y-90783390D01*
X179733333Y-90783390D02*
X179685714Y-90831009D01*
X179685714Y-90831009D02*
X179638095Y-90926247D01*
X179638095Y-90926247D02*
X179638095Y-91164342D01*
X179638095Y-91164342D02*
X179685714Y-91259580D01*
X179685714Y-91259580D02*
X179733333Y-91307200D01*
X179733333Y-91307200D02*
X179828571Y-91354819D01*
X179828571Y-91354819D02*
X180066666Y-91354819D01*
X180066666Y-91354819D02*
X180161904Y-91307200D01*
X180161904Y-91307200D02*
X180209523Y-91259580D01*
X178780952Y-90354819D02*
X178971428Y-90354819D01*
X178971428Y-90354819D02*
X179066666Y-90402438D01*
X179066666Y-90402438D02*
X179114285Y-90450057D01*
X179114285Y-90450057D02*
X179209523Y-90592914D01*
X179209523Y-90592914D02*
X179257142Y-90783390D01*
X179257142Y-90783390D02*
X179257142Y-91164342D01*
X179257142Y-91164342D02*
X179209523Y-91259580D01*
X179209523Y-91259580D02*
X179161904Y-91307200D01*
X179161904Y-91307200D02*
X179066666Y-91354819D01*
X179066666Y-91354819D02*
X178876190Y-91354819D01*
X178876190Y-91354819D02*
X178780952Y-91307200D01*
X178780952Y-91307200D02*
X178733333Y-91259580D01*
X178733333Y-91259580D02*
X178685714Y-91164342D01*
X178685714Y-91164342D02*
X178685714Y-90926247D01*
X178685714Y-90926247D02*
X178733333Y-90831009D01*
X178733333Y-90831009D02*
X178780952Y-90783390D01*
X178780952Y-90783390D02*
X178876190Y-90735771D01*
X178876190Y-90735771D02*
X179066666Y-90735771D01*
X179066666Y-90735771D02*
X179161904Y-90783390D01*
X179161904Y-90783390D02*
X179209523Y-90831009D01*
X179209523Y-90831009D02*
X179257142Y-90926247D01*
X178066666Y-90354819D02*
X177971428Y-90354819D01*
X177971428Y-90354819D02*
X177876190Y-90402438D01*
X177876190Y-90402438D02*
X177828571Y-90450057D01*
X177828571Y-90450057D02*
X177780952Y-90545295D01*
X177780952Y-90545295D02*
X177733333Y-90735771D01*
X177733333Y-90735771D02*
X177733333Y-90973866D01*
X177733333Y-90973866D02*
X177780952Y-91164342D01*
X177780952Y-91164342D02*
X177828571Y-91259580D01*
X177828571Y-91259580D02*
X177876190Y-91307200D01*
X177876190Y-91307200D02*
X177971428Y-91354819D01*
X177971428Y-91354819D02*
X178066666Y-91354819D01*
X178066666Y-91354819D02*
X178161904Y-91307200D01*
X178161904Y-91307200D02*
X178209523Y-91259580D01*
X178209523Y-91259580D02*
X178257142Y-91164342D01*
X178257142Y-91164342D02*
X178304761Y-90973866D01*
X178304761Y-90973866D02*
X178304761Y-90735771D01*
X178304761Y-90735771D02*
X178257142Y-90545295D01*
X178257142Y-90545295D02*
X178209523Y-90450057D01*
X178209523Y-90450057D02*
X178161904Y-90402438D01*
X178161904Y-90402438D02*
X178066666Y-90354819D01*
X177114285Y-90354819D02*
X177019047Y-90354819D01*
X177019047Y-90354819D02*
X176923809Y-90402438D01*
X176923809Y-90402438D02*
X176876190Y-90450057D01*
X176876190Y-90450057D02*
X176828571Y-90545295D01*
X176828571Y-90545295D02*
X176780952Y-90735771D01*
X176780952Y-90735771D02*
X176780952Y-90973866D01*
X176780952Y-90973866D02*
X176828571Y-91164342D01*
X176828571Y-91164342D02*
X176876190Y-91259580D01*
X176876190Y-91259580D02*
X176923809Y-91307200D01*
X176923809Y-91307200D02*
X177019047Y-91354819D01*
X177019047Y-91354819D02*
X177114285Y-91354819D01*
X177114285Y-91354819D02*
X177209523Y-91307200D01*
X177209523Y-91307200D02*
X177257142Y-91259580D01*
X177257142Y-91259580D02*
X177304761Y-91164342D01*
X177304761Y-91164342D02*
X177352380Y-90973866D01*
X177352380Y-90973866D02*
X177352380Y-90735771D01*
X177352380Y-90735771D02*
X177304761Y-90545295D01*
X177304761Y-90545295D02*
X177257142Y-90450057D01*
X177257142Y-90450057D02*
X177209523Y-90402438D01*
X177209523Y-90402438D02*
X177114285Y-90354819D01*
D11*
%TO.C,BZ1*%
X135250000Y-83300000D02*
X135250000Y-79900000D01*
X137300000Y-77850000D02*
X140700000Y-77850000D01*
X140700000Y-85350000D02*
X137300000Y-85350000D01*
X142750000Y-79900000D02*
X142750000Y-83300000D01*
D12*
X142750000Y-81200000D02*
X139400000Y-77850000D01*
X140250000Y-77850000D02*
X137750000Y-77850000D01*
X137750000Y-78950000D01*
X140250000Y-78950000D01*
X140250000Y-77850000D01*
%TO.C,J2*%
X133810000Y-98250000D02*
X133810000Y-92950000D01*
X134380000Y-92950000D02*
X133810000Y-92950000D01*
X134380000Y-98250000D02*
X133810000Y-98250000D01*
X136920000Y-92950000D02*
X136000000Y-92950000D01*
X136920000Y-98250000D02*
X136000000Y-98250000D01*
X139460000Y-92950000D02*
X138540000Y-92950000D01*
X139460000Y-98250000D02*
X138540000Y-98250000D01*
X142000000Y-92950000D02*
X141080000Y-92950000D01*
X142000000Y-98250000D02*
X141080000Y-98250000D01*
X143620000Y-99640000D02*
X143620000Y-98250000D01*
X144190000Y-92950000D02*
X143620000Y-92950000D01*
X144190000Y-98250000D02*
X143620000Y-98250000D01*
X144190000Y-98250000D02*
X144190000Y-92950000D01*
%TO.C,J3*%
X169145000Y-97450000D02*
X169145000Y-105180000D01*
X171905000Y-94800000D02*
X170525000Y-94800000D01*
X171905000Y-96180000D02*
X171905000Y-94800000D01*
X171905000Y-97450000D02*
X169145000Y-97450000D01*
X171905000Y-97450000D02*
X171905000Y-105180000D01*
X171905000Y-105180000D02*
X169145000Y-105180000D01*
%TO.C,J8*%
X130950000Y-106250000D02*
X130950000Y-108150000D01*
X130950000Y-108150000D02*
X132850000Y-108150000D01*
X132850000Y-106250000D02*
X130950000Y-106250000D01*
X132850000Y-108150000D02*
X132850000Y-106250000D01*
%TO.C,C1*%
X173090000Y-113611252D02*
X173090000Y-112188748D01*
X174910000Y-113611252D02*
X174910000Y-112188748D01*
%TO.C,J1*%
X111060000Y-103650000D02*
X112450000Y-103650000D01*
X112450000Y-96380000D02*
X117750000Y-96380000D01*
X112450000Y-96950000D02*
X112450000Y-96380000D01*
X112450000Y-99490000D02*
X112450000Y-98570000D01*
X112450000Y-102030000D02*
X112450000Y-101110000D01*
X112450000Y-104220000D02*
X112450000Y-103650000D01*
X112450000Y-104220000D02*
X117750000Y-104220000D01*
X117750000Y-96950000D02*
X117750000Y-96380000D01*
X117750000Y-99490000D02*
X117750000Y-98570000D01*
X117750000Y-102030000D02*
X117750000Y-101110000D01*
X117750000Y-104220000D02*
X117750000Y-103650000D01*
%TO.C,J4*%
X196645000Y-97450000D02*
X196645000Y-105180000D01*
X199405000Y-94800000D02*
X198025000Y-94800000D01*
X199405000Y-96180000D02*
X199405000Y-94800000D01*
X199405000Y-97450000D02*
X196645000Y-97450000D01*
X199405000Y-97450000D02*
X199405000Y-105180000D01*
X199405000Y-105180000D02*
X196645000Y-105180000D01*
%TO.C,R3*%
X146572936Y-93690000D02*
X148027064Y-93690000D01*
X146572936Y-95510000D02*
X148027064Y-95510000D01*
%TO.C,R5*%
X126927064Y-97990000D02*
X125472936Y-97990000D01*
X126927064Y-99810000D02*
X125472936Y-99810000D01*
%TO.C,R6*%
X126927064Y-100290000D02*
X125472936Y-100290000D01*
X126927064Y-102110000D02*
X125472936Y-102110000D01*
%TO.C,J7*%
X113850000Y-124850000D02*
X113850000Y-126750000D01*
X113850000Y-126750000D02*
X115750000Y-126750000D01*
X115750000Y-124850000D02*
X113850000Y-124850000D01*
X115750000Y-126750000D02*
X115750000Y-124850000D01*
%TO.C,C3*%
X114011252Y-119990000D02*
X112588748Y-119990000D01*
X114011252Y-121810000D02*
X112588748Y-121810000D01*
D11*
%TO.C,U1*%
X134000000Y-104650000D02*
X134000000Y-107000000D01*
X134000000Y-127050000D02*
X134000000Y-127350000D01*
X138500000Y-127350000D02*
X134000000Y-127350000D01*
X138500000Y-128650000D02*
X138500000Y-127350000D01*
X147500000Y-128650000D02*
X138500000Y-128650000D01*
X147500000Y-128650000D02*
X147500000Y-127350000D01*
X152000000Y-104650000D02*
X134000000Y-104650000D01*
X152000000Y-104650000D02*
X152000000Y-107000000D01*
X152000000Y-127050000D02*
X152000000Y-127350000D01*
X152000000Y-127350000D02*
X147500000Y-127350000D01*
D12*
%TO.C,J9*%
X130950000Y-108773250D02*
X130950000Y-110673250D01*
X130950000Y-110673250D02*
X132850000Y-110673250D01*
X132850000Y-108773250D02*
X130950000Y-108773250D01*
X132850000Y-110673250D02*
X132850000Y-108773250D01*
%TO.C,U3*%
X179400000Y-110340000D02*
X177450000Y-110340000D01*
X179400000Y-110340000D02*
X181350000Y-110340000D01*
X179400000Y-115460000D02*
X175950000Y-115460000D01*
X179400000Y-115460000D02*
X181350000Y-115460000D01*
%TO.C,C2*%
X173090000Y-87811252D02*
X173090000Y-86388748D01*
X174910000Y-87811252D02*
X174910000Y-86388748D01*
%TO.C,R4*%
X146572936Y-96190000D02*
X148027064Y-96190000D01*
X146572936Y-98010000D02*
X148027064Y-98010000D01*
%TO.C,R2*%
X144990000Y-87872936D02*
X144990000Y-89327064D01*
X146810000Y-87872936D02*
X146810000Y-89327064D01*
%TO.C,U2*%
X179400000Y-84540000D02*
X177450000Y-84540000D01*
X179400000Y-84540000D02*
X181350000Y-84540000D01*
X179400000Y-89660000D02*
X175950000Y-89660000D01*
X179400000Y-89660000D02*
X181350000Y-89660000D01*
%TO.C,D21*%
D13*
X114075000Y-123000000D02*
G75*
G02*
X113725000Y-123000000I-175000J0D01*
G01*
X113725000Y-123000000D02*
G75*
G02*
X114075000Y-123000000I175000J0D01*
G01*
D14*
X121500000Y-124800000D02*
X121200000Y-124500000D01*
X121500000Y-124200000D01*
X121500000Y-124800000D01*
G36*
X121500000Y-124800000D02*
G01*
X121200000Y-124500000D01*
X121500000Y-124200000D01*
X121500000Y-124800000D01*
G37*
D12*
%TO.C,SW8*%
X124070000Y-120570000D02*
X124070000Y-120600000D01*
X124070000Y-122500000D02*
X124070000Y-125100000D01*
X124070000Y-127030000D02*
X124070000Y-127000000D01*
X130530000Y-120570000D02*
X124070000Y-120570000D01*
X130530000Y-120600000D02*
X130530000Y-120570000D01*
X130530000Y-122500000D02*
X130530000Y-125100000D01*
X130530000Y-127030000D02*
X124070000Y-127030000D01*
X130530000Y-127030000D02*
X130530000Y-127000000D01*
%TD*%
%LPC*%
D15*
%TO.C,J6*%
X129550000Y-96200000D03*
D16*
X129550000Y-98740000D03*
X129550000Y-101280000D03*
X129550000Y-103820000D03*
%TD*%
D15*
%TO.C,J5*%
X102050000Y-96200000D03*
D16*
X102050000Y-98740000D03*
X102050000Y-101280000D03*
X102050000Y-103820000D03*
%TD*%
D17*
%TO.C,BZ1*%
X135925000Y-78225000D03*
X142075000Y-78225000D03*
X135925000Y-84975000D03*
X142075000Y-84975000D03*
%TD*%
D18*
%TO.C,J2*%
X142806000Y-98996000D03*
X142806000Y-92204000D03*
D19*
X140270000Y-98996000D03*
D18*
X140274000Y-92204000D03*
X137726000Y-98996000D03*
X137734000Y-92204000D03*
X135186000Y-98996000D03*
X135194000Y-92204000D03*
%TD*%
D15*
%TO.C,J3*%
X170525000Y-96180000D03*
D16*
X170525000Y-98720000D03*
X170525000Y-101260000D03*
X170525000Y-103800000D03*
%TD*%
D20*
%TO.C,J8*%
X131900000Y-107200000D03*
%TD*%
D21*
%TO.C,C1*%
X174000000Y-114462500D03*
X174000000Y-111337500D03*
%TD*%
D22*
%TO.C,J1*%
X112085000Y-102836000D03*
D23*
X118178500Y-102836000D03*
D24*
X112085000Y-100300000D03*
D23*
X118178500Y-100296000D03*
D24*
X112085000Y-97760000D03*
D25*
X118178500Y-97760000D03*
%TD*%
D15*
%TO.C,J4*%
X198025000Y-96180000D03*
D16*
X198025000Y-98720000D03*
X198025000Y-101260000D03*
X198025000Y-103800000D03*
%TD*%
D26*
%TO.C,R3*%
X145750000Y-94600000D03*
X148850000Y-94600000D03*
%TD*%
D27*
%TO.C,R5*%
X127750000Y-98900000D03*
X124650000Y-98900000D03*
%TD*%
%TO.C,R6*%
X127750000Y-101200000D03*
X124650000Y-101200000D03*
%TD*%
D20*
%TO.C,J7*%
X114800000Y-125800000D03*
%TD*%
D28*
%TO.C,C3*%
X114862500Y-120900000D03*
X111737500Y-120900000D03*
%TD*%
D29*
%TO.C,U1*%
X150985000Y-108120000D03*
X150985000Y-110660000D03*
X150985000Y-113200000D03*
X150985000Y-115740000D03*
X150985000Y-120820000D03*
X150985000Y-118280000D03*
X135015000Y-125900000D03*
X150985000Y-125900000D03*
X135015000Y-123360000D03*
X135015000Y-120820000D03*
X135015000Y-118280000D03*
X135015000Y-115740000D03*
X135015000Y-113200000D03*
X135015000Y-110660000D03*
X135015000Y-108120000D03*
X150985000Y-123360000D03*
%TD*%
D20*
%TO.C,J9*%
X131900000Y-109723250D03*
%TD*%
D30*
%TO.C,U3*%
X176800000Y-114805000D03*
X176800000Y-113535000D03*
X176800000Y-112265000D03*
X176800000Y-110995000D03*
X182000000Y-110995000D03*
X182000000Y-112265000D03*
X182000000Y-113535000D03*
X182000000Y-114805000D03*
%TD*%
D21*
%TO.C,C2*%
X174000000Y-88662500D03*
X174000000Y-85537500D03*
%TD*%
D26*
%TO.C,R4*%
X145750000Y-97100000D03*
X148850000Y-97100000D03*
%TD*%
D31*
%TO.C,R2*%
X145900000Y-87050000D03*
X145900000Y-90150000D03*
%TD*%
D30*
%TO.C,U2*%
X176800000Y-89005000D03*
X176800000Y-87735000D03*
X176800000Y-86465000D03*
X176800000Y-85195000D03*
X182000000Y-85195000D03*
X182000000Y-86465000D03*
X182000000Y-87735000D03*
X182000000Y-89005000D03*
%TD*%
D32*
%TO.C,D21*%
X114750000Y-123050000D03*
D33*
X114750000Y-124530000D03*
D32*
X120650000Y-124550000D03*
D34*
X120650000Y-123020000D03*
%TD*%
D35*
%TO.C,SW8*%
X131775000Y-121550000D03*
X122825000Y-121550000D03*
X131775000Y-126050000D03*
X122825000Y-126050000D03*
%TD*%
%LPD*%
M02*
